<svg xmlns="http://www.w3.org/2000/svg" width="737" height="539" viewBox="0 0 737 539"><rect x="0" y="0" width="737" height="539" fill="none" stroke="#000" stroke-width="1"/><path d="M 450.2143664670058 247.6883191809409 L 449.5 250.4 L 443.3999999999999 250.80000000000007 Z" fill="#ff2d55" stroke="none"/><path d="M 450.2143664670058 247.6883191809409 L 443.3999999999999 250.80000000000007 L 443.6 244.2 Z" fill="#ff2d55" stroke="none"/><path d="M 450.2143664670058 247.6883191809409 L 443.6 244.2 L 437.2224531691044 236.4539645881449 Z" fill="#ff2d55" stroke="none"/><path d="M 437.2224531691044 236.4539645881449 L 443.6 244.2 L 437.90000000000003 241.09999999999994 Z" fill="#ff2d55" stroke="none"/><path d="M 441.5 248.3 L 443.6 244.2 L 443.3999999999999 250.80000000000007 Z" fill="#ff2d55" stroke="none"/><path d="M 425.6000000000003 226.6 L 430.3 219.8 L 434.6430574934694 223.19442494116635 Z" fill="#ff2d55" stroke="none"/><path d="M 434.6430574934694 223.19442494116635 L 430.3 219.8 L 433.5 218.8 Z" fill="#ff2d55" stroke="none"/><path d="M 460.54063814977536 229.94522455060692 L 460.0 241.59999999999994 L 453.18771246166943 247.3451270854628 Z" fill="#ff2d55" stroke="none"/><path d="M 453.18771246166943 247.3451270854628 L 460.0 241.59999999999994 L 455.8 247.20000000000002 Z" fill="#ff2d55" stroke="none"/><path d="M 448.0 225.90000000000006 L 445.71025182965474 221.48224514493174 L 446.8 221.4 Z" fill="#ff2d55" stroke="none"/><path d="M 440.1999999999999 224.0 L 441.5 221.8 L 445.71025182965474 221.48224514493174 Z" fill="#ff2d55" stroke="none"/></svg>