<svg xmlns="http://www.w3.org/2000/svg" width="737" height="539" viewBox="0 0 737 539"><rect x="0" y="0" width="100%" height="100%" fill="none" stroke="#ffffff" stroke-width="1"/><g id="bboxes"><rect x="331.978" y="465.141" width="50.000" height="67.000" fill="none" stroke="#00ff7f" stroke-width="1"/><rect x="302.242" y="381.838" width="42.000" height="84.000" fill="none" stroke="#00ff7f" stroke-width="1"/><rect x="457.532" y="347.124" width="67.000" height="45.000" fill="none" stroke="#00ff7f" stroke-width="1"/><rect x="640.169" y="112.824" width="56.000" height="47.000" fill="none" stroke="#00ff7f" stroke-width="1"/><rect x="337.869" y="311.405" width="50.000" height="70.000" fill="none" stroke="#00ff7f" stroke-width="1"/><rect x="687.340" y="263.651" width="45.000" height="53.000" fill="none" stroke="#00ff7f" stroke-width="1"/><rect x="402.500" y="347.610" width="55.000" height="56.000" fill="none" stroke="#00ff7f" stroke-width="1"/><rect x="687.485" y="158.403" width="49.000" height="51.000" fill="none" stroke="#00ff7f" stroke-width="1"/><rect x="430.906" y="403.281" width="48.000" height="64.000" fill="none" stroke="#00ff7f" stroke-width="1"/><rect x="547.532" y="291.586" width="41.000" height="57.000" fill="none" stroke="#00ff7f" stroke-width="1"/><rect x="615.844" y="426.674" width="34.000" height="59.000" fill="none" stroke="#00ff7f" stroke-width="1"/><rect x="285.280" y="242.884" width="53.000" height="69.000" fill="none" stroke="#00ff7f" stroke-width="1"/><rect x="524.674" y="348.670" width="52.000" height="44.000" fill="none" stroke="#00ff7f" stroke-width="1"/><rect x="430.641" y="467.943" width="64.000" height="38.000" fill="none" stroke="#00ff7f" stroke-width="1"/><rect x="674.245" y="360.938" width="47.000" height="46.000" fill="none" stroke="#00ff7f" stroke-width="1"/><rect x="451.143" y="184.547" width="42.000" height="69.000" fill="none" stroke="#00ff7f" stroke-width="1"/><rect x="678.359" y="316.437" width="53.000" height="44.000" fill="none" stroke="#00ff7f" stroke-width="1"/><rect x="588.018" y="306.629" width="44.000" height="53.000" fill="none" stroke="#00ff7f" stroke-width="1"/><rect x="577.966" y="443.144" width="32.000" height="61.000" fill="none" stroke="#00ff7f" stroke-width="1"/><rect x="478.369" y="404.599" width="44.000" height="49.000" fill="none" stroke="#00ff7f" stroke-width="1"/><rect x="494.346" y="453.712" width="28.000" height="76.000" fill="none" stroke="#00ff7f" stroke-width="1"/><rect x="687.925" y="209.848" width="46.000" height="54.000" fill="none" stroke="#00ff7f" stroke-width="1"/><rect x="625.525" y="378.358" width="45.000" height="48.000" fill="none" stroke="#00ff7f" stroke-width="1"/><rect x="522.240" y="392.608" width="40.000" height="53.000" fill="none" stroke="#00ff7f" stroke-width="1"/><rect x="562.491" y="404.328" width="53.000" height="39.000" fill="none" stroke="#00ff7f" stroke-width="1"/><rect x="670.460" y="406.477" width="53.000" height="38.000" fill="none" stroke="#00ff7f" stroke-width="1"/><rect x="576.591" y="359.775" width="49.000" height="45.000" fill="none" stroke="#00ff7f" stroke-width="1"/><rect x="609.488" y="485.410" width="38.000" height="48.000" fill="none" stroke="#00ff7f" stroke-width="1"/><rect x="681.457" y="502.805" width="46.000" height="36.000" fill="none" stroke="#00ff7f" stroke-width="1"/><rect x="522.602" y="485.120" width="55.000" height="36.000" fill="none" stroke="#00ff7f" stroke-width="1"/><rect x="647.234" y="485.256" width="34.000" height="53.000" fill="none" stroke="#00ff7f" stroke-width="1"/><rect x="522.665" y="445.829" width="35.000" height="40.000" fill="none" stroke="#00ff7f" stroke-width="1"/><rect x="681.944" y="444.976" width="31.000" height="58.000" fill="none" stroke="#00ff7f" stroke-width="1"/><rect x="381.905" y="505.092" width="97.000" height="33.000" fill="none" stroke="#00ff7f" stroke-width="1"/></g><g id="polys"><path d="M 364.165 465.141 L 332.440 490.067 L 332.101 504.433 L 331.978 512.754 L 345.455 525.897 L 354.784 531.431 L 359.461 523.185 L 364.768 522.604 L 381.400 513.543 Z" fill="none" stroke="#ff3b30" stroke-width="1"/><text x="366.165" y="477.141" fill="#ff3b30" font-size="10">35</text><path d="M 327.332 386.575 L 324.174 385.786 L 316.255 387.887 L 302.242 464.794 L 318.644 465.623 L 337.566 417.102 L 341.434 398.680 L 343.077 389.846 L 343.649 381.838 Z" fill="none" stroke="#ff3b30" stroke-width="1"/><text x="329.332" y="398.575" fill="#ff3b30" font-size="10">31</text><path d="M 482.391 347.124 L 457.532 362.039 L 462.138 387.933 L 522.768 391.480 L 524.516 387.470 Z" fill="none" stroke="#ff3b30" stroke-width="1"/><text x="484.391" y="359.124" fill="#ff3b30" font-size="10">86</text><path d="M 640.169 129.463 L 651.008 159.764 L 680.713 151.294 L 695.224 114.957 L 665.988 112.824 Z" fill="none" stroke="#ff3b30" stroke-width="1"/><text x="642.169" y="141.463" fill="#ff3b30" font-size="10">92</text><path d="M 358.946 315.918 L 345.582 340.507 L 337.869 356.594 L 347.748 380.498 L 351.934 380.456 L 357.011 367.455 L 364.097 357.219 L 369.522 356.014 L 377.080 344.799 L 377.189 338.935 L 386.977 311.405 Z" fill="none" stroke="#ff3b30" stroke-width="1"/><text x="360.946" y="327.918" fill="#ff3b30" font-size="10">109</text><path d="M 693.686 279.161 L 692.435 291.676 L 701.143 294.443 L 687.340 312.847 L 689.219 316.297 L 710.901 314.773 L 731.634 310.219 L 727.787 283.858 L 726.764 263.651 L 703.897 271.126 L 699.504 265.729 L 695.568 267.670 L 695.865 275.089 Z" fill="none" stroke="#ff3b30" stroke-width="1"/><text x="695.686" y="291.161" fill="#ff3b30" font-size="10">99</text><path d="M 445.042 347.610 L 416.354 366.655 L 402.500 391.593 L 420.980 391.308 L 456.563 402.704 L 451.828 376.087 Z" fill="none" stroke="#ff3b30" stroke-width="1"/><text x="447.042" y="359.610" fill="#ff3b30" font-size="10">40</text><path d="M 687.485 208.404 L 714.978 203.978 L 736.430 163.420 L 700.285 158.403 Z" fill="none" stroke="#ff3b30" stroke-width="1"/><text x="689.485" y="220.404" fill="#ff3b30" font-size="10">76</text><path d="M 438.581 403.281 L 430.906 427.521 L 472.410 467.273 L 475.957 465.992 L 478.273 445.794 L 460.914 428.842 L 460.110 415.159 L 461.033 405.190 L 447.357 408.376 Z" fill="none" stroke="#ff3b30" stroke-width="1"/><text x="440.581" y="415.281" fill="#ff3b30" font-size="10">118</text><path d="M 552.425 318.274 L 551.942 321.560 L 547.532 348.261 L 553.970 347.054 L 556.330 346.717 L 567.993 336.438 L 587.796 335.501 L 578.287 291.586 L 553.589 306.405 Z" fill="none" stroke="#ff3b30" stroke-width="1"/><text x="554.425" y="330.274" fill="#ff3b30" font-size="10">91</text><path d="M 616.105 448.102 L 615.844 455.264 L 623.758 462.683 L 622.782 463.520 L 620.919 466.673 L 617.146 482.454 L 620.172 484.872 L 633.621 478.251 L 636.310 477.259 L 643.205 474.958 L 644.122 466.592 L 643.231 458.778 L 647.419 458.860 L 649.599 443.873 L 643.839 429.473 L 637.386 433.825 L 637.224 433.769 L 636.088 426.674 L 626.759 430.038 L 624.300 429.793 L 616.471 443.338 Z" fill="none" stroke="#ff3b30" stroke-width="1"/><text x="618.105" y="460.102" fill="#ff3b30" font-size="10">29</text><path d="M 337.993 245.425 L 333.026 242.884 L 285.280 300.135 L 298.867 311.561 L 326.283 291.169 Z" fill="none" stroke="#ff3b30" stroke-width="1"/><text x="339.993" y="257.425" fill="#ff3b30" font-size="10">7</text><path d="M 525.026 355.520 L 524.674 390.187 L 527.767 391.952 L 549.603 378.742 L 575.588 371.475 L 576.181 367.562 L 546.920 348.670 Z" fill="none" stroke="#ff3b30" stroke-width="1"/><text x="527.026" y="367.520" fill="#ff3b30" font-size="10">43</text><path d="M 494.445 475.769 L 493.202 471.493 L 432.516 467.943 L 430.641 471.189 L 453.181 505.474 Z" fill="none" stroke="#ff3b30" stroke-width="1"/><text x="496.445" y="487.769" fill="#ff3b30" font-size="10">63</text><path d="M 720.256 371.858 L 676.689 360.938 L 674.245 363.705 L 682.048 383.852 L 695.471 405.955 L 700.300 406.122 L 700.300 398.021 L 716.989 398.118 Z" fill="none" stroke="#ff3b30" stroke-width="1"/><text x="722.256" y="383.858" fill="#ff3b30" font-size="10">48</text><path d="M 451.143 215.043 L 459.514 223.277 L 459.622 223.988 L 454.226 231.289 L 458.839 242.821 L 464.586 252.947 L 468.452 252.646 L 474.999 235.302 L 492.657 211.757 L 479.965 207.724 L 480.514 202.239 L 482.935 197.711 L 482.612 189.640 L 471.815 184.547 L 464.661 206.238 Z" fill="none" stroke="#ff3b30" stroke-width="1"/><text x="453.143" y="227.043" fill="#ff3b30" font-size="10">69</text><path d="M 682.616 322.154 L 678.359 346.082 L 684.944 360.096 L 694.704 349.523 L 694.615 349.353 L 710.419 347.525 L 718.450 352.923 L 730.446 333.730 L 713.671 332.512 L 699.370 316.437 Z" fill="none" stroke="#ff3b30" stroke-width="1"/><text x="684.616" y="334.154" fill="#ff3b30" font-size="10">13</text><path d="M 598.907 331.660 L 594.560 338.543 L 588.018 346.462 L 614.248 358.673 L 614.585 351.590 L 628.995 355.747 L 631.587 352.179 L 618.338 332.616 L 631.547 313.423 L 604.230 306.629 Z" fill="none" stroke="#ff3b30" stroke-width="1"/><text x="600.907" y="343.660" fill="#ff3b30" font-size="10">87</text><path d="M 608.502 461.859 L 608.736 444.918 L 605.639 443.144 L 581.063 458.012 L 581.281 461.670 L 586.898 464.208 L 583.535 468.305 L 583.472 470.547 L 577.966 472.138 L 582.852 487.356 L 600.460 503.450 L 609.548 472.948 Z" fill="none" stroke="#ff3b30" stroke-width="1"/><text x="610.502" y="473.859" fill="#ff3b30" font-size="10">16</text><path d="M 484.381 424.740 L 478.369 424.622 L 480.078 439.608 L 479.188 447.733 L 486.637 450.337 L 503.023 453.394 L 507.006 441.872 L 506.900 430.750 L 506.785 424.719 L 508.460 425.106 L 522.000 408.148 L 520.137 404.599 L 496.418 406.266 L 494.173 412.212 L 490.307 412.513 L 489.728 411.491 L 486.000 413.607 Z" fill="none" stroke="#ff3b30" stroke-width="1"/><text x="486.381" y="436.740" fill="#ff3b30" font-size="10">17</text><path d="M 496.517 465.056 L 499.177 495.583 L 494.346 526.873 L 498.595 528.964 L 509.586 517.430 L 513.840 499.564 L 519.879 486.971 L 522.076 472.887 L 516.687 453.712 Z" fill="none" stroke="#ff3b30" stroke-width="1"/><text x="498.517" y="477.056" fill="#ff3b30" font-size="10">53</text><path d="M 733.066 213.150 L 728.958 209.848 L 697.855 233.285 L 687.925 243.843 L 688.030 262.806 L 710.271 262.981 Z" fill="none" stroke="#ff3b30" stroke-width="1"/><text x="735.066" y="225.150" fill="#ff3b30" font-size="10">41</text><path d="M 635.453 378.358 L 625.525 403.056 L 638.512 426.054 L 670.337 385.861 Z" fill="none" stroke="#ff3b30" stroke-width="1"/><text x="637.453" y="390.358" fill="#ff3b30" font-size="10">77</text><path d="M 538.146 393.626 L 534.280 420.692 L 522.240 434.678 L 541.492 445.338 L 544.425 438.494 L 560.364 434.674 L 552.743 425.727 L 552.585 424.462 L 557.749 411.552 L 562.151 392.608 Z" fill="none" stroke="#ff3b30" stroke-width="1"/><text x="540.146" y="405.626" fill="#ff3b30" font-size="10">37</text><path d="M 585.732 443.190 L 614.849 437.104 L 603.124 404.328 L 562.491 433.772 L 563.233 437.595 Z" fill="none" stroke="#ff3b30" stroke-width="1"/><text x="587.732" y="455.190" fill="#ff3b30" font-size="10">27</text><path d="M 681.797 444.060 L 723.345 437.602 L 701.888 406.477 L 670.460 430.662 Z" fill="none" stroke="#ff3b30" stroke-width="1"/><text x="683.797" y="456.060" fill="#ff3b30" font-size="10">70</text><path d="M 604.764 360.156 L 601.065 359.775 L 576.591 397.587 L 623.160 404.275 L 625.290 401.050 L 612.352 379.748 Z" fill="none" stroke="#ff3b30" stroke-width="1"/><text x="606.764" y="372.156" fill="#ff3b30" font-size="10">56</text><path d="M 647.260 495.750 L 646.642 491.937 L 624.015 485.410 L 623.611 493.892 L 609.488 499.584 L 612.351 511.426 L 614.337 527.653 L 623.243 532.824 L 637.688 529.458 L 636.858 502.901 Z" fill="none" stroke="#ff3b30" stroke-width="1"/><text x="649.260" y="507.750" fill="#ff3b30" font-size="10">103</text><path d="M 689.140 521.796 L 681.457 528.231 L 690.988 532.726 L 695.503 538.274 L 718.802 530.657 L 727.390 526.567 L 706.624 502.975 L 684.922 502.805 L 685.359 520.305 Z" fill="none" stroke="#ff3b30" stroke-width="1"/><text x="691.140" y="533.796" fill="#ff3b30" font-size="10">47</text><path d="M 547.020 494.519 L 522.602 511.214 L 530.897 520.891 L 547.622 515.060 L 548.641 515.162 L 551.512 514.126 L 551.976 517.031 L 559.414 519.575 L 565.657 515.365 L 571.978 506.812 L 571.086 500.923 L 567.257 497.157 L 577.226 490.664 L 576.020 486.175 L 555.977 485.120 Z" fill="none" stroke="#ff3b30" stroke-width="1"/><text x="549.020" y="506.519" fill="#ff3b30" font-size="10">24</text><path d="M 647.507 501.389 L 654.919 537.674 L 659.747 538.107 L 669.756 513.085 L 680.592 485.256 L 647.234 487.979 Z" fill="none" stroke="#ff3b30" stroke-width="1"/><text x="649.507" y="513.389" fill="#ff3b30" font-size="10">101</text><path d="M 522.665 455.154 L 533.320 485.449 L 557.036 478.030 L 555.368 445.829 Z" fill="none" stroke="#ff3b30" stroke-width="1"/><text x="524.665" y="467.154" fill="#ff3b30" font-size="10">57</text><path d="M 698.280 444.976 L 693.326 445.340 L 681.944 500.224 L 685.439 502.541 L 712.519 483.840 Z" fill="none" stroke="#ff3b30" stroke-width="1"/><text x="700.280" y="456.976" fill="#ff3b30" font-size="10">79</text><path d="M 382.769 505.092 L 381.905 508.564 L 466.326 537.420 L 478.171 517.995 L 435.459 513.529 Z" fill="none" stroke="#ff3b30" stroke-width="1"/><text x="384.769" y="517.092" fill="#ff3b30" font-size="10">28</text></g></svg>