<svg xmlns="http://www.w3.org/2000/svg" width="737" height="539" viewBox="0 0 737 539"><rect x="0" y="0" width="100%" height="100%" fill="none" stroke="#ffffff" stroke-width="1"/><g id="bboxes"><rect x="0.913" y="0.835" width="87.000" height="72.000" fill="none" stroke="#00ff7f" stroke-width="1"/><text x="2.913" y="12.835" fill="#00ff7f" font-size="10">0</text><rect x="94.115" y="204.917" width="72.000" height="52.000" fill="none" stroke="#00ff7f" stroke-width="1"/><text x="96.115" y="216.917" fill="#00ff7f" font-size="10">1</text><rect x="0.732" y="139.916" width="61.000" height="87.000" fill="none" stroke="#00ff7f" stroke-width="1"/><text x="2.732" y="151.916" fill="#00ff7f" font-size="10">2</text><rect x="0.866" y="226.582" width="94.000" height="48.000" fill="none" stroke="#00ff7f" stroke-width="1"/><text x="2.866" y="238.582" fill="#00ff7f" font-size="10">3</text><rect x="87.537" y="0.579" width="73.000" height="56.000" fill="none" stroke="#00ff7f" stroke-width="1"/><text x="89.537" y="12.579" fill="#00ff7f" font-size="10">4</text><rect x="0.378" y="353.726" width="82.000" height="49.000" fill="none" stroke="#00ff7f" stroke-width="1"/><text x="2.378" y="365.726" fill="#00ff7f" font-size="10">5</text><rect x="61.510" y="139.336" width="66.000" height="65.000" fill="none" stroke="#00ff7f" stroke-width="1"/><text x="63.510" y="151.336" fill="#00ff7f" font-size="10">6</text><rect x="56.736" y="402.694" width="64.000" height="49.000" fill="none" stroke="#00ff7f" stroke-width="1"/><text x="58.736" y="414.694" fill="#00ff7f" font-size="10">7</text><rect x="156.003" y="56.852" width="67.000" height="54.000" fill="none" stroke="#00ff7f" stroke-width="1"/><text x="158.003" y="68.852" fill="#00ff7f" font-size="10">8</text><rect x="210.525" y="237.924" width="52.000" height="55.000" fill="none" stroke="#00ff7f" stroke-width="1"/><text x="212.525" y="249.924" fill="#00ff7f" font-size="10">9</text><rect x="0.868" y="274.751" width="51.000" height="79.000" fill="none" stroke="#00ff7f" stroke-width="1"/><text x="2.868" y="286.751" fill="#00ff7f" font-size="10">10</text><rect x="60.022" y="451.371" width="38.000" height="82.000" fill="none" stroke="#00ff7f" stroke-width="1"/><text x="62.022" y="463.371" fill="#00ff7f" font-size="10">11</text><rect x="171.181" y="311.398" width="54.000" height="53.000" fill="none" stroke="#00ff7f" stroke-width="1"/><text x="173.181" y="323.398" fill="#00ff7f" font-size="10">12</text><rect x="51.497" y="274.418" width="83.000" height="46.000" fill="none" stroke="#00ff7f" stroke-width="1"/><text x="53.497" y="286.418" fill="#00ff7f" font-size="10">13</text><rect x="134.944" y="256.446" width="37.000" height="83.000" fill="none" stroke="#00ff7f" stroke-width="1"/><text x="136.944" y="268.446" fill="#00ff7f" font-size="10">14</text><rect x="166.996" y="178.006" width="50.000" height="59.000" fill="none" stroke="#00ff7f" stroke-width="1"/><text x="168.996" y="190.006" fill="#00ff7f" font-size="10">15</text><rect x="172.049" y="436.029" width="59.000" height="47.000" fill="none" stroke="#00ff7f" stroke-width="1"/><text x="174.049" y="448.029" fill="#00ff7f" font-size="10">16</text><rect x="262.099" y="224.994" width="41.000" height="65.000" fill="none" stroke="#00ff7f" stroke-width="1"/><text x="264.099" y="236.994" fill="#00ff7f" font-size="10">17</text><rect x="160.724" y="0.666" width="77.000" height="44.000" fill="none" stroke="#00ff7f" stroke-width="1"/><text x="162.724" y="12.666" fill="#00ff7f" font-size="10">18</text><rect x="98.821" y="451.068" width="74.000" height="42.000" fill="none" stroke="#00ff7f" stroke-width="1"/><text x="100.821" y="463.068" fill="#00ff7f" font-size="10">19</text><rect x="0.920" y="402.332" width="56.000" height="64.000" fill="none" stroke="#00ff7f" stroke-width="1"/><text x="2.920" y="414.332" fill="#00ff7f" font-size="10">20</text><rect x="360.692" y="109.449" width="46.000" height="53.000" fill="none" stroke="#00ff7f" stroke-width="1"/><text x="362.692" y="121.449" fill="#00ff7f" font-size="10">21</text><rect x="369.928" y="0.497" width="67.000" height="36.000" fill="none" stroke="#00ff7f" stroke-width="1"/><text x="371.928" y="12.497" fill="#00ff7f" font-size="10">22</text><rect x="82.147" y="320.352" width="52.000" height="60.000" fill="none" stroke="#00ff7f" stroke-width="1"/><text x="84.147" y="332.352" fill="#00ff7f" font-size="10">23</text><rect x="127.131" y="130.352" width="77.000" height="48.000" fill="none" stroke="#00ff7f" stroke-width="1"/><text x="129.131" y="142.352" fill="#00ff7f" font-size="10">24</text><rect x="98.650" y="493.106" width="67.000" height="46.000" fill="none" stroke="#00ff7f" stroke-width="1"/><text x="100.650" y="505.106" fill="#00ff7f" font-size="10">25</text><rect x="282.266" y="0.523" width="46.000" height="61.000" fill="none" stroke="#00ff7f" stroke-width="1"/><text x="284.266" y="12.523" fill="#00ff7f" font-size="10">26</text><rect x="223.179" y="44.184" width="59.000" height="49.000" fill="none" stroke="#00ff7f" stroke-width="1"/><text x="225.179" y="56.184" fill="#00ff7f" font-size="10">27</text><rect x="307.578" y="477.231" width="65.000" height="36.000" fill="none" stroke="#00ff7f" stroke-width="1"/><text x="309.578" y="489.231" fill="#00ff7f" font-size="10">28</text><rect x="311.265" y="164.547" width="63.000" height="39.000" fill="none" stroke="#00ff7f" stroke-width="1"/><text x="313.265" y="176.547" fill="#00ff7f" font-size="10">29</text><rect x="350.324" y="402.133" width="44.000" height="53.000" fill="none" stroke="#00ff7f" stroke-width="1"/><text x="352.324" y="414.133" fill="#00ff7f" font-size="10">30</text><rect x="406.919" y="84.090" width="40.000" height="53.000" fill="none" stroke="#00ff7f" stroke-width="1"/><text x="408.919" y="96.090" fill="#00ff7f" font-size="10">31</text><rect x="328.628" y="0.631" width="41.000" height="61.000" fill="none" stroke="#00ff7f" stroke-width="1"/><text x="330.628" y="12.631" fill="#00ff7f" font-size="10">32</text><rect x="374.731" y="162.946" width="55.000" height="41.000" fill="none" stroke="#00ff7f" stroke-width="1"/><text x="376.731" y="174.946" fill="#00ff7f" font-size="10">33</text><rect x="231.534" y="434.703" width="37.000" height="73.000" fill="none" stroke="#00ff7f" stroke-width="1"/><text x="233.534" y="446.703" fill="#00ff7f" font-size="10">34</text><rect x="302.668" y="61.774" width="49.000" height="52.000" fill="none" stroke="#00ff7f" stroke-width="1"/><text x="304.668" y="73.774" fill="#00ff7f" font-size="10">35</text><rect x="362.500" y="350.294" width="44.000" height="48.000" fill="none" stroke="#00ff7f" stroke-width="1"/><text x="364.500" y="362.294" fill="#00ff7f" font-size="10">36</text><rect x="84.648" y="72.831" width="72.000" height="58.000" fill="none" stroke="#00ff7f" stroke-width="1"/><text x="86.648" y="84.831" fill="#00ff7f" font-size="10">37</text><rect x="204.234" y="110.625" width="45.000" height="65.000" fill="none" stroke="#00ff7f" stroke-width="1"/><text x="206.234" y="122.625" fill="#00ff7f" font-size="10">38</text><rect x="171.757" y="237.623" width="39.000" height="74.000" fill="none" stroke="#00ff7f" stroke-width="1"/><text x="173.757" y="249.623" fill="#00ff7f" font-size="10">39</text><rect x="406.838" y="350.600" width="45.000" height="46.000" fill="none" stroke="#00ff7f" stroke-width="1"/><text x="408.838" y="362.600" fill="#00ff7f" font-size="10">40</text><rect x="268.286" y="429.231" width="32.000" height="77.000" fill="none" stroke="#00ff7f" stroke-width="1"/><text x="270.286" y="441.231" fill="#00ff7f" font-size="10">41</text><rect x="302.670" y="363.615" width="60.000" height="39.000" fill="none" stroke="#00ff7f" stroke-width="1"/><text x="304.670" y="375.615" fill="#00ff7f" font-size="10">42</text><rect x="303.335" y="215.791" width="41.000" height="61.000" fill="none" stroke="#00ff7f" stroke-width="1"/><text x="305.335" y="227.791" fill="#00ff7f" font-size="10">43</text><rect x="210.367" y="364.791" width="39.000" height="70.000" fill="none" stroke="#00ff7f" stroke-width="1"/><text x="212.367" y="376.791" fill="#00ff7f" font-size="10">44</text><rect x="314.588" y="276.617" width="40.000" height="57.000" fill="none" stroke="#00ff7f" stroke-width="1"/><text x="316.588" y="288.617" fill="#00ff7f" font-size="10">45</text><rect x="249.026" y="93.525" width="53.000" height="53.000" fill="none" stroke="#00ff7f" stroke-width="1"/><text x="251.026" y="105.525" fill="#00ff7f" font-size="10">46</text><rect x="372.597" y="455.333" width="55.000" height="42.000" fill="none" stroke="#00ff7f" stroke-width="1"/><text x="374.597" y="467.333" fill="#00ff7f" font-size="10">47</text><rect x="0.875" y="466.606" width="60.000" height="54.000" fill="none" stroke="#00ff7f" stroke-width="1"/><text x="2.875" y="478.606" fill="#00ff7f" font-size="10">48</text><rect x="171.597" y="364.250" width="39.000" height="72.000" fill="none" stroke="#00ff7f" stroke-width="1"/><text x="173.597" y="376.250" fill="#00ff7f" font-size="10">49</text><rect x="344.072" y="203.034" width="57.000" height="40.000" fill="none" stroke="#00ff7f" stroke-width="1"/><text x="346.072" y="215.034" fill="#00ff7f" font-size="10">50</text><rect x="274.799" y="146.298" width="37.000" height="69.000" fill="none" stroke="#00ff7f" stroke-width="1"/><text x="276.799" y="158.298" fill="#00ff7f" font-size="10">51</text><rect x="372.647" y="497.714" width="72.000" height="32.000" fill="none" stroke="#00ff7f" stroke-width="1"/><text x="374.647" y="509.714" fill="#00ff7f" font-size="10">52</text><rect x="172.779" y="483.152" width="52.000" height="53.000" fill="none" stroke="#00ff7f" stroke-width="1"/><text x="174.779" y="495.152" fill="#00ff7f" font-size="10">53</text><rect x="512.576" y="0.018" width="32.000" height="61.000" fill="none" stroke="#00ff7f" stroke-width="1"/><text x="514.576" y="12.018" fill="#00ff7f" font-size="10">54</text><rect x="464.711" y="131.532" width="35.000" height="58.000" fill="none" stroke="#00ff7f" stroke-width="1"/><text x="466.711" y="143.532" fill="#00ff7f" font-size="10">55</text><rect x="351.680" y="61.890" width="51.000" height="48.000" fill="none" stroke="#00ff7f" stroke-width="1"/><text x="353.680" y="73.890" fill="#00ff7f" font-size="10">56</text><rect x="429.051" y="137.872" width="35.000" height="60.000" fill="none" stroke="#00ff7f" stroke-width="1"/><text x="431.051" y="149.872" fill="#00ff7f" font-size="10">57</text><rect x="311.907" y="113.041" width="49.000" height="51.000" fill="none" stroke="#00ff7f" stroke-width="1"/><text x="313.907" y="125.041" fill="#00ff7f" font-size="10">58</text><rect x="224.413" y="507.688" width="83.000" height="30.000" fill="none" stroke="#00ff7f" stroke-width="1"/><text x="226.413" y="519.688" fill="#00ff7f" font-size="10">59</text><rect x="134.238" y="339.005" width="37.000" height="80.000" fill="none" stroke="#00ff7f" stroke-width="1"/><text x="136.238" y="351.005" fill="#00ff7f" font-size="10">60</text><rect x="544.344" y="0.641" width="30.000" height="61.000" fill="none" stroke="#00ff7f" stroke-width="1"/><text x="546.344" y="12.641" fill="#00ff7f" font-size="10">61</text><rect x="490.932" y="75.356" width="57.000" height="35.000" fill="none" stroke="#00ff7f" stroke-width="1"/><text x="492.932" y="87.356" fill="#00ff7f" font-size="10">62</text><rect x="402.526" y="36.636" width="50.000" height="48.000" fill="none" stroke="#00ff7f" stroke-width="1"/><text x="404.526" y="48.636" fill="#00ff7f" font-size="10">63</text><rect x="280.297" y="289.691" width="34.000" height="74.000" fill="none" stroke="#00ff7f" stroke-width="1"/><text x="282.297" y="301.691" fill="#00ff7f" font-size="10">64</text><rect x="443.853" y="396.188" width="52.000" height="39.000" fill="none" stroke="#00ff7f" stroke-width="1"/><text x="445.853" y="408.188" fill="#00ff7f" font-size="10">65</text><rect x="444.418" y="494.358" width="60.000" height="34.000" fill="none" stroke="#00ff7f" stroke-width="1"/><text x="446.418" y="506.358" fill="#00ff7f" font-size="10">66</text><rect x="446.555" y="84.242" width="44.000" height="47.000" fill="none" stroke="#00ff7f" stroke-width="1"/><text x="448.555" y="96.242" fill="#00ff7f" font-size="10">67</text><rect x="415.299" y="236.506" width="34.000" height="52.000" fill="none" stroke="#00ff7f" stroke-width="1"/><text x="417.299" y="248.506" fill="#00ff7f" font-size="10">68</text><rect x="436.137" y="0.228" width="76.000" height="31.000" fill="none" stroke="#00ff7f" stroke-width="1"/><text x="438.137" y="12.228" fill="#00ff7f" font-size="10">69</text><rect x="237.200" y="0.379" width="43.000" height="41.000" fill="none" stroke="#00ff7f" stroke-width="1"/><text x="239.200" y="12.379" fill="#00ff7f" font-size="10">70</text><rect x="425.778" y="288.698" width="41.000" height="43.000" fill="none" stroke="#00ff7f" stroke-width="1"/><text x="427.778" y="300.698" fill="#00ff7f" font-size="10">71</text><rect x="249.226" y="379.592" width="53.000" height="50.000" fill="none" stroke="#00ff7f" stroke-width="1"/><text x="251.226" y="391.592" fill="#00ff7f" font-size="10">72</text><rect x="300.214" y="429.707" width="50.000" height="48.000" fill="none" stroke="#00ff7f" stroke-width="1"/><text x="302.214" y="441.707" fill="#00ff7f" font-size="10">73</text><rect x="354.795" y="243.312" width="30.000" height="76.000" fill="none" stroke="#00ff7f" stroke-width="1"/><text x="356.795" y="255.312" fill="#00ff7f" font-size="10">74</text><rect x="216.281" y="175.277" width="58.000" height="49.000" fill="none" stroke="#00ff7f" stroke-width="1"/><text x="218.281" y="187.277" fill="#00ff7f" font-size="10">75</text><rect x="249.514" y="292.305" width="31.000" height="87.000" fill="none" stroke="#00ff7f" stroke-width="1"/><text x="251.514" y="304.305" fill="#00ff7f" font-size="10">76</text><rect x="384.486" y="243.844" width="31.000" height="70.000" fill="none" stroke="#00ff7f" stroke-width="1"/><text x="386.486" y="255.844" fill="#00ff7f" font-size="10">77</text><rect x="449.132" y="236.229" width="42.000" height="41.000" fill="none" stroke="#00ff7f" stroke-width="1"/><text x="451.132" y="248.229" fill="#00ff7f" font-size="10">78</text><rect x="452.572" y="31.764" width="47.000" height="44.000" fill="none" stroke="#00ff7f" stroke-width="1"/><text x="454.572" y="43.764" fill="#00ff7f" font-size="10">79</text><rect x="466.755" y="435.100" width="62.000" height="31.000" fill="none" stroke="#00ff7f" stroke-width="1"/><text x="468.755" y="447.100" fill="#00ff7f" font-size="10">80</text><rect x="573.236" y="429.232" width="31.000" height="45.000" fill="none" stroke="#00ff7f" stroke-width="1"/><text x="575.236" y="441.232" fill="#00ff7f" font-size="10">81</text><rect x="225.350" y="292.118" width="24.000" height="57.000" fill="none" stroke="#00ff7f" stroke-width="1"/><text x="227.350" y="304.118" fill="#00ff7f" font-size="10">82</text><rect x="394.487" y="398.168" width="49.000" height="43.000" fill="none" stroke="#00ff7f" stroke-width="1"/><text x="396.487" y="410.168" fill="#00ff7f" font-size="10">83</text><rect x="0.743" y="72.100" width="84.000" height="67.000" fill="none" stroke="#00ff7f" stroke-width="1"/><text x="2.743" y="84.100" fill="#00ff7f" font-size="10">84</text><rect x="650.928" y="503.251" width="35.000" height="36.000" fill="none" stroke="#00ff7f" stroke-width="1"/><text x="652.928" y="515.251" fill="#00ff7f" font-size="10">85</text><rect x="491.227" y="228.929" width="53.000" height="30.000" fill="none" stroke="#00ff7f" stroke-width="1"/><text x="493.227" y="240.929" fill="#00ff7f" font-size="10">86</text><rect x="465.044" y="189.511" width="43.000" height="39.000" fill="none" stroke="#00ff7f" stroke-width="1"/><text x="467.044" y="201.511" fill="#00ff7f" font-size="10">87</text><rect x="565.655" y="336.068" width="31.000" height="46.000" fill="none" stroke="#00ff7f" stroke-width="1"/><text x="567.655" y="348.068" fill="#00ff7f" font-size="10">88</text><rect x="466.099" y="277.438" width="33.000" height="50.000" fill="none" stroke="#00ff7f" stroke-width="1"/><text x="468.099" y="289.438" fill="#00ff7f" font-size="10">89</text><rect x="401.826" y="203.645" width="64.000" height="33.000" fill="none" stroke="#00ff7f" stroke-width="1"/><text x="403.826" y="215.645" fill="#00ff7f" font-size="10">90</text><rect x="527.036" y="403.517" width="56.000" height="26.000" fill="none" stroke="#00ff7f" stroke-width="1"/><text x="529.036" y="415.517" fill="#00ff7f" font-size="10">91</text><rect x="427.947" y="441.683" width="39.000" height="53.000" fill="none" stroke="#00ff7f" stroke-width="1"/><text x="429.947" y="453.683" fill="#00ff7f" font-size="10">92</text><rect x="495.418" y="373.368" width="32.000" height="48.000" fill="none" stroke="#00ff7f" stroke-width="1"/><text x="497.418" y="385.368" fill="#00ff7f" font-size="10">93</text><rect x="504.372" y="466.336" width="34.000" height="55.000" fill="none" stroke="#00ff7f" stroke-width="1"/><text x="506.372" y="478.336" fill="#00ff7f" font-size="10">94</text><rect x="583.159" y="382.420" width="31.000" height="45.000" fill="none" stroke="#00ff7f" stroke-width="1"/><text x="585.159" y="394.420" fill="#00ff7f" font-size="10">95</text><rect x="649.461" y="450.081" width="25.000" height="53.000" fill="none" stroke="#00ff7f" stroke-width="1"/><text x="651.461" y="462.081" fill="#00ff7f" font-size="10">96</text><rect x="452.000" y="331.354" width="37.000" height="45.000" fill="none" stroke="#00ff7f" stroke-width="1"/><text x="454.000" y="343.354" fill="#00ff7f" font-size="10">97</text><rect x="354.559" y="319.829" width="71.000" height="31.000" fill="none" stroke="#00ff7f" stroke-width="1"/><text x="356.559" y="331.829" fill="#00ff7f" font-size="10">98</text><rect x="499.803" y="110.369" width="27.000" height="48.000" fill="none" stroke="#00ff7f" stroke-width="1"/><text x="501.803" y="122.369" fill="#00ff7f" font-size="10">99</text><rect x="488.744" y="327.669" width="34.000" height="46.000" fill="none" stroke="#00ff7f" stroke-width="1"/><text x="490.744" y="339.669" fill="#00ff7f" font-size="10">100</text><rect x="307.562" y="513.655" width="63.000" height="24.000" fill="none" stroke="#00ff7f" stroke-width="1"/><text x="309.562" y="525.655" fill="#00ff7f" font-size="10">101</text><rect x="120.192" y="419.492" width="49.000" height="32.000" fill="none" stroke="#00ff7f" stroke-width="1"/><text x="122.192" y="431.492" fill="#00ff7f" font-size="10">102</text><rect x="531.402" y="258.571" width="38.000" height="39.000" fill="none" stroke="#00ff7f" stroke-width="1"/><text x="533.402" y="270.571" fill="#00ff7f" font-size="10">103</text><rect x="527.697" y="364.051" width="38.000" height="39.000" fill="none" stroke="#00ff7f" stroke-width="1"/><text x="529.697" y="376.051" fill="#00ff7f" font-size="10">104</text><rect x="538.362" y="505.196" width="54.000" height="26.000" fill="none" stroke="#00ff7f" stroke-width="1"/><text x="540.362" y="517.196" fill="#00ff7f" font-size="10">105</text><rect x="707.997" y="41.107" width="29.000" height="37.000" fill="none" stroke="#00ff7f" stroke-width="1"/><text x="709.997" y="53.107" fill="#00ff7f" font-size="10">106</text><rect x="708.232" y="0.280" width="27.000" height="41.000" fill="none" stroke="#00ff7f" stroke-width="1"/><text x="710.232" y="12.280" fill="#00ff7f" font-size="10">107</text><rect x="528.653" y="429.555" width="45.000" height="32.000" fill="none" stroke="#00ff7f" stroke-width="1"/><text x="530.653" y="441.555" fill="#00ff7f" font-size="10">108</text><rect x="499.645" y="258.883" width="32.000" height="48.000" fill="none" stroke="#00ff7f" stroke-width="1"/><text x="501.645" y="270.883" fill="#00ff7f" font-size="10">109</text><rect x="614.969" y="450.381" width="35.000" height="38.000" fill="none" stroke="#00ff7f" stroke-width="1"/><text x="616.969" y="462.381" fill="#00ff7f" font-size="10">110</text><rect x="685.959" y="38.002" width="22.000" height="50.000" fill="none" stroke="#00ff7f" stroke-width="1"/><text x="687.959" y="50.002" fill="#00ff7f" font-size="10">111</text><rect x="548.162" y="297.204" width="37.000" height="39.000" fill="none" stroke="#00ff7f" stroke-width="1"/><text x="550.162" y="309.204" fill="#00ff7f" font-size="10">112</text><rect x="522.604" y="306.141" width="26.000" height="58.000" fill="none" stroke="#00ff7f" stroke-width="1"/><text x="524.604" y="318.141" fill="#00ff7f" font-size="10">113</text><rect x="592.013" y="505.261" width="58.000" height="23.000" fill="none" stroke="#00ff7f" stroke-width="1"/><text x="594.013" y="517.261" fill="#00ff7f" font-size="10">114</text><rect x="674.420" y="0.248" width="34.000" height="38.000" fill="none" stroke="#00ff7f" stroke-width="1"/><text x="676.420" y="12.248" fill="#00ff7f" font-size="10">115</text><rect x="570.813" y="474.205" width="44.000" height="31.000" fill="none" stroke="#00ff7f" stroke-width="1"/><text x="572.813" y="486.205" fill="#00ff7f" font-size="10">116</text><rect x="302.137" y="402.523" width="45.000" height="24.000" fill="none" stroke="#00ff7f" stroke-width="1"/><text x="304.137" y="414.523" fill="#00ff7f" font-size="10">117</text><rect x="604.609" y="427.900" width="58.000" height="23.000" fill="none" stroke="#00ff7f" stroke-width="1"/><text x="606.609" y="439.900" fill="#00ff7f" font-size="10">118</text><rect x="538.849" y="461.132" width="32.000" height="44.000" fill="none" stroke="#00ff7f" stroke-width="1"/><text x="540.849" y="473.132" fill="#00ff7f" font-size="10">119</text><rect x="736.997" y="0" width="0.003" height="539.000" fill="none" stroke="#ff5252" stroke-width="1" stroke-dasharray="6,4"/><text x="742.997" y="16" fill="#ff5252" font-size="12">right_gap</text><text x="6" y="14" fill="#ffffff" font-size="12">visible=120</text><path d="M 735.232 2.000 L 735.232 4.000 L 735.232 6.000 L 735.232 8.000 L 735.232 10.000 L 735.232 12.000 L 735.232 14.000 L 735.232 16.000 L 735.232 18.000 L 735.232 20.000 L 735.232 22.000 L 735.232 24.000 L 735.232 26.000 L 735.232 28.000 L 735.232 30.000 L 735.232 32.000 L 735.232 34.000 L 735.232 36.000 L 735.232 38.000 L 735.232 40.000 L 736.997 42.000 L 736.997 44.000 L 736.997 46.000 L 736.997 48.000 L 736.997 50.000 L 736.997 52.000 L 736.997 54.000 L 736.997 56.000 L 736.997 58.000 L 736.997 60.000 L 736.997 62.000 L 736.997 64.000 L 736.997 66.000 L 736.997 68.000 L 736.997 70.000 L 736.997 72.000 L 736.997 74.000 L 736.997 76.000 L 736.997 78.000 L 707.959 80.000 L 707.959 82.000 L 707.959 84.000 L 707.959 86.000 L 707.959 88.000 L 547.932 90.000 L 547.932 92.000 L 547.932 94.000 L 547.932 96.000 L 547.932 98.000 L 547.932 100.000 L 547.932 102.000 L 547.932 104.000 L 547.932 106.000 L 547.932 108.000 L 547.932 110.000 L 526.803 112.000 L 526.803 114.000 L 526.803 116.000 L 526.803 118.000 L 526.803 120.000 L 526.803 122.000 L 526.803 124.000 L 526.803 126.000 L 526.803 128.000 L 526.803 130.000 L 526.803 132.000 L 526.803 134.000 L 526.803 136.000 L 526.803 138.000 L 526.803 140.000 L 526.803 142.000 L 526.803 144.000 L 526.803 146.000 L 526.803 148.000 L 526.803 150.000 L 526.803 152.000 L 526.803 154.000 L 526.803 156.000 L 526.803 158.000 L 499.711 160.000 L 499.711 162.000 L 499.711 164.000 L 499.711 166.000 L 499.711 168.000 L 499.711 170.000 L 499.711 172.000 L 499.711 174.000 L 499.711 176.000 L 499.711 178.000 L 499.711 180.000 L 499.711 182.000 L 499.711 184.000 L 499.711 186.000 L 499.711 188.000 L 508.044 190.000 L 508.044 192.000 L 508.044 194.000 L 508.044 196.000 L 508.044 198.000 L 508.044 200.000 L 508.044 202.000 L 508.044 204.000 L 508.044 206.000 L 508.044 208.000 L 508.044 210.000 L 508.044 212.000 L 508.044 214.000 L 508.044 216.000 L 508.044 218.000 L 508.044 220.000 L 508.044 222.000 L 508.044 224.000 L 508.044 226.000 L 508.044 228.000 L 544.227 230.000 L 544.227 232.000 L 544.227 234.000 L 544.227 236.000 L 544.227 238.000 L 544.227 240.000 L 544.227 242.000 L 544.227 244.000 L 544.227 246.000 L 544.227 248.000 L 544.227 250.000 L 544.227 252.000 L 544.227 254.000 L 544.227 256.000 L 544.227 258.000 L 569.402 260.000 L 569.402 262.000 L 569.402 264.000 L 569.402 266.000 L 569.402 268.000 L 569.402 270.000 L 569.402 272.000 L 569.402 274.000 L 569.402 276.000 L 569.402 278.000 L 569.402 280.000 L 569.402 282.000 L 569.402 284.000 L 569.402 286.000 L 569.402 288.000 L 569.402 290.000 L 569.402 292.000 L 569.402 294.000 L 569.402 296.000 L 585.162 298.000 L 585.162 300.000 L 585.162 302.000 L 585.162 304.000 L 585.162 306.000 L 585.162 308.000 L 585.162 310.000 L 585.162 312.000 L 585.162 314.000 L 585.162 316.000 L 585.162 318.000 L 585.162 320.000 L 585.162 322.000 L 585.162 324.000 L 585.162 326.000 L 585.162 328.000 L 585.162 330.000 L 585.162 332.000 L 585.162 334.000 L 585.162 336.000 L 596.655 338.000 L 596.655 340.000 L 596.655 342.000 L 596.655 344.000 L 596.655 346.000 L 596.655 348.000 L 596.655 350.000 L 596.655 352.000 L 596.655 354.000 L 596.655 356.000 L 596.655 358.000 L 596.655 360.000 L 596.655 362.000 L 596.655 364.000 L 596.655 366.000 L 596.655 368.000 L 596.655 370.000 L 596.655 372.000 L 596.655 374.000 L 596.655 376.000 L 596.655 378.000 L 596.655 380.000 L 596.655 382.000 L 614.159 384.000 L 614.159 386.000 L 614.159 388.000 L 614.159 390.000 L 614.159 392.000 L 614.159 394.000 L 614.159 396.000 L 614.159 398.000 L 614.159 400.000 L 614.159 402.000 L 614.159 404.000 L 614.159 406.000 L 614.159 408.000 L 614.159 410.000 L 614.159 412.000 L 614.159 414.000 L 614.159 416.000 L 614.159 418.000 L 614.159 420.000 L 614.159 422.000 L 614.159 424.000 L 614.159 426.000 L 662.609 428.000 L 662.609 430.000 L 662.609 432.000 L 662.609 434.000 L 662.609 436.000 L 662.609 438.000 L 662.609 440.000 L 662.609 442.000 L 662.609 444.000 L 662.609 446.000 L 662.609 448.000 L 662.609 450.000 L 674.461 452.000 L 674.461 454.000 L 674.461 456.000 L 674.461 458.000 L 674.461 460.000 L 674.461 462.000 L 674.461 464.000 L 674.461 466.000 L 674.461 468.000 L 674.461 470.000 L 674.461 472.000 L 674.461 474.000 L 674.461 476.000 L 674.461 478.000 L 674.461 480.000 L 674.461 482.000 L 674.461 484.000 L 674.461 486.000 L 674.461 488.000 L 674.461 490.000 L 674.461 492.000 L 674.461 494.000 L 674.461 496.000 L 674.461 498.000 L 674.461 500.000 L 674.461 502.000 L 685.928 504.000 L 685.928 506.000 L 685.928 508.000 L 685.928 510.000 L 685.928 512.000 L 685.928 514.000 L 685.928 516.000 L 685.928 518.000 L 685.928 520.000 L 685.928 522.000 L 685.928 524.000 L 685.928 526.000 L 685.928 528.000 L 685.928 530.000 L 685.928 532.000 L 685.928 534.000 L 685.928 536.000 L 685.928 538.000" fill="none" stroke="#ff9800" stroke-width="1" stroke-dasharray="6,4"/><text x="739.232" y="16.000" fill="#ff9800" font-size="12">base_right_edge</text><path d="M 0.000 0.000 L 2.000 0.000 L 4.000 520.606 L 6.000 520.606 L 8.000 520.606 L 10.000 520.606 L 12.000 520.606 L 14.000 520.606 L 16.000 520.606 L 18.000 520.606 L 20.000 520.606 L 22.000 520.606 L 24.000 520.606 L 26.000 520.606 L 28.000 520.606 L 30.000 520.606 L 32.000 520.606 L 34.000 520.606 L 36.000 520.606 L 38.000 520.606 L 40.000 520.606 L 42.000 520.606 L 44.000 520.606 L 46.000 520.606 L 48.000 520.606 L 50.000 520.606 L 52.000 520.606 L 54.000 520.606 L 56.000 520.606 L 58.000 520.606 L 60.000 520.606 L 62.000 533.371 L 64.000 533.371 L 66.000 533.371 L 68.000 533.371 L 70.000 533.371 L 72.000 533.371 L 74.000 533.371 L 76.000 533.371 L 78.000 533.371 L 80.000 533.371 L 82.000 533.371 L 84.000 533.371 L 86.000 533.371 L 88.000 533.371 L 90.000 533.371 L 92.000 533.371 L 94.000 533.371 L 96.000 533.371 L 98.000 533.371 L 100.000 539.106 L 102.000 539.106 L 104.000 539.106 L 106.000 539.106 L 108.000 539.106 L 110.000 539.106 L 112.000 539.106 L 114.000 539.106 L 116.000 539.106 L 118.000 539.106 L 120.000 539.106 L 122.000 539.106 L 124.000 539.106 L 126.000 539.106 L 128.000 539.106 L 130.000 539.106 L 132.000 539.106 L 134.000 539.106 L 136.000 539.106 L 138.000 539.106 L 140.000 539.106 L 142.000 539.106 L 144.000 539.106 L 146.000 539.106 L 148.000 539.106 L 150.000 539.106 L 152.000 539.106 L 154.000 539.106 L 156.000 539.106 L 158.000 539.106 L 160.000 539.106 L 162.000 539.106 L 164.000 539.106 L 166.000 493.068 L 168.000 493.068 L 170.000 493.068 L 172.000 493.068 L 174.000 536.152 L 176.000 536.152 L 178.000 536.152 L 180.000 536.152 L 182.000 536.152 L 184.000 536.152 L 186.000 536.152 L 188.000 536.152 L 190.000 536.152 L 192.000 536.152 L 194.000 536.152 L 196.000 536.152 L 198.000 536.152 L 200.000 536.152 L 202.000 536.152 L 204.000 536.152 L 206.000 536.152 L 208.000 536.152 L 210.000 536.152 L 212.000 536.152 L 214.000 536.152 L 216.000 536.152 L 218.000 536.152 L 220.000 536.152 L 222.000 536.152 L 224.000 536.152 L 226.000 537.688 L 228.000 537.688 L 230.000 537.688 L 232.000 537.688 L 234.000 537.688 L 236.000 537.688 L 238.000 537.688 L 240.000 537.688 L 242.000 537.688 L 244.000 537.688 L 246.000 537.688 L 248.000 537.688 L 250.000 537.688 L 252.000 537.688 L 254.000 537.688 L 256.000 537.688 L 258.000 537.688 L 260.000 537.688 L 262.000 537.688 L 264.000 537.688 L 266.000 537.688 L 268.000 537.688 L 270.000 537.688 L 272.000 537.688 L 274.000 537.688 L 276.000 537.688 L 278.000 537.688 L 280.000 537.688 L 282.000 537.688 L 284.000 537.688 L 286.000 537.688 L 288.000 537.688 L 290.000 537.688 L 292.000 537.688 L 294.000 537.688 L 296.000 537.688 L 298.000 537.688 L 300.000 537.688 L 302.000 537.688 L 304.000 537.688 L 306.000 537.688 L 308.000 537.655 L 310.000 537.655 L 312.000 537.655 L 314.000 537.655 L 316.000 537.655 L 318.000 537.655 L 320.000 537.655 L 322.000 537.655 L 324.000 537.655 L 326.000 537.655 L 328.000 537.655 L 330.000 537.655 L 332.000 537.655 L 334.000 537.655 L 336.000 537.655 L 338.000 537.655 L 340.000 537.655 L 342.000 537.655 L 344.000 537.655 L 346.000 537.655 L 348.000 537.655 L 350.000 537.655 L 352.000 537.655 L 354.000 537.655 L 356.000 537.655 L 358.000 537.655 L 360.000 537.655 L 362.000 537.655 L 364.000 537.655 L 366.000 537.655 L 368.000 537.655 L 370.000 537.655 L 372.000 513.231 L 374.000 529.714 L 376.000 529.714 L 378.000 529.714 L 380.000 529.714 L 382.000 529.714 L 384.000 529.714 L 386.000 529.714 L 388.000 529.714 L 390.000 529.714 L 392.000 529.714 L 394.000 529.714 L 396.000 529.714 L 398.000 529.714 L 400.000 529.714 L 402.000 529.714 L 404.000 529.714 L 406.000 529.714 L 408.000 529.714 L 410.000 529.714 L 412.000 529.714 L 414.000 529.714 L 416.000 529.714 L 418.000 529.714 L 420.000 529.714 L 422.000 529.714 L 424.000 529.714 L 426.000 529.714 L 428.000 529.714 L 430.000 529.714 L 432.000 529.714 L 434.000 529.714 L 436.000 529.714 L 438.000 529.714 L 440.000 529.714 L 442.000 529.714 L 444.000 529.714 L 446.000 528.358 L 448.000 528.358 L 450.000 528.358 L 452.000 528.358 L 454.000 528.358 L 456.000 528.358 L 458.000 528.358 L 460.000 528.358 L 462.000 528.358 L 464.000 528.358 L 466.000 528.358 L 468.000 528.358 L 470.000 528.358 L 472.000 528.358 L 474.000 528.358 L 476.000 528.358 L 478.000 528.358 L 480.000 528.358 L 482.000 528.358 L 484.000 528.358 L 486.000 528.358 L 488.000 528.358 L 490.000 528.358 L 492.000 528.358 L 494.000 528.358 L 496.000 528.358 L 498.000 528.358 L 500.000 528.358 L 502.000 528.358 L 504.000 528.358 L 506.000 521.336 L 508.000 521.336 L 510.000 521.336 L 512.000 521.336 L 514.000 521.336 L 516.000 521.336 L 518.000 521.336 L 520.000 521.336 L 522.000 521.336 L 524.000 521.336 L 526.000 521.336 L 528.000 521.336 L 530.000 521.336 L 532.000 521.336 L 534.000 521.336 L 536.000 521.336 L 538.000 521.336 L 540.000 531.196 L 542.000 531.196 L 544.000 531.196 L 546.000 531.196 L 548.000 531.196 L 550.000 531.196 L 552.000 531.196 L 554.000 531.196 L 556.000 531.196 L 558.000 531.196 L 560.000 531.196 L 562.000 531.196 L 564.000 531.196 L 566.000 531.196 L 568.000 531.196 L 570.000 531.196 L 572.000 531.196 L 574.000 531.196 L 576.000 531.196 L 578.000 531.196 L 580.000 531.196 L 582.000 531.196 L 584.000 531.196 L 586.000 531.196 L 588.000 531.196 L 590.000 531.196 L 592.000 531.196 L 594.000 528.261 L 596.000 528.261 L 598.000 528.261 L 600.000 528.261 L 602.000 528.261 L 604.000 528.261 L 606.000 528.261 L 608.000 528.261 L 610.000 528.261 L 612.000 528.261 L 614.000 528.261 L 616.000 528.261 L 618.000 528.261 L 620.000 528.261 L 622.000 528.261 L 624.000 528.261 L 626.000 528.261 L 628.000 528.261 L 630.000 528.261 L 632.000 528.261 L 634.000 528.261 L 636.000 528.261 L 638.000 528.261 L 640.000 528.261 L 642.000 528.261 L 644.000 528.261 L 646.000 528.261 L 648.000 528.261 L 650.000 528.261 L 652.000 539.251 L 654.000 539.251 L 656.000 539.251 L 658.000 539.251 L 660.000 539.251 L 662.000 539.251 L 664.000 539.251 L 666.000 539.251 L 668.000 539.251 L 670.000 539.251 L 672.000 539.251 L 674.000 539.251 L 676.000 539.251 L 678.000 539.251 L 680.000 539.251 L 682.000 539.251 L 684.000 539.251 L 686.000 88.002 L 688.000 88.002 L 690.000 88.002 L 692.000 88.002 L 694.000 88.002 L 696.000 88.002 L 698.000 88.002 L 700.000 88.002 L 702.000 88.002 L 704.000 88.002 L 706.000 88.002 L 708.000 78.107 L 710.000 78.107 L 712.000 78.107 L 714.000 78.107 L 716.000 78.107 L 718.000 78.107 L 720.000 78.107 L 722.000 78.107 L 724.000 78.107 L 726.000 78.107 L 728.000 78.107 L 730.000 78.107 L 732.000 78.107 L 734.000 78.107 L 736.000 78.107" fill="none" stroke="#ff9800" stroke-width="1" stroke-dasharray="6,4"/><text x="4.000" y="14.000" fill="#ff9800" font-size="12">base_bottom_edge</text></g></svg>