<svg xmlns="http://www.w3.org/2000/svg" width="737" height="539" viewBox="0 0 737 539"><rect x="0" y="0" width="100%" height="100%" fill="none" stroke="#ffffff" stroke-width="1"/><g id="bboxes"><rect x="29.165" y="0.507" width="39.000" height="45.000" fill="none" stroke="#00ff7f" stroke-width="1"/><text x="31.165" y="12.507" fill="#00ff7f" font-size="10">0</text><rect x="0.265" y="0.055" width="29.000" height="61.000" fill="none" stroke="#00ff7f" stroke-width="1"/><text x="2.265" y="12.055" fill="#00ff7f" font-size="10">1</text><rect x="43.493" y="45.036" width="38.000" height="41.000" fill="none" stroke="#00ff7f" stroke-width="1"/><text x="45.493" y="57.036" fill="#00ff7f" font-size="10">2</text><rect x="0.046" y="61.942" width="43.000" height="41.000" fill="none" stroke="#00ff7f" stroke-width="1"/><text x="2.046" y="73.942" fill="#00ff7f" font-size="10">3</text><rect x="0.565" y="153.819" width="42.000" height="41.000" fill="none" stroke="#00ff7f" stroke-width="1"/><text x="2.565" y="165.819" fill="#00ff7f" font-size="10">4</text><rect x="34.989" y="102.622" width="36.000" height="46.000" fill="none" stroke="#00ff7f" stroke-width="1"/><text x="36.989" y="114.622" fill="#00ff7f" font-size="10">5</text><rect x="0.969" y="102.471" width="34.000" height="51.000" fill="none" stroke="#00ff7f" stroke-width="1"/><text x="2.969" y="114.471" fill="#00ff7f" font-size="10">6</text><rect x="81.493" y="0" width="655.507" height="539.000" fill="none" stroke="#ff5252" stroke-width="1" stroke-dasharray="6,4"/><text x="87.493" y="16" fill="#ff5252" font-size="12">right_gap</text><rect x="0" y="194.819" width="81.493" height="344.181" fill="none" stroke="#ff5252" stroke-width="1" stroke-dasharray="6,4"/><text x="6" y="210.819" fill="#ff5252" font-size="12">bottom_gap</text><text x="6" y="14" fill="#ffffff" font-size="12">visible=7</text><path d="M 68.165 2.000 L 68.165 4.000 L 68.165 6.000 L 68.165 8.000 L 68.165 10.000 L 68.165 12.000 L 68.165 14.000 L 68.165 16.000 L 68.165 18.000 L 68.165 20.000 L 68.165 22.000 L 68.165 24.000 L 68.165 26.000 L 68.165 28.000 L 68.165 30.000 L 68.165 32.000 L 68.165 34.000 L 68.165 36.000 L 68.165 38.000 L 68.165 40.000 L 68.165 42.000 L 68.165 44.000 L 81.493 46.000 L 81.493 48.000 L 81.493 50.000 L 81.493 52.000 L 81.493 54.000 L 81.493 56.000 L 81.493 58.000 L 81.493 60.000 L 81.493 62.000 L 81.493 64.000 L 81.493 66.000 L 81.493 68.000 L 81.493 70.000 L 81.493 72.000 L 81.493 74.000 L 81.493 76.000 L 81.493 78.000 L 81.493 80.000 L 81.493 82.000 L 81.493 84.000 L 81.493 86.000 L 43.046 88.000 L 43.046 90.000 L 43.046 92.000 L 43.046 94.000 L 43.046 96.000 L 43.046 98.000 L 43.046 100.000 L 43.046 102.000 L 70.989 104.000 L 70.989 106.000 L 70.989 108.000 L 70.989 110.000 L 70.989 112.000 L 70.989 114.000 L 70.989 116.000 L 70.989 118.000 L 70.989 120.000 L 70.989 122.000 L 70.989 124.000 L 70.989 126.000 L 70.989 128.000 L 70.989 130.000 L 70.989 132.000 L 70.989 134.000 L 70.989 136.000 L 70.989 138.000 L 70.989 140.000 L 70.989 142.000 L 70.989 144.000 L 70.989 146.000 L 70.989 148.000 L 34.969 150.000 L 34.969 152.000 L 42.565 154.000 L 42.565 156.000 L 42.565 158.000 L 42.565 160.000 L 42.565 162.000 L 42.565 164.000 L 42.565 166.000 L 42.565 168.000 L 42.565 170.000 L 42.565 172.000 L 42.565 174.000 L 42.565 176.000 L 42.565 178.000 L 42.565 180.000 L 42.565 182.000 L 42.565 184.000 L 42.565 186.000 L 42.565 188.000 L 42.565 190.000 L 42.565 192.000 L 42.565 194.000" fill="none" stroke="#ff9800" stroke-width="1" stroke-dasharray="6,4"/><text x="72.165" y="16.000" fill="#ff9800" font-size="12">base_right_edge</text><path d="M 0.000 0.000 L 2.000 0.000 L 4.000 194.819 L 6.000 194.819 L 8.000 194.819 L 10.000 194.819 L 12.000 194.819 L 14.000 194.819 L 16.000 194.819 L 18.000 194.819 L 20.000 194.819 L 22.000 194.819 L 24.000 194.819 L 26.000 194.819 L 28.000 194.819 L 30.000 194.819 L 32.000 194.819 L 34.000 194.819 L 36.000 194.819 L 38.000 194.819 L 40.000 194.819 L 42.000 194.819 L 44.000 148.622 L 46.000 148.622 L 48.000 148.622 L 50.000 148.622 L 52.000 148.622 L 54.000 148.622 L 56.000 148.622 L 58.000 148.622 L 60.000 148.622 L 62.000 148.622 L 64.000 148.622 L 66.000 148.622 L 68.000 148.622 L 70.000 148.622 L 72.000 86.036 L 74.000 86.036 L 76.000 86.036 L 78.000 86.036 L 80.000 86.036 L 82.000 86.036 L 84.000 86.036 L 86.000 86.036 L 88.000 86.036 L 90.000 86.036 L 92.000 86.036 L 94.000 86.036 L 96.000 86.036 L 98.000 86.036 L 100.000 86.036 L 102.000 86.036 L 104.000 86.036 L 106.000 86.036 L 108.000 86.036 L 110.000 86.036 L 112.000 86.036 L 114.000 86.036 L 116.000 86.036 L 118.000 86.036 L 120.000 86.036 L 122.000 86.036 L 124.000 86.036 L 126.000 86.036 L 128.000 86.036 L 130.000 86.036 L 132.000 86.036 L 134.000 86.036 L 136.000 86.036 L 138.000 86.036 L 140.000 86.036 L 142.000 86.036 L 144.000 86.036 L 146.000 86.036 L 148.000 86.036 L 150.000 86.036 L 152.000 86.036 L 154.000 86.036 L 156.000 86.036 L 158.000 86.036 L 160.000 86.036 L 162.000 86.036 L 164.000 86.036 L 166.000 86.036 L 168.000 86.036 L 170.000 86.036 L 172.000 86.036 L 174.000 86.036 L 176.000 86.036 L 178.000 86.036 L 180.000 86.036 L 182.000 86.036 L 184.000 86.036 L 186.000 86.036 L 188.000 86.036 L 190.000 86.036 L 192.000 86.036 L 194.000 86.036 L 196.000 86.036 L 198.000 86.036 L 200.000 86.036 L 202.000 86.036 L 204.000 86.036 L 206.000 86.036 L 208.000 86.036 L 210.000 86.036 L 212.000 86.036 L 214.000 86.036 L 216.000 86.036 L 218.000 86.036 L 220.000 86.036 L 222.000 86.036 L 224.000 86.036 L 226.000 86.036 L 228.000 86.036 L 230.000 86.036 L 232.000 86.036 L 234.000 86.036 L 236.000 86.036 L 238.000 86.036 L 240.000 86.036 L 242.000 86.036 L 244.000 86.036 L 246.000 86.036 L 248.000 86.036 L 250.000 86.036 L 252.000 86.036 L 254.000 86.036 L 256.000 86.036 L 258.000 86.036 L 260.000 86.036 L 262.000 86.036 L 264.000 86.036 L 266.000 86.036 L 268.000 86.036 L 270.000 86.036 L 272.000 86.036 L 274.000 86.036 L 276.000 86.036 L 278.000 86.036 L 280.000 86.036 L 282.000 86.036 L 284.000 86.036 L 286.000 86.036 L 288.000 86.036 L 290.000 86.036 L 292.000 86.036 L 294.000 86.036 L 296.000 86.036 L 298.000 86.036 L 300.000 86.036 L 302.000 86.036 L 304.000 86.036 L 306.000 86.036 L 308.000 86.036 L 310.000 86.036 L 312.000 86.036 L 314.000 86.036 L 316.000 86.036 L 318.000 86.036 L 320.000 86.036 L 322.000 86.036 L 324.000 86.036 L 326.000 86.036 L 328.000 86.036 L 330.000 86.036 L 332.000 86.036 L 334.000 86.036 L 336.000 86.036 L 338.000 86.036 L 340.000 86.036 L 342.000 86.036 L 344.000 86.036 L 346.000 86.036 L 348.000 86.036 L 350.000 86.036 L 352.000 86.036 L 354.000 86.036 L 356.000 86.036 L 358.000 86.036 L 360.000 86.036 L 362.000 86.036 L 364.000 86.036 L 366.000 86.036 L 368.000 86.036 L 370.000 86.036 L 372.000 86.036 L 374.000 86.036 L 376.000 86.036 L 378.000 86.036 L 380.000 86.036 L 382.000 86.036 L 384.000 86.036 L 386.000 86.036 L 388.000 86.036 L 390.000 86.036 L 392.000 86.036 L 394.000 86.036 L 396.000 86.036 L 398.000 86.036 L 400.000 86.036 L 402.000 86.036 L 404.000 86.036 L 406.000 86.036 L 408.000 86.036 L 410.000 86.036 L 412.000 86.036 L 414.000 86.036 L 416.000 86.036 L 418.000 86.036 L 420.000 86.036 L 422.000 86.036 L 424.000 86.036 L 426.000 86.036 L 428.000 86.036 L 430.000 86.036 L 432.000 86.036 L 434.000 86.036 L 436.000 86.036 L 438.000 86.036 L 440.000 86.036 L 442.000 86.036 L 444.000 86.036 L 446.000 86.036 L 448.000 86.036 L 450.000 86.036 L 452.000 86.036 L 454.000 86.036 L 456.000 86.036 L 458.000 86.036 L 460.000 86.036 L 462.000 86.036 L 464.000 86.036 L 466.000 86.036 L 468.000 86.036 L 470.000 86.036 L 472.000 86.036 L 474.000 86.036 L 476.000 86.036 L 478.000 86.036 L 480.000 86.036 L 482.000 86.036 L 484.000 86.036 L 486.000 86.036 L 488.000 86.036 L 490.000 86.036 L 492.000 86.036 L 494.000 86.036 L 496.000 86.036 L 498.000 86.036 L 500.000 86.036 L 502.000 86.036 L 504.000 86.036 L 506.000 86.036 L 508.000 86.036 L 510.000 86.036 L 512.000 86.036 L 514.000 86.036 L 516.000 86.036 L 518.000 86.036 L 520.000 86.036 L 522.000 86.036 L 524.000 86.036 L 526.000 86.036 L 528.000 86.036 L 530.000 86.036 L 532.000 86.036 L 534.000 86.036 L 536.000 86.036 L 538.000 86.036 L 540.000 86.036 L 542.000 86.036 L 544.000 86.036 L 546.000 86.036 L 548.000 86.036 L 550.000 86.036 L 552.000 86.036 L 554.000 86.036 L 556.000 86.036 L 558.000 86.036 L 560.000 86.036 L 562.000 86.036 L 564.000 86.036 L 566.000 86.036 L 568.000 86.036 L 570.000 86.036 L 572.000 86.036 L 574.000 86.036 L 576.000 86.036 L 578.000 86.036 L 580.000 86.036 L 582.000 86.036 L 584.000 86.036 L 586.000 86.036 L 588.000 86.036 L 590.000 86.036 L 592.000 86.036 L 594.000 86.036 L 596.000 86.036 L 598.000 86.036 L 600.000 86.036 L 602.000 86.036 L 604.000 86.036 L 606.000 86.036 L 608.000 86.036 L 610.000 86.036 L 612.000 86.036 L 614.000 86.036 L 616.000 86.036 L 618.000 86.036 L 620.000 86.036 L 622.000 86.036 L 624.000 86.036 L 626.000 86.036 L 628.000 86.036 L 630.000 86.036 L 632.000 86.036 L 634.000 86.036 L 636.000 86.036 L 638.000 86.036 L 640.000 86.036 L 642.000 86.036 L 644.000 86.036 L 646.000 86.036 L 648.000 86.036 L 650.000 86.036 L 652.000 86.036 L 654.000 86.036 L 656.000 86.036 L 658.000 86.036 L 660.000 86.036 L 662.000 86.036 L 664.000 86.036 L 666.000 86.036 L 668.000 86.036 L 670.000 86.036 L 672.000 86.036 L 674.000 86.036 L 676.000 86.036 L 678.000 86.036 L 680.000 86.036 L 682.000 86.036 L 684.000 86.036 L 686.000 86.036 L 688.000 86.036 L 690.000 86.036 L 692.000 86.036 L 694.000 86.036 L 696.000 86.036 L 698.000 86.036 L 700.000 86.036 L 702.000 86.036 L 704.000 86.036 L 706.000 86.036 L 708.000 86.036 L 710.000 86.036 L 712.000 86.036 L 714.000 86.036 L 716.000 86.036 L 718.000 86.036 L 720.000 86.036 L 722.000 86.036 L 724.000 86.036 L 726.000 86.036 L 728.000 86.036 L 730.000 86.036 L 732.000 86.036 L 734.000 86.036 L 736.000 86.036" fill="none" stroke="#ff9800" stroke-width="1" stroke-dasharray="6,4"/><text x="4.000" y="14.000" fill="#ff9800" font-size="12">base_bottom_edge</text></g></svg>