<svg xmlns="http://www.w3.org/2000/svg" width="737" height="539" viewBox="0 0 737 539"><rect x="0" y="0" width="100%" height="100%" fill="none" stroke="#ffffff" stroke-width="1"/><g id="bboxes"><rect x="0.328" y="0.143" width="94.000" height="75.000" fill="none" stroke="#00ff7f" stroke-width="1"/><text x="2.328" y="12.143" fill="#00ff7f" font-size="10">0</text><rect x="0.619" y="153.850" width="78.000" height="79.000" fill="none" stroke="#00ff7f" stroke-width="1"/><text x="2.619" y="165.850" fill="#00ff7f" font-size="10">1</text><rect x="0.286" y="75.421" width="90.000" height="78.000" fill="none" stroke="#00ff7f" stroke-width="1"/><text x="2.286" y="87.421" fill="#00ff7f" font-size="10">2</text><rect x="0.904" y="423.565" width="72.000" height="74.000" fill="none" stroke="#00ff7f" stroke-width="1"/><text x="2.904" y="435.565" fill="#00ff7f" font-size="10">3</text><rect x="173.721" y="0.252" width="76.000" height="66.000" fill="none" stroke="#00ff7f" stroke-width="1"/><text x="175.721" y="12.252" fill="#00ff7f" font-size="10">4</text><rect x="97.357" y="218.358" width="72.000" height="72.000" fill="none" stroke="#00ff7f" stroke-width="1"/><text x="99.357" y="230.358" fill="#00ff7f" font-size="10">5</text><rect x="90.530" y="75.693" width="72.000" height="82.000" fill="none" stroke="#00ff7f" stroke-width="1"/><text x="92.530" y="87.693" fill="#00ff7f" font-size="10">6</text><rect x="162.287" y="69.716" width="94.000" height="57.000" fill="none" stroke="#00ff7f" stroke-width="1"/><text x="164.287" y="81.716" fill="#00ff7f" font-size="10">7</text><rect x="238.193" y="325.451" width="48.000" height="80.000" fill="none" stroke="#00ff7f" stroke-width="1"/><text x="240.193" y="337.451" fill="#00ff7f" font-size="10">8</text><rect x="199.884" y="409.979" width="49.000" height="79.000" fill="none" stroke="#00ff7f" stroke-width="1"/><text x="201.884" y="421.979" fill="#00ff7f" font-size="10">9</text><rect x="78.677" y="157.321" width="89.000" height="62.000" fill="none" stroke="#00ff7f" stroke-width="1"/><text x="80.677" y="169.321" fill="#00ff7f" font-size="10">10</text><rect x="0.745" y="294.826" width="42.000" height="129.000" fill="none" stroke="#00ff7f" stroke-width="1"/><text x="2.745" y="306.826" fill="#00ff7f" font-size="10">11</text><rect x="42.192" y="295.126" width="70.000" height="76.000" fill="none" stroke="#00ff7f" stroke-width="1"/><text x="44.192" y="307.126" fill="#00ff7f" font-size="10">12</text><rect x="167.536" y="127.681" width="66.000" height="74.000" fill="none" stroke="#00ff7f" stroke-width="1"/><text x="169.536" y="139.681" fill="#00ff7f" font-size="10">13</text><rect x="382.170" y="438.043" width="49.000" height="67.000" fill="none" stroke="#00ff7f" stroke-width="1"/><text x="384.170" y="450.043" fill="#00ff7f" font-size="10">14</text><rect x="72.565" y="370.492" width="59.000" height="80.000" fill="none" stroke="#00ff7f" stroke-width="1"/><text x="74.565" y="382.492" fill="#00ff7f" font-size="10">15</text><rect x="256.180" y="67.661" width="69.000" height="59.000" fill="none" stroke="#00ff7f" stroke-width="1"/><text x="258.180" y="79.661" fill="#00ff7f" font-size="10">16</text><rect x="307.296" y="126.151" width="43.000" height="83.000" fill="none" stroke="#00ff7f" stroke-width="1"/><text x="309.296" y="138.151" fill="#00ff7f" font-size="10">17</text><rect x="447.918" y="43.104" width="36.000" height="83.000" fill="none" stroke="#00ff7f" stroke-width="1"/><text x="449.918" y="55.104" fill="#00ff7f" font-size="10">18</text><rect x="131.175" y="361.199" width="49.000" height="87.000" fill="none" stroke="#00ff7f" stroke-width="1"/><text x="133.175" y="373.199" fill="#00ff7f" font-size="10">19</text><rect x="286.023" y="311.629" width="52.000" height="70.000" fill="none" stroke="#00ff7f" stroke-width="1"/><text x="288.023" y="323.629" fill="#00ff7f" font-size="10">20</text><rect x="331.978" y="465.141" width="50.000" height="67.000" fill="none" stroke="#00ff7f" stroke-width="1"/><text x="333.978" y="477.141" fill="#00ff7f" font-size="10">21</text><rect x="169.790" y="201.581" width="72.000" height="59.000" fill="none" stroke="#00ff7f" stroke-width="1"/><text x="171.790" y="213.581" fill="#00ff7f" font-size="10">22</text><rect x="177.233" y="260.227" width="50.000" height="82.000" fill="none" stroke="#00ff7f" stroke-width="1"/><text x="179.233" y="272.227" fill="#00ff7f" font-size="10">23</text><rect x="199.644" y="488.769" width="75.000" height="50.000" fill="none" stroke="#00ff7f" stroke-width="1"/><text x="201.644" y="500.769" fill="#00ff7f" font-size="10">24</text><rect x="393.285" y="0.336" width="74.000" height="43.000" fill="none" stroke="#00ff7f" stroke-width="1"/><text x="395.285" y="12.336" fill="#00ff7f" font-size="10">25</text><rect x="227.680" y="259.594" width="59.000" height="66.000" fill="none" stroke="#00ff7f" stroke-width="1"/><text x="229.680" y="271.594" fill="#00ff7f" font-size="10">26</text><rect x="302.242" y="381.838" width="42.000" height="84.000" fill="none" stroke="#00ff7f" stroke-width="1"/><text x="304.242" y="393.838" fill="#00ff7f" font-size="10">27</text><rect x="127.812" y="450.150" width="72.000" height="60.000" fill="none" stroke="#00ff7f" stroke-width="1"/><text x="129.812" y="462.150" fill="#00ff7f" font-size="10">28</text><rect x="233.660" y="127.614" width="72.000" height="57.000" fill="none" stroke="#00ff7f" stroke-width="1"/><text x="235.660" y="139.614" fill="#00ff7f" font-size="10">29</text><rect x="313.336" y="0.522" width="79.000" height="51.000" fill="none" stroke="#00ff7f" stroke-width="1"/><text x="315.336" y="12.522" fill="#00ff7f" font-size="10">30</text><rect x="457.532" y="347.124" width="67.000" height="45.000" fill="none" stroke="#00ff7f" stroke-width="1"/><text x="459.532" y="359.124" fill="#00ff7f" font-size="10">31</text><rect x="112.703" y="291.937" width="65.000" height="71.000" fill="none" stroke="#00ff7f" stroke-width="1"/><text x="114.703" y="303.937" fill="#00ff7f" font-size="10">32</text><rect x="249.678" y="0.282" width="65.000" height="67.000" fill="none" stroke="#00ff7f" stroke-width="1"/><text x="251.678" y="12.282" fill="#00ff7f" font-size="10">33</text><rect x="640.169" y="112.824" width="56.000" height="47.000" fill="none" stroke="#00ff7f" stroke-width="1"/><text x="642.169" y="124.824" fill="#00ff7f" font-size="10">34</text><rect x="497.959" y="292.233" width="50.000" height="56.000" fill="none" stroke="#00ff7f" stroke-width="1"/><text x="499.959" y="304.233" fill="#00ff7f" font-size="10">35</text><rect x="501.733" y="108.828" width="39.000" height="70.000" fill="none" stroke="#00ff7f" stroke-width="1"/><text x="503.733" y="120.828" fill="#00ff7f" font-size="10">36</text><rect x="0.327" y="231.883" width="97.000" height="63.000" fill="none" stroke="#00ff7f" stroke-width="1"/><text x="2.327" y="243.883" fill="#00ff7f" font-size="10">37</text><rect x="399.938" y="253.627" width="59.000" height="52.000" fill="none" stroke="#00ff7f" stroke-width="1"/><text x="401.938" y="265.627" fill="#00ff7f" font-size="10">38</text><rect x="339.352" y="253.796" width="60.000" height="52.000" fill="none" stroke="#00ff7f" stroke-width="1"/><text x="341.352" y="265.796" fill="#00ff7f" font-size="10">39</text><rect x="72.880" y="450.974" width="55.000" height="85.000" fill="none" stroke="#00ff7f" stroke-width="1"/><text x="74.880" y="462.974" fill="#00ff7f" font-size="10">40</text><rect x="642.862" y="62.447" width="53.000" height="50.000" fill="none" stroke="#00ff7f" stroke-width="1"/><text x="644.862" y="74.447" fill="#00ff7f" font-size="10">41</text><rect x="345.748" y="381.702" width="58.000" height="57.000" fill="none" stroke="#00ff7f" stroke-width="1"/><text x="347.748" y="393.702" fill="#00ff7f" font-size="10">42</text><rect x="398.619" y="105.037" width="44.000" height="69.000" fill="none" stroke="#00ff7f" stroke-width="1"/><text x="400.619" y="117.037" fill="#00ff7f" font-size="10">43</text><rect x="180.763" y="341.550" width="58.000" height="68.000" fill="none" stroke="#00ff7f" stroke-width="1"/><text x="182.763" y="353.550" fill="#00ff7f" font-size="10">44</text><rect x="325.516" y="51.149" width="74.000" height="45.000" fill="none" stroke="#00ff7f" stroke-width="1"/><text x="327.516" y="63.149" fill="#00ff7f" font-size="10">45</text><rect x="646.139" y="0.713" width="43.000" height="62.000" fill="none" stroke="#00ff7f" stroke-width="1"/><text x="648.139" y="12.713" fill="#00ff7f" font-size="10">46</text><rect x="337.869" y="311.405" width="50.000" height="70.000" fill="none" stroke="#00ff7f" stroke-width="1"/><text x="339.869" y="323.405" fill="#00ff7f" font-size="10">47</text><rect x="409.959" y="174.804" width="43.000" height="70.000" fill="none" stroke="#00ff7f" stroke-width="1"/><text x="411.959" y="186.804" fill="#00ff7f" font-size="10">48</text><rect x="687.340" y="263.651" width="45.000" height="53.000" fill="none" stroke="#00ff7f" stroke-width="1"/><text x="689.340" y="275.651" fill="#00ff7f" font-size="10">49</text><rect x="349.742" y="96.569" width="49.000" height="62.000" fill="none" stroke="#00ff7f" stroke-width="1"/><text x="351.742" y="108.569" fill="#00ff7f" font-size="10">50</text><rect x="402.500" y="347.610" width="55.000" height="56.000" fill="none" stroke="#00ff7f" stroke-width="1"/><text x="404.500" y="359.610" fill="#00ff7f" font-size="10">51</text><rect x="339.111" y="209.118" width="70.000" height="45.000" fill="none" stroke="#00ff7f" stroke-width="1"/><text x="341.111" y="221.118" fill="#00ff7f" font-size="10">52</text><rect x="274.347" y="473.047" width="58.000" height="59.000" fill="none" stroke="#00ff7f" stroke-width="1"/><text x="276.347" y="485.047" fill="#00ff7f" font-size="10">53</text><rect x="452.886" y="126.538" width="50.000" height="59.000" fill="none" stroke="#00ff7f" stroke-width="1"/><text x="454.886" y="138.538" fill="#00ff7f" font-size="10">54</text><rect x="388.655" y="306.637" width="74.000" height="42.000" fill="none" stroke="#00ff7f" stroke-width="1"/><text x="390.655" y="318.637" fill="#00ff7f" font-size="10">55</text><rect x="590.362" y="146.886" width="48.000" height="54.000" fill="none" stroke="#00ff7f" stroke-width="1"/><text x="592.362" y="158.886" fill="#00ff7f" font-size="10">56</text><rect x="687.485" y="158.403" width="49.000" height="51.000" fill="none" stroke="#00ff7f" stroke-width="1"/><text x="689.485" y="170.403" fill="#00ff7f" font-size="10">57</text><rect x="588.526" y="0.662" width="58.000" height="46.000" fill="none" stroke="#00ff7f" stroke-width="1"/><text x="590.526" y="12.662" fill="#00ff7f" font-size="10">58</text><rect x="689.410" y="0.900" width="43.000" height="59.000" fill="none" stroke="#00ff7f" stroke-width="1"/><text x="691.410" y="12.900" fill="#00ff7f" font-size="10">59</text><rect x="483.957" y="0.154" width="49.000" height="57.000" fill="none" stroke="#00ff7f" stroke-width="1"/><text x="485.957" y="12.154" fill="#00ff7f" font-size="10">60</text><rect x="540.548" y="115.341" width="50.000" height="54.000" fill="none" stroke="#00ff7f" stroke-width="1"/><text x="542.548" y="127.341" fill="#00ff7f" font-size="10">61</text><rect x="544.070" y="169.190" width="46.000" height="58.000" fill="none" stroke="#00ff7f" stroke-width="1"/><text x="546.070" y="181.190" fill="#00ff7f" font-size="10">62</text><rect x="638.968" y="159.378" width="49.000" height="52.000" fill="none" stroke="#00ff7f" stroke-width="1"/><text x="640.968" y="171.378" fill="#00ff7f" font-size="10">63</text><rect x="399.632" y="43.521" width="49.000" height="62.000" fill="none" stroke="#00ff7f" stroke-width="1"/><text x="401.632" y="55.521" fill="#00ff7f" font-size="10">64</text><rect x="430.906" y="403.281" width="48.000" height="64.000" fill="none" stroke="#00ff7f" stroke-width="1"/><text x="432.906" y="415.281" fill="#00ff7f" font-size="10">65</text><rect x="590.239" y="93.295" width="50.000" height="53.000" fill="none" stroke="#00ff7f" stroke-width="1"/><text x="592.239" y="105.295" fill="#00ff7f" font-size="10">66</text><rect x="547.532" y="291.586" width="41.000" height="57.000" fill="none" stroke="#00ff7f" stroke-width="1"/><text x="549.532" y="303.586" fill="#00ff7f" font-size="10">67</text><rect x="637.711" y="268.827" width="41.000" height="57.000" fill="none" stroke="#00ff7f" stroke-width="1"/><text x="639.711" y="280.827" fill="#00ff7f" font-size="10">68</text><rect x="696.725" y="59.260" width="39.000" height="56.000" fill="none" stroke="#00ff7f" stroke-width="1"/><text x="698.725" y="71.260" fill="#00ff7f" font-size="10">69</text><rect x="615.844" y="426.674" width="34.000" height="59.000" fill="none" stroke="#00ff7f" stroke-width="1"/><text x="617.844" y="438.674" fill="#00ff7f" font-size="10">70</text><rect x="285.280" y="242.884" width="53.000" height="69.000" fill="none" stroke="#00ff7f" stroke-width="1"/><text x="287.280" y="254.884" fill="#00ff7f" font-size="10">71</text><rect x="540.022" y="49.177" width="41.000" height="66.000" fill="none" stroke="#00ff7f" stroke-width="1"/><text x="542.022" y="61.177" fill="#00ff7f" font-size="10">72</text><rect x="497.610" y="241.462" width="55.000" height="51.000" fill="none" stroke="#00ff7f" stroke-width="1"/><text x="499.610" y="253.462" fill="#00ff7f" font-size="10">73</text><rect x="483.960" y="57.473" width="54.000" height="51.000" fill="none" stroke="#00ff7f" stroke-width="1"/><text x="485.960" y="69.473" fill="#00ff7f" font-size="10">74</text><rect x="524.674" y="348.670" width="52.000" height="44.000" fill="none" stroke="#00ff7f" stroke-width="1"/><text x="526.674" y="360.670" fill="#00ff7f" font-size="10">75</text><rect x="349.844" y="158.172" width="47.000" height="50.000" fill="none" stroke="#00ff7f" stroke-width="1"/><text x="351.844" y="170.172" fill="#00ff7f" font-size="10">76</text><rect x="430.641" y="467.943" width="64.000" height="38.000" fill="none" stroke="#00ff7f" stroke-width="1"/><text x="432.641" y="479.943" fill="#00ff7f" font-size="10">77</text><rect x="241.237" y="184.243" width="66.000" height="59.000" fill="none" stroke="#00ff7f" stroke-width="1"/><text x="243.237" y="196.243" fill="#00ff7f" font-size="10">78</text><rect x="674.245" y="360.938" width="47.000" height="46.000" fill="none" stroke="#00ff7f" stroke-width="1"/><text x="676.245" y="372.938" fill="#00ff7f" font-size="10">79</text><rect x="590.641" y="211.935" width="54.000" height="46.000" fill="none" stroke="#00ff7f" stroke-width="1"/><text x="592.641" y="223.935" fill="#00ff7f" font-size="10">80</text><rect x="248.698" y="405.575" width="55.000" height="68.000" fill="none" stroke="#00ff7f" stroke-width="1"/><text x="250.698" y="417.575" fill="#00ff7f" font-size="10">81</text><rect x="94.955" y="0.160" width="79.000" height="70.000" fill="none" stroke="#00ff7f" stroke-width="1"/><text x="96.955" y="12.160" fill="#00ff7f" font-size="10">82</text><rect x="462.078" y="253.074" width="36.000" height="80.000" fill="none" stroke="#00ff7f" stroke-width="1"/><text x="464.078" y="265.074" fill="#00ff7f" font-size="10">83</text><rect x="451.143" y="184.547" width="42.000" height="69.000" fill="none" stroke="#00ff7f" stroke-width="1"/><text x="453.143" y="196.547" fill="#00ff7f" font-size="10">84</text><rect x="678.359" y="316.437" width="53.000" height="44.000" fill="none" stroke="#00ff7f" stroke-width="1"/><text x="680.359" y="328.437" fill="#00ff7f" font-size="10">85</text><rect x="532.882" y="0.649" width="56.000" height="49.000" fill="none" stroke="#00ff7f" stroke-width="1"/><text x="534.882" y="12.649" fill="#00ff7f" font-size="10">86</text><rect x="588.018" y="306.629" width="44.000" height="53.000" fill="none" stroke="#00ff7f" stroke-width="1"/><text x="590.018" y="318.629" fill="#00ff7f" font-size="10">87</text><rect x="644.000" y="211.037" width="43.000" height="57.000" fill="none" stroke="#00ff7f" stroke-width="1"/><text x="646.000" y="223.037" fill="#00ff7f" font-size="10">88</text><rect x="577.966" y="443.144" width="32.000" height="61.000" fill="none" stroke="#00ff7f" stroke-width="1"/><text x="579.966" y="455.144" fill="#00ff7f" font-size="10">89</text><rect x="478.369" y="404.599" width="44.000" height="49.000" fill="none" stroke="#00ff7f" stroke-width="1"/><text x="480.369" y="416.599" fill="#00ff7f" font-size="10">90</text><rect x="494.346" y="453.712" width="28.000" height="76.000" fill="none" stroke="#00ff7f" stroke-width="1"/><text x="496.346" y="465.712" fill="#00ff7f" font-size="10">91</text><rect x="687.925" y="209.848" width="46.000" height="54.000" fill="none" stroke="#00ff7f" stroke-width="1"/><text x="689.925" y="221.848" fill="#00ff7f" font-size="10">92</text><rect x="625.525" y="378.358" width="45.000" height="48.000" fill="none" stroke="#00ff7f" stroke-width="1"/><text x="627.525" y="390.358" fill="#00ff7f" font-size="10">93</text><rect x="552.402" y="227.531" width="38.000" height="62.000" fill="none" stroke="#00ff7f" stroke-width="1"/><text x="554.402" y="239.531" fill="#00ff7f" font-size="10">94</text><rect x="522.240" y="392.608" width="40.000" height="53.000" fill="none" stroke="#00ff7f" stroke-width="1"/><text x="524.240" y="404.608" fill="#00ff7f" font-size="10">95</text><rect x="562.491" y="404.328" width="53.000" height="39.000" fill="none" stroke="#00ff7f" stroke-width="1"/><text x="564.491" y="416.328" fill="#00ff7f" font-size="10">96</text><rect x="670.460" y="406.477" width="53.000" height="38.000" fill="none" stroke="#00ff7f" stroke-width="1"/><text x="672.460" y="418.477" fill="#00ff7f" font-size="10">97</text><rect x="576.591" y="359.775" width="49.000" height="45.000" fill="none" stroke="#00ff7f" stroke-width="1"/><text x="578.591" y="371.775" fill="#00ff7f" font-size="10">98</text><rect x="609.488" y="485.410" width="38.000" height="48.000" fill="none" stroke="#00ff7f" stroke-width="1"/><text x="611.488" y="497.410" fill="#00ff7f" font-size="10">99</text><rect x="681.457" y="502.805" width="46.000" height="36.000" fill="none" stroke="#00ff7f" stroke-width="1"/><text x="683.457" y="514.805" fill="#00ff7f" font-size="10">100</text><rect x="522.602" y="485.120" width="55.000" height="36.000" fill="none" stroke="#00ff7f" stroke-width="1"/><text x="524.602" y="497.120" fill="#00ff7f" font-size="10">101</text><rect x="0.686" y="497.716" width="58.000" height="38.000" fill="none" stroke="#00ff7f" stroke-width="1"/><text x="2.686" y="509.716" fill="#00ff7f" font-size="10">102</text><rect x="493.156" y="185.634" width="51.000" height="56.000" fill="none" stroke="#00ff7f" stroke-width="1"/><text x="495.156" y="197.634" fill="#00ff7f" font-size="10">103</text><rect x="647.234" y="485.256" width="34.000" height="53.000" fill="none" stroke="#00ff7f" stroke-width="1"/><text x="649.234" y="497.256" fill="#00ff7f" font-size="10">104</text><rect x="632.257" y="325.971" width="42.000" height="54.000" fill="none" stroke="#00ff7f" stroke-width="1"/><text x="634.257" y="337.971" fill="#00ff7f" font-size="10">105</text><rect x="522.665" y="445.829" width="35.000" height="40.000" fill="none" stroke="#00ff7f" stroke-width="1"/><text x="524.665" y="457.829" fill="#00ff7f" font-size="10">106</text><rect x="581.655" y="49.277" width="61.000" height="44.000" fill="none" stroke="#00ff7f" stroke-width="1"/><text x="583.655" y="61.277" fill="#00ff7f" font-size="10">107</text><rect x="590.258" y="257.611" width="47.000" height="50.000" fill="none" stroke="#00ff7f" stroke-width="1"/><text x="592.258" y="269.611" fill="#00ff7f" font-size="10">108</text><rect x="681.944" y="444.976" width="31.000" height="58.000" fill="none" stroke="#00ff7f" stroke-width="1"/><text x="683.944" y="456.976" fill="#00ff7f" font-size="10">109</text><rect x="696.666" y="115.144" width="40.000" height="41.000" fill="none" stroke="#00ff7f" stroke-width="1"/><text x="698.666" y="127.144" fill="#00ff7f" font-size="10">110</text><rect x="127.737" y="511.000" width="63.000" height="22.000" fill="none" stroke="#00ff7f" stroke-width="1"/><text x="129.737" y="523.000" fill="#00ff7f" font-size="10">111</text><rect x="381.905" y="505.092" width="97.000" height="33.000" fill="none" stroke="#00ff7f" stroke-width="1"/><text x="383.905" y="517.092" fill="#00ff7f" font-size="10">112</text><rect x="736.666" y="0" width="0.334" height="539.000" fill="none" stroke="#ff5252" stroke-width="1" stroke-dasharray="6,4"/><text x="742.666" y="16" fill="#ff5252" font-size="12">right_gap</text><rect x="0" y="538.805" width="736.666" height="0.195" fill="none" stroke="#ff5252" stroke-width="1" stroke-dasharray="6,4"/><text x="6" y="554.805" fill="#ff5252" font-size="12">bottom_gap</text><text x="6" y="14" fill="#ffffff" font-size="12">visible=113</text><path d="M 732.410 2.000 L 732.410 4.000 L 732.410 6.000 L 732.410 8.000 L 732.410 10.000 L 732.410 12.000 L 732.410 14.000 L 732.410 16.000 L 732.410 18.000 L 732.410 20.000 L 732.410 22.000 L 732.410 24.000 L 732.410 26.000 L 732.410 28.000 L 732.410 30.000 L 732.410 32.000 L 732.410 34.000 L 732.410 36.000 L 732.410 38.000 L 732.410 40.000 L 732.410 42.000 L 732.410 44.000 L 732.410 46.000 L 732.410 48.000 L 732.410 50.000 L 732.410 52.000 L 732.410 54.000 L 732.410 56.000 L 732.410 58.000 L 735.725 60.000 L 735.725 62.000 L 735.725 64.000 L 735.725 66.000 L 735.725 68.000 L 735.725 70.000 L 735.725 72.000 L 735.725 74.000 L 735.725 76.000 L 735.725 78.000 L 735.725 80.000 L 735.725 82.000 L 735.725 84.000 L 735.725 86.000 L 735.725 88.000 L 735.725 90.000 L 735.725 92.000 L 735.725 94.000 L 735.725 96.000 L 735.725 98.000 L 735.725 100.000 L 735.725 102.000 L 735.725 104.000 L 735.725 106.000 L 735.725 108.000 L 735.725 110.000 L 735.725 112.000 L 735.725 114.000 L 736.666 116.000 L 736.666 118.000 L 736.666 120.000 L 736.666 122.000 L 736.666 124.000 L 736.666 126.000 L 736.666 128.000 L 736.666 130.000 L 736.666 132.000 L 736.666 134.000 L 736.666 136.000 L 736.666 138.000 L 736.666 140.000 L 736.666 142.000 L 736.666 144.000 L 736.666 146.000 L 736.666 148.000 L 736.666 150.000 L 736.666 152.000 L 736.666 154.000 L 736.666 156.000 L 696.169 158.000 L 736.485 160.000 L 736.485 162.000 L 736.485 164.000 L 736.485 166.000 L 736.485 168.000 L 736.485 170.000 L 736.485 172.000 L 736.485 174.000 L 736.485 176.000 L 736.485 178.000 L 736.485 180.000 L 736.485 182.000 L 736.485 184.000 L 736.485 186.000 L 736.485 188.000 L 736.485 190.000 L 736.485 192.000 L 736.485 194.000 L 736.485 196.000 L 736.485 198.000 L 736.485 200.000 L 736.485 202.000 L 736.485 204.000 L 736.485 206.000 L 736.485 208.000 L 733.925 210.000 L 733.925 212.000 L 733.925 214.000 L 733.925 216.000 L 733.925 218.000 L 733.925 220.000 L 733.925 222.000 L 733.925 224.000 L 733.925 226.000 L 733.925 228.000 L 733.925 230.000 L 733.925 232.000 L 733.925 234.000 L 733.925 236.000 L 733.925 238.000 L 733.925 240.000 L 733.925 242.000 L 733.925 244.000 L 733.925 246.000 L 733.925 248.000 L 733.925 250.000 L 733.925 252.000 L 733.925 254.000 L 733.925 256.000 L 733.925 258.000 L 733.925 260.000 L 733.925 262.000 L 732.340 264.000 L 732.340 266.000 L 732.340 268.000 L 732.340 270.000 L 732.340 272.000 L 732.340 274.000 L 732.340 276.000 L 732.340 278.000 L 732.340 280.000 L 732.340 282.000 L 732.340 284.000 L 732.340 286.000 L 732.340 288.000 L 732.340 290.000 L 732.340 292.000 L 732.340 294.000 L 732.340 296.000 L 732.340 298.000 L 732.340 300.000 L 732.340 302.000 L 732.340 304.000 L 732.340 306.000 L 732.340 308.000 L 732.340 310.000 L 732.340 312.000 L 732.340 314.000 L 732.340 316.000 L 731.359 318.000 L 731.359 320.000 L 731.359 322.000 L 731.359 324.000 L 731.359 326.000 L 731.359 328.000 L 731.359 330.000 L 731.359 332.000 L 731.359 334.000 L 731.359 336.000 L 731.359 338.000 L 731.359 340.000 L 731.359 342.000 L 731.359 344.000 L 731.359 346.000 L 731.359 348.000 L 731.359 350.000 L 731.359 352.000 L 731.359 354.000 L 731.359 356.000 L 731.359 358.000 L 731.359 360.000 L 721.245 362.000 L 721.245 364.000 L 721.245 366.000 L 721.245 368.000 L 721.245 370.000 L 721.245 372.000 L 721.245 374.000 L 721.245 376.000 L 721.245 378.000 L 721.245 380.000 L 721.245 382.000 L 721.245 384.000 L 721.245 386.000 L 721.245 388.000 L 721.245 390.000 L 721.245 392.000 L 721.245 394.000 L 721.245 396.000 L 721.245 398.000 L 721.245 400.000 L 721.245 402.000 L 721.245 404.000 L 721.245 406.000 L 723.460 408.000 L 723.460 410.000 L 723.460 412.000 L 723.460 414.000 L 723.460 416.000 L 723.460 418.000 L 723.460 420.000 L 723.460 422.000 L 723.460 424.000 L 723.460 426.000 L 723.460 428.000 L 723.460 430.000 L 723.460 432.000 L 723.460 434.000 L 723.460 436.000 L 723.460 438.000 L 723.460 440.000 L 723.460 442.000 L 723.460 444.000 L 712.944 446.000 L 712.944 448.000 L 712.944 450.000 L 712.944 452.000 L 712.944 454.000 L 712.944 456.000 L 712.944 458.000 L 712.944 460.000 L 712.944 462.000 L 712.944 464.000 L 712.944 466.000 L 712.944 468.000 L 712.944 470.000 L 712.944 472.000 L 712.944 474.000 L 712.944 476.000 L 712.944 478.000 L 712.944 480.000 L 712.944 482.000 L 712.944 484.000 L 712.944 486.000 L 712.944 488.000 L 712.944 490.000 L 712.944 492.000 L 712.944 494.000 L 712.944 496.000 L 712.944 498.000 L 712.944 500.000 L 712.944 502.000 L 727.457 504.000 L 727.457 506.000 L 727.457 508.000 L 727.457 510.000 L 727.457 512.000 L 727.457 514.000 L 727.457 516.000 L 727.457 518.000 L 727.457 520.000 L 727.457 522.000 L 727.457 524.000 L 727.457 526.000 L 727.457 528.000 L 727.457 530.000 L 727.457 532.000 L 727.457 534.000 L 727.457 536.000 L 727.457 538.000" fill="none" stroke="#ff9800" stroke-width="1" stroke-dasharray="6,4"/><text x="736.410" y="16.000" fill="#ff9800" font-size="12">base_right_edge</text><path d="M 0.000 0.000 L 2.000 0.000 L 4.000 535.716 L 6.000 535.716 L 8.000 535.716 L 10.000 535.716 L 12.000 535.716 L 14.000 535.716 L 16.000 535.716 L 18.000 535.716 L 20.000 535.716 L 22.000 535.716 L 24.000 535.716 L 26.000 535.716 L 28.000 535.716 L 30.000 535.716 L 32.000 535.716 L 34.000 535.716 L 36.000 535.716 L 38.000 535.716 L 40.000 535.716 L 42.000 535.716 L 44.000 535.716 L 46.000 535.716 L 48.000 535.716 L 50.000 535.716 L 52.000 535.716 L 54.000 535.716 L 56.000 535.716 L 58.000 535.716 L 60.000 497.565 L 62.000 497.565 L 64.000 497.565 L 66.000 497.565 L 68.000 497.565 L 70.000 497.565 L 72.000 497.565 L 74.000 535.974 L 76.000 535.974 L 78.000 535.974 L 80.000 535.974 L 82.000 535.974 L 84.000 535.974 L 86.000 535.974 L 88.000 535.974 L 90.000 535.974 L 92.000 535.974 L 94.000 535.974 L 96.000 535.974 L 98.000 535.974 L 100.000 535.974 L 102.000 535.974 L 104.000 535.974 L 106.000 535.974 L 108.000 535.974 L 110.000 535.974 L 112.000 535.974 L 114.000 535.974 L 116.000 535.974 L 118.000 535.974 L 120.000 535.974 L 122.000 535.974 L 124.000 535.974 L 126.000 535.974 L 128.000 533.000 L 130.000 533.000 L 132.000 533.000 L 134.000 533.000 L 136.000 533.000 L 138.000 533.000 L 140.000 533.000 L 142.000 533.000 L 144.000 533.000 L 146.000 533.000 L 148.000 533.000 L 150.000 533.000 L 152.000 533.000 L 154.000 533.000 L 156.000 533.000 L 158.000 533.000 L 160.000 533.000 L 162.000 533.000 L 164.000 533.000 L 166.000 533.000 L 168.000 533.000 L 170.000 533.000 L 172.000 533.000 L 174.000 533.000 L 176.000 533.000 L 178.000 533.000 L 180.000 533.000 L 182.000 533.000 L 184.000 533.000 L 186.000 533.000 L 188.000 533.000 L 190.000 533.000 L 192.000 510.150 L 194.000 510.150 L 196.000 510.150 L 198.000 510.150 L 200.000 538.769 L 202.000 538.769 L 204.000 538.769 L 206.000 538.769 L 208.000 538.769 L 210.000 538.769 L 212.000 538.769 L 214.000 538.769 L 216.000 538.769 L 218.000 538.769 L 220.000 538.769 L 222.000 538.769 L 224.000 538.769 L 226.000 538.769 L 228.000 538.769 L 230.000 538.769 L 232.000 538.769 L 234.000 538.769 L 236.000 538.769 L 238.000 538.769 L 240.000 538.769 L 242.000 538.769 L 244.000 538.769 L 246.000 538.769 L 248.000 538.769 L 250.000 538.769 L 252.000 538.769 L 254.000 538.769 L 256.000 538.769 L 258.000 538.769 L 260.000 538.769 L 262.000 538.769 L 264.000 538.769 L 266.000 538.769 L 268.000 538.769 L 270.000 538.769 L 272.000 538.769 L 274.000 538.769 L 276.000 532.047 L 278.000 532.047 L 280.000 532.047 L 282.000 532.047 L 284.000 532.047 L 286.000 532.047 L 288.000 532.047 L 290.000 532.047 L 292.000 532.047 L 294.000 532.047 L 296.000 532.047 L 298.000 532.047 L 300.000 532.047 L 302.000 532.047 L 304.000 532.047 L 306.000 532.047 L 308.000 532.047 L 310.000 532.047 L 312.000 532.047 L 314.000 532.047 L 316.000 532.047 L 318.000 532.047 L 320.000 532.047 L 322.000 532.047 L 324.000 532.047 L 326.000 532.047 L 328.000 532.047 L 330.000 532.047 L 332.000 532.141 L 334.000 532.141 L 336.000 532.141 L 338.000 532.141 L 340.000 532.141 L 342.000 532.141 L 344.000 532.141 L 346.000 532.141 L 348.000 532.141 L 350.000 532.141 L 352.000 532.141 L 354.000 532.141 L 356.000 532.141 L 358.000 532.141 L 360.000 532.141 L 362.000 532.141 L 364.000 532.141 L 366.000 532.141 L 368.000 532.141 L 370.000 532.141 L 372.000 532.141 L 374.000 532.141 L 376.000 532.141 L 378.000 532.141 L 380.000 532.141 L 382.000 538.092 L 384.000 538.092 L 386.000 538.092 L 388.000 538.092 L 390.000 538.092 L 392.000 538.092 L 394.000 538.092 L 396.000 538.092 L 398.000 538.092 L 400.000 538.092 L 402.000 538.092 L 404.000 538.092 L 406.000 538.092 L 408.000 538.092 L 410.000 538.092 L 412.000 538.092 L 414.000 538.092 L 416.000 538.092 L 418.000 538.092 L 420.000 538.092 L 422.000 538.092 L 424.000 538.092 L 426.000 538.092 L 428.000 538.092 L 430.000 538.092 L 432.000 538.092 L 434.000 538.092 L 436.000 538.092 L 438.000 538.092 L 440.000 538.092 L 442.000 538.092 L 444.000 538.092 L 446.000 538.092 L 448.000 538.092 L 450.000 538.092 L 452.000 538.092 L 454.000 538.092 L 456.000 538.092 L 458.000 538.092 L 460.000 538.092 L 462.000 538.092 L 464.000 538.092 L 466.000 538.092 L 468.000 538.092 L 470.000 538.092 L 472.000 538.092 L 474.000 538.092 L 476.000 538.092 L 478.000 538.092 L 480.000 505.943 L 482.000 505.943 L 484.000 505.943 L 486.000 505.943 L 488.000 505.943 L 490.000 505.943 L 492.000 505.943 L 494.000 505.943 L 496.000 529.712 L 498.000 529.712 L 500.000 529.712 L 502.000 529.712 L 504.000 529.712 L 506.000 529.712 L 508.000 529.712 L 510.000 529.712 L 512.000 529.712 L 514.000 529.712 L 516.000 529.712 L 518.000 529.712 L 520.000 529.712 L 522.000 529.712 L 524.000 521.120 L 526.000 521.120 L 528.000 521.120 L 530.000 521.120 L 532.000 521.120 L 534.000 521.120 L 536.000 521.120 L 538.000 521.120 L 540.000 521.120 L 542.000 521.120 L 544.000 521.120 L 546.000 521.120 L 548.000 521.120 L 550.000 521.120 L 552.000 521.120 L 554.000 521.120 L 556.000 521.120 L 558.000 521.120 L 560.000 521.120 L 562.000 521.120 L 564.000 521.120 L 566.000 521.120 L 568.000 521.120 L 570.000 521.120 L 572.000 521.120 L 574.000 521.120 L 576.000 521.120 L 578.000 504.144 L 580.000 504.144 L 582.000 504.144 L 584.000 504.144 L 586.000 504.144 L 588.000 504.144 L 590.000 504.144 L 592.000 504.144 L 594.000 504.144 L 596.000 504.144 L 598.000 504.144 L 600.000 504.144 L 602.000 504.144 L 604.000 504.144 L 606.000 504.144 L 608.000 504.144 L 610.000 533.410 L 612.000 533.410 L 614.000 533.410 L 616.000 533.410 L 618.000 533.410 L 620.000 533.410 L 622.000 533.410 L 624.000 533.410 L 626.000 533.410 L 628.000 533.410 L 630.000 533.410 L 632.000 533.410 L 634.000 533.410 L 636.000 533.410 L 638.000 533.410 L 640.000 533.410 L 642.000 533.410 L 644.000 533.410 L 646.000 533.410 L 648.000 538.256 L 650.000 538.256 L 652.000 538.256 L 654.000 538.256 L 656.000 538.256 L 658.000 538.256 L 660.000 538.256 L 662.000 538.256 L 664.000 538.256 L 666.000 538.256 L 668.000 538.256 L 670.000 538.256 L 672.000 538.256 L 674.000 538.256 L 676.000 538.256 L 678.000 538.256 L 680.000 538.256 L 682.000 538.805 L 684.000 538.805 L 686.000 538.805 L 688.000 538.805 L 690.000 538.805 L 692.000 538.805 L 694.000 538.805 L 696.000 538.805 L 698.000 538.805 L 700.000 538.805 L 702.000 538.805 L 704.000 538.805 L 706.000 538.805 L 708.000 538.805 L 710.000 538.805 L 712.000 538.805 L 714.000 538.805 L 716.000 538.805 L 718.000 538.805 L 720.000 538.805 L 722.000 538.805 L 724.000 538.805 L 726.000 538.805 L 728.000 360.437 L 730.000 360.437 L 732.000 316.651 L 734.000 209.403 L 736.000 209.403" fill="none" stroke="#ff9800" stroke-width="1" stroke-dasharray="6,4"/><text x="4.000" y="14.000" fill="#ff9800" font-size="12">base_bottom_edge</text></g></svg>