<svg xmlns="http://www.w3.org/2000/svg" width="737" height="539" viewBox="0 0 737 539"><rect x="0" y="0" width="100%" height="100%" fill="none" stroke="#ffffff" stroke-width="1"/><g id="bboxes"><rect x="8.576" y="4.018" width="40.000" height="69.000" fill="none" stroke="#00ff7f" stroke-width="1"/><text x="10.576" y="16.018" fill="#00ff7f" font-size="10">0</text><rect x="48.344" y="4.641" width="38.000" height="69.000" fill="none" stroke="#00ff7f" stroke-width="1"/><text x="50.344" y="16.641" fill="#00ff7f" font-size="10">1</text><rect x="8.299" y="136.506" width="42.000" height="60.000" fill="none" stroke="#00ff7f" stroke-width="1"/><text x="10.299" y="148.506" fill="#00ff7f" font-size="10">2</text><rect x="70.236" y="347.232" width="39.000" height="53.000" fill="none" stroke="#00ff7f" stroke-width="1"/><text x="72.236" y="359.232" fill="#00ff7f" font-size="10">3</text><rect x="8.350" y="400.118" width="32.000" height="65.000" fill="none" stroke="#00ff7f" stroke-width="1"/><text x="10.350" y="412.118" fill="#00ff7f" font-size="10">4</text><rect x="50.928" y="134.251" width="43.000" height="44.000" fill="none" stroke="#00ff7f" stroke-width="1"/><text x="52.928" y="146.251" fill="#00ff7f" font-size="10">5</text><rect x="54.655" y="294.068" width="39.000" height="54.000" fill="none" stroke="#00ff7f" stroke-width="1"/><text x="56.655" y="306.068" fill="#00ff7f" font-size="10">6</text><rect x="8.099" y="196.438" width="41.000" height="58.000" fill="none" stroke="#00ff7f" stroke-width="1"/><text x="10.099" y="208.438" fill="#00ff7f" font-size="10">7</text><rect x="8.372" y="73.336" width="42.000" height="63.000" fill="none" stroke="#00ff7f" stroke-width="1"/><text x="10.372" y="85.336" fill="#00ff7f" font-size="10">8</text><rect x="93.159" y="294.420" width="39.000" height="53.000" fill="none" stroke="#00ff7f" stroke-width="1"/><text x="95.159" y="306.420" fill="#00ff7f" font-size="10">9</text><rect x="50.461" y="73.081" width="33.000" height="61.000" fill="none" stroke="#00ff7f" stroke-width="1"/><text x="52.461" y="85.081" fill="#00ff7f" font-size="10">10</text><rect x="8.697" y="319.051" width="46.000" height="47.000" fill="none" stroke="#00ff7f" stroke-width="1"/><text x="10.697" y="331.051" fill="#00ff7f" font-size="10">11</text><rect x="8.362" y="366.196" width="62.000" height="34.000" fill="none" stroke="#00ff7f" stroke-width="1"/><text x="10.362" y="378.196" fill="#00ff7f" font-size="10">12</text><rect x="86.997" y="4.107" width="37.000" height="45.000" fill="none" stroke="#00ff7f" stroke-width="1"/><text x="88.997" y="16.107" fill="#00ff7f" font-size="10">13</text><rect x="93.232" y="131.280" width="35.000" height="49.000" fill="none" stroke="#00ff7f" stroke-width="1"/><text x="95.232" y="143.280" fill="#00ff7f" font-size="10">14</text><rect x="42.653" y="253.555" width="53.000" height="40.000" fill="none" stroke="#00ff7f" stroke-width="1"/><text x="44.653" y="265.555" fill="#00ff7f" font-size="10">15</text><rect x="132.969" y="431.381" width="43.000" height="46.000" fill="none" stroke="#00ff7f" stroke-width="1"/><text x="134.969" y="443.381" fill="#00ff7f" font-size="10">16</text><rect x="83.959" y="73.002" width="30.000" height="58.000" fill="none" stroke="#00ff7f" stroke-width="1"/><text x="85.959" y="85.002" fill="#00ff7f" font-size="10">17</text><rect x="49.162" y="196.204" width="45.000" height="47.000" fill="none" stroke="#00ff7f" stroke-width="1"/><text x="51.162" y="208.204" fill="#00ff7f" font-size="10">18</text><rect x="8.604" y="253.141" width="34.000" height="66.000" fill="none" stroke="#00ff7f" stroke-width="1"/><text x="10.604" y="265.141" fill="#00ff7f" font-size="10">19</text><rect x="109.722" y="346.266" width="46.000" height="42.000" fill="none" stroke="#00ff7f" stroke-width="1"/><text x="111.722" y="358.266" fill="#00ff7f" font-size="10">20</text><rect x="80.813" y="432.205" width="52.000" height="39.000" fill="none" stroke="#00ff7f" stroke-width="1"/><text x="82.813" y="444.205" fill="#00ff7f" font-size="10">21</text><rect x="80.609" y="400.900" width="66.000" height="31.000" fill="none" stroke="#00ff7f" stroke-width="1"/><text x="82.609" y="412.900" fill="#00ff7f" font-size="10">22</text><rect x="40.849" y="400.132" width="40.000" height="52.000" fill="none" stroke="#00ff7f" stroke-width="1"/><text x="42.849" y="412.132" fill="#00ff7f" font-size="10">23</text><rect x="175.969" y="0" width="561.031" height="539.000" fill="none" stroke="#ff5252" stroke-width="1" stroke-dasharray="6,4"/><text x="181.969" y="16" fill="#ff5252" font-size="12">right_gap</text><rect x="0" y="477.381" width="175.969" height="61.619" fill="none" stroke="#ff5252" stroke-width="1" stroke-dasharray="6,4"/><text x="6" y="493.381" fill="#ff5252" font-size="12">bottom_gap</text><text x="6" y="14" fill="#ffffff" font-size="12">visible=24</text><path d="M 123.997 6.000 L 123.997 8.000 L 123.997 10.000 L 123.997 12.000 L 123.997 14.000 L 123.997 16.000 L 123.997 18.000 L 123.997 20.000 L 123.997 22.000 L 123.997 24.000 L 123.997 26.000 L 123.997 28.000 L 123.997 30.000 L 123.997 32.000 L 123.997 34.000 L 123.997 36.000 L 123.997 38.000 L 123.997 40.000 L 123.997 42.000 L 123.997 44.000 L 123.997 46.000 L 123.997 48.000 L 86.344 50.000 L 86.344 52.000 L 86.344 54.000 L 86.344 56.000 L 86.344 58.000 L 86.344 60.000 L 86.344 62.000 L 86.344 64.000 L 86.344 66.000 L 86.344 68.000 L 86.344 70.000 L 86.344 72.000 L 113.959 74.000 L 113.959 76.000 L 113.959 78.000 L 113.959 80.000 L 113.959 82.000 L 113.959 84.000 L 113.959 86.000 L 113.959 88.000 L 113.959 90.000 L 113.959 92.000 L 113.959 94.000 L 113.959 96.000 L 113.959 98.000 L 113.959 100.000 L 113.959 102.000 L 113.959 104.000 L 113.959 106.000 L 113.959 108.000 L 113.959 110.000 L 113.959 112.000 L 113.959 114.000 L 113.959 116.000 L 113.959 118.000 L 113.959 120.000 L 113.959 122.000 L 113.959 124.000 L 113.959 126.000 L 113.959 128.000 L 113.959 130.000 L 128.232 132.000 L 128.232 134.000 L 128.232 136.000 L 128.232 138.000 L 128.232 140.000 L 128.232 142.000 L 128.232 144.000 L 128.232 146.000 L 128.232 148.000 L 128.232 150.000 L 128.232 152.000 L 128.232 154.000 L 128.232 156.000 L 128.232 158.000 L 128.232 160.000 L 128.232 162.000 L 128.232 164.000 L 128.232 166.000 L 128.232 168.000 L 128.232 170.000 L 128.232 172.000 L 128.232 174.000 L 128.232 176.000 L 128.232 178.000 L 128.232 180.000 L 50.299 182.000 L 50.299 184.000 L 50.299 186.000 L 50.299 188.000 L 50.299 190.000 L 50.299 192.000 L 50.299 194.000 L 50.299 196.000 L 94.162 198.000 L 94.162 200.000 L 94.162 202.000 L 94.162 204.000 L 94.162 206.000 L 94.162 208.000 L 94.162 210.000 L 94.162 212.000 L 94.162 214.000 L 94.162 216.000 L 94.162 218.000 L 94.162 220.000 L 94.162 222.000 L 94.162 224.000 L 94.162 226.000 L 94.162 228.000 L 94.162 230.000 L 94.162 232.000 L 94.162 234.000 L 94.162 236.000 L 94.162 238.000 L 94.162 240.000 L 94.162 242.000 L 49.099 244.000 L 49.099 246.000 L 49.099 248.000 L 49.099 250.000 L 49.099 252.000 L 95.653 254.000 L 95.653 256.000 L 95.653 258.000 L 95.653 260.000 L 95.653 262.000 L 95.653 264.000 L 95.653 266.000 L 95.653 268.000 L 95.653 270.000 L 95.653 272.000 L 95.653 274.000 L 95.653 276.000 L 95.653 278.000 L 95.653 280.000 L 95.653 282.000 L 95.653 284.000 L 95.653 286.000 L 95.653 288.000 L 95.653 290.000 L 95.653 292.000 L 42.604 294.000 L 132.159 296.000 L 132.159 298.000 L 132.159 300.000 L 132.159 302.000 L 132.159 304.000 L 132.159 306.000 L 132.159 308.000 L 132.159 310.000 L 132.159 312.000 L 132.159 314.000 L 132.159 316.000 L 132.159 318.000 L 132.159 320.000 L 132.159 322.000 L 132.159 324.000 L 132.159 326.000 L 132.159 328.000 L 132.159 330.000 L 132.159 332.000 L 132.159 334.000 L 132.159 336.000 L 132.159 338.000 L 132.159 340.000 L 132.159 342.000 L 132.159 344.000 L 132.159 346.000 L 155.722 348.000 L 155.722 350.000 L 155.722 352.000 L 155.722 354.000 L 155.722 356.000 L 155.722 358.000 L 155.722 360.000 L 155.722 362.000 L 155.722 364.000 L 155.722 366.000 L 155.722 368.000 L 155.722 370.000 L 155.722 372.000 L 155.722 374.000 L 155.722 376.000 L 155.722 378.000 L 155.722 380.000 L 155.722 382.000 L 155.722 384.000 L 155.722 386.000 L 155.722 388.000 L 109.236 390.000 L 109.236 392.000 L 109.236 394.000 L 109.236 396.000 L 109.236 398.000 L 109.236 400.000 L 146.609 402.000 L 146.609 404.000 L 146.609 406.000 L 146.609 408.000 L 146.609 410.000 L 146.609 412.000 L 146.609 414.000 L 146.609 416.000 L 146.609 418.000 L 146.609 420.000 L 146.609 422.000 L 146.609 424.000 L 146.609 426.000 L 146.609 428.000 L 146.609 430.000 L 175.969 432.000 L 175.969 434.000 L 175.969 436.000 L 175.969 438.000 L 175.969 440.000 L 175.969 442.000 L 175.969 444.000 L 175.969 446.000 L 175.969 448.000 L 175.969 450.000 L 175.969 452.000 L 175.969 454.000 L 175.969 456.000 L 175.969 458.000 L 175.969 460.000 L 175.969 462.000 L 175.969 464.000 L 175.969 466.000 L 175.969 468.000 L 175.969 470.000 L 175.969 472.000 L 175.969 474.000 L 175.969 476.000" fill="none" stroke="#ff9800" stroke-width="1" stroke-dasharray="6,4"/><text x="127.997" y="16.000" fill="#ff9800" font-size="12">base_right_edge</text><path d="M 0.000 0.000 L 2.000 0.000 L 4.000 0.000 L 6.000 0.000 L 8.000 0.000 L 10.000 465.118 L 12.000 465.118 L 14.000 465.118 L 16.000 465.118 L 18.000 465.118 L 20.000 465.118 L 22.000 465.118 L 24.000 465.118 L 26.000 465.118 L 28.000 465.118 L 30.000 465.118 L 32.000 465.118 L 34.000 465.118 L 36.000 465.118 L 38.000 465.118 L 40.000 465.118 L 42.000 452.132 L 44.000 452.132 L 46.000 452.132 L 48.000 452.132 L 50.000 452.132 L 52.000 452.132 L 54.000 452.132 L 56.000 452.132 L 58.000 452.132 L 60.000 452.132 L 62.000 452.132 L 64.000 452.132 L 66.000 452.132 L 68.000 452.132 L 70.000 452.132 L 72.000 452.132 L 74.000 452.132 L 76.000 452.132 L 78.000 452.132 L 80.000 452.132 L 82.000 471.205 L 84.000 471.205 L 86.000 471.205 L 88.000 471.205 L 90.000 471.205 L 92.000 471.205 L 94.000 471.205 L 96.000 471.205 L 98.000 471.205 L 100.000 471.205 L 102.000 471.205 L 104.000 471.205 L 106.000 471.205 L 108.000 471.205 L 110.000 471.205 L 112.000 471.205 L 114.000 471.205 L 116.000 471.205 L 118.000 471.205 L 120.000 471.205 L 122.000 471.205 L 124.000 471.205 L 126.000 471.205 L 128.000 471.205 L 130.000 471.205 L 132.000 471.205 L 134.000 477.381 L 136.000 477.381 L 138.000 477.381 L 140.000 477.381 L 142.000 477.381 L 144.000 477.381 L 146.000 477.381 L 148.000 477.381 L 150.000 477.381 L 152.000 477.381 L 154.000 477.381 L 156.000 477.381 L 158.000 477.381 L 160.000 477.381 L 162.000 477.381 L 164.000 477.381 L 166.000 477.381 L 168.000 477.381 L 170.000 477.381 L 172.000 477.381 L 174.000 477.381 L 176.000 477.381 L 178.000 477.381 L 180.000 477.381 L 182.000 477.381 L 184.000 477.381 L 186.000 477.381 L 188.000 477.381 L 190.000 477.381 L 192.000 477.381 L 194.000 477.381 L 196.000 477.381 L 198.000 477.381 L 200.000 477.381 L 202.000 477.381 L 204.000 477.381 L 206.000 477.381 L 208.000 477.381 L 210.000 477.381 L 212.000 477.381 L 214.000 477.381 L 216.000 477.381 L 218.000 477.381 L 220.000 477.381 L 222.000 477.381 L 224.000 477.381 L 226.000 477.381 L 228.000 477.381 L 230.000 477.381 L 232.000 477.381 L 234.000 477.381 L 236.000 477.381 L 238.000 477.381 L 240.000 477.381 L 242.000 477.381 L 244.000 477.381 L 246.000 477.381 L 248.000 477.381 L 250.000 477.381 L 252.000 477.381 L 254.000 477.381 L 256.000 477.381 L 258.000 477.381 L 260.000 477.381 L 262.000 477.381 L 264.000 477.381 L 266.000 477.381 L 268.000 477.381 L 270.000 477.381 L 272.000 477.381 L 274.000 477.381 L 276.000 477.381 L 278.000 477.381 L 280.000 477.381 L 282.000 477.381 L 284.000 477.381 L 286.000 477.381 L 288.000 477.381 L 290.000 477.381 L 292.000 477.381 L 294.000 477.381 L 296.000 477.381 L 298.000 477.381 L 300.000 477.381 L 302.000 477.381 L 304.000 477.381 L 306.000 477.381 L 308.000 477.381 L 310.000 477.381 L 312.000 477.381 L 314.000 477.381 L 316.000 477.381 L 318.000 477.381 L 320.000 477.381 L 322.000 477.381 L 324.000 477.381 L 326.000 477.381 L 328.000 477.381 L 330.000 477.381 L 332.000 477.381 L 334.000 477.381 L 336.000 477.381 L 338.000 477.381 L 340.000 477.381 L 342.000 477.381 L 344.000 477.381 L 346.000 477.381 L 348.000 477.381 L 350.000 477.381 L 352.000 477.381 L 354.000 477.381 L 356.000 477.381 L 358.000 477.381 L 360.000 477.381 L 362.000 477.381 L 364.000 477.381 L 366.000 477.381 L 368.000 477.381 L 370.000 477.381 L 372.000 477.381 L 374.000 477.381 L 376.000 477.381 L 378.000 477.381 L 380.000 477.381 L 382.000 477.381 L 384.000 477.381 L 386.000 477.381 L 388.000 477.381 L 390.000 477.381 L 392.000 477.381 L 394.000 477.381 L 396.000 477.381 L 398.000 477.381 L 400.000 477.381 L 402.000 477.381 L 404.000 477.381 L 406.000 477.381 L 408.000 477.381 L 410.000 477.381 L 412.000 477.381 L 414.000 477.381 L 416.000 477.381 L 418.000 477.381 L 420.000 477.381 L 422.000 477.381 L 424.000 477.381 L 426.000 477.381 L 428.000 477.381 L 430.000 477.381 L 432.000 477.381 L 434.000 477.381 L 436.000 477.381 L 438.000 477.381 L 440.000 477.381 L 442.000 477.381 L 444.000 477.381 L 446.000 477.381 L 448.000 477.381 L 450.000 477.381 L 452.000 477.381 L 454.000 477.381 L 456.000 477.381 L 458.000 477.381 L 460.000 477.381 L 462.000 477.381 L 464.000 477.381 L 466.000 477.381 L 468.000 477.381 L 470.000 477.381 L 472.000 477.381 L 474.000 477.381 L 476.000 477.381 L 478.000 477.381 L 480.000 477.381 L 482.000 477.381 L 484.000 477.381 L 486.000 477.381 L 488.000 477.381 L 490.000 477.381 L 492.000 477.381 L 494.000 477.381 L 496.000 477.381 L 498.000 477.381 L 500.000 477.381 L 502.000 477.381 L 504.000 477.381 L 506.000 477.381 L 508.000 477.381 L 510.000 477.381 L 512.000 477.381 L 514.000 477.381 L 516.000 477.381 L 518.000 477.381 L 520.000 477.381 L 522.000 477.381 L 524.000 477.381 L 526.000 477.381 L 528.000 477.381 L 530.000 477.381 L 532.000 477.381 L 534.000 477.381 L 536.000 477.381 L 538.000 477.381 L 540.000 477.381 L 542.000 477.381 L 544.000 477.381 L 546.000 477.381 L 548.000 477.381 L 550.000 477.381 L 552.000 477.381 L 554.000 477.381 L 556.000 477.381 L 558.000 477.381 L 560.000 477.381 L 562.000 477.381 L 564.000 477.381 L 566.000 477.381 L 568.000 477.381 L 570.000 477.381 L 572.000 477.381 L 574.000 477.381 L 576.000 477.381 L 578.000 477.381 L 580.000 477.381 L 582.000 477.381 L 584.000 477.381 L 586.000 477.381 L 588.000 477.381 L 590.000 477.381 L 592.000 477.381 L 594.000 477.381 L 596.000 477.381 L 598.000 477.381 L 600.000 477.381 L 602.000 477.381 L 604.000 477.381 L 606.000 477.381 L 608.000 477.381 L 610.000 477.381 L 612.000 477.381 L 614.000 477.381 L 616.000 477.381 L 618.000 477.381 L 620.000 477.381 L 622.000 477.381 L 624.000 477.381 L 626.000 477.381 L 628.000 477.381 L 630.000 477.381 L 632.000 477.381 L 634.000 477.381 L 636.000 477.381 L 638.000 477.381 L 640.000 477.381 L 642.000 477.381 L 644.000 477.381 L 646.000 477.381 L 648.000 477.381 L 650.000 477.381 L 652.000 477.381 L 654.000 477.381 L 656.000 477.381 L 658.000 477.381 L 660.000 477.381 L 662.000 477.381 L 664.000 477.381 L 666.000 477.381 L 668.000 477.381 L 670.000 477.381 L 672.000 477.381 L 674.000 477.381 L 676.000 477.381 L 678.000 477.381 L 680.000 477.381 L 682.000 477.381 L 684.000 477.381 L 686.000 477.381 L 688.000 477.381 L 690.000 477.381 L 692.000 477.381 L 694.000 477.381 L 696.000 477.381 L 698.000 477.381 L 700.000 477.381 L 702.000 477.381 L 704.000 477.381 L 706.000 477.381 L 708.000 477.381 L 710.000 477.381 L 712.000 477.381 L 714.000 477.381 L 716.000 477.381 L 718.000 477.381 L 720.000 477.381 L 722.000 477.381 L 724.000 477.381 L 726.000 477.381 L 728.000 477.381 L 730.000 477.381 L 732.000 477.381 L 734.000 477.381 L 736.000 477.381" fill="none" stroke="#ff9800" stroke-width="1" stroke-dasharray="6,4"/><text x="4.000" y="14.000" fill="#ff9800" font-size="12">base_bottom_edge</text></g></svg>