<svg xmlns="http://www.w3.org/2000/svg" width="737" height="539" viewBox="0 0 737 539"><rect x="0" y="0" width="100%" height="100%" fill="none" stroke="#ffffff" stroke-width="1"/><g id="bboxes"><rect x="8.913" y="4.835" width="95.000" height="80.000" fill="none" stroke="#00ff7f" stroke-width="1"/><text x="10.913" y="16.835" fill="#00ff7f" font-size="10">0</text><rect x="110.115" y="232.917" width="80.000" height="60.000" fill="none" stroke="#00ff7f" stroke-width="1"/><text x="112.115" y="244.917" fill="#00ff7f" font-size="10">1</text><rect x="8.732" y="159.916" width="69.000" height="95.000" fill="none" stroke="#00ff7f" stroke-width="1"/><text x="10.732" y="171.916" fill="#00ff7f" font-size="10">2</text><rect x="8.866" y="253.582" width="102.000" height="56.000" fill="none" stroke="#00ff7f" stroke-width="1"/><text x="10.866" y="265.582" fill="#00ff7f" font-size="10">3</text><rect x="103.537" y="4.579" width="81.000" height="64.000" fill="none" stroke="#00ff7f" stroke-width="1"/><text x="105.537" y="16.579" fill="#00ff7f" font-size="10">4</text><rect x="8.378" y="396.726" width="90.000" height="57.000" fill="none" stroke="#00ff7f" stroke-width="1"/><text x="10.378" y="408.726" fill="#00ff7f" font-size="10">5</text><rect x="77.510" y="159.336" width="74.000" height="73.000" fill="none" stroke="#00ff7f" stroke-width="1"/><text x="79.510" y="171.336" fill="#00ff7f" font-size="10">6</text><rect x="189.736" y="206.694" width="72.000" height="57.000" fill="none" stroke="#00ff7f" stroke-width="1"/><text x="191.736" y="218.694" fill="#00ff7f" font-size="10">7</text><rect x="179.003" y="68.852" width="75.000" height="62.000" fill="none" stroke="#00ff7f" stroke-width="1"/><text x="181.003" y="80.852" fill="#00ff7f" font-size="10">8</text><rect x="308.525" y="179.924" width="60.000" height="63.000" fill="none" stroke="#00ff7f" stroke-width="1"/><text x="310.525" y="191.924" fill="#00ff7f" font-size="10">9</text><rect x="8.868" y="309.751" width="59.000" height="87.000" fill="none" stroke="#00ff7f" stroke-width="1"/><text x="10.868" y="321.751" fill="#00ff7f" font-size="10">10</text><rect x="162.022" y="353.371" width="46.000" height="90.000" fill="none" stroke="#00ff7f" stroke-width="1"/><text x="164.022" y="365.371" fill="#00ff7f" font-size="10">11</text><rect x="278.181" y="261.398" width="62.000" height="61.000" fill="none" stroke="#00ff7f" stroke-width="1"/><text x="280.181" y="273.398" fill="#00ff7f" font-size="10">12</text><rect x="67.497" y="309.418" width="91.000" height="54.000" fill="none" stroke="#00ff7f" stroke-width="1"/><text x="69.497" y="321.418" fill="#00ff7f" font-size="10">13</text><rect x="269.944" y="4.446" width="45.000" height="91.000" fill="none" stroke="#00ff7f" stroke-width="1"/><text x="271.944" y="16.446" fill="#00ff7f" font-size="10">14</text><rect x="373.996" y="4.006" width="58.000" height="67.000" fill="none" stroke="#00ff7f" stroke-width="1"/><text x="375.996" y="16.006" fill="#00ff7f" font-size="10">15</text><rect x="388.049" y="71.029" width="67.000" height="55.000" fill="none" stroke="#00ff7f" stroke-width="1"/><text x="390.049" y="83.029" fill="#00ff7f" font-size="10">16</text><rect x="401.099" y="221.994" width="49.000" height="73.000" fill="none" stroke="#00ff7f" stroke-width="1"/><text x="403.099" y="233.994" fill="#00ff7f" font-size="10">17</text><rect x="184.724" y="4.666" width="85.000" height="52.000" fill="none" stroke="#00ff7f" stroke-width="1"/><text x="186.724" y="16.666" fill="#00ff7f" font-size="10">18</text><rect x="236.821" y="130.068" width="82.000" height="50.000" fill="none" stroke="#00ff7f" stroke-width="1"/><text x="238.821" y="142.068" fill="#00ff7f" font-size="10">19</text><rect x="98.920" y="363.332" width="64.000" height="72.000" fill="none" stroke="#00ff7f" stroke-width="1"/><text x="100.920" y="375.332" fill="#00ff7f" font-size="10">20</text><rect x="499.692" y="183.449" width="54.000" height="61.000" fill="none" stroke="#00ff7f" stroke-width="1"/><text x="501.692" y="195.449" fill="#00ff7f" font-size="10">21</text><rect x="512.928" y="60.497" width="75.000" height="44.000" fill="none" stroke="#00ff7f" stroke-width="1"/><text x="514.928" y="72.497" fill="#00ff7f" font-size="10">22</text><rect x="314.147" y="4.352" width="60.000" height="68.000" fill="none" stroke="#00ff7f" stroke-width="1"/><text x="316.147" y="16.352" fill="#00ff7f" font-size="10">23</text><rect x="151.131" y="150.352" width="85.000" height="56.000" fill="none" stroke="#00ff7f" stroke-width="1"/><text x="153.131" y="162.352" fill="#00ff7f" font-size="10">24</text><rect x="314.650" y="72.106" width="75.000" height="54.000" fill="none" stroke="#00ff7f" stroke-width="1"/><text x="316.650" y="84.106" fill="#00ff7f" font-size="10">25</text><rect x="319.266" y="322.523" width="54.000" height="69.000" fill="none" stroke="#00ff7f" stroke-width="1"/><text x="321.266" y="334.523" fill="#00ff7f" font-size="10">26</text><rect x="253.179" y="336.184" width="67.000" height="57.000" fill="none" stroke="#00ff7f" stroke-width="1"/><text x="255.179" y="348.184" fill="#00ff7f" font-size="10">27</text><rect x="587.578" y="43.231" width="73.000" height="44.000" fill="none" stroke="#00ff7f" stroke-width="1"/><text x="589.578" y="55.231" fill="#00ff7f" font-size="10">28</text><rect x="460.265" y="321.547" width="71.000" height="47.000" fill="none" stroke="#00ff7f" stroke-width="1"/><text x="462.265" y="333.547" fill="#00ff7f" font-size="10">29</text><rect x="531.324" y="301.133" width="52.000" height="61.000" fill="none" stroke="#00ff7f" stroke-width="1"/><text x="533.324" y="313.133" fill="#00ff7f" font-size="10">30</text><rect x="574.919" y="361.090" width="48.000" height="61.000" fill="none" stroke="#00ff7f" stroke-width="1"/><text x="576.919" y="373.090" fill="#00ff7f" font-size="10">31</text><rect x="451.628" y="183.631" width="49.000" height="69.000" fill="none" stroke="#00ff7f" stroke-width="1"/><text x="453.628" y="195.631" fill="#00ff7f" font-size="10">32</text><rect x="616.731" y="222.946" width="63.000" height="49.000" fill="none" stroke="#00ff7f" stroke-width="1"/><text x="618.731" y="234.946" fill="#00ff7f" font-size="10">33</text><rect x="374.534" y="303.703" width="45.000" height="81.000" fill="none" stroke="#00ff7f" stroke-width="1"/><text x="376.534" y="315.703" fill="#00ff7f" font-size="10">34</text><rect x="455.668" y="65.774" width="57.000" height="60.000" fill="none" stroke="#00ff7f" stroke-width="1"/><text x="457.668" y="77.774" fill="#00ff7f" font-size="10">35</text><rect x="607.500" y="422.294" width="52.000" height="56.000" fill="none" stroke="#00ff7f" stroke-width="1"/><text x="609.500" y="434.294" fill="#00ff7f" font-size="10">36</text><rect x="100.648" y="84.831" width="80.000" height="66.000" fill="none" stroke="#00ff7f" stroke-width="1"/><text x="102.648" y="96.831" fill="#00ff7f" font-size="10">37</text><rect x="226.234" y="263.625" width="53.000" height="73.000" fill="none" stroke="#00ff7f" stroke-width="1"/><text x="228.234" y="275.625" fill="#00ff7f" font-size="10">38</text><rect x="261.757" y="180.623" width="47.000" height="82.000" fill="none" stroke="#00ff7f" stroke-width="1"/><text x="263.757" y="192.623" fill="#00ff7f" font-size="10">39</text><rect x="666.838" y="118.600" width="53.000" height="54.000" fill="none" stroke="#00ff7f" stroke-width="1"/><text x="668.838" y="130.600" fill="#00ff7f" font-size="10">40</text><rect x="458.286" y="375.231" width="40.000" height="85.000" fill="none" stroke="#00ff7f" stroke-width="1"/><text x="460.286" y="387.231" fill="#00ff7f" font-size="10">41</text><rect x="583.670" y="127.615" width="68.000" height="47.000" fill="none" stroke="#00ff7f" stroke-width="1"/><text x="585.670" y="139.615" fill="#00ff7f" font-size="10">42</text><rect x="460.335" y="253.791" width="49.000" height="69.000" fill="none" stroke="#00ff7f" stroke-width="1"/><text x="462.335" y="265.791" fill="#00ff7f" font-size="10">43</text><rect x="365.367" y="391.791" width="47.000" height="78.000" fill="none" stroke="#00ff7f" stroke-width="1"/><text x="367.367" y="403.791" fill="#00ff7f" font-size="10">44</text><rect x="567.588" y="223.617" width="48.000" height="65.000" fill="none" stroke="#00ff7f" stroke-width="1"/><text x="569.588" y="235.617" fill="#00ff7f" font-size="10">45</text><rect x="341.026" y="242.525" width="61.000" height="61.000" fill="none" stroke="#00ff7f" stroke-width="1"/><text x="343.026" y="254.525" fill="#00ff7f" font-size="10">46</text><rect x="553.597" y="174.333" width="63.000" height="50.000" fill="none" stroke="#00ff7f" stroke-width="1"/><text x="555.597" y="186.333" fill="#00ff7f" font-size="10">47</text><rect x="157.875" y="292.606" width="68.000" height="62.000" fill="none" stroke="#00ff7f" stroke-width="1"/><text x="159.875" y="304.606" fill="#00ff7f" font-size="10">48</text><rect x="318.597" y="392.250" width="47.000" height="80.000" fill="none" stroke="#00ff7f" stroke-width="1"/><text x="320.597" y="404.250" fill="#00ff7f" font-size="10">49</text><rect x="616.072" y="174.034" width="65.000" height="48.000" fill="none" stroke="#00ff7f" stroke-width="1"/><text x="618.072" y="186.034" fill="#00ff7f" font-size="10">50</text><rect x="412.799" y="384.298" width="45.000" height="77.000" fill="none" stroke="#00ff7f" stroke-width="1"/><text x="414.799" y="396.298" fill="#00ff7f" font-size="10">51</text><rect x="587.647" y="87.714" width="80.000" height="40.000" fill="none" stroke="#00ff7f" stroke-width="1"/><text x="589.647" y="99.714" fill="#00ff7f" font-size="10">52</text><rect x="432.779" y="4.152" width="60.000" height="61.000" fill="none" stroke="#00ff7f" stroke-width="1"/><text x="434.779" y="16.152" fill="#00ff7f" font-size="10">53</text><rect x="665.030" y="295.754" width="44.000" height="65.000" fill="none" stroke="#00ff7f" stroke-width="1"/><text x="667.030" y="307.754" fill="#00ff7f" font-size="10">54</text><rect x="491.680" y="4.890" width="59.000" height="56.000" fill="none" stroke="#00ff7f" stroke-width="1"/><text x="493.680" y="16.890" fill="#00ff7f" font-size="10">55</text><rect x="622.051" y="327.872" width="43.000" height="68.000" fill="none" stroke="#00ff7f" stroke-width="1"/><text x="624.051" y="339.872" fill="#00ff7f" font-size="10">56</text><rect x="468.907" y="125.041" width="57.000" height="59.000" fill="none" stroke="#00ff7f" stroke-width="1"/><text x="470.907" y="137.041" fill="#00ff7f" font-size="10">57</text><rect x="98.413" y="443.688" width="91.000" height="38.000" fill="none" stroke="#00ff7f" stroke-width="1"/><text x="100.413" y="455.688" fill="#00ff7f" font-size="10">58</text><rect x="208.238" y="353.005" width="45.000" height="88.000" fill="none" stroke="#00ff7f" stroke-width="1"/><text x="210.238" y="365.005" fill="#00ff7f" font-size="10">59</text><rect x="680.611" y="420.972" width="49.000" height="65.000" fill="none" stroke="#00ff7f" stroke-width="1"/><text x="682.611" y="432.972" fill="#00ff7f" font-size="10">60</text><rect x="509.526" y="244.636" width="58.000" height="56.000" fill="none" stroke="#00ff7f" stroke-width="1"/><text x="511.526" y="256.636" fill="#00ff7f" font-size="10">61</text><rect x="419.297" y="293.691" width="42.000" height="82.000" fill="none" stroke="#00ff7f" stroke-width="1"/><text x="421.297" y="305.691" fill="#00ff7f" font-size="10">62</text><rect x="664.958" y="362.874" width="47.000" height="60.000" fill="none" stroke="#00ff7f" stroke-width="1"/><text x="666.958" y="374.874" fill="#00ff7f" font-size="10">63</text><rect x="4.418" y="481.358" width="68.000" height="42.000" fill="none" stroke="#00ff7f" stroke-width="1"/><text x="6.418" y="493.358" fill="#00ff7f" font-size="10">64</text><rect x="678.937" y="172.034" width="51.000" height="65.000" fill="none" stroke="#00ff7f" stroke-width="1"/><text x="680.937" y="184.034" fill="#00ff7f" font-size="10">65</text><rect x="587.137" y="4.228" width="84.000" height="39.000" fill="none" stroke="#00ff7f" stroke-width="1"/><text x="589.137" y="16.228" fill="#00ff7f" font-size="10">66</text><rect x="318.200" y="126.379" width="51.000" height="49.000" fill="none" stroke="#00ff7f" stroke-width="1"/><text x="320.200" y="138.379" fill="#00ff7f" font-size="10">67</text><rect x="680.486" y="485.442" width="53.000" height="52.000" fill="none" stroke="#00ff7f" stroke-width="1"/><text x="682.486" y="497.442" fill="#00ff7f" font-size="10">68</text><rect x="407.226" y="126.592" width="61.000" height="58.000" fill="none" stroke="#00ff7f" stroke-width="1"/><text x="409.226" y="138.592" fill="#00ff7f" font-size="10">69</text><rect x="525.214" y="104.707" width="58.000" height="56.000" fill="none" stroke="#00ff7f" stroke-width="1"/><text x="527.214" y="116.707" fill="#00ff7f" font-size="10">70</text><rect x="497.795" y="368.312" width="38.000" height="84.000" fill="none" stroke="#00ff7f" stroke-width="1"/><text x="499.795" y="380.312" fill="#00ff7f" font-size="10">71</text><rect x="253.281" y="392.277" width="66.000" height="57.000" fill="none" stroke="#00ff7f" stroke-width="1"/><text x="255.281" y="404.277" fill="#00ff7f" font-size="10">72</text><rect x="369.514" y="126.305" width="39.000" height="95.000" fill="none" stroke="#00ff7f" stroke-width="1"/><text x="371.514" y="138.305" fill="#00ff7f" font-size="10">73</text><rect x="535.486" y="361.844" width="39.000" height="78.000" fill="none" stroke="#00ff7f" stroke-width="1"/><text x="537.486" y="373.844" fill="#00ff7f" font-size="10">74</text><rect x="142.132" y="481.229" width="50.000" height="49.000" fill="none" stroke="#00ff7f" stroke-width="1"/><text x="144.132" y="493.229" fill="#00ff7f" font-size="10">75</text><rect x="679.200" y="237.777" width="51.000" height="60.000" fill="none" stroke="#00ff7f" stroke-width="1"/><text x="681.200" y="249.777" fill="#00ff7f" font-size="10">76</text><rect x="72.755" y="481.100" width="70.000" height="39.000" fill="none" stroke="#00ff7f" stroke-width="1"/><text x="74.755" y="493.100" fill="#00ff7f" font-size="10">77</text><rect x="660.208" y="0.338" width="57.000" height="52.000" fill="none" stroke="#00ff7f" stroke-width="1"/><text x="662.208" y="12.338" fill="#00ff7f" font-size="10">78</text><rect x="8.743" y="84.100" width="92.000" height="75.000" fill="none" stroke="#00ff7f" stroke-width="1"/><text x="10.743" y="96.100" fill="#00ff7f" font-size="10">79</text><rect x="189.227" y="443.929" width="61.000" height="38.000" fill="none" stroke="#00ff7f" stroke-width="1"/><text x="191.227" y="455.929" fill="#00ff7f" font-size="10">80</text><rect x="192.044" y="481.511" width="51.000" height="47.000" fill="none" stroke="#00ff7f" stroke-width="1"/><text x="194.044" y="493.511" fill="#00ff7f" font-size="10">81</text><rect x="535.826" y="439.645" width="72.000" height="41.000" fill="none" stroke="#00ff7f" stroke-width="1"/><text x="537.826" y="451.645" fill="#00ff7f" font-size="10">82</text><rect x="536.036" y="481.517" width="64.000" height="34.000" fill="none" stroke="#00ff7f" stroke-width="1"/><text x="538.036" y="493.517" fill="#00ff7f" font-size="10">83</text><rect x="667.317" y="52.710" width="45.000" height="66.000" fill="none" stroke="#00ff7f" stroke-width="1"/><text x="669.317" y="64.710" fill="#00ff7f" font-size="10">84</text><rect x="456.418" y="481.368" width="40.000" height="56.000" fill="none" stroke="#00ff7f" stroke-width="1"/><text x="458.418" y="493.368" fill="#00ff7f" font-size="10">85</text><rect x="244.000" y="481.354" width="45.000" height="53.000" fill="none" stroke="#00ff7f" stroke-width="1"/><text x="246.000" y="493.354" fill="#00ff7f" font-size="10">86</text><rect x="583.559" y="288.829" width="79.000" height="39.000" fill="none" stroke="#00ff7f" stroke-width="1"/><text x="585.559" y="300.829" fill="#00ff7f" font-size="10">87</text><rect x="550.803" y="4.369" width="35.000" height="56.000" fill="none" stroke="#00ff7f" stroke-width="1"/><text x="552.803" y="16.369" fill="#00ff7f" font-size="10">88</text><rect x="414.744" y="481.669" width="42.000" height="54.000" fill="none" stroke="#00ff7f" stroke-width="1"/><text x="416.744" y="493.669" fill="#00ff7f" font-size="10">89</text><rect x="345.562" y="481.655" width="71.000" height="32.000" fill="none" stroke="#00ff7f" stroke-width="1"/><text x="347.562" y="493.655" fill="#00ff7f" font-size="10">90</text><rect x="286.192" y="481.492" width="57.000" height="40.000" fill="none" stroke="#00ff7f" stroke-width="1"/><text x="288.192" y="493.492" fill="#00ff7f" font-size="10">91</text><rect x="600.402" y="481.571" width="46.000" height="47.000" fill="none" stroke="#00ff7f" stroke-width="1"/><text x="602.402" y="493.571" fill="#00ff7f" font-size="10">92</text><rect x="496.645" y="481.883" width="40.000" height="56.000" fill="none" stroke="#00ff7f" stroke-width="1"/><text x="498.645" y="493.883" fill="#00ff7f" font-size="10">93</text><rect x="250.013" y="449.261" width="66.000" height="31.000" fill="none" stroke="#00ff7f" stroke-width="1"/><text x="252.013" y="461.261" fill="#00ff7f" font-size="10">94</text><rect x="254.137" y="95.523" width="53.000" height="32.000" fill="none" stroke="#00ff7f" stroke-width="1"/><text x="256.137" y="107.523" fill="#00ff7f" font-size="10">95</text><rect x="733.486" y="0" width="3.514" height="539.000" fill="none" stroke="#ff5252" stroke-width="1" stroke-dasharray="6,4"/><text x="739.486" y="16" fill="#ff5252" font-size="12">right_gap</text><rect x="0" y="537.883" width="733.486" height="1.117" fill="none" stroke="#ff5252" stroke-width="1" stroke-dasharray="6,4"/><text x="6" y="553.883" fill="#ff5252" font-size="12">bottom_gap</text><text x="6" y="14" fill="#ffffff" font-size="12">visible=96</text><path d="M 671.137 6.000 L 671.137 8.000 L 671.137 10.000 L 671.137 12.000 L 671.137 14.000 L 671.137 16.000 L 671.137 18.000 L 671.137 20.000 L 671.137 22.000 L 671.137 24.000 L 671.137 26.000 L 671.137 28.000 L 671.137 30.000 L 671.137 32.000 L 671.137 34.000 L 671.137 36.000 L 671.137 38.000 L 671.137 40.000 L 671.137 42.000 L 660.578 44.000 L 660.578 46.000 L 660.578 48.000 L 660.578 50.000 L 660.578 52.000 L 660.578 54.000 L 660.578 56.000 L 660.578 58.000 L 660.578 60.000 L 660.578 62.000 L 660.578 64.000 L 660.578 66.000 L 660.578 68.000 L 660.578 70.000 L 660.578 72.000 L 660.578 74.000 L 660.578 76.000 L 660.578 78.000 L 660.578 80.000 L 660.578 82.000 L 660.578 84.000 L 660.578 86.000 L 667.647 88.000 L 667.647 90.000 L 667.647 92.000 L 667.647 94.000 L 667.647 96.000 L 667.647 98.000 L 667.647 100.000 L 667.647 102.000 L 667.647 104.000 L 667.647 106.000 L 667.647 108.000 L 667.647 110.000 L 667.647 112.000 L 667.647 114.000 L 667.647 116.000 L 667.647 118.000 L 667.647 120.000 L 667.647 122.000 L 667.647 124.000 L 667.647 126.000 L 651.670 128.000 L 651.670 130.000 L 651.670 132.000 L 651.670 134.000 L 651.670 136.000 L 651.670 138.000 L 651.670 140.000 L 651.670 142.000 L 651.670 144.000 L 651.670 146.000 L 651.670 148.000 L 651.670 150.000 L 651.670 152.000 L 651.670 154.000 L 651.670 156.000 L 651.670 158.000 L 651.670 160.000 L 651.670 162.000 L 651.670 164.000 L 651.670 166.000 L 651.670 168.000 L 651.670 170.000 L 651.670 172.000 L 651.670 174.000 L 681.072 176.000 L 681.072 178.000 L 681.072 180.000 L 681.072 182.000 L 681.072 184.000 L 681.072 186.000 L 681.072 188.000 L 681.072 190.000 L 681.072 192.000 L 681.072 194.000 L 681.072 196.000 L 681.072 198.000 L 681.072 200.000 L 681.072 202.000 L 681.072 204.000 L 681.072 206.000 L 681.072 208.000 L 681.072 210.000 L 681.072 212.000 L 681.072 214.000 L 681.072 216.000 L 681.072 218.000 L 681.072 220.000 L 681.072 222.000 L 679.731 224.000 L 679.731 226.000 L 679.731 228.000 L 679.731 230.000 L 679.731 232.000 L 679.731 234.000 L 679.731 236.000 L 679.731 238.000 L 679.731 240.000 L 679.731 242.000 L 679.731 244.000 L 679.731 246.000 L 679.731 248.000 L 679.731 250.000 L 679.731 252.000 L 679.731 254.000 L 679.731 256.000 L 679.731 258.000 L 679.731 260.000 L 679.731 262.000 L 679.731 264.000 L 679.731 266.000 L 679.731 268.000 L 679.731 270.000 L 615.588 272.000 L 615.588 274.000 L 615.588 276.000 L 615.588 278.000 L 615.588 280.000 L 615.588 282.000 L 615.588 284.000 L 615.588 286.000 L 615.588 288.000 L 662.559 290.000 L 662.559 292.000 L 662.559 294.000 L 662.559 296.000 L 662.559 298.000 L 662.559 300.000 L 662.559 302.000 L 662.559 304.000 L 662.559 306.000 L 662.559 308.000 L 662.559 310.000 L 662.559 312.000 L 662.559 314.000 L 662.559 316.000 L 662.559 318.000 L 662.559 320.000 L 662.559 322.000 L 662.559 324.000 L 662.559 326.000 L 665.051 328.000 L 665.051 330.000 L 665.051 332.000 L 665.051 334.000 L 665.051 336.000 L 665.051 338.000 L 665.051 340.000 L 665.051 342.000 L 665.051 344.000 L 665.051 346.000 L 665.051 348.000 L 665.051 350.000 L 665.051 352.000 L 665.051 354.000 L 665.051 356.000 L 665.051 358.000 L 665.051 360.000 L 665.051 362.000 L 665.051 364.000 L 665.051 366.000 L 665.051 368.000 L 665.051 370.000 L 665.051 372.000 L 665.051 374.000 L 665.051 376.000 L 665.051 378.000 L 665.051 380.000 L 665.051 382.000 L 665.051 384.000 L 665.051 386.000 L 665.051 388.000 L 665.051 390.000 L 665.051 392.000 L 665.051 394.000 L 622.919 396.000 L 622.919 398.000 L 622.919 400.000 L 622.919 402.000 L 622.919 404.000 L 622.919 406.000 L 622.919 408.000 L 622.919 410.000 L 622.919 412.000 L 622.919 414.000 L 622.919 416.000 L 622.919 418.000 L 622.919 420.000 L 622.919 422.000 L 659.500 424.000 L 659.500 426.000 L 659.500 428.000 L 659.500 430.000 L 659.500 432.000 L 659.500 434.000 L 659.500 436.000 L 659.500 438.000 L 659.500 440.000 L 659.500 442.000 L 659.500 444.000 L 659.500 446.000 L 659.500 448.000 L 659.500 450.000 L 659.500 452.000 L 659.500 454.000 L 659.500 456.000 L 659.500 458.000 L 659.500 460.000 L 659.500 462.000 L 659.500 464.000 L 659.500 466.000 L 659.500 468.000 L 659.500 470.000 L 659.500 472.000 L 659.500 474.000 L 659.500 476.000 L 659.500 478.000 L 607.826 480.000" fill="none" stroke="#ff9800" stroke-width="1" stroke-dasharray="6,4"/><text x="675.137" y="16.000" fill="#ff9800" font-size="12">base_right_edge</text><path d="M 0.000 0.000 L 2.000 0.000 L 4.000 0.000 L 6.000 0.000 L 8.000 0.000 L 10.000 453.726 L 12.000 453.726 L 14.000 453.726 L 16.000 453.726 L 18.000 453.726 L 20.000 453.726 L 22.000 453.726 L 24.000 453.726 L 26.000 453.726 L 28.000 453.726 L 30.000 453.726 L 32.000 453.726 L 34.000 453.726 L 36.000 453.726 L 38.000 453.726 L 40.000 453.726 L 42.000 453.726 L 44.000 453.726 L 46.000 453.726 L 48.000 453.726 L 50.000 453.726 L 52.000 453.726 L 54.000 453.726 L 56.000 453.726 L 58.000 453.726 L 60.000 453.726 L 62.000 453.726 L 64.000 453.726 L 66.000 453.726 L 68.000 453.726 L 70.000 453.726 L 72.000 453.726 L 74.000 453.726 L 76.000 453.726 L 78.000 453.726 L 80.000 453.726 L 82.000 453.726 L 84.000 453.726 L 86.000 453.726 L 88.000 453.726 L 90.000 453.726 L 92.000 453.726 L 94.000 453.726 L 96.000 453.726 L 98.000 453.726 L 100.000 481.688 L 102.000 481.688 L 104.000 481.688 L 106.000 481.688 L 108.000 481.688 L 110.000 481.688 L 112.000 481.688 L 114.000 481.688 L 116.000 481.688 L 118.000 481.688 L 120.000 481.688 L 122.000 481.688 L 124.000 481.688 L 126.000 481.688 L 128.000 481.688 L 130.000 481.688 L 132.000 481.688 L 134.000 481.688 L 136.000 481.688 L 138.000 481.688 L 140.000 481.688 L 142.000 481.688 L 144.000 481.688 L 146.000 481.688 L 148.000 481.688 L 150.000 481.688 L 152.000 481.688 L 154.000 481.688 L 156.000 481.688 L 158.000 481.688 L 160.000 481.688 L 162.000 481.688 L 164.000 481.688 L 166.000 481.688 L 168.000 481.688 L 170.000 481.688 L 172.000 481.688 L 174.000 481.688 L 176.000 481.688 L 178.000 481.688 L 180.000 481.688 L 182.000 481.688 L 184.000 481.688 L 186.000 481.688 L 188.000 481.688 L 190.000 481.929 L 192.000 481.929 L 194.000 481.929 L 196.000 481.929 L 198.000 481.929 L 200.000 481.929 L 202.000 481.929 L 204.000 481.929 L 206.000 481.929 L 208.000 481.929 L 210.000 481.929 L 212.000 481.929 L 214.000 481.929 L 216.000 481.929 L 218.000 481.929 L 220.000 481.929 L 222.000 481.929 L 224.000 481.929 L 226.000 481.929 L 228.000 481.929 L 230.000 481.929 L 232.000 481.929 L 234.000 481.929 L 236.000 481.929 L 238.000 481.929 L 240.000 481.929 L 242.000 481.929 L 244.000 481.929 L 246.000 481.929 L 248.000 481.929 L 250.000 481.929 L 252.000 480.261 L 254.000 480.261 L 256.000 480.261 L 258.000 480.261 L 260.000 480.261 L 262.000 480.261 L 264.000 480.261 L 266.000 480.261 L 268.000 480.261 L 270.000 480.261 L 272.000 480.261 L 274.000 480.261 L 276.000 480.261 L 278.000 480.261 L 280.000 480.261 L 282.000 480.261 L 284.000 480.261 L 286.000 480.261 L 288.000 480.261 L 290.000 480.261 L 292.000 480.261 L 294.000 480.261 L 296.000 480.261 L 298.000 480.261 L 300.000 480.261 L 302.000 480.261 L 304.000 480.261 L 306.000 480.261 L 308.000 480.261 L 310.000 480.261 L 312.000 480.261 L 314.000 480.261 L 316.000 480.261 L 318.000 449.277 L 320.000 472.250 L 322.000 472.250 L 324.000 472.250 L 326.000 472.250 L 328.000 472.250 L 330.000 472.250 L 332.000 472.250 L 334.000 472.250 L 336.000 472.250 L 338.000 472.250 L 340.000 472.250 L 342.000 472.250 L 344.000 472.250 L 346.000 472.250 L 348.000 472.250 L 350.000 472.250 L 352.000 472.250 L 354.000 472.250 L 356.000 472.250 L 358.000 472.250 L 360.000 472.250 L 362.000 472.250 L 364.000 472.250 L 366.000 469.791 L 368.000 469.791 L 370.000 469.791 L 372.000 469.791 L 374.000 469.791 L 376.000 469.791 L 378.000 469.791 L 380.000 469.791 L 382.000 469.791 L 384.000 469.791 L 386.000 469.791 L 388.000 469.791 L 390.000 469.791 L 392.000 469.791 L 394.000 469.791 L 396.000 469.791 L 398.000 469.791 L 400.000 469.791 L 402.000 469.791 L 404.000 469.791 L 406.000 469.791 L 408.000 469.791 L 410.000 469.791 L 412.000 469.791 L 414.000 461.298 L 416.000 461.298 L 418.000 461.298 L 420.000 461.298 L 422.000 461.298 L 424.000 461.298 L 426.000 461.298 L 428.000 461.298 L 430.000 461.298 L 432.000 461.298 L 434.000 461.298 L 436.000 461.298 L 438.000 461.298 L 440.000 461.298 L 442.000 461.298 L 444.000 461.298 L 446.000 461.298 L 448.000 461.298 L 450.000 461.298 L 452.000 461.298 L 454.000 461.298 L 456.000 461.298 L 458.000 375.691 L 460.000 460.231 L 462.000 460.231 L 464.000 460.231 L 466.000 460.231 L 468.000 460.231 L 470.000 460.231 L 472.000 460.231 L 474.000 460.231 L 476.000 460.231 L 478.000 460.231 L 480.000 460.231 L 482.000 460.231 L 484.000 460.231 L 486.000 460.231 L 488.000 460.231 L 490.000 460.231 L 492.000 460.231 L 494.000 460.231 L 496.000 460.231 L 498.000 460.231 L 500.000 452.312 L 502.000 452.312 L 504.000 452.312 L 506.000 452.312 L 508.000 452.312 L 510.000 452.312 L 512.000 452.312 L 514.000 452.312 L 516.000 452.312 L 518.000 452.312 L 520.000 452.312 L 522.000 452.312 L 524.000 452.312 L 526.000 452.312 L 528.000 452.312 L 530.000 452.312 L 532.000 452.312 L 534.000 452.312 L 536.000 480.645 L 538.000 480.645 L 540.000 480.645 L 542.000 480.645 L 544.000 480.645 L 546.000 480.645 L 548.000 480.645 L 550.000 480.645 L 552.000 480.645 L 554.000 480.645 L 556.000 480.645 L 558.000 480.645 L 560.000 480.645 L 562.000 480.645 L 564.000 480.645 L 566.000 480.645 L 568.000 480.645 L 570.000 480.645 L 572.000 480.645 L 574.000 480.645 L 576.000 480.645 L 578.000 480.645 L 580.000 480.645 L 582.000 480.645 L 584.000 480.645 L 586.000 480.645 L 588.000 480.645 L 590.000 480.645 L 592.000 480.645 L 594.000 480.645 L 596.000 480.645 L 598.000 480.645 L 600.000 480.645 L 602.000 480.645 L 604.000 480.645 L 606.000 480.645 L 608.000 478.294 L 610.000 478.294 L 612.000 478.294 L 614.000 478.294 L 616.000 478.294 L 618.000 478.294 L 620.000 478.294 L 622.000 478.294 L 624.000 478.294 L 626.000 478.294 L 628.000 478.294 L 630.000 478.294 L 632.000 478.294 L 634.000 478.294 L 636.000 478.294 L 638.000 478.294 L 640.000 478.294 L 642.000 478.294 L 644.000 478.294 L 646.000 478.294 L 648.000 478.294 L 650.000 478.294 L 652.000 478.294 L 654.000 478.294 L 656.000 478.294 L 658.000 478.294 L 660.000 395.872 L 662.000 395.872 L 664.000 395.872 L 666.000 271.946 L 668.000 271.946 L 670.000 271.946 L 672.000 271.946 L 674.000 271.946 L 676.000 271.946 L 678.000 271.946 L 680.000 222.034 L 682.000 222.034 L 684.000 222.034 L 686.000 222.034 L 688.000 222.034 L 690.000 222.034 L 692.000 222.034 L 694.000 222.034 L 696.000 222.034 L 698.000 222.034 L 700.000 222.034 L 702.000 222.034 L 704.000 222.034 L 706.000 222.034 L 708.000 222.034 L 710.000 222.034 L 712.000 222.034 L 714.000 222.034 L 716.000 222.034 L 718.000 222.034 L 720.000 222.034 L 722.000 222.034 L 724.000 222.034 L 726.000 222.034 L 728.000 222.034 L 730.000 222.034 L 732.000 222.034 L 734.000 222.034 L 736.000 222.034" fill="none" stroke="#ff9800" stroke-width="1" stroke-dasharray="6,4"/><text x="4.000" y="14.000" fill="#ff9800" font-size="12">base_bottom_edge</text></g></svg>