<svg xmlns="http://www.w3.org/2000/svg" width="737" height="539" viewBox="0 0 737 539"><rect x="0" y="0" width="100%" height="100%" fill="none" stroke="#ffffff" stroke-width="1"/><g id="bboxes"><rect x="362.500" y="350.294" width="44.000" height="48.000" fill="none" stroke="#00ff7f" stroke-width="1"/><rect x="171.757" y="237.623" width="39.000" height="74.000" fill="none" stroke="#00ff7f" stroke-width="1"/><rect x="406.838" y="350.600" width="45.000" height="46.000" fill="none" stroke="#00ff7f" stroke-width="1"/><rect x="372.597" y="455.333" width="55.000" height="42.000" fill="none" stroke="#00ff7f" stroke-width="1"/><rect x="171.597" y="364.250" width="39.000" height="72.000" fill="none" stroke="#00ff7f" stroke-width="1"/><rect x="344.072" y="203.034" width="57.000" height="40.000" fill="none" stroke="#00ff7f" stroke-width="1"/><rect x="372.647" y="497.714" width="72.000" height="32.000" fill="none" stroke="#00ff7f" stroke-width="1"/><rect x="444.418" y="494.358" width="60.000" height="34.000" fill="none" stroke="#00ff7f" stroke-width="1"/><rect x="354.795" y="243.312" width="30.000" height="76.000" fill="none" stroke="#00ff7f" stroke-width="1"/><rect x="573.236" y="429.232" width="31.000" height="45.000" fill="none" stroke="#00ff7f" stroke-width="1"/><rect x="650.928" y="503.251" width="35.000" height="36.000" fill="none" stroke="#00ff7f" stroke-width="1"/><rect x="527.036" y="403.517" width="56.000" height="26.000" fill="none" stroke="#00ff7f" stroke-width="1"/><rect x="427.947" y="441.683" width="39.000" height="53.000" fill="none" stroke="#00ff7f" stroke-width="1"/><rect x="495.418" y="373.368" width="32.000" height="48.000" fill="none" stroke="#00ff7f" stroke-width="1"/><rect x="504.372" y="466.336" width="34.000" height="55.000" fill="none" stroke="#00ff7f" stroke-width="1"/><rect x="649.461" y="450.081" width="25.000" height="53.000" fill="none" stroke="#00ff7f" stroke-width="1"/><rect x="452.000" y="331.354" width="37.000" height="45.000" fill="none" stroke="#00ff7f" stroke-width="1"/><rect x="488.744" y="327.669" width="34.000" height="46.000" fill="none" stroke="#00ff7f" stroke-width="1"/><rect x="531.402" y="258.571" width="38.000" height="39.000" fill="none" stroke="#00ff7f" stroke-width="1"/><rect x="527.697" y="364.051" width="38.000" height="39.000" fill="none" stroke="#00ff7f" stroke-width="1"/><rect x="528.653" y="429.555" width="45.000" height="32.000" fill="none" stroke="#00ff7f" stroke-width="1"/><rect x="499.645" y="258.883" width="32.000" height="48.000" fill="none" stroke="#00ff7f" stroke-width="1"/><rect x="614.969" y="450.381" width="35.000" height="38.000" fill="none" stroke="#00ff7f" stroke-width="1"/><rect x="522.604" y="306.141" width="26.000" height="58.000" fill="none" stroke="#00ff7f" stroke-width="1"/><rect x="592.013" y="505.261" width="58.000" height="23.000" fill="none" stroke="#00ff7f" stroke-width="1"/><rect x="570.813" y="474.205" width="44.000" height="31.000" fill="none" stroke="#00ff7f" stroke-width="1"/><rect x="302.137" y="402.523" width="45.000" height="24.000" fill="none" stroke="#00ff7f" stroke-width="1"/><rect x="604.609" y="427.900" width="58.000" height="23.000" fill="none" stroke="#00ff7f" stroke-width="1"/><rect x="538.849" y="461.132" width="32.000" height="44.000" fill="none" stroke="#00ff7f" stroke-width="1"/></g><g id="polys"><path d="M 362.500 378.318 L 362.500 397.600 L 405.816 397.600 L 402.575 368.800 L 368.687 350.294 Z" fill="none" stroke="#ff3b30" stroke-width="1"/><text x="364.500" y="390.318" fill="#ff3b30" font-size="10">116</text><path d="M 174.844 259.192 L 171.757 289.586 L 194.048 285.967 L 194.343 284.515 L 197.776 291.953 L 204.272 310.172 L 210.261 310.637 L 209.154 290.534 L 207.433 260.278 L 210.677 250.669 L 190.982 237.623 L 177.811 247.437 Z" fill="none" stroke="#ff3b30" stroke-width="1"/><text x="176.844" y="271.192" fill="#ff3b30" font-size="10">55</text><path d="M 451.738 350.600 L 406.838 350.600 L 418.314 379.402 L 410.275 393.046 L 412.020 396.100 L 430.963 396.100 L 448.632 384.282 Z" fill="none" stroke="#ff3b30" stroke-width="1"/><text x="453.738" y="362.600" fill="#ff3b30" font-size="10">60</text><path d="M 404.105 457.763 L 374.753 455.333 L 372.597 461.357 L 392.135 469.430 L 373.135 493.198 L 374.946 496.724 L 414.082 494.659 L 423.437 475.645 L 423.749 473.877 L 427.002 455.430 Z" fill="none" stroke="#ff3b30" stroke-width="1"/><text x="406.105" y="469.763" fill="#ff3b30" font-size="10">109</text><path d="M 206.977 402.992 L 207.640 365.566 L 202.162 364.250 L 189.530 390.140 L 171.597 412.879 L 187.584 435.710 L 209.913 432.339 Z" fill="none" stroke="#ff3b30" stroke-width="1"/><text x="208.977" y="414.992" fill="#ff3b30" font-size="10">99</text><path d="M 400.110 234.143 L 384.630 206.620 L 363.057 203.034 L 344.072 242.544 L 377.994 241.837 Z" fill="none" stroke="#ff3b30" stroke-width="1"/><text x="402.110" y="246.143" fill="#ff3b30" font-size="10">38</text><path d="M 439.290 513.414 L 430.213 504.752 L 421.771 498.626 L 414.358 497.714 L 403.983 501.490 L 399.096 503.269 L 372.647 512.896 L 386.414 528.417 L 424.897 525.633 L 441.651 528.898 L 443.948 526.210 L 441.315 518.976 Z" fill="none" stroke="#ff3b30" stroke-width="1"/><text x="441.290" y="525.414" fill="#ff3b30" font-size="10">39</text><path d="M 457.482 494.358 L 444.418 528.045 L 503.449 524.931 L 492.100 502.446 Z" fill="none" stroke="#ff3b30" stroke-width="1"/><text x="459.482" y="506.358" fill="#ff3b30" font-size="10">115</text><path d="M 379.012 297.862 L 384.702 269.345 L 377.222 243.312 L 354.795 260.353 L 363.826 292.017 L 355.554 315.440 L 360.723 318.486 Z" fill="none" stroke="#ff3b30" stroke-width="1"/><text x="381.012" y="309.862" fill="#ff3b30" font-size="10">95</text><path d="M 602.438 429.232 L 587.327 431.091 L 576.971 430.727 L 573.236 440.987 L 574.304 474.227 L 603.511 463.187 L 601.967 449.298 Z" fill="none" stroke="#ff3b30" stroke-width="1"/><text x="604.438" y="441.232" fill="#ff3b30" font-size="10">48</text><path d="M 684.953 535.138 L 683.668 505.112 L 653.900 503.251 L 652.449 520.781 L 650.928 539.159 Z" fill="none" stroke="#ff3b30" stroke-width="1"/><text x="686.953" y="547.138" fill="#ff3b30" font-size="10">65</text><path d="M 566.448 404.469 L 551.810 404.716 L 527.036 403.517 L 530.417 426.625 L 553.810 427.772 L 559.564 428.786 L 568.804 425.285 L 582.335 422.458 Z" fill="none" stroke="#ff3b30" stroke-width="1"/><text x="568.448" y="416.469" fill="#ff3b30" font-size="10">73</text><path d="M 440.541 494.455 L 463.852 494.285 L 466.630 454.914 L 453.505 457.229 L 431.435 441.683 L 427.947 443.899 L 429.990 455.484 L 445.620 472.932 Z" fill="none" stroke="#ff3b30" stroke-width="1"/><text x="442.541" y="506.455" fill="#ff3b30" font-size="10">16</text><path d="M 527.270 393.369 L 498.992 373.368 L 495.719 375.048 L 495.418 420.901 L 520.527 411.895 Z" fill="none" stroke="#ff3b30" stroke-width="1"/><text x="529.270" y="405.369" fill="#ff3b30" font-size="10">17</text><path d="M 516.279 521.012 L 520.734 520.561 L 521.253 501.546 L 524.376 499.890 L 532.614 505.147 L 535.837 503.219 L 534.801 489.467 L 535.634 482.414 L 537.546 466.336 L 506.294 469.933 L 504.372 482.761 L 512.239 499.632 Z" fill="none" stroke="#ff3b30" stroke-width="1"/><text x="518.279" y="533.012" fill="#ff3b30" font-size="10">53</text><path d="M 649.461 450.081 L 652.558 476.992 L 653.387 483.726 L 669.462 502.665 L 673.597 501.122 L 673.082 450.772 Z" fill="none" stroke="#ff3b30" stroke-width="1"/><text x="651.461" y="462.081" fill="#ff3b30" font-size="10">77</text><path d="M 452.000 374.192 L 456.154 375.692 L 488.167 337.127 L 486.703 333.713 L 452.000 331.354 Z" fill="none" stroke="#ff3b30" stroke-width="1"/><text x="454.000" y="386.192" fill="#ff3b30" font-size="10">117</text><path d="M 489.321 369.937 L 492.516 373.001 L 521.195 358.744 L 522.713 331.225 L 517.676 329.652 L 510.105 342.000 L 492.493 327.669 L 488.744 329.872 L 493.970 359.511 Z" fill="none" stroke="#ff3b30" stroke-width="1"/><text x="491.321" y="381.937" fill="#ff3b30" font-size="10">90</text><path d="M 541.988 258.571 L 538.090 259.518 L 531.402 297.472 L 567.379 297.472 L 569.054 294.090 Z" fill="none" stroke="#ff3b30" stroke-width="1"/><text x="543.988" y="270.571" fill="#ff3b30" font-size="10">103</text><path d="M 527.772 401.177 L 531.273 402.819 L 565.079 374.830 L 564.121 371.085 L 527.697 364.051 Z" fill="none" stroke="#ff3b30" stroke-width="1"/><text x="529.772" y="413.177" fill="#ff3b30" font-size="10">47</text><path d="M 528.938 429.555 L 528.653 460.961 L 572.339 456.042 L 573.177 451.201 Z" fill="none" stroke="#ff3b30" stroke-width="1"/><text x="530.938" y="441.555" fill="#ff3b30" font-size="10">101</text><path d="M 499.645 301.173 L 501.110 306.114 L 530.398 305.257 L 531.455 286.802 L 505.404 258.883 L 501.152 260.038 L 501.858 266.740 L 511.778 293.782 Z" fill="none" stroke="#ff3b30" stroke-width="1"/><text x="501.645" y="313.173" fill="#ff3b30" font-size="10">58</text><path d="M 649.668 450.381 L 619.552 454.924 L 619.743 468.090 L 614.969 484.952 L 619.439 487.581 L 634.676 472.412 L 649.085 478.248 Z" fill="none" stroke="#ff3b30" stroke-width="1"/><text x="651.668" y="462.381" fill="#ff3b30" font-size="10">57</text><path d="M 522.604 342.571 L 543.989 363.603 L 547.868 361.859 L 545.060 307.062 L 539.443 306.141 L 529.607 331.027 Z" fill="none" stroke="#ff3b30" stroke-width="1"/><text x="524.604" y="354.571" fill="#ff3b30" font-size="10">20</text><path d="M 601.904 528.203 L 649.779 516.058 L 649.207 509.508 L 592.013 505.261 Z" fill="none" stroke="#ff3b30" stroke-width="1"/><text x="603.904" y="540.203" fill="#ff3b30" font-size="10">21</text><path d="M 600.721 474.568 L 597.081 474.205 L 590.750 483.763 L 570.813 500.915 L 572.328 505.000 L 588.300 505.000 L 614.439 505.000 L 606.894 489.763 Z" fill="none" stroke="#ff3b30" stroke-width="1"/><text x="602.721" y="486.568" fill="#ff3b30" font-size="10">61</text><path d="M 340.542 402.902 L 322.344 402.715 L 303.619 402.523 L 302.137 406.943 L 315.258 416.646 L 326.736 424.976 L 346.248 426.092 Z" fill="none" stroke="#ff3b30" stroke-width="1"/><text x="342.542" y="414.902" fill="#ff3b30" font-size="10">52</text><path d="M 659.983 450.065 L 661.673 446.185 L 643.388 427.900 L 604.609 442.204 L 605.552 448.102 Z" fill="none" stroke="#ff3b30" stroke-width="1"/><text x="661.983" y="462.065" fill="#ff3b30" font-size="10">97</text><path d="M 569.334 461.132 L 538.849 461.569 L 546.119 481.468 L 566.032 504.175 L 570.125 502.590 Z" fill="none" stroke="#ff3b30" stroke-width="1"/><text x="571.334" y="473.132" fill="#ff3b30" font-size="10">28</text></g></svg>