<svg xmlns="http://www.w3.org/2000/svg" width="737" height="539" viewBox="0 0 737 539"><rect x="0" y="0" width="100%" height="100%" fill="none" stroke="#ffffff" stroke-width="1"/><g id="bboxes"><rect x="5.913" y="5.835" width="95.000" height="80.000" fill="none" stroke="#00ff7f" stroke-width="1"/><text x="7.913" y="17.835" fill="#00ff7f" font-size="10">0</text><rect x="5.200" y="85.050" width="72.000" height="99.000" fill="none" stroke="#00ff7f" stroke-width="1"/><text x="7.200" y="97.050" fill="#00ff7f" font-size="10">1</text><rect x="62.115" y="392.917" width="80.000" height="60.000" fill="none" stroke="#00ff7f" stroke-width="1"/><text x="64.115" y="404.917" fill="#00ff7f" font-size="10">2</text><rect x="173.743" y="147.457" width="81.000" height="59.000" fill="none" stroke="#00ff7f" stroke-width="1"/><text x="175.743" y="159.457" fill="#00ff7f" font-size="10">3</text><rect x="100.866" y="5.582" width="102.000" height="56.000" fill="none" stroke="#00ff7f" stroke-width="1"/><text x="102.866" y="17.582" fill="#00ff7f" font-size="10">4</text><rect x="128.025" y="239.573" width="104.000" height="46.000" fill="none" stroke="#00ff7f" stroke-width="1"/><text x="130.025" y="251.573" fill="#00ff7f" font-size="10">5</text><rect x="92.537" y="176.579" width="81.000" height="64.000" fill="none" stroke="#00ff7f" stroke-width="1"/><text x="94.537" y="188.579" fill="#00ff7f" font-size="10">6</text><rect x="142.809" y="392.502" width="55.000" height="87.000" fill="none" stroke="#00ff7f" stroke-width="1"/><text x="144.809" y="404.502" fill="#00ff7f" font-size="10">7</text><rect x="77.114" y="85.688" width="64.000" height="91.000" fill="none" stroke="#00ff7f" stroke-width="1"/><text x="79.114" y="97.688" fill="#00ff7f" font-size="10">8</text><rect x="200.843" y="61.179" width="70.000" height="68.000" fill="none" stroke="#00ff7f" stroke-width="1"/><text x="202.843" y="73.179" fill="#00ff7f" font-size="10">9</text><rect x="62.378" y="335.726" width="90.000" height="57.000" fill="none" stroke="#00ff7f" stroke-width="1"/><text x="64.378" y="347.726" fill="#00ff7f" font-size="10">10</text><rect x="54.510" y="263.336" width="74.000" height="73.000" fill="none" stroke="#00ff7f" stroke-width="1"/><text x="56.510" y="275.336" fill="#00ff7f" font-size="10">11</text><rect x="268.736" y="345.694" width="72.000" height="57.000" fill="none" stroke="#00ff7f" stroke-width="1"/><text x="270.736" y="357.694" fill="#00ff7f" font-size="10">12</text><rect x="152.003" y="285.852" width="75.000" height="62.000" fill="none" stroke="#00ff7f" stroke-width="1"/><text x="154.003" y="297.852" fill="#00ff7f" font-size="10">13</text><rect x="5.745" y="381.236" width="57.000" height="102.000" fill="none" stroke="#00ff7f" stroke-width="1"/><text x="7.745" y="393.236" fill="#00ff7f" font-size="10">14</text><rect x="141.868" y="61.751" width="59.000" height="87.000" fill="none" stroke="#00ff7f" stroke-width="1"/><text x="143.868" y="73.751" fill="#00ff7f" font-size="10">15</text><rect x="197.683" y="347.211" width="72.000" height="64.000" fill="none" stroke="#00ff7f" stroke-width="1"/><text x="199.683" y="359.211" fill="#00ff7f" font-size="10">16</text><rect x="5.700" y="262.623" width="49.000" height="119.000" fill="none" stroke="#00ff7f" stroke-width="1"/><text x="7.700" y="274.623" fill="#00ff7f" font-size="10">17</text><rect x="227.453" y="285.216" width="73.000" height="60.000" fill="none" stroke="#00ff7f" stroke-width="1"/><text x="229.453" y="297.216" fill="#00ff7f" font-size="10">18</text><rect x="335.181" y="91.398" width="62.000" height="61.000" fill="none" stroke="#00ff7f" stroke-width="1"/><text x="337.181" y="103.398" fill="#00ff7f" font-size="10">19</text><rect x="288.944" y="178.446" width="45.000" height="91.000" fill="none" stroke="#00ff7f" stroke-width="1"/><text x="290.944" y="190.446" fill="#00ff7f" font-size="10">20</text><rect x="329.101" y="5.683" width="47.000" height="86.000" fill="none" stroke="#00ff7f" stroke-width="1"/><text x="331.101" y="17.683" fill="#00ff7f" font-size="10">21</text><rect x="411.390" y="323.700" width="76.000" height="49.000" fill="none" stroke="#00ff7f" stroke-width="1"/><text x="413.390" y="335.700" fill="#00ff7f" font-size="10">22</text><rect x="397.049" y="85.029" width="67.000" height="55.000" fill="none" stroke="#00ff7f" stroke-width="1"/><text x="399.049" y="97.029" fill="#00ff7f" font-size="10">23</text><rect x="418.099" y="220.994" width="49.000" height="73.000" fill="none" stroke="#00ff7f" stroke-width="1"/><text x="420.099" y="232.994" fill="#00ff7f" font-size="10">24</text><rect x="341.706" y="342.572" width="71.000" height="53.000" fill="none" stroke="#00ff7f" stroke-width="1"/><text x="343.706" y="354.572" fill="#00ff7f" font-size="10">25</text><rect x="254.821" y="129.068" width="82.000" height="50.000" fill="none" stroke="#00ff7f" stroke-width="1"/><text x="256.821" y="141.068" fill="#00ff7f" font-size="10">26</text><rect x="197.920" y="411.332" width="64.000" height="72.000" fill="none" stroke="#00ff7f" stroke-width="1"/><text x="199.920" y="423.332" fill="#00ff7f" font-size="10">27</text><rect x="528.692" y="272.449" width="54.000" height="61.000" fill="none" stroke="#00ff7f" stroke-width="1"/><text x="530.692" y="284.449" fill="#00ff7f" font-size="10">28</text><rect x="522.928" y="151.497" width="75.000" height="44.000" fill="none" stroke="#00ff7f" stroke-width="1"/><text x="524.928" y="163.497" fill="#00ff7f" font-size="10">29</text><rect x="270.147" y="61.352" width="60.000" height="68.000" fill="none" stroke="#00ff7f" stroke-width="1"/><text x="272.147" y="73.352" fill="#00ff7f" font-size="10">30</text><rect x="201.131" y="5.352" width="85.000" height="56.000" fill="none" stroke="#00ff7f" stroke-width="1"/><text x="203.131" y="17.352" fill="#00ff7f" font-size="10">31</text><rect x="389.266" y="395.523" width="54.000" height="69.000" fill="none" stroke="#00ff7f" stroke-width="1"/><text x="391.266" y="407.523" fill="#00ff7f" font-size="10">32</text><rect x="5.255" y="184.447" width="87.000" height="79.000" fill="none" stroke="#00ff7f" stroke-width="1"/><text x="7.255" y="196.447" fill="#00ff7f" font-size="10">33</text><rect x="323.179" y="402.184" width="67.000" height="57.000" fill="none" stroke="#00ff7f" stroke-width="1"/><text x="325.179" y="414.184" fill="#00ff7f" font-size="10">34</text><rect x="583.578" y="265.231" width="73.000" height="44.000" fill="none" stroke="#00ff7f" stroke-width="1"/><text x="585.578" y="277.231" fill="#00ff7f" font-size="10">35</text><rect x="528.265" y="104.547" width="71.000" height="47.000" fill="none" stroke="#00ff7f" stroke-width="1"/><text x="530.265" y="116.547" fill="#00ff7f" font-size="10">36</text><rect x="484.435" y="5.635" width="64.000" height="54.000" fill="none" stroke="#00ff7f" stroke-width="1"/><text x="486.435" y="17.635" fill="#00ff7f" font-size="10">37</text><rect x="628.324" y="348.133" width="52.000" height="61.000" fill="none" stroke="#00ff7f" stroke-width="1"/><text x="630.324" y="360.133" fill="#00ff7f" font-size="10">38</text><rect x="680.456" y="186.045" width="50.000" height="68.000" fill="none" stroke="#00ff7f" stroke-width="1"/><text x="682.456" y="198.045" fill="#00ff7f" font-size="10">39</text><rect x="547.668" y="5.774" width="57.000" height="60.000" fill="none" stroke="#00ff7f" stroke-width="1"/><text x="549.668" y="17.774" fill="#00ff7f" font-size="10">40</text><rect x="417.442" y="140.588" width="45.000" height="80.000" fill="none" stroke="#00ff7f" stroke-width="1"/><text x="419.442" y="152.588" fill="#00ff7f" font-size="10">41</text><rect x="661.500" y="450.294" width="52.000" height="56.000" fill="none" stroke="#00ff7f" stroke-width="1"/><text x="663.500" y="462.294" fill="#00ff7f" font-size="10">42</text><rect x="299.234" y="270.625" width="53.000" height="73.000" fill="none" stroke="#00ff7f" stroke-width="1"/><text x="301.234" y="282.625" fill="#00ff7f" font-size="10">43</text><rect x="1.838" y="482.600" width="53.000" height="54.000" fill="none" stroke="#00ff7f" stroke-width="1"/><text x="3.838" y="494.600" fill="#00ff7f" font-size="10">44</text><rect x="520.286" y="362.231" width="40.000" height="85.000" fill="none" stroke="#00ff7f" stroke-width="1"/><text x="522.286" y="374.231" fill="#00ff7f" font-size="10">45</text><rect x="560.670" y="348.615" width="68.000" height="47.000" fill="none" stroke="#00ff7f" stroke-width="1"/><text x="562.670" y="360.615" fill="#00ff7f" font-size="10">46</text><rect x="604.023" y="5.996" width="68.000" height="50.000" fill="none" stroke="#00ff7f" stroke-width="1"/><text x="606.023" y="17.996" fill="#00ff7f" font-size="10">47</text><rect x="509.009" y="197.943" width="44.000" height="75.000" fill="none" stroke="#00ff7f" stroke-width="1"/><text x="511.009" y="209.943" fill="#00ff7f" font-size="10">48</text><rect x="443.026" y="372.525" width="61.000" height="61.000" fill="none" stroke="#00ff7f" stroke-width="1"/><text x="445.026" y="384.525" fill="#00ff7f" font-size="10">49</text><rect x="598.597" y="409.333" width="63.000" height="50.000" fill="none" stroke="#00ff7f" stroke-width="1"/><text x="600.597" y="421.333" fill="#00ff7f" font-size="10">50</text><rect x="260.892" y="411.517" width="62.000" height="68.000" fill="none" stroke="#00ff7f" stroke-width="1"/><text x="262.892" y="423.517" fill="#00ff7f" font-size="10">51</text><rect x="376.597" y="5.250" width="47.000" height="80.000" fill="none" stroke="#00ff7f" stroke-width="1"/><text x="378.597" y="17.250" fill="#00ff7f" font-size="10">52</text><rect x="680.563" y="124.352" width="55.000" height="62.000" fill="none" stroke="#00ff7f" stroke-width="1"/><text x="682.563" y="136.352" fill="#00ff7f" font-size="10">53</text><rect x="487.386" y="279.762" width="41.000" height="83.000" fill="none" stroke="#00ff7f" stroke-width="1"/><text x="489.386" y="291.762" fill="#00ff7f" font-size="10">54</text><rect x="443.642" y="433.081" width="77.000" height="45.000" fill="none" stroke="#00ff7f" stroke-width="1"/><text x="445.642" y="445.081" fill="#00ff7f" font-size="10">55</text><rect x="582.647" y="309.714" width="80.000" height="40.000" fill="none" stroke="#00ff7f" stroke-width="1"/><text x="584.647" y="321.714" fill="#00ff7f" font-size="10">56</text><rect x="424.779" y="5.152" width="60.000" height="61.000" fill="none" stroke="#00ff7f" stroke-width="1"/><text x="426.779" y="17.152" fill="#00ff7f" font-size="10">57</text><rect x="232.924" y="207.549" width="56.000" height="76.000" fill="none" stroke="#00ff7f" stroke-width="1"/><text x="234.924" y="219.549" fill="#00ff7f" font-size="10">58</text><rect x="599.680" y="114.890" width="59.000" height="56.000" fill="none" stroke="#00ff7f" stroke-width="1"/><text x="601.680" y="126.890" fill="#00ff7f" font-size="10">59</text><rect x="680.206" y="384.089" width="48.000" height="66.000" fill="none" stroke="#00ff7f" stroke-width="1"/><text x="682.206" y="396.089" fill="#00ff7f" font-size="10">60</text><rect x="604.907" y="55.041" width="57.000" height="59.000" fill="none" stroke="#00ff7f" stroke-width="1"/><text x="606.907" y="67.041" fill="#00ff7f" font-size="10">61</text><rect x="464.413" y="66.688" width="91.000" height="38.000" fill="none" stroke="#00ff7f" stroke-width="1"/><text x="466.413" y="78.688" fill="#00ff7f" font-size="10">62</text><rect x="333.238" y="178.005" width="45.000" height="88.000" fill="none" stroke="#00ff7f" stroke-width="1"/><text x="335.238" y="190.005" fill="#00ff7f" font-size="10">63</text><rect x="221.932" y="482.356" width="65.000" height="43.000" fill="none" stroke="#00ff7f" stroke-width="1"/><text x="223.932" y="494.356" fill="#00ff7f" font-size="10">64</text><rect x="661.021" y="1.235" width="52.000" height="60.000" fill="none" stroke="#00ff7f" stroke-width="1"/><text x="663.021" y="13.235" fill="#00ff7f" font-size="10">65</text><rect x="553.526" y="209.636" width="58.000" height="56.000" fill="none" stroke="#00ff7f" stroke-width="1"/><text x="555.526" y="221.636" fill="#00ff7f" font-size="10">66</text><rect x="467.297" y="197.691" width="42.000" height="82.000" fill="none" stroke="#00ff7f" stroke-width="1"/><text x="469.297" y="209.691" fill="#00ff7f" font-size="10">67</text><rect x="161.853" y="483.188" width="60.000" height="47.000" fill="none" stroke="#00ff7f" stroke-width="1"/><text x="163.853" y="495.188" fill="#00ff7f" font-size="10">68</text><rect x="661.223" y="61.641" width="53.000" height="63.000" fill="none" stroke="#00ff7f" stroke-width="1"/><text x="663.223" y="73.641" fill="#00ff7f" font-size="10">69</text><rect x="54.555" y="483.242" width="52.000" height="55.000" fill="none" stroke="#00ff7f" stroke-width="1"/><text x="56.555" y="495.242" fill="#00ff7f" font-size="10">70</text><rect x="597.137" y="169.228" width="84.000" height="39.000" fill="none" stroke="#00ff7f" stroke-width="1"/><text x="599.137" y="181.228" fill="#00ff7f" font-size="10">71</text><rect x="356.200" y="482.379" width="51.000" height="49.000" fill="none" stroke="#00ff7f" stroke-width="1"/><text x="358.200" y="494.379" fill="#00ff7f" font-size="10">72</text><rect x="407.778" y="482.698" width="49.000" height="51.000" fill="none" stroke="#00ff7f" stroke-width="1"/><text x="409.778" y="494.698" fill="#00ff7f" font-size="10">73</text><rect x="461.226" y="140.592" width="61.000" height="58.000" fill="none" stroke="#00ff7f" stroke-width="1"/><text x="463.226" y="152.592" fill="#00ff7f" font-size="10">74</text><rect x="611.214" y="208.707" width="58.000" height="56.000" fill="none" stroke="#00ff7f" stroke-width="1"/><text x="613.214" y="220.707" fill="#00ff7f" font-size="10">75</text><rect x="560.795" y="395.312" width="38.000" height="84.000" fill="none" stroke="#00ff7f" stroke-width="1"/><text x="562.795" y="407.312" fill="#00ff7f" font-size="10">76</text><rect x="353.281" y="266.277" width="66.000" height="57.000" fill="none" stroke="#00ff7f" stroke-width="1"/><text x="355.281" y="278.277" fill="#00ff7f" font-size="10">77</text><rect x="378.514" y="152.305" width="39.000" height="95.000" fill="none" stroke="#00ff7f" stroke-width="1"/><text x="380.514" y="164.305" fill="#00ff7f" font-size="10">78</text><rect x="669.135" y="254.400" width="48.000" height="72.000" fill="none" stroke="#00ff7f" stroke-width="1"/><text x="671.135" y="266.400" fill="#00ff7f" font-size="10">79</text><rect x="456.132" y="483.229" width="50.000" height="49.000" fill="none" stroke="#00ff7f" stroke-width="1"/><text x="458.132" y="495.229" fill="#00ff7f" font-size="10">80</text><rect x="106.572" y="482.764" width="55.000" height="52.000" fill="none" stroke="#00ff7f" stroke-width="1"/><text x="108.572" y="494.764" fill="#00ff7f" font-size="10">81</text><rect x="286.755" y="483.100" width="70.000" height="39.000" fill="none" stroke="#00ff7f" stroke-width="1"/><text x="288.755" y="495.100" fill="#00ff7f" font-size="10">82</text><rect x="152.928" y="347.251" width="43.000" height="44.000" fill="none" stroke="#00ff7f" stroke-width="1"/><text x="154.928" y="359.251" fill="#00ff7f" font-size="10">83</text><rect x="600.227" y="482.929" width="61.000" height="38.000" fill="none" stroke="#00ff7f" stroke-width="1"/><text x="602.227" y="494.929" fill="#00ff7f" font-size="10">84</text><rect x="504.044" y="482.511" width="51.000" height="47.000" fill="none" stroke="#00ff7f" stroke-width="1"/><text x="506.044" y="494.511" fill="#00ff7f" font-size="10">85</text><rect x="679.635" y="326.418" width="53.000" height="60.000" fill="none" stroke="#00ff7f" stroke-width="1"/><text x="681.635" y="338.418" fill="#00ff7f" font-size="10">86</text><rect x="464.036" y="104.517" width="64.000" height="34.000" fill="none" stroke="#00ff7f" stroke-width="1"/><text x="466.036" y="116.517" fill="#00ff7f" font-size="10">87</text><rect x="287.159" y="5.420" width="39.000" height="53.000" fill="none" stroke="#00ff7f" stroke-width="1"/><text x="289.159" y="17.420" fill="#00ff7f" font-size="10">88</text><rect x="556.000" y="482.354" width="45.000" height="53.000" fill="none" stroke="#00ff7f" stroke-width="1"/><text x="558.000" y="494.354" fill="#00ff7f" font-size="10">89</text><rect x="735.563" y="0" width="1.437" height="539.000" fill="none" stroke="#ff5252" stroke-width="1" stroke-dasharray="6,4"/><text x="741.563" y="16" fill="#ff5252" font-size="12">right_gap</text><rect x="0" y="538.242" width="735.563" height="0.758" fill="none" stroke="#ff5252" stroke-width="1" stroke-dasharray="6,4"/><text x="6" y="554.242" fill="#ff5252" font-size="12">bottom_gap</text><text x="6" y="14" fill="#ffffff" font-size="12">visible=90</text><path d="M 672.023 6.000 L 672.023 8.000 L 672.023 10.000 L 672.023 12.000 L 672.023 14.000 L 672.023 16.000 L 672.023 18.000 L 672.023 20.000 L 672.023 22.000 L 672.023 24.000 L 672.023 26.000 L 672.023 28.000 L 672.023 30.000 L 672.023 32.000 L 672.023 34.000 L 672.023 36.000 L 672.023 38.000 L 672.023 40.000 L 672.023 42.000 L 672.023 44.000 L 672.023 46.000 L 672.023 48.000 L 672.023 50.000 L 672.023 52.000 L 672.023 54.000 L 661.907 56.000 L 661.907 58.000 L 661.907 60.000 L 661.907 62.000 L 661.907 64.000 L 661.907 66.000 L 661.907 68.000 L 661.907 70.000 L 661.907 72.000 L 661.907 74.000 L 661.907 76.000 L 661.907 78.000 L 661.907 80.000 L 661.907 82.000 L 661.907 84.000 L 661.907 86.000 L 661.907 88.000 L 661.907 90.000 L 661.907 92.000 L 661.907 94.000 L 661.907 96.000 L 661.907 98.000 L 661.907 100.000 L 661.907 102.000 L 661.907 104.000 L 661.907 106.000 L 661.907 108.000 L 661.907 110.000 L 661.907 112.000 L 661.907 114.000 L 658.680 116.000 L 658.680 118.000 L 658.680 120.000 L 658.680 122.000 L 658.680 124.000 L 658.680 126.000 L 658.680 128.000 L 658.680 130.000 L 658.680 132.000 L 658.680 134.000 L 658.680 136.000 L 658.680 138.000 L 658.680 140.000 L 658.680 142.000 L 658.680 144.000 L 658.680 146.000 L 658.680 148.000 L 658.680 150.000 L 658.680 152.000 L 658.680 154.000 L 658.680 156.000 L 658.680 158.000 L 658.680 160.000 L 658.680 162.000 L 658.680 164.000 L 658.680 166.000 L 658.680 168.000 L 681.137 170.000 L 681.137 172.000 L 681.137 174.000 L 681.137 176.000 L 681.137 178.000 L 681.137 180.000 L 681.137 182.000 L 681.137 184.000 L 681.137 186.000 L 681.137 188.000 L 681.137 190.000 L 681.137 192.000 L 681.137 194.000 L 681.137 196.000 L 681.137 198.000 L 681.137 200.000 L 681.137 202.000 L 681.137 204.000 L 681.137 206.000 L 681.137 208.000 L 669.214 210.000 L 669.214 212.000 L 669.214 214.000 L 669.214 216.000 L 669.214 218.000 L 669.214 220.000 L 669.214 222.000 L 669.214 224.000 L 669.214 226.000 L 669.214 228.000 L 669.214 230.000 L 669.214 232.000 L 669.214 234.000 L 669.214 236.000 L 669.214 238.000 L 669.214 240.000 L 669.214 242.000 L 669.214 244.000 L 669.214 246.000 L 669.214 248.000 L 669.214 250.000 L 669.214 252.000 L 669.214 254.000 L 669.214 256.000 L 669.214 258.000 L 669.214 260.000 L 669.214 262.000 L 669.214 264.000 L 656.578 266.000 L 656.578 268.000 L 656.578 270.000 L 656.578 272.000 L 656.578 274.000 L 656.578 276.000 L 656.578 278.000 L 656.578 280.000 L 656.578 282.000 L 656.578 284.000 L 656.578 286.000 L 656.578 288.000 L 656.578 290.000 L 656.578 292.000 L 656.578 294.000 L 656.578 296.000 L 656.578 298.000 L 656.578 300.000 L 656.578 302.000 L 656.578 304.000 L 656.578 306.000 L 656.578 308.000 L 662.647 310.000 L 662.647 312.000 L 662.647 314.000 L 662.647 316.000 L 662.647 318.000 L 662.647 320.000 L 662.647 322.000 L 662.647 324.000 L 662.647 326.000 L 662.647 328.000 L 662.647 330.000 L 662.647 332.000 L 662.647 334.000 L 662.647 336.000 L 662.647 338.000 L 662.647 340.000 L 662.647 342.000 L 662.647 344.000 L 662.647 346.000 L 662.647 348.000 L 680.324 350.000 L 680.324 352.000 L 680.324 354.000 L 680.324 356.000 L 680.324 358.000 L 680.324 360.000 L 680.324 362.000 L 680.324 364.000 L 680.324 366.000 L 680.324 368.000 L 680.324 370.000 L 680.324 372.000 L 680.324 374.000 L 680.324 376.000 L 680.324 378.000 L 680.324 380.000 L 680.324 382.000 L 680.324 384.000 L 680.324 386.000 L 680.324 388.000 L 680.324 390.000 L 680.324 392.000 L 680.324 394.000 L 680.324 396.000 L 680.324 398.000 L 680.324 400.000 L 680.324 402.000 L 680.324 404.000 L 680.324 406.000 L 680.324 408.000 L 661.597 410.000 L 661.597 412.000 L 661.597 414.000 L 661.597 416.000 L 661.597 418.000 L 661.597 420.000 L 661.597 422.000 L 661.597 424.000 L 661.597 426.000 L 661.597 428.000 L 661.597 430.000 L 661.597 432.000 L 661.597 434.000 L 661.597 436.000 L 661.597 438.000 L 661.597 440.000 L 661.597 442.000 L 661.597 444.000 L 661.597 446.000 L 661.597 448.000 L 661.597 450.000 L 661.597 452.000 L 661.597 454.000 L 661.597 456.000 L 661.597 458.000 L 598.795 460.000 L 598.795 462.000 L 598.795 464.000 L 598.795 466.000 L 598.795 468.000 L 598.795 470.000 L 598.795 472.000 L 598.795 474.000 L 598.795 476.000 L 598.795 478.000 L 261.920 480.000 L 261.920 482.000" fill="none" stroke="#ff9800" stroke-width="1" stroke-dasharray="6,4"/><text x="676.023" y="16.000" fill="#ff9800" font-size="12">base_right_edge</text><path d="M 0.000 0.000 L 2.000 0.000 L 4.000 0.000 L 6.000 483.236 L 8.000 483.236 L 10.000 483.236 L 12.000 483.236 L 14.000 483.236 L 16.000 483.236 L 18.000 483.236 L 20.000 483.236 L 22.000 483.236 L 24.000 483.236 L 26.000 483.236 L 28.000 483.236 L 30.000 483.236 L 32.000 483.236 L 34.000 483.236 L 36.000 483.236 L 38.000 483.236 L 40.000 483.236 L 42.000 483.236 L 44.000 483.236 L 46.000 483.236 L 48.000 483.236 L 50.000 483.236 L 52.000 483.236 L 54.000 483.236 L 56.000 483.236 L 58.000 483.236 L 60.000 483.236 L 62.000 483.236 L 64.000 452.917 L 66.000 452.917 L 68.000 452.917 L 70.000 452.917 L 72.000 452.917 L 74.000 452.917 L 76.000 452.917 L 78.000 452.917 L 80.000 452.917 L 82.000 452.917 L 84.000 452.917 L 86.000 452.917 L 88.000 452.917 L 90.000 452.917 L 92.000 452.917 L 94.000 452.917 L 96.000 452.917 L 98.000 452.917 L 100.000 452.917 L 102.000 452.917 L 104.000 452.917 L 106.000 452.917 L 108.000 452.917 L 110.000 452.917 L 112.000 452.917 L 114.000 452.917 L 116.000 452.917 L 118.000 452.917 L 120.000 452.917 L 122.000 452.917 L 124.000 452.917 L 126.000 452.917 L 128.000 452.917 L 130.000 452.917 L 132.000 452.917 L 134.000 452.917 L 136.000 452.917 L 138.000 452.917 L 140.000 452.917 L 142.000 452.917 L 144.000 479.502 L 146.000 479.502 L 148.000 479.502 L 150.000 479.502 L 152.000 479.502 L 154.000 479.502 L 156.000 479.502 L 158.000 479.502 L 160.000 479.502 L 162.000 479.502 L 164.000 479.502 L 166.000 479.502 L 168.000 479.502 L 170.000 479.502 L 172.000 479.502 L 174.000 479.502 L 176.000 479.502 L 178.000 479.502 L 180.000 479.502 L 182.000 479.502 L 184.000 479.502 L 186.000 479.502 L 188.000 479.502 L 190.000 479.502 L 192.000 479.502 L 194.000 479.502 L 196.000 479.502 L 198.000 483.332 L 200.000 483.332 L 202.000 483.332 L 204.000 483.332 L 206.000 483.332 L 208.000 483.332 L 210.000 483.332 L 212.000 483.332 L 214.000 483.332 L 216.000 483.332 L 218.000 483.332 L 220.000 483.332 L 222.000 483.332 L 224.000 483.332 L 226.000 483.332 L 228.000 483.332 L 230.000 483.332 L 232.000 483.332 L 234.000 483.332 L 236.000 483.332 L 238.000 483.332 L 240.000 483.332 L 242.000 483.332 L 244.000 483.332 L 246.000 483.332 L 248.000 483.332 L 250.000 483.332 L 252.000 483.332 L 254.000 483.332 L 256.000 483.332 L 258.000 483.332 L 260.000 483.332 L 262.000 479.517 L 264.000 479.517 L 266.000 479.517 L 268.000 479.517 L 270.000 479.517 L 272.000 479.517 L 274.000 479.517 L 276.000 479.517 L 278.000 479.517 L 280.000 479.517 L 282.000 479.517 L 284.000 479.517 L 286.000 479.517 L 288.000 479.517 L 290.000 479.517 L 292.000 479.517 L 294.000 479.517 L 296.000 479.517 L 298.000 479.517 L 300.000 479.517 L 302.000 479.517 L 304.000 479.517 L 306.000 479.517 L 308.000 479.517 L 310.000 479.517 L 312.000 479.517 L 314.000 479.517 L 316.000 479.517 L 318.000 479.517 L 320.000 479.517 L 322.000 479.517 L 324.000 459.184 L 326.000 459.184 L 328.000 459.184 L 330.000 459.184 L 332.000 459.184 L 334.000 459.184 L 336.000 459.184 L 338.000 459.184 L 340.000 459.184 L 342.000 459.184 L 344.000 459.184 L 346.000 459.184 L 348.000 459.184 L 350.000 459.184 L 352.000 459.184 L 354.000 459.184 L 356.000 459.184 L 358.000 459.184 L 360.000 459.184 L 362.000 459.184 L 364.000 459.184 L 366.000 459.184 L 368.000 459.184 L 370.000 459.184 L 372.000 459.184 L 374.000 459.184 L 376.000 459.184 L 378.000 459.184 L 380.000 459.184 L 382.000 459.184 L 384.000 459.184 L 386.000 459.184 L 388.000 459.184 L 390.000 464.523 L 392.000 464.523 L 394.000 464.523 L 396.000 464.523 L 398.000 464.523 L 400.000 464.523 L 402.000 464.523 L 404.000 464.523 L 406.000 464.523 L 408.000 464.523 L 410.000 464.523 L 412.000 464.523 L 414.000 464.523 L 416.000 464.523 L 418.000 464.523 L 420.000 464.523 L 422.000 464.523 L 424.000 464.523 L 426.000 464.523 L 428.000 464.523 L 430.000 464.523 L 432.000 464.523 L 434.000 464.523 L 436.000 464.523 L 438.000 464.523 L 440.000 464.523 L 442.000 464.523 L 444.000 478.081 L 446.000 478.081 L 448.000 478.081 L 450.000 478.081 L 452.000 478.081 L 454.000 478.081 L 456.000 478.081 L 458.000 478.081 L 460.000 478.081 L 462.000 478.081 L 464.000 478.081 L 466.000 478.081 L 468.000 478.081 L 470.000 478.081 L 472.000 478.081 L 474.000 478.081 L 476.000 478.081 L 478.000 478.081 L 480.000 478.081 L 482.000 478.081 L 484.000 478.081 L 486.000 478.081 L 488.000 478.081 L 490.000 478.081 L 492.000 478.081 L 494.000 478.081 L 496.000 478.081 L 498.000 478.081 L 500.000 478.081 L 502.000 478.081 L 504.000 478.081 L 506.000 478.081 L 508.000 478.081 L 510.000 478.081 L 512.000 478.081 L 514.000 478.081 L 516.000 478.081 L 518.000 478.081 L 520.000 478.081 L 522.000 447.231 L 524.000 447.231 L 526.000 447.231 L 528.000 447.231 L 530.000 447.231 L 532.000 447.231 L 534.000 447.231 L 536.000 447.231 L 538.000 447.231 L 540.000 447.231 L 542.000 447.231 L 544.000 447.231 L 546.000 447.231 L 548.000 447.231 L 550.000 447.231 L 552.000 447.231 L 554.000 447.231 L 556.000 447.231 L 558.000 447.231 L 560.000 447.231 L 562.000 479.312 L 564.000 479.312 L 566.000 479.312 L 568.000 479.312 L 570.000 479.312 L 572.000 479.312 L 574.000 479.312 L 576.000 479.312 L 578.000 479.312 L 580.000 479.312 L 582.000 479.312 L 584.000 479.312 L 586.000 479.312 L 588.000 479.312 L 590.000 479.312 L 592.000 479.312 L 594.000 479.312 L 596.000 479.312 L 598.000 479.312 L 600.000 459.333 L 602.000 459.333 L 604.000 459.333 L 606.000 459.333 L 608.000 459.333 L 610.000 459.333 L 612.000 459.333 L 614.000 459.333 L 616.000 459.333 L 618.000 459.333 L 620.000 459.333 L 622.000 459.333 L 624.000 459.333 L 626.000 459.333 L 628.000 459.333 L 630.000 459.333 L 632.000 459.333 L 634.000 459.333 L 636.000 459.333 L 638.000 459.333 L 640.000 459.333 L 642.000 459.333 L 644.000 459.333 L 646.000 459.333 L 648.000 459.333 L 650.000 459.333 L 652.000 459.333 L 654.000 459.333 L 656.000 459.333 L 658.000 459.333 L 660.000 459.333 L 662.000 409.133 L 664.000 409.133 L 666.000 409.133 L 668.000 409.133 L 670.000 409.133 L 672.000 409.133 L 674.000 409.133 L 676.000 409.133 L 678.000 409.133 L 680.000 409.133 L 682.000 409.133 L 684.000 409.133 L 686.000 409.133 L 688.000 409.133 L 690.000 409.133 L 692.000 409.133 L 694.000 409.133 L 696.000 409.133 L 698.000 409.133 L 700.000 409.133 L 702.000 409.133 L 704.000 409.133 L 706.000 409.133 L 708.000 409.133 L 710.000 409.133 L 712.000 409.133 L 714.000 409.133 L 716.000 409.133 L 718.000 409.133 L 720.000 409.133 L 722.000 409.133 L 724.000 409.133 L 726.000 409.133 L 728.000 409.133 L 730.000 409.133 L 732.000 409.133 L 734.000 409.133 L 736.000 409.133" fill="none" stroke="#ff9800" stroke-width="1" stroke-dasharray="6,4"/><text x="4.000" y="14.000" fill="#ff9800" font-size="12">base_bottom_edge</text></g></svg>