<svg xmlns="http://www.w3.org/2000/svg" width="737" height="539" viewBox="0 0 737 539"><rect x="0" y="0" width="100%" height="100%" fill="none" stroke="#ffffff" stroke-width="1"/><g id="bboxes"><rect x="268.736" y="345.694" width="72.000" height="57.000" fill="none" stroke="#00ff7f" stroke-width="1"/><rect x="411.390" y="323.700" width="76.000" height="49.000" fill="none" stroke="#00ff7f" stroke-width="1"/><rect x="528.692" y="272.449" width="54.000" height="61.000" fill="none" stroke="#00ff7f" stroke-width="1"/><rect x="389.266" y="395.523" width="54.000" height="69.000" fill="none" stroke="#00ff7f" stroke-width="1"/><rect x="628.324" y="348.133" width="52.000" height="61.000" fill="none" stroke="#00ff7f" stroke-width="1"/><rect x="661.500" y="450.294" width="52.000" height="56.000" fill="none" stroke="#00ff7f" stroke-width="1"/><rect x="520.286" y="362.231" width="40.000" height="85.000" fill="none" stroke="#00ff7f" stroke-width="1"/><rect x="560.670" y="348.615" width="68.000" height="47.000" fill="none" stroke="#00ff7f" stroke-width="1"/><rect x="509.009" y="197.943" width="44.000" height="75.000" fill="none" stroke="#00ff7f" stroke-width="1"/><rect x="443.026" y="372.525" width="61.000" height="61.000" fill="none" stroke="#00ff7f" stroke-width="1"/><rect x="598.597" y="409.333" width="63.000" height="50.000" fill="none" stroke="#00ff7f" stroke-width="1"/><rect x="260.892" y="411.517" width="62.000" height="68.000" fill="none" stroke="#00ff7f" stroke-width="1"/><rect x="487.386" y="279.762" width="41.000" height="83.000" fill="none" stroke="#00ff7f" stroke-width="1"/><rect x="443.642" y="433.081" width="77.000" height="45.000" fill="none" stroke="#00ff7f" stroke-width="1"/><rect x="680.206" y="384.089" width="48.000" height="66.000" fill="none" stroke="#00ff7f" stroke-width="1"/><rect x="467.297" y="197.691" width="42.000" height="82.000" fill="none" stroke="#00ff7f" stroke-width="1"/><rect x="597.137" y="169.228" width="84.000" height="39.000" fill="none" stroke="#00ff7f" stroke-width="1"/><rect x="611.214" y="208.707" width="58.000" height="56.000" fill="none" stroke="#00ff7f" stroke-width="1"/><rect x="560.795" y="395.312" width="38.000" height="84.000" fill="none" stroke="#00ff7f" stroke-width="1"/><rect x="600.227" y="482.929" width="61.000" height="38.000" fill="none" stroke="#00ff7f" stroke-width="1"/><rect x="504.044" y="482.511" width="51.000" height="47.000" fill="none" stroke="#00ff7f" stroke-width="1"/><rect x="556.000" y="482.354" width="45.000" height="53.000" fill="none" stroke="#00ff7f" stroke-width="1"/></g><g id="polys"><path d="M 328.834 394.505 L 332.244 380.471 L 327.198 345.694 L 269.061 353.861 L 268.736 386.061 L 319.936 387.040 Z" fill="none" stroke="#ff3b30" stroke-width="1"/><text x="330.834" y="406.505" fill="#ff3b30" font-size="10">91</text><path d="M 478.587 323.700 L 452.900 323.700 L 430.160 323.700 L 411.390 364.409 L 463.288 361.599 Z" fill="none" stroke="#ff3b30" stroke-width="1"/><text x="480.587" y="335.700" fill="#ff3b30" font-size="10">86</text><path d="M 574.196 308.062 L 574.196 275.877 L 544.871 272.449 L 539.494 296.437 L 528.692 299.167 L 528.731 324.518 L 551.016 320.864 L 567.571 317.873 Z" fill="none" stroke="#ff3b30" stroke-width="1"/><text x="576.196" y="320.062" fill="#ff3b30" font-size="10">23</text><path d="M 435.058 447.033 L 434.794 397.199 L 431.483 395.523 L 399.141 419.035 L 394.154 437.598 L 389.266 455.793 Z" fill="none" stroke="#ff3b30" stroke-width="1"/><text x="437.058" y="459.033" fill="#ff3b30" font-size="10">55</text><path d="M 632.312 375.921 L 628.324 384.474 L 647.789 400.219 L 672.273 401.006 L 671.941 391.557 L 671.253 366.386 L 632.110 348.133 L 629.223 350.225 Z" fill="none" stroke="#ff3b30" stroke-width="1"/><text x="634.312" y="387.921" fill="#ff3b30" font-size="10">31</text><path d="M 661.500 478.318 L 661.500 497.600 L 704.816 497.600 L 701.575 468.800 L 667.687 450.294 Z" fill="none" stroke="#ff3b30" stroke-width="1"/><text x="663.500" y="490.318" fill="#ff3b30" font-size="10">53</text><path d="M 520.286 405.577 L 528.604 421.655 L 537.523 438.821 L 541.055 438.947 L 551.949 421.214 L 551.810 391.396 L 547.359 376.440 L 526.821 362.231 L 523.283 364.646 L 527.524 382.552 Z" fill="none" stroke="#ff3b30" stroke-width="1"/><text x="522.286" y="417.577" fill="#ff3b30" font-size="10">45</text><path d="M 597.661 350.457 L 582.627 349.669 L 562.513 348.615 L 560.670 351.942 L 585.626 387.583 L 617.779 376.054 L 619.938 349.981 Z" fill="none" stroke="#ff3b30" stroke-width="1"/><text x="599.661" y="362.457" fill="#ff3b30" font-size="10">90</text><path d="M 509.356 228.668 L 509.009 262.497 L 512.106 264.262 L 530.667 253.010 L 544.395 237.116 L 541.148 221.906 L 517.239 197.943 L 513.677 199.122 Z" fill="none" stroke="#ff3b30" stroke-width="1"/><text x="511.356" y="240.668" fill="#ff3b30" font-size="10">14</text><path d="M 443.026 401.922 L 443.026 424.927 L 494.632 414.172 L 495.508 410.355 L 446.425 372.525 L 443.026 374.197 Z" fill="none" stroke="#ff3b30" stroke-width="1"/><text x="445.026" y="413.922" fill="#ff3b30" font-size="10">9</text><path d="M 630.105 411.763 L 600.753 409.333 L 598.597 415.357 L 618.135 423.430 L 599.135 447.198 L 600.946 450.724 L 640.082 448.659 L 649.437 429.645 L 649.749 427.877 L 653.002 409.430 Z" fill="none" stroke="#ff3b30" stroke-width="1"/><text x="632.105" y="423.763" fill="#ff3b30" font-size="10">38</text><path d="M 281.358 419.020 L 276.657 426.263 L 260.892 435.364 L 274.696 449.672 L 309.818 470.660 L 313.176 468.048 L 301.656 429.445 L 313.940 415.592 L 311.470 411.517 Z" fill="none" stroke="#ff3b30" stroke-width="1"/><text x="283.358" y="431.020" fill="#ff3b30" font-size="10">92</text><path d="M 495.572 305.015 L 487.386 322.573 L 515.376 354.295 L 519.600 352.509 L 516.986 318.645 L 518.678 289.496 L 491.932 279.762 L 489.213 282.281 Z" fill="none" stroke="#ff3b30" stroke-width="1"/><text x="497.572" y="317.015" fill="#ff3b30" font-size="10">56</text><path d="M 494.313 437.226 L 474.057 433.081 L 443.642 465.263 L 445.777 469.292 L 473.731 464.764 L 490.494 468.194 L 512.116 466.006 Z" fill="none" stroke="#ff3b30" stroke-width="1"/><text x="496.313" y="449.226" fill="#ff3b30" font-size="10">1</text><path d="M 680.206 424.731 L 700.506 441.604 L 713.916 419.176 L 720.104 408.512 L 708.970 399.377 L 715.675 384.089 L 691.863 384.101 Z" fill="none" stroke="#ff3b30" stroke-width="1"/><text x="682.206" y="436.731" fill="#ff3b30" font-size="10">89</text><path d="M 485.874 197.691 L 477.891 205.056 L 467.297 216.901 L 491.996 271.398 L 497.176 270.473 L 500.324 226.909 L 494.964 211.999 L 500.188 204.404 Z" fill="none" stroke="#ff3b30" stroke-width="1"/><text x="487.874" y="209.691" fill="#ff3b30" font-size="10">54</text><path d="M 672.276 175.701 L 671.084 170.836 L 622.625 169.228 L 597.137 190.616 L 598.193 194.410 L 630.234 199.421 Z" fill="none" stroke="#ff3b30" stroke-width="1"/><text x="674.276" y="187.701" fill="#ff3b30" font-size="10">98</text><path d="M 611.214 209.422 L 634.111 255.942 L 637.924 255.921 L 660.514 208.707 Z" fill="none" stroke="#ff3b30" stroke-width="1"/><text x="613.214" y="221.422" fill="#ff3b30" font-size="10">71</text><path d="M 585.012 449.862 L 590.702 421.345 L 583.222 395.312 L 560.795 412.353 L 569.826 444.017 L 561.554 467.440 L 566.723 470.486 Z" fill="none" stroke="#ff3b30" stroke-width="1"/><text x="587.012" y="461.862" fill="#ff3b30" font-size="10">49</text><path d="M 635.110 488.155 L 600.227 485.510 L 605.501 510.219 L 625.355 512.503 L 645.610 511.910 L 644.196 498.951 L 652.326 486.536 L 649.469 482.929 Z" fill="none" stroke="#ff3b30" stroke-width="1"/><text x="637.110" y="500.155" fill="#ff3b30" font-size="10">40</text><path d="M 504.044 521.000 L 524.200 521.000 L 541.376 521.000 L 538.147 504.979 L 546.563 485.414 L 543.974 482.511 L 513.854 491.571 Z" fill="none" stroke="#ff3b30" stroke-width="1"/><text x="506.044" y="533.000" fill="#ff3b30" font-size="10">47</text><path d="M 556.000 525.192 L 560.154 526.692 L 592.167 488.127 L 590.703 484.713 L 556.000 482.354 Z" fill="none" stroke="#ff3b30" stroke-width="1"/><text x="558.000" y="537.192" fill="#ff3b30" font-size="10">16</text></g></svg>