<svg xmlns="http://www.w3.org/2000/svg" width="737" height="539" viewBox="0 0 737 539"><rect x="0" y="0" width="100%" height="100%" fill="none" stroke="#ffffff" stroke-width="1"/><g id="bboxes"><rect x="5.919" y="5.090" width="48.000" height="61.000" fill="none" stroke="#00ff7f" stroke-width="1"/><text x="7.919" y="17.090" fill="#00ff7f" font-size="10">0</text><rect x="5.240" y="261.218" width="48.000" height="57.000" fill="none" stroke="#00ff7f" stroke-width="1"/><text x="7.240" y="273.218" fill="#00ff7f" font-size="10">1</text><rect x="5.576" y="192.018" width="40.000" height="69.000" fill="none" stroke="#00ff7f" stroke-width="1"/><text x="7.576" y="204.018" fill="#00ff7f" font-size="10">2</text><rect x="5.711" y="127.532" width="43.000" height="66.000" fill="none" stroke="#00ff7f" stroke-width="1"/><text x="7.711" y="139.532" fill="#00ff7f" font-size="10">3</text><rect x="45.344" y="192.641" width="38.000" height="69.000" fill="none" stroke="#00ff7f" stroke-width="1"/><text x="47.344" y="204.641" fill="#00ff7f" font-size="10">4</text><rect x="48.299" y="127.506" width="42.000" height="60.000" fill="none" stroke="#00ff7f" stroke-width="1"/><text x="50.299" y="139.506" fill="#00ff7f" font-size="10">5</text><rect x="52.099" y="66.438" width="41.000" height="58.000" fill="none" stroke="#00ff7f" stroke-width="1"/><text x="54.099" y="78.438" fill="#00ff7f" font-size="10">6</text><rect x="5.947" y="66.683" width="47.000" height="61.000" fill="none" stroke="#00ff7f" stroke-width="1"/><text x="7.947" y="78.683" fill="#00ff7f" font-size="10">7</text><rect x="53.461" y="5.081" width="33.000" height="61.000" fill="none" stroke="#00ff7f" stroke-width="1"/><text x="55.461" y="17.081" fill="#00ff7f" font-size="10">8</text><rect x="93.099" y="0" width="643.901" height="539.000" fill="none" stroke="#ff5252" stroke-width="1" stroke-dasharray="6,4"/><text x="99.099" y="16" fill="#ff5252" font-size="12">right_gap</text><rect x="0" y="318.218" width="93.099" height="220.782" fill="none" stroke="#ff5252" stroke-width="1" stroke-dasharray="6,4"/><text x="6" y="334.218" fill="#ff5252" font-size="12">bottom_gap</text><text x="6" y="14" fill="#ffffff" font-size="12">visible=9</text><path d="M 86.461 6.000 L 86.461 8.000 L 86.461 10.000 L 86.461 12.000 L 86.461 14.000 L 86.461 16.000 L 86.461 18.000 L 86.461 20.000 L 86.461 22.000 L 86.461 24.000 L 86.461 26.000 L 86.461 28.000 L 86.461 30.000 L 86.461 32.000 L 86.461 34.000 L 86.461 36.000 L 86.461 38.000 L 86.461 40.000 L 86.461 42.000 L 86.461 44.000 L 86.461 46.000 L 86.461 48.000 L 86.461 50.000 L 86.461 52.000 L 86.461 54.000 L 86.461 56.000 L 86.461 58.000 L 86.461 60.000 L 86.461 62.000 L 86.461 64.000 L 86.461 66.000 L 93.099 68.000 L 93.099 70.000 L 93.099 72.000 L 93.099 74.000 L 93.099 76.000 L 93.099 78.000 L 93.099 80.000 L 93.099 82.000 L 93.099 84.000 L 93.099 86.000 L 93.099 88.000 L 93.099 90.000 L 93.099 92.000 L 93.099 94.000 L 93.099 96.000 L 93.099 98.000 L 93.099 100.000 L 93.099 102.000 L 93.099 104.000 L 93.099 106.000 L 93.099 108.000 L 93.099 110.000 L 93.099 112.000 L 93.099 114.000 L 93.099 116.000 L 93.099 118.000 L 93.099 120.000 L 93.099 122.000 L 93.099 124.000 L 52.947 126.000 L 90.299 128.000 L 90.299 130.000 L 90.299 132.000 L 90.299 134.000 L 90.299 136.000 L 90.299 138.000 L 90.299 140.000 L 90.299 142.000 L 90.299 144.000 L 90.299 146.000 L 90.299 148.000 L 90.299 150.000 L 90.299 152.000 L 90.299 154.000 L 90.299 156.000 L 90.299 158.000 L 90.299 160.000 L 90.299 162.000 L 90.299 164.000 L 90.299 166.000 L 90.299 168.000 L 90.299 170.000 L 90.299 172.000 L 90.299 174.000 L 90.299 176.000 L 90.299 178.000 L 90.299 180.000 L 90.299 182.000 L 90.299 184.000 L 90.299 186.000 L 48.711 188.000 L 48.711 190.000 L 48.711 192.000 L 83.344 194.000 L 83.344 196.000 L 83.344 198.000 L 83.344 200.000 L 83.344 202.000 L 83.344 204.000 L 83.344 206.000 L 83.344 208.000 L 83.344 210.000 L 83.344 212.000 L 83.344 214.000 L 83.344 216.000 L 83.344 218.000 L 83.344 220.000 L 83.344 222.000 L 83.344 224.000 L 83.344 226.000 L 83.344 228.000 L 83.344 230.000 L 83.344 232.000 L 83.344 234.000 L 83.344 236.000 L 83.344 238.000 L 83.344 240.000 L 83.344 242.000 L 83.344 244.000 L 83.344 246.000 L 83.344 248.000 L 83.344 250.000 L 83.344 252.000 L 83.344 254.000 L 83.344 256.000 L 83.344 258.000 L 83.344 260.000 L 53.240 262.000 L 53.240 264.000 L 53.240 266.000 L 53.240 268.000 L 53.240 270.000 L 53.240 272.000 L 53.240 274.000 L 53.240 276.000 L 53.240 278.000 L 53.240 280.000 L 53.240 282.000 L 53.240 284.000 L 53.240 286.000 L 53.240 288.000 L 53.240 290.000 L 53.240 292.000 L 53.240 294.000 L 53.240 296.000 L 53.240 298.000 L 53.240 300.000 L 53.240 302.000 L 53.240 304.000 L 53.240 306.000 L 53.240 308.000 L 53.240 310.000 L 53.240 312.000 L 53.240 314.000 L 53.240 316.000 L 53.240 318.000" fill="none" stroke="#ff9800" stroke-width="1" stroke-dasharray="6,4"/><text x="90.461" y="16.000" fill="#ff9800" font-size="12">base_right_edge</text><path d="M 0.000 0.000 L 2.000 0.000 L 4.000 0.000 L 6.000 318.218 L 8.000 318.218 L 10.000 318.218 L 12.000 318.218 L 14.000 318.218 L 16.000 318.218 L 18.000 318.218 L 20.000 318.218 L 22.000 318.218 L 24.000 318.218 L 26.000 318.218 L 28.000 318.218 L 30.000 318.218 L 32.000 318.218 L 34.000 318.218 L 36.000 318.218 L 38.000 318.218 L 40.000 318.218 L 42.000 318.218 L 44.000 318.218 L 46.000 318.218 L 48.000 318.218 L 50.000 318.218 L 52.000 318.218 L 54.000 261.641 L 56.000 261.641 L 58.000 261.641 L 60.000 261.641 L 62.000 261.641 L 64.000 261.641 L 66.000 261.641 L 68.000 261.641 L 70.000 261.641 L 72.000 261.641 L 74.000 261.641 L 76.000 261.641 L 78.000 261.641 L 80.000 261.641 L 82.000 261.641 L 84.000 187.506 L 86.000 187.506 L 88.000 187.506 L 90.000 187.506 L 92.000 124.438 L 94.000 124.438 L 96.000 124.438 L 98.000 124.438 L 100.000 124.438 L 102.000 124.438 L 104.000 124.438 L 106.000 124.438 L 108.000 124.438 L 110.000 124.438 L 112.000 124.438 L 114.000 124.438 L 116.000 124.438 L 118.000 124.438 L 120.000 124.438 L 122.000 124.438 L 124.000 124.438 L 126.000 124.438 L 128.000 124.438 L 130.000 124.438 L 132.000 124.438 L 134.000 124.438 L 136.000 124.438 L 138.000 124.438 L 140.000 124.438 L 142.000 124.438 L 144.000 124.438 L 146.000 124.438 L 148.000 124.438 L 150.000 124.438 L 152.000 124.438 L 154.000 124.438 L 156.000 124.438 L 158.000 124.438 L 160.000 124.438 L 162.000 124.438 L 164.000 124.438 L 166.000 124.438 L 168.000 124.438 L 170.000 124.438 L 172.000 124.438 L 174.000 124.438 L 176.000 124.438 L 178.000 124.438 L 180.000 124.438 L 182.000 124.438 L 184.000 124.438 L 186.000 124.438 L 188.000 124.438 L 190.000 124.438 L 192.000 124.438 L 194.000 124.438 L 196.000 124.438 L 198.000 124.438 L 200.000 124.438 L 202.000 124.438 L 204.000 124.438 L 206.000 124.438 L 208.000 124.438 L 210.000 124.438 L 212.000 124.438 L 214.000 124.438 L 216.000 124.438 L 218.000 124.438 L 220.000 124.438 L 222.000 124.438 L 224.000 124.438 L 226.000 124.438 L 228.000 124.438 L 230.000 124.438 L 232.000 124.438 L 234.000 124.438 L 236.000 124.438 L 238.000 124.438 L 240.000 124.438 L 242.000 124.438 L 244.000 124.438 L 246.000 124.438 L 248.000 124.438 L 250.000 124.438 L 252.000 124.438 L 254.000 124.438 L 256.000 124.438 L 258.000 124.438 L 260.000 124.438 L 262.000 124.438 L 264.000 124.438 L 266.000 124.438 L 268.000 124.438 L 270.000 124.438 L 272.000 124.438 L 274.000 124.438 L 276.000 124.438 L 278.000 124.438 L 280.000 124.438 L 282.000 124.438 L 284.000 124.438 L 286.000 124.438 L 288.000 124.438 L 290.000 124.438 L 292.000 124.438 L 294.000 124.438 L 296.000 124.438 L 298.000 124.438 L 300.000 124.438 L 302.000 124.438 L 304.000 124.438 L 306.000 124.438 L 308.000 124.438 L 310.000 124.438 L 312.000 124.438 L 314.000 124.438 L 316.000 124.438 L 318.000 124.438 L 320.000 124.438 L 322.000 124.438 L 324.000 124.438 L 326.000 124.438 L 328.000 124.438 L 330.000 124.438 L 332.000 124.438 L 334.000 124.438 L 336.000 124.438 L 338.000 124.438 L 340.000 124.438 L 342.000 124.438 L 344.000 124.438 L 346.000 124.438 L 348.000 124.438 L 350.000 124.438 L 352.000 124.438 L 354.000 124.438 L 356.000 124.438 L 358.000 124.438 L 360.000 124.438 L 362.000 124.438 L 364.000 124.438 L 366.000 124.438 L 368.000 124.438 L 370.000 124.438 L 372.000 124.438 L 374.000 124.438 L 376.000 124.438 L 378.000 124.438 L 380.000 124.438 L 382.000 124.438 L 384.000 124.438 L 386.000 124.438 L 388.000 124.438 L 390.000 124.438 L 392.000 124.438 L 394.000 124.438 L 396.000 124.438 L 398.000 124.438 L 400.000 124.438 L 402.000 124.438 L 404.000 124.438 L 406.000 124.438 L 408.000 124.438 L 410.000 124.438 L 412.000 124.438 L 414.000 124.438 L 416.000 124.438 L 418.000 124.438 L 420.000 124.438 L 422.000 124.438 L 424.000 124.438 L 426.000 124.438 L 428.000 124.438 L 430.000 124.438 L 432.000 124.438 L 434.000 124.438 L 436.000 124.438 L 438.000 124.438 L 440.000 124.438 L 442.000 124.438 L 444.000 124.438 L 446.000 124.438 L 448.000 124.438 L 450.000 124.438 L 452.000 124.438 L 454.000 124.438 L 456.000 124.438 L 458.000 124.438 L 460.000 124.438 L 462.000 124.438 L 464.000 124.438 L 466.000 124.438 L 468.000 124.438 L 470.000 124.438 L 472.000 124.438 L 474.000 124.438 L 476.000 124.438 L 478.000 124.438 L 480.000 124.438 L 482.000 124.438 L 484.000 124.438 L 486.000 124.438 L 488.000 124.438 L 490.000 124.438 L 492.000 124.438 L 494.000 124.438 L 496.000 124.438 L 498.000 124.438 L 500.000 124.438 L 502.000 124.438 L 504.000 124.438 L 506.000 124.438 L 508.000 124.438 L 510.000 124.438 L 512.000 124.438 L 514.000 124.438 L 516.000 124.438 L 518.000 124.438 L 520.000 124.438 L 522.000 124.438 L 524.000 124.438 L 526.000 124.438 L 528.000 124.438 L 530.000 124.438 L 532.000 124.438 L 534.000 124.438 L 536.000 124.438 L 538.000 124.438 L 540.000 124.438 L 542.000 124.438 L 544.000 124.438 L 546.000 124.438 L 548.000 124.438 L 550.000 124.438 L 552.000 124.438 L 554.000 124.438 L 556.000 124.438 L 558.000 124.438 L 560.000 124.438 L 562.000 124.438 L 564.000 124.438 L 566.000 124.438 L 568.000 124.438 L 570.000 124.438 L 572.000 124.438 L 574.000 124.438 L 576.000 124.438 L 578.000 124.438 L 580.000 124.438 L 582.000 124.438 L 584.000 124.438 L 586.000 124.438 L 588.000 124.438 L 590.000 124.438 L 592.000 124.438 L 594.000 124.438 L 596.000 124.438 L 598.000 124.438 L 600.000 124.438 L 602.000 124.438 L 604.000 124.438 L 606.000 124.438 L 608.000 124.438 L 610.000 124.438 L 612.000 124.438 L 614.000 124.438 L 616.000 124.438 L 618.000 124.438 L 620.000 124.438 L 622.000 124.438 L 624.000 124.438 L 626.000 124.438 L 628.000 124.438 L 630.000 124.438 L 632.000 124.438 L 634.000 124.438 L 636.000 124.438 L 638.000 124.438 L 640.000 124.438 L 642.000 124.438 L 644.000 124.438 L 646.000 124.438 L 648.000 124.438 L 650.000 124.438 L 652.000 124.438 L 654.000 124.438 L 656.000 124.438 L 658.000 124.438 L 660.000 124.438 L 662.000 124.438 L 664.000 124.438 L 666.000 124.438 L 668.000 124.438 L 670.000 124.438 L 672.000 124.438 L 674.000 124.438 L 676.000 124.438 L 678.000 124.438 L 680.000 124.438 L 682.000 124.438 L 684.000 124.438 L 686.000 124.438 L 688.000 124.438 L 690.000 124.438 L 692.000 124.438 L 694.000 124.438 L 696.000 124.438 L 698.000 124.438 L 700.000 124.438 L 702.000 124.438 L 704.000 124.438 L 706.000 124.438 L 708.000 124.438 L 710.000 124.438 L 712.000 124.438 L 714.000 124.438 L 716.000 124.438 L 718.000 124.438 L 720.000 124.438 L 722.000 124.438 L 724.000 124.438 L 726.000 124.438 L 728.000 124.438 L 730.000 124.438 L 732.000 124.438 L 734.000 124.438 L 736.000 124.438" fill="none" stroke="#ff9800" stroke-width="1" stroke-dasharray="6,4"/><text x="4.000" y="14.000" fill="#ff9800" font-size="12">base_bottom_edge</text></g></svg>