<svg xmlns="http://www.w3.org/2000/svg" width="737" height="539" viewBox="0 0 737 539"><rect x="0" y="0" width="100%" height="100%" fill="none" stroke="#ffffff" stroke-width="1"/><g id="bboxes"><rect x="308.525" y="179.924" width="60.000" height="63.000" fill="none" stroke="#00ff7f" stroke-width="1"/><rect x="278.181" y="261.398" width="62.000" height="61.000" fill="none" stroke="#00ff7f" stroke-width="1"/><rect x="499.692" y="183.449" width="54.000" height="61.000" fill="none" stroke="#00ff7f" stroke-width="1"/><rect x="319.266" y="322.523" width="54.000" height="69.000" fill="none" stroke="#00ff7f" stroke-width="1"/><rect x="460.265" y="321.547" width="71.000" height="47.000" fill="none" stroke="#00ff7f" stroke-width="1"/><rect x="574.919" y="361.090" width="48.000" height="61.000" fill="none" stroke="#00ff7f" stroke-width="1"/><rect x="607.500" y="422.294" width="52.000" height="56.000" fill="none" stroke="#00ff7f" stroke-width="1"/><rect x="365.367" y="391.791" width="47.000" height="78.000" fill="none" stroke="#00ff7f" stroke-width="1"/><rect x="567.588" y="223.617" width="48.000" height="65.000" fill="none" stroke="#00ff7f" stroke-width="1"/><rect x="318.597" y="392.250" width="47.000" height="80.000" fill="none" stroke="#00ff7f" stroke-width="1"/><rect x="412.799" y="384.298" width="45.000" height="77.000" fill="none" stroke="#00ff7f" stroke-width="1"/><rect x="665.030" y="295.754" width="44.000" height="65.000" fill="none" stroke="#00ff7f" stroke-width="1"/><rect x="622.051" y="327.872" width="43.000" height="68.000" fill="none" stroke="#00ff7f" stroke-width="1"/><rect x="680.611" y="420.972" width="49.000" height="65.000" fill="none" stroke="#00ff7f" stroke-width="1"/><rect x="509.526" y="244.636" width="58.000" height="56.000" fill="none" stroke="#00ff7f" stroke-width="1"/><rect x="680.486" y="485.442" width="53.000" height="52.000" fill="none" stroke="#00ff7f" stroke-width="1"/><rect x="497.795" y="368.312" width="38.000" height="84.000" fill="none" stroke="#00ff7f" stroke-width="1"/><rect x="535.486" y="361.844" width="39.000" height="78.000" fill="none" stroke="#00ff7f" stroke-width="1"/><rect x="535.826" y="439.645" width="72.000" height="41.000" fill="none" stroke="#00ff7f" stroke-width="1"/><rect x="536.036" y="481.517" width="64.000" height="34.000" fill="none" stroke="#00ff7f" stroke-width="1"/><rect x="456.418" y="481.368" width="40.000" height="56.000" fill="none" stroke="#00ff7f" stroke-width="1"/><rect x="583.559" y="288.829" width="79.000" height="39.000" fill="none" stroke="#00ff7f" stroke-width="1"/><rect x="414.744" y="481.669" width="42.000" height="54.000" fill="none" stroke="#00ff7f" stroke-width="1"/><rect x="286.192" y="481.492" width="57.000" height="40.000" fill="none" stroke="#00ff7f" stroke-width="1"/><rect x="600.402" y="481.571" width="46.000" height="47.000" fill="none" stroke="#00ff7f" stroke-width="1"/><rect x="496.645" y="481.883" width="40.000" height="56.000" fill="none" stroke="#00ff7f" stroke-width="1"/></g><g id="polys"><path d="M 351.820 214.842 L 360.082 209.231 L 356.293 179.924 L 312.081 189.570 L 308.525 232.329 L 331.896 234.006 L 358.989 234.443 Z" fill="none" stroke="#ff3b30" stroke-width="1"/><text x="353.820" y="226.842" fill="#ff3b30" font-size="10">84</text><path d="M 317.644 292.861 L 332.012 266.731 L 330.026 263.684 L 313.293 265.148 L 312.497 265.217 L 293.207 261.398 L 278.181 272.248 L 281.759 313.146 L 313.692 313.542 Z" fill="none" stroke="#ff3b30" stroke-width="1"/><text x="319.644" y="304.861" fill="#ff3b30" font-size="10">110</text><path d="M 545.196 219.062 L 545.196 186.877 L 515.871 183.449 L 510.494 207.437 L 499.692 210.167 L 499.731 235.518 L 522.016 231.864 L 538.571 228.873 Z" fill="none" stroke="#ff3b30" stroke-width="1"/><text x="547.196" y="231.062" fill="#ff3b30" font-size="10">35</text><path d="M 365.058 374.033 L 364.794 324.199 L 361.483 322.523 L 329.141 346.035 L 324.154 364.598 L 319.266 382.793 Z" fill="none" stroke="#ff3b30" stroke-width="1"/><text x="367.058" y="386.033" fill="#ff3b30" font-size="10">45</text><path d="M 522.623 333.302 L 499.490 322.383 L 467.036 321.547 L 460.265 360.096 L 483.080 356.563 L 499.254 358.122 Z" fill="none" stroke="#ff3b30" stroke-width="1"/><text x="524.623" y="345.302" fill="#ff3b30" font-size="10">50</text><path d="M 577.005 413.274 L 613.459 406.771 L 611.593 375.677 L 614.428 365.491 L 588.774 361.090 L 574.919 379.404 Z" fill="none" stroke="#ff3b30" stroke-width="1"/><text x="579.005" y="425.274" fill="#ff3b30" font-size="10">86</text><path d="M 607.500 450.318 L 607.500 469.600 L 650.816 469.600 L 647.575 440.800 L 613.687 422.294 Z" fill="none" stroke="#ff3b30" stroke-width="1"/><text x="609.500" y="462.318" fill="#ff3b30" font-size="10">116</text><path d="M 401.787 461.027 L 404.146 434.066 L 371.195 391.791 L 367.003 393.154 L 365.367 442.483 Z" fill="none" stroke="#ff3b30" stroke-width="1"/><text x="403.787" y="473.027" fill="#ff3b30" font-size="10">89</text><path d="M 604.398 265.330 L 606.737 242.378 L 568.298 223.617 L 567.588 255.740 L 574.998 280.102 Z" fill="none" stroke="#ff3b30" stroke-width="1"/><text x="606.398" y="277.330" fill="#ff3b30" font-size="10">10</text><path d="M 353.977 430.992 L 354.640 393.566 L 349.162 392.250 L 336.530 418.140 L 318.597 440.879 L 334.584 463.710 L 356.913 460.339 Z" fill="none" stroke="#ff3b30" stroke-width="1"/><text x="355.977" y="442.992" fill="#ff3b30" font-size="10">99</text><path d="M 444.864 434.969 L 449.009 414.712 L 416.828 384.298 L 412.799 386.432 L 417.327 414.386 L 413.896 431.149 L 416.085 452.771 Z" fill="none" stroke="#ff3b30" stroke-width="1"/><text x="446.864" y="446.969" fill="#ff3b30" font-size="10">40</text><path d="M 667.971 312.480 L 665.030 342.599 L 700.949 352.406 L 697.856 318.857 L 691.310 295.754 Z" fill="none" stroke="#ff3b30" stroke-width="1"/><text x="669.971" y="324.480" fill="#ff3b30" font-size="10">22</text><path d="M 656.392 338.916 L 632.416 327.872 L 625.268 353.007 L 622.051 364.909 L 635.170 370.852 L 632.651 387.354 L 655.648 381.179 Z" fill="none" stroke="#ff3b30" stroke-width="1"/><text x="658.392" y="350.916" fill="#ff3b30" font-size="10">76</text><path d="M 692.195 433.338 L 683.663 444.751 L 680.611 453.790 L 684.270 477.506 L 707.196 464.405 L 721.311 441.974 L 717.008 420.972 Z" fill="none" stroke="#ff3b30" stroke-width="1"/><text x="694.195" y="445.338" fill="#ff3b30" font-size="10">85</text><path d="M 538.910 247.325 L 509.526 271.463 L 558.782 291.896 L 557.397 244.636 Z" fill="none" stroke="#ff3b30" stroke-width="1"/><text x="540.910" y="259.325" fill="#ff3b30" font-size="10">44</text><path d="M 691.586 485.442 L 688.694 487.647 L 691.515 505.028 L 691.343 505.775 L 680.486 514.483 L 687.817 529.145 L 705.861 529.145 L 717.256 525.951 L 718.886 519.166 L 724.823 507.521 L 718.337 497.673 Z" fill="none" stroke="#ff3b30" stroke-width="1"/><text x="693.586" y="497.442" fill="#ff3b30" font-size="10">7</text><path d="M 522.012 422.862 L 527.702 394.345 L 520.222 368.312 L 497.795 385.353 L 506.826 417.017 L 498.554 440.440 L 503.723 443.486 Z" fill="none" stroke="#ff3b30" stroke-width="1"/><text x="524.012" y="434.862" fill="#ff3b30" font-size="10">95</text><path d="M 565.657 419.192 L 541.285 361.844 L 535.486 363.043 L 535.885 431.189 L 546.077 430.497 Z" fill="none" stroke="#ff3b30" stroke-width="1"/><text x="567.657" y="431.192" fill="#ff3b30" font-size="10">119</text><path d="M 597.134 471.904 L 599.374 468.612 L 587.796 449.925 L 571.136 439.645 L 551.721 455.937 L 535.826 465.404 L 537.185 470.298 L 560.658 470.188 L 575.090 467.910 Z" fill="none" stroke="#ff3b30" stroke-width="1"/><text x="599.134" y="483.904" fill="#ff3b30" font-size="10">87</text><path d="M 575.448 482.469 L 560.810 482.716 L 536.036 481.517 L 539.417 504.625 L 562.810 505.772 L 568.564 506.786 L 577.804 503.285 L 591.335 500.458 Z" fill="none" stroke="#ff3b30" stroke-width="1"/><text x="577.448" y="494.469" fill="#ff3b30" font-size="10">73</text><path d="M 488.270 501.369 L 459.992 481.368 L 456.719 483.048 L 456.418 528.901 L 481.527 519.895 Z" fill="none" stroke="#ff3b30" stroke-width="1"/><text x="490.270" y="513.369" fill="#ff3b30" font-size="10">17</text><path d="M 654.254 294.623 L 652.640 289.830 L 610.783 292.184 L 585.472 288.829 L 583.559 294.554 L 613.656 311.514 L 616.992 311.157 L 617.967 319.085 Z" fill="none" stroke="#ff3b30" stroke-width="1"/><text x="656.254" y="306.623" fill="#ff3b30" font-size="10">37</text><path d="M 415.321 523.937 L 418.516 527.001 L 447.195 512.744 L 448.713 485.225 L 443.676 483.652 L 436.105 496.000 L 418.493 481.669 L 414.744 483.872 L 419.970 513.511 Z" fill="none" stroke="#ff3b30" stroke-width="1"/><text x="417.321" y="535.937" fill="#ff3b30" font-size="10">90</text><path d="M 318.235 481.492 L 312.253 482.331 L 286.654 486.178 L 286.192 491.587 L 300.856 496.439 L 334.403 513.064 L 334.825 482.008 Z" fill="none" stroke="#ff3b30" stroke-width="1"/><text x="320.235" y="493.492" fill="#ff3b30" font-size="10">56</text><path d="M 610.988 481.571 L 607.090 482.518 L 600.402 520.472 L 636.379 520.472 L 638.054 517.090 Z" fill="none" stroke="#ff3b30" stroke-width="1"/><text x="612.988" y="493.571" fill="#ff3b30" font-size="10">103</text><path d="M 496.645 524.173 L 498.110 529.114 L 527.398 528.257 L 528.455 509.802 L 502.404 481.883 L 498.152 483.038 L 498.858 489.740 L 508.778 516.782 Z" fill="none" stroke="#ff3b30" stroke-width="1"/><text x="498.645" y="536.173" fill="#ff3b30" font-size="10">58</text></g></svg>