<?xml version="1.0" encoding="UTF-8"?>
<svg xmlns="http://www.w3.org/2000/svg" version="1.1" xmlns:xlink="http://www.w3.org/1999/xlink" viewBox="0 0 737 539">
  <!-- Generator: Adobe Illustrator 30.0.0, SVG Export Plug-In . SVG Version: 2.1.1 Build 123)  -->
  <defs>
    <style>
      .st0 {
        fill: none;
        stroke: #000;
        stroke-miterlimit: 10;
      }
    </style>
  </defs>
  <g id="Layer_2">
    <image width="2949" height="2155" transform="translate(.4 -.4) scale(.2)" xlink:href="Hoa Sen Tháp Mười.png"/>
  </g>
  <g id="Layer_1">
    <polygon class="st0" points="241.7 367.5 232 361.8 223.4 380 241.7 367.5"/>
    <polygon class="st0" points="166.4 417.8 216.2 352.6 223.4 380 166.4 417.8"/>
    <polygon class="st0" points="223.4 380 216.2 352.6 232 361.8 223.4 380"/>
    <polygon class="st0" points="101.6 445.5 139.5 453.1 130.8 426.6 101.6 445.5"/>
    <polygon class="st0" points="55.2 453.9 101.6 445.5 139.5 453.1 55.2 453.9"/>
    <polygon class="st0" points="55.2 453.9 139.5 453.1 192.3 470.8 55.2 453.9"/>
    <polygon class="st0" points="192.3 470.8 139.5 453.1 171.3 457.9 192.3 470.8"/>
    <polygon class="st0" points="192.3 470.8 55.2 453.9 124.6 481.8 192.3 470.8"/>
    <polygon class="st0" points="171.3 457.9 164.5 438.8 204.9 430.9 171.3 457.9"/>
    <polygon class="st0" points="171.3 457.9 204.9 430.9 206.1 458.5 171.3 457.9"/>
    <polygon class="st0" points="204.9 430.9 164.5 438.8 166.4 417.8 204.9 430.9"/>
    <polygon class="st0" points="171.3 457.9 164.5 438.8 139.5 453.1 171.3 457.9"/>
    <polygon class="st0" points="219.6 387.7 245.9 377.6 289 397.6 219.6 387.7"/>
    <polygon class="st0" points="289 397.6 245.9 377.6 247 377.3 289 397.6"/>
    <polygon class="st0" points="289 397.6 247 377.3 261.4 369.4 289 397.6"/>
    <polygon class="st0" points="214.6 398.4 219.6 387.7 266.9 413.2 214.6 398.4"/>
    <polygon class="st0" points="330.4 438 266.9 413.2 289 397.6 330.4 438"/>
    <polygon class="st0" points="289 397.6 266.9 413.2 219.6 387.7 289 397.6"/>
    <polygon class="st0" points="330.4 438 317.9 397.6 368.3 392.7 330.4 438"/>
    <polygon class="st0" points="368.3 392.7 317.9 397.6 330.3 372.5 368.3 392.7"/>
    <polygon class="st0" points="317.9 397.6 330.3 372.5 284.4 369.6 317.9 397.6"/>
    <polygon class="st0" points="330.4 438 368.3 392.7 360.4 413.7 330.4 438"/>
    <polygon class="st0" points="330.4 438 360.4 413.7 361.5 418.4 330.4 438"/>
    <polygon class="st0" points="361.5 418.4 360.4 413.7 398.3 400.5 361.5 418.4"/>
    <polygon class="st0" points="361.5 418.4 398.3 400.5 403.3 401.9 361.5 418.4"/>
    <polygon class="st0" points="361.5 418.4 403.3 401.9 412.5 404.2 361.5 418.4"/>
    <polygon class="st0" points="368.3 392.7 398.3 400.5 360.4 413.7 368.3 392.7"/>
    <polygon class="st0" points="330.4 438 361.5 418.4 401.1 427.4 330.4 438"/>
    <polygon class="st0" points="439.5 430.8 429.9 429.2 412.5 404.2 439.5 430.8"/>
    <polygon class="st0" points="412.5 404.2 429.9 429.2 412.3 425.4 412.5 404.2"/>
    <polygon class="st0" points="412.5 404.2 412.3 425.4 401.1 427.4 412.5 404.2"/>
    <polygon class="st0" points="412.5 404.2 401.1 427.4 361.5 418.4 412.5 404.2"/>
    <polygon class="st0" points="279 438.8 277.2 461.4 317.3 456.4 279 438.8"/>
    <polygon class="st0" points="277.2 461.4 279 438.8 250.7 445.2 277.2 461.4"/>
    <polygon class="st0" points="279 438.8 317.3 456.4 330.4 438 279 438.8"/>
    <polygon class="st0" points="347.9 471.9 369.4 457.5 317.3 456.4 347.9 471.9"/>
    <polygon class="st0" points="369.4 457.5 347.9 471.9 390.9 477.3 369.4 457.5"/>
    <polygon class="st0" points="303.8 474.5 331.4 472.8 326.7 484.4 303.8 474.5"/>
    <polygon class="st0" points="326.7 484.4 331.4 472.8 347.9 471.9 326.7 484.4"/>
    <polygon class="st0" points="326.7 484.4 347.9 471.9 390.9 477.3 326.7 484.4"/>
    <polygon class="st0" points="317.3 456.4 369.4 457.5 330.4 438 317.3 456.4"/>
    <polygon class="st0" points="443.1 448.6 439.9 433.8 468 447.1 443.1 448.6"/>
    <polygon class="st0" points="468 447.1 439.9 433.8 492.6 440.8 468 447.1"/>
    <polygon class="st0" points="439.9 433.8 492.6 440.8 515.4 434.2 439.9 433.8"/>
    <polygon class="st0" points="622.8 480.5 563.3 471.1 570.1 478.2 622.8 480.5"/>
    <polygon class="st0" points="563.3 471.1 622.8 480.5 583 469.9 563.3 471.1"/>
    <polygon class="st0" points="457.8 205.2 414.2 219 454.8 210.2 457.8 205.2"/>
    <polygon class="st0" points="414.2 219 457.8 205.2 452 200.7 414.2 219"/>
    <polygon class="st0" points="513.5 348.9 512.8 363.3 537.8 368.3 513.5 348.9"/>
    <polygon class="st0" points="491.6 350.5 499.4 336.3 513.5 348.9 491.6 350.5"/>
    <polygon class="st0" points="491.6 350.5 513.5 348.9 512.8 363.3 491.6 350.5"/>
    <polygon class="st0" points="466.3 278 467.1 318.4 485.9 310.7 466.3 278"/>
    <polygon class="st0" points="467.1 318.4 466.3 278 456.6 280.4 467.1 318.4"/>
    <polygon class="st0" points="466.3 278 458.8 257.3 456.6 280.4 466.3 278"/>
    <polygon class="st0" points="458.8 257.3 466.3 278 466.3 239 458.8 257.3"/>
    <polygon class="st0" points="452 200.7 457.9 200.4 457.8 205.2 452 200.7"/>
    <polygon class="st0" points="457.8 205.2 457.9 200.4 462.2 200.9 457.8 205.2"/>
    <polygon class="st0" points="457.8 205.2 462.2 200.9 463.1 201.8 457.8 205.2"/>
    <polygon class="st0" points="457.8 205.2 463.1 201.8 465 203 457.8 205.2"/>
    <polygon class="st0" points="462.4 197.7 462.2 200.9 457.9 200.4 462.4 197.7"/>
    <polygon class="st0" points="454.8 210.2 457.8 205.2 461.3 211.6 454.8 210.2"/>
    <polygon class="st0" points="461.3 211.6 457.8 205.2 465 203 461.3 211.6"/>
    <polygon class="st0" points="461.3 211.6 465 203 465.9 203.7 461.3 211.6"/>
    <polygon class="st0" points="461.3 211.6 465.9 203.7 479.9 206.2 461.3 211.6"/>
    <polygon class="st0" points="472.3 262 466.3 239 472.4 259.9 472.3 262"/>
    <polygon class="st0" points="485.8 216.5 481.9 229.4 482 224.4 485.8 216.5"/>
    <polygon class="st0" points="485.8 216.5 482 224.4 479.9 206.2 485.8 216.5"/>
    <polygon class="st0" points="485.8 216.5 479.9 206.2 486.4 207.9 485.8 216.5"/>
    <polygon class="st0" points="486.4 207.9 479.9 206.2 481.2 204.6 486.4 207.9"/>
    <polygon class="st0" points="478.9 194.6 471.6 196.8 473.3 190.5 478.9 194.6"/>
    <polygon class="st0" points="473.3 190.5 471.6 196.8 466.5 190.1 473.3 190.5"/>
    <polygon class="st0" points="466.5 190.1 471.6 196.8 465.3 197.9 466.5 190.1"/>
    <polygon class="st0" points="466.5 190.1 465.3 197.9 461.8 194.4 466.5 190.1"/>
    <polygon class="st0" points="466.5 190.1 461.8 194.4 460.4 191.6 466.5 190.1"/>
    <polygon class="st0" points="466.3 239 482 224.4 481.9 229.4 466.3 239"/>
    <polygon class="st0" points="466.3 239 481.9 229.4 475.3 245.8 466.3 239"/>
    <polygon class="st0" points="466.3 239 475.3 245.8 474 253.8 466.3 239"/>
    <polygon class="st0" points="466.3 239 474 253.8 472.4 259.9 466.3 239"/>
    <polygon class="st0" points="479.9 206.2 465.9 203.7 471.6 196.8 479.9 206.2"/>
    <polygon class="st0" points="479.9 206.2 471.6 196.8 481.2 204.6 479.9 206.2"/>
    <polygon class="st0" points="471.6 196.8 465.9 203.7 466.5 200.7 471.6 196.8"/>
    <polygon class="st0" points="471.6 196.8 466.5 200.7 466.6 198.8 471.6 196.8"/>
    <polygon class="st0" points="471.6 196.8 466.6 198.8 465.3 197.9 471.6 196.8"/>
    <polygon class="st0" points="465.3 197.9 462.4 197.7 461.8 194.4 465.3 197.9"/>
    <polygon class="st0" points="463.1 201.8 465.4 201.9 465 203 463.1 201.8"/>
    <polygon class="st0" points="465.9 203.7 465.4 201.9 466.5 200.7 465.9 203.7"/>
    <polygon class="st0" points="471.6 196.8 478.9 194.6 480.3 195.5 471.6 196.8"/>
    <polygon class="st0" points="471.6 196.8 480.3 195.5 481.2 204.6 471.6 196.8"/>
    <polygon class="st0" points="481.2 204.6 480.3 195.5 483.5 201 481.2 204.6"/>
    <polygon class="st0" points="481.2 204.6 483.5 201 486.4 207.9 481.2 204.6"/>
    <polygon class="st0" points="484 286 466.3 278 485.9 310.7 484 286"/>
    <polygon class="st0" points="466.3 278 466.3 239 472.3 262 466.3 278"/>
    <polygon class="st0" points="466.3 278 472.3 262 472.2 264 466.3 278"/>
    <polygon class="st0" points="466.3 278 472.2 264 476.2 275.4 466.3 278"/>
    <polygon class="st0" points="466.3 278 476.2 275.4 478.7 279.9 466.3 278"/>
    <polygon class="st0" points="466.3 278 478.7 279.9 484 286 466.3 278"/>
    <polygon class="st0" points="484 286 485.9 310.7 508.6 290.8 484 286"/>
    <polygon class="st0" points="525.2 329.2 519.8 304.7 541.8 314.5 525.2 329.2"/>
    <polygon class="st0" points="525.2 329.2 541.8 314.5 559.1 350.5 525.2 329.2"/>
    <polygon class="st0" points="485.9 310.7 519.8 304.7 510.2 328.8 485.9 310.7"/>
    <polygon class="st0" points="510.2 328.8 519.8 304.7 525.2 329.2 510.2 328.8"/>
    <polygon class="st0" points="618.9 375 611 365.5 609.7 347 618.9 375"/>
    <polygon class="st0" points="609.7 347 611 365.5 606.3 357.2 609.7 347"/>
    <polygon class="st0" points="609.7 347 606.3 357.2 606.3 345 609.7 347"/>
    <polygon class="st0" points="606.3 345 606.3 357.2 592 344.5 606.3 345"/>
    <polygon class="st0" points="606.3 345 592 344.5 583.6 332 606.3 345"/>
    <polygon class="st0" points="614.1 392.3 608 379 614.6 375.2 614.1 392.3"/>
    <polygon class="st0" points="614.6 375.2 608 379 611 365.5 614.6 375.2"/>
    <polygon class="st0" points="606.3 357.2 611 365.5 608 379 606.3 357.2"/>
    <polygon class="st0" points="583.6 332 577.8 322.4 594.7 328.5 583.6 332"/>
    <polygon class="st0" points="583.6 332 594.7 328.5 604.2 336.1 583.6 332"/>
    <polygon class="st0" points="583.6 332 604.2 336.1 606.3 345 583.6 332"/>
    <polygon class="st0" points="609.7 347 606.3 345 609 342.4 609.7 347"/>
    <polygon class="st0" points="609.7 347 609 342.4 614 348.7 609.7 347"/>
    <polygon class="st0" points="604.2 336.1 609 342.4 606.3 345 604.2 336.1"/>
    <polygon class="st0" points="565.2 324.8 548.3 301.3 569.7 314.4 565.2 324.8"/>
    <polygon class="st0" points="565.2 324.8 569.7 314.4 577.8 322.4 565.2 324.8"/>
    <polygon class="st0" points="565.2 324.8 577.8 322.4 583.6 332 565.2 324.8"/>
    <polygon class="st0" points="531.9 254 582.2 255.4 546.6 264.4 531.9 254"/>
    <polygon class="st0" points="546.6 264.4 582.2 255.4 563.2 267.7 546.6 264.4"/>
    <polygon class="st0" points="563.2 267.7 582.2 255.4 600.7 271.8 563.2 267.7"/>
    <polygon class="st0" points="546.6 264.4 531.9 254 518 267.1 546.6 264.4"/>
    <polygon class="st0" points="531.9 254 501.9 257.1 518 267.1 531.9 254"/>
    <polygon class="st0" points="501.9 257.1 498.3 239.2 531.2 240.7 501.9 257.1"/>
    <polygon class="st0" points="501.9 257.1 531.2 240.7 531.9 254 501.9 257.1"/>
    <polygon class="st0" points="582.2 255.4 531.9 254 531.2 240.7 582.2 255.4"/>
    <polygon class="st0" points="513.9 221.2 530.2 220.5 560.3 233.6 513.9 221.2"/>
    <polygon class="st0" points="513.9 221.2 560.3 233.6 587.8 253.3 513.9 221.2"/>
    <polygon class="st0" points="587.8 253.3 560.3 233.6 589.9 252.6 587.8 253.3"/>
    <polygon class="st0" points="498.3 239.2 513.9 221.2 531.2 240.7 498.3 239.2"/>
    <polygon class="st0" points="582.2 255.4 531.2 240.7 587.8 253.3 582.2 255.4"/>
    <polygon class="st0" points="587.8 253.3 531.2 240.7 513.9 221.2 587.8 253.3"/>
    <polygon class="st0" points="560.3 233.6 545 205 586.5 225.7 560.3 233.6"/>
    <polygon class="st0" points="560.3 233.6 586.5 225.7 589.9 252.6 560.3 233.6"/>
    <polygon class="st0" points="589.9 252.6 586.5 225.7 595.7 250.4 589.9 252.6"/>
    <polygon class="st0" points="586.5 225.7 595.9 192.8 581.7 202.7 586.5 225.7"/>
    <polygon class="st0" points="595.7 250.4 586.5 225.7 601.2 244.6 595.7 250.4"/>
    <polygon class="st0" points="601.2 244.6 586.5 225.7 608.5 215.6 601.2 244.6"/>
    <polygon class="st0" points="608.5 215.6 586.5 225.7 595.9 192.8 608.5 215.6"/>
    <polygon class="st0" points="608.5 215.6 595.9 192.8 615.8 186.5 608.5 215.6"/>
    <polygon class="st0" points="586.5 225.7 581.7 202.7 545 205 586.5 225.7"/>
    <polygon class="st0" points="615.8 186.5 608.5 215.6 639.3 183.7 615.8 186.5"/>
    <polygon class="st0" points="601.2 244.6 608.5 215.6 609.9 235.8 601.2 244.6"/>
    <polygon class="st0" points="621.6 231.7 609.9 235.8 608.5 215.6 621.6 231.7"/>
    <polygon class="st0" points="621.6 231.7 608.5 215.6 632.4 213.1 621.6 231.7"/>
    <polygon class="st0" points="632.4 213.1 608.5 215.6 639.3 183.7 632.4 213.1"/>
    <polygon class="st0" points="632.4 213.1 655.3 196.8 639.3 183.7 632.4 213.1"/>
    <polygon class="st0" points="621.6 231.7 632.4 213.1 626.7 229.9 621.6 231.7"/>
    <polygon class="st0" points="626.7 229.9 632.4 213.1 650.8 210.7 626.7 229.9"/>
    <polygon class="st0" points="666.7 199 650.8 210.7 655.3 196.8 666.7 199"/>
    <polygon class="st0" points="655.3 196.8 650.8 210.7 632.4 213.1 655.3 196.8"/>
    <polygon class="st0" points="635.8 345.5 656 340.6 653.2 325.9 635.8 345.5"/>
    <polygon class="st0" points="656 340.6 635.8 345.5 661.2 355 656 340.6"/>
    <polygon class="st0" points="664.7 379.4 650.9 363.3 661.2 355 664.7 379.4"/>
    <polygon class="st0" points="661.2 355 650.9 363.3 645.9 358.4 661.2 355"/>
    <polygon class="st0" points="661.2 355 645.9 358.4 639.4 351.9 661.2 355"/>
    <polygon class="st0" points="661.2 355 639.4 351.9 635.8 345.5 661.2 355"/>
    <polygon class="st0" points="656 340.6 653.2 325.9 656.5 326.4 656 340.6"/>
    <polygon class="st0" points="656 340.6 656.5 326.4 661.6 331.4 656 340.6"/>
    <polygon class="st0" points="656 340.6 661.6 331.4 662.8 343.8 656 340.6"/>
    <polygon class="st0" points="642.2 291.6 656.5 326.4 644 310.6 642.2 291.6"/>
    <polygon class="st0" points="642.2 291.6 644 310.6 626.2 286.5 642.2 291.6"/>
    <polygon class="st0" points="644 310.6 656.5 326.4 653.2 325.9 644 310.6"/>
    <polygon class="st0" points="653.2 325.9 644 310.6 635.8 345.5 653.2 325.9"/>
    <polygon class="st0" points="398.3 400.5 399.1 395.4 400.4 395.5 398.3 400.5"/>
    <polygon class="st0" points="398.3 400.5 400.4 395.5 403.3 401.9 398.3 400.5"/>
    <polygon class="st0" points="403.3 401.9 400.4 395.5 405.2 396.4 403.3 401.9"/>
    <polygon class="st0" points="364.5 337.2 376.8 333.5 383.8 349.6 364.5 337.2"/>
    <polygon class="st0" points="396.6 368.1 383.8 349.6 411.1 344.9 396.6 368.1"/>
    <polygon class="st0" points="396.6 368.1 411.1 344.9 423.9 365.4 396.6 368.1"/>
    <polygon class="st0" points="423.9 365.4 411.1 344.9 430.2 360.2 423.9 365.4"/>
    <polygon class="st0" points="430.2 360.2 411.1 344.9 430.5 334.9 430.2 360.2"/>
    <polygon class="st0" points="430.2 360.2 430.5 334.9 435.7 336.1 430.2 360.2"/>
    <polygon class="st0" points="402.8 328.8 411.1 344.9 383.8 349.6 402.8 328.8"/>
    <polygon class="st0" points="402.8 328.8 383.8 349.6 376.8 333.5 402.8 328.8"/>
    <polygon class="st0" points="430.2 360.2 435.7 336.1 439.6 336.9 430.2 360.2"/>
    <polygon class="st0" points="430.2 360.2 439.6 336.9 450.8 352.8 430.2 360.2"/>
    <polygon class="st0" points="430.2 360.2 450.8 352.8 455.9 360 430.2 360.2"/>
    <polygon class="st0" points="430.2 360.2 455.9 360 455.8 368.7 430.2 360.2"/>
    <polygon class="st0" points="455.8 368.7 455.9 360 480 367.5 455.8 368.7"/>
    <polygon class="st0" points="356.9 369.3 346.4 351.9 364.5 360.6 356.9 369.3"/>
    <polygon class="st0" points="356.9 369.3 364.5 360.6 378.5 362.6 356.9 369.3"/>
    <polygon class="st0" points="356.9 369.3 378.5 362.6 399.1 395.4 356.9 369.3"/>
    <polygon class="st0" points="356.9 369.3 346.4 351.9 312.9 358.1 356.9 369.3"/>
    <polygon class="st0" points="399.1 395.4 378.5 362.6 391.1 367.6 399.1 395.4"/>
    <polygon class="st0" points="399.1 395.4 391.1 367.6 396.6 368.1 399.1 395.4"/>
    <polygon class="st0" points="399.1 395.4 396.6 368.1 400.4 395.5 399.1 395.4"/>
    <polygon class="st0" points="380.8 362.9 391.1 367.6 378.5 362.6 380.8 362.9"/>
    <polygon class="st0" points="400.4 395.5 423.9 365.4 405.2 396.4 400.4 395.5"/>
    <polygon class="st0" points="405.2 396.4 423.9 365.4 440.8 379.5 405.2 396.4"/>
    <polygon class="st0" points="134.5 308.5 145.5 308 148.8 298.5 134.5 308.5"/>
    <polygon class="st0" points="123 312.3 116.9 305.1 134.5 308.5 123 312.3"/>
    <polygon class="st0" points="123 312.3 134.5 308.5 132.1 313.3 123 312.3"/>
    <polygon class="st0" points="132.1 313.3 134.5 308.5 138.7 312.6 132.1 313.3"/>
    <polygon class="st0" points="138.7 312.6 134.5 308.5 145.5 308 138.7 312.6"/>
    <polygon class="st0" points="112.3 285.7 118.8 290.5 112.4 288.5 112.3 285.7"/>
    <polygon class="st0" points="112.4 288.5 118.8 290.5 114.7 302.5 112.4 288.5"/>
    <polygon class="st0" points="114.7 302.5 118.8 290.5 116.9 305.1 114.7 302.5"/>
    <polygon class="st0" points="116.9 305.1 118.8 290.5 134.5 308.5 116.9 305.1"/>
    <polygon class="st0" points="148.8 298.5 138.8 286.3 148.7 287.1 148.8 298.5"/>
    <polygon class="st0" points="140.8 270.3 148.7 287.1 138.8 286.3 140.8 270.3"/>
    <polygon class="st0" points="148.8 298.5 138.8 286.3 134.5 308.5 148.8 298.5"/>
    <polygon class="st0" points="138.8 286.3 124.7 268.8 140.8 270.3 138.8 286.3"/>
    <polygon class="st0" points="140.8 270.3 124.7 268.8 131.3 259 140.8 270.3"/>
    <polygon class="st0" points="131.3 259 124.7 268.8 128 256.3 131.3 259"/>
    <polygon class="st0" points="124.7 268.8 120.7 250.4 117.7 260.2 124.7 268.8"/>
    <polygon class="st0" points="120.7 250.4 124.7 268.8 128 256.3 120.7 250.4"/>
    <polygon class="st0" points="118.8 290.5 114.8 269.9 124.7 268.8 118.8 290.5"/>
    <polygon class="st0" points="124.7 268.8 114.8 269.9 117.7 260.2 124.7 268.8"/>
    <polygon class="st0" points="112.3 285.7 112.3 283 118.8 290.5 112.3 285.7"/>
    <polygon class="st0" points="118.8 290.5 112.3 283 114.2 271.8 118.8 290.5"/>
    <polygon class="st0" points="118.8 290.5 114.2 271.8 114.8 269.9 118.8 290.5"/>
    <polygon class="st0" points="264.9 299.8 284 291.6 280.1 273.2 264.9 299.8"/>
    <polygon class="st0" points="275 317.5 267.6 308.9 284 291.6 275 317.5"/>
    <polygon class="st0" points="275 317.5 284 291.6 281.3 320.4 275 317.5"/>
    <polygon class="st0" points="288.3 324 281.3 320.4 290.5 323.9 288.3 324"/>
    <polygon class="st0" points="290.5 323.9 281.3 320.4 304 317.7 290.5 323.9"/>
    <polygon class="st0" points="304 317.7 281.3 320.4 302.5 296.2 304 317.7"/>
    <polygon class="st0" points="304 317.7 302.5 296.2 310.6 298.7 304 317.7"/>
    <polygon class="st0" points="304 317.7 310.6 298.7 315.7 304.8 304 317.7"/>
    <polygon class="st0" points="302.5 296.2 281.3 320.4 284 291.6 302.5 296.2"/>
    <polygon class="st0" points="284 291.6 267.6 308.9 264.9 299.8 284 291.6"/>
    <polygon class="st0" points="290.5 323.9 304 317.7 301.8 324.4 290.5 323.9"/>
    <polygon class="st0" points="290.5 323.9 301.8 324.4 304.4 333.6 290.5 323.9"/>
    <polygon class="st0" points="301.8 324.4 304 317.7 329.3 317.2 301.8 324.4"/>
    <polygon class="st0" points="329.3 317.2 304 317.7 315.7 304.8 329.3 317.2"/>
    <polygon class="st0" points="329.3 317.2 301.8 324.4 335.7 336.4 329.3 317.2"/>
    <polygon class="st0" points="190.6 276.6 168.6 249.4 219.5 278.7 190.6 276.6"/>
    <polygon class="st0" points="190.6 276.6 219.5 278.7 196.7 280.1 190.6 276.6"/>
    <polygon class="st0" points="196.7 280.1 219.5 278.7 212.6 288 196.7 280.1"/>
    <polygon class="st0" points="212.6 288 219.5 278.7 243 292.2 212.6 288"/>
    <polygon class="st0" points="219.5 278.7 243 292.2 230.6 272.4 219.5 278.7"/>
    <polygon class="st0" points="168.6 249.4 178.8 247.3 219.5 278.7 168.6 249.4"/>
    <polygon class="st0" points="219.5 278.7 178.8 247.3 188.2 246.6 219.5 278.7"/>
    <polygon class="st0" points="219.5 278.7 188.2 246.6 199.7 248.1 219.5 278.7"/>
    <polygon class="st0" points="219.5 278.7 199.7 248.1 215.6 255.7 219.5 278.7"/>
    <polygon class="st0" points="219.5 278.7 215.6 255.7 223.2 264.2 219.5 278.7"/>
    <polygon class="st0" points="232.5 263.9 224.4 222.4 234.2 230.9 232.5 263.9"/>
    <polygon class="st0" points="232.5 263.9 234.2 230.9 238.8 235 232.5 263.9"/>
    <polygon class="st0" points="232.5 263.9 238.8 235 247.8 243 232.5 263.9"/>
    <polygon class="st0" points="230.6 272.4 223.2 264.2 232.5 263.9 230.6 272.4"/>
    <polygon class="st0" points="232.5 263.9 223.2 264.2 223.4 258.5 232.5 263.9"/>
    <polygon class="st0" points="232.5 263.9 223.4 258.5 219.7 235.8 232.5 263.9"/>
    <polygon class="st0" points="232.5 263.9 219.7 235.8 224.4 222.4 232.5 263.9"/>
    <polygon class="st0" points="284 291.6 280.1 273.2 296 274.5 284 291.6"/>
    <polygon class="st0" points="296 274.5 280.1 273.2 279.3 250.4 296 274.5"/>
    <polygon class="st0" points="279.3 250.4 280.1 273.2 268.5 268.6 279.3 250.4"/>
    <polygon class="st0" points="311.1 271.9 312.2 250.4 318.9 242 311.1 271.9"/>
    <polygon class="st0" points="318.9 242 312.2 250.4 304.8 235.7 318.9 242"/>
    <polygon class="st0" points="318.9 242 304.8 235.7 318 225.5 318.9 242"/>
    <polygon class="st0" points="315 213.2 318 225.5 304.5 223.9 315 213.2"/>
    <polygon class="st0" points="304.5 223.9 318 225.5 304.8 235.7 304.5 223.9"/>
    <polygon class="st0" points="304.5 223.9 304.8 235.7 290.2 244.2 304.5 223.9"/>
    <polygon class="st0" points="312.2 250.4 304.8 235.7 296 274.5 312.2 250.4"/>
    <polygon class="st0" points="284 291.6 297.2 288.1 317.7 287.8 284 291.6"/>
    <polygon class="st0" points="317.7 287.8 297.2 288.1 311.1 271.9 317.7 287.8"/>
    <polygon class="st0" points="317.7 287.8 311.1 271.9 331.4 257.7 317.7 287.8"/>
    <polygon class="st0" points="317.7 287.8 331.4 257.7 338.1 255.6 317.7 287.8"/>
    <polygon class="st0" points="317.7 287.8 338.1 255.6 348.6 254.3 317.7 287.8"/>
    <polygon class="st0" points="317.7 287.8 348.6 254.3 369.4 260.6 317.7 287.8"/>
    <polygon class="st0" points="311.1 271.9 328.8 247.4 331.4 257.7 311.1 271.9"/>
    <polygon class="st0" points="331.4 257.7 328.8 247.4 338.2 247.5 331.4 257.7"/>
    <polygon class="st0" points="338.2 247.5 328.8 247.4 345.4 216.7 338.2 247.5"/>
    <polygon class="st0" points="282.7 239.1 293.6 192.2 305.2 214.5 282.7 239.1"/>
    <polygon class="st0" points="282.7 239.1 305.2 214.5 304.5 223.9 282.7 239.1"/>
    <polygon class="st0" points="282.7 239.1 304.5 223.9 290.2 244.2 282.7 239.1"/>
    <polygon class="st0" points="272 236.4 266.9 221.3 282.7 239.1 272 236.4"/>
    <polygon class="st0" points="282.7 239.1 266.9 221.3 278.6 205.1 282.7 239.1"/>
    <polygon class="st0" points="282.7 239.1 278.6 205.1 293.6 192.2 282.7 239.1"/>
    <polygon class="st0" points="284 243.9 283.8 242.9 290.2 244.2 284 243.9"/>
    <polygon class="st0" points="290.2 244.2 283.8 242.9 282.7 239.1 290.2 244.2"/>
    <polygon class="st0" points="282.7 239.1 283.8 242.9 282.6 242.1 282.7 239.1"/>
    <polygon class="st0" points="246.5 259 250.8 249.3 259.2 252 246.5 259"/>
    <polygon class="st0" points="246.5 259 259.2 252 263.5 266.7 246.5 259"/>
    <polygon class="st0" points="250.8 249.3 254.1 244.3 258 247.7 250.8 249.3"/>
    <polygon class="st0" points="250.8 249.3 258 247.7 259.2 252 250.8 249.3"/>
    <polygon class="st0" points="259.2 252 258 247.7 258.9 248.4 259.2 252"/>
    <polygon class="st0" points="257.3 243.8 258.4 246.5 254.1 244.3 257.3 243.8"/>
    <polygon class="st0" points="254.1 244.3 258.4 246.5 258 247.7 254.1 244.3"/>
    <polygon class="st0" points="263.5 266.7 259.2 252 267.9 253 263.5 266.7"/>
    <polygon class="st0" points="263.5 266.7 267.9 253 268.5 268.6 263.5 266.7"/>
    <polygon class="st0" points="268.5 268.6 267.9 253 279.3 250.4 268.5 268.6"/>
    <polygon class="st0" points="216.7 245.7 203.1 204.8 219.7 235.8 216.7 245.7"/>
    <polygon class="st0" points="234.2 230.9 224.4 222.4 235.3 220.3 234.2 230.9"/>
    <polygon class="st0" points="235.3 220.3 224.4 222.4 227.1 213.6 235.3 220.3"/>
    <polygon class="st0" points="227.1 213.6 224.4 222.4 203.1 204.8 227.1 213.6"/>
    <polygon class="st0" points="203.1 204.8 224.4 222.4 219.7 235.8 203.1 204.8"/>
    <polygon class="st0" points="234.2 230.9 235.3 220.3 238.8 235 234.2 230.9"/>
    <polygon class="st0" points="238.8 235 235.3 220.3 244.7 196.7 238.8 235"/>
    <polygon class="st0" points="238.8 235 244.7 196.7 252 203.6 238.8 235"/>
    <polygon class="st0" points="238.8 235 252 203.6 262.6 214.5 238.8 235"/>
    <polygon class="st0" points="238.8 235 262.6 214.5 254.3 238.4 238.8 235"/>
    <polygon class="st0" points="238.8 235 254.3 238.4 247.8 243 238.8 235"/>
    <polygon class="st0" points="272 236.4 254.3 238.4 266.9 221.3 272 236.4"/>
    <polygon class="st0" points="262.6 214.5 266.9 221.3 254.3 238.4 262.6 214.5"/>
    <polygon class="st0" points="266.9 221.3 262.6 214.5 278.6 205.1 266.9 221.3"/>
    <polygon class="st0" points="278.6 205.1 262.6 214.5 275.1 198.9 278.6 205.1"/>
    <polygon class="st0" points="275.1 198.9 262.6 214.5 255.7 197.3 275.1 198.9"/>
    <polygon class="st0" points="275.1 198.9 255.7 197.3 263.9 189.1 275.1 198.9"/>
    <polygon class="st0" points="255.7 197.3 262.6 214.5 252 203.6 255.7 197.3"/>
    <polygon class="st0" points="98.7 361.3 74.8 371 139.7 376.1 98.7 361.3"/>
    <polygon class="st0" points="74.8 371 139.7 376.1 107.4 388.2 74.8 371"/>
    <polygon class="st0" points="107.4 388.2 139.7 376.1 166.4 417.8 107.4 388.2"/>
    <polygon class="st0" points="139.5 342.5 109.2 348.3 139.7 376.1 139.5 342.5"/>
    <polygon class="st0" points="166.4 417.8 139.7 376.1 168.6 376.7 166.4 417.8"/>
    <polygon class="st0" points="168.6 376.7 139.7 376.1 139.5 342.5 168.6 376.7"/>
    <polygon class="st0" points="166.4 417.8 168.6 376.7 216.2 352.6 166.4 417.8"/>
    <polygon class="st0" points="216.2 352.6 168.6 376.7 191.5 340.3 216.2 352.6"/>
    <polygon class="st0" points="168.6 376.7 139.5 342.5 145.8 342.4 168.6 376.7"/>
    <polygon class="st0" points="168.6 376.7 145.8 342.4 170.8 342.1 168.6 376.7"/>
    <polygon class="st0" points="139.5 342.5 145.8 342.4 136.5 326.8 139.5 342.5"/>
    <polygon class="st0" points="170.8 342.1 168.6 376.7 191.5 340.3 170.8 342.1"/>
    <polygon class="st0" points="166.4 417.8 223.4 380 219.6 387.7 166.4 417.8"/>
    <polygon class="st0" points="166.4 417.8 219.6 387.7 214.6 398.4 166.4 417.8"/>
    <polygon class="st0" points="166.4 417.8 214.6 398.4 208.1 412.1 166.4 417.8"/>
    <polygon class="st0" points="223.4 380 241.7 367.5 245.9 377.6 223.4 380"/>
    <polygon class="st0" points="245.9 377.6 241.7 367.5 247 377.3 245.9 377.6"/>
    <polygon class="st0" points="74.8 371 71.8 390.9 107.4 388.2 74.8 371"/>
    <polygon class="st0" points="66.2 410.1 71.8 390.9 94.6 412.3 66.2 410.1"/>
    <polygon class="st0" points="94.6 412.3 71.8 390.9 107.4 388.2 94.6 412.3"/>
    <polygon class="st0" points="94.6 412.3 107.4 388.2 166.4 417.8 94.6 412.3"/>
    <polygon class="st0" points="101.6 445.5 80.8 421.9 94.6 412.3 101.6 445.5"/>
    <polygon class="st0" points="101.6 445.5 94.6 412.3 130.8 426.6 101.6 445.5"/>
    <polygon class="st0" points="166.4 417.8 130.8 426.6 94.6 412.3 166.4 417.8"/>
    <polygon class="st0" points="94.6 412.3 66.2 410.1 80.8 421.9 94.6 412.3"/>
    <polygon class="st0" points="139.5 453.1 130.8 426.6 164.5 438.8 139.5 453.1"/>
    <polygon class="st0" points="164.5 438.8 130.8 426.6 166.4 417.8 164.5 438.8"/>
    <polygon class="st0" points="124.6 481.8 192.3 470.8 169 486.1 124.6 481.8"/>
    <polygon class="st0" points="169 486.1 192.3 470.8 189.8 482.4 169 486.1"/>
    <polygon class="st0" points="171.3 457.9 206.1 458.5 192.3 470.8 171.3 457.9"/>
    <polygon class="st0" points="192.3 470.8 206.1 458.5 225.6 464.8 192.3 470.8"/>
    <polygon class="st0" points="225.6 464.8 192.3 470.8 292.7 481.5 225.6 464.8"/>
    <polygon class="st0" points="225.6 464.8 277.2 461.4 231.9 453.1 225.6 464.8"/>
    <polygon class="st0" points="225.6 464.8 277.2 461.4 292.7 481.5 225.6 464.8"/>
    <polygon class="st0" points="292.7 481.5 277.2 461.4 303.8 474.5 292.7 481.5"/>
    <polygon class="st0" points="277.2 461.4 250.7 445.2 231.9 453.1 277.2 461.4"/>
    <polygon class="st0" points="250.7 445.2 237.1 437.1 231.9 453.1 250.7 445.2"/>
    <polygon class="st0" points="237.1 437.1 266.9 413.2 250.7 445.2 237.1 437.1"/>
    <polygon class="st0" points="250.7 445.2 266.9 413.2 279 438.8 250.7 445.2"/>
    <polygon class="st0" points="330.4 438 279 438.8 266.9 413.2 330.4 438"/>
    <polygon class="st0" points="204.9 430.9 208.1 412.1 237.1 437.1 204.9 430.9"/>
    <polygon class="st0" points="204.9 430.9 237.1 437.1 231.9 453.1 204.9 430.9"/>
    <polygon class="st0" points="208.1 412.1 237.1 437.1 266.9 413.2 208.1 412.1"/>
    <polygon class="st0" points="208.1 412.1 166.4 417.8 204.9 430.9 208.1 412.1"/>
    <polygon class="st0" points="206.1 458.5 231.9 453.1 204.9 430.9 206.1 458.5"/>
    <polygon class="st0" points="231.9 453.1 206.1 458.5 225.6 464.8 231.9 453.1"/>
    <polygon class="st0" points="214.6 398.4 208.1 412.1 266.9 413.2 214.6 398.4"/>
    <polygon class="st0" points="219.6 387.7 245.9 377.6 223.4 380 219.6 387.7"/>
    <polygon class="st0" points="289 397.6 261.4 369.4 268.5 369.5 289 397.6"/>
    <polygon class="st0" points="289 397.6 268.5 369.5 276.7 369.6 289 397.6"/>
    <polygon class="st0" points="289 397.6 276.7 369.6 284.4 369.6 289 397.6"/>
    <polygon class="st0" points="268.5 369.5 276.7 369.6 278.3 348.6 268.5 369.5"/>
    <polygon class="st0" points="429.7 460.5 401.1 427.4 412.3 425.4 429.7 460.5"/>
    <polygon class="st0" points="429.7 460.5 412.3 425.4 429.9 429.2 429.7 460.5"/>
    <polygon class="st0" points="429.7 460.5 429.9 429.2 435.8 455.5 429.7 460.5"/>
    <polygon class="st0" points="435.8 455.5 429.9 429.2 439.9 433.8 435.8 455.5"/>
    <polygon class="st0" points="435.8 455.5 439.9 433.8 443.1 448.6 435.8 455.5"/>
    <polygon class="st0" points="439.5 430.8 439.9 433.8 429.9 429.2 439.5 430.8"/>
    <polygon class="st0" points="401.1 427.4 330.4 438 429.7 460.5 401.1 427.4"/>
    <polygon class="st0" points="435.8 455.5 443.1 448.6 468 447.1 435.8 455.5"/>
    <polygon class="st0" points="435.8 455.5 468 447.1 490.9 460.4 435.8 455.5"/>
    <polygon class="st0" points="435.8 455.5 429.7 460.5 447.6 461.7 435.8 455.5"/>
    <polygon class="st0" points="429.7 460.5 330.4 438 369.4 457.5 429.7 460.5"/>
    <polygon class="st0" points="369.4 457.5 390.9 477.3 429.7 460.5 369.4 457.5"/>
    <polygon class="st0" points="390.9 477.3 429.7 460.5 419.7 474.6 390.9 477.3"/>
    <polygon class="st0" points="419.7 474.6 429.7 460.5 432.7 468.8 419.7 474.6"/>
    <polygon class="st0" points="432.7 468.8 429.7 460.5 447.6 461.7 432.7 468.8"/>
    <polygon class="st0" points="432.7 468.8 447.6 461.7 445 475.9 432.7 468.8"/>
    <polygon class="st0" points="445 475.9 447.6 461.7 458 469.2 445 475.9"/>
    <polygon class="st0" points="416.5 483.7 419.7 474.6 432.7 468.8 416.5 483.7"/>
    <polygon class="st0" points="416.5 483.7 432.7 468.8 445 475.9 416.5 483.7"/>
    <polygon class="st0" points="326.7 484.4 390.9 477.3 353.9 484.5 326.7 484.4"/>
    <polygon class="st0" points="412.3 487.2 353.9 484.5 390.9 477.3 412.3 487.2"/>
    <polygon class="st0" points="412.3 487.2 390.9 477.3 419.7 474.6 412.3 487.2"/>
    <polygon class="st0" points="412.3 487.2 419.7 474.6 416.5 483.7 412.3 487.2"/>
    <polygon class="st0" points="259.2 486.2 292.7 481.5 268.4 495.3 259.2 486.2"/>
    <polygon class="st0" points="268.4 495.3 292.7 481.5 326.7 484.4 268.4 495.3"/>
    <polygon class="st0" points="292.7 481.5 326.7 484.4 303.8 474.5 292.7 481.5"/>
    <polygon class="st0" points="189.8 482.4 192.3 470.8 259.2 486.2 189.8 482.4"/>
    <polygon class="st0" points="259.2 486.2 192.3 470.8 292.7 481.5 259.2 486.2"/>
    <polygon class="st0" points="289 397.6 284.4 369.6 317.9 397.6 289 397.6"/>
    <polygon class="st0" points="289 397.6 317.9 397.6 330.4 438 289 397.6"/>
    <polygon class="st0" points="303.8 474.5 317.3 456.4 331.4 472.8 303.8 474.5"/>
    <polygon class="st0" points="347.9 471.9 331.4 472.8 317.3 456.4 347.9 471.9"/>
    <polygon class="st0" points="303.8 474.5 317.3 456.4 277.2 461.4 303.8 474.5"/>
    <polygon class="st0" points="169 486.1 189.8 482.4 268.4 495.3 169 486.1"/>
    <polygon class="st0" points="268.4 495.3 189.8 482.4 259.2 486.2 268.4 495.3"/>
    <polygon class="st0" points="268.4 495.3 326.7 484.4 353.9 484.5 268.4 495.3"/>
    <polygon class="st0" points="268.4 495.3 353.9 484.5 451.9 497 268.4 495.3"/>
    <polygon class="st0" points="451.9 497 353.9 484.5 412.3 487.2 451.9 497"/>
    <polygon class="st0" points="451.9 497 523 490.2 489.9 479 451.9 497"/>
    <polygon class="st0" points="523 490.2 622.8 480.5 570.1 478.2 523 490.2"/>
    <polygon class="st0" points="622.8 480.5 615.1 464.7 678.5 453.3 622.8 480.5"/>
    <polygon class="st0" points="678.5 453.3 615.1 464.7 614.3 459.3 678.5 453.3"/>
    <polygon class="st0" points="678.5 453.3 614.3 459.3 614.1 456.3 678.5 453.3"/>
    <polygon class="st0" points="678.5 453.3 616.2 445.2 614.1 456.3 678.5 453.3"/>
    <polygon class="st0" points="616.2 445.2 610.6 444.5 614.1 456.3 616.2 445.2"/>
    <polygon class="st0" points="610.6 444.5 615.8 421.7 620.9 424.2 610.6 444.5"/>
    <polygon class="st0" points="610.6 444.5 620.9 424.2 616.2 445.2 610.6 444.5"/>
    <polygon class="st0" points="593.9 457.3 595.5 442.5 607.8 456.3 593.9 457.3"/>
    <polygon class="st0" points="607.8 456.3 595.5 442.5 610.6 444.5 607.8 456.3"/>
    <polygon class="st0" points="587 457.7 589.3 442.1 593.9 457.3 587 457.7"/>
    <polygon class="st0" points="593.9 457.3 589.3 442.1 595.5 442.5 593.9 457.3"/>
    <polygon class="st0" points="589.3 442.1 595.5 442.5 592.3 421.6 589.3 442.1"/>
    <polygon class="st0" points="533 435.1 589.3 442.1 556.8 443.7 533 435.1"/>
    <polygon class="st0" points="556.8 443.7 589.3 442.1 576.5 449.5 556.8 443.7"/>
    <polygon class="st0" points="533 435.1 534 426.2 559.4 409 533 435.1"/>
    <polygon class="st0" points="533 435.1 559.4 409 589.3 442.1 533 435.1"/>
    <polygon class="st0" points="589.3 442.1 559.4 409 592.3 421.6 589.3 442.1"/>
    <polygon class="st0" points="598.2 381 593.9 410.6 591.5 389.9 598.2 381"/>
    <polygon class="st0" points="583.5 369.6 589.3 381.8 577.3 383.3 583.5 369.6"/>
    <polygon class="st0" points="547 368.9 572.9 370 546 379.7 547 368.9"/>
    <polygon class="st0" points="559.4 409 560.5 403.6 593.9 410.6 559.4 409"/>
    <polygon class="st0" points="559.4 409 593.9 410.6 592.3 421.6 559.4 409"/>
    <polygon class="st0" points="593.9 410.6 560.5 403.6 591.5 389.9 593.9 410.6"/>
    <polygon class="st0" points="591.5 389.9 560.5 403.6 577.3 383.3 591.5 389.9"/>
    <polygon class="st0" points="591.5 389.9 577.3 383.3 589.3 381.8 591.5 389.9"/>
    <polygon class="st0" points="577.3 383.3 560.5 403.6 546 379.7 577.3 383.3"/>
    <polygon class="st0" points="577.3 383.3 546 379.7 572.9 370 577.3 383.3"/>
    <polygon class="st0" points="525.6 460.6 527.8 434.5 530.6 460 525.6 460.6"/>
    <polygon class="st0" points="530.6 460 527.8 434.5 533 435.1 530.6 460"/>
    <polygon class="st0" points="527.8 434.5 533 435.1 528.3 430.8 527.8 434.5"/>
    <polygon class="st0" points="512.4 454.1 509.1 445.1 524.3 434.1 512.4 454.1"/>
    <polygon class="st0" points="512.4 454.1 524.3 434.1 525.6 460.6 512.4 454.1"/>
    <polygon class="st0" points="525.6 460.6 524.3 434.1 527.8 434.5 525.6 460.6"/>
    <polygon class="st0" points="524.3 434.1 527.8 434.5 528.3 430.8 524.3 434.1"/>
    <polygon class="st0" points="500.1 445.7 515.4 434.2 509.1 445.1 500.1 445.7"/>
    <polygon class="st0" points="509.1 445.1 515.4 434.2 524.3 434.1 509.1 445.1"/>
    <polygon class="st0" points="515.4 434.2 524.3 434.1 528.4 424.2 515.4 434.2"/>
    <polygon class="st0" points="412.3 487.2 451.9 497 416.5 483.7 412.3 487.2"/>
    <polygon class="st0" points="445 475.9 416.5 483.7 468.6 484 445 475.9"/>
    <polygon class="st0" points="445 475.9 468.6 484 461.7 476.5 445 475.9"/>
    <polygon class="st0" points="468.6 484 416.5 483.7 451.9 497 468.6 484"/>
    <polygon class="st0" points="461.7 476.5 489.9 479 475.6 471.7 461.7 476.5"/>
    <polygon class="st0" points="489.9 479 461.7 476.5 468.6 484 489.9 479"/>
    <polygon class="st0" points="475.6 471.7 489.9 479 488.4 471.5 475.6 471.7"/>
    <polygon class="st0" points="475.6 471.7 458 469.2 445 475.9 475.6 471.7"/>
    <polygon class="st0" points="458 469.2 489.4 465.6 475.6 471.7 458 469.2"/>
    <polygon class="st0" points="475.6 471.7 489.4 465.6 488.4 471.5 475.6 471.7"/>
    <polygon class="st0" points="458 469.2 489.4 465.6 490.9 460.4 458 469.2"/>
    <polygon class="st0" points="489.4 465.6 490.9 460.4 494.8 465.1 489.4 465.6"/>
    <polygon class="st0" points="494.8 465.1 490.9 460.4 498.5 461.1 494.8 465.1"/>
    <polygon class="st0" points="494.8 465.1 498.5 461.1 497.6 464.8 494.8 465.1"/>
    <polygon class="st0" points="494.8 465.1 489.4 465.6 488.4 471.5 494.8 465.1"/>
    <polygon class="st0" points="497.6 464.8 494.8 465.1 496.7 467.8 497.6 464.8"/>
    <polygon class="st0" points="497.6 464.8 498.5 461.1 501.4 461.3 497.6 464.8"/>
    <polygon class="st0" points="497.6 464.8 501.4 461.3 521.2 465.1 497.6 464.8"/>
    <polygon class="st0" points="521.2 465.1 497.6 464.8 506.4 473.4 521.2 465.1"/>
    <polygon class="st0" points="501.4 461.3 521.2 465.1 525.6 460.6 501.4 461.3"/>
    <polygon class="st0" points="501.4 461.3 525.6 460.6 512.4 454.1 501.4 461.3"/>
    <polygon class="st0" points="530.6 460 525.6 460.6 530.2 465.7 530.6 460"/>
    <polygon class="st0" points="530.6 460 554.6 458.6 539.8 449.7 530.6 460"/>
    <polygon class="st0" points="530.2 465.7 530.6 460 554.6 464.5 530.2 465.7"/>
    <polygon class="st0" points="554.6 464.5 530.6 460 554.6 458.6 554.6 464.5"/>
    <polygon class="st0" points="554.6 458.6 587 457.7 615.1 464.7 554.6 458.6"/>
    <polygon class="st0" points="615.1 464.7 587 457.7 593.9 457.3 615.1 464.7"/>
    <polygon class="st0" points="615.1 464.7 593.9 457.3 606.2 459.6 615.1 464.7"/>
    <polygon class="st0" points="554.6 464.5 554.6 458.6 583 469.9 554.6 464.5"/>
    <polygon class="st0" points="583 469.9 554.6 458.6 615.1 464.7 583 469.9"/>
    <polygon class="st0" points="606.2 459.6 614.1 456.3 607.8 456.3 606.2 459.6"/>
    <polygon class="st0" points="614.1 456.3 606.2 459.6 614.3 459.3 614.1 456.3"/>
    <polygon class="st0" points="607.8 456.3 614.1 456.3 610.6 444.5 607.8 456.3"/>
    <polygon class="st0" points="592.3 421.6 595.5 442.5 597.8 426.4 592.3 421.6"/>
    <polygon class="st0" points="592.3 421.6 599.5 413.6 593.9 410.6 592.3 421.6"/>
    <polygon class="st0" points="599.5 413.6 592.3 421.6 597.8 426.4 599.5 413.6"/>
    <polygon class="st0" points="620.2 403 623.5 386.1 625.7 404.8 620.2 403"/>
    <polygon class="st0" points="625.7 404.8 623.5 386.1 631.1 380.6 625.7 404.8"/>
    <polygon class="st0" points="615.8 421.7 620.2 403 625.7 404.8 615.8 421.7"/>
    <polygon class="st0" points="615.8 421.7 625.7 404.8 620.9 424.2 615.8 421.7"/>
    <polygon class="st0" points="614.3 459.3 606.2 459.6 615.1 464.7 614.3 459.3"/>
    <polygon class="st0" points="593.9 457.3 606.2 459.6 607.8 456.3 593.9 457.3"/>
    <polygon class="st0" points="554.6 458.6 587 457.7 576.5 449.5 554.6 458.6"/>
    <polygon class="st0" points="468 447.1 492.6 440.8 492.4 453.1 468 447.1"/>
    <polygon class="st0" points="492.4 453.1 492.6 440.8 500.1 445.7 492.4 453.1"/>
    <polygon class="st0" points="490.9 460.4 435.8 455.5 447.6 461.7 490.9 460.4"/>
    <polygon class="st0" points="490.9 460.4 492.4 453.1 498.5 461.1 490.9 460.4"/>
    <polygon class="st0" points="498.5 461.1 492.4 453.1 503.5 451 498.5 461.1"/>
    <polygon class="st0" points="509.1 445.1 503.5 451 500.1 445.7 509.1 445.1"/>
    <polygon class="st0" points="500.1 445.7 503.5 451 492.4 453.1 500.1 445.7"/>
    <polygon class="st0" points="498.5 461.1 503.5 451 501.4 461.3 498.5 461.1"/>
    <polygon class="st0" points="501.4 461.3 503.5 451 512.4 454.1 501.4 461.3"/>
    <polygon class="st0" points="489.9 479 523 490.2 506.4 473.4 489.9 479"/>
    <polygon class="st0" points="523 490.2 541.3 481.6 506.4 473.4 523 490.2"/>
    <polygon class="st0" points="541.3 481.6 523 490.2 570.1 478.2 541.3 481.6"/>
    <polygon class="st0" points="530.2 465.7 554.6 464.5 563.3 471.1 530.2 465.7"/>
    <polygon class="st0" points="563.3 471.1 554.6 464.5 583 469.9 563.3 471.1"/>
    <polygon class="st0" points="563.3 471.1 530.2 465.7 529.6 471.6 563.3 471.1"/>
    <polygon class="st0" points="563.3 471.1 556 475 570.1 478.2 563.3 471.1"/>
    <polygon class="st0" points="506.4 473.4 524.6 471.7 556 475 506.4 473.4"/>
    <polygon class="st0" points="556 475 524.6 471.7 529.6 471.6 556 475"/>
    <polygon class="st0" points="556 475 529.6 471.6 563.3 471.1 556 475"/>
    <polygon class="st0" points="587 457.7 589.3 442.1 576.5 449.5 587 457.7"/>
    <polygon class="st0" points="593.9 410.6 598.2 381 600.9 386.9 593.9 410.6"/>
    <polygon class="st0" points="593.9 410.6 600.9 386.9 602.4 393.6 593.9 410.6"/>
    <polygon class="st0" points="603.1 409.4 603.5 397.7 607.4 396.1 603.1 409.4"/>
    <polygon class="st0" points="607.4 396.1 603.5 397.7 602.4 393.6 607.4 396.1"/>
    <polygon class="st0" points="607.4 396.1 602.4 393.6 608.7 386.1 607.4 396.1"/>
    <polygon class="st0" points="608.7 386.1 602.4 393.6 600.9 386.9 608.7 386.1"/>
    <polygon class="st0" points="608.7 386.1 600.9 386.9 608 379 608.7 386.1"/>
    <polygon class="st0" points="593.5 355.6 608 379 596.2 374.8 593.5 355.6"/>
    <polygon class="st0" points="596.2 374.8 608 379 598.2 381 596.2 374.8"/>
    <polygon class="st0" points="598.2 381 608 379 600.9 386.9 598.2 381"/>
    <polygon class="st0" points="609 342.4 604.2 336.1 611 325.5 609 342.4"/>
    <polygon class="st0" points="611 325.5 604.2 336.1 606 323.6 611 325.5"/>
    <polygon class="st0" points="611 325.5 606 323.6 605.8 304 611 325.5"/>
    <polygon class="st0" points="611 325.5 605.8 304 611.1 298.3 611 325.5"/>
    <polygon class="st0" points="605.3 269.6 611.1 298.3 603.9 288 605.3 269.6"/>
    <polygon class="st0" points="605.3 269.6 603.9 288 603.8 271.4 605.3 269.6"/>
    <polygon class="st0" points="600.7 271.8 603.8 271.4 603.9 288 600.7 271.8"/>
    <polygon class="st0" points="605.8 304 603.9 288 611.1 298.3 605.8 304"/>
    <polygon class="st0" points="519.8 304.7 508.6 290.8 531.4 295.2 519.8 304.7"/>
    <polygon class="st0" points="519.8 304.7 531.4 295.2 548.3 301.3 519.8 304.7"/>
    <polygon class="st0" points="452 200.7 455.7 196 457.9 200.4 452 200.7"/>
    <polygon class="st0" points="457.9 200.4 455.7 196 462.4 197.7 457.9 200.4"/>
    <polygon class="st0" points="462.4 197.7 455.7 196 461.8 194.4 462.4 197.7"/>
    <polygon class="st0" points="460.4 191.6 461.8 194.4 455.7 196 460.4 191.6"/>
    <polygon class="st0" points="466.3 239 472.3 223.6 482 224.4 466.3 239"/>
    <polygon class="st0" points="482 224.4 472.3 223.6 470.9 213.7 482 224.4"/>
    <polygon class="st0" points="482 224.4 470.9 213.7 479.9 206.2 482 224.4"/>
    <polygon class="st0" points="479.9 206.2 470.9 213.7 461.3 211.6 479.9 206.2"/>
    <polygon class="st0" points="467.1 318.4 491.6 350.5 499.4 336.3 467.1 318.4"/>
    <polygon class="st0" points="525.2 386.7 512.8 363.3 534.1 377.6 525.2 386.7"/>
    <polygon class="st0" points="525.2 386.7 534.1 377.6 530.7 385.6 525.2 386.7"/>
    <polygon class="st0" points="525.2 386.7 529 411.5 535.8 414.5 525.2 386.7"/>
    <polygon class="st0" points="529 411.5 526.7 416.4 535.8 414.5 529 411.5"/>
    <polygon class="st0" points="526.7 416.4 528.4 424.2 535.1 419.6 526.7 416.4"/>
    <polygon class="st0" points="490.9 460.4 492.4 453.1 468 447.1 490.9 460.4"/>
    <polygon class="st0" points="500.1 445.7 515.4 434.2 492.6 440.8 500.1 445.7"/>
    <polygon class="st0" points="489.9 479 488.4 471.5 496.7 467.8 489.9 479"/>
    <polygon class="st0" points="496.7 467.8 488.4 471.5 494.8 465.1 496.7 467.8"/>
    <polygon class="st0" points="497.6 464.8 496.7 467.8 506.4 473.4 497.6 464.8"/>
    <polygon class="st0" points="503.5 451 512.4 454.1 509.1 445.1 503.5 451"/>
    <polygon class="st0" points="524.3 434.1 528.3 430.8 528.4 424.2 524.3 434.1"/>
    <polygon class="st0" points="533 435.1 534 426.2 528.3 430.8 533 435.1"/>
    <polygon class="st0" points="534 426.2 559.4 409 550 408.4 534 426.2"/>
    <polygon class="st0" points="559.4 409 560.5 403.6 551.1 401.4 559.4 409"/>
    <polygon class="st0" points="560.5 403.6 546 379.7 540.5 382.2 560.5 403.6"/>
    <polygon class="st0" points="546 379.7 547 368.9 540.5 382.2 546 379.7"/>
    <polygon class="st0" points="547 368.9 550.8 357.8 572.9 370 547 368.9"/>
    <polygon class="st0" points="572.9 370 550.8 357.8 551.2 353.5 572.9 370"/>
    <polygon class="st0" points="577.3 383.3 572.9 370 583.5 369.6 577.3 383.3"/>
    <polygon class="st0" points="583.5 369.6 572.9 370 570.4 362.4 583.5 369.6"/>
    <polygon class="st0" points="583.5 369.6 570.4 362.4 583.6 355.3 583.5 369.6"/>
    <polygon class="st0" points="572.8 339.3 583.6 355.3 573.9 348.4 572.8 339.3"/>
    <polygon class="st0" points="570.4 362.4 573.9 348.4 583.6 355.3 570.4 362.4"/>
    <polygon class="st0" points="591.5 389.9 589.3 381.8 596.2 374.8 591.5 389.9"/>
    <polygon class="st0" points="596.2 374.8 589.3 381.8 583.5 369.6 596.2 374.8"/>
    <polygon class="st0" points="596.2 374.8 583.5 369.6 583.6 355.3 596.2 374.8"/>
    <polygon class="st0" points="525.6 460.6 524.6 471.7 530.2 465.7 525.6 460.6"/>
    <polygon class="st0" points="524.6 471.7 525.6 460.6 521.2 465.1 524.6 471.7"/>
    <polygon class="st0" points="524.6 471.7 529.6 471.6 530.2 465.7 524.6 471.7"/>
    <polygon class="st0" points="530.6 460 533 435.1 539.8 449.7 530.6 460"/>
    <polygon class="st0" points="556.8 443.7 539.8 449.7 533 435.1 556.8 443.7"/>
    <polygon class="st0" points="535.1 419.6 535.8 414.5 550 408.4 535.1 419.6"/>
    <polygon class="st0" points="550 408.4 535.8 414.5 551.1 401.4 550 408.4"/>
    <polygon class="st0" points="551.1 401.4 535.8 414.5 530.7 385.6 551.1 401.4"/>
    <polygon class="st0" points="551.1 401.4 530.7 385.6 540.5 382.2 551.1 401.4"/>
    <polygon class="st0" points="540.5 382.2 530.7 385.6 534.1 377.6 540.5 382.2"/>
    <polygon class="st0" points="550 408.4 535.1 419.6 534 426.2 550 408.4"/>
    <polygon class="st0" points="551.1 401.4 550 408.4 559.4 409 551.1 401.4"/>
    <polygon class="st0" points="540.5 382.2 551.1 401.4 560.5 403.6 540.5 382.2"/>
    <polygon class="st0" points="534.1 377.6 540.5 382.2 537.8 368.3 534.1 377.6"/>
    <polygon class="st0" points="535.8 414.5 530.7 385.6 525.2 386.7 535.8 414.5"/>
    <polygon class="st0" points="535.1 419.6 535.8 414.5 526.7 416.4 535.1 419.6"/>
    <polygon class="st0" points="534.1 377.6 537.8 368.3 512.8 363.3 534.1 377.6"/>
    <polygon class="st0" points="537.8 368.3 544.7 356.1 513.5 348.9 537.8 368.3"/>
    <polygon class="st0" points="544.7 356.1 537.8 368.3 550.8 357.8 544.7 356.1"/>
    <polygon class="st0" points="513.5 348.9 517.3 340 530.6 346 513.5 348.9"/>
    <polygon class="st0" points="513.5 348.9 530.6 346 544.7 356.1 513.5 348.9"/>
    <polygon class="st0" points="499.4 336.3 502.7 336.1 513.5 348.9 499.4 336.3"/>
    <polygon class="st0" points="513.5 348.9 502.7 336.1 517.3 340 513.5 348.9"/>
    <polygon class="st0" points="499.4 336.3 502.7 336.1 485.9 310.7 499.4 336.3"/>
    <polygon class="st0" points="502.7 336.1 485.9 310.7 510.2 328.8 502.7 336.1"/>
    <polygon class="st0" points="502.7 336.1 510.2 328.8 517.3 340 502.7 336.1"/>
    <polygon class="st0" points="517.3 340 510.2 328.8 525.2 329.2 517.3 340"/>
    <polygon class="st0" points="517.3 340 525.2 329.2 530.6 346 517.3 340"/>
    <polygon class="st0" points="530.6 346 525.2 329.2 559.1 350.5 530.6 346"/>
    <polygon class="st0" points="530.6 346 550.8 357.8 551.2 353.5 530.6 346"/>
    <polygon class="st0" points="550.8 357.8 530.6 346 544.7 356.1 550.8 357.8"/>
    <polygon class="st0" points="551.2 353.5 559.1 350.5 570.4 362.4 551.2 353.5"/>
    <polygon class="st0" points="551.2 353.5 570.4 362.4 572.9 370 551.2 353.5"/>
    <polygon class="st0" points="557.7 333.5 570.4 362.4 559.1 350.5 557.7 333.5"/>
    <polygon class="st0" points="570.4 362.4 557.7 333.5 573.9 348.4 570.4 362.4"/>
    <polygon class="st0" points="573.9 348.4 557.7 333.5 572.8 339.3 573.9 348.4"/>
    <polygon class="st0" points="559.1 350.5 557.7 333.5 541.8 314.5 559.1 350.5"/>
    <polygon class="st0" points="499.4 336.3 485.9 310.7 467.1 318.4 499.4 336.3"/>
    <polygon class="st0" points="462.2 200.9 462.4 197.7 465.3 197.9 462.2 200.9"/>
    <polygon class="st0" points="462.2 200.9 465.3 197.9 463.1 201.8 462.2 200.9"/>
    <polygon class="st0" points="463.1 201.8 465.3 197.9 465.4 201.9 463.1 201.8"/>
    <polygon class="st0" points="465.4 201.9 465.3 197.9 466.5 200.7 465.4 201.9"/>
    <polygon class="st0" points="466.5 200.7 465.3 197.9 466.6 198.8 466.5 200.7"/>
    <polygon class="st0" points="508.6 290.8 485.9 310.7 519.8 304.7 508.6 290.8"/>
    <polygon class="st0" points="519.8 304.7 548.3 301.3 541.8 314.5 519.8 304.7"/>
    <polygon class="st0" points="541.8 314.5 548.3 301.3 565.2 324.8 541.8 314.5"/>
    <polygon class="st0" points="557.7 333.5 541.8 314.5 565.2 324.8 557.7 333.5"/>
    <polygon class="st0" points="557.7 333.5 565.2 324.8 572.8 339.3 557.7 333.5"/>
    <polygon class="st0" points="565.2 324.8 572.8 339.3 583.6 332 565.2 324.8"/>
    <polygon class="st0" points="583.6 332 572.8 339.3 592 344.5 583.6 332"/>
    <polygon class="st0" points="596.2 374.8 583.6 355.3 593.5 355.6 596.2 374.8"/>
    <polygon class="st0" points="592 344.5 593.5 355.6 583.6 355.3 592 344.5"/>
    <polygon class="st0" points="592 344.5 583.6 355.3 572.8 339.3 592 344.5"/>
    <polygon class="st0" points="608 379 593.5 355.6 606.3 357.2 608 379"/>
    <polygon class="st0" points="606.3 357.2 593.5 355.6 592 344.5 606.3 357.2"/>
    <polygon class="st0" points="599.5 413.6 602.4 393.6 593.9 410.6 599.5 413.6"/>
    <polygon class="st0" points="628 367.1 623.5 386.1 631.1 380.6 628 367.1"/>
    <polygon class="st0" points="635.8 345.5 628 367.1 639.4 351.9 635.8 345.5"/>
    <polygon class="st0" points="626.2 286.5 635.8 345.5 644 310.6 626.2 286.5"/>
    <polygon class="st0" points="671.3 379 667.3 353.4 671.4 355.5 671.3 379"/>
    <polygon class="st0" points="642.2 291.6 654.3 309.4 656.5 326.4 642.2 291.6"/>
    <polygon class="st0" points="656.5 326.4 654.3 309.4 662.5 327.1 656.5 326.4"/>
    <polygon class="st0" points="656.5 326.4 662.5 327.1 661.6 331.4 656.5 326.4"/>
    <polygon class="st0" points="662.8 343.8 661.6 331.4 665.1 332 662.8 343.8"/>
    <polygon class="st0" points="662.8 343.8 665.1 332 671.4 355.5 662.8 343.8"/>
    <polygon class="st0" points="662.8 343.8 671.4 355.5 667.3 353.4 662.8 343.8"/>
    <polygon class="st0" points="665.1 332 661.6 331.4 662.5 327.1 665.1 332"/>
    <polygon class="st0" points="664.7 379.4 661.2 355 671.3 379 664.7 379.4"/>
    <polygon class="st0" points="671.3 379 661.2 355 667.3 353.4 671.3 379"/>
    <polygon class="st0" points="662.8 343.8 667.3 353.4 661.2 355 662.8 343.8"/>
    <polygon class="st0" points="662.8 343.8 661.2 355 656 340.6 662.8 343.8"/>
    <polygon class="st0" points="631.1 380.6 639.4 351.9 628 367.1 631.1 380.6"/>
    <polygon class="st0" points="545 205 530.2 220.5 560.3 233.6 545 205"/>
    <polygon class="st0" points="650.8 210.7 666.7 199 671.6 205.9 650.8 210.7"/>
    <polygon class="st0" points="679 208.4 674.5 205.7 672.8 200.2 679 208.4"/>
    <polygon class="st0" points="672.8 200.2 674.5 205.7 671.6 205.9 672.8 200.2"/>
    <polygon class="st0" points="672.8 200.2 671.6 205.9 666.7 199 672.8 200.2"/>
    <polygon class="st0" points="626.7 229.9 650.8 210.7 651.3 217.1 626.7 229.9"/>
    <polygon class="st0" points="677.2 222.2 651.3 217.1 671.6 205.9 677.2 222.2"/>
    <polygon class="st0" points="677.2 222.2 671.6 205.9 679 208.4 677.2 222.2"/>
    <polygon class="st0" points="679 208.4 671.6 205.9 674.5 205.7 679 208.4"/>
    <polygon class="st0" points="671.6 205.9 651.3 217.1 650.8 210.7 671.6 205.9"/>
    <polygon class="st0" points="605.3 269.6 651.3 217.1 653.5 228.5 605.3 269.6"/>
    <polygon class="st0" points="677.2 222.2 653.5 228.5 651.3 217.1 677.2 222.2"/>
    <polygon class="st0" points="603.8 271.4 595.7 250.4 605.3 269.6 603.8 271.4"/>
    <polygon class="st0" points="605.3 269.6 595.7 250.4 601.2 244.6 605.3 269.6"/>
    <polygon class="st0" points="605.3 269.6 601.2 244.6 609.9 235.8 605.3 269.6"/>
    <polygon class="st0" points="605.3 269.6 609.9 235.8 621.6 231.7 605.3 269.6"/>
    <polygon class="st0" points="605.3 269.6 621.6 231.7 626.7 229.9 605.3 269.6"/>
    <polygon class="st0" points="626.7 229.9 605.3 269.6 651.3 217.1 626.7 229.9"/>
    <polygon class="st0" points="582.2 255.4 587.8 253.3 600.7 271.8 582.2 255.4"/>
    <polygon class="st0" points="600.7 271.8 587.8 253.3 589.9 252.6 600.7 271.8"/>
    <polygon class="st0" points="600.7 271.8 589.9 252.6 595.7 250.4 600.7 271.8"/>
    <polygon class="st0" points="600.7 271.8 595.7 250.4 603.8 271.4 600.7 271.8"/>
    <polygon class="st0" points="312.9 358.1 331.3 341.6 346.4 351.9 312.9 358.1"/>
    <polygon class="st0" points="378.5 362.6 364.5 360.6 362.4 349.2 378.5 362.6"/>
    <polygon class="st0" points="362.4 349.2 364.5 360.6 346.4 351.9 362.4 349.2"/>
    <polygon class="st0" points="362.4 349.2 346.4 351.9 352.3 343.8 362.4 349.2"/>
    <polygon class="st0" points="352.3 343.8 346.4 351.9 331.3 341.6 352.3 343.8"/>
    <polygon class="st0" points="352.3 343.8 364.5 337.2 362.4 349.2 352.3 343.8"/>
    <polygon class="st0" points="378.5 362.6 362.4 349.2 383.8 349.6 378.5 362.6"/>
    <polygon class="st0" points="378.5 362.6 383.8 349.6 380.8 362.9 378.5 362.6"/>
    <polygon class="st0" points="391.1 367.6 380.8 362.9 383.8 349.6 391.1 367.6"/>
    <polygon class="st0" points="391.1 367.6 383.8 349.6 396.6 368.1 391.1 367.6"/>
    <polygon class="st0" points="383.8 349.6 362.4 349.2 364.5 337.2 383.8 349.6"/>
    <polygon class="st0" points="430.5 334.9 402.8 328.8 411.1 344.9 430.5 334.9"/>
    <polygon class="st0" points="440.8 379.5 455.8 368.7 468.4 378.7 440.8 379.5"/>
    <polygon class="st0" points="490.3 383.2 468.4 378.7 480 367.5 490.3 383.2"/>
    <polygon class="st0" points="480 367.5 468.4 378.7 455.8 368.7 480 367.5"/>
    <polygon class="st0" points="440.8 379.5 468.4 378.7 467.3 390.3 440.8 379.5"/>
    <polygon class="st0" points="467.3 390.3 468.4 378.7 490.3 383.2 467.3 390.3"/>
    <polygon class="st0" points="405.2 396.4 467.3 390.3 440.8 379.5 405.2 396.4"/>
    <polygon class="st0" points="423.9 365.4 396.6 368.1 400.4 395.5 423.9 365.4"/>
    <polygon class="st0" points="423.9 365.4 430.2 360.2 440.8 379.5 423.9 365.4"/>
    <polygon class="st0" points="440.8 379.5 430.2 360.2 455.8 368.7 440.8 379.5"/>
    <polygon class="st0" points="278.3 348.6 277.4 329 270 336.1 278.3 348.6"/>
    <polygon class="st0" points="280.5 326.2 277.4 329 275 317.5 280.5 326.2"/>
    <polygon class="st0" points="280.5 326.2 275 317.5 281.3 320.4 280.5 326.2"/>
    <polygon class="st0" points="264.9 299.8 267.6 308.9 261.7 317.5 264.9 299.8"/>
    <polygon class="st0" points="264.9 299.8 261.7 317.5 248.3 320 264.9 299.8"/>
    <polygon class="st0" points="270 336.1 261.7 317.5 277.4 329 270 336.1"/>
    <polygon class="st0" points="277.4 329 261.7 317.5 275 317.5 277.4 329"/>
    <polygon class="st0" points="275 317.5 261.7 317.5 267.6 308.9 275 317.5"/>
    <polygon class="st0" points="284 291.6 317.7 287.8 302.5 296.2 284 291.6"/>
    <polygon class="st0" points="302.5 296.2 317.7 287.8 318.1 294.6 302.5 296.2"/>
    <polygon class="st0" points="324.5 294.1 318.1 294.6 317.7 287.8 324.5 294.1"/>
    <polygon class="st0" points="324.5 294.1 317.7 287.8 347.4 283.8 324.5 294.1"/>
    <polygon class="st0" points="347.4 283.8 317.7 287.8 369.4 260.6 347.4 283.8"/>
    <polygon class="st0" points="311.1 271.9 318.9 242 328.8 247.4 311.1 271.9"/>
    <polygon class="st0" points="328.8 247.4 318.9 242 318 225.5 328.8 247.4"/>
    <polygon class="st0" points="328.8 247.4 318 225.5 345.4 216.7 328.8 247.4"/>
    <polygon class="st0" points="227.1 213.6 204.3 203.8 203.1 204.8 227.1 213.6"/>
    <polygon class="st0" points="203.1 204.8 203 221 216.7 245.7 203.1 204.8"/>
    <polygon class="st0" points="203 221 204.6 231.9 216.7 245.7 203 221"/>
    <polygon class="st0" points="204.6 231.9 210.1 248.7 216.7 245.7 204.6 231.9"/>
    <polygon class="st0" points="215.6 255.7 210.1 248.7 216.7 245.7 215.6 255.7"/>
    <polygon class="st0" points="215.6 255.7 216.7 245.7 223.4 258.5 215.6 255.7"/>
    <polygon class="st0" points="186.4 286.7 196.7 280.1 212.6 288 186.4 286.7"/>
    <polygon class="st0" points="186.4 286.7 212.6 288 213.9 300.2 186.4 286.7"/>
    <polygon class="st0" points="213.9 300.2 212.6 288 222.4 295.2 213.9 300.2"/>
    <polygon class="st0" points="243 292.2 222.4 295.2 212.6 288 243 292.2"/>
    <polygon class="st0" points="198.1 310.2 206.4 304.4 240.6 316.7 198.1 310.2"/>
    <polygon class="st0" points="240.6 316.7 206.4 304.4 213.9 300.2 240.6 316.7"/>
    <polygon class="st0" points="240.6 316.7 213.9 300.2 222.4 295.2 240.6 316.7"/>
    <polygon class="st0" points="198.1 310.2 192.2 328.2 240.6 316.7 198.1 310.2"/>
    <polygon class="st0" points="192.2 328.2 240.6 316.7 229.7 329 192.2 328.2"/>
    <polygon class="st0" points="229.7 329 240.6 316.7 248.3 320 229.7 329"/>
    <polygon class="st0" points="248.3 320 240.6 316.7 264.9 299.8 248.3 320"/>
    <polygon class="st0" points="270 336.1 268.5 369.5 278.3 348.6 270 336.1"/>
    <polygon class="st0" points="132.1 313.3 136.5 326.8 138.7 312.6 132.1 313.3"/>
    <polygon class="st0" points="145.8 342.4 138.7 312.6 136.5 326.8 145.8 342.4"/>
    <polygon class="st0" points="134.5 308.5 118.8 290.5 138.8 286.3 134.5 308.5"/>
    <polygon class="st0" points="138.8 286.3 118.8 290.5 124.7 268.8 138.8 286.3"/>
    <polygon class="st0" points="240.6 316.7 222.4 295.2 243 292.2 240.6 316.7"/>
    <polygon class="st0" points="240.6 316.7 243 292.2 264.9 299.8 240.6 316.7"/>
    <polygon class="st0" points="243 292.2 246.5 259 263.5 266.7 243 292.2"/>
    <polygon class="st0" points="243 292.2 263.5 266.7 264.9 299.8 243 292.2"/>
    <polygon class="st0" points="264.9 299.8 263.5 266.7 268.5 268.6 264.9 299.8"/>
    <polygon class="st0" points="264.9 299.8 268.5 268.6 280.1 273.2 264.9 299.8"/>
    <polygon class="st0" points="243 292.2 230.6 272.4 246.5 259 243 292.2"/>
    <polygon class="st0" points="246.5 259 230.6 272.4 232.5 263.9 246.5 259"/>
    <polygon class="st0" points="230.6 272.4 223.2 264.2 219.5 278.7 230.6 272.4"/>
    <polygon class="st0" points="223.2 264.2 223.4 258.5 215.6 255.7 223.2 264.2"/>
    <polygon class="st0" points="216.7 245.7 223.4 258.5 219.7 235.8 216.7 245.7"/>
    <polygon class="st0" points="250.8 249.3 247.8 243 252.7 243.5 250.8 249.3"/>
    <polygon class="st0" points="250.8 249.3 252.7 243.5 254.1 244.3 250.8 249.3"/>
    <polygon class="st0" points="250.8 249.3 247.8 243 232.5 263.9 250.8 249.3"/>
    <polygon class="st0" points="246.5 259 250.8 249.3 232.5 263.9 246.5 259"/>
    <polygon class="st0" points="296 274.5 279.3 250.4 290.2 244.2 296 274.5"/>
    <polygon class="st0" points="296 274.5 290.2 244.2 304.8 235.7 296 274.5"/>
    <polygon class="st0" points="284 291.6 296 274.5 297.2 288.1 284 291.6"/>
    <polygon class="st0" points="297.2 288.1 296 274.5 311.1 271.9 297.2 288.1"/>
    <polygon class="st0" points="311.1 271.9 296 274.5 312.2 250.4 311.1 271.9"/>
    <polygon class="st0" points="263.5 241.9 265 241.6 265.6 243.8 263.5 241.9"/>
    <polygon class="st0" points="265.6 243.8 265 241.6 266.8 243.1 265.6 243.8"/>
    <polygon class="st0" points="279.3 250.4 277.9 247.7 278.6 246.4 279.3 250.4"/>
    <polygon class="st0" points="279.3 250.4 278.6 246.4 282.3 244.5 279.3 250.4"/>
    <polygon class="st0" points="279.3 250.4 282.3 244.5 284 243.9 279.3 250.4"/>
    <polygon class="st0" points="279.3 250.4 284 243.9 290.2 244.2 279.3 250.4"/>
    <polygon class="st0" points="271.4 240.9 272.1 241.8 269.9 244 271.4 240.9"/>
    <polygon class="st0" points="271.4 240.9 269.9 244 268.3 243.3 271.4 240.9"/>
    <polygon class="st0" points="271.4 240.9 268.3 243.3 265.5 240.3 271.4 240.9"/>
    <polygon class="st0" points="265.5 240.3 268.3 243.3 266.8 243.1 265.5 240.3"/>
    <polygon class="st0" points="265.5 240.3 266.8 243.1 265 241.6 265.5 240.3"/>
    <polygon class="st0" points="269.2 245.2 269.9 244 274.7 246.6 269.2 245.2"/>
    <polygon class="st0" points="274.7 246.6 269.9 244 273.2 242 274.7 246.6"/>
    <polygon class="st0" points="274.7 246.6 273.2 242 275.4 245.3 274.7 246.6"/>
    <polygon class="st0" points="278.6 246.4 277.2 245.4 280.3 243.9 278.6 246.4"/>
    <polygon class="st0" points="278.6 246.4 280.3 243.9 282.3 244.5 278.6 246.4"/>
    <polygon class="st0" points="276 241.7 280.3 243.9 277.2 245.4 276 241.7"/>
    <polygon class="st0" points="276 241.7 277.2 245.4 275.4 245.3 276 241.7"/>
    <polygon class="st0" points="276 241.7 275.4 245.3 274.7 242 276 241.7"/>
    <polygon class="st0" points="274.7 242 275.4 245.3 273.2 242 274.7 242"/>
    <polygon class="st0" points="273.2 242 269.9 244 272.1 241.8 273.2 242"/>
    <polygon class="st0" points="273.1 240 272 236.4 274.6 239.9 273.1 240"/>
    <polygon class="st0" points="276 241.7 275.9 240.6 281 242.5 276 241.7"/>
    <polygon class="st0" points="276 241.7 281 242.5 280.3 243.9 276 241.7"/>
    <polygon class="st0" points="282.6 242.1 281 242.5 282.7 239.1 282.6 242.1"/>
    <polygon class="st0" points="282.7 239.1 281 242.5 275.9 240.6 282.7 239.1"/>
    <polygon class="st0" points="282.7 239.1 275.9 240.6 274.6 239.9 282.7 239.1"/>
    <polygon class="st0" points="282.7 239.1 274.6 239.9 272 236.4 282.7 239.1"/>
    <polygon class="st0" points="254.3 238.4 272 236.4 263.6 239.3 254.3 238.4"/>
    <polygon class="st0" points="254.3 238.4 263.6 239.3 262.2 239.6 254.3 238.4"/>
    <polygon class="st0" points="254.3 238.4 262.2 239.6 261.3 240.3 254.3 238.4"/>
    <polygon class="st0" points="265.5 240.3 263.6 239.3 272 236.4 265.5 240.3"/>
    <polygon class="st0" points="247.8 243 254.3 238.4 253.6 242.6 247.8 243"/>
    <polygon class="st0" points="247.8 243 253.6 242.6 252.7 243.5 247.8 243"/>
    <polygon class="st0" points="255.6 242.1 253.6 242.6 254.3 238.4 255.6 242.1"/>
    <polygon class="st0" points="259.2 252 258.9 248.4 260.9 248.2 259.2 252"/>
    <polygon class="st0" points="259.2 252 260.9 248.2 267.9 253 259.2 252"/>
    <polygon class="st0" points="267.9 253 260.9 248.2 267.5 249.3 267.9 253"/>
    <polygon class="st0" points="267.4 247.9 267.5 249.3 262 247 267.4 247.9"/>
    <polygon class="st0" points="262 247 267.5 249.3 260.9 248.2 262 247"/>
    <polygon class="st0" points="267.9 253 267.5 249.3 269 249.9 267.9 253"/>
    <polygon class="st0" points="267.9 253 269 249.9 270.4 249.5 267.9 253"/>
    <polygon class="st0" points="267.9 253 270.4 249.5 279.3 250.4 267.9 253"/>
    <polygon class="st0" points="279.3 250.4 270.4 249.5 270.7 248.4 279.3 250.4"/>
    <polygon class="st0" points="98.7 361.3 139.7 376.1 109.2 348.3 98.7 361.3"/>
    <polygon class="st0" points="556.8 443.7 539.8 449.7 576.5 449.5 556.8 443.7"/>
    <polygon class="st0" points="576.5 449.5 539.8 449.7 554.6 458.6 576.5 449.5"/>
    <polygon class="st0" points="556 475 506.4 473.4 541.3 481.6 556 475"/>
    <polygon class="st0" points="541.3 481.6 570.1 478.2 556 475 541.3 481.6"/>
    <polygon class="st0" points="254.1 244.3 253.6 242.6 255.6 242.1 254.1 244.3"/>
    <polygon class="st0" points="254.1 244.3 255.6 242.1 257.3 243.8 254.1 244.3"/>
    <polygon class="st0" points="255.6 242.1 254.3 238.4 260.5 241 255.6 242.1"/>
    <polygon class="st0" points="255.6 242.1 260.5 241 257 242.8 255.6 242.1"/>
    <polygon class="st0" points="260.5 241 254.3 238.4 261.3 240.3 260.5 241"/>
    <polygon class="st0" points="258.4 246.5 257.3 243.8 259.5 246 258.4 246.5"/>
    <polygon class="st0" points="279.3 250.4 270.7 248.4 276.5 247.8 279.3 250.4"/>
    <polygon class="st0" points="279.3 250.4 276.5 247.8 277.9 247.7 279.3 250.4"/>
    <polygon class="st0" points="263.5 241.9 265.6 243.8 261.2 245.9 263.5 241.9"/>
    <polygon class="st0" points="263.5 241.9 261.2 245.9 261.7 241.9 263.5 241.9"/>
    <polygon class="st0" points="260.5 241 261.7 241.9 257.3 243.8 260.5 241"/>
    <polygon class="st0" points="260.5 241 257.3 243.8 257 242.8 260.5 241"/>
    <polygon class="st0" points="257.3 243.8 261.7 241.9 259.5 246 257.3 243.8"/>
    <polygon class="st0" points="259.5 246 261.7 241.9 261.2 245.9 259.5 246"/>
    <polygon class="st0" points="262 247 261.2 245.9 265.6 243.8 262 247"/>
    <polygon class="st0" points="262 247 265.6 243.8 266.2 245.3 262 247"/>
    <polygon class="st0" points="262 247 266.2 245.3 267.4 247.9 262 247"/>
    <polygon class="st0" points="267.4 247.9 266.2 245.3 267.9 245.5 267.4 247.9"/>
    <polygon class="st0" points="267.4 247.9 267.9 245.5 269.8 247.7 267.4 247.9"/>
    <polygon class="st0" points="270.7 248.4 269.2 245.2 274.7 246.6 270.7 248.4"/>
    <polygon class="st0" points="270.7 248.4 274.7 246.6 276.5 247.8 270.7 248.4"/>
    <polygon class="st0" points="269.2 245.2 269.8 247.7 267.9 245.5 269.2 245.2"/>
    <polygon class="st0" points="261.7 241.9 262.2 239.6 263.5 241.9 261.7 241.9"/>
    <polygon class="st0" points="263.5 241.9 262.2 239.6 263.6 239.3 263.5 241.9"/>
    <polygon class="st0" points="263.5 241.9 263.6 239.3 265 241.6 263.5 241.9"/>
    <polygon class="st0" points="265 241.6 263.6 239.3 265.5 240.3 265 241.6"/>
    <polygon class="st0" points="265.5 240.3 272 236.4 271.4 240.9 265.5 240.3"/>
    <polygon class="st0" points="271.4 240.9 272 236.4 273.1 240 271.4 240.9"/>
    <polygon class="st0" points="272.1 241.8 273.1 240 273.2 242 272.1 241.8"/>
    <polygon class="st0" points="273.2 242 273.1 240 274.6 239.9 273.2 242"/>
    <polygon class="st0" points="273.2 242 274.6 239.9 274.7 242 273.2 242"/>
    <polygon class="st0" points="274.7 242 274.6 239.9 275.9 240.6 274.7 242"/>
    <polygon class="st0" points="266.2 245.3 266.8 243.1 267.9 245.5 266.2 245.3"/>
    <polygon class="st0" points="267.9 245.5 266.8 243.1 268.3 243.3 267.9 245.5"/>
    <polygon class="st0" points="267.9 245.5 268.3 243.3 269.2 245.2 267.9 245.5"/>
    <polygon class="st0" points="269.2 245.2 268.3 243.3 269.9 244 269.2 245.2"/>
    <polygon class="st0" points="258.9 248.4 258.4 246.5 259.5 246 258.9 248.4"/>
    <polygon class="st0" points="258.9 248.4 259.5 246 260.9 248.2 258.9 248.4"/>
    <polygon class="st0" points="260.9 248.2 259.5 246 261.2 245.9 260.9 248.2"/>
    <polygon class="st0" points="267.5 249.3 267.4 247.9 269.8 247.7 267.5 249.3"/>
    <polygon class="st0" points="267.5 249.3 269.8 247.7 269 249.9 267.5 249.3"/>
    <polygon class="st0" points="269 249.9 269.8 247.7 270.4 249.5 269 249.9"/>
    <polygon class="st0" points="274.7 246.6 275.4 245.3 276.5 247.8 274.7 246.6"/>
    <polygon class="st0" points="276.5 247.8 275.4 245.3 277.2 245.4 276.5 247.8"/>
    <polygon class="st0" points="276.5 247.8 277.2 245.4 277.9 247.7 276.5 247.8"/>
    <polygon class="st0" points="277.9 247.7 277.2 245.4 278.6 246.4 277.9 247.7"/>
    <polygon class="st0" points="280.3 243.9 281 242.5 282.3 244.5 280.3 243.9"/>
    <polygon class="st0" points="282.3 244.5 281 242.5 282.6 242.1 282.3 244.5"/>
    <polygon class="st0" points="282.3 244.5 282.6 242.1 283.8 242.9 282.3 244.5"/>
    <polygon class="st0" points="468.6 484 451.9 497 489.9 479 468.6 484"/>
    <polygon class="st0" points="447.6 461.7 458 469.2 490.9 460.4 447.6 461.7"/>
    <polygon class="st0" points="461.7 476.5 475.6 471.7 445 475.9 461.7 476.5"/>
    <polygon class="st0" points="506.4 473.4 496.7 467.8 489.9 479 506.4 473.4"/>
    <polygon class="st0" points="551.2 353.5 559.1 350.5 530.6 346 551.2 353.5"/>
    <polygon class="st0" points="547 368.9 550.8 357.8 537.8 368.3 547 368.9"/>
    <polygon class="st0" points="622.8 480.5 615.1 464.7 583 469.9 622.8 480.5"/>
    <polygon class="st0" points="506.4 473.4 524.6 471.7 521.2 465.1 506.4 473.4"/>
    <polygon class="st0" points="528.4 424.2 528.3 430.8 534 426.2 528.4 424.2"/>
    <polygon class="st0" points="534 426.2 535.1 419.6 528.4 424.2 534 426.2"/>
    <polygon class="st0" points="547 368.9 537.8 368.3 540.5 382.2 547 368.9"/>
  </g>
</svg>