<?xml version="1.0" encoding="UTF-8"?>
<svg xmlns="http://www.w3.org/2000/svg" version="1.1" xmlns:xlink="http://www.w3.org/1999/xlink" viewBox="0 0 737 539">
  <!-- Generator: Adobe Illustrator 30.0.0, SVG Export Plug-In . SVG Version: 2.1.1 Build 123)  -->
  <defs>
    <style>
      .st0 {
        fill: none;
        stroke: #000;
        stroke-miterlimit: 10;
      }
    </style>
  </defs>
  <g id="Layer_2">
    <image width="2949" height="2155" transform="translate(-.6 -.4) scale(.2)" xlink:href="Trái Đất.png"/>
  </g>
  <g id="Layer_1">
    <polygon class="st0" points="233.9 319.4 221.4 308 242.8 350.4 233.9 319.4"/>
    <polygon class="st0" points="221.4 308 218.4 286 237.6 307.9 221.4 308"/>
    <polygon class="st0" points="221.4 308 237.6 307.9 233.9 319.4 221.4 308"/>
    <polygon class="st0" points="262.5 401.1 273.6 388.3 251.8 356.6 262.5 401.1"/>
    <polygon class="st0" points="273.6 388.3 262.5 401.1 276 408.5 273.6 388.3"/>
    <polygon class="st0" points="242.8 350.4 251.8 356.6 233.9 319.4 242.8 350.4"/>
    <polygon class="st0" points="262.5 401.1 245.9 375.6 251.8 356.6 262.5 401.1"/>
    <polygon class="st0" points="251.8 356.6 245.9 375.6 242.8 350.4 251.8 356.6"/>
    <polygon class="st0" points="291.9 399.9 286.7 393.8 289 389.9 291.9 399.9"/>
    <polygon class="st0" points="289 389.9 286.7 393.8 286.3 390.3 289 389.9"/>
    <polygon class="st0" points="289 389.9 291.9 399.9 298.1 396.2 289 389.9"/>
    <polygon class="st0" points="273.6 388.3 258 334.9 277.6 360.1 273.6 388.3"/>
    <polygon class="st0" points="273.6 388.3 277.6 360.1 283.6 372 273.6 388.3"/>
    <polygon class="st0" points="273.6 388.3 283.6 372 286.3 390.3 273.6 388.3"/>
    <polygon class="st0" points="273.6 388.3 258 334.9 251.8 356.6 273.6 388.3"/>
    <polygon class="st0" points="280.9 422.3 262.5 401.1 276 408.5 280.9 422.3"/>
    <polygon class="st0" points="280.9 422.3 276 408.5 289.3 422.6 280.9 422.3"/>
    <polygon class="st0" points="280.9 422.3 289.3 422.6 297.8 437.9 280.9 422.3"/>
    <polygon class="st0" points="297.8 437.9 289.3 422.6 300.5 434.5 297.8 437.9"/>
    <polygon class="st0" points="297.8 437.9 300.5 434.5 316 443.4 297.8 437.9"/>
    <polygon class="st0" points="297.8 437.9 316 443.4 334.1 462.4 297.8 437.9"/>
    <polygon class="st0" points="334.1 462.4 316 443.4 326.7 446.9 334.1 462.4"/>
    <polygon class="st0" points="217.6 267 232 188.1 228.6 267.6 217.6 267"/>
    <polygon class="st0" points="228.6 267.6 232 188.1 237.4 186.6 228.6 267.6"/>
    <polygon class="st0" points="232 188.1 247.5 155.7 237.4 186.6 232 188.1"/>
    <polygon class="st0" points="241 187.5 237.4 186.6 248.3 178.3 241 187.5"/>
    <polygon class="st0" points="254.8 183.5 248.3 178.3 257.3 164 254.8 183.5"/>
    <polygon class="st0" points="257.3 164 248.3 178.3 247.5 155.7 257.3 164"/>
    <polygon class="st0" points="247.5 155.7 248.3 178.3 237.4 186.6 247.5 155.7"/>
    <polygon class="st0" points="289 389.9 308.5 381.1 298.1 396.2 289 389.9"/>
    <polygon class="st0" points="298.1 396.2 308.5 381.1 305.5 395.6 298.1 396.2"/>
    <polygon class="st0" points="305.5 395.6 308.5 381.1 308.2 395.3 305.5 395.6"/>
    <polygon class="st0" points="308.2 395.3 305.5 395.6 308 402.9 308.2 395.3"/>
    <polygon class="st0" points="308.2 395.3 327.5 393.1 308.5 381.1 308.2 395.3"/>
    <polygon class="st0" points="320.4 420.5 308 402.9 321.5 416 320.4 420.5"/>
    <polygon class="st0" points="327.5 393.1 321.5 416 308 402.9 327.5 393.1"/>
    <polygon class="st0" points="327.5 393.1 308 402.9 308.2 395.3 327.5 393.1"/>
    <polygon class="st0" points="309.7 424 300.2 412.4 311 417 309.7 424"/>
    <polygon class="st0" points="309.7 424 311 417 312.4 424.4 309.7 424"/>
    <polygon class="st0" points="300.7 405.6 311 417 300.2 412.4 300.7 405.6"/>
    <polygon class="st0" points="311 417 300.7 405.6 308 402.9 311 417"/>
    <polygon class="st0" points="311 417 308 402.9 320.4 420.5 311 417"/>
    <polygon class="st0" points="327.5 233.5 321.8 227.6 332.7 230.9 327.5 233.5"/>
    <polygon class="st0" points="332.7 230.9 321.8 227.6 333.2 224.9 332.7 230.9"/>
    <polygon class="st0" points="327.5 233.5 321.8 227.6 308.5 243.6 327.5 233.5"/>
    <polygon class="st0" points="383.9 296.4 397.2 285.4 350.7 284.1 383.9 296.4"/>
    <polygon class="st0" points="397.2 285.4 383.9 296.4 393.2 292.6 397.2 285.4"/>
    <polygon class="st0" points="397.2 285.4 393.2 292.6 401.9 292.3 397.2 285.4"/>
    <polygon class="st0" points="350.7 284.1 395.6 273.8 389.6 260.6 350.7 284.1"/>
    <polygon class="st0" points="350.7 284.1 395.6 273.8 397.2 285.4 350.7 284.1"/>
    <polygon class="st0" points="397.2 285.4 395.6 273.8 399.9 283.1 397.2 285.4"/>
    <polygon class="st0" points="422.5 222 426.8 216.2 422.2 215.6 422.5 222"/>
    <polygon class="st0" points="426.8 216.2 422.5 222 429.7 222.5 426.8 216.2"/>
    <polygon class="st0" points="415.9 215.6 412.4 211.9 420.8 208.7 415.9 215.6"/>
    <polygon class="st0" points="415.9 215.6 420.8 208.7 422.2 215.6 415.9 215.6"/>
    <polygon class="st0" points="415.9 215.6 422.2 215.6 422.5 222 415.9 215.6"/>
    <polygon class="st0" points="440 219 429.7 222.5 442.6 233.4 440 219"/>
    <polygon class="st0" points="429.7 222.5 434.9 215 440 219 429.7 222.5"/>
    <polygon class="st0" points="440 219 434.9 215 438.5 213.9 440 219"/>
    <polygon class="st0" points="462.8 205.4 464.3 218.1 465.9 211.6 462.8 205.4"/>
    <polygon class="st0" points="464.3 218.1 462.8 205.4 460.5 200.1 464.3 218.1"/>
    <polygon class="st0" points="462.8 205.4 465.9 211.6 468.5 205.5 462.8 205.4"/>
    <polygon class="st0" points="464.3 218.1 465.9 211.6 477.9 216 464.3 218.1"/>
    <polygon class="st0" points="477.9 216 465.9 211.6 478 212.1 477.9 216"/>
    <polygon class="st0" points="465.9 211.6 468.5 205.5 477 204.7 465.9 211.6"/>
    <polygon class="st0" points="477 204.7 468.5 205.5 475 201.5 477 204.7"/>
    <polygon class="st0" points="473 259.1 471.2 254.7 476.6 250.6 473 259.1"/>
    <polygon class="st0" points="473 259.1 476.6 250.6 481.9 255.9 473 259.1"/>
    <polygon class="st0" points="481.9 255.9 473 259.1 478.3 261.7 481.9 255.9"/>
    <polygon class="st0" points="292.3 187.9 303 192.5 299.1 185 292.3 187.9"/>
    <polygon class="st0" points="303 192.5 292.3 187.9 286.2 188.9 303 192.5"/>
    <polygon class="st0" points="297.9 178.3 303 177 300.5 172.5 297.9 178.3"/>
    <polygon class="st0" points="297.8 181.6 297.9 178.3 302.2 181.5 297.8 181.6"/>
    <polygon class="st0" points="302.2 181.5 297.9 178.3 303 177 302.2 181.5"/>
    <polygon class="st0" points="302.2 181.5 299.1 185 305.9 182 302.2 181.5"/>
    <polygon class="st0" points="292.3 187.9 297.8 181.6 299.1 185 292.3 187.9"/>
    <polygon class="st0" points="299.1 185 297.8 181.6 302.2 181.5 299.1 185"/>
    <polygon class="st0" points="303 192.5 299.1 185 305.9 182 303 192.5"/>
    <polygon class="st0" points="303 192.5 305.9 182 325.3 191 303 192.5"/>
    <polygon class="st0" points="325.3 191 343.1 189 325.6 184 325.3 191"/>
    <polygon class="st0" points="325.3 191 343.1 189 332.3 196.4 325.3 191"/>
    <polygon class="st0" points="332.3 196.4 343.1 189 338 196 332.3 196.4"/>
    <polygon class="st0" points="325.6 184 321.5 178.7 328.8 167.9 325.6 184"/>
    <polygon class="st0" points="325.6 184 328.8 167.9 343.1 189 325.6 184"/>
    <polygon class="st0" points="254.8 183.5 257.3 164 270.4 169.6 254.8 183.5"/>
    <polygon class="st0" points="270.4 169.6 257.3 164 284.3 143.9 270.4 169.6"/>
    <polygon class="st0" points="284.3 143.9 257.3 164 275.7 131.7 284.3 143.9"/>
    <polygon class="st0" points="284.3 143.9 270.4 169.6 283.5 166 284.3 143.9"/>
    <polygon class="st0" points="285.2 183 283.5 166 291.2 181.6 285.2 183"/>
    <polygon class="st0" points="291.2 181.6 283.5 166 298.1 171.4 291.2 181.6"/>
    <polygon class="st0" points="298.1 171.4 283.5 166 298.2 165.3 298.1 171.4"/>
    <polygon class="st0" points="283.5 166 307.2 140.3 298.2 165.3 283.5 166"/>
    <polygon class="st0" points="298.2 165.3 307.2 140.3 320.7 143.7 298.2 165.3"/>
    <polygon class="st0" points="298.2 165.3 320.7 143.7 315.5 168.4 298.2 165.3"/>
    <polygon class="st0" points="298.2 165.3 315.5 168.4 310.1 176.8 298.2 165.3"/>
    <polygon class="st0" points="310.4 197 325.3 191 303 192.5 310.4 197"/>
    <polygon class="st0" points="325.3 191 310.4 197 312.8 207.2 325.3 191"/>
    <polygon class="st0" points="400.3 189 411 198.4 417.4 192.8 400.3 189"/>
    <polygon class="st0" points="400 205.2 400.3 189 411 198.4 400 205.2"/>
    <polygon class="st0" points="400 205.2 411 198.4 404.2 207.4 400 205.2"/>
    <polygon class="st0" points="400.3 189 417.4 192.8 423.6 192.4 400.3 189"/>
    <polygon class="st0" points="369 143.3 359.2 115.8 396.8 135.4 369 143.3"/>
    <polygon class="st0" points="396.8 135.4 359.2 115.8 384.3 99.7 396.8 135.4"/>
    <polygon class="st0" points="396.8 135.4 384.3 99.7 410.3 101.6 396.8 135.4"/>
    <polygon class="st0" points="396.8 135.4 410.3 101.6 424 118.7 396.8 135.4"/>
    <polygon class="st0" points="400.3 89.4 410.3 101.6 384.3 99.7 400.3 89.4"/>
    <polygon class="st0" points="455.4 133.5 473.1 108.2 470.8 115.9 455.4 133.5"/>
    <polygon class="st0" points="455.4 133.5 470.8 115.9 460.5 133.2 455.4 133.5"/>
    <polygon class="st0" points="483.5 135.3 477.6 125.5 484.6 124.8 483.5 135.3"/>
    <polygon class="st0" points="483.5 135.3 484.6 124.8 492.5 127.9 483.5 135.3"/>
    <polygon class="st0" points="492.5 127.9 484.6 124.8 494.9 122 492.5 127.9"/>
    <polygon class="st0" points="494.9 122 484.6 124.8 490.9 115.5 494.9 122"/>
    <polygon class="st0" points="473.1 108.2 474.4 109.9 470.8 115.9 473.1 108.2"/>
    <polygon class="st0" points="470.8 115.9 474.4 109.9 477.6 125.5 470.8 115.9"/>
    <polygon class="st0" points="477.6 125.5 474.4 109.9 484.6 124.8 477.6 125.5"/>
    <polygon class="st0" points="455.4 133.5 473.1 108.2 452.7 101.5 455.4 133.5"/>
    <polygon class="st0" points="474.4 109.9 473.1 108.2 475 104 474.4 109.9"/>
    <polygon class="st0" points="475 104 473.1 108.2 473.6 103.9 475 104"/>
    <polygon class="st0" points="473.6 103.9 478.5 48.1 493.9 85.7 473.6 103.9"/>
    <polygon class="st0" points="473.6 103.9 493.9 85.7 475 104 473.6 103.9"/>
    <polygon class="st0" points="456.1 178.8 461.7 177.4 456.2 176.6 456.1 178.8"/>
    <polygon class="st0" points="457 184.4 456.1 178.8 461.7 177.4 457 184.4"/>
    <polygon class="st0" points="457 184.4 461.7 177.4 461.2 185.9 457 184.4"/>
    <polygon class="st0" points="442.8 264 422.5 222 445 260.5 442.8 264"/>
    <polygon class="st0" points="473 259.1 464.2 256.6 471.2 254.7 473 259.1"/>
    <polygon class="st0" points="476.6 250.6 471.2 254.7 465.2 248.8 476.6 250.6"/>
    <polygon class="st0" points="476.6 250.6 465.2 248.8 477 243 476.6 250.6"/>
    <polygon class="st0" points="483.3 229 475.1 238.5 464.3 218.1 483.3 229"/>
    <polygon class="st0" points="483.3 229 464.3 218.1 477.9 216 483.3 229"/>
    <polygon class="st0" points="483.3 229 477.9 216 482.3 219.8 483.3 229"/>
    <polygon class="st0" points="470.8 115.9 477.6 125.5 460.5 133.2 470.8 115.9"/>
    <polygon class="st0" points="455.4 133.5 460.5 133.2 459.6 155.7 455.4 133.5"/>
    <polygon class="st0" points="455.4 133.5 459.6 155.7 450.5 165.2 455.4 133.5"/>
    <polygon class="st0" points="420.8 208.7 426.2 203 428.3 204.9 420.8 208.7"/>
    <polygon class="st0" points="420.8 208.7 428.3 204.9 426.8 216.2 420.8 208.7"/>
    <polygon class="st0" points="420.8 208.7 426.8 216.2 422.2 215.6 420.8 208.7"/>
    <polygon class="st0" points="422.5 222 429.7 222.5 445 260.5 422.5 222"/>
    <polygon class="st0" points="445 260.5 429.7 222.5 460.8 249.6 445 260.5"/>
    <polygon class="st0" points="445 260.5 460.8 249.6 453.2 260.3 445 260.5"/>
    <polygon class="st0" points="453.2 260.3 460.8 249.6 460.3 255.6 453.2 260.3"/>
    <polygon class="st0" points="464.2 256.6 465.2 248.8 471.2 254.7 464.2 256.6"/>
    <polygon class="st0" points="465.2 248.8 460.8 249.6 475.1 238.5 465.2 248.8"/>
    <polygon class="st0" points="465.2 248.8 475.1 238.5 477 243 465.2 248.8"/>
    <polygon class="st0" points="475.1 238.5 460.8 249.6 464.3 218.1 475.1 238.5"/>
    <polygon class="st0" points="464.3 218.1 460.8 249.6 457 215.9 464.3 218.1"/>
    <polygon class="st0" points="477.9 216 478 212.1 483.6 212 477.9 216"/>
    <polygon class="st0" points="477.9 216 483.6 212 482.3 219.8 477.9 216"/>
    <polygon class="st0" points="483.6 212 478 212.1 477 204.7 483.6 212"/>
    <polygon class="st0" points="483.6 212 477 204.7 483.2 193.4 483.6 212"/>
    <polygon class="st0" points="483.2 193.4 477 204.7 475 201.5 483.2 193.4"/>
    <polygon class="st0" points="483.2 193.4 475 201.5 481.3 184.6 483.2 193.4"/>
    <polygon class="st0" points="477.6 125.5 459.6 155.7 460.5 133.2 477.6 125.5"/>
    <polygon class="st0" points="459.6 155.7 464.4 164.6 457.6 167.3 459.6 155.7"/>
    <polygon class="st0" points="459.6 155.7 457.6 167.3 450.5 165.2 459.6 155.7"/>
    <polygon class="st0" points="450.5 165.2 457.6 167.3 456.2 176.6 450.5 165.2"/>
    <polygon class="st0" points="450.5 165.2 456.2 176.6 448.2 181.2 450.5 165.2"/>
    <polygon class="st0" points="428.3 204.9 433.7 210 426.8 216.2 428.3 204.9"/>
    <polygon class="st0" points="426.8 216.2 433.7 210 429.7 222.5 426.8 216.2"/>
    <polygon class="st0" points="429.7 222.5 433.7 210 451.3 213.8 429.7 222.5"/>
    <polygon class="st0" points="429.7 222.5 451.3 213.8 460.8 249.6 429.7 222.5"/>
    <polygon class="st0" points="460.8 249.6 451.3 213.8 457 215.9 460.8 249.6"/>
    <polygon class="st0" points="465.9 211.6 477 204.7 478 212.1 465.9 211.6"/>
    <polygon class="st0" points="456.2 176.6 456.1 178.8 449.3 181.3 456.2 176.6"/>
    <polygon class="st0" points="456.2 176.6 449.3 181.3 448.2 181.2 456.2 176.6"/>
    <polygon class="st0" points="448.2 181.2 449.3 181.3 447.6 187.6 448.2 181.2"/>
    <polygon class="st0" points="448.2 181.2 447.6 187.6 441.2 193.3 448.2 181.2"/>
    <polygon class="st0" points="441.2 193.3 447.6 187.6 449.4 194.6 441.2 193.3"/>
    <polygon class="st0" points="441.2 193.3 449.4 194.6 440.9 197.7 441.2 193.3"/>
    <polygon class="st0" points="434.6 201.9 440.6 203.8 433.7 210 434.6 201.9"/>
    <polygon class="st0" points="433.7 210 440.6 203.8 451.3 213.8 433.7 210"/>
    <polygon class="st0" points="451.3 213.8 440.6 203.8 449.4 194.6 451.3 213.8"/>
    <polygon class="st0" points="449.4 194.6 440.6 203.8 440.9 197.7 449.4 194.6"/>
    <polygon class="st0" points="457 184.4 447.6 187.6 452.4 190.2 457 184.4"/>
    <polygon class="st0" points="447.6 187.6 449.3 181.3 457 184.4 447.6 187.6"/>
    <polygon class="st0" points="457 184.4 449.3 181.3 456.1 178.8 457 184.4"/>
    <polygon class="st0" points="452.4 190.2 457 184.4 457 189.9 452.4 190.2"/>
    <polygon class="st0" points="457 189.9 457 184.4 461.2 185.9 457 189.9"/>
    <polygon class="st0" points="449.4 194.6 447.6 187.6 452.4 190.2 449.4 194.6"/>
    <polygon class="st0" points="449.4 194.6 452.4 190.2 460.5 200.1 449.4 194.6"/>
    <polygon class="st0" points="470.3 193.2 468.5 205.5 475 201.5 470.3 193.2"/>
    <polygon class="st0" points="462.8 205.4 460.5 200.1 468.5 205.5 462.8 205.4"/>
    <polygon class="st0" points="468.5 205.5 460.5 200.1 470.3 193.2 468.5 205.5"/>
    <polygon class="st0" points="470.3 193.2 460.5 200.1 460.8 191.9 470.3 193.2"/>
    <polygon class="st0" points="475 201.5 471.7 174.9 481.3 184.6 475 201.5"/>
    <polygon class="st0" points="481.3 184.6 471.7 174.9 471.2 171.3 481.3 184.6"/>
    <polygon class="st0" points="475 201.5 471.7 174.9 470.3 193.2 475 201.5"/>
    <polygon class="st0" points="528 238.5 522.4 212.2 532.1 214.2 528 238.5"/>
    <polygon class="st0" points="528 238.5 532.1 214.2 529.8 238.2 528 238.5"/>
    <polygon class="st0" points="532.6 210.4 532.1 214.2 522.4 212.2 532.6 210.4"/>
    <polygon class="st0" points="532.6 210.4 522.4 212.2 533.7 199 532.6 210.4"/>
    <polygon class="st0" points="532.9 244.2 531.4 237.9 546.9 241.2 532.9 244.2"/>
    <polygon class="st0" points="546.9 241.2 531.4 237.9 544.6 226.3 546.9 241.2"/>
    <polygon class="st0" points="542.7 213.3 544.6 226.3 532.1 214.2 542.7 213.3"/>
    <polygon class="st0" points="532.1 214.2 544.6 226.3 531.4 237.9 532.1 214.2"/>
    <polygon class="st0" points="532.1 214.2 531.4 237.9 529.8 238.2 532.1 214.2"/>
    <polygon class="st0" points="532.1 214.2 532.6 210.4 542.7 213.3 532.1 214.2"/>
    <polygon class="st0" points="542.7 213.3 532.6 210.4 542.3 209.4 542.7 213.3"/>
    <polygon class="st0" points="533.7 199 532.6 210.4 542.3 209.4 533.7 199"/>
    <polygon class="st0" points="563.4 225.4 554.9 186.3 568 208.2 563.4 225.4"/>
    <polygon class="st0" points="563.4 225.4 568 208.2 577.4 240 563.4 225.4"/>
    <polygon class="st0" points="547.9 246.1 546.9 241.2 577.4 240 547.9 246.1"/>
    <polygon class="st0" points="577.4 240 546.9 241.2 563.4 225.4 577.4 240"/>
    <polygon class="st0" points="554.9 186.3 568 208.2 572.3 188.9 554.9 186.3"/>
    <polygon class="st0" points="572.3 188.9 593.2 159.8 592.5 172.2 572.3 188.9"/>
    <polygon class="st0" points="572.3 188.9 592.5 172.2 578.5 193.4 572.3 188.9"/>
    <polygon class="st0" points="592.5 172.2 593.2 159.8 605.7 168 592.5 172.2"/>
    <polygon class="st0" points="592.5 172.2 605.7 168 604.5 174.5 592.5 172.2"/>
    <polygon class="st0" points="497.2 90.2 493.9 85.7 525.6 61.9 497.2 90.2"/>
    <polygon class="st0" points="525.6 61.9 493.9 85.7 478.5 48.1 525.6 61.9"/>
    <polygon class="st0" points="613.1 172 631.2 153.9 605.7 168 613.1 172"/>
    <polygon class="st0" points="631.2 153.9 613.1 172 625.7 184.9 631.2 153.9"/>
    <polygon class="st0" points="648.1 211.7 655.4 213.1 646.7 185.6 648.1 211.7"/>
    <polygon class="st0" points="655.3 257.7 648.1 211.7 655.4 213.1 655.3 257.7"/>
    <polygon class="st0" points="655.3 257.7 655.4 213.1 662 260.2 655.3 257.7"/>
    <polygon class="st0" points="592.3 209 614.5 184.6 623.9 205.3 592.3 209"/>
    <polygon class="st0" points="592.3 209 623.9 205.3 632.7 243.1 592.3 209"/>
    <polygon class="st0" points="623.9 205.3 614.5 184.6 625.7 184.9 623.9 205.3"/>
    <polygon class="st0" points="623.9 205.3 625.7 184.9 635.8 208.9 623.9 205.3"/>
    <polygon class="st0" points="625.7 184.9 614.5 184.6 613.7 183 625.7 184.9"/>
    <polygon class="st0" points="592.3 209 604.5 174.5 613.7 183 592.3 209"/>
    <polygon class="st0" points="592.3 209 613.7 183 614.5 184.6 592.3 209"/>
    <polygon class="st0" points="613.7 183 625.7 184.9 613.1 172 613.7 183"/>
    <polygon class="st0" points="662 260.2 655.3 257.7 659.9 298.1 662 260.2"/>
    <polygon class="st0" points="566.2 294.2 577.4 240 591 277.1 566.2 294.2"/>
    <polygon class="st0" points="566.2 294.2 591 277.1 615.7 260.2 566.2 294.2"/>
    <polygon class="st0" points="615.7 260.2 591 277.1 595 252.6 615.7 260.2"/>
    <polygon class="st0" points="591 277.1 595 252.6 577.4 240 591 277.1"/>
    <polygon class="st0" points="503.7 290.6 483.5 248.4 528.4 258.6 503.7 290.6"/>
    <polygon class="st0" points="528.4 258.6 483.5 248.4 486.5 220 528.4 258.6"/>
    <polygon class="st0" points="486.5 220 528.4 258.6 528 238.5 486.5 220"/>
    <polygon class="st0" points="489.3 281.5 481.9 255.9 503.7 290.6 489.3 281.5"/>
    <polygon class="st0" points="503.7 290.6 481.9 255.9 483.5 248.4 503.7 290.6"/>
    <polygon class="st0" points="488.2 216.4 486.5 220 491 218.1 488.2 216.4"/>
    <polygon class="st0" points="486.5 220 488.2 216.4 486.3 208.3 486.5 220"/>
    <polygon class="st0" points="488.2 212.1 486.3 208.3 488.2 216.4 488.2 212.1"/>
    <polygon class="st0" points="486.3 208.3 488.2 212.1 491 211.8 486.3 208.3"/>
    <polygon class="st0" points="393.9 251.1 389.6 260.6 399.7 250.6 393.9 251.1"/>
    <polygon class="st0" points="383.9 258.9 381.2 244.2 393.9 251.1 383.9 258.9"/>
    <polygon class="st0" points="383.9 258.9 393.9 251.1 389.6 260.6 383.9 258.9"/>
    <polygon class="st0" points="393.9 251.1 381.2 244.2 393 244.3 393.9 251.1"/>
    <polygon class="st0" points="393.9 251.1 399.7 250.6 393 244.3 393.9 251.1"/>
    <polygon class="st0" points="520.4 311 566.2 294.2 572.9 338.8 520.4 311"/>
    <polygon class="st0" points="572.9 338.8 566.2 294.2 585.1 310.2 572.9 338.8"/>
    <polygon class="st0" points="572.9 338.8 585.1 310.2 594.1 347.8 572.9 338.8"/>
    <polygon class="st0" points="594.1 347.8 585.1 310.2 607.5 321 594.1 347.8"/>
    <polygon class="st0" points="376.5 303.3 402.7 334 386.1 301 376.5 303.3"/>
    <polygon class="st0" points="367.9 342.7 360.4 323.4 402.7 334 367.9 342.7"/>
    <polygon class="st0" points="402.7 334 360.4 323.4 376.5 303.3 402.7 334"/>
    <polygon class="st0" points="442.3 276 448.8 267.1 445.7 276.6 442.3 276"/>
    <polygon class="st0" points="445.7 276.6 448.8 267.1 451.7 266.4 445.7 276.6"/>
    <polygon class="st0" points="451.7 266.4 448.8 267.1 451.4 263.5 451.7 266.4"/>
    <polygon class="st0" points="437.6 280.6 435 276.5 442.3 276 437.6 280.6"/>
    <polygon class="st0" points="437.6 280.6 442.3 276 445.7 276.6 437.6 280.6"/>
    <polygon class="st0" points="451.7 266.4 451.4 263.5 462 261.4 451.7 266.4"/>
    <polygon class="st0" points="462 261.4 451.4 263.5 462.5 259.7 462 261.4"/>
    <polygon class="st0" points="416.1 332.1 438.1 295.6 429.4 330.2 416.1 332.1"/>
    <polygon class="st0" points="453.7 329.6 429.4 330.2 438.1 295.6 453.7 329.6"/>
    <polygon class="st0" points="416.1 332.1 419.1 283.5 433.8 291.7 416.1 332.1"/>
    <polygon class="st0" points="416.1 332.1 433.8 291.7 438.1 295.6 416.1 332.1"/>
    <polygon class="st0" points="438.1 295.6 453.7 329.6 443.9 286.6 438.1 295.6"/>
    <polygon class="st0" points="367.9 342.7 402.7 334 399.9 356.4 367.9 342.7"/>
    <polygon class="st0" points="399.9 356.4 402.7 334 425.9 348.2 399.9 356.4"/>
    <polygon class="st0" points="402.7 334 416.1 332.1 425.9 348.2 402.7 334"/>
    <polygon class="st0" points="425.9 348.2 416.1 332.1 429.4 330.2 425.9 348.2"/>
    <polygon class="st0" points="425.9 348.2 429.4 330.2 453.7 329.6 425.9 348.2"/>
    <polygon class="st0" points="367.9 342.7 360.4 323.4 338.1 357.8 367.9 342.7"/>
    <polygon class="st0" points="399.9 356.4 367.9 342.7 380.9 356.2 399.9 356.4"/>
    <polygon class="st0" points="412.2 430.9 411.5 439.1 440.9 437.3 412.2 430.9"/>
    <polygon class="st0" points="411.5 439.1 412.2 430.9 402.6 433.8 411.5 439.1"/>
    <polygon class="st0" points="440.9 437.3 478.6 418.8 445.4 413.5 440.9 437.3"/>
    <polygon class="st0" points="440.9 437.3 478.6 418.8 464.7 449.5 440.9 437.3"/>
    <polygon class="st0" points="464.7 449.5 478.6 418.8 502.3 440.7 464.7 449.5"/>
    <polygon class="st0" points="505.7 441.7 502.3 440.7 478.6 418.8 505.7 441.7"/>
    <polygon class="st0" points="552.1 443.9 577.3 433.8 567.2 449 552.1 443.9"/>
    <polygon class="st0" points="567.2 449 577.3 433.8 589.6 431.2 567.2 449"/>
    <polygon class="st0" points="522.1 473.5 532.2 443.4 552.1 443.9 522.1 473.5"/>
    <polygon class="st0" points="522.1 473.5 552.1 443.9 567.2 449 522.1 473.5"/>
    <polygon class="st0" points="354.4 403.5 364.9 434.8 361.2 404.7 354.4 403.5"/>
    <polygon class="st0" points="364.9 434.8 354.4 403.5 353.5 409.8 364.9 434.8"/>
    <polygon class="st0" points="364.9 434.8 353.5 409.8 339.5 411.7 364.9 434.8"/>
    <polygon class="st0" points="361.2 404.7 364.9 434.8 365.9 404.8 361.2 404.7"/>
    <polygon class="st0" points="361.2 404.7 364.2 397.8 365.9 404.8 361.2 404.7"/>
    <polygon class="st0" points="365.9 404.8 364.2 397.8 366.1 397.9 365.9 404.8"/>
    <polygon class="st0" points="364.9 434.8 365.9 404.8 380.6 399.6 364.9 434.8"/>
    <polygon class="st0" points="380.6 399.6 365.9 404.8 366.1 397.9 380.6 399.6"/>
    <polygon class="st0" points="380.6 399.6 366.1 397.9 366.3 387.6 380.6 399.6"/>
    <polygon class="st0" points="364.9 434.8 380.6 399.6 396.2 435.7 364.9 434.8"/>
    <polygon class="st0" points="396.2 435.7 380.6 399.6 402.6 433.8 396.2 435.7"/>
    <polygon class="st0" points="402.6 433.8 380.6 399.6 408.9 420.9 402.6 433.8"/>
    <polygon class="st0" points="402.6 433.8 408.9 420.9 412.2 430.9 402.6 433.8"/>
    <polygon class="st0" points="440.9 437.3 412.2 430.9 408.9 420.9 440.9 437.3"/>
    <polygon class="st0" points="401.6 390.1 410.6 400 380.6 399.6 401.6 390.1"/>
    <polygon class="st0" points="380.6 399.6 410.6 400 408.9 420.9 380.6 399.6"/>
    <polygon class="st0" points="522.1 473.5 532.2 443.4 520.2 446.4 522.1 473.5"/>
    <polygon class="st0" points="522.1 473.5 520.2 446.4 505.7 441.7 522.1 473.5"/>
    <polygon class="st0" points="228.6 267.6 217.6 267 231.6 284.9 228.6 267.6"/>
    <polygon class="st0" points="231.6 284.9 228.6 267.6 241.1 269.8 231.6 284.9"/>
    <polygon class="st0" points="231.6 284.9 241.1 269.8 239 291.7 231.6 284.9"/>
    <polygon class="st0" points="231.6 284.9 217.6 267 218.4 286 231.6 284.9"/>
    <polygon class="st0" points="239 291.7 231.6 284.9 234.7 296.3 239 291.7"/>
    <polygon class="st0" points="237.6 307.9 234.7 296.3 238.4 299.2 237.6 307.9"/>
    <polygon class="st0" points="238.4 299.2 234.7 296.3 239 291.7 238.4 299.2"/>
    <polygon class="st0" points="239 291.7 238.4 299.2 245.6 299.9 239 291.7"/>
    <polygon class="st0" points="237.6 307.9 238.4 299.2 245.6 299.9 237.6 307.9"/>
    <polygon class="st0" points="237.6 307.9 245.6 299.9 244.7 309.5 237.6 307.9"/>
    <polygon class="st0" points="244.7 309.5 237.6 307.9 251.8 356.6 244.7 309.5"/>
    <polygon class="st0" points="244.7 309.5 245.6 299.9 252.2 294.4 244.7 309.5"/>
    <polygon class="st0" points="244.7 309.5 252.2 294.4 265 318.3 244.7 309.5"/>
    <polygon class="st0" points="242.8 350.4 221.4 308 245.9 375.6 242.8 350.4"/>
    <polygon class="st0" points="316 443.4 314.4 435 300.5 434.5 316 443.4"/>
    <polygon class="st0" points="314.4 435 316 443.4 326.7 446.9 314.4 435"/>
    <polygon class="st0" points="300.5 434.5 314.4 435 309.7 424 300.5 434.5"/>
    <polygon class="st0" points="300.5 434.5 289.3 422.6 309.7 424 300.5 434.5"/>
    <polygon class="st0" points="309.7 424 289.3 422.6 300.2 412.4 309.7 424"/>
    <polygon class="st0" points="309.7 424 314.4 435 312.4 424.4 309.7 424"/>
    <polygon class="st0" points="300.2 412.4 291.9 399.9 300.7 405.6 300.2 412.4"/>
    <polygon class="st0" points="300.7 405.6 291.9 399.9 298.1 396.2 300.7 405.6"/>
    <polygon class="st0" points="300.7 405.6 298.1 396.2 305.5 395.6 300.7 405.6"/>
    <polygon class="st0" points="300.7 405.6 305.5 395.6 308 402.9 300.7 405.6"/>
    <polygon class="st0" points="286.3 390.3 273.6 388.3 286.7 393.8 286.3 390.3"/>
    <polygon class="st0" points="286.7 393.8 273.6 388.3 278.4 403.1 286.7 393.8"/>
    <polygon class="st0" points="286.7 393.8 278.4 403.1 291.9 399.9 286.7 393.8"/>
    <polygon class="st0" points="278.4 403.1 273.6 388.3 276 408.5 278.4 403.1"/>
    <polygon class="st0" points="286.3 390.3 283.6 372 292.3 375.2 286.3 390.3"/>
    <polygon class="st0" points="286.3 390.3 292.3 375.2 289 389.9 286.3 390.3"/>
    <polygon class="st0" points="283.6 372 277.6 360.1 296 359.4 283.6 372"/>
    <polygon class="st0" points="296 359.4 277.6 360.1 281.8 344.9 296 359.4"/>
    <polygon class="st0" points="258 334.9 277.6 360.1 281.8 344.9 258 334.9"/>
    <polygon class="st0" points="258 334.9 281.8 344.9 265 318.3 258 334.9"/>
    <polygon class="st0" points="281.8 344.9 265 318.3 282.9 304.5 281.8 344.9"/>
    <polygon class="st0" points="281.8 344.9 282.9 304.5 296 359.4 281.8 344.9"/>
    <polygon class="st0" points="296 359.4 283.6 372 292.3 375.2 296 359.4"/>
    <polygon class="st0" points="292.3 375.2 308.5 381.1 296 359.4 292.3 375.2"/>
    <polygon class="st0" points="308.5 381.1 292.3 375.2 289 389.9 308.5 381.1"/>
    <polygon class="st0" points="308.5 381.1 296 359.4 338.1 357.8 308.5 381.1"/>
    <polygon class="st0" points="338.1 357.8 296 359.4 320.7 330.4 338.1 357.8"/>
    <polygon class="st0" points="252.2 294.4 265 318.3 282.9 304.5 252.2 294.4"/>
    <polygon class="st0" points="252.2 294.4 282.9 304.5 255.6 269.6 252.2 294.4"/>
    <polygon class="st0" points="241.1 269.8 239 291.7 255.6 269.6 241.1 269.8"/>
    <polygon class="st0" points="228.6 267.6 248.6 216.4 252.8 248.7 228.6 267.6"/>
    <polygon class="st0" points="228.6 267.6 252.8 248.7 241.1 269.8 228.6 267.6"/>
    <polygon class="st0" points="241.1 269.8 252.8 248.7 255.6 269.6 241.1 269.8"/>
    <polygon class="st0" points="252.8 248.7 255.6 269.6 279.4 231.1 252.8 248.7"/>
    <polygon class="st0" points="248.6 216.4 252.8 248.7 279.5 207.9 248.6 216.4"/>
    <polygon class="st0" points="228.6 267.6 237.4 186.6 239.2 191.3 228.6 267.6"/>
    <polygon class="st0" points="228.6 267.6 239.2 191.3 248.6 216.4 228.6 267.6"/>
    <polygon class="st0" points="237.4 186.6 239.2 191.3 241 187.5 237.4 186.6"/>
    <polygon class="st0" points="239.2 191.3 248.6 216.4 252.8 196.2 239.2 191.3"/>
    <polygon class="st0" points="255.6 269.6 282.9 304.5 289.8 280.5 255.6 269.6"/>
    <polygon class="st0" points="255.6 269.6 289.8 280.5 285.6 257.3 255.6 269.6"/>
    <polygon class="st0" points="285.6 257.3 289.8 280.5 350.7 284.1 285.6 257.3"/>
    <polygon class="st0" points="255.6 269.6 285.6 257.3 279.4 231.1 255.6 269.6"/>
    <polygon class="st0" points="252.8 248.7 279.4 231.1 279.5 207.9 252.8 248.7"/>
    <polygon class="st0" points="350.7 284.1 289.8 280.5 310.9 312.8 350.7 284.1"/>
    <polygon class="st0" points="320.7 330.4 310.9 312.8 360.4 323.4 320.7 330.4"/>
    <polygon class="st0" points="360.4 323.4 310.9 312.8 350.7 284.1 360.4 323.4"/>
    <polygon class="st0" points="350.7 284.1 360.4 323.4 376.5 303.3 350.7 284.1"/>
    <polygon class="st0" points="338.1 357.8 360.4 323.4 320.7 330.4 338.1 357.8"/>
    <polygon class="st0" points="308.5 381.1 338.1 357.8 327.5 393.1 308.5 381.1"/>
    <polygon class="st0" points="327.5 393.1 338.1 357.8 354.4 403.5 327.5 393.1"/>
    <polygon class="st0" points="327.5 393.1 321.5 416 328.1 419.9 327.5 393.1"/>
    <polygon class="st0" points="320.4 420.5 321.5 416 328.1 419.9 320.4 420.5"/>
    <polygon class="st0" points="320.4 420.5 328.1 419.9 333.5 433.8 320.4 420.5"/>
    <polygon class="st0" points="350.7 284.1 352.8 266.6 383.9 258.9 350.7 284.1"/>
    <polygon class="st0" points="350.7 284.1 383.9 258.9 389.6 260.6 350.7 284.1"/>
    <polygon class="st0" points="383.9 258.9 371.5 238 381.2 244.2 383.9 258.9"/>
    <polygon class="st0" points="378.7 231.3 381.2 244.2 371.5 238 378.7 231.3"/>
    <polygon class="st0" points="381.2 244.2 378.7 231.3 393 244.3 381.2 244.2"/>
    <polygon class="st0" points="393 244.3 378.7 231.3 391 214.4 393 244.3"/>
    <polygon class="st0" points="386.1 206.2 391 214.4 378.7 231.3 386.1 206.2"/>
    <polygon class="st0" points="378.7 231.3 359.1 216.9 371.5 238 378.7 231.3"/>
    <polygon class="st0" points="359.1 216.9 378.7 231.3 369.6 216.2 359.1 216.9"/>
    <polygon class="st0" points="332.7 230.9 333.2 224.9 344.3 218.3 332.7 230.9"/>
    <polygon class="st0" points="332.7 230.9 344.3 218.3 359.1 216.9 332.7 230.9"/>
    <polygon class="st0" points="344.3 218.3 338 196 359.1 216.9 344.3 218.3"/>
    <polygon class="st0" points="359.1 216.9 338 196 343.1 189 359.1 216.9"/>
    <polygon class="st0" points="333.2 224.9 332.3 196.4 344.3 218.3 333.2 224.9"/>
    <polygon class="st0" points="344.3 218.3 332.3 196.4 338 196 344.3 218.3"/>
    <polygon class="st0" points="333.2 224.9 326.4 220.6 321.8 227.6 333.2 224.9"/>
    <polygon class="st0" points="326.4 220.6 325.3 191 332.3 196.4 326.4 220.6"/>
    <polygon class="st0" points="326.4 220.6 332.3 196.4 333.2 224.9 326.4 220.6"/>
    <polygon class="st0" points="314.8 223.5 312.8 207.2 326.4 220.6 314.8 223.5"/>
    <polygon class="st0" points="314.8 223.5 326.4 220.6 321.8 227.6 314.8 223.5"/>
    <polygon class="st0" points="308.5 243.6 321.8 227.6 314.8 223.5 308.5 243.6"/>
    <polygon class="st0" points="350.7 284.1 352.8 266.6 308.5 243.6 350.7 284.1"/>
    <polygon class="st0" points="352.8 266.6 359.1 216.9 333.7 248 352.8 266.6"/>
    <polygon class="st0" points="359.1 216.9 352.8 266.6 371.5 238 359.1 216.9"/>
    <polygon class="st0" points="383.9 258.9 371.5 238 352.8 266.6 383.9 258.9"/>
    <polygon class="st0" points="308.5 243.6 352.8 266.6 333.7 248 308.5 243.6"/>
    <polygon class="st0" points="327.5 233.5 308.5 243.6 333.7 248 327.5 233.5"/>
    <polygon class="st0" points="332.7 230.9 327.5 233.5 333.7 248 332.7 230.9"/>
    <polygon class="st0" points="359.1 216.9 332.7 230.9 333.7 248 359.1 216.9"/>
    <polygon class="st0" points="350.7 284.1 376.5 303.3 383.9 296.4 350.7 284.1"/>
    <polygon class="st0" points="383.9 296.4 376.5 303.3 386.1 301 383.9 296.4"/>
    <polygon class="st0" points="386.1 301 383.9 296.4 393.2 292.6 386.1 301"/>
    <polygon class="st0" points="386.1 301 393.2 292.6 401.9 292.3 386.1 301"/>
    <polygon class="st0" points="401.9 292.3 397.2 285.4 399.9 283.1 401.9 292.3"/>
    <polygon class="st0" points="401.9 292.3 399.9 283.1 417.7 281.4 401.9 292.3"/>
    <polygon class="st0" points="401.9 292.3 417.7 281.4 419.1 283.5 401.9 292.3"/>
    <polygon class="st0" points="399.9 283.1 410.6 271.5 411.8 273.9 399.9 283.1"/>
    <polygon class="st0" points="399.9 283.1 411.8 273.9 417.7 281.4 399.9 283.1"/>
    <polygon class="st0" points="425 283.6 419.1 283.5 419.2 277.7 425 283.6"/>
    <polygon class="st0" points="425 283.6 419.2 277.7 428.3 271.9 425 283.6"/>
    <polygon class="st0" points="425 283.6 428.3 271.9 435 276.5 425 283.6"/>
    <polygon class="st0" points="442.3 276 435 276.5 442.8 264 442.3 276"/>
    <polygon class="st0" points="442.3 276 442.8 264 448.8 267.1 442.3 276"/>
    <polygon class="st0" points="462.5 259.7 451.4 263.5 453.2 260.3 462.5 259.7"/>
    <polygon class="st0" points="462.5 259.7 453.2 260.3 460.3 255.6 462.5 259.7"/>
    <polygon class="st0" points="411.8 273.9 419.2 277.7 417.7 281.4 411.8 273.9"/>
    <polygon class="st0" points="417.7 281.4 419.2 277.7 419.1 283.5 417.7 281.4"/>
    <polygon class="st0" points="428.3 271.9 432.3 264.9 435 276.5 428.3 271.9"/>
    <polygon class="st0" points="435 276.5 432.3 264.9 442.8 264 435 276.5"/>
    <polygon class="st0" points="442.8 264 445 260.5 448.8 267.1 442.8 264"/>
    <polygon class="st0" points="448.8 267.1 445 260.5 451.4 263.5 448.8 267.1"/>
    <polygon class="st0" points="451.4 263.5 445 260.5 453.2 260.3 451.4 263.5"/>
    <polygon class="st0" points="425 283.6 419.1 283.5 433.8 291.7 425 283.6"/>
    <polygon class="st0" points="435 276.5 425 283.6 437.6 280.6 435 276.5"/>
    <polygon class="st0" points="462.5 259.7 462 261.4 473.8 264 462.5 259.7"/>
    <polygon class="st0" points="462 261.4 451.7 266.4 461.3 277.5 462 261.4"/>
    <polygon class="st0" points="451.7 266.4 445.7 276.6 456.7 277.9 451.7 266.4"/>
    <polygon class="st0" points="437.5 286.8 437.6 280.6 443.9 286.6 437.5 286.8"/>
    <polygon class="st0" points="443.9 286.6 437.6 280.6 445.7 276.6 443.9 286.6"/>
    <polygon class="st0" points="425 283.6 437.6 280.6 437.5 286.8 425 283.6"/>
    <polygon class="st0" points="425 283.6 437.5 286.8 433.8 291.7 425 283.6"/>
    <polygon class="st0" points="433.8 291.7 437.5 286.8 438.1 295.6 433.8 291.7"/>
    <polygon class="st0" points="438.1 295.6 437.5 286.8 443.9 286.6 438.1 295.6"/>
    <polygon class="st0" points="443.9 286.6 456.7 277.9 445.7 276.6 443.9 286.6"/>
    <polygon class="st0" points="443.9 286.6 456.7 277.9 477.6 302.4 443.9 286.6"/>
    <polygon class="st0" points="477.6 302.4 456.7 277.9 461.3 277.5 477.6 302.4"/>
    <polygon class="st0" points="456.7 277.9 461.3 277.5 451.7 266.4 456.7 277.9"/>
    <polygon class="st0" points="461.3 277.5 473.8 264 462 261.4 461.3 277.5"/>
    <polygon class="st0" points="473.8 264 461.3 277.5 478.3 261.7 473.8 264"/>
    <polygon class="st0" points="462.5 259.7 460.3 255.6 464.2 256.6 462.5 259.7"/>
    <polygon class="st0" points="462.5 259.7 464.2 256.6 473 259.1 462.5 259.7"/>
    <polygon class="st0" points="462.5 259.7 473 259.1 473.8 264 462.5 259.7"/>
    <polygon class="st0" points="473 259.1 473.8 264 478.3 261.7 473 259.1"/>
    <polygon class="st0" points="460.3 255.6 460.8 249.6 464.2 256.6 460.3 255.6"/>
    <polygon class="st0" points="464.2 256.6 460.8 249.6 465.2 248.8 464.2 256.6"/>
    <polygon class="st0" points="429 263 413.7 245.8 422.5 222 429 263"/>
    <polygon class="st0" points="429 263 422.5 222 442.8 264 429 263"/>
    <polygon class="st0" points="429 263 442.8 264 432.3 264.9 429 263"/>
    <polygon class="st0" points="411.8 273.9 432.3 264.9 428.3 271.9 411.8 273.9"/>
    <polygon class="st0" points="411.8 273.9 428.3 271.9 419.2 277.7 411.8 273.9"/>
    <polygon class="st0" points="411.8 273.9 410.6 271.5 421.1 261.7 411.8 273.9"/>
    <polygon class="st0" points="411.8 273.9 421.1 261.7 429 263 411.8 273.9"/>
    <polygon class="st0" points="411.8 273.9 429 263 432.3 264.9 411.8 273.9"/>
    <polygon class="st0" points="410.6 271.5 421.1 261.7 413.7 245.8 410.6 271.5"/>
    <polygon class="st0" points="421.1 261.7 429 263 413.7 245.8 421.1 261.7"/>
    <polygon class="st0" points="413.7 245.8 399.7 250.6 410.6 271.5 413.7 245.8"/>
    <polygon class="st0" points="399.7 250.6 401.2 217 413.7 245.8 399.7 250.6"/>
    <polygon class="st0" points="413.7 245.8 401.2 217 422.5 222 413.7 245.8"/>
    <polygon class="st0" points="399.9 283.1 395.6 273.8 399.7 250.6 399.9 283.1"/>
    <polygon class="st0" points="399.7 250.6 395.6 273.8 389.6 260.6 399.7 250.6"/>
    <polygon class="st0" points="399.9 283.1 410.6 271.5 399.7 250.6 399.9 283.1"/>
    <polygon class="st0" points="449.6 249.5 447.4 246.7 449.8 242.2 449.6 249.5"/>
    <polygon class="st0" points="449.6 249.5 449.8 242.2 457.3 245.8 449.6 249.5"/>
    <polygon class="st0" points="449.6 249.5 457.3 245.8 456.4 249.1 449.6 249.5"/>
    <polygon class="st0" points="443.4 238.7 442.6 233.4 455.3 236.2 443.4 238.7"/>
    <polygon class="st0" points="443.4 238.7 455.3 236.2 449.8 242.2 443.4 238.7"/>
    <polygon class="st0" points="401.2 217 412.4 211.9 415.9 215.6 401.2 217"/>
    <polygon class="st0" points="401.2 217 415.9 215.6 422.5 222 401.2 217"/>
    <polygon class="st0" points="401.2 217 412.4 211.9 404.2 207.4 401.2 217"/>
    <polygon class="st0" points="393 244.3 391 214.4 401.2 217 393 244.3"/>
    <polygon class="st0" points="393 244.3 401.2 217 399.7 250.6 393 244.3"/>
    <polygon class="st0" points="391 214.4 386.1 206.2 400 205.2 391 214.4"/>
    <polygon class="st0" points="391 214.4 400 205.2 401.2 217 391 214.4"/>
    <polygon class="st0" points="377.9 202.5 400.3 189 386.1 206.2 377.9 202.5"/>
    <polygon class="st0" points="386.1 206.2 400.3 189 400 205.2 386.1 206.2"/>
    <polygon class="st0" points="404.2 207.4 400 205.2 401.2 217 404.2 207.4"/>
    <polygon class="st0" points="411 198.4 404.2 207.4 412.4 211.9 411 198.4"/>
    <polygon class="st0" points="417.4 192.8 411 198.4 420.8 208.7 417.4 192.8"/>
    <polygon class="st0" points="423.6 192.4 417.4 192.8 426.2 203 423.6 192.4"/>
    <polygon class="st0" points="423.6 192.4 426.6 181.6 431.3 187.1 423.6 192.4"/>
    <polygon class="st0" points="431.3 187.1 426.6 181.6 450.5 165.2 431.3 187.1"/>
    <polygon class="st0" points="431.3 187.1 423.6 192.4 435.5 193.1 431.3 187.1"/>
    <polygon class="st0" points="431.3 187.1 435.5 193.1 441.2 193.3 431.3 187.1"/>
    <polygon class="st0" points="434.6 201.9 435.5 193.1 440.9 197.7 434.6 201.9"/>
    <polygon class="st0" points="434.6 201.9 440.9 197.7 440.6 203.8 434.6 201.9"/>
    <polygon class="st0" points="441.2 193.3 440.9 197.7 435.5 193.1 441.2 193.3"/>
    <polygon class="st0" points="426.2 203 434.6 201.9 428.3 204.9 426.2 203"/>
    <polygon class="st0" points="433.7 210 428.3 204.9 434.6 201.9 433.7 210"/>
    <polygon class="st0" points="420.8 208.7 426.2 203 417.4 192.8 420.8 208.7"/>
    <polygon class="st0" points="369.6 216.2 374.8 219.1 379.9 217.6 369.6 216.2"/>
    <polygon class="st0" points="374.8 219.1 369.6 216.2 378.7 231.3 374.8 219.1"/>
    <polygon class="st0" points="379.9 217.6 374.8 219.1 378.7 231.3 379.9 217.6"/>
    <polygon class="st0" points="369.6 216.2 371.6 211 380 213.6 369.6 216.2"/>
    <polygon class="st0" points="369.6 216.2 380 213.6 379.9 217.6 369.6 216.2"/>
    <polygon class="st0" points="371.6 211 386.1 206.2 380 213.6 371.6 211"/>
    <polygon class="st0" points="379.9 217.6 380 213.6 386.1 206.2 379.9 217.6"/>
    <polygon class="st0" points="359.1 216.9 377.9 202.5 371.6 211 359.1 216.9"/>
    <polygon class="st0" points="359.1 216.9 371.6 211 369.6 216.2 359.1 216.9"/>
    <polygon class="st0" points="386.1 206.2 371.6 211 377.9 202.5 386.1 206.2"/>
    <polygon class="st0" points="327.5 393.1 328.1 419.9 332.4 412.5 327.5 393.1"/>
    <polygon class="st0" points="333.5 433.8 328.1 419.9 339.5 411.7 333.5 433.8"/>
    <polygon class="st0" points="339.5 411.7 328.1 419.9 332.4 412.5 339.5 411.7"/>
    <polygon class="st0" points="333.5 433.8 336.2 440.6 348.2 444.4 333.5 433.8"/>
    <polygon class="st0" points="336.2 440.6 333.5 433.8 328.2 439.9 336.2 440.6"/>
    <polygon class="st0" points="348.2 444.4 336.2 440.6 326.7 446.9 348.2 444.4"/>
    <polygon class="st0" points="334.1 462.4 326.7 446.9 348.2 444.4 334.1 462.4"/>
    <polygon class="st0" points="334.1 462.4 348.2 444.4 371 468.3 334.1 462.4"/>
    <polygon class="st0" points="326.7 446.9 336.2 440.6 328.2 439.9 326.7 446.9"/>
    <polygon class="st0" points="326.7 446.9 328.2 439.9 314.4 435 326.7 446.9"/>
    <polygon class="st0" points="412.4 211.9 420.8 208.7 411 198.4 412.4 211.9"/>
    <polygon class="st0" points="423.6 192.4 426.2 203 435.5 193.1 423.6 192.4"/>
    <polygon class="st0" points="435.5 193.1 426.2 203 434.6 201.9 435.5 193.1"/>
    <polygon class="st0" points="457.3 245.8 463.8 238.1 463.4 245.5 457.3 245.8"/>
    <polygon class="st0" points="463.4 245.5 463.8 238.1 468 239.3 463.4 245.5"/>
    <polygon class="st0" points="468 239.3 468.8 226.1 462 231.2 468 239.3"/>
    <polygon class="st0" points="442.6 233.4 454.7 221.8 455.3 236.2 442.6 233.4"/>
    <polygon class="st0" points="455.3 236.2 454.7 221.8 462 231.2 455.3 236.2"/>
    <polygon class="st0" points="462 231.2 454.7 221.8 468.8 226.1 462 231.2"/>
    <polygon class="st0" points="446 219.7 447.4 217.2 454.7 221.8 446 219.7"/>
    <polygon class="st0" points="454.7 221.8 447.4 217.2 453.3 216.8 454.7 221.8"/>
    <polygon class="st0" points="446 219.7 440 219 442.6 233.4 446 219.7"/>
    <polygon class="st0" points="446 219.7 442.6 233.4 454.7 221.8 446 219.7"/>
    <polygon class="st0" points="449.8 242.2 455.3 236.2 457.3 245.8 449.8 242.2"/>
    <polygon class="st0" points="457.3 245.8 455.3 236.2 463.8 238.1 457.3 245.8"/>
    <polygon class="st0" points="455.3 236.2 463.8 238.1 462 231.2 455.3 236.2"/>
    <polygon class="st0" points="463.8 238.1 468 239.3 462 231.2 463.8 238.1"/>
    <polygon class="st0" points="451.3 213.8 449.4 194.6 456 207 451.3 213.8"/>
    <polygon class="st0" points="456 207 449.4 194.6 460.5 200.1 456 207"/>
    <polygon class="st0" points="451.3 213.8 456 207 457 215.9 451.3 213.8"/>
    <polygon class="st0" points="457 215.9 456 207 464.3 218.1 457 215.9"/>
    <polygon class="st0" points="460.5 200.1 456 207 464.3 218.1 460.5 200.1"/>
    <polygon class="st0" points="476.6 250.6 477 243 483.5 248.4 476.6 250.6"/>
    <polygon class="st0" points="476.6 250.6 483.5 248.4 481.9 255.9 476.6 250.6"/>
    <polygon class="st0" points="481.9 255.9 478.3 261.7 489.3 281.5 481.9 255.9"/>
    <polygon class="st0" points="477 243 475.1 238.5 483.3 229 477 243"/>
    <polygon class="st0" points="477 243 483.3 229 483.5 248.4 477 243"/>
    <polygon class="st0" points="483.5 248.4 483.3 229 486.5 220 483.5 248.4"/>
    <polygon class="st0" points="486.5 220 483.3 229 482.3 219.8 486.5 220"/>
    <polygon class="st0" points="482.3 219.8 486.5 220 483.6 212 482.3 219.8"/>
    <polygon class="st0" points="486.5 220 483.6 212 486.3 208.3 486.5 220"/>
    <polygon class="st0" points="483.2 193.4 486.1 196.6 486.3 208.3 483.2 193.4"/>
    <polygon class="st0" points="483.2 193.4 486.3 208.3 483.6 212 483.2 193.4"/>
    <polygon class="st0" points="483.2 193.4 486.1 196.6 481.3 184.6 483.2 193.4"/>
    <polygon class="st0" points="486.1 196.6 486.3 208.3 490.6 205.2 486.1 196.6"/>
    <polygon class="st0" points="490.6 205.2 486.1 196.6 490.5 197.6 490.6 205.2"/>
    <polygon class="st0" points="481.3 184.6 490.5 197.6 486.1 196.6 481.3 184.6"/>
    <polygon class="st0" points="490.5 197.6 481.3 184.6 502 183.2 490.5 197.6"/>
    <polygon class="st0" points="490.5 197.6 502 183.2 504.1 189.8 490.5 197.6"/>
    <polygon class="st0" points="491 211.8 490.6 205.2 504.1 189.8 491 211.8"/>
    <polygon class="st0" points="504.1 189.8 490.6 205.2 490.5 197.6 504.1 189.8"/>
    <polygon class="st0" points="279.4 231.1 312.8 207.2 314.8 223.5 279.4 231.1"/>
    <polygon class="st0" points="279.4 231.1 314.8 223.5 308.5 243.6 279.4 231.1"/>
    <polygon class="st0" points="279.4 231.1 303 192.5 312.8 207.2 279.4 231.1"/>
    <polygon class="st0" points="312.8 207.2 303 192.5 310.4 197 312.8 207.2"/>
    <polygon class="st0" points="279.4 231.1 303 192.5 279.5 207.9 279.4 231.1"/>
    <polygon class="st0" points="279.5 207.9 303 192.5 286.2 188.9 279.5 207.9"/>
    <polygon class="st0" points="279.5 207.9 276.2 196 286.2 188.9 279.5 207.9"/>
    <polygon class="st0" points="286.2 188.9 276.2 196 285.2 183 286.2 188.9"/>
    <polygon class="st0" points="248.6 216.4 252.8 196.2 260.9 207.9 248.6 216.4"/>
    <polygon class="st0" points="248.6 216.4 260.9 207.9 271.6 207.7 248.6 216.4"/>
    <polygon class="st0" points="248.6 216.4 271.6 207.7 279.5 207.9 248.6 216.4"/>
    <polygon class="st0" points="279.5 207.9 271.6 207.7 276.2 196 279.5 207.9"/>
    <polygon class="st0" points="260.5 196 260.9 207.9 252.8 196.2 260.5 196"/>
    <polygon class="st0" points="271.6 207.7 283.5 166 276.2 196 271.6 207.7"/>
    <polygon class="st0" points="285.2 183 276.2 196 283.5 166 285.2 183"/>
    <polygon class="st0" points="260.9 207.9 260.5 196 271.6 207.7 260.9 207.9"/>
    <polygon class="st0" points="271.6 207.7 260.5 196 262.5 185.9 271.6 207.7"/>
    <polygon class="st0" points="252.8 196.2 254.6 186.6 260.5 196 252.8 196.2"/>
    <polygon class="st0" points="260.5 196 254.6 186.6 262.5 185.9 260.5 196"/>
    <polygon class="st0" points="239.2 191.3 254.8 183.5 254.6 186.6 239.2 191.3"/>
    <polygon class="st0" points="239.2 191.3 254.6 186.6 252.8 196.2 239.2 191.3"/>
    <polygon class="st0" points="254.6 186.6 254.8 183.5 262.5 185.9 254.6 186.6"/>
    <polygon class="st0" points="262.5 185.9 254.8 183.5 270.4 169.6 262.5 185.9"/>
    <polygon class="st0" points="262.5 185.9 270.4 169.6 283.5 166 262.5 185.9"/>
    <polygon class="st0" points="283.5 166 262.5 185.9 271.6 207.7 283.5 166"/>
    <polygon class="st0" points="239.2 191.3 241 187.5 254.8 183.5 239.2 191.3"/>
    <polygon class="st0" points="254.8 183.5 241 187.5 248.3 178.3 254.8 183.5"/>
    <polygon class="st0" points="291.2 181.6 298.1 171.4 297.9 178.3 291.2 181.6"/>
    <polygon class="st0" points="297.9 178.3 298.1 171.4 300.5 172.5 297.9 178.3"/>
    <polygon class="st0" points="298.1 171.4 300.5 172.5 298.2 165.3 298.1 171.4"/>
    <polygon class="st0" points="310.1 176.8 298.2 165.3 300.5 172.5 310.1 176.8"/>
    <polygon class="st0" points="305.9 182 310.1 176.8 321.5 178.7 305.9 182"/>
    <polygon class="st0" points="321.5 178.7 310.1 176.8 318.2 175.8 321.5 178.7"/>
    <polygon class="st0" points="302.2 181.5 303 177 305.9 182 302.2 181.5"/>
    <polygon class="st0" points="305.9 182 303 177 310.1 176.8 305.9 182"/>
    <polygon class="st0" points="303 177 310.1 176.8 300.5 172.5 303 177"/>
    <polygon class="st0" points="292.3 187.9 291.2 181.6 297.8 181.6 292.3 187.9"/>
    <polygon class="st0" points="297.8 181.6 291.2 181.6 297.9 178.3 297.8 181.6"/>
    <polygon class="st0" points="321.5 178.7 328.8 167.9 318.2 175.8 321.5 178.7"/>
    <polygon class="st0" points="318.2 175.8 328.8 167.9 315.5 168.4 318.2 175.8"/>
    <polygon class="st0" points="318.2 175.8 315.5 168.4 310.1 176.8 318.2 175.8"/>
    <polygon class="st0" points="359.1 216.9 377.9 202.5 343.1 189 359.1 216.9"/>
    <polygon class="st0" points="378.7 231.3 386.1 206.2 379.9 217.6 378.7 231.3"/>
    <polygon class="st0" points="315.5 168.4 320.7 143.7 328.8 167.9 315.5 168.4"/>
    <polygon class="st0" points="328.8 167.9 320.7 143.7 341.8 148.9 328.8 167.9"/>
    <polygon class="st0" points="343.1 189 328.8 167.9 341.8 148.9 343.1 189"/>
    <polygon class="st0" points="343.1 189 341.8 148.9 378.3 169.6 343.1 189"/>
    <polygon class="st0" points="320.7 143.7 341.8 148.9 359.2 115.8 320.7 143.7"/>
    <polygon class="st0" points="284.3 143.9 275.7 131.7 296.2 97.3 284.3 143.9"/>
    <polygon class="st0" points="284.3 143.9 296.2 97.3 327.5 101.7 284.3 143.9"/>
    <polygon class="st0" points="284.3 143.9 327.5 101.7 307.2 140.3 284.3 143.9"/>
    <polygon class="st0" points="307.2 140.3 327.5 101.7 329.4 109.4 307.2 140.3"/>
    <polygon class="st0" points="329.4 109.4 327.5 101.7 337.7 69.5 329.4 109.4"/>
    <polygon class="st0" points="329.4 109.4 337.7 69.5 372.9 54.6 329.4 109.4"/>
    <polygon class="st0" points="257.3 164 275.7 131.7 247.5 155.7 257.3 164"/>
    <polygon class="st0" points="325.3 191 312.8 207.2 326.4 220.6 325.3 191"/>
    <polygon class="st0" points="305.9 182 321.5 178.7 325.3 191 305.9 182"/>
    <polygon class="st0" points="325.3 191 321.5 178.7 325.6 184 325.3 191"/>
    <polygon class="st0" points="372.9 54.6 329.4 109.4 359.2 115.8 372.9 54.6"/>
    <polygon class="st0" points="327.5 101.7 337.7 69.5 296.2 97.3 327.5 101.7"/>
    <polygon class="st0" points="275.7 131.7 296.2 97.3 247.5 155.7 275.7 131.7"/>
    <polygon class="st0" points="377.9 202.5 378.3 169.6 400.3 189 377.9 202.5"/>
    <polygon class="st0" points="400.3 189 378.3 169.6 398.2 163.3 400.3 189"/>
    <polygon class="st0" points="378.3 169.6 369 143.3 398.2 163.3 378.3 169.6"/>
    <polygon class="st0" points="398.2 163.3 369 143.3 396.8 135.4 398.2 163.3"/>
    <polygon class="st0" points="398.2 163.3 396.8 135.4 424 118.7 398.2 163.3"/>
    <polygon class="st0" points="398.2 163.3 424 118.7 426.6 181.6 398.2 163.3"/>
    <polygon class="st0" points="424 118.7 410.3 101.6 452.7 101.5 424 118.7"/>
    <polygon class="st0" points="452.7 101.5 410.3 101.6 425.5 77.7 452.7 101.5"/>
    <polygon class="st0" points="410.3 101.6 400.3 89.4 425.5 77.7 410.3 101.6"/>
    <polygon class="st0" points="425.5 77.7 400.3 89.4 416.1 46 425.5 77.7"/>
    <polygon class="st0" points="400.3 89.4 416.1 46 372.9 54.6 400.3 89.4"/>
    <polygon class="st0" points="426.6 181.6 424 118.7 450.5 165.2 426.6 181.6"/>
    <polygon class="st0" points="450.5 165.2 424 118.7 455.4 133.5 450.5 165.2"/>
    <polygon class="st0" points="455.4 133.5 424 118.7 452.7 101.5 455.4 133.5"/>
    <polygon class="st0" points="425.5 77.7 452.7 101.5 478.5 48.1 425.5 77.7"/>
    <polygon class="st0" points="452.7 101.5 478.5 48.1 473.6 103.9 452.7 101.5"/>
    <polygon class="st0" points="452.7 101.5 473.6 103.9 473.1 108.2 452.7 101.5"/>
    <polygon class="st0" points="425.5 77.7 478.5 48.1 416.1 46 425.5 77.7"/>
    <polygon class="st0" points="431.3 187.1 450.5 165.2 448.2 181.2 431.3 187.1"/>
    <polygon class="st0" points="431.3 187.1 448.2 181.2 441.2 193.3 431.3 187.1"/>
    <polygon class="st0" points="464.4 164.6 459.6 155.7 476.5 156.7 464.4 164.6"/>
    <polygon class="st0" points="476.5 156.7 459.6 155.7 477.6 125.5 476.5 156.7"/>
    <polygon class="st0" points="464.4 164.6 457.6 167.3 471.2 171.3 464.4 164.6"/>
    <polygon class="st0" points="456.2 176.6 457.6 167.3 461.7 177.4 456.2 176.6"/>
    <polygon class="st0" points="461.7 177.4 457.6 167.3 471.2 171.3 461.7 177.4"/>
    <polygon class="st0" points="460.8 191.9 461.2 185.9 470.3 193.2 460.8 191.9"/>
    <polygon class="st0" points="470.3 193.2 461.2 185.9 466 182.6 470.3 193.2"/>
    <polygon class="st0" points="470.3 193.2 466 182.6 471.7 174.9 470.3 193.2"/>
    <polygon class="st0" points="471.7 174.9 466 182.6 461.7 177.4 471.7 174.9"/>
    <polygon class="st0" points="471.7 174.9 461.7 177.4 471.2 171.3 471.7 174.9"/>
    <polygon class="st0" points="471.2 171.3 476.5 156.7 464.4 164.6 471.2 171.3"/>
    <polygon class="st0" points="481.3 184.6 471.2 171.3 486.1 158.5 481.3 184.6"/>
    <polygon class="st0" points="486.1 158.5 471.2 171.3 476.5 156.7 486.1 158.5"/>
    <polygon class="st0" points="476.5 156.7 487.1 148.5 486.1 158.5 476.5 156.7"/>
    <polygon class="st0" points="486.1 158.5 487.1 148.5 489.9 155.9 486.1 158.5"/>
    <polygon class="st0" points="486.1 158.5 489.9 155.9 498 162.3 486.1 158.5"/>
    <polygon class="st0" points="498 162.3 489.9 155.9 493.4 142.9 498 162.3"/>
    <polygon class="st0" points="521.2 133.1 516.6 135.3 494.9 122 521.2 133.1"/>
    <polygon class="st0" points="521.2 133.1 494.9 122 490.9 115.5 521.2 133.1"/>
    <polygon class="st0" points="483.5 135.3 492.5 127.9 489.5 138.1 483.5 135.3"/>
    <polygon class="st0" points="487.1 148.5 489.7 143.7 493.4 142.9 487.1 148.5"/>
    <polygon class="st0" points="487.1 148.5 493.4 142.9 489.9 155.9 487.1 148.5"/>
    <polygon class="st0" points="493.4 142.9 489.7 143.7 489.5 138.1 493.4 142.9"/>
    <polygon class="st0" points="493.4 142.9 489.5 138.1 492.5 127.9 493.4 142.9"/>
    <polygon class="st0" points="493.4 142.9 492.5 127.9 516.6 135.3 493.4 142.9"/>
    <polygon class="st0" points="516.6 135.3 492.5 127.9 494.9 122 516.6 135.3"/>
    <polygon class="st0" points="487.1 148.5 483.5 135.3 489.7 143.7 487.1 148.5"/>
    <polygon class="st0" points="489.7 143.7 483.5 135.3 489.5 138.1 489.7 143.7"/>
    <polygon class="st0" points="484.6 124.8 490.9 115.5 474.4 109.9 484.6 124.8"/>
    <polygon class="st0" points="476.5 156.7 477.6 125.5 483.5 135.3 476.5 156.7"/>
    <polygon class="st0" points="476.5 156.7 483.5 135.3 487.1 148.5 476.5 156.7"/>
    <polygon class="st0" points="460.5 200.1 457 189.9 460.8 191.9 460.5 200.1"/>
    <polygon class="st0" points="461.2 185.9 460.8 191.9 457 189.9 461.2 185.9"/>
    <polygon class="st0" points="461.2 185.9 466 182.6 461.7 177.4 461.2 185.9"/>
    <polygon class="st0" points="452.4 190.2 460.5 200.1 457 189.9 452.4 190.2"/>
    <polygon class="st0" points="498 162.3 494.5 176.1 502 183.2 498 162.3"/>
    <polygon class="st0" points="494.5 176.1 498 162.3 481.3 184.6 494.5 176.1"/>
    <polygon class="st0" points="494.5 176.1 481.3 184.6 502 183.2 494.5 176.1"/>
    <polygon class="st0" points="498 162.3 493.4 142.9 517.5 153 498 162.3"/>
    <polygon class="st0" points="498 162.3 517.5 153 510.3 166.3 498 162.3"/>
    <polygon class="st0" points="502 183.2 498 162.3 510.3 166.3 502 183.2"/>
    <polygon class="st0" points="502 183.2 510.3 166.3 521.2 178.9 502 183.2"/>
    <polygon class="st0" points="521.2 178.9 510.3 166.3 517.5 153 521.2 178.9"/>
    <polygon class="st0" points="521.2 178.9 517.5 153 563.1 124.3 521.2 178.9"/>
    <polygon class="st0" points="493.4 142.9 516.6 135.3 517.5 153 493.4 142.9"/>
    <polygon class="st0" points="517.5 153 516.6 135.3 521.2 133.1 517.5 153"/>
    <polygon class="st0" points="517.5 153 521.2 133.1 541.7 122.7 517.5 153"/>
    <polygon class="st0" points="504 198.7 504.1 189.8 509.6 200.1 504 198.7"/>
    <polygon class="st0" points="509.6 200.1 504.1 189.8 521.2 178.9 509.6 200.1"/>
    <polygon class="st0" points="521.2 178.9 504.1 189.8 502 183.2 521.2 178.9"/>
    <polygon class="st0" points="525.2 194.5 533.7 199 521.2 178.9 525.2 194.5"/>
    <polygon class="st0" points="510.8 206.2 509.6 200.1 525.2 194.5 510.8 206.2"/>
    <polygon class="st0" points="510.8 206.2 525.2 194.5 522.4 212.2 510.8 206.2"/>
    <polygon class="st0" points="522.4 212.2 525.2 194.5 533.7 199 522.4 212.2"/>
    <polygon class="st0" points="544.6 226.3 542.7 213.3 563.4 225.4 544.6 226.3"/>
    <polygon class="st0" points="563.4 225.4 542.7 213.3 542.3 209.4 563.4 225.4"/>
    <polygon class="st0" points="544.6 226.3 546.9 241.2 563.4 225.4 544.6 226.3"/>
    <polygon class="st0" points="542.3 209.4 533.7 199 554.9 186.3 542.3 209.4"/>
    <polygon class="st0" points="554.9 186.3 533.7 199 521.2 178.9 554.9 186.3"/>
    <polygon class="st0" points="521.2 178.9 554.9 186.3 546.3 157.9 521.2 178.9"/>
    <polygon class="st0" points="563.1 124.3 521.2 178.9 546.3 157.9 563.1 124.3"/>
    <polygon class="st0" points="517.5 153 563.1 124.3 541.7 122.7 517.5 153"/>
    <polygon class="st0" points="546.3 157.9 554.9 186.3 593.2 159.8 546.3 157.9"/>
    <polygon class="st0" points="546.3 157.9 593.2 159.8 584.6 149.6 546.3 157.9"/>
    <polygon class="st0" points="474.4 109.9 497.2 90.2 490.9 115.5 474.4 109.9"/>
    <polygon class="st0" points="490.9 115.5 497.2 90.2 525.6 61.9 490.9 115.5"/>
    <polygon class="st0" points="525.6 61.9 490.9 115.5 521.2 133.1 525.6 61.9"/>
    <polygon class="st0" points="525.6 61.9 521.2 133.1 541.7 122.7 525.6 61.9"/>
    <polygon class="st0" points="525.6 61.9 541.7 122.7 572 88.3 525.6 61.9"/>
    <polygon class="st0" points="572 88.3 541.7 122.7 563.1 124.3 572 88.3"/>
    <polygon class="st0" points="572 88.3 563.1 124.3 613.1 127.6 572 88.3"/>
    <polygon class="st0" points="613.1 127.6 563.1 124.3 584.6 149.6 613.1 127.6"/>
    <polygon class="st0" points="613.1 127.6 593.2 159.8 631.2 153.9 613.1 127.6"/>
    <polygon class="st0" points="593.2 159.8 613.1 127.6 584.6 149.6 593.2 159.8"/>
    <polygon class="st0" points="631.2 153.9 593.2 159.8 605.7 168 631.2 153.9"/>
    <polygon class="st0" points="631.2 153.9 639.3 185.9 646.7 185.6 631.2 153.9"/>
    <polygon class="st0" points="639.3 185.9 631.2 153.9 625.7 184.9 639.3 185.9"/>
    <polygon class="st0" points="635.8 208.9 625.7 184.9 639.3 185.9 635.8 208.9"/>
    <polygon class="st0" points="635.8 208.9 639.3 185.9 648.1 211.7 635.8 208.9"/>
    <polygon class="st0" points="613.1 172 605.7 168 604.5 174.5 613.1 172"/>
    <polygon class="st0" points="632.7 243.1 623.9 205.3 635.8 208.9 632.7 243.1"/>
    <polygon class="st0" points="632.7 243.1 635.8 208.9 648.1 211.7 632.7 243.1"/>
    <polygon class="st0" points="639.3 185.9 648.1 211.7 646.7 185.6 639.3 185.9"/>
    <polygon class="st0" points="648.1 211.7 632.7 243.1 655.3 257.7 648.1 211.7"/>
    <polygon class="st0" points="659.9 298.1 627.3 255 655.3 257.7 659.9 298.1"/>
    <polygon class="st0" points="655.3 257.7 627.3 255 632.7 243.1 655.3 257.7"/>
    <polygon class="st0" points="592.3 209 578.5 193.4 604.5 174.5 592.3 209"/>
    <polygon class="st0" points="604.5 174.5 578.5 193.4 592.5 172.2 604.5 174.5"/>
    <polygon class="st0" points="592.3 209 578.5 193.4 568 208.2 592.3 209"/>
    <polygon class="st0" points="568 208.2 578.5 193.4 572.3 188.9 568 208.2"/>
    <polygon class="st0" points="592.3 209 568 208.2 577.4 240 592.3 209"/>
    <polygon class="st0" points="592.3 209 577.4 240 589.8 230.2 592.3 209"/>
    <polygon class="st0" points="577.4 240 595 252.6 589.8 230.2 577.4 240"/>
    <polygon class="st0" points="595 252.6 589.8 230.2 627.3 255 595 252.6"/>
    <polygon class="st0" points="595 252.6 627.3 255 615.7 260.2 595 252.6"/>
    <polygon class="st0" points="627.3 255 615.7 260.2 585.1 310.2 627.3 255"/>
    <polygon class="st0" points="589.8 230.2 592.3 209 632.7 243.1 589.8 230.2"/>
    <polygon class="st0" points="589.8 230.2 632.7 243.1 627.3 255 589.8 230.2"/>
    <polygon class="st0" points="659.9 298.1 627.3 255 607.5 321 659.9 298.1"/>
    <polygon class="st0" points="659.9 298.1 607.5 321 645.2 351.9 659.9 298.1"/>
    <polygon class="st0" points="607.5 321 627.3 255 585.1 310.2 607.5 321"/>
    <polygon class="st0" points="585.1 310.2 615.7 260.2 566.2 294.2 585.1 310.2"/>
    <polygon class="st0" points="566.2 294.2 545.2 262.5 577.4 240 566.2 294.2"/>
    <polygon class="st0" points="577.4 240 545.2 262.5 547.9 246.1 577.4 240"/>
    <polygon class="st0" points="520.4 311 566.2 294.2 528.4 258.6 520.4 311"/>
    <polygon class="st0" points="479.5 336.9 477.6 302.4 520.4 311 479.5 336.9"/>
    <polygon class="st0" points="479.5 336.9 520.4 311 510 361.7 479.5 336.9"/>
    <polygon class="st0" points="477.6 302.4 520.4 311 503.7 290.6 477.6 302.4"/>
    <polygon class="st0" points="477.6 302.4 503.7 290.6 489.3 281.5 477.6 302.4"/>
    <polygon class="st0" points="528.4 258.6 528 238.5 532.9 244.2 528.4 258.6"/>
    <polygon class="st0" points="532.9 244.2 528 238.5 529.8 238.2 532.9 244.2"/>
    <polygon class="st0" points="532.9 244.2 529.8 238.2 531.4 237.9 532.9 244.2"/>
    <polygon class="st0" points="486.5 220 491 218.1 528 238.5 486.5 220"/>
    <polygon class="st0" points="528 238.5 491 218.1 510.8 206.2 528 238.5"/>
    <polygon class="st0" points="490.6 205.2 486.3 208.3 491 211.8 490.6 205.2"/>
    <polygon class="st0" points="504.1 189.8 491 211.8 504 198.7 504.1 189.8"/>
    <polygon class="st0" points="504 198.7 491 211.8 491 218.1 504 198.7"/>
    <polygon class="st0" points="491 218.1 504 198.7 510.8 206.2 491 218.1"/>
    <polygon class="st0" points="510.8 206.2 504 198.7 509.6 200.1 510.8 206.2"/>
    <polygon class="st0" points="510.8 206.2 528 238.5 522.4 212.2 510.8 206.2"/>
    <polygon class="st0" points="489.3 281.5 478.3 261.7 477.6 302.4 489.3 281.5"/>
    <polygon class="st0" points="510 361.7 479.5 336.9 459.2 353.7 510 361.7"/>
    <polygon class="st0" points="510 361.7 520.4 311 539.5 368.1 510 361.7"/>
    <polygon class="st0" points="539.5 368.1 520.4 311 572.9 338.8 539.5 368.1"/>
    <polygon class="st0" points="539.5 368.1 572.9 338.8 555.6 371.4 539.5 368.1"/>
    <polygon class="st0" points="555.6 371.4 572.9 338.8 594.1 347.8 555.6 371.4"/>
    <polygon class="st0" points="555.6 371.4 594.1 347.8 591.5 385.7 555.6 371.4"/>
    <polygon class="st0" points="591.5 385.7 594.1 347.8 620.2 397 591.5 385.7"/>
    <polygon class="st0" points="557.2 400.4 539.5 368.1 555.6 371.4 557.2 400.4"/>
    <polygon class="st0" points="557.2 400.4 555.6 371.4 591.5 385.7 557.2 400.4"/>
    <polygon class="st0" points="511.5 403.4 500.8 384.5 539.5 368.1 511.5 403.4"/>
    <polygon class="st0" points="539.5 368.1 500.8 384.5 510 361.7 539.5 368.1"/>
    <polygon class="st0" points="607.5 321 594.1 347.8 645.2 351.9 607.5 321"/>
    <polygon class="st0" points="645.2 351.9 594.1 347.8 620.2 397 645.2 351.9"/>
    <polygon class="st0" points="620.2 397 591.5 385.7 601.1 419.8 620.2 397"/>
    <polygon class="st0" points="481.5 392.8 465 363.7 500.8 384.5 481.5 392.8"/>
    <polygon class="st0" points="500.8 384.5 465 363.7 510 361.7 500.8 384.5"/>
    <polygon class="st0" points="510 361.7 465 363.7 459.2 353.7 510 361.7"/>
    <polygon class="st0" points="481.5 392.8 465 363.7 455.2 388.9 481.5 392.8"/>
    <polygon class="st0" points="481.5 392.8 445.4 413.5 478.6 418.8 481.5 392.8"/>
    <polygon class="st0" points="445.4 413.5 481.5 392.8 455.2 388.9 445.4 413.5"/>
    <polygon class="st0" points="445.4 413.5 455.2 388.9 437.9 376.9 445.4 413.5"/>
    <polygon class="st0" points="408.9 420.9 410.6 400 445.4 413.5 408.9 420.9"/>
    <polygon class="st0" points="408.9 420.9 445.4 413.5 440.9 437.3 408.9 420.9"/>
    <polygon class="st0" points="410.6 400 401.6 390.1 437.9 376.9 410.6 400"/>
    <polygon class="st0" points="437.9 376.9 401.6 390.1 437.7 366 437.9 376.9"/>
    <polygon class="st0" points="401.6 390.1 399.9 356.4 437.7 366 401.6 390.1"/>
    <polygon class="st0" points="437.7 366 399.9 356.4 425.9 348.2 437.7 366"/>
    <polygon class="st0" points="437.7 366 425.9 348.2 459.2 353.7 437.7 366"/>
    <polygon class="st0" points="459.2 353.7 425.9 348.2 453.7 329.6 459.2 353.7"/>
    <polygon class="st0" points="402.7 334 386.1 301 401.9 292.3 402.7 334"/>
    <polygon class="st0" points="402.7 334 401.9 292.3 416.1 332.1 402.7 334"/>
    <polygon class="st0" points="399.9 356.4 380.9 356.2 380.9 364 399.9 356.4"/>
    <polygon class="st0" points="338.1 357.8 367.9 342.7 380.9 364 338.1 357.8"/>
    <polygon class="st0" points="380.9 364 367.9 342.7 380.9 356.2 380.9 364"/>
    <polygon class="st0" points="361.3 389.3 360.9 368.4 366.3 387.6 361.3 389.3"/>
    <polygon class="st0" points="366.3 387.6 360.9 368.4 369.4 368.2 366.3 387.6"/>
    <polygon class="st0" points="366.3 387.6 369.4 368.2 388.3 373.3 366.3 387.6"/>
    <polygon class="st0" points="388.3 373.3 369.4 368.2 380.9 364 388.3 373.3"/>
    <polygon class="st0" points="338.1 357.8 380.9 364 360.9 368.4 338.1 357.8"/>
    <polygon class="st0" points="360.9 368.4 380.9 364 369.4 368.2 360.9 368.4"/>
    <polygon class="st0" points="361.3 389.3 360.9 368.4 355.4 396.3 361.3 389.3"/>
    <polygon class="st0" points="361.3 389.3 355.4 396.3 364.2 397.8 361.3 389.3"/>
    <polygon class="st0" points="355.4 396.3 354.4 403.5 361.2 404.7 355.4 396.3"/>
    <polygon class="st0" points="354.4 403.5 355.4 396.3 338.1 357.8 354.4 403.5"/>
    <polygon class="st0" points="354.4 403.5 339.5 411.7 353.5 409.8 354.4 403.5"/>
    <polygon class="st0" points="332.4 412.5 327.5 393.1 339.5 411.7 332.4 412.5"/>
    <polygon class="st0" points="339.5 411.7 327.5 393.1 354.4 403.5 339.5 411.7"/>
    <polygon class="st0" points="338.1 357.8 355.4 396.3 360.9 368.4 338.1 357.8"/>
    <polygon class="st0" points="380.6 399.6 401.6 390.1 388.3 373.3 380.6 399.6"/>
    <polygon class="st0" points="366.3 387.6 380.6 399.6 388.3 373.3 366.3 387.6"/>
    <polygon class="st0" points="364.2 397.8 361.3 389.3 366.3 387.6 364.2 397.8"/>
    <polygon class="st0" points="364.2 397.8 366.3 387.6 366.1 397.9 364.2 397.8"/>
    <polygon class="st0" points="364.2 397.8 355.4 396.3 361.2 404.7 364.2 397.8"/>
    <polygon class="st0" points="401.1 443.8 396.2 435.7 402.6 433.8 401.1 443.8"/>
    <polygon class="st0" points="401.1 443.8 402.6 433.8 411.5 439.1 401.1 443.8"/>
    <polygon class="st0" points="333.5 433.8 364.9 434.8 348.2 444.4 333.5 433.8"/>
    <polygon class="st0" points="348.2 444.4 364.9 434.8 401.1 443.8 348.2 444.4"/>
    <polygon class="st0" points="401.1 443.8 364.9 434.8 396.2 435.7 401.1 443.8"/>
    <polygon class="st0" points="333.5 433.8 364.9 434.8 339.5 411.7 333.5 433.8"/>
    <polygon class="st0" points="401.1 443.8 348.2 444.4 371 468.3 401.1 443.8"/>
    <polygon class="st0" points="411.5 439.1 401.1 443.8 412.6 472.7 411.5 439.1"/>
    <polygon class="st0" points="460.3 481.9 440.9 437.3 464.7 449.5 460.3 481.9"/>
    <polygon class="st0" points="460.3 481.9 464.7 449.5 478 485.9 460.3 481.9"/>
    <polygon class="st0" points="464.7 449.5 502.3 440.7 522.1 473.5 464.7 449.5"/>
    <polygon class="st0" points="522.1 473.5 502.3 440.7 505.7 441.7 522.1 473.5"/>
    <polygon class="st0" points="505.7 441.7 520.2 446.4 532.2 443.4 505.7 441.7"/>
    <polygon class="st0" points="532.2 443.4 539.5 434.5 552.1 443.9 532.2 443.4"/>
    <polygon class="st0" points="552.1 443.9 539.5 434.5 577.3 433.8 552.1 443.9"/>
    <polygon class="st0" points="539.5 434.5 577.3 433.8 576.8 421.8 539.5 434.5"/>
    <polygon class="st0" points="539.5 434.5 535.5 426.2 535.7 420.5 539.5 434.5"/>
    <polygon class="st0" points="539.5 434.5 535.7 420.5 576.8 421.8 539.5 434.5"/>
    <polygon class="st0" points="576.8 421.8 557.2 400.4 591.5 385.7 576.8 421.8"/>
    <polygon class="st0" points="576.8 421.8 591.5 385.7 601.1 419.8 576.8 421.8"/>
    <polygon class="st0" points="601.1 419.8 576.8 421.8 589.6 431.2 601.1 419.8"/>
    <polygon class="st0" points="557.2 400.4 539.5 368.1 511.5 403.4 557.2 400.4"/>
    <polygon class="st0" points="478.6 418.8 481.5 392.8 511.5 403.4 478.6 418.8"/>
    <polygon class="st0" points="511.5 403.4 481.5 392.8 500.8 384.5 511.5 403.4"/>
    <polygon class="st0" points="478.6 418.8 535.7 420.5 505.7 441.7 478.6 418.8"/>
    <polygon class="st0" points="505.7 441.7 535.7 420.5 535.5 426.2 505.7 441.7"/>
    <polygon class="st0" points="505.7 441.7 535.5 426.2 532.2 443.4 505.7 441.7"/>
    <polygon class="st0" points="532.2 443.4 535.5 426.2 539.5 434.5 532.2 443.4"/>
    <polygon class="st0" points="334.1 462.4 371 468.3 404.3 486.4 334.1 462.4"/>
    <polygon class="st0" points="404.3 486.4 371 468.3 412.6 472.7 404.3 486.4"/>
    <polygon class="st0" points="412.6 472.7 404.3 486.4 460.3 481.9 412.6 472.7"/>
    <polygon class="st0" points="460.3 481.9 404.3 486.4 454.5 488.7 460.3 481.9"/>
    <polygon class="st0" points="460.3 481.9 454.5 488.7 478 485.9 460.3 481.9"/>
    <polygon class="st0" points="464.7 449.5 478 485.9 522.1 473.5 464.7 449.5"/>
    <polygon class="st0" points="545.2 262.5 532.9 244.2 547.9 246.1 545.2 262.5"/>
    <polygon class="st0" points="547.9 246.1 532.9 244.2 546.9 241.2 547.9 246.1"/>
    <polygon class="st0" points="237.6 307.9 218.4 286 234.7 296.3 237.6 307.9"/>
    <polygon class="st0" points="231.6 284.9 234.7 296.3 218.4 286 231.6 284.9"/>
    <polygon class="st0" points="251.8 356.6 237.6 307.9 233.9 319.4 251.8 356.6"/>
    <polygon class="st0" points="244.7 309.5 251.8 356.6 258 334.9 244.7 309.5"/>
    <polygon class="st0" points="289.3 422.6 276 408.5 291.9 399.9 289.3 422.6"/>
    <polygon class="st0" points="291.9 399.9 276 408.5 278.4 403.1 291.9 399.9"/>
    <polygon class="st0" points="314.4 435 320.4 420.5 333.5 433.8 314.4 435"/>
    <polygon class="st0" points="314.4 435 333.5 433.8 328.2 439.9 314.4 435"/>
    <polygon class="st0" points="320.4 420.5 311 417 312.4 424.4 320.4 420.5"/>
    <polygon class="st0" points="320.4 420.5 312.4 424.4 314.4 435 320.4 420.5"/>
    <polygon class="st0" points="289.3 422.6 300.2 412.4 291.9 399.9 289.3 422.6"/>
    <polygon class="st0" points="258 334.9 265 318.3 244.7 309.5 258 334.9"/>
    <polygon class="st0" points="245.6 299.9 239 291.7 252.2 294.4 245.6 299.9"/>
    <polygon class="st0" points="252.2 294.4 239 291.7 255.6 269.6 252.2 294.4"/>
    <polygon class="st0" points="296 359.4 282.9 304.5 310.9 312.8 296 359.4"/>
    <polygon class="st0" points="296 359.4 310.9 312.8 320.7 330.4 296 359.4"/>
    <polygon class="st0" points="289.8 280.5 310.9 312.8 282.9 304.5 289.8 280.5"/>
    <polygon class="st0" points="285.6 257.3 279.4 231.1 308.5 243.6 285.6 257.3"/>
    <polygon class="st0" points="285.6 257.3 308.5 243.6 350.7 284.1 285.6 257.3"/>
    <polygon class="st0" points="488.2 216.4 488.2 212.1 491 211.8 488.2 216.4"/>
    <polygon class="st0" points="488.2 216.4 491 211.8 491 218.1 488.2 216.4"/>
    <polygon class="st0" points="286.2 188.9 285.2 183 292.3 187.9 286.2 188.9"/>
    <polygon class="st0" points="292.3 187.9 285.2 183 291.2 181.6 292.3 187.9"/>
    <polygon class="st0" points="377.9 202.5 378.3 169.6 343.1 189 377.9 202.5"/>
    <polygon class="st0" points="341.8 148.9 359.2 115.8 369 143.3 341.8 148.9"/>
    <polygon class="st0" points="341.8 148.9 369 143.3 378.3 169.6 341.8 148.9"/>
    <polygon class="st0" points="307.2 140.3 329.4 109.4 320.7 143.7 307.2 140.3"/>
    <polygon class="st0" points="320.7 143.7 329.4 109.4 359.2 115.8 320.7 143.7"/>
    <polygon class="st0" points="283.5 166 307.2 140.3 284.3 143.9 283.5 166"/>
    <polygon class="st0" points="359.2 115.8 372.9 54.6 384.3 99.7 359.2 115.8"/>
    <polygon class="st0" points="400.3 89.4 384.3 99.7 372.9 54.6 400.3 89.4"/>
    <polygon class="st0" points="400.3 189 398.2 163.3 426.6 181.6 400.3 189"/>
    <polygon class="st0" points="400.3 189 426.6 181.6 423.6 192.4 400.3 189"/>
    <polygon class="st0" points="474.4 109.9 475 104 497.2 90.2 474.4 109.9"/>
    <polygon class="st0" points="497.2 90.2 475 104 493.9 85.7 497.2 90.2"/>
    <polygon class="st0" points="486.1 158.5 481.3 184.6 498 162.3 486.1 158.5"/>
    <polygon class="st0" points="584.6 149.6 563.1 124.3 546.3 157.9 584.6 149.6"/>
    <polygon class="st0" points="509.6 200.1 525.2 194.5 521.2 178.9 509.6 200.1"/>
    <polygon class="st0" points="542.3 209.4 563.4 225.4 554.9 186.3 542.3 209.4"/>
    <polygon class="st0" points="593.2 159.8 554.9 186.3 572.3 188.9 593.2 159.8"/>
    <polygon class="st0" points="604.5 174.5 613.7 183 613.1 172 604.5 174.5"/>
    <polygon class="st0" points="503.7 290.6 520.4 311 528.4 258.6 503.7 290.6"/>
    <polygon class="st0" points="461.3 277.5 477.6 302.4 478.3 261.7 461.3 277.5"/>
    <polygon class="st0" points="459.2 353.7 453.7 329.6 479.5 336.9 459.2 353.7"/>
    <polygon class="st0" points="479.5 336.9 453.7 329.6 477.6 302.4 479.5 336.9"/>
    <polygon class="st0" points="477.6 302.4 453.7 329.6 443.9 286.6 477.6 302.4"/>
    <polygon class="st0" points="437.9 376.9 437.7 366 465 363.7 437.9 376.9"/>
    <polygon class="st0" points="437.9 376.9 465 363.7 455.2 388.9 437.9 376.9"/>
    <polygon class="st0" points="465 363.7 437.7 366 459.2 353.7 465 363.7"/>
    <polygon class="st0" points="445.4 413.5 437.9 376.9 410.6 400 445.4 413.5"/>
    <polygon class="st0" points="419.1 283.5 401.9 292.3 416.1 332.1 419.1 283.5"/>
    <polygon class="st0" points="401.6 390.1 388.3 373.3 399.9 356.4 401.6 390.1"/>
    <polygon class="st0" points="399.9 356.4 388.3 373.3 380.9 364 399.9 356.4"/>
    <polygon class="st0" points="478.6 418.8 511.5 403.4 535.7 420.5 478.6 418.8"/>
    <polygon class="st0" points="576.8 421.8 535.7 420.5 557.2 400.4 576.8 421.8"/>
    <polygon class="st0" points="557.2 400.4 535.7 420.5 511.5 403.4 557.2 400.4"/>
    <polygon class="st0" points="576.8 421.8 577.3 433.8 589.6 431.2 576.8 421.8"/>
    <polygon class="st0" points="371 468.3 412.6 472.7 401.1 443.8 371 468.3"/>
    <polygon class="st0" points="412.6 472.7 411.5 439.1 440.9 437.3 412.6 472.7"/>
    <polygon class="st0" points="412.6 472.7 440.9 437.3 460.3 481.9 412.6 472.7"/>
    <polygon class="st0" points="528.4 258.6 532.9 244.2 545.2 262.5 528.4 258.6"/>
    <polygon class="st0" points="528.4 258.6 545.2 262.5 566.2 294.2 528.4 258.6"/>
  </g>
</svg>