<?xml version="1.0" encoding="UTF-8"?>
<svg xmlns="http://www.w3.org/2000/svg" version="1.1" xmlns:xlink="http://www.w3.org/1999/xlink" viewBox="0 0 737 539">
  <!-- Generator: Adobe Illustrator 30.0.0, SVG Export Plug-In . SVG Version: 2.1.1 Build 123)  -->
  <defs>
    <style>
      .st0 {
        fill: none;
        stroke: #000;
        stroke-miterlimit: 10;
      }
    </style>
  </defs>
  <g id="Layer_2">
    <image width="2949" height="2155" transform="translate(.5 -.3) scale(.2)" xlink:href="Chợ Bến Thành.png"/>
  </g>
  <g id="Layer_1">
    <polygon class="st0" points="368.1 82.1 477.4 114.1 445.1 114.1 368.1 82.1"/>
    <polygon class="st0" points="368.1 82.1 445.1 114.1 424.7 114.1 368.1 82.1"/>
    <polygon class="st0" points="368.1 82.1 424.7 114.1 417.6 114.1 368.1 82.1"/>
    <polygon class="st0" points="417.6 114.1 368.1 82.1 368.1 114.1 417.6 114.1"/>
    <polygon class="st0" points="320.6 142.5 359.2 125 367.9 142.5 320.6 142.5"/>
    <polygon class="st0" points="367.9 142.5 359.2 125 368.1 125 367.9 142.5"/>
    <polygon class="st0" points="367.9 142.5 368.1 125 377 125 367.9 142.5"/>
    <polygon class="st0" points="367.9 142.5 377 125 415.4 142.5 367.9 142.5"/>
    <polygon class="st0" points="377 125 415.4 142.5 415.4 125 377 125"/>
    <polygon class="st0" points="415.4 142.5 415.4 125 424.7 151.7 415.4 142.5"/>
    <polygon class="st0" points="424.7 151.7 415.4 125 424.7 114.1 424.7 151.7"/>
    <polygon class="st0" points="435 135.6 424.7 114.1 445.1 130.3 435 135.6"/>
    <polygon class="st0" points="445.1 130.3 424.7 114.1 445.1 114.1 445.1 130.3"/>
    <polygon class="st0" points="424.7 151.7 435 135.6 445.1 143.2 424.7 151.7"/>
    <polygon class="st0" points="424.7 151.7 445.1 143.2 445.1 151.7 424.7 151.7"/>
    <polygon class="st0" points="445.1 130.3 445.1 133.6 435 135.6 445.1 130.3"/>
    <polygon class="st0" points="435 135.6 445.1 133.6 445.1 143.2 435 135.6"/>
    <polygon class="st0" points="445.1 133.6 445.1 130.3 477.4 114.1 445.1 133.6"/>
    <polygon class="st0" points="477.4 114.1 445.1 130.3 445.1 114.1 477.4 114.1"/>
    <polygon class="st0" points="445.1 143.2 445.1 133.6 456.9 144.5 445.1 143.2"/>
    <polygon class="st0" points="456.9 144.5 445.1 133.6 477.4 114.1 456.9 144.5"/>
    <polygon class="st0" points="445.1 160.1 445.1 151.7 453.8 160.1 445.1 160.1"/>
    <polygon class="st0" points="453.8 160.1 445.1 151.7 458 151.7 453.8 160.1"/>
    <polygon class="st0" points="424.7 160.1 424.7 151.7 445.1 151.7 424.7 160.1"/>
    <polygon class="st0" points="424.7 160.1 445.1 151.7 445.1 160.1 424.7 160.1"/>
    <polygon class="st0" points="445.1 160.1 445.1 176.3 453.8 160.1 445.1 160.1"/>
    <polygon class="st0" points="445.1 176.3 445.1 160.1 424.7 160.1 445.1 176.3"/>
    <polygon class="st0" points="445.1 206.1 445.1 176.3 424.7 190.5 445.1 206.1"/>
    <polygon class="st0" points="445.1 251.4 445.1 206.1 424.7 221.2 445.1 251.4"/>
    <polygon class="st0" points="445.1 267.2 445.1 251.4 424.7 255.2 445.1 267.2"/>
    <polygon class="st0" points="445.1 298.1 445.1 267.2 457.6 298.1 445.1 298.1"/>
    <polygon class="st0" points="457.6 298.1 445.1 267.2 469.8 298.1 457.6 298.1"/>
    <polygon class="st0" points="445.1 298.1 445.1 267.2 438.3 298.1 445.1 298.1"/>
    <polygon class="st0" points="311.5 176.3 321.9 176.3 311.5 160.1 311.5 176.3"/>
    <polygon class="st0" points="321.9 176.3 311.5 176.3 311.5 189.4 321.9 176.3"/>
    <polygon class="st0" points="321.9 176.3 340.5 176.3 336.4 160.1 321.9 176.3"/>
    <polygon class="st0" points="340.5 176.3 321.9 176.3 333.6 202.5 340.5 176.3"/>
    <polygon class="st0" points="340.5 176.3 367.9 176.2 336.4 160.1 340.5 176.3"/>
    <polygon class="st0" points="367.9 176.2 340.5 176.3 367.9 179.4 367.9 176.2"/>
    <polygon class="st0" points="367.9 176.2 391.9 176.3 381.9 169.5 367.9 176.2"/>
    <polygon class="st0" points="391.9 176.3 367.9 176.2 367.9 179.4 391.9 176.3"/>
    <polygon class="st0" points="391.9 176.3 414.5 176.3 401.2 160.1 391.9 176.3"/>
    <polygon class="st0" points="414.5 176.3 391.9 176.3 406.1 199.9 414.5 176.3"/>
    <polygon class="st0" points="414.5 176.3 424.7 176.3 424.7 160.1 414.5 176.3"/>
    <polygon class="st0" points="424.7 176.3 414.5 176.3 424.7 190.5 424.7 176.3"/>
    <polygon class="st0" points="424.7 176.3 445.1 176.3 424.7 160.1 424.7 176.3"/>
    <polygon class="st0" points="445.1 176.3 424.7 176.3 424.7 190.5 445.1 176.3"/>
    <polygon class="st0" points="496.8 298.1 469.8 298.1 469.8 323 496.8 298.1"/>
    <polygon class="st0" points="469.8 298.1 496.8 298.1 445.1 267.2 469.8 298.1"/>
    <polygon class="st0" points="469.8 331.9 457.6 318.6 469.8 323 469.8 331.9"/>
    <polygon class="st0" points="469.8 298.1 469.8 323 457.6 318.6 469.8 298.1"/>
    <polygon class="st0" points="469.8 298.1 457.6 318.6 457.6 298.1 469.8 298.1"/>
    <polygon class="st0" points="457.6 318.6 438.3 298.1 445.1 298.1 457.6 318.6"/>
    <polygon class="st0" points="457.6 318.6 445.1 298.1 457.6 298.1 457.6 318.6"/>
    <polygon class="st0" points="429.4 343.7 429.4 298.1 438.3 339.7 429.4 343.7"/>
    <polygon class="st0" points="438.3 339.7 429.4 298.1 438.3 298.1 438.3 339.7"/>
    <polygon class="st0" points="429.4 298.1 438.3 298.1 445.1 267.2 429.4 298.1"/>
    <polygon class="st0" points="396.1 309.3 397.4 298.1 421 309.3 396.1 309.3"/>
    <polygon class="st0" points="421 309.3 397.4 298.1 429.4 298.1 421 309.3"/>
    <polygon class="st0" points="397.4 298.1 429.4 298.1 376.6 293.2 397.4 298.1"/>
    <polygon class="st0" points="397.4 298.1 361.4 298.1 363.8 308.8 397.4 298.1"/>
    <polygon class="st0" points="361.4 298.1 397.4 298.1 376.6 293.2 361.4 298.1"/>
    <polygon class="st0" points="361.4 298.1 341.1 298.1 363.8 308.8 361.4 298.1"/>
    <polygon class="st0" points="341.1 298.1 361.4 298.1 339.9 293 341.1 298.1"/>
    <polygon class="st0" points="306.8 309.3 301.9 298.1 341.1 298.1 306.8 309.3"/>
    <polygon class="st0" points="306.8 309.3 341.1 298.1 341.1 309.3 306.8 309.3"/>
    <polygon class="st0" points="301.9 298.1 341.1 298.1 339.9 293 301.9 298.1"/>
    <polygon class="st0" points="297.7 339.7 297.7 298.1 306.8 309.3 297.7 339.7"/>
    <polygon class="st0" points="297.7 339.7 306.8 309.3 306.9 343.9 297.7 339.7"/>
    <polygon class="st0" points="301.9 298.1 306.8 309.3 297.7 298.1 301.9 298.1"/>
    <polygon class="st0" points="297.7 298.1 301.9 298.1 302.6 267.4 297.7 298.1"/>
    <polygon class="st0" points="278.7 318.8 278.7 298.1 290.8 298.1 278.7 318.8"/>
    <polygon class="st0" points="278.7 318.8 290.8 298.1 297.7 298.1 278.7 318.8"/>
    <polygon class="st0" points="290.8 298.1 297.7 298.1 290.9 267.2 290.8 298.1"/>
    <polygon class="st0" points="266.2 298.1 290.9 267.2 278.7 298.1 266.2 298.1"/>
    <polygon class="st0" points="278.7 298.1 290.9 267.2 290.8 298.1 278.7 298.1"/>
    <polygon class="st0" points="266.2 323 266.2 298.1 278.7 318.8 266.2 323"/>
    <polygon class="st0" points="278.7 318.8 266.2 298.1 278.7 298.1 278.7 318.8"/>
    <polygon class="st0" points="266.2 298.1 239 298.1 266.2 323 266.2 298.1"/>
    <polygon class="st0" points="239 298.1 266.2 298.1 290.9 267.2 239 298.1"/>
    <polygon class="st0" points="469.8 331.9 469.8 323 501.1 351.7 469.8 331.9"/>
    <polygon class="st0" points="501.1 351.7 469.8 323 534.4 351.7 501.1 351.7"/>
    <polygon class="st0" points="469.8 331.9 469.8 351.7 501.1 351.7 469.8 331.9"/>
    <polygon class="st0" points="457.6 350.4 457.6 318.6 469.8 331.9 457.6 350.4"/>
    <polygon class="st0" points="457.6 350.4 469.8 331.9 469.8 351.7 457.6 350.4"/>
    <polygon class="st0" points="469.8 351.7 469.8 371.2 477.8 371.2 469.8 351.7"/>
    <polygon class="st0" points="457.6 375.9 457.6 350.4 469.8 371.2 457.6 375.9"/>
    <polygon class="st0" points="457.6 375.9 469.8 371.2 469.8 388.4 457.6 375.9"/>
    <polygon class="st0" points="469.8 351.7 469.8 371.2 457.6 350.4 469.8 351.7"/>
    <polygon class="st0" points="469.8 371.2 469.8 388.4 477.8 371.2 469.8 371.2"/>
    <polygon class="st0" points="469.8 388.4 469.8 427 484 407.2 469.8 388.4"/>
    <polygon class="st0" points="469.8 427 469.8 388.4 457.6 409.9 469.8 427"/>
    <polygon class="st0" points="469.8 427 469.9 454.7 482 435.1 469.8 427"/>
    <polygon class="st0" points="469.9 454.7 469.8 427 457.6 447.1 469.9 454.7"/>
    <polygon class="st0" points="469.9 454.7 469.8 464.6 482 464.6 469.9 454.7"/>
    <polygon class="st0" points="469.8 464.6 469.9 454.7 457.6 464.6 469.8 464.6"/>
    <polygon class="st0" points="469.8 464.6 469.8 488.2 482 488.2 469.8 464.6"/>
    <polygon class="st0" points="469.8 488.2 469.8 464.6 457.6 464.6 469.8 488.2"/>
    <polygon class="st0" points="457.6 350.4 457.6 318.6 438.3 339.7 457.6 350.4"/>
    <polygon class="st0" points="457.6 375.9 457.6 350.4 438.3 339.7 457.6 375.9"/>
    <polygon class="st0" points="457.6 375.9 457.6 409.9 469.8 388.4 457.6 375.9"/>
    <polygon class="st0" points="457.6 409.9 457.6 375.9 438.3 393 457.6 409.9"/>
    <polygon class="st0" points="457.6 409.9 457.6 447.1 469.8 427 457.6 409.9"/>
    <polygon class="st0" points="457.6 447.1 457.6 409.9 438.3 429.9 457.6 447.1"/>
    <polygon class="st0" points="457.6 447.1 457.6 464.6 469.9 454.7 457.6 447.1"/>
    <polygon class="st0" points="457.6 464.6 457.6 447.1 438.3 464.6 457.6 464.6"/>
    <polygon class="st0" points="457.6 464.6 457.6 488.2 469.8 488.2 457.6 464.6"/>
    <polygon class="st0" points="457.6 488.2 457.6 464.6 438.3 488.2 457.6 488.2"/>
    <polygon class="st0" points="438.3 298.1 438.3 339.7 457.6 318.6 438.3 298.1"/>
    <polygon class="st0" points="438.3 339.7 438.3 393 457.6 375.9 438.3 339.7"/>
    <polygon class="st0" points="429.4 388.2 429.4 343.7 438.3 339.7 429.4 388.2"/>
    <polygon class="st0" points="429.4 388.2 438.3 339.7 438.3 393 429.4 388.2"/>
    <polygon class="st0" points="438.3 393 438.3 429.9 457.6 409.9 438.3 393"/>
    <polygon class="st0" points="438.3 429.9 429.4 411 438.3 393 438.3 429.9"/>
    <polygon class="st0" points="438.3 393 429.4 411 429.4 388.2 438.3 393"/>
    <polygon class="st0" points="438.3 429.9 438.3 464.6 457.6 447.1 438.3 429.9"/>
    <polygon class="st0" points="429.4 464.6 429.4 411 438.3 429.9 429.4 464.6"/>
    <polygon class="st0" points="429.4 464.6 438.3 429.9 438.3 464.6 429.4 464.6"/>
    <polygon class="st0" points="438.3 464.6 438.3 488.2 457.6 464.6 438.3 464.6"/>
    <polygon class="st0" points="438.3 488.2 438.3 464.6 429.4 488.2 438.3 488.2"/>
    <polygon class="st0" points="422.1 342.8 421 309.3 429.4 343.7 422.1 342.8"/>
    <polygon class="st0" points="429.4 343.7 421 309.3 429.4 298.1 429.4 343.7"/>
    <polygon class="st0" points="429.4 388.2 422.9 369.1 429.4 343.7 429.4 388.2"/>
    <polygon class="st0" points="429.4 343.7 422.9 369.1 422.1 342.8 429.4 343.7"/>
    <polygon class="st0" points="416.5 424.4 416.5 402.4 429.4 411 416.5 424.4"/>
    <polygon class="st0" points="429.4 411 416.5 402.4 429.4 388.2 429.4 411"/>
    <polygon class="st0" points="422.9 369.1 429.4 388.2 414.1 385.5 422.9 369.1"/>
    <polygon class="st0" points="414.1 385.5 429.4 388.2 416.5 402.4 414.1 385.5"/>
    <polygon class="st0" points="416.5 451.7 416.5 424.4 429.4 464.6 416.5 451.7"/>
    <polygon class="st0" points="429.4 464.6 416.5 424.4 429.4 411 429.4 464.6"/>
    <polygon class="st0" points="429.4 464.6 429.4 488.2 438.3 464.6 429.4 464.6"/>
    <polygon class="st0" points="429.4 488.2 429.4 464.6 416.5 474 429.4 488.2"/>
    <polygon class="st0" points="367.9 160.1 367.9 151.7 401.2 160.1 367.9 160.1"/>
    <polygon class="st0" points="401.2 160.1 367.9 151.7 424.7 151.7 401.2 160.1"/>
    <polygon class="st0" points="401.2 160.1 424.7 151.7 424.7 160.1 401.2 160.1"/>
    <polygon class="st0" points="424.7 190.5 424.7 221.2 445.1 206.1 424.7 190.5"/>
    <polygon class="st0" points="424.7 221.2 424.7 190.5 415.8 211.9 424.7 221.2"/>
    <polygon class="st0" points="424.7 221.2 424.7 255.2 445.1 251.4 424.7 221.2"/>
    <polygon class="st0" points="424.7 255.2 424.7 221.2 410.8 255.2 424.7 255.2"/>
    <polygon class="st0" points="424.7 255.2 424.7 267.2 445.1 267.2 424.7 255.2"/>
    <polygon class="st0" points="424.7 267.2 424.7 255.2 404 267.2 424.7 267.2"/>
    <polygon class="st0" points="445.1 267.2 424.7 267.2 376.6 273.2 376.6 293.2 429.4 298.1 445.1 267.2"/>
    <polygon class="st0" points="424.7 267.2 404 267.2 376.6 273.2 424.7 267.2"/>
    <polygon class="st0" points="404 267.2 377.5 267.4 376.6 273.2 404 267.2"/>
    <polygon class="st0" points="377.5 267.4 404 267.2 383.4 252.3 377.5 267.4"/>
    <polygon class="st0" points="377.5 267.4 360.8 267.2 376.6 273.2 377.5 267.4"/>
    <polygon class="st0" points="360.8 267.2 367.9 242.7 377.5 267.4 360.8 267.2"/>
    <polygon class="st0" points="377.5 267.4 367.9 242.7 383.4 252.3 377.5 267.4"/>
    <polygon class="st0" points="360.8 267.2 302.6 267.4 339.7 273.4 360.8 267.2"/>
    <polygon class="st0" points="302.6 267.4 311.5 255.2 344.4 257.2 302.6 267.4"/>
    <polygon class="st0" points="302.6 267.4 344.4 257.2 360.8 267.2 302.6 267.4"/>
    <polygon class="st0" points="302.6 267.4 290.9 267.2 297.7 298.1 302.6 267.4"/>
    <polygon class="st0" points="290.9 267.2 302.6 267.4 311.5 255.2 290.9 267.2"/>
    <polygon class="st0" points="501.1 351.7 469.8 351.7 477.8 371.2 501.1 351.7"/>
    <polygon class="st0" points="534.4 351.7 501.1 351.7 514.2 371.2 534.4 351.7"/>
    <polygon class="st0" points="576.2 351.7 534.4 351.7 556.4 371.2 576.2 351.7"/>
    <polygon class="st0" points="633.9 388.4 601 388.4 614.6 402.2 633.9 388.4"/>
    <polygon class="st0" points="601 388.4 600.9 365.8 633.9 384.6 601 388.4"/>
    <polygon class="st0" points="601 388.4 633.9 384.6 633.9 388.4 601 388.4"/>
    <polygon class="st0" points="601 388.4 573.7 388.4 584.6 409.7 601 388.4"/>
    <polygon class="st0" points="573.7 388.4 601 388.4 587.2 371.2 573.7 388.4"/>
    <polygon class="st0" points="573.7 388.4 534.9 388.4 557.7 402.8 573.7 388.4"/>
    <polygon class="st0" points="534.9 388.4 573.7 388.4 556.4 371.2 534.9 388.4"/>
    <polygon class="st0" points="534.9 388.4 496.4 388.4 517.6 406.6 534.9 388.4"/>
    <polygon class="st0" points="496.4 388.4 534.9 388.4 514.2 371.2 496.4 388.4"/>
    <polygon class="st0" points="496.4 388.4 469.8 388.4 484 407.2 496.4 388.4"/>
    <polygon class="st0" points="469.8 388.4 496.4 388.4 477.8 371.2 469.8 388.4"/>
    <polygon class="st0" points="601 388.4 600.9 365.8 587.2 371.2 601 388.4"/>
    <polygon class="st0" points="601 388.4 601 412 614.6 402.2 601 388.4"/>
    <polygon class="st0" points="601 412 601 388.4 584.6 409.7 601 412"/>
    <polygon class="st0" points="601 412 601 435.1 610.4 428 601 412"/>
    <polygon class="st0" points="601 435.1 601 412 584.6 409.7 601 435.1"/>
    <polygon class="st0" points="601 488.2 601 435.1 608.5 473.8 601 488.2"/>
    <polygon class="st0" points="601 488.2 608.5 473.8 608.5 488.2 601 488.2"/>
    <polygon class="st0" points="601 435.1 608.5 447.5 608.5 473.8 601 435.1"/>
    <polygon class="st0" points="587.5 488.2 587.5 473.8 601 488.2 587.5 488.2"/>
    <polygon class="st0" points="601 488.2 587.5 473.8 601 435.1 601 488.2"/>
    <polygon class="st0" points="601 435.1 587.5 473.8 587.5 435.1 601 435.1"/>
    <polygon class="st0" points="382.1 371.2 385.7 353.9 396.1 359.9 382.1 371.2"/>
    <polygon class="st0" points="382.1 371.2 396.1 359.9 390.3 375.7 382.1 371.2"/>
    <polygon class="st0" points="375.4 369.5 377 351.7 385.7 353.9 375.4 369.5"/>
    <polygon class="st0" points="375.4 369.5 385.7 353.9 382.1 371.2 375.4 369.5"/>
    <polygon class="st0" points="368.7 368.8 368.7 351 377 351.7 368.7 368.8"/>
    <polygon class="st0" points="368.7 368.8 377 351.7 375.4 369.5 368.7 368.8"/>
    <polygon class="st0" points="390.3 375.7 396.1 359.9 405.5 369.3 390.3 375.7"/>
    <polygon class="st0" points="390.3 375.7 405.5 369.3 397.7 383 390.3 375.7"/>
    <polygon class="st0" points="403.6 391.9 397.7 383 414.1 385.5 403.6 391.9"/>
    <polygon class="st0" points="414.1 385.5 397.7 383 405.5 369.3 414.1 385.5"/>
    <polygon class="st0" points="407 403 403.6 391.9 416.5 402.4 407 403"/>
    <polygon class="st0" points="416.5 402.4 403.6 391.9 414.1 385.5 416.5 402.4"/>
    <polygon class="st0" points="407 488.2 407 456.2 416.5 474 407 488.2"/>
    <polygon class="st0" points="407 488.2 416.5 474 416.5 488.2 407 488.2"/>
    <polygon class="st0" points="416.5 402.4 416.5 424.4 407 403 416.5 402.4"/>
    <polygon class="st0" points="407 403 416.5 424.4 407 428.4 407 403"/>
    <polygon class="st0" points="407 428.4 416.5 424.4 416.5 451.7 407 428.4"/>
    <polygon class="st0" points="407 428.4 416.5 451.7 407 456.2 407 428.4"/>
    <polygon class="st0" points="407 456.2 416.5 451.7 416.5 474 407 456.2"/>
    <polygon class="st0" points="482 488.2 469.8 464.6 482 473.8 482 488.2"/>
    <polygon class="st0" points="482 464.6 482 473.8 469.8 464.6 482 464.6"/>
    <polygon class="st0" points="614.6 402.2 633.9 388.4 628.1 415.9 614.6 402.2"/>
    <polygon class="st0" points="628.1 415.9 633.9 388.4 633.9 415.9 628.1 415.9"/>
    <polygon class="st0" points="614.6 402.2 601 412 628.1 415.9 614.6 402.2"/>
    <polygon class="st0" points="633.9 415.9 628.1 415.9 633.9 435.1 633.9 415.9"/>
    <polygon class="st0" points="527.3 435.1 504.7 435.1 516 454.4 527.3 435.1"/>
    <polygon class="st0" points="504.7 435.1 527.3 435.1 525 426.1 504.7 435.1"/>
    <polygon class="st0" points="504.7 435.1 482 435.1 493.3 454.4 504.7 435.1"/>
    <polygon class="st0" points="482 435.1 504.7 435.1 485.4 426.1 482 435.1"/>
    <polygon class="st0" points="504.7 435.1 504.7 473.8 516 454.4 504.7 435.1"/>
    <polygon class="st0" points="504.7 473.8 504.7 435.1 493.3 454.4 504.7 473.8"/>
    <polygon class="st0" points="504.7 473.8 504.7 488.2 527.3 473.8 504.7 473.8"/>
    <polygon class="st0" points="504.7 488.2 504.7 473.8 482 473.8 504.7 488.2"/>
    <polygon class="st0" points="504.7 435.1 519.6 419.2 513.1 416.4 504.7 435.1"/>
    <polygon class="st0" points="519.6 419.2 504.7 435.1 525 426.1 519.6 419.2"/>
    <polygon class="st0" points="504.7 435.1 490.7 419.2 485.4 426.1 504.7 435.1"/>
    <polygon class="st0" points="490.7 419.2 504.7 435.1 497.4 415.7 490.7 419.2"/>
    <polygon class="st0" points="493.3 454.4 482 473.8 504.7 473.8 493.3 454.4"/>
    <polygon class="st0" points="482 473.8 482 464.6 493.3 454.4 482 473.8"/>
    <polygon class="st0" points="493.3 454.4 482 464.6 482 435.1 493.3 454.4"/>
    <polygon class="st0" points="527.3 473.8 516 454.4 527.3 447.5 527.3 473.8"/>
    <polygon class="st0" points="527.3 435.1 527.3 447.5 516 454.4 527.3 435.1"/>
    <polygon class="st0" points="516 454.4 504.7 473.8 527.3 473.8 516 454.4"/>
    <polygon class="st0" points="587.5 435.1 563.7 435.1 575.6 454.4 587.5 435.1"/>
    <polygon class="st0" points="563.7 435.1 587.5 435.1 584.4 426.1 563.7 435.1"/>
    <polygon class="st0" points="563.7 435.1 541.3 435.1 552.5 454.4 563.7 435.1"/>
    <polygon class="st0" points="541.3 435.1 563.7 435.1 544.4 426.1 541.3 435.1"/>
    <polygon class="st0" points="563.7 435.1 563.7 473.8 575.6 454.4 563.7 435.1"/>
    <polygon class="st0" points="563.7 473.8 563.7 435.1 552.5 454.4 563.7 473.8"/>
    <polygon class="st0" points="563.7 473.8 563.7 488.2 587.5 473.8 563.7 473.8"/>
    <polygon class="st0" points="563.7 488.2 563.7 473.8 541.3 473.8 563.7 488.2"/>
    <polygon class="st0" points="563.7 435.1 578.8 419.2 572.1 416.4 563.7 435.1"/>
    <polygon class="st0" points="578.8 419.2 563.7 435.1 584.4 426.1 578.8 419.2"/>
    <polygon class="st0" points="563.7 435.1 550 419.2 544.4 426.1 563.7 435.1"/>
    <polygon class="st0" points="550 419.2 563.7 435.1 556.4 415.7 550 419.2"/>
    <polygon class="st0" points="552.5 454.4 541.3 473.8 563.7 473.8 552.5 454.4"/>
    <polygon class="st0" points="541.3 473.8 541.3 463.7 552.5 454.4 541.3 473.8"/>
    <polygon class="st0" points="552.5 454.4 541.3 463.7 541.3 435.1 552.5 454.4"/>
    <polygon class="st0" points="587.5 435.1 575.6 454.4 587.5 473.8 587.5 435.1"/>
    <polygon class="st0" points="575.6 454.4 563.7 473.8 587.5 473.8 575.6 454.4"/>
    <polygon class="st0" points="253.5 435.1 231.1 435.1 242.4 454.4 253.5 435.1"/>
    <polygon class="st0" points="231.1 435.1 253.5 435.1 251.2 426.3 231.1 435.1"/>
    <polygon class="st0" points="231.1 435.1 208.5 435.1 219.8 454.4 231.1 435.1"/>
    <polygon class="st0" points="208.5 435.1 231.1 435.1 211.8 426.1 208.5 435.1"/>
    <polygon class="st0" points="231.1 435.1 231.1 473.8 242.4 454.4 231.1 435.1"/>
    <polygon class="st0" points="231.1 473.8 231.1 435.1 219.8 454.4 231.1 473.8"/>
    <polygon class="st0" points="231.1 473.8 231.1 488.2 253.5 473.8 231.1 473.8"/>
    <polygon class="st0" points="231.1 488.2 231.1 473.8 208.5 473.8 231.1 488.2"/>
    <polygon class="st0" points="231.1 435.1 246 419.2 239.5 416.4 231.1 435.1"/>
    <polygon class="st0" points="246 419.2 231.1 435.1 251.2 426.3 246 419.2"/>
    <polygon class="st0" points="231.1 435.1 217.1 419.2 211.8 426.1 231.1 435.1"/>
    <polygon class="st0" points="217.1 419.2 231.1 435.1 223.8 415.7 217.1 419.2"/>
    <polygon class="st0" points="219.8 454.4 208.5 473.8 231.1 473.8 219.8 454.4"/>
    <polygon class="st0" points="208.5 473.8 208.5 449.5 219.8 454.4 208.5 473.8"/>
    <polygon class="st0" points="219.8 454.4 208.5 449.5 208.5 435.1 219.8 454.4"/>
    <polygon class="st0" points="253.5 435.1 242.4 454.4 253.5 473.8 253.5 435.1"/>
    <polygon class="st0" points="242.4 454.4 231.1 473.8 253.5 473.8 242.4 454.4"/>
    <polygon class="st0" points="195.4 435.1 173 435.1 184.1 454.4 195.4 435.1"/>
    <polygon class="st0" points="173 435.1 195.4 435.1 193.4 426.1 173 435.1"/>
    <polygon class="st0" points="173 435.1 150.3 435.1 161.6 454.4 173 435.1"/>
    <polygon class="st0" points="150.3 435.1 173 435.1 153.4 426.1 150.3 435.1"/>
    <polygon class="st0" points="136.3 468.2 136.3 435.1 150.3 435.1 136.3 468.2"/>
    <polygon class="st0" points="136.3 468.2 150.3 435.1 150.3 473.8 136.3 468.2"/>
    <polygon class="st0" points="136.3 435.1 150.3 435.1 151.4 409.7 136.3 435.1"/>
    <polygon class="st0" points="128.8 460.9 128.6 435.4 136.3 435.1 128.8 460.9"/>
    <polygon class="st0" points="128.8 460.9 136.3 435.1 136.3 468.2 128.8 460.9"/>
    <polygon class="st0" points="128.6 435.4 136.3 435.1 136.3 411.8 128.6 435.4"/>
    <polygon class="st0" points="120.8 456.3 102.4 434.9 128.6 435.4 120.8 456.3"/>
    <polygon class="st0" points="120.8 456.3 128.6 435.4 128.8 460.9 120.8 456.3"/>
    <polygon class="st0" points="102.4 434.9 128.6 435.4 124.3 425.9 102.4 434.9"/>
    <polygon class="st0" points="173 435.1 173 473.8 184.1 454.4 173 435.1"/>
    <polygon class="st0" points="173 473.8 173 435.1 161.6 454.4 173 473.8"/>
    <polygon class="st0" points="173 473.8 173 488.2 195.4 473.8 173 473.8"/>
    <polygon class="st0" points="173 488.2 173 473.8 150.3 473.8 173 488.2"/>
    <polygon class="st0" points="173 435.1 187.8 419.2 181.4 416.4 173 435.1"/>
    <polygon class="st0" points="187.8 419.2 173 435.1 193.4 426.1 187.8 419.2"/>
    <polygon class="st0" points="173 435.1 159 419.2 153.4 426.1 173 435.1"/>
    <polygon class="st0" points="159 419.2 173 435.1 165.6 415.7 159 419.2"/>
    <polygon class="st0" points="161.6 454.4 150.3 473.8 173 473.8 161.6 454.4"/>
    <polygon class="st0" points="150.3 473.8 161.6 454.4 150.3 435.1 150.3 473.8"/>
    <polygon class="st0" points="195.4 473.8 184.1 454.4 195.4 466.1 195.4 473.8"/>
    <polygon class="st0" points="195.4 435.1 195.4 466.1 184.1 454.4 195.4 435.1"/>
    <polygon class="st0" points="184.1 454.4 173 473.8 195.4 473.8 184.1 454.4"/>
    <polygon class="st0" points="102.4 434.9 118.5 419.2 114.4 416.3 102.4 434.9"/>
    <polygon class="st0" points="118.5 419.2 102.4 434.9 124.3 425.9 118.5 419.2"/>
    <polygon class="st0" points="102.4 434.9 102.4 473.8 120.8 456.3 102.4 434.9"/>
    <polygon class="st0" points="129 473.1 102.4 488.2 128 488.2 129 473.1"/>
    <polygon class="st0" points="102.4 488.2 129 473.1 102.4 473.8 102.4 488.2"/>
    <polygon class="st0" points="421 309.3 396.1 309.3 411.6 321.2 421 309.3"/>
    <polygon class="st0" points="396.1 309.3 363.8 308.8 378 314.7 396.1 309.3"/>
    <polygon class="st0" points="363.8 308.8 396.1 309.3 397.4 298.1 363.8 308.8"/>
    <polygon class="st0" points="363.8 308.8 341.1 309.3 359.5 315.2 363.8 308.8"/>
    <polygon class="st0" points="341.1 309.3 363.8 308.8 341.1 298.1 341.1 309.3"/>
    <polygon class="st0" points="341.1 309.3 306.8 309.3 325 325.4 341.1 309.3"/>
    <polygon class="st0" points="201.6 351.7 266.2 323 234.9 351.8 201.6 351.7"/>
    <polygon class="st0" points="234.9 351.8 266.2 323 266.2 332 234.9 351.8"/>
    <polygon class="st0" points="266.2 351.7 257.3 351.7 257.4 371.2 266.2 351.7"/>
    <polygon class="st0" points="234.9 351.8 266.2 332 257.3 351.7 234.9 351.8"/>
    <polygon class="st0" points="266.2 351.7 257.3 351.7 266.2 332 266.2 351.7"/>
    <polygon class="st0" points="257.3 351.7 234.9 351.8 257.4 371.2 257.3 351.7"/>
    <polygon class="st0" points="234.9 351.8 201.6 351.7 222 371.2 234.9 351.8"/>
    <polygon class="st0" points="201.6 351.7 159.8 351.7 181.6 371.2 201.6 351.7"/>
    <polygon class="st0" points="102.4 388.4 102.4 384.6 136.3 388.4 102.4 388.4"/>
    <polygon class="st0" points="136.3 388.4 102.4 384.6 136.3 365.2 136.3 388.4"/>
    <polygon class="st0" points="148.7 371.2 136.3 365.2 159.8 351.7 148.7 371.2"/>
    <polygon class="st0" points="136.3 388.4 102.4 388.4 122.3 402.1 136.3 388.4"/>
    <polygon class="st0" points="136.3 388.4 161.4 388.4 148.7 371.2 136.3 388.4"/>
    <polygon class="st0" points="161.4 388.4 136.3 388.4 151.4 409.7 161.4 388.4"/>
    <polygon class="st0" points="161.4 388.4 200.8 388.4 181.6 371.2 161.4 388.4"/>
    <polygon class="st0" points="200.8 388.4 161.4 388.4 179 403.5 200.8 388.4"/>
    <polygon class="st0" points="200.8 388.4 240.3 388.5 222 371.2 200.8 388.4"/>
    <polygon class="st0" points="240.3 388.5 200.8 388.4 222.1 407.6 240.3 388.5"/>
    <polygon class="st0" points="240.3 388.5 257.3 388.4 257.4 371.2 240.3 388.5"/>
    <polygon class="st0" points="257.3 388.4 240.3 388.5 257.3 404.9 257.3 388.4"/>
    <polygon class="st0" points="257.3 388.4 257.4 371.2 266.2 379 257.3 388.4"/>
    <polygon class="st0" points="257.3 388.4 266.2 379 266.2 388.5 257.3 388.4"/>
    <polygon class="st0" points="266.2 388.5 257.3 388.4 257.3 404.9 266.2 388.5"/>
    <polygon class="st0" points="136.3 365.2 136.3 388.4 148.7 371.2 136.3 365.2"/>
    <polygon class="st0" points="136.3 388.4 136.3 411.8 151.4 409.7 136.3 388.4"/>
    <polygon class="st0" points="136.3 411.8 136.3 388.4 122.3 402.1 136.3 411.8"/>
    <polygon class="st0" points="136.3 411.8 136.3 435.1 151.4 409.7 136.3 411.8"/>
    <polygon class="st0" points="136.3 468.2 136.3 488.2 150.3 473.8 136.3 468.2"/>
    <polygon class="st0" points="136.3 488.2 136.3 468.2 129 473.1 136.3 488.2"/>
    <polygon class="st0" points="362.4 369.5 360.8 351.7 368.7 368.8 362.4 369.5"/>
    <polygon class="st0" points="368.7 368.8 360.8 351.7 368.7 351 368.7 368.8"/>
    <polygon class="st0" points="355.7 371.2 351.9 353.9 362.4 369.5 355.7 371.2"/>
    <polygon class="st0" points="362.4 369.5 351.9 353.9 360.8 351.7 362.4 369.5"/>
    <polygon class="st0" points="347.4 375.7 341.5 359.9 355.7 371.2 347.4 375.7"/>
    <polygon class="st0" points="355.7 371.2 341.5 359.9 351.9 353.9 355.7 371.2"/>
    <polygon class="st0" points="340.1 383 332.3 369.3 347.4 375.7 340.1 383"/>
    <polygon class="st0" points="347.4 375.7 332.3 369.3 341.5 359.9 347.4 375.7"/>
    <polygon class="st0" points="323.5 385.5 332.3 369.3 340.1 383 323.5 385.5"/>
    <polygon class="st0" points="323.5 385.5 340.1 383 334.2 391.9 323.5 385.5"/>
    <polygon class="st0" points="321.1 402.4 323.5 385.5 334.2 391.9 321.1 402.4"/>
    <polygon class="st0" points="321.1 402.4 334.2 391.9 330.6 403 321.1 402.4"/>
    <polygon class="st0" points="321.1 428.6 321.1 402.4 330.6 427.5 321.1 428.6"/>
    <polygon class="st0" points="330.6 427.5 321.1 402.4 330.6 403 330.6 427.5"/>
    <polygon class="st0" points="378 314.7 372.4 322.6 377.9 325.6 378 314.7"/>
    <polygon class="st0" points="372.4 322.6 378 314.7 359.5 315.2 372.4 322.6"/>
    <polygon class="st0" points="377.9 338.1 368.8 327 377.9 325.6 377.9 338.1"/>
    <polygon class="st0" points="377.9 325.6 368.8 327 372.4 322.6 377.9 325.6"/>
    <polygon class="st0" points="368.8 327 372.4 322.6 359.5 315.2 368.8 327"/>
    <polygon class="st0" points="368.8 327 359.9 338.1 377.9 338.1 368.8 327"/>
    <polygon class="st0" points="359.9 338.1 368.8 327 359.5 315.2 359.9 338.1"/>
    <polygon class="st0" points="290.8 151.7 290.8 143.2 301.3 135.6 290.8 151.7"/>
    <polygon class="st0" points="301.3 135.6 290.8 143.2 290.8 133.6 301.3 135.6"/>
    <polygon class="st0" points="301.3 135.6 290.8 133.6 290.8 114.1 301.3 135.6"/>
    <polygon class="st0" points="290.8 133.6 290.8 114.1 258.9 114.1 290.8 133.6"/>
    <polygon class="st0" points="279.3 144.5 258.9 114.1 290.8 133.6 279.3 144.5"/>
    <polygon class="st0" points="279.3 144.5 290.8 133.6 290.8 143.2 279.3 144.5"/>
    <polygon class="st0" points="290.8 160.1 290.8 151.7 311.5 151.7 290.8 160.1"/>
    <polygon class="st0" points="290.8 160.1 311.5 151.7 311.5 160.1 290.8 160.1"/>
    <polygon class="st0" points="282.3 160.1 278.2 151.7 290.8 151.7 282.3 160.1"/>
    <polygon class="st0" points="282.3 160.1 290.8 151.7 290.8 160.1 282.3 160.1"/>
    <polygon class="st0" points="290.8 160.1 290.8 176 302.6 173.2 290.8 160.1"/>
    <polygon class="st0" points="290.8 176 290.8 160.1 282.3 160.1 290.8 176"/>
    <polygon class="st0" points="290.8 176 290.8 206.1 311.5 189.4 290.8 176"/>
    <polygon class="st0" points="290.8 206.1 290.8 251.7 311.5 224.8 290.8 206.1"/>
    <polygon class="st0" points="290.8 251.7 290.9 267.2 311.5 255.2 290.8 251.7"/>
    <polygon class="st0" points="266.2 351.7 266.2 332 278.7 349.9 266.2 351.7"/>
    <polygon class="st0" points="278.7 349.9 266.2 332 278.7 318.8 278.7 349.9"/>
    <polygon class="st0" points="278.7 318.8 266.2 332 266.2 323 278.7 318.8"/>
    <polygon class="st0" points="266.2 388.5 266.2 379 278.7 375.3 266.2 388.5"/>
    <polygon class="st0" points="278.7 375.3 266.2 379 266.2 371.2 278.7 375.3"/>
    <polygon class="st0" points="278.7 375.3 266.2 371.2 266.2 351.7 278.7 375.3"/>
    <polygon class="st0" points="266.2 371.2 266.2 351.7 257.4 371.2 266.2 371.2"/>
    <polygon class="st0" points="266.2 379 266.2 371.2 257.4 371.2 266.2 379"/>
    <polygon class="st0" points="266.2 388.5 266.2 428.6 278.6 414.2 266.2 388.5"/>
    <polygon class="st0" points="266.2 428.6 266.2 388.5 257.3 404.9 266.2 428.6"/>
    <polygon class="st0" points="266.2 428.6 266.2 465.5 278.5 448.8 266.2 428.6"/>
    <polygon class="st0" points="253.5 473.8 253.5 435.1 266.2 465.5 253.5 473.8"/>
    <polygon class="st0" points="266.2 465.5 253.5 435.1 266.2 428.6 266.2 465.5"/>
    <polygon class="st0" points="266.2 465.5 266.2 488.2 278.7 488.2 266.2 465.5"/>
    <polygon class="st0" points="266.2 488.2 266.2 465.5 253.5 488.2 266.2 488.2"/>
    <polygon class="st0" points="278.7 318.8 278.7 349.9 297.7 339.7 278.7 318.8"/>
    <polygon class="st0" points="278.7 349.9 278.7 375.3 297.7 339.7 278.7 349.9"/>
    <polygon class="st0" points="278.7 375.3 278.7 349.9 266.2 351.7 278.7 375.3"/>
    <polygon class="st0" points="278.7 375.3 278.6 414.2 297.7 406.2 278.7 375.3"/>
    <polygon class="st0" points="278.6 414.2 278.7 375.3 266.2 388.5 278.6 414.2"/>
    <polygon class="st0" points="278.6 414.2 278.5 448.8 297.7 430.8 278.6 414.2"/>
    <polygon class="st0" points="278.5 448.8 278.6 414.2 266.2 428.6 278.5 448.8"/>
    <polygon class="st0" points="278.5 448.8 278.7 465.5 297.7 465.5 278.5 448.8"/>
    <polygon class="st0" points="278.7 465.5 278.5 448.8 266.2 465.5 278.7 465.5"/>
    <polygon class="st0" points="278.7 465.5 278.7 488.2 297.7 465.5 278.7 465.5"/>
    <polygon class="st0" points="278.7 488.2 278.7 465.5 266.2 465.5 278.7 488.2"/>
    <polygon class="st0" points="297.7 339.7 297.7 298.1 278.7 318.8 297.7 339.7"/>
    <polygon class="st0" points="297.7 381 297.7 339.7 306.9 343.9 297.7 381"/>
    <polygon class="st0" points="297.7 381 306.9 343.9 306.9 381 297.7 381"/>
    <polygon class="st0" points="297.7 381 297.7 339.7 278.7 375.3 297.7 381"/>
    <polygon class="st0" points="297.7 465.5 297.7 430.8 306.9 451.5 297.7 465.5"/>
    <polygon class="st0" points="297.7 465.5 306.9 451.5 306.9 465.5 297.7 465.5"/>
    <polygon class="st0" points="306.9 381 306.9 413.6 297.7 406.2 306.9 381"/>
    <polygon class="st0" points="306.9 381 297.7 406.2 297.7 381 306.9 381"/>
    <polygon class="st0" points="297.7 406.2 306.9 413.6 297.7 430.8 297.7 406.2"/>
    <polygon class="st0" points="297.7 430.8 306.9 413.6 306.9 451.5 297.7 430.8"/>
    <polygon class="st0" points="297.7 406.2 297.7 381 278.7 375.3 297.7 406.2"/>
    <polygon class="st0" points="297.7 430.8 297.7 406.2 278.6 414.2 297.7 430.8"/>
    <polygon class="st0" points="297.7 465.5 297.7 430.8 278.5 448.8 297.7 465.5"/>
    <polygon class="st0" points="297.7 465.5 297.7 488.2 306.9 488.2 297.7 465.5"/>
    <polygon class="st0" points="297.7 488.2 297.7 465.5 278.7 488.2 297.7 488.2"/>
    <polygon class="st0" points="306.8 309.3 306.9 343.9 325 325.4 306.8 309.3"/>
    <polygon class="st0" points="306.9 343.9 306.9 381 322.6 360.7 306.9 343.9"/>
    <polygon class="st0" points="306.9 413.6 306.9 381 321.1 402.4 306.9 413.6"/>
    <polygon class="st0" points="321.1 402.4 306.9 381 323.5 385.5 321.1 402.4"/>
    <polygon class="st0" points="306.9 413.6 306.9 451.5 321.1 428.6 306.9 413.6"/>
    <polygon class="st0" points="306.9 451.5 306.9 465.5 321.1 460.6 306.9 451.5"/>
    <polygon class="st0" points="306.9 465.5 306.9 488.2 321.1 473.2 306.9 465.5"/>
    <polygon class="st0" points="306.9 488.2 306.9 465.5 297.7 465.5 306.9 488.2"/>
    <polygon class="st0" points="311.5 160.1 311.5 151.7 336.4 160.1 311.5 160.1"/>
    <polygon class="st0" points="336.4 160.1 311.5 151.7 367.9 151.7 336.4 160.1"/>
    <polygon class="st0" points="336.4 160.1 367.9 151.7 367.9 160.1 336.4 160.1"/>
    <polygon class="st0" points="311.5 176.3 311.5 160.1 302.6 173.2 311.5 176.3"/>
    <polygon class="st0" points="311.5 189.4 311.5 176.3 302.6 173.2 311.5 189.4"/>
    <polygon class="st0" points="311.5 189.4 311.5 224.8 320.4 211.5 311.5 189.4"/>
    <polygon class="st0" points="311.5 224.8 311.5 189.4 290.8 206.1 311.5 224.8"/>
    <polygon class="st0" points="311.5 224.8 311.5 255.2 333.2 234.1 311.5 224.8"/>
    <polygon class="st0" points="311.5 255.2 311.5 224.8 290.8 251.7 311.5 255.2"/>
    <polygon class="st0" points="368.1 82.1 318.3 114.1 368.1 114.1 368.1 82.1"/>
    <polygon class="st0" points="258.9 114.1 368.1 82.1 290.8 114.1 258.9 114.1"/>
    <polygon class="st0" points="311.5 114.1 290.8 114.1 368.1 82.1 311.5 114.1"/>
    <polygon class="st0" points="311.5 114.1 368.1 82.1 318.3 114.1 311.5 114.1"/>
    <polygon class="st0" points="320.6 142.5 359.2 125 320.6 125 320.6 142.5"/>
    <polygon class="st0" points="311.5 151.7 311.5 114.1 320.6 125 311.5 151.7"/>
    <polygon class="st0" points="311.5 151.7 320.6 125 320.6 142.5 311.5 151.7"/>
    <polygon class="st0" points="290.8 114.1 301.3 135.6 311.5 114.1 290.8 114.1"/>
    <polygon class="st0" points="301.3 135.6 290.8 151.7 311.5 151.7 301.3 135.6"/>
    <polygon class="st0" points="391 218.6 392.1 211 399.4 211 391 218.6"/>
    <polygon class="st0" points="391 218.6 399.4 211 397.9 221 391 218.6"/>
    <polygon class="st0" points="392.1 211 391 203.5 399.4 211 392.1 211"/>
    <polygon class="st0" points="399.4 211 391 203.5 397.9 201.2 399.4 211"/>
    <polygon class="st0" points="384.8 216.5 385.7 211 392.1 211 384.8 216.5"/>
    <polygon class="st0" points="384.8 216.5 392.1 211 391 218.6 384.8 216.5"/>
    <polygon class="st0" points="385.7 211 384.8 205.7 392.1 211 385.7 211"/>
    <polygon class="st0" points="392.1 211 384.8 205.7 391 203.5 392.1 211"/>
    <polygon class="st0" points="382 191.4 386.3 185.4 393.4 192.5 382 191.4"/>
    <polygon class="st0" points="382 191.4 393.4 192.5 387.4 196.8 382 191.4"/>
    <polygon class="st0" points="375.2 187.9 377.7 181 382 191.4 375.2 187.9"/>
    <polygon class="st0" points="382 191.4 377.7 181 386.3 185.4 382 191.4"/>
    <polygon class="st0" points="378.3 196.5 382 191.4 382 199.9 378.3 196.5"/>
    <polygon class="st0" points="382 199.9 382 191.4 387.4 196.8 382 199.9"/>
    <polygon class="st0" points="373.2 194.1 375.2 187.9 378.3 196.5 373.2 194.1"/>
    <polygon class="st0" points="378.3 196.5 375.2 187.9 382 191.4 378.3 196.5"/>
    <polygon class="st0" points="391 203.5 387.4 196.8 393.4 192.5 391 203.5"/>
    <polygon class="st0" points="391 203.5 393.4 192.5 397.9 201.2 391 203.5"/>
    <polygon class="st0" points="384.8 205.7 383.9 203.5 391 203.5 384.8 205.7"/>
    <polygon class="st0" points="391 203.5 383.9 203.5 387.4 196.8 391 203.5"/>
    <polygon class="st0" points="387.4 196.8 383.9 203.5 382 199.9 387.4 196.8"/>
    <polygon class="st0" points="367.9 186.8 367.9 179.4 375.2 187.9 367.9 186.8"/>
    <polygon class="st0" points="375.2 187.9 367.9 179.4 377.7 181 375.2 187.9"/>
    <polygon class="st0" points="367.9 193.2 367.9 186.8 375.2 187.9 367.9 193.2"/>
    <polygon class="st0" points="367.9 193.2 375.2 187.9 373.2 194.1 367.9 193.2"/>
    <polygon class="st0" points="367.9 151.7 367.9 142.5 415.4 142.5 367.9 151.7"/>
    <polygon class="st0" points="367.9 151.7 415.4 142.5 424.7 151.7 367.9 151.7"/>
    <polygon class="st0" points="311.5 151.7 320.6 142.5 367.9 151.7 311.5 151.7"/>
    <polygon class="st0" points="367.9 151.7 320.6 142.5 367.9 142.5 367.9 151.7"/>
    <polygon class="st0" points="367.9 160.1 367.9 176.2 381.9 169.5 367.9 160.1"/>
    <polygon class="st0" points="367.9 176.2 367.9 160.1 336.4 160.1 367.9 176.2"/>
    <polygon class="st0" points="360.3 187.9 357.9 181 367.9 179.4 360.3 187.9"/>
    <polygon class="st0" points="360.3 187.9 367.9 179.4 367.9 186.8 360.3 187.9"/>
    <polygon class="st0" points="362.4 194.1 360.3 187.9 367.9 186.8 362.4 194.1"/>
    <polygon class="st0" points="362.4 194.1 367.9 186.8 367.9 193.2 362.4 194.1"/>
    <polygon class="st0" points="367.9 209 367.9 193.2 373.2 194.1 367.9 209"/>
    <polygon class="st0" points="367.9 209 373.2 194.1 378.3 196.5 367.9 209"/>
    <polygon class="st0" points="367.9 209 378.3 196.5 382 199.9 367.9 209"/>
    <polygon class="st0" points="355.5 198.5 362.4 194.1 367.9 209 355.5 198.5"/>
    <polygon class="st0" points="367.9 209 362.4 194.1 367.9 193.2 367.9 209"/>
    <polygon class="st0" points="367.9 209 367.9 214.4 370.8 212.3 367.9 209"/>
    <polygon class="st0" points="367.9 214.4 367.9 209 364.7 211.7 367.9 214.4"/>
    <polygon class="st0" points="367.9 228.9 367.9 214.4 373.2 228.1 367.9 228.9"/>
    <polygon class="st0" points="373.2 228.1 367.9 214.4 378.3 225.7 373.2 228.1"/>
    <polygon class="st0" points="378.3 225.7 367.9 214.4 370.8 212.3 378.3 225.7"/>
    <polygon class="st0" points="378.3 225.7 370.8 212.3 382.4 221.7 378.3 225.7"/>
    <polygon class="st0" points="357.2 225.7 353.4 221.5 364.7 211.7 357.2 225.7"/>
    <polygon class="st0" points="357.2 225.7 364.7 211.7 367.9 214.4 357.2 225.7"/>
    <polygon class="st0" points="357.2 225.7 367.9 214.4 362.4 228.1 357.2 225.7"/>
    <polygon class="st0" points="362.4 228.1 367.9 214.4 367.9 228.9 362.4 228.1"/>
    <polygon class="st0" points="367.9 235.4 367.9 228.9 373.2 228.1 367.9 235.4"/>
    <polygon class="st0" points="367.9 235.4 373.2 228.1 375.2 234.3 367.9 235.4"/>
    <polygon class="st0" points="360.3 234.3 362.4 228.1 367.9 235.4 360.3 234.3"/>
    <polygon class="st0" points="367.9 235.4 362.4 228.1 367.9 228.9 367.9 235.4"/>
    <polygon class="st0" points="367.9 242.7 367.9 235.4 375.2 234.3 367.9 242.7"/>
    <polygon class="st0" points="367.9 242.7 375.2 234.3 377.7 241.2 367.9 242.7"/>
    <polygon class="st0" points="357.9 241.2 360.3 234.3 367.9 242.7 357.9 241.2"/>
    <polygon class="st0" points="367.9 242.7 360.3 234.3 367.9 235.4 367.9 242.7"/>
    <polygon class="st0" points="370.8 212.3 383.9 203.5 384.8 205.7 370.8 212.3"/>
    <polygon class="st0" points="370.8 212.3 384.8 205.7 385.7 211 370.8 212.3"/>
    <polygon class="st0" points="370.8 212.3 385.7 211 384.8 216.5 370.8 212.3"/>
    <polygon class="st0" points="370.8 212.3 384.8 216.5 382.4 221.7 370.8 212.3"/>
    <polygon class="st0" points="353.4 221.5 350.8 216.5 364.7 211.7 353.4 221.5"/>
    <polygon class="st0" points="364.7 211.7 350.8 216.5 349.9 211 364.7 211.7"/>
    <polygon class="st0" points="364.7 211.7 349.9 211 350.8 205.6 364.7 211.7"/>
    <polygon class="st0" points="364.7 211.7 350.8 205.6 352.8 201.5 364.7 211.7"/>
    <polygon class="st0" points="352.8 201.5 355.5 198.5 364.7 211.7 352.8 201.5"/>
    <polygon class="st0" points="364.7 211.7 355.5 198.5 367.9 209 364.7 211.7"/>
    <polygon class="st0" points="353.5 191.4 349.3 185.4 357.9 181 353.5 191.4"/>
    <polygon class="st0" points="353.5 191.4 357.9 181 360.3 187.9 353.5 191.4"/>
    <polygon class="st0" points="342.2 192.5 349.3 185.4 353.5 191.4 342.2 192.5"/>
    <polygon class="st0" points="342.2 192.5 353.5 191.4 348.2 196.8 342.2 192.5"/>
    <polygon class="st0" points="355.5 198.5 353.5 191.4 362.4 194.1 355.5 198.5"/>
    <polygon class="st0" points="362.4 194.1 353.5 191.4 360.3 187.9 362.4 194.1"/>
    <polygon class="st0" points="348.2 196.8 353.5 191.4 355.5 198.5 348.2 196.8"/>
    <polygon class="st0" points="348.2 196.8 355.5 198.5 352.8 201.5 348.2 196.8"/>
    <polygon class="st0" points="337.7 201.2 342.2 192.5 344.6 203.5 337.7 201.2"/>
    <polygon class="st0" points="344.6 203.5 342.2 192.5 348.2 196.8 344.6 203.5"/>
    <polygon class="st0" points="344.6 203.5 348.2 196.8 352.8 201.5 344.6 203.5"/>
    <polygon class="st0" points="344.6 203.5 352.8 201.5 350.8 205.6 344.6 203.5"/>
    <polygon class="st0" points="336.2 211 337.3 204.5 343.5 211 336.2 211"/>
    <polygon class="st0" points="343.5 211 337.3 204.5 344.6 203.5 343.5 211"/>
    <polygon class="st0" points="344.6 203.5 337.3 204.5 337.7 201.2 344.6 203.5"/>
    <polygon class="st0" points="343.5 211 344.6 203.5 349.9 211 343.5 211"/>
    <polygon class="st0" points="349.9 211 344.6 203.5 350.8 205.6 349.9 211"/>
    <polygon class="st0" points="377.7 241.2 375.2 234.3 386.3 236.8 377.7 241.2"/>
    <polygon class="st0" points="386.3 236.8 375.2 234.3 382 230.8 386.3 236.8"/>
    <polygon class="st0" points="386.3 236.8 382 230.8 387.4 225.4 386.3 236.8"/>
    <polygon class="st0" points="386.3 236.8 387.4 225.4 393.4 229.6 386.3 236.8"/>
    <polygon class="st0" points="375.2 234.3 373.2 228.1 378.3 225.7 375.2 234.3"/>
    <polygon class="st0" points="375.2 234.3 378.3 225.7 382 230.8 375.2 234.3"/>
    <polygon class="st0" points="382 230.8 378.3 225.7 382.4 221.7 382 230.8"/>
    <polygon class="st0" points="382 230.8 382.4 221.7 387.4 225.4 382 230.8"/>
    <polygon class="st0" points="387.4 225.4 391 218.6 393.4 229.6 387.4 225.4"/>
    <polygon class="st0" points="393.4 229.6 391 218.6 397.9 221 393.4 229.6"/>
    <polygon class="st0" points="382.4 221.7 384.8 216.5 391 218.6 382.4 221.7"/>
    <polygon class="st0" points="382.4 221.7 391 218.6 387.4 225.4 382.4 221.7"/>
    <polygon class="st0" points="342.2 229.6 348.2 225.4 353.5 230.8 342.2 229.6"/>
    <polygon class="st0" points="342.2 229.6 353.5 230.8 349.3 236.8 342.2 229.6"/>
    <polygon class="st0" points="349.3 236.8 353.5 230.8 360.3 234.3 349.3 236.8"/>
    <polygon class="st0" points="349.3 236.8 360.3 234.3 357.9 241.2 349.3 236.8"/>
    <polygon class="st0" points="348.2 225.4 353.4 221.5 357.2 225.7 348.2 225.4"/>
    <polygon class="st0" points="348.2 225.4 357.2 225.7 353.5 230.8 348.2 225.4"/>
    <polygon class="st0" points="353.5 230.8 357.2 225.7 360.3 234.3 353.5 230.8"/>
    <polygon class="st0" points="360.3 234.3 357.2 225.7 362.4 228.1 360.3 234.3"/>
    <polygon class="st0" points="342.2 229.6 337.7 221 344.6 218.6 342.2 229.6"/>
    <polygon class="st0" points="342.2 229.6 344.6 218.6 348.2 225.4 342.2 229.6"/>
    <polygon class="st0" points="348.2 225.4 344.6 218.6 350.8 216.5 348.2 225.4"/>
    <polygon class="st0" points="348.2 225.4 350.8 216.5 353.4 221.5 348.2 225.4"/>
    <polygon class="st0" points="337.7 221 336.2 211 344.6 218.6 337.7 221"/>
    <polygon class="st0" points="344.6 218.6 336.2 211 343.5 211 344.6 218.6"/>
    <polygon class="st0" points="344.6 218.6 343.5 211 350.8 216.5 344.6 218.6"/>
    <polygon class="st0" points="350.8 216.5 343.5 211 349.9 211 350.8 216.5"/>
    <polygon class="st0" points="406.1 199.9 391.9 176.3 393.4 192.5 406.1 199.9"/>
    <polygon class="st0" points="402.3 232.5 410.8 255.2 424.7 221.2 402.3 232.5"/>
    <polygon class="st0" points="410.8 255.2 402.3 232.5 393.2 247.4 410.8 255.2"/>
    <polygon class="st0" points="386.3 236.8 393.2 247.4 402.3 232.5 386.3 236.8"/>
    <polygon class="st0" points="393.2 247.4 386.3 236.8 383.4 252.3 393.2 247.4"/>
    <polygon class="st0" points="393.2 247.4 404 267.2 410.8 255.2 393.2 247.4"/>
    <polygon class="st0" points="404 267.2 393.2 247.4 383.4 252.3 404 267.2"/>
    <polygon class="st0" points="381.9 169.5 391.9 176.3 401.2 160.1 381.9 169.5"/>
    <polygon class="st0" points="367.9 160.1 381.9 169.5 401.2 160.1 367.9 160.1"/>
    <polygon class="st0" points="341.1 309.3 325 325.4 341.1 339.7 341.1 309.3"/>
    <polygon class="st0" points="325 325.4 306.9 343.9 341.1 339.7 325 325.4"/>
    <polygon class="st0" points="266.2 465.5 253.5 473.8 253.5 488.2 266.2 465.5"/>
    <polygon class="st0" points="253.5 435.1 266.2 428.6 251.2 426.3 253.5 435.1"/>
    <polygon class="st0" points="266.2 428.6 257.3 404.9 251.2 426.3 266.2 428.6"/>
    <polygon class="st0" points="257.3 404.9 240.3 388.5 246 419.2 257.3 404.9"/>
    <polygon class="st0" points="222 371.2 240.3 388.5 257.4 371.2 222 371.2"/>
    <polygon class="st0" points="222 371.2 201.6 351.7 181.6 371.2 222 371.2"/>
    <polygon class="st0" points="257.4 371.2 234.9 351.8 222 371.2 257.4 371.2"/>
    <polygon class="st0" points="102.4 414.4 102.4 388.4 107.2 414.6 102.4 414.4"/>
    <polygon class="st0" points="107.2 414.6 102.4 388.4 122.3 402.1 107.2 414.6"/>
    <polygon class="st0" points="136.3 411.8 122.3 402.1 107.2 414.6 136.3 411.8"/>
    <polygon class="st0" points="368.7 454 369 422.8 375.4 423.9 368.7 454"/>
    <polygon class="st0" points="368.7 454 375.4 423.9 380.1 426.1 368.7 454"/>
    <polygon class="st0" points="368.7 454 380.1 426.1 384.1 429.7 368.7 454"/>
    <polygon class="st0" points="368.7 454 384.1 429.7 387 433.4 368.7 454"/>
    <polygon class="st0" points="368.7 454 387 433.4 389.2 437.7 368.7 454"/>
    <polygon class="st0" points="391.4 477.9 368.7 454 391.5 447.5 391.4 477.9"/>
    <polygon class="st0" points="389.2 437.7 390.8 442.8 368.7 454 389.2 437.7"/>
    <polygon class="st0" points="368.7 454 390.8 442.8 391.5 447.5 368.7 454"/>
    <polygon class="st0" points="321.1 488.2 321.1 473.2 330.6 488.2 321.1 488.2"/>
    <polygon class="st0" points="330.6 488.2 321.1 473.2 330.6 456.4 330.6 488.2"/>
    <polygon class="st0" points="330.6 456.4 321.1 473.2 321.1 460.6 330.6 456.4"/>
    <polygon class="st0" points="321.1 460.6 321.1 428.6 330.6 456.4 321.1 460.6"/>
    <polygon class="st0" points="330.6 456.4 321.1 428.6 330.6 427.5 330.6 456.4"/>
    <polygon class="st0" points="330.6 403 334.2 391.9 368.7 403 330.6 403"/>
    <polygon class="st0" points="368.7 403 334.2 391.9 340.1 383 368.7 403"/>
    <polygon class="st0" points="368.7 403 330.6 403 330.6 427.5 368.7 403"/>
    <polygon class="st0" points="368.7 403 397.7 383 403.6 391.9 368.7 403"/>
    <polygon class="st0" points="368.7 403 403.6 391.9 407 403 368.7 403"/>
    <polygon class="st0" points="407 403 368.7 403 407 428.4 407 403"/>
    <polygon class="st0" points="340.1 383 368.7 403 347.4 375.7 340.1 383"/>
    <polygon class="st0" points="368.7 403 347.4 375.7 355.7 371.2 368.7 403"/>
    <polygon class="st0" points="368.7 403 355.7 371.2 362.4 369.5 368.7 403"/>
    <polygon class="st0" points="368.7 403 362.4 369.5 368.7 368.8 368.7 403"/>
    <polygon class="st0" points="368.7 403 368.7 368.8 375.4 369.5 368.7 403"/>
    <polygon class="st0" points="368.7 403 375.4 369.5 382.1 371.2 368.7 403"/>
    <polygon class="st0" points="368.7 403 382.1 371.2 390.3 375.7 368.7 403"/>
    <polygon class="st0" points="368.7 403 390.3 375.7 397.7 383 368.7 403"/>
    <polygon class="st0" points="368.1 125 368.1 114.1 377 125 368.1 125"/>
    <polygon class="st0" points="377 125 368.1 114.1 417.6 114.1 377 125"/>
    <polygon class="st0" points="377 125 417.6 114.1 415.4 125 377 125"/>
    <polygon class="st0" points="415.4 125 417.6 114.1 424.7 114.1 415.4 125"/>
    <polygon class="st0" points="320.6 125 311.5 114.1 318.3 114.1 320.6 125"/>
    <polygon class="st0" points="320.6 125 318.3 114.1 359.2 125 320.6 125"/>
    <polygon class="st0" points="359.2 125 318.3 114.1 368.1 114.1 359.2 125"/>
    <polygon class="st0" points="359.2 125 368.1 114.1 368.1 125 359.2 125"/>
    <polygon class="st0" points="435 135.6 424.7 114.1 424.7 151.7 435 135.6"/>
    <polygon class="st0" points="311.5 114.1 301.3 135.6 311.5 151.7 311.5 114.1"/>
    <polygon class="st0" points="367.9 179.4 377.7 181 391.9 176.3 367.9 179.4"/>
    <polygon class="st0" points="377.7 181 386.3 185.4 391.9 176.3 377.7 181"/>
    <polygon class="st0" points="386.3 185.4 393.4 192.5 391.9 176.3 386.3 185.4"/>
    <polygon class="st0" points="393.4 192.5 397.9 201.2 406.1 199.9 393.4 192.5"/>
    <polygon class="st0" points="397.9 201.2 399.4 211 406.1 199.9 397.9 201.2"/>
    <polygon class="st0" points="402.3 232.5 397.9 221 415.8 211.9 402.3 232.5"/>
    <polygon class="st0" points="415.8 211.9 397.9 221 399.4 211 415.8 211.9"/>
    <polygon class="st0" points="386.3 236.8 393.4 229.6 402.3 232.5 386.3 236.8"/>
    <polygon class="st0" points="402.3 232.5 393.4 229.6 397.9 221 402.3 232.5"/>
    <polygon class="st0" points="386.3 236.8 377.7 241.2 383.4 252.3 386.3 236.8"/>
    <polygon class="st0" points="377.7 241.2 367.9 242.7 383.4 252.3 377.7 241.2"/>
    <polygon class="st0" points="367.9 242.7 357.9 241.2 344.4 257.2 367.9 242.7"/>
    <polygon class="st0" points="357.9 241.2 349.3 236.8 344.4 257.2 357.9 241.2"/>
    <polygon class="st0" points="349.3 236.8 342.2 229.6 333.2 234.1 349.3 236.8"/>
    <polygon class="st0" points="342.2 229.6 337.7 221 333.2 234.1 342.2 229.6"/>
    <polygon class="st0" points="337.7 221 336.2 211 333.2 234.1 337.7 221"/>
    <polygon class="st0" points="336.2 211 337.3 204.5 333.6 202.5 336.2 211"/>
    <polygon class="st0" points="333.6 202.5 342.2 192.5 337.7 201.2 333.6 202.5"/>
    <polygon class="st0" points="333.6 202.5 337.7 201.2 337.3 204.5 333.6 202.5"/>
    <polygon class="st0" points="342.2 192.5 349.3 185.4 340.5 176.3 342.2 192.5"/>
    <polygon class="st0" points="349.3 185.4 357.9 181 340.5 176.3 349.3 185.4"/>
    <polygon class="st0" points="357.9 181 367.9 179.4 340.5 176.3 357.9 181"/>
    <polygon class="st0" points="370.8 212.3 367.9 209 382 199.9 370.8 212.3"/>
    <polygon class="st0" points="370.8 212.3 382 199.9 383.9 203.5 370.8 212.3"/>
    <polygon class="st0" points="424.7 160.1 401.2 160.1 414.5 176.3 424.7 160.1"/>
    <polygon class="st0" points="102.4 414.4 102.4 434.9 107.2 414.6 102.4 414.4"/>
    <polygon class="st0" points="128 488.2 136.3 488.2 129 473.1 128 488.2"/>
    <polygon class="st0" points="136.3 488.2 150.3 488.2 150.3 473.8 136.3 488.2"/>
    <polygon class="st0" points="150.3 488.2 173 488.2 150.3 473.8 150.3 488.2"/>
    <polygon class="st0" points="173 488.2 195.4 488.2 195.4 473.8 173 488.2"/>
    <polygon class="st0" points="195.4 488.2 208.5 488.2 208.5 473.8 195.4 488.2"/>
    <polygon class="st0" points="208.5 488.2 231.1 488.2 208.5 473.8 208.5 488.2"/>
    <polygon class="st0" points="231.1 488.2 253.5 488.2 253.5 473.8 231.1 488.2"/>
    <polygon class="st0" points="306.9 488.2 321.1 488.2 321.1 473.2 306.9 488.2"/>
    <polygon class="st0" points="330.6 488.2 345.7 488.2 345.5 477.9 330.6 488.2"/>
    <polygon class="st0" points="345.7 488.2 368.7 488.2 345.5 477.9 345.7 488.2"/>
    <polygon class="st0" points="368.7 488.2 391.5 488.2 391.4 477.9 368.7 488.2"/>
    <polygon class="st0" points="391.5 488.2 407 488.2 391.4 477.9 391.5 488.2"/>
    <polygon class="st0" points="416.5 488.2 429.4 488.2 416.5 474 416.5 488.2"/>
    <polygon class="st0" points="482 488.2 504.7 488.2 482 473.8 482 488.2"/>
    <polygon class="st0" points="504.7 488.2 527.3 488.2 527.3 473.8 504.7 488.2"/>
    <polygon class="st0" points="527.3 488.2 541.3 488.2 527.3 473.8 527.3 488.2"/>
    <polygon class="st0" points="541.3 488.2 563.7 488.2 541.3 473.8 541.3 488.2"/>
    <polygon class="st0" points="563.7 488.2 587.5 488.2 587.5 473.8 563.7 488.2"/>
    <polygon class="st0" points="608.5 488.2 622.8 488.2 608.5 473.8 608.5 488.2"/>
    <polygon class="st0" points="622.8 488.2 633.9 488.2 633.9 473.8 622.8 488.2"/>
    <polygon class="st0" points="633.9 473.8 633.9 435.1 618.8 458.1 633.9 473.8"/>
    <polygon class="st0" points="600.9 365.8 576.2 351.7 587.2 371.2 600.9 365.8"/>
    <polygon class="st0" points="321.1 473.2 321.1 460.6 306.9 465.5 321.1 473.2"/>
    <polygon class="st0" points="321.1 460.6 321.1 428.6 306.9 451.5 321.1 460.6"/>
    <polygon class="st0" points="321.1 428.6 321.1 402.4 306.9 413.6 321.1 428.6"/>
    <polygon class="st0" points="323.5 385.5 332.3 369.3 322.6 360.7 323.5 385.5"/>
    <polygon class="st0" points="332.3 369.3 341.5 359.9 322.6 360.7 332.3 369.3"/>
    <polygon class="st0" points="341.5 359.9 351.9 353.9 341.1 339.7 341.5 359.9"/>
    <polygon class="st0" points="351.9 353.9 359.9 338.1 360.8 351.7 351.9 353.9"/>
    <polygon class="st0" points="368.7 351 360.8 351.7 359.9 338.1 368.7 351"/>
    <polygon class="st0" points="368.7 351 377.9 338.1 377 351.7 368.7 351"/>
    <polygon class="st0" points="385.7 353.9 377 351.7 377.9 338.1 385.7 353.9"/>
    <polygon class="st0" points="385.7 353.9 396.1 359.9 396.1 341 385.7 353.9"/>
    <polygon class="st0" points="396.1 359.9 396.1 341 422.1 342.8 396.1 359.9"/>
    <polygon class="st0" points="396.1 359.9 422.1 342.8 405.5 369.3 396.1 359.9"/>
    <polygon class="st0" points="414.1 385.5 405.5 369.3 422.9 369.1 414.1 385.5"/>
    <polygon class="st0" points="422.9 369.1 405.5 369.3 422.1 342.8 422.9 369.1"/>
    <polygon class="st0" points="416.5 451.7 416.5 474 429.4 464.6 416.5 451.7"/>
    <polygon class="st0" points="422.1 342.8 421 309.3 411.6 321.2 422.1 342.8"/>
    <polygon class="st0" points="587.2 371.2 556.4 371.2 573.7 388.4 587.2 371.2"/>
    <polygon class="st0" points="556.4 371.2 587.2 371.2 576.2 351.7 556.4 371.2"/>
    <polygon class="st0" points="556.4 371.2 514.2 371.2 534.9 388.4 556.4 371.2"/>
    <polygon class="st0" points="514.2 371.2 556.4 371.2 534.4 351.7 514.2 371.2"/>
    <polygon class="st0" points="514.2 371.2 477.8 371.2 496.4 388.4 514.2 371.2"/>
    <polygon class="st0" points="477.8 371.2 514.2 371.2 501.1 351.7 477.8 371.2"/>
    <polygon class="st0" points="628.1 415.9 601 412 617.2 420.3 628.1 415.9"/>
    <polygon class="st0" points="628.1 415.9 617.2 420.3 633.9 435.1 628.1 415.9"/>
    <polygon class="st0" points="617.2 420.3 610.4 428 633.9 435.1 617.2 420.3"/>
    <polygon class="st0" points="610.4 428 617.2 420.3 601 412 610.4 428"/>
    <polygon class="st0" points="610.4 428 608.5 435.1 633.9 435.1 610.4 428"/>
    <polygon class="st0" points="608.5 435.1 610.4 428 601 435.1 608.5 435.1"/>
    <polygon class="st0" points="608.5 435.1 608.5 447.5 633.9 435.1 608.5 435.1"/>
    <polygon class="st0" points="608.5 447.5 608.5 435.1 601 435.1 608.5 447.5"/>
    <polygon class="st0" points="608.5 447.5 608.5 473.8 618.8 458.1 608.5 447.5"/>
    <polygon class="st0" points="527.3 473.8 541.3 463.7 541.3 473.8 527.3 473.8"/>
    <polygon class="st0" points="527.3 473.8 541.3 473.8 541.3 488.2 527.3 473.8"/>
    <polygon class="st0" points="541.3 463.7 541.3 435.1 527.3 447.5 541.3 463.7"/>
    <polygon class="st0" points="541.3 435.1 544.4 426.1 535.7 423.7 541.3 435.1"/>
    <polygon class="st0" points="544.4 426.1 550 419.2 535.7 423.7 544.4 426.1"/>
    <polygon class="st0" points="550 419.2 556.4 415.7 557.7 402.8 550 419.2"/>
    <polygon class="st0" points="556.4 415.7 564.6 414.4 557.7 402.8 556.4 415.7"/>
    <polygon class="st0" points="564.6 414.4 556.4 415.7 563.7 435.1 564.6 414.4"/>
    <polygon class="st0" points="564.6 414.4 572.1 416.4 557.7 402.8 564.6 414.4"/>
    <polygon class="st0" points="572.1 416.4 564.6 414.4 563.7 435.1 572.1 416.4"/>
    <polygon class="st0" points="572.1 416.4 578.8 419.2 584.6 409.7 572.1 416.4"/>
    <polygon class="st0" points="578.8 419.2 584.4 426.1 584.6 409.7 578.8 419.2"/>
    <polygon class="st0" points="584.4 426.1 587.5 435.1 601 435.1 584.4 426.1"/>
    <polygon class="st0" points="482 464.6 482 435.1 469.9 454.7 482 464.6"/>
    <polygon class="st0" points="482 435.1 485.4 426.1 469.8 427 482 435.1"/>
    <polygon class="st0" points="485.4 426.1 490.7 419.2 484 407.2 485.4 426.1"/>
    <polygon class="st0" points="490.7 419.2 497.4 415.7 484 407.2 490.7 419.2"/>
    <polygon class="st0" points="497.4 415.7 505.4 414.4 517.6 406.6 497.4 415.7"/>
    <polygon class="st0" points="505.4 414.4 497.4 415.7 504.7 435.1 505.4 414.4"/>
    <polygon class="st0" points="505.4 414.4 513.1 416.4 517.6 406.6 505.4 414.4"/>
    <polygon class="st0" points="513.1 416.4 505.4 414.4 504.7 435.1 513.1 416.4"/>
    <polygon class="st0" points="513.1 416.4 519.6 419.2 517.6 406.6 513.1 416.4"/>
    <polygon class="st0" points="519.6 419.2 525 426.1 535.7 423.7 519.6 419.2"/>
    <polygon class="st0" points="525 426.1 527.3 435.1 535.7 423.7 525 426.1"/>
    <polygon class="st0" points="527.3 435.1 527.3 447.5 541.3 435.1 527.3 435.1"/>
    <polygon class="st0" points="527.3 447.5 527.3 473.8 541.3 463.7 527.3 447.5"/>
    <polygon class="st0" points="208.5 473.8 208.5 449.5 195.4 466.1 208.5 473.8"/>
    <polygon class="st0" points="208.5 449.5 195.4 435.1 208.5 435.1 208.5 449.5"/>
    <polygon class="st0" points="202.1 428.2 208.5 435.1 195.4 435.1 202.1 428.2"/>
    <polygon class="st0" points="208.5 435.1 211.8 426.1 202.1 428.2 208.5 435.1"/>
    <polygon class="st0" points="211.8 426.1 217.1 419.2 202.1 428.2 211.8 426.1"/>
    <polygon class="st0" points="217.1 419.2 223.8 415.7 222.1 407.6 217.1 419.2"/>
    <polygon class="st0" points="223.8 415.7 230.2 414.9 222.1 407.6 223.8 415.7"/>
    <polygon class="st0" points="230.2 414.9 223.8 415.7 231.1 435.1 230.2 414.9"/>
    <polygon class="st0" points="230.2 414.9 239.5 416.4 240.3 388.5 230.2 414.9"/>
    <polygon class="st0" points="239.5 416.4 230.2 414.9 231.1 435.1 239.5 416.4"/>
    <polygon class="st0" points="239.5 416.4 246 419.2 240.3 388.5 239.5 416.4"/>
    <polygon class="st0" points="246 419.2 251.2 426.3 257.3 404.9 246 419.2"/>
    <polygon class="st0" points="150.3 435.1 153.4 426.1 151.4 409.7 150.3 435.1"/>
    <polygon class="st0" points="153.4 426.1 159 419.2 151.4 409.7 153.4 426.1"/>
    <polygon class="st0" points="159 419.2 165.6 415.7 151.4 409.7 159 419.2"/>
    <polygon class="st0" points="165.6 415.7 173.6 414.4 151.4 409.7 165.6 415.7"/>
    <polygon class="st0" points="173.6 414.4 165.6 415.7 173 435.1 173.6 414.4"/>
    <polygon class="st0" points="173.6 414.4 181.4 416.4 179 403.5 173.6 414.4"/>
    <polygon class="st0" points="181.4 416.4 173.6 414.4 173 435.1 181.4 416.4"/>
    <polygon class="st0" points="181.4 416.4 187.8 419.2 179 403.5 181.4 416.4"/>
    <polygon class="st0" points="193.4 426.1 187.8 419.2 202.1 428.2 193.4 426.1"/>
    <polygon class="st0" points="202.1 428.2 187.8 419.2 179 403.5 202.1 428.2"/>
    <polygon class="st0" points="193.4 426.1 195.4 435.1 202.1 428.2 193.4 426.1"/>
    <polygon class="st0" points="195.4 435.1 195.4 466.1 208.5 449.5 195.4 435.1"/>
    <polygon class="st0" points="195.4 488.2 195.4 473.8 208.5 473.8 195.4 488.2"/>
    <polygon class="st0" points="208.5 473.8 195.4 473.8 195.4 466.1 208.5 473.8"/>
    <polygon class="st0" points="618.8 458.1 633.9 435.1 608.5 447.5 618.8 458.1"/>
    <polygon class="st0" points="618.8 458.1 608.5 473.8 633.9 473.8 618.8 458.1"/>
    <polygon class="st0" points="633.9 473.8 608.5 473.8 622.8 488.2 633.9 473.8"/>
    <polygon class="st0" points="107.2 414.6 114.4 416.3 136.3 411.8 107.2 414.6"/>
    <polygon class="st0" points="114.4 416.3 107.2 414.6 102.4 434.9 114.4 416.3"/>
    <polygon class="st0" points="114.4 416.3 118.5 419.2 136.3 411.8 114.4 416.3"/>
    <polygon class="st0" points="118.5 419.2 124.3 425.9 136.3 411.8 118.5 419.2"/>
    <polygon class="st0" points="124.3 425.9 128.6 435.4 136.3 411.8 124.3 425.9"/>
    <polygon class="st0" points="120.8 456.3 129 473.1 128.8 460.9 120.8 456.3"/>
    <polygon class="st0" points="129 473.1 120.8 456.3 102.4 473.8 129 473.1"/>
    <polygon class="st0" points="148.7 371.2 181.6 371.2 159.8 351.7 148.7 371.2"/>
    <polygon class="st0" points="181.6 371.2 148.7 371.2 161.4 388.4 181.6 371.2"/>
    <polygon class="st0" points="222 371.2 181.6 371.2 200.8 388.4 222 371.2"/>
    <polygon class="st0" points="407 488.2 407 456.2 391.4 477.9 407 488.2"/>
    <polygon class="st0" points="391.5 447.5 390.8 442.8 407 456.2 391.5 447.5"/>
    <polygon class="st0" points="407 456.2 390.8 442.8 407 428.4 407 456.2"/>
    <polygon class="st0" points="407 428.4 390.8 442.8 389.2 437.7 407 428.4"/>
    <polygon class="st0" points="330.6 427.5 330.6 456.4 345.2 450.8 330.6 427.5"/>
    <polygon class="st0" points="330.6 456.4 330.6 488.2 345.5 477.9 330.6 456.4"/>
    <polygon class="st0" points="396.1 309.3 396.1 341 411.6 321.2 396.1 309.3"/>
    <polygon class="st0" points="396.1 341 396.1 309.3 378 314.7 396.1 341"/>
    <polygon class="st0" points="411.6 321.2 396.1 341 422.1 342.8 411.6 321.2"/>
    <polygon class="st0" points="396.1 341 378 314.7 381.4 327.5 396.1 341"/>
    <polygon class="st0" points="385.7 353.9 396.1 341 377.9 338.1 385.7 353.9"/>
    <polygon class="st0" points="368.7 351 377.9 338.1 359.9 338.1 368.7 351"/>
    <polygon class="st0" points="381.4 327.5 377.9 325.6 377.9 338.1 381.4 327.5"/>
    <polygon class="st0" points="377.9 325.6 381.4 327.5 378 314.7 377.9 325.6"/>
    <polygon class="st0" points="359.5 315.2 341.1 309.3 341.1 339.7 359.5 315.2"/>
    <polygon class="st0" points="341.1 339.7 322.6 360.7 341.5 359.9 341.1 339.7"/>
    <polygon class="st0" points="322.6 360.7 341.1 339.7 306.9 343.9 322.6 360.7"/>
    <polygon class="st0" points="311.5 160.1 290.8 160.1 302.6 173.2 311.5 160.1"/>
    <polygon class="st0" points="336.4 160.1 311.5 160.1 321.9 176.3 336.4 160.1"/>
    <polygon class="st0" points="339.9 293 361.4 298.1 376.6 293.2 339.9 293"/>
    <polygon class="st0" points="360.8 267.2 339.7 273.4 376.6 273.2 360.8 267.2"/>
    <polygon class="st0" points="414.5 176.3 406.1 199.9 424.7 190.5 414.5 176.3"/>
    <polygon class="st0" points="406.1 199.9 399.4 211 415.8 211.9 406.1 199.9"/>
    <polygon class="st0" points="424.7 190.5 406.1 199.9 415.8 211.9 424.7 190.5"/>
    <polygon class="st0" points="415.8 211.9 402.3 232.5 424.7 221.2 415.8 211.9"/>
    <polygon class="st0" points="424.7 255.2 410.8 255.2 404 267.2 424.7 255.2"/>
    <polygon class="st0" points="367.9 242.7 344.4 257.2 360.8 267.2 367.9 242.7"/>
    <polygon class="st0" points="311.5 255.2 344.4 257.2 333.2 234.1 311.5 255.2"/>
    <polygon class="st0" points="290.8 176 311.5 189.4 302.6 173.2 290.8 176"/>
    <polygon class="st0" points="333.2 234.1 344.4 257.2 349.3 236.8 333.2 234.1"/>
    <polygon class="st0" points="311.5 224.8 333.2 234.1 320.4 211.5 311.5 224.8"/>
    <polygon class="st0" points="333.6 202.5 320.4 211.5 333.2 234.1 333.6 202.5"/>
    <polygon class="st0" points="320.4 211.5 333.6 202.5 311.5 189.4 320.4 211.5"/>
    <polygon class="st0" points="333.6 202.5 333.2 234.1 336.2 211 333.6 202.5"/>
    <polygon class="st0" points="311.5 189.4 333.6 202.5 321.9 176.3 311.5 189.4"/>
    <polygon class="st0" points="333.6 202.5 342.2 192.5 340.5 176.3 333.6 202.5"/>
    <polygon class="st0" points="359.9 338.1 341.1 339.7 351.9 353.9 359.9 338.1"/>
    <polygon class="st0" points="341.1 339.7 359.9 338.1 359.5 315.2 341.1 339.7"/>
    <polygon class="st0" points="322.6 360.7 306.9 381 323.5 385.5 322.6 360.7"/>
    <polygon class="st0" points="240.3 388.5 222.1 407.6 230.2 414.9 240.3 388.5"/>
    <polygon class="st0" points="222.1 407.6 202.1 428.2 217.1 419.2 222.1 407.6"/>
    <polygon class="st0" points="202.1 428.2 179 403.5 200.8 388.4 202.1 428.2"/>
    <polygon class="st0" points="202.1 428.2 200.8 388.4 222.1 407.6 202.1 428.2"/>
    <polygon class="st0" points="179 403.5 151.4 409.7 173.6 414.4 179 403.5"/>
    <polygon class="st0" points="151.4 409.7 179 403.5 161.4 388.4 151.4 409.7"/>
    <polygon class="st0" points="129 473.1 136.3 468.2 128.8 460.9 129 473.1"/>
    <polygon class="st0" points="378 314.7 363.8 308.8 359.5 315.2 378 314.7"/>
    <polygon class="st0" points="584.6 409.7 573.7 388.4 557.7 402.8 584.6 409.7"/>
    <polygon class="st0" points="517.6 406.6 534.9 388.4 535.7 423.7 517.6 406.6"/>
    <polygon class="st0" points="535.7 423.7 534.9 388.4 557.7 402.8 535.7 423.7"/>
    <polygon class="st0" points="517.6 406.6 496.4 388.4 497.4 415.7 517.6 406.6"/>
    <polygon class="st0" points="496.4 388.4 484 407.2 497.4 415.7 496.4 388.4"/>
    <polygon class="st0" points="527.3 435.1 541.3 435.1 535.7 423.7 527.3 435.1"/>
    <polygon class="st0" points="584.6 409.7 557.7 402.8 572.1 416.4 584.6 409.7"/>
    <polygon class="st0" points="557.7 402.8 535.7 423.7 550 419.2 557.7 402.8"/>
    <polygon class="st0" points="535.7 423.7 517.6 406.6 519.6 419.2 535.7 423.7"/>
    <polygon class="st0" points="484 407.2 469.8 427 485.4 426.1 484 407.2"/>
    <polygon class="st0" points="391.5 447.5 391.4 477.9 407 456.2 391.5 447.5"/>
    <polygon class="st0" points="369 422.8 368.7 403 375.4 423.9 369 422.8"/>
    <polygon class="st0" points="389.2 437.7 387 433.4 407 428.4 389.2 437.7"/>
    <polygon class="st0" points="407 428.4 387 433.4 384.1 429.7 407 428.4"/>
    <polygon class="st0" points="407 428.4 384.1 429.7 380.1 426.1 407 428.4"/>
    <polygon class="st0" points="407 428.4 380.1 426.1 368.7 403 407 428.4"/>
    <polygon class="st0" points="368.7 403 380.1 426.1 375.4 423.9 368.7 403"/>
    <polygon class="st0" points="348.8 435.3 351.2 431.2 368.7 454 348.8 435.3"/>
    <polygon class="st0" points="368.7 454 351.2 431.2 354.3 428 368.7 454"/>
    <polygon class="st0" points="368.7 454 354.3 428 358.8 424.6 368.7 454"/>
    <polygon class="st0" points="368.7 454 358.8 424.6 369 422.8 368.7 454"/>
    <polygon class="st0" points="369 422.8 358.8 424.6 363.3 422.8 369 422.8"/>
    <polygon class="st0" points="345.2 450.8 330.6 427.5 346.3 442.2 345.2 450.8"/>
    <polygon class="st0" points="369 422.8 363.3 422.8 368.7 403 369 422.8"/>
    <polygon class="st0" points="368.7 403 363.3 422.8 358.8 424.6 368.7 403"/>
    <polygon class="st0" points="368.7 403 358.8 424.6 330.6 427.5 368.7 403"/>
    <polygon class="st0" points="330.6 427.5 358.8 424.6 354.3 428 330.6 427.5"/>
    <polygon class="st0" points="330.6 427.5 354.3 428 351.2 431.2 330.6 427.5"/>
    <polygon class="st0" points="330.6 427.5 351.2 431.2 348.8 435.3 330.6 427.5"/>
    <polygon class="st0" points="330.6 427.5 348.8 435.3 346.3 442.2 330.6 427.5"/>
    <polygon class="st0" points="345.5 477.9 345.2 450.8 368.7 454 345.5 477.9"/>
    <polygon class="st0" points="368.7 454 345.2 450.8 346.3 442.2 368.7 454"/>
    <polygon class="st0" points="368.7 454 346.3 442.2 348.8 435.3 368.7 454"/>
    <polygon class="st0" points="345.5 477.9 345.2 450.8 330.6 456.4 345.5 477.9"/>
    <polygon class="st0" points="391.4 477.9 368.7 454 368.7 488.2 391.4 477.9"/>
    <polygon class="st0" points="345.5 477.9 368.7 488.2 368.7 454 345.5 477.9"/>
    <polygon class="st0" points="601 435.1 584.6 409.7 584.4 426.1 601 435.1"/>
    <polygon class="st0" points="376.6 293.2 376.6 273.2 339.7 273.4 339.9 293 376.6 293.2"/>
    <polygon class="st0" points="339.9 293 339.7 273.4 302.6 267.4 301.9 298.1 339.9 293"/>
    <polygon class="st0" points="396.1 341 381.4 327.5 377.9 338.1 396.1 341"/>
  </g>
</svg>