<?xml version="1.0" encoding="UTF-8"?>
<svg xmlns="http://www.w3.org/2000/svg" version="1.1" xmlns:xlink="http://www.w3.org/1999/xlink" viewBox="0 0 738 539">
  <!-- Generator: Adobe Illustrator 30.0.0, SVG Export Plug-In . SVG Version: 2.1.1 Build 123)  -->
  <defs>
    <style>
      .st0 {
        fill: none;
        stroke: #000;
        stroke-miterlimit: 10;
      }
    </style>
  </defs>
  <g id="Layer_2">
    <image width="2949" height="2155" transform="translate(1.4 .6) scale(.2)" xlink:href="Mũi Cà Mau.png"/>
  </g>
  <g id="Layer_1">
    <polygon class="st0" points="353.4 83.3 351.8 79.9 356.2 80.1 353.4 83.3"/>
    <polygon class="st0" points="356.2 80.1 351.8 79.9 355.1 78.2 356.2 80.1"/>
    <polygon class="st0" points="355.1 78.2 356.2 80.1 364.9 85.2 355.1 78.2"/>
    <polygon class="st0" points="355.1 78.2 354 76.2 350 75.2 355.1 78.2"/>
    <polygon class="st0" points="354 76.2 355.1 78.2 364.9 85.2 354 76.2"/>
    <polygon class="st0" points="338 112.8 338.4 149.5 350.8 133.7 338 112.8"/>
    <polygon class="st0" points="338.4 149.5 338.6 176 366.6 166.8 338.4 149.5"/>
    <polygon class="st0" points="149.9 414.2 200.8 410.7 182.1 414.3 149.9 414.2"/>
    <polygon class="st0" points="182.1 414.3 200.8 410.7 202.3 413.4 182.1 414.3"/>
    <polygon class="st0" points="200.8 410.7 224.7 409.1 192.4 395.7 200.8 410.7"/>
    <polygon class="st0" points="207.1 421.9 202.3 413.4 224.7 409.1 207.1 421.9"/>
    <polygon class="st0" points="207.1 421.9 224.7 409.1 248.7 424.6 207.1 421.9"/>
    <polygon class="st0" points="275.6 426.3 248.7 424.6 257.4 411.7 275.6 426.3"/>
    <polygon class="st0" points="224.7 409.1 202.3 413.4 200.8 410.7 224.7 409.1"/>
    <polygon class="st0" points="603.2 478 602.2 468.5 643.4 467.1 603.2 478"/>
    <polygon class="st0" points="643.4 467.1 602.2 468.5 642.8 457.6 643.4 467.1"/>
    <polygon class="st0" points="547.4 486.2 547.2 475.3 603.2 478 547.4 486.2"/>
    <polygon class="st0" points="603.2 478 547.2 475.3 602.2 468.5 603.2 478"/>
    <polygon class="st0" points="627.3 453.2 636.5 446.9 642.8 457.6 627.3 453.2"/>
    <polygon class="st0" points="643.4 467.1 642.8 457.6 655.6 459.1 643.4 467.1"/>
    <polygon class="st0" points="655.6 459.1 642.8 457.6 655.4 445.5 655.6 459.1"/>
    <polygon class="st0" points="655.4 445.5 642.8 457.6 636.5 446.9 655.4 445.5"/>
    <polygon class="st0" points="547.3 467.6 547.9 458.7 573 455.6 547.3 467.6"/>
    <polygon class="st0" points="547.3 467.6 573 455.6 583.7 454 547.3 467.6"/>
    <polygon class="st0" points="488 463 517.6 460.8 547.3 467.6 488 463"/>
    <polygon class="st0" points="547.3 467.6 517.6 460.8 547.9 458.7 547.3 467.6"/>
    <polygon class="st0" points="488.1 470.7 521.9 477.1 488.3 480.2 488.1 470.7"/>
    <polygon class="st0" points="88.8 433.1 89 425.6 95.6 428.9 88.8 433.1"/>
    <polygon class="st0" points="88.8 433.1 95.6 428.9 97.1 437.8 88.8 433.1"/>
    <polygon class="st0" points="97.1 437.8 95.6 428.9 110.7 432.2 97.1 437.8"/>
    <polygon class="st0" points="97.1 437.8 110.7 432.2 117.1 441.5 97.1 437.8"/>
    <polygon class="st0" points="117.1 441.5 110.7 432.2 136.5 435.3 117.1 441.5"/>
    <polygon class="st0" points="117.1 441.5 136.5 435.3 148.1 444.7 117.1 441.5"/>
    <polygon class="st0" points="148.1 444.7 136.5 435.3 160.6 437.4 148.1 444.7"/>
    <polygon class="st0" points="148.1 444.7 160.6 437.4 210.4 441.3 148.1 444.7"/>
    <polygon class="st0" points="148.1 444.7 210.4 441.3 225.2 450.6 148.1 444.7"/>
    <polygon class="st0" points="225.2 450.6 210.4 441.3 244.9 442.9 225.2 450.6"/>
    <polygon class="st0" points="225.2 450.6 244.9 442.9 250.2 443.1 225.2 450.6"/>
    <polygon class="st0" points="225.2 450.6 250.2 443.1 272 453 225.2 450.6"/>
    <polygon class="st0" points="250.2 443.1 292.8 445.1 272 453 250.2 443.1"/>
    <polygon class="st0" points="272 453 292.8 445.1 289.2 453.9 272 453"/>
    <polygon class="st0" points="289.2 453.9 292.8 445.1 347.5 454.8 289.2 453.9"/>
    <polygon class="st0" points="347.5 454.8 292.8 445.1 394.2 445.5 347.5 454.8"/>
    <polygon class="st0" points="347.5 454.8 394.2 445.5 425.8 455.7 347.5 454.8"/>
    <polygon class="st0" points="425.8 455.7 394.2 445.5 417.5 445 425.8 455.7"/>
    <polygon class="st0" points="425.8 455.7 417.5 445 488.1 441.6 425.8 455.7"/>
    <polygon class="st0" points="425.8 455.7 488.1 441.6 487.6 446.2 425.8 455.7"/>
    <polygon class="st0" points="425.8 455.7 487.6 446.2 487.8 451.4 425.8 455.7"/>
    <polygon class="st0" points="487.6 446.2 488.1 441.6 522.8 444.1 487.6 446.2"/>
    <polygon class="st0" points="522.8 444.1 488.1 441.6 545 437.2 522.8 444.1"/>
    <polygon class="st0" points="522.8 444.1 545 437.2 561.2 440.4 522.8 444.1"/>
    <polygon class="st0" points="561.2 440.4 545 437.2 570.4 433.8 561.2 440.4"/>
    <polygon class="st0" points="561.2 440.4 570.4 433.8 577.9 437.4 561.2 440.4"/>
    <polygon class="st0" points="556 426.8 599 427.8 589.5 431.3 556 426.8"/>
    <polygon class="st0" points="556 426.8 589.5 431.3 570.4 433.8 556 426.8"/>
    <polygon class="st0" points="570.4 433.8 556 426.8 545 437.2 570.4 433.8"/>
    <polygon class="st0" points="570.4 433.8 589.5 431.3 577.9 437.4 570.4 433.8"/>
    <polygon class="st0" points="577.9 437.4 589.5 431.3 585.5 436 577.9 437.4"/>
    <polygon class="st0" points="585.5 436 589.5 431.3 601.5 430.1 585.5 436"/>
    <polygon class="st0" points="601.5 430.1 589.5 431.3 599 427.8 601.5 430.1"/>
    <polygon class="st0" points="601.5 430.1 599 427.8 601.7 425.3 601.5 430.1"/>
    <polygon class="st0" points="541.7 454 585.2 447.7 573 455.6 541.7 454"/>
    <polygon class="st0" points="541.7 454 573 455.6 547.9 458.7 541.7 454"/>
    <polygon class="st0" points="573 455.6 585.2 447.7 583.7 454 573 455.6"/>
    <polygon class="st0" points="583.7 454 585.2 447.7 599.5 445.3 583.7 454"/>
    <polygon class="st0" points="583.7 454 599.5 445.3 626.9 445.6 583.7 454"/>
    <polygon class="st0" points="626.9 445.6 599.5 445.3 610.9 441.9 626.9 445.6"/>
    <polygon class="st0" points="626.9 445.6 610.9 441.9 619.5 436.6 626.9 445.6"/>
    <polygon class="st0" points="488 463 487.9 457.8 517.6 460.8 488 463"/>
    <polygon class="st0" points="547.9 458.7 517.6 460.8 541.7 454 547.9 458.7"/>
    <polygon class="st0" points="541.7 454 517.6 460.8 487.9 457.8 541.7 454"/>
    <polygon class="st0" points="602.2 468.5 547.3 467.6 547.2 475.3 602.2 468.5"/>
    <polygon class="st0" points="547.3 467.6 577.4 463.6 602.2 468.5 547.3 467.6"/>
    <polygon class="st0" points="602.2 468.5 577.4 463.6 590.7 461.5 602.2 468.5"/>
    <polygon class="st0" points="602.2 468.5 590.7 461.5 627.3 453.2 602.2 468.5"/>
    <polygon class="st0" points="547.3 467.6 583.7 454 577.4 463.6 547.3 467.6"/>
    <polygon class="st0" points="577.4 463.6 583.7 454 590.7 461.5 577.4 463.6"/>
    <polygon class="st0" points="590.7 461.5 583.7 454 626.9 445.6 590.7 461.5"/>
    <polygon class="st0" points="590.7 461.5 626.9 445.6 627.3 453.2 590.7 461.5"/>
    <polygon class="st0" points="627.3 453.2 626.9 445.6 636.5 446.9 627.3 453.2"/>
    <polygon class="st0" points="636.5 446.9 626.9 445.6 636 434.6 636.5 446.9"/>
    <polygon class="st0" points="636.5 446.9 636 434.6 649.2 440.6 636.5 446.9"/>
    <polygon class="st0" points="636.5 446.9 649.2 440.6 655.4 445.5 636.5 446.9"/>
    <polygon class="st0" points="112.7 424.2 207.1 421.9 130.7 429.3 112.7 424.2"/>
    <polygon class="st0" points="112.7 424.2 130.7 429.3 116.3 426.2 112.7 424.2"/>
    <polygon class="st0" points="130.7 429.3 207.1 421.9 157.1 432.1 130.7 429.3"/>
    <polygon class="st0" points="157.1 432.1 207.1 421.9 175.9 433.6 157.1 432.1"/>
    <polygon class="st0" points="112.7 424.2 115.2 421.4 131.4 418.3 112.7 424.2"/>
    <polygon class="st0" points="112.7 424.2 131.4 418.3 207.1 421.9 112.7 424.2"/>
    <polygon class="st0" points="207.1 421.9 131.4 418.3 182.1 414.3 207.1 421.9"/>
    <polygon class="st0" points="202.3 413.4 182.1 414.3 207.1 421.9 202.3 413.4"/>
    <polygon class="st0" points="546.8 421.7 556 426.8 563 420.8 546.8 421.7"/>
    <polygon class="st0" points="540 426.1 534.9 415.2 546.8 421.7 540 426.1"/>
    <polygon class="st0" points="540 426.1 546.8 421.7 556 426.8 540 426.1"/>
    <polygon class="st0" points="546.8 421.7 563 420.8 552.2 413.6 546.8 421.7"/>
    <polygon class="st0" points="540 426.1 534.9 415.2 530.6 425.6 540 426.1"/>
    <polygon class="st0" points="541.1 411.3 537.8 402.2 534.9 415.2 541.1 411.3"/>
    <polygon class="st0" points="541.1 411.3 537.8 402.2 545.3 409.2 541.1 411.3"/>
    <polygon class="st0" points="541.1 411.3 545.3 409.2 552.2 413.6 541.1 411.3"/>
    <polygon class="st0" points="527.2 407.2 534.9 415.2 537.8 402.2 527.2 407.2"/>
    <polygon class="st0" points="534.9 415.2 527.2 407.2 530.6 425.6 534.9 415.2"/>
    <polygon class="st0" points="512.4 408.1 518.2 417.9 527.2 407.2 512.4 408.1"/>
    <polygon class="st0" points="495.2 409.6 503.4 399.1 512.4 408.1 495.2 409.6"/>
    <polygon class="st0" points="495.2 409.6 512.4 408.1 518.2 417.9 495.2 409.6"/>
    <polygon class="st0" points="503.4 399.1 520.2 392.6 516.1 397.8 503.4 399.1"/>
    <polygon class="st0" points="516.1 397.8 520.2 392.6 529.5 393.2 516.1 397.8"/>
    <polygon class="st0" points="529.5 393.2 516.1 397.8 529.7 401.5 529.5 393.2"/>
    <polygon class="st0" points="503.4 399.1 520.2 392.6 494.5 390.2 503.4 399.1"/>
    <polygon class="st0" points="494.5 390.2 520.2 392.6 522.6 385.8 494.5 390.2"/>
    <polygon class="st0" points="471.7 372 501.5 371.9 481.5 378.1 471.7 372"/>
    <polygon class="st0" points="481.5 378.1 501.5 371.9 507.6 374 481.5 378.1"/>
    <polygon class="st0" points="481.5 378.1 507.6 374 495.5 381.9 481.5 378.1"/>
    <polygon class="st0" points="495.5 381.9 507.6 374 513.2 379 495.5 381.9"/>
    <polygon class="st0" points="494.5 390.2 495.5 381.9 517.1 382.1 494.5 390.2"/>
    <polygon class="st0" points="494.5 390.2 517.1 382.1 522.6 385.8 494.5 390.2"/>
    <polygon class="st0" points="495.5 381.9 517.1 382.1 513.2 379 495.5 381.9"/>
    <polygon class="st0" points="434.1 371.7 471.7 372 471.4 374.3 434.1 371.7"/>
    <polygon class="st0" points="434.1 371.7 471.4 374.3 467.6 384.7 434.1 371.7"/>
    <polygon class="st0" points="488.7 402.3 471.4 374.3 481.5 378.1 488.7 402.3"/>
    <polygon class="st0" points="488.7 402.3 481.5 378.1 490.6 395.4 488.7 402.3"/>
    <polygon class="st0" points="481.5 378.1 471.4 374.3 471.7 372 481.5 378.1"/>
    <polygon class="st0" points="369.1 368.2 371.4 363.9 395.4 370.7 369.1 368.2"/>
    <polygon class="st0" points="395.4 370.7 371.4 363.9 434.1 371.7 395.4 370.7"/>
    <polygon class="st0" points="434.1 371.7 395.4 370.7 421.3 383.6 434.1 371.7"/>
    <polygon class="st0" points="336.6 378 378.3 381 365.4 368.4 336.6 378"/>
    <polygon class="st0" points="378.3 381 336.6 378 351 404 378.3 381"/>
    <polygon class="st0" points="218.2 383 202.8 362.3 209 348.5 218.2 383"/>
    <polygon class="st0" points="209 348.5 202.8 362.3 182.5 335 209 348.5"/>
    <polygon class="st0" points="182.5 335 209 348.5 178.4 318.2 182.5 335"/>
    <polygon class="st0" points="224.7 409.1 257.4 411.7 235.8 397.2 224.7 409.1"/>
    <polygon class="st0" points="257.4 411.7 224.7 409.1 248.7 424.6 257.4 411.7"/>
    <polygon class="st0" points="202.6 371.6 218.2 383 202.8 362.3 202.6 371.6"/>
    <polygon class="st0" points="192.4 395.7 202.6 371.6 200.3 390.5 192.4 395.7"/>
    <polygon class="st0" points="218.2 383 200.3 390.5 202.6 371.6 218.2 383"/>
    <polygon class="st0" points="191.2 371.1 182.5 335 202.8 362.3 191.2 371.1"/>
    <polygon class="st0" points="191.2 371.1 202.8 362.3 202.6 371.6 191.2 371.1"/>
    <polygon class="st0" points="178.4 318.2 209 348.5 213.6 334.7 178.4 318.2"/>
    <polygon class="st0" points="178.4 318.2 266.7 340 213.6 334.7 178.4 318.2"/>
    <polygon class="st0" points="225.5 340.9 213.6 334.7 266.7 340 225.5 340.9"/>
    <polygon class="st0" points="225.5 340.9 266.7 340 260.2 352.4 225.5 340.9"/>
    <polygon class="st0" points="260.2 352.4 266.7 340 310.3 362.8 260.2 352.4"/>
    <polygon class="st0" points="310.3 362.8 266.7 340 280 313.9 310.3 362.8"/>
    <polygon class="st0" points="323.2 321.8 280 313.9 288.1 297.9 323.2 321.8"/>
    <polygon class="st0" points="323.2 321.8 288.1 297.9 294.6 283.4 323.2 321.8"/>
    <polygon class="st0" points="325.5 255.8 294.6 283.4 304.8 260.5 325.5 255.8"/>
    <polygon class="st0" points="365.4 368.4 342 346 310.3 362.8 365.4 368.4"/>
    <polygon class="st0" points="342 346 365.4 368.4 363.4 334.6 342 346"/>
    <polygon class="st0" points="322.4 280.7 339.6 280.9 358.4 294.8 322.4 280.7"/>
    <polygon class="st0" points="397.8 317.7 358.4 294.8 401.9 293.3 397.8 317.7"/>
    <polygon class="st0" points="418.4 305.4 401.9 293.3 423.3 279.2 418.4 305.4"/>
    <polygon class="st0" points="423.3 279.2 401.9 293.3 386.7 276.7 423.3 279.2"/>
    <polygon class="st0" points="423.3 279.2 386.7 276.7 396.3 228.1 423.3 279.2"/>
    <polygon class="st0" points="339.6 280.9 357.4 281.1 358.4 294.8 339.6 280.9"/>
    <polygon class="st0" points="358.4 294.8 357.4 281.1 386.7 276.7 358.4 294.8"/>
    <polygon class="st0" points="358.4 294.8 386.7 276.7 401.9 293.3 358.4 294.8"/>
    <polygon class="st0" points="365.4 368.4 379 340.9 371.4 363.9 365.4 368.4"/>
    <polygon class="st0" points="365.4 368.4 371.4 363.9 369.1 368.2 365.4 368.4"/>
    <polygon class="st0" points="434.9 302.4 419.5 307.4 418.4 305.4 434.9 302.4"/>
    <polygon class="st0" points="434.9 302.4 418.4 305.4 423.3 279.2 434.9 302.4"/>
    <polygon class="st0" points="379 340.9 397.8 317.7 388.4 334.8 379 340.9"/>
    <polygon class="st0" points="379 340.9 388.4 334.8 382 342.6 379 340.9"/>
    <polygon class="st0" points="379 340.9 382 342.6 371.4 363.9 379 340.9"/>
    <polygon class="st0" points="388.4 334.8 397.8 317.7 399.5 321.2 388.4 334.8"/>
    <polygon class="st0" points="399.5 321.2 397.8 317.7 419.5 307.4 399.5 321.2"/>
    <polygon class="st0" points="419.5 307.4 397.8 317.7 418.4 305.4 419.5 307.4"/>
    <polygon class="st0" points="358.4 294.8 322.4 280.7 320.8 295.1 358.4 294.8"/>
    <polygon class="st0" points="355 242.1 338.9 223 352.9 215.6 355 242.1"/>
    <polygon class="st0" points="355 242.1 352.9 215.6 367.5 217.9 355 242.1"/>
    <polygon class="st0" points="355 242.1 338.9 223 339.5 242.6 355 242.1"/>
    <polygon class="st0" points="333.9 178.6 338.7 202.9 338.6 176 333.9 178.6"/>
    <polygon class="st0" points="338.7 202.9 333.9 178.6 330.7 203 338.7 202.9"/>
    <polygon class="st0" points="338.4 149.5 350.8 133.7 362.1 158.2 338.4 149.5"/>
    <polygon class="st0" points="338.4 149.5 362.1 158.2 366.6 166.8 338.4 149.5"/>
    <polygon class="st0" points="342.9 109.7 343.6 84.6 342 84.9 342.9 109.7"/>
    <polygon class="st0" points="97.8 475.6 148.1 444.7 156.8 458.5 97.8 475.6"/>
    <polygon class="st0" points="97.8 475.6 156.8 458.5 173.7 487.1 97.8 475.6"/>
    <polygon class="st0" points="173.7 487.1 225.2 450.6 175.1 487.3 173.7 487.1"/>
    <polygon class="st0" points="175.1 487.3 225.2 450.6 259.5 494.6 175.1 487.3"/>
    <polygon class="st0" points="259.5 494.6 315.1 496.4 289.2 453.9 259.5 494.6"/>
    <polygon class="st0" points="315.1 496.4 393.9 496.8 347.5 454.8 315.1 496.4"/>
    <polygon class="st0" points="393.9 496.8 488.5 491.2 425.8 455.7 393.9 496.8"/>
    <polygon class="st0" points="619.5 436.6 619.6 431.5 627.3 430.8 619.5 436.6"/>
    <polygon class="st0" points="619.5 436.6 627.3 430.8 636 434.6 619.5 436.6"/>
    <polygon class="st0" points="627.3 430.8 619.6 431.5 618.8 428.3 627.3 430.8"/>
    <polygon class="st0" points="487.8 451.4 487.6 446.2 512.1 449.9 487.8 451.4"/>
    <polygon class="st0" points="537.4 448.7 512.1 449.9 522.8 444.1 537.4 448.7"/>
    <polygon class="st0" points="537.4 448.7 522.8 444.1 561.2 440.4 537.4 448.7"/>
    <polygon class="st0" points="537.4 448.7 561.2 440.4 580.3 443.4 537.4 448.7"/>
    <polygon class="st0" points="580.3 443.4 561.2 440.4 577.9 437.4 580.3 443.4"/>
    <polygon class="st0" points="580.3 443.4 577.9 437.4 585.5 436 580.3 443.4"/>
    <polygon class="st0" points="580.3 443.4 585.5 436 605.4 438.6 580.3 443.4"/>
    <polygon class="st0" points="605.4 438.6 585.5 436 601.5 430.1 605.4 438.6"/>
    <polygon class="st0" points="605.4 438.6 601.5 430.1 612.8 436.4 605.4 438.6"/>
    <polygon class="st0" points="612.8 436.4 601.5 430.1 615.6 426.5 612.8 436.4"/>
    <polygon class="st0" points="612.8 436.4 615.6 426.5 619.6 431.5 612.8 436.4"/>
    <polygon class="st0" points="619.6 431.5 615.6 426.5 618.8 428.3 619.6 431.5"/>
    <polygon class="st0" points="615.6 426.5 601.5 430.1 601.7 425.3 615.6 426.5"/>
    <polygon class="st0" points="615.6 426.5 601.7 425.3 599.9 422.6 615.6 426.5"/>
    <polygon class="st0" points="487.6 446.2 522.8 444.1 512.1 449.9 487.6 446.2"/>
    <polygon class="st0" points="552.2 413.6 575.2 416.3 563 420.8 552.2 413.6"/>
    <polygon class="st0" points="563 420.8 575.2 416.3 596.9 420.9 563 420.8"/>
    <polygon class="st0" points="563 420.8 596.9 420.9 599.9 422.6 563 420.8"/>
    <polygon class="st0" points="512.4 408.1 529.7 401.5 527.2 407.2 512.4 408.1"/>
    <polygon class="st0" points="527.2 407.2 529.7 401.5 537.8 402.2 527.2 407.2"/>
    <polygon class="st0" points="338 112.8 350.8 133.7 341.1 114.1 338 112.8"/>
    <polygon class="st0" points="341.2 110.8 338 112.8 341.1 114.1 341.2 110.8"/>
    <polygon class="st0" points="341.2 110.8 342.9 109.7 342 84.9 341.2 110.8"/>
    <polygon class="st0" points="342.9 109.7 341.2 110.8 341.1 114.1 342.9 109.7"/>
    <polygon class="st0" points="348.5 113 342.9 109.7 341.1 114.1 348.5 113"/>
    <polygon class="st0" points="350.8 133.7 348.5 113 341.1 114.1 350.8 133.7"/>
    <polygon class="st0" points="342 55 342 84.9 343.2 58.6 342 55"/>
    <polygon class="st0" points="343.1 55 342 55 343.2 58.6 343.1 55"/>
    <polygon class="st0" points="344.9 63.9 343.2 58.6 347.6 61.8 344.9 63.9"/>
    <polygon class="st0" points="347.6 61.8 343.2 58.6 343.1 55 347.6 61.8"/>
    <polygon class="st0" points="346.9 71.6 344.9 63.9 351 67.4 346.9 71.6"/>
    <polygon class="st0" points="351 67.4 344.9 63.9 347.6 61.8 351 67.4"/>
    <polygon class="st0" points="350 75.2 346.9 71.6 352.7 71.4 350 75.2"/>
    <polygon class="st0" points="352.7 71.4 346.9 71.6 351 67.4 352.7 71.4"/>
    <polygon class="st0" points="354 76.2 352.7 71.4 350 75.2 354 76.2"/>
    <polygon class="st0" points="350 75.2 346.9 71.6 351.8 79.9 350 75.2"/>
    <polygon class="st0" points="351.8 79.9 346.9 71.6 348 76.9 351.8 79.9"/>
    <polygon class="st0" points="349 85.8 348.6 83.4 353.4 83.3 349 85.8"/>
    <polygon class="st0" points="353.4 83.3 348.6 83.4 351.8 79.9 353.4 83.3"/>
    <polygon class="st0" points="348.6 83.4 351.8 79.9 348 76.9 348.6 83.4"/>
    <polygon class="st0" points="350.9 95.2 343.6 84.6 349 85.8 350.9 95.2"/>
    <polygon class="st0" points="350.9 95.2 349 85.8 356.3 88.4 350.9 95.2"/>
    <polygon class="st0" points="350.9 95.2 356.3 88.4 356.8 93.2 350.9 95.2"/>
    <polygon class="st0" points="350.9 95.2 356.8 93.2 352.8 97.1 350.9 95.2"/>
    <polygon class="st0" points="343.2 58.6 344.9 63.9 343.6 84.6 343.2 58.6"/>
    <polygon class="st0" points="343.6 84.6 344.9 63.9 346.9 71.6 343.6 84.6"/>
    <polygon class="st0" points="343.6 84.6 346.9 71.6 348 76.9 343.6 84.6"/>
    <polygon class="st0" points="343.6 84.6 348 76.9 348.6 83.4 343.6 84.6"/>
    <polygon class="st0" points="343.6 84.6 348.6 83.4 349 85.8 343.6 84.6"/>
    <polygon class="st0" points="349 85.8 353.4 83.3 356.3 88.4 349 85.8"/>
    <polygon class="st0" points="353.4 83.3 356.3 88.4 356.8 82.2 353.4 83.3"/>
    <polygon class="st0" points="356.8 82.2 356.3 88.4 357.9 86.3 356.8 82.2"/>
    <polygon class="st0" points="356.8 82.2 358.4 82.1 356.2 80.1 356.8 82.2"/>
    <polygon class="st0" points="358.4 82.1 356.8 82.2 357.9 86.3 358.4 82.1"/>
    <polygon class="st0" points="356.2 80.1 358.4 82.1 364.9 85.2 356.2 80.1"/>
    <polygon class="st0" points="352.8 97.1 356.8 93.2 359.4 93.5 352.8 97.1"/>
    <polygon class="st0" points="352.8 97.1 359.4 93.5 360.2 104.5 352.8 97.1"/>
    <polygon class="st0" points="364.9 85.2 359.4 93.5 357.9 86.3 364.9 85.2"/>
    <polygon class="st0" points="364.9 85.2 357.9 86.3 358.4 82.1 364.9 85.2"/>
    <polygon class="st0" points="356.3 88.4 357.9 86.3 359.4 93.5 356.3 88.4"/>
    <polygon class="st0" points="356.3 88.4 359.4 93.5 356.8 93.2 356.3 88.4"/>
    <polygon class="st0" points="343.6 84.6 343.2 58.6 342 84.9 343.6 84.6"/>
    <polygon class="st0" points="322.9 216.8 333.9 178.6 330.7 203 322.9 216.8"/>
    <polygon class="st0" points="322.9 216.8 330.7 203 330 216.2 322.9 216.8"/>
    <polygon class="st0" points="322.9 216.8 316.3 235 330 216.2 322.9 216.8"/>
    <polygon class="st0" points="304.8 260.5 316.3 235 325.7 243 304.8 260.5"/>
    <polygon class="st0" points="304.8 260.5 325.7 243 325.5 255.8 304.8 260.5"/>
    <polygon class="st0" points="192.4 395.7 189 377.5 202.6 371.6 192.4 395.7"/>
    <polygon class="st0" points="202.6 371.6 189 377.5 191.2 371.1 202.6 371.6"/>
    <polygon class="st0" points="121.2 416.8 149.9 414.2 131.4 418.3 121.2 416.8"/>
    <polygon class="st0" points="131.4 418.3 149.9 414.2 182.1 414.3 131.4 418.3"/>
    <polygon class="st0" points="105.8 418.9 121.2 416.8 115.2 421.4 105.8 418.9"/>
    <polygon class="st0" points="115.2 421.4 121.2 416.8 131.4 418.3 115.2 421.4"/>
    <polygon class="st0" points="89 425.6 92.3 422.3 112.7 424.2 89 425.6"/>
    <polygon class="st0" points="112.7 424.2 92.3 422.3 105.8 418.9 112.7 424.2"/>
    <polygon class="st0" points="112.7 424.2 105.8 418.9 115.2 421.4 112.7 424.2"/>
    <polygon class="st0" points="89 425.6 112.7 424.2 95.6 428.9 89 425.6"/>
    <polygon class="st0" points="95.6 428.9 112.7 424.2 110.7 432.2 95.6 428.9"/>
    <polygon class="st0" points="110.7 432.2 112.7 424.2 116.3 426.2 110.7 432.2"/>
    <polygon class="st0" points="110.7 432.2 116.3 426.2 130.7 429.3 110.7 432.2"/>
    <polygon class="st0" points="110.7 432.2 130.7 429.3 136.5 435.3 110.7 432.2"/>
    <polygon class="st0" points="136.5 435.3 130.7 429.3 157.1 432.1 136.5 435.3"/>
    <polygon class="st0" points="136.5 435.3 157.1 432.1 160.6 437.4 136.5 435.3"/>
    <polygon class="st0" points="175.9 433.6 157.1 432.1 160.6 437.4 175.9 433.6"/>
    <polygon class="st0" points="175.9 433.6 275.6 426.3 232 436.9 175.9 433.6"/>
    <polygon class="st0" points="232 436.9 275.6 426.3 282.3 439.2 232 436.9"/>
    <polygon class="st0" points="160.6 437.4 175.9 433.6 210.4 441.3 160.6 437.4"/>
    <polygon class="st0" points="210.4 441.3 175.9 433.6 232 436.9 210.4 441.3"/>
    <polygon class="st0" points="210.4 441.3 232 436.9 244.9 442.9 210.4 441.3"/>
    <polygon class="st0" points="292.8 445.1 250.2 443.1 282.3 439.2 292.8 445.1"/>
    <polygon class="st0" points="282.3 439.2 250.2 443.1 232 436.9 282.3 439.2"/>
    <polygon class="st0" points="232 436.9 250.2 443.1 244.9 442.9 232 436.9"/>
    <polygon class="st0" points="282.3 439.2 319.1 428 376.6 440.1 282.3 439.2"/>
    <polygon class="st0" points="376.6 440.1 319.1 428 362.5 429.4 376.6 440.1"/>
    <polygon class="st0" points="282.3 439.2 376.6 440.1 292.8 445.1 282.3 439.2"/>
    <polygon class="st0" points="292.8 445.1 376.6 440.1 394.2 445.5 292.8 445.1"/>
    <polygon class="st0" points="376.6 440.1 421.1 439.6 362.5 429.4 376.6 440.1"/>
    <polygon class="st0" points="376.6 440.1 421.1 439.6 394.2 445.5 376.6 440.1"/>
    <polygon class="st0" points="394.2 445.5 421.1 439.6 417.5 445 394.2 445.5"/>
    <polygon class="st0" points="421.1 439.6 488.1 436 469 425.9 421.1 439.6"/>
    <polygon class="st0" points="417.5 445 421.1 439.6 488.1 441.6 417.5 445"/>
    <polygon class="st0" points="488.1 441.6 421.1 439.6 488.1 436 488.1 441.6"/>
    <polygon class="st0" points="488.1 441.6 488.1 436 545 437.2 488.1 441.6"/>
    <polygon class="st0" points="545 437.2 488.1 436 556 426.8 545 437.2"/>
    <polygon class="st0" points="556 426.8 599.9 422.6 599 427.8 556 426.8"/>
    <polygon class="st0" points="599 427.8 599.9 422.6 601.7 425.3 599 427.8"/>
    <polygon class="st0" points="97.8 475.6 97.1 437.8 117.1 441.5 97.8 475.6"/>
    <polygon class="st0" points="97.8 475.6 117.1 441.5 148.1 444.7 97.8 475.6"/>
    <polygon class="st0" points="173.7 487.1 156.8 458.5 225.2 450.6 173.7 487.1"/>
    <polygon class="st0" points="225.2 450.6 156.8 458.5 148.1 444.7 225.2 450.6"/>
    <polygon class="st0" points="259.5 494.6 225.2 450.6 272 453 259.5 494.6"/>
    <polygon class="st0" points="259.5 494.6 272 453 289.2 453.9 259.5 494.6"/>
    <polygon class="st0" points="289.2 453.9 315.1 496.4 347.5 454.8 289.2 453.9"/>
    <polygon class="st0" points="347.5 454.8 393.9 496.8 425.8 455.7 347.5 454.8"/>
    <polygon class="st0" points="425.8 455.7 487.8 451.4 487.9 457.8 425.8 455.7"/>
    <polygon class="st0" points="425.8 455.7 487.9 457.8 488 463 425.8 455.7"/>
    <polygon class="st0" points="425.8 455.7 488 463 488.5 491.2 425.8 455.7"/>
    <polygon class="st0" points="487.9 457.8 487.8 451.4 512.1 449.9 487.9 457.8"/>
    <polygon class="st0" points="487.9 457.8 512.1 449.9 541.7 454 487.9 457.8"/>
    <polygon class="st0" points="541.7 454 512.1 449.9 537.4 448.7 541.7 454"/>
    <polygon class="st0" points="541.7 454 537.4 448.7 580.3 443.4 541.7 454"/>
    <polygon class="st0" points="541.7 454 580.3 443.4 585.2 447.7 541.7 454"/>
    <polygon class="st0" points="585.2 447.7 580.3 443.4 599.5 445.3 585.2 447.7"/>
    <polygon class="st0" points="599.5 445.3 580.3 443.4 605.4 438.6 599.5 445.3"/>
    <polygon class="st0" points="599.5 445.3 605.4 438.6 610.9 441.9 599.5 445.3"/>
    <polygon class="st0" points="610.9 441.9 605.4 438.6 612.8 436.4 610.9 441.9"/>
    <polygon class="st0" points="610.9 441.9 612.8 436.4 619.5 436.6 610.9 441.9"/>
    <polygon class="st0" points="619.5 436.6 612.8 436.4 619.6 431.5 619.5 436.6"/>
    <polygon class="st0" points="626.9 445.6 636 434.6 619.5 436.6 626.9 445.6"/>
    <polygon class="st0" points="547.3 467.6 488.1 470.7 547.2 475.3 547.3 467.6"/>
    <polygon class="st0" points="488.3 480.2 521.9 477.1 547.4 486.2 488.3 480.2"/>
    <polygon class="st0" points="547.4 486.2 521.9 477.1 547.2 475.3 547.4 486.2"/>
    <polygon class="st0" points="602.2 468.5 642.8 457.6 627.3 453.2 602.2 468.5"/>
    <polygon class="st0" points="469 425.9 483.5 423.5 488.1 436 469 425.9"/>
    <polygon class="st0" points="488.1 436 483.5 423.5 530.6 425.6 488.1 436"/>
    <polygon class="st0" points="488.1 436 530.6 425.6 540 426.1 488.1 436"/>
    <polygon class="st0" points="488.1 436 540 426.1 556 426.8 488.1 436"/>
    <polygon class="st0" points="362.5 429.4 427.1 427.8 421.1 439.6 362.5 429.4"/>
    <polygon class="st0" points="421.1 439.6 427.1 427.8 469 425.9 421.1 439.6"/>
    <polygon class="st0" points="319.1 428 362.5 429.4 351 404 319.1 428"/>
    <polygon class="st0" points="282.3 439.2 319.1 428 275.6 426.3 282.3 439.2"/>
    <polygon class="st0" points="275.6 426.3 319.1 428 302.5 394.5 275.6 426.3"/>
    <polygon class="st0" points="362.5 429.4 427.1 427.8 396.9 403 362.5 429.4"/>
    <polygon class="st0" points="427.1 427.8 469 425.9 436.4 404.2 427.1 427.8"/>
    <polygon class="st0" points="469 425.9 467.6 384.7 488.7 402.3 469 425.9"/>
    <polygon class="st0" points="469 425.9 488.7 402.3 483.5 423.5 469 425.9"/>
    <polygon class="st0" points="483.5 423.5 530.6 425.6 518.2 417.9 483.5 423.5"/>
    <polygon class="st0" points="556 426.8 599.9 422.6 563 420.8 556 426.8"/>
    <polygon class="st0" points="546.8 421.7 552.2 413.6 534.9 415.2 546.8 421.7"/>
    <polygon class="st0" points="530.6 425.6 527.2 407.2 518.2 417.9 530.6 425.6"/>
    <polygon class="st0" points="534.9 415.2 552.2 413.6 541.1 411.3 534.9 415.2"/>
    <polygon class="st0" points="495.2 409.6 503.4 399.1 494.5 390.2 495.2 409.6"/>
    <polygon class="st0" points="503.4 399.1 512.4 408.1 516.1 397.8 503.4 399.1"/>
    <polygon class="st0" points="516.1 397.8 512.4 408.1 529.7 401.5 516.1 397.8"/>
    <polygon class="st0" points="494.5 390.2 481.5 378.1 490.6 395.4 494.5 390.2"/>
    <polygon class="st0" points="481.5 378.1 494.5 390.2 495.5 381.9 481.5 378.1"/>
    <polygon class="st0" points="488.7 402.3 483.5 423.5 495.2 409.6 488.7 402.3"/>
    <polygon class="st0" points="495.2 409.6 488.7 402.3 490.6 395.4 495.2 409.6"/>
    <polygon class="st0" points="495.2 409.6 490.6 395.4 494.5 390.2 495.2 409.6"/>
    <polygon class="st0" points="467.6 384.7 421.3 383.6 436.4 404.2 467.6 384.7"/>
    <polygon class="st0" points="421.3 383.6 467.6 384.7 434.1 371.7 421.3 383.6"/>
    <polygon class="st0" points="467.6 384.7 436.4 404.2 469 425.9 467.6 384.7"/>
    <polygon class="st0" points="436.4 404.2 421.3 383.6 396.9 403 436.4 404.2"/>
    <polygon class="st0" points="421.3 383.6 378.3 381 396.9 403 421.3 383.6"/>
    <polygon class="st0" points="378.3 381 421.3 383.6 395.4 370.7 378.3 381"/>
    <polygon class="st0" points="365.4 368.4 369.1 368.2 378.3 381 365.4 368.4"/>
    <polygon class="st0" points="378.3 381 369.1 368.2 395.4 370.7 378.3 381"/>
    <polygon class="st0" points="336.6 378 365.4 368.4 310.3 362.8 336.6 378"/>
    <polygon class="st0" points="336.6 378 310.3 362.8 291.9 372.3 336.6 378"/>
    <polygon class="st0" points="291.9 372.3 310.3 362.8 260.2 352.4 291.9 372.3"/>
    <polygon class="st0" points="291.9 372.3 260.2 352.4 247.6 363.6 291.9 372.3"/>
    <polygon class="st0" points="247.6 363.6 260.2 352.4 225.5 340.9 247.6 363.6"/>
    <polygon class="st0" points="247.6 363.6 225.5 340.9 209 348.5 247.6 363.6"/>
    <polygon class="st0" points="209 348.5 225.5 340.9 213.6 334.7 209 348.5"/>
    <polygon class="st0" points="427.1 427.8 436.4 404.2 396.9 403 427.1 427.8"/>
    <polygon class="st0" points="396.9 403 378.3 381 351 404 396.9 403"/>
    <polygon class="st0" points="396.9 403 351 404 362.5 429.4 396.9 403"/>
    <polygon class="st0" points="351 404 336.6 378 302.5 394.5 351 404"/>
    <polygon class="st0" points="302.5 394.5 336.6 378 291.9 372.3 302.5 394.5"/>
    <polygon class="st0" points="351 404 302.5 394.5 319.1 428 351 404"/>
    <polygon class="st0" points="275.6 426.3 302.5 394.5 257.4 411.7 275.6 426.3"/>
    <polygon class="st0" points="257.4 411.7 302.5 394.5 291.9 372.3 257.4 411.7"/>
    <polygon class="st0" points="209 348.5 218.2 383 247.6 363.6 209 348.5"/>
    <polygon class="st0" points="291.9 372.3 247.6 363.6 257.4 411.7 291.9 372.3"/>
    <polygon class="st0" points="257.4 411.7 247.6 363.6 235.8 397.2 257.4 411.7"/>
    <polygon class="st0" points="235.8 397.2 247.6 363.6 218.2 383 235.8 397.2"/>
    <polygon class="st0" points="235.8 397.2 218.2 383 224.7 409.1 235.8 397.2"/>
    <polygon class="st0" points="224.7 409.1 218.2 383 200.3 390.5 224.7 409.1"/>
    <polygon class="st0" points="200.3 390.5 192.4 395.7 224.7 409.1 200.3 390.5"/>
    <polygon class="st0" points="310.3 362.8 280 313.9 322.8 336.1 310.3 362.8"/>
    <polygon class="st0" points="322.8 336.1 280 313.9 323.2 321.8 322.8 336.1"/>
    <polygon class="st0" points="322.8 336.1 323.2 321.8 340 335.5 322.8 336.1"/>
    <polygon class="st0" points="363.4 334.6 340 335.5 362.9 320.3 363.4 334.6"/>
    <polygon class="st0" points="322.8 336.1 310.3 362.8 342 346 322.8 336.1"/>
    <polygon class="st0" points="342 346 363.4 334.6 322.8 336.1 342 346"/>
    <polygon class="st0" points="363.4 334.6 365.4 368.4 379 340.9 363.4 334.6"/>
    <polygon class="st0" points="363.4 334.6 379 340.9 362.9 320.3 363.4 334.6"/>
    <polygon class="st0" points="379 340.9 362.9 320.3 397.8 317.7 379 340.9"/>
    <polygon class="st0" points="397.8 317.7 362.9 320.3 358.4 294.8 397.8 317.7"/>
    <polygon class="st0" points="397.8 317.7 418.4 305.4 401.9 293.3 397.8 317.7"/>
    <polygon class="st0" points="362.9 320.3 358.4 294.8 340.5 303.9 362.9 320.3"/>
    <polygon class="st0" points="362.9 320.3 340.5 303.9 340.4 321.2 362.9 320.3"/>
    <polygon class="st0" points="340.4 321.2 340.5 303.9 323.2 321.8 340.4 321.2"/>
    <polygon class="st0" points="323.2 321.8 340.4 321.2 340 335.5 323.2 321.8"/>
    <polygon class="st0" points="340 335.5 340.4 321.2 362.9 320.3 340 335.5"/>
    <polygon class="st0" points="323.2 321.8 294.6 283.4 320.8 295.1 323.2 321.8"/>
    <polygon class="st0" points="323.2 321.8 320.8 295.1 340.5 303.9 323.2 321.8"/>
    <polygon class="st0" points="320.8 295.1 340.5 303.9 358.4 294.8 320.8 295.1"/>
    <polygon class="st0" points="294.6 283.4 320.8 295.1 322.4 280.7 294.6 283.4"/>
    <polygon class="st0" points="294.6 283.4 325.5 255.8 322.4 280.7 294.6 283.4"/>
    <polygon class="st0" points="339.6 280.9 322.4 280.7 325.5 255.8 339.6 280.9"/>
    <polygon class="st0" points="325.5 255.8 339.6 280.9 339.5 263.8 325.5 255.8"/>
    <polygon class="st0" points="325.5 255.8 339.5 263.8 354.6 255.2 325.5 255.8"/>
    <polygon class="st0" points="339.5 263.8 339.6 280.9 357.4 281.1 339.5 263.8"/>
    <polygon class="st0" points="339.5 263.8 354.6 255.2 357.4 281.1 339.5 263.8"/>
    <polygon class="st0" points="357.4 281.1 354.6 255.2 386.7 276.7 357.4 281.1"/>
    <polygon class="st0" points="386.7 276.7 354.6 255.2 355 242.1 386.7 276.7"/>
    <polygon class="st0" points="325.5 255.8 325.7 243 339.5 242.6 325.5 255.8"/>
    <polygon class="st0" points="325.5 255.8 339.5 242.6 354.6 255.2 325.5 255.8"/>
    <polygon class="st0" points="354.6 255.2 339.5 242.6 355 242.1 354.6 255.2"/>
    <polygon class="st0" points="325.7 243 339.5 242.6 316.3 235 325.7 243"/>
    <polygon class="st0" points="355 242.1 386.7 276.7 396.3 228.1 355 242.1"/>
    <polygon class="st0" points="355 242.1 396.3 228.1 367.5 217.9 355 242.1"/>
    <polygon class="st0" points="352.7 202.9 366.6 166.8 368.5 170.3 352.7 202.9"/>
    <polygon class="st0" points="352.7 202.9 368.5 170.3 378.1 192.3 352.7 202.9"/>
    <polygon class="st0" points="396.3 228.1 378.1 192.3 367.5 217.9 396.3 228.1"/>
    <polygon class="st0" points="367.5 217.9 378.1 192.3 352.7 202.9 367.5 217.9"/>
    <polygon class="st0" points="367.5 217.9 352.7 202.9 352.9 215.6 367.5 217.9"/>
    <polygon class="st0" points="338.9 223 352.9 215.6 330 216.2 338.9 223"/>
    <polygon class="st0" points="316.3 235 330 216.2 338.9 223 316.3 235"/>
    <polygon class="st0" points="316.3 235 338.9 223 339.5 242.6 316.3 235"/>
    <polygon class="st0" points="330 216.2 352.9 215.6 330.7 203 330 216.2"/>
    <polygon class="st0" points="330.7 203 338.7 202.9 352.9 215.6 330.7 203"/>
    <polygon class="st0" points="352.9 215.6 338.7 202.9 352.7 202.9 352.9 215.6"/>
    <polygon class="st0" points="338.7 202.9 352.7 202.9 338.6 176 338.7 202.9"/>
    <polygon class="st0" points="338.6 176 352.7 202.9 366.6 166.8 338.6 176"/>
    <polygon class="st0" points="275.6 426.3 207.1 421.9 175.9 433.6 275.6 426.3"/>
    <polygon class="st0" points="483.5 423.5 518.2 417.9 495.2 409.6 483.5 423.5"/>
    <polygon class="st0" points="488.7 402.3 471.4 374.3 467.6 384.7 488.7 402.3"/>
    <polygon class="st0" points="356.8 82.2 356.2 80.1 353.4 83.3 356.8 82.2"/>
    <polygon class="st0" points="350 75.2 351.8 79.9 355.1 78.2 350 75.2"/>
  </g>
</svg>