<?xml version="1.0" encoding="UTF-8"?>
<svg xmlns="http://www.w3.org/2000/svg" version="1.1" xmlns:xlink="http://www.w3.org/1999/xlink" viewBox="0 0 738 539">
  <!-- Generator: Adobe Illustrator 30.0.0, SVG Export Plug-In . SVG Version: 2.1.1 Build 123)  -->
  <defs>
    <style>
      .st0 {
        fill: none;
        stroke: #000;
        stroke-miterlimit: 10;
      }
    </style>
  </defs>
  <g id="Layer_2">
    <image width="2949" height="2156" transform="translate(.4 .5) scale(.2)" xlink:href="Sao La.png"/>
  </g>
  <g id="Layer_1">
    <polygon class="st0" points="627.6 304.1 639.7 308.5 639.9 290.4 627.6 304.1"/>
    <polygon class="st0" points="639.7 308.5 639.6 318.2 632.8 316.4 639.7 308.5"/>
    <polygon class="st0" points="639.7 308.5 632.8 316.4 628 313.4 639.7 308.5"/>
    <polygon class="st0" points="639.7 308.5 628 313.4 627.6 304.1 639.7 308.5"/>
    <polygon class="st0" points="629.5 316.8 628 313.4 632.8 316.4 629.5 316.8"/>
    <polygon class="st0" points="627.6 304.1 639.9 290.4 627.1 290.5 627.6 304.1"/>
    <polygon class="st0" points="640.1 282.2 639.9 290.4 633 283.1 640.1 282.2"/>
    <polygon class="st0" points="626.2 283 633 283.1 627.1 290.5 626.2 283"/>
    <polygon class="st0" points="627.1 290.5 633 283.1 639.9 290.4 627.1 290.5"/>
    <polygon class="st0" points="612.2 231 626.4 220.3 624.4 216.9 612.2 231"/>
    <polygon class="st0" points="634.2 222.3 629.4 224.8 626.4 220.3 634.2 222.3"/>
    <polygon class="st0" points="626.4 220.3 629.4 224.8 612.2 231 626.4 220.3"/>
    <polygon class="st0" points="612.2 231 624.4 216.9 612.1 218.4 612.2 231"/>
    <polygon class="st0" points="612.3 312.6 610.9 321.7 607.1 310.5 612.3 312.6"/>
    <polygon class="st0" points="607.1 310.5 610.9 321.7 599.2 316.9 607.1 310.5"/>
    <polygon class="st0" points="607.1 310.5 599.2 316.9 596.6 311.5 607.1 310.5"/>
    <polygon class="st0" points="624.4 317.5 624.6 323 610.9 321.7 624.4 317.5"/>
    <polygon class="st0" points="624.4 317.5 610.9 321.7 612.3 312.6 624.4 317.5"/>
    <polygon class="st0" points="606.3 302.4 592.2 303.3 581.1 290.7 606.3 302.4"/>
    <polygon class="st0" points="581.1 290.7 592.2 303.3 561.5 302.8 581.1 290.7"/>
    <polygon class="st0" points="603 288.4 612.2 304.1 606.3 302.4 603 288.4"/>
    <polygon class="st0" points="603 288.4 606.3 302.4 581.1 290.7 603 288.4"/>
    <polygon class="st0" points="607.1 310.5 596.6 311.5 592.2 303.3 607.1 310.5"/>
    <polygon class="st0" points="592.2 303.3 596.6 311.5 573.5 309.2 592.2 303.3"/>
    <polygon class="st0" points="592.2 303.3 573.5 309.2 561.5 302.8 592.2 303.3"/>
    <polygon class="st0" points="561.5 302.8 573.5 309.2 562.4 305.9 561.5 302.8"/>
    <polygon class="st0" points="516.8 302.4 518.5 279.6 495.5 290.6 516.8 302.4"/>
    <polygon class="st0" points="518.5 279.6 516.8 302.4 525.7 294.8 518.5 279.6"/>
    <polygon class="st0" points="515.3 303.4 513.1 319.3 497.8 313.4 515.3 303.4"/>
    <polygon class="st0" points="494.9 314.2 497.8 313.4 490.7 319.9 494.9 314.2"/>
    <polygon class="st0" points="494.9 314.2 490.7 319.9 491.6 316.1 494.9 314.2"/>
    <polygon class="st0" points="491.6 316.1 490.7 319.9 487.4 319.9 491.6 316.1"/>
    <polygon class="st0" points="507.3 323.4 490.7 319.9 497.8 313.4 507.3 323.4"/>
    <polygon class="st0" points="507.3 323.4 497.8 313.4 513.1 319.3 507.3 323.4"/>
    <polygon class="st0" points="507.3 323.4 513.1 319.3 512.9 321 507.3 323.4"/>
    <polygon class="st0" points="516.8 302.4 515.3 303.4 495.5 290.6 516.8 302.4"/>
    <polygon class="st0" points="495.5 290.6 515.3 303.4 497.8 313.4 495.5 290.6"/>
    <polygon class="st0" points="495.5 290.6 497.8 313.4 489.9 295.7 495.5 290.6"/>
    <polygon class="st0" points="489.9 295.7 497.8 313.4 494.9 314.2 489.9 295.7"/>
    <polygon class="st0" points="489.9 295.7 494.9 314.2 487.9 316.6 489.9 295.7"/>
    <polygon class="st0" points="487.4 319.9 487.9 316.6 491.6 316.1 487.4 319.9"/>
    <polygon class="st0" points="494.9 314.2 491.6 316.1 487.9 316.6 494.9 314.2"/>
    <polygon class="st0" points="517.2 261.1 537.1 255.6 525.9 246 517.2 261.1"/>
    <polygon class="st0" points="513.9 221 513.9 224.5 503.5 221.5 513.9 221"/>
    <polygon class="st0" points="513.9 221 503.5 221.5 501.1 212.1 513.9 221"/>
    <polygon class="st0" points="501.1 212.1 503.5 221.5 488.1 220.8 501.1 212.1"/>
    <polygon class="st0" points="503.3 224.8 503.5 221.5 513.9 224.5 503.3 224.8"/>
    <polygon class="st0" points="550.3 228.4 552.1 231.9 548.3 232.4 550.3 228.4"/>
    <polygon class="st0" points="550.3 228.4 548.3 232.4 535.3 229.1 550.3 228.4"/>
    <polygon class="st0" points="550.3 228.4 535.3 229.1 534.4 222.6 550.3 228.4"/>
    <polygon class="st0" points="534.4 222.6 535.3 229.1 523 228 534.4 222.6"/>
    <polygon class="st0" points="534.4 222.6 523 228 513.9 221 534.4 222.6"/>
    <polygon class="st0" points="513.9 221 523 228 513.9 224.5 513.9 221"/>
    <polygon class="st0" points="488.1 220.8 501.1 212.1 482.9 204.4 488.1 220.8"/>
    <polygon class="st0" points="475.9 307.9 489.9 295.7 488.8 283.7 475.9 307.9"/>
    <polygon class="st0" points="489.9 295.7 475.9 307.9 487.9 316.6 489.9 295.7"/>
    <polygon class="st0" points="471.3 288.3 461.6 285 469 304.1 471.3 288.3"/>
    <polygon class="st0" points="433.1 222.5 462.3 220.9 442.8 204.3 433.1 222.5"/>
    <polygon class="st0" points="462.3 220.9 433.1 222.5 442.8 239.7 462.3 220.9"/>
    <polygon class="st0" points="487.9 316.6 487.4 319.9 461.6 320.4 487.9 316.6"/>
    <polygon class="st0" points="461.6 320.4 487.4 319.9 466.8 331.2 461.6 320.4"/>
    <polygon class="st0" points="461.6 320.4 466.8 331.2 464 331.9 461.6 320.4"/>
    <polygon class="st0" points="461.6 320.4 464 331.9 442.9 336.9 461.6 320.4"/>
    <polygon class="st0" points="483.3 335.9 453.8 349.3 466.8 331.2 483.3 335.9"/>
    <polygon class="st0" points="466.8 331.2 453.8 349.3 464 331.9 466.8 331.2"/>
    <polygon class="st0" points="425.8 204.5 414.5 191.1 406.9 196.3 425.8 204.5"/>
    <polygon class="st0" points="414.5 191.1 425.8 204.5 442.8 204.3 414.5 191.1"/>
    <polygon class="st0" points="442.2 335.2 442.9 336.9 426.1 335.2 442.2 335.2"/>
    <polygon class="st0" points="426.1 335.2 442.9 336.9 416 347.5 426.1 335.2"/>
    <polygon class="st0" points="426.1 335.2 416 347.5 406.7 344.7 426.1 335.2"/>
    <polygon class="st0" points="406.7 344.7 416 347.5 414 349.8 406.7 344.7"/>
    <polygon class="st0" points="406.7 344.7 414 349.8 385.4 358.6 406.7 344.7"/>
    <polygon class="st0" points="452 265.8 452 270.1 397.9 270.5 452 265.8"/>
    <polygon class="st0" points="452 265.8 397.9 270.5 398.8 242.4 452 265.8"/>
    <polygon class="st0" points="452 270.1 452.1 273.8 397.9 270.5 452 270.1"/>
    <polygon class="st0" points="397.9 270.5 452.1 273.8 452.2 275.4 397.9 270.5"/>
    <polygon class="st0" points="397.9 270.5 452.2 275.4 398.8 297.6 397.9 270.5"/>
    <polygon class="st0" points="400.5 226.9 433.1 222.5 425.8 204.5 400.5 226.9"/>
    <polygon class="st0" points="433.1 222.5 442.8 239.7 400.5 226.9 433.1 222.5"/>
    <polygon class="st0" points="400.5 226.9 442.8 239.7 452.7 261.4 400.5 226.9"/>
    <polygon class="st0" points="452.7 261.4 442.8 239.7 443.8 240.7 452.7 261.4"/>
    <polygon class="st0" points="452.7 261.4 443.8 240.7 453.2 260.1 452.7 261.4"/>
    <polygon class="st0" points="410.2 211.3 400.5 226.9 425.8 204.5 410.2 211.3"/>
    <polygon class="st0" points="400.5 226.9 410.2 211.3 395.5 201.5 400.5 226.9"/>
    <polygon class="st0" points="453.1 279 442.5 301.6 401 314.1 453.1 279"/>
    <polygon class="st0" points="401 314.1 442.5 301.6 433.6 318.2 401 314.1"/>
    <polygon class="st0" points="433.6 318.2 401 314.1 426.1 335.2 433.6 318.2"/>
    <polygon class="st0" points="386.1 344.7 401 314.1 382.2 329.9 386.1 344.7"/>
    <polygon class="st0" points="401 314.1 386.1 344.7 394 344 401 314.1"/>
    <polygon class="st0" points="382.2 329.9 401 314.1 379.8 325.3 382.2 329.9"/>
    <polygon class="st0" points="358.5 204.7 328.9 216.3 324.4 202.6 358.5 204.7"/>
    <polygon class="st0" points="324.4 202.6 328.9 216.3 313.7 213.3 324.4 202.6"/>
    <polygon class="st0" points="324.4 202.6 313.7 213.3 294.8 204.7 324.4 202.6"/>
    <polygon class="st0" points="294.8 204.7 313.7 213.3 293.6 214.6 294.8 204.7"/>
    <polygon class="st0" points="294.8 204.7 293.6 214.6 272.8 215.1 294.8 204.7"/>
    <polygon class="st0" points="358.5 204.7 373.8 235.2 328.9 216.3 358.5 204.7"/>
    <polygon class="st0" points="328.9 216.3 373.8 235.2 320.6 226.5 328.9 216.3"/>
    <polygon class="st0" points="373.8 235.2 320.6 226.5 347.4 247.4 373.8 235.2"/>
    <polygon class="st0" points="272.8 215.1 294.8 204.7 297.5 193.8 272.8 215.1"/>
    <polygon class="st0" points="274.6 347 296.7 346.4 273.5 325.6 274.6 347"/>
    <polygon class="st0" points="296.7 346.4 274.6 347 306.3 359.1 296.7 346.4"/>
    <polygon class="st0" points="290.3 317.7 297 331.8 294.9 333.9 290.3 317.7"/>
    <polygon class="st0" points="290.3 317.7 294.9 333.9 285.1 318.1 290.3 317.7"/>
    <polygon class="st0" points="290.3 317.7 285.1 318.1 287.3 316.8 290.3 317.7"/>
    <polygon class="st0" points="290.3 317.7 297 331.8 324.5 323.1 290.3 317.7"/>
    <polygon class="st0" points="303.3 254.3 291.4 258.7 296.1 259 303.3 254.3"/>
    <polygon class="st0" points="314.8 250 303.3 254.3 309.1 245.5 314.8 250"/>
    <polygon class="st0" points="309.1 245.5 303.3 254.3 307.8 245.5 309.1 245.5"/>
    <polygon class="st0" points="307.8 245.5 303.3 254.3 293.6 247.5 307.8 245.5"/>
    <polygon class="st0" points="293.6 247.5 303.3 254.3 291.4 258.7 293.6 247.5"/>
    <polygon class="st0" points="293.6 247.5 291.4 258.7 271.8 258.3 293.6 247.5"/>
    <polygon class="st0" points="296.1 259 298.7 262.3 291.4 258.7 296.1 259"/>
    <polygon class="st0" points="291.4 258.7 298.7 262.3 293.9 270.3 291.4 258.7"/>
    <polygon class="st0" points="293.9 270.3 298.7 262.3 300.7 265.4 293.9 270.3"/>
    <polygon class="st0" points="293.9 270.3 300.7 265.4 301.3 270.2 293.9 270.3"/>
    <polygon class="st0" points="291.4 258.7 293.9 270.3 277.1 264.7 291.4 258.7"/>
    <polygon class="st0" points="253.3 270.2 277.1 264.7 293.9 270.3 253.3 270.2"/>
    <polygon class="st0" points="293.9 270.3 290.5 282.3 277.5 277.1 293.9 270.3"/>
    <polygon class="st0" points="293.9 270.3 277.5 277.1 253.3 270.2 293.9 270.3"/>
    <polygon class="st0" points="287.3 316.8 285.1 318.1 257.8 317.1 287.3 316.8"/>
    <polygon class="st0" points="257.8 317.1 285.1 318.1 273.5 325.6 257.8 317.1"/>
    <polygon class="st0" points="273.5 325.6 257.8 317.1 274.6 347 273.5 325.6"/>
    <polygon class="st0" points="306.3 181 297.5 193.8 273.9 194.5 306.3 181"/>
    <polygon class="st0" points="273.9 194.5 297.5 193.8 272.8 215.1 273.9 194.5"/>
    <polygon class="st0" points="254.7 231.2 251 251.5 247.7 238.2 254.7 231.2"/>
    <polygon class="st0" points="247.7 238.2 251 251.5 246.3 243.6 247.7 238.2"/>
    <polygon class="st0" points="254.7 231.2 251 251.5 280 236 254.7 231.2"/>
    <polygon class="st0" points="235.5 270.2 251 251.5 235.7 248.6 235.5 270.2"/>
    <polygon class="st0" points="251 251.5 235.5 270.2 253.3 270.2 251 251.5"/>
    <polygon class="st0" points="235.7 248.6 235.5 270.2 224.1 270.2 235.7 248.6"/>
    <polygon class="st0" points="235.7 248.6 224.1 270.2 228.7 243.5 235.7 248.6"/>
    <polygon class="st0" points="223.5 236.7 228.7 243.5 224.1 270.2 223.5 236.7"/>
    <polygon class="st0" points="250.8 289.3 245.8 297.1 235.4 292.3 250.8 289.3"/>
    <polygon class="st0" points="235.4 292.3 245.8 297.1 240.5 302.3 235.4 292.3"/>
    <polygon class="st0" points="235.4 292.3 240.5 302.3 238.7 305 235.4 292.3"/>
    <polygon class="st0" points="235.4 292.3 238.7 305 223.5 303.7 235.4 292.3"/>
    <polygon class="st0" points="223.5 303.7 238.7 305 241.9 313.5 223.5 303.7"/>
    <polygon class="st0" points="235.5 270.2 235.4 292.3 224.1 270.2 235.5 270.2"/>
    <polygon class="st0" points="224.1 270.2 235.4 292.3 223.5 303.7 224.1 270.2"/>
    <polygon class="st0" points="236.8 222 238.1 224.3 233.8 227.4 236.8 222"/>
    <polygon class="st0" points="236.8 222 233.8 227.4 232.9 221.7 236.8 222"/>
    <polygon class="st0" points="232.9 221.7 233.8 227.4 221 224.5 232.9 221.7"/>
    <polygon class="st0" points="221 224.5 233.8 227.4 223.5 236.7 221 224.5"/>
    <polygon class="st0" points="221 224.5 223.5 236.7 207.8 232.6 221 224.5"/>
    <polygon class="st0" points="233.8 227.4 236.1 233.7 223.5 236.7 233.8 227.4"/>
    <polygon class="st0" points="223.5 236.7 236.1 233.7 228.7 243.5 223.5 236.7"/>
    <polygon class="st0" points="228.7 243.5 236.1 233.7 235.7 248.6 228.7 243.5"/>
    <polygon class="st0" points="235.6 180.1 233.4 195.8 220.3 185.3 235.6 180.1"/>
    <polygon class="st0" points="235.6 180.1 220.3 185.3 214 164.9 235.6 180.1"/>
    <polygon class="st0" points="235.6 180.1 233.4 195.8 243.1 200.5 235.6 180.1"/>
    <polygon class="st0" points="243.1 200.5 236.8 222 232.9 221.7 243.1 200.5"/>
    <polygon class="st0" points="243.1 200.5 232.9 221.7 233.4 195.8 243.1 200.5"/>
    <polygon class="st0" points="233.4 195.8 232.9 221.7 223.2 212.9 233.4 195.8"/>
    <polygon class="st0" points="233.4 195.8 223.2 212.9 221.8 201.2 233.4 195.8"/>
    <polygon class="st0" points="233.4 195.8 221.8 201.2 220.3 185.3 233.4 195.8"/>
    <polygon class="st0" points="214 164.9 220.3 185.3 198.5 181.2 214 164.9"/>
    <polygon class="st0" points="198.5 181.2 220.3 185.3 221.8 201.2 198.5 181.2"/>
    <polygon class="st0" points="193.7 207.4 214 214.8 208.5 206.8 193.7 207.4"/>
    <polygon class="st0" points="214 214.8 193.7 207.4 221 224.5 214 214.8"/>
    <polygon class="st0" points="241.9 313.5 238 316.3 223.5 303.7 241.9 313.5"/>
    <polygon class="st0" points="223.5 303.7 238 316.3 232.9 318.7 223.5 303.7"/>
    <polygon class="st0" points="223.5 303.7 232.9 318.7 221.1 316.1 223.5 303.7"/>
    <polygon class="st0" points="223.5 303.7 221.1 316.1 207.8 307.2 223.5 303.7"/>
    <polygon class="st0" points="232.9 318.7 238 316.3 236.8 318.4 232.9 318.7"/>
    <polygon class="st0" points="228.8 340.9 235.6 360.3 243.1 339.9 228.8 340.9"/>
    <polygon class="st0" points="228.8 340.9 235.6 360.3 224 345.2 228.8 340.9"/>
    <polygon class="st0" points="224 345.2 235.6 360.3 215.8 375.9 224 345.2"/>
    <polygon class="st0" points="232.9 318.7 228.8 340.9 223.4 327.8 232.9 318.7"/>
    <polygon class="st0" points="223.4 327.8 228.8 340.9 221.8 339.2 223.4 327.8"/>
    <polygon class="st0" points="236.8 318.4 243.1 339.9 232.9 318.7 236.8 318.4"/>
    <polygon class="st0" points="232.9 318.7 243.1 339.9 228.8 340.9 232.9 318.7"/>
    <polygon class="st0" points="221.8 339.2 223.4 327.8 207.5 336.1 221.8 339.2"/>
    <polygon class="st0" points="193.7 333 214.8 324.9 221.1 316.1 193.7 333"/>
    <polygon class="st0" points="214.8 324.9 193.7 333 207.5 336.1 214.8 324.9"/>
    <polygon class="st0" points="223.5 303.7 224.1 270.2 207.8 307.2 223.5 303.7"/>
    <polygon class="st0" points="116.9 73.1 126.6 79.6 129.8 68.3 116.9 73.1"/>
    <polygon class="st0" points="126.6 79.6 132.5 88.8 115.3 81.4 126.6 79.6"/>
    <polygon class="st0" points="126.6 79.6 115.3 81.4 116.9 73.1 126.6 79.6"/>
    <polygon class="st0" points="193.3 250.9 193.7 260.6 179.1 243.2 193.3 250.9"/>
    <polygon class="st0" points="179.1 243.2 193.7 260.6 162.5 243.7 179.1 243.2"/>
    <polygon class="st0" points="162.5 243.7 179.1 243.2 149.1 218.7 162.5 243.7"/>
    <polygon class="st0" points="171.6 125.6 187 145.4 194.1 123.3 171.6 125.6"/>
    <polygon class="st0" points="171.6 125.6 187 145.4 162.9 138.6 171.6 125.6"/>
    <polygon class="st0" points="162.9 138.6 187 145.4 171.7 188.2 162.9 138.6"/>
    <polygon class="st0" points="182 97 178.7 111.2 194.1 123.3 182 97"/>
    <polygon class="st0" points="182 97 178.7 111.2 171 108.4 182 97"/>
    <polygon class="st0" points="182 97 171 108.4 166.3 105.5 182 97"/>
    <polygon class="st0" points="166.3 105.5 182 97 156 99.1 166.3 105.5"/>
    <polygon class="st0" points="145 86.4 149 91.1 145.9 98.6 145 86.4"/>
    <polygon class="st0" points="148.4 103.7 145.9 98.6 149 91.1 148.4 103.7"/>
    <polygon class="st0" points="149 91.1 156 99.1 148.4 103.7 149 91.1"/>
    <polygon class="st0" points="148.4 103.7 156 99.1 163.1 114.7 148.4 103.7"/>
    <polygon class="st0" points="143 84.1 145 86.4 132.5 88.8 143 84.1"/>
    <polygon class="st0" points="132.5 88.8 145 86.4 145.9 98.6 132.5 88.8"/>
    <polygon class="st0" points="144.7 193.4 138.9 172.8 134.2 203.7 144.7 193.4"/>
    <polygon class="st0" points="138.9 172.8 144.7 193.4 150 159.3 138.9 172.8"/>
    <polygon class="st0" points="132.5 451.6 126.6 460.8 115.3 459 132.5 451.6"/>
    <polygon class="st0" points="115.3 459 126.6 460.8 116.9 467.3 115.3 459"/>
    <polygon class="st0" points="126.6 460.8 116.9 467.3 129.7 472.1 126.6 460.8"/>
    <polygon class="st0" points="171.7 352.2 187 395 162.9 401.8 171.7 352.2"/>
    <polygon class="st0" points="162.9 401.8 187 395 171.6 414.8 162.9 401.8"/>
    <polygon class="st0" points="187 395 171.6 414.8 194.1 417.1 187 395"/>
    <polygon class="st0" points="178.7 429.2 182 443.4 171 432 178.7 429.2"/>
    <polygon class="st0" points="171 432 182 443.4 156 441.3 171 432"/>
    <polygon class="st0" points="178.7 429.2 182 443.4 194.1 417.1 178.7 429.2"/>
    <polygon class="st0" points="163.1 425.7 156 441.3 148.4 436.7 163.1 425.7"/>
    <polygon class="st0" points="148.4 436.7 156 441.3 149 449.3 148.4 436.7"/>
    <polygon class="st0" points="148.4 436.7 149 449.3 145.9 441.8 148.4 436.7"/>
    <polygon class="st0" points="145.9 441.8 149 449.3 145 454 145.9 441.8"/>
    <polygon class="st0" points="145.9 441.8 145 454 132.5 451.6 145.9 441.8"/>
    <polygon class="st0" points="132.5 451.6 145 454 143 456.3 132.5 451.6"/>
    <polygon class="st0" points="144.7 347 138.9 367.6 150 381.1 144.7 347"/>
    <polygon class="st0" points="138.9 367.6 144.7 347 134.2 336.7 138.9 367.6"/>
    <polygon class="st0" points="193.8 279.5 194.4 290.2 179.1 297.2 193.8 279.5"/>
    <polygon class="st0" points="193.8 279.5 179.1 297.2 162.5 296.7 193.8 279.5"/>
    <polygon class="st0" points="179.1 297.2 162.5 296.7 149.1 321.7 179.1 297.2"/>
    <polygon class="st0" points="639.6 318.2 639.6 319.9 632.8 316.4 639.6 318.2"/>
    <polygon class="st0" points="632.8 316.4 639.6 319.9 629.5 316.8 632.8 316.4"/>
    <polygon class="st0" points="639.8 220.8 639.9 230.5 634.2 222.3 639.8 220.8"/>
    <polygon class="st0" points="634.2 222.3 639.9 230.5 629.4 224.8 634.2 222.3"/>
    <polygon class="st0" points="629.4 224.8 639.9 230.5 628 236.8 629.4 224.8"/>
    <polygon class="st0" points="629.4 224.8 628 236.8 612.2 231 629.4 224.8"/>
    <polygon class="st0" points="612.2 231 628 236.8 612.3 236.6 612.2 231"/>
    <polygon class="st0" points="612.2 231 612.3 236.6 604.5 237.7 612.2 231"/>
    <polygon class="st0" points="612.2 231 604.5 237.7 597.6 229.1 612.2 231"/>
    <polygon class="st0" points="628 236.8 612.3 236.6 619.9 247.1 628 236.8"/>
    <polygon class="st0" points="628 236.8 640.2 251.1 627 251 628 236.8"/>
    <polygon class="st0" points="628 236.8 627 251 619.9 247.1 628 236.8"/>
    <polygon class="st0" points="619.9 247.1 627 251 626 257.4 619.9 247.1"/>
    <polygon class="st0" points="619.9 247.1 626 257.4 616.8 257.9 619.9 247.1"/>
    <polygon class="st0" points="619.9 247.1 616.8 257.9 607.2 252.9 619.9 247.1"/>
    <polygon class="st0" points="605 248.3 607.2 252.9 598.6 255.2 605 248.3"/>
    <polygon class="st0" points="605 248.3 598.6 255.2 591.1 244.9 605 248.3"/>
    <polygon class="st0" points="591.1 244.9 598.6 255.2 581.7 250 591.1 244.9"/>
    <polygon class="st0" points="588.8 237.1 591.1 244.9 581.7 250 588.8 237.1"/>
    <polygon class="st0" points="588.8 237.1 581.7 250 561.6 237.3 588.8 237.1"/>
    <polygon class="st0" points="591.1 244.9 604.5 237.7 588.8 237.1 591.1 244.9"/>
    <polygon class="st0" points="612.3 236.6 605 248.3 604.5 237.7 612.3 236.6"/>
    <polygon class="st0" points="604.5 237.7 605 248.3 591.1 244.9 604.5 237.7"/>
    <polygon class="st0" points="612.3 236.6 619.9 247.1 605 248.3 612.3 236.6"/>
    <polygon class="st0" points="605 248.3 619.9 247.1 607.2 252.9 605 248.3"/>
    <polygon class="st0" points="588.8 237.1 604.5 237.7 597.6 229.1 588.8 237.1"/>
    <polygon class="st0" points="588.8 237.1 561.6 237.3 564.5 234.6 588.8 237.1"/>
    <polygon class="st0" points="588.8 237.1 564.5 234.6 574.8 231 588.8 237.1"/>
    <polygon class="st0" points="581.7 250 561.6 237.3 566.7 251.9 581.7 250"/>
    <polygon class="st0" points="592.1 226.6 574.8 231 588.7 224.7 592.1 226.6"/>
    <polygon class="st0" points="588.7 224.7 574.8 231 562.5 229.2 588.7 224.7"/>
    <polygon class="st0" points="523 228 535.3 229.1 540 237.5 523 228"/>
    <polygon class="st0" points="540 237.5 535.3 229.1 548.3 232.4 540 237.5"/>
    <polygon class="st0" points="540 237.5 548.3 232.4 561.6 237.3 540 237.5"/>
    <polygon class="st0" points="561.6 237.3 548.3 232.4 552.1 231.9 561.6 237.3"/>
    <polygon class="st0" points="561.6 237.3 552.1 231.9 562.5 229.2 561.6 237.3"/>
    <polygon class="st0" points="561.6 237.3 562.5 229.2 564.5 234.6 561.6 237.3"/>
    <polygon class="st0" points="574.8 231 564.5 234.6 562.5 229.2 574.8 231"/>
    <polygon class="st0" points="562.5 229.2 552.1 231.9 550.3 228.4 562.5 229.2"/>
    <polygon class="st0" points="574.8 231 597.6 229.1 592.1 226.6 574.8 231"/>
    <polygon class="st0" points="597.6 229.1 574.8 231 588.8 237.1 597.6 229.1"/>
    <polygon class="st0" points="606.5 220.4 612.2 231 599.1 223.6 606.5 220.4"/>
    <polygon class="st0" points="599.1 223.6 612.2 231 597.6 229.1 599.1 223.6"/>
    <polygon class="st0" points="612.2 231 612.1 218.4 606.5 220.4 612.2 231"/>
    <polygon class="st0" points="597.6 229.1 599.1 223.6 592.1 226.6 597.6 229.1"/>
    <polygon class="st0" points="592.1 226.6 599.1 223.6 588.7 224.7 592.1 226.6"/>
    <polygon class="st0" points="628 313.4 629.5 316.8 624.4 317.5 628 313.4"/>
    <polygon class="st0" points="628 313.4 624.4 317.5 612.3 312.6 628 313.4"/>
    <polygon class="st0" points="628 313.4 612.3 312.6 612.2 307.8 628 313.4"/>
    <polygon class="st0" points="612.2 307.8 612.3 312.6 607.1 310.5 612.2 307.8"/>
    <polygon class="st0" points="612.2 307.8 607.1 310.5 606.8 306.9 612.2 307.8"/>
    <polygon class="st0" points="596.6 311.5 599.2 316.9 591.4 314.9 596.6 311.5"/>
    <polygon class="st0" points="596.6 311.5 591.4 314.9 581.4 311.2 596.6 311.5"/>
    <polygon class="st0" points="559.5 307.5 563.1 308.5 559.3 311.8 559.5 307.5"/>
    <polygon class="st0" points="559.5 307.5 559.3 311.8 550.5 309.5 559.5 307.5"/>
    <polygon class="st0" points="550.5 309.5 559.3 311.8 550.5 311.7 550.5 309.5"/>
    <polygon class="st0" points="588.8 316.2 580.2 314.8 581.4 311.2 588.8 316.2"/>
    <polygon class="st0" points="588.8 316.2 581.4 311.2 591.4 314.9 588.8 316.2"/>
    <polygon class="st0" points="581.4 311.2 580.2 314.8 573.5 311 581.4 311.2"/>
    <polygon class="st0" points="563.1 308.5 573.5 311 566.5 312.5 563.1 308.5"/>
    <polygon class="st0" points="563.1 308.5 566.5 312.5 559.3 311.8 563.1 308.5"/>
    <polygon class="st0" points="566.5 312.5 573.5 311 573.2 313.3 566.5 312.5"/>
    <polygon class="st0" points="580.2 314.8 573.2 313.3 573.5 311 580.2 314.8"/>
    <polygon class="st0" points="612.2 304.1 612.2 307.8 606.8 306.9 612.2 304.1"/>
    <polygon class="st0" points="612.2 304.1 606.8 306.9 606.3 302.4 612.2 304.1"/>
    <polygon class="st0" points="606.3 302.4 606.8 306.9 592.2 303.3 606.3 302.4"/>
    <polygon class="st0" points="592.2 303.3 606.8 306.9 607.1 310.5 592.2 303.3"/>
    <polygon class="st0" points="612.2 304.1 627.6 304.1 616.2 289.6 612.2 304.1"/>
    <polygon class="st0" points="627.6 304.1 628 313.4 612.2 307.8 627.6 304.1"/>
    <polygon class="st0" points="627.6 304.1 612.2 307.8 612.2 304.1 627.6 304.1"/>
    <polygon class="st0" points="616.2 289.6 612.2 304.1 607 287.4 616.2 289.6"/>
    <polygon class="st0" points="607 287.4 612.2 304.1 603 288.4 607 287.4"/>
    <polygon class="st0" points="626.2 283 627.1 290.5 616.2 289.6 626.2 283"/>
    <polygon class="st0" points="616.2 289.6 627.1 290.5 627.6 304.1 616.2 289.6"/>
    <polygon class="st0" points="626.2 283 616.2 289.6 615.1 282.9 626.2 283"/>
    <polygon class="st0" points="615.1 282.9 616.2 289.6 607 287.4 615.1 282.9"/>
    <polygon class="st0" points="607 287.4 603 288.4 599.4 285.6 607 287.4"/>
    <polygon class="st0" points="599.4 285.6 603 288.4 581.1 290.7 599.4 285.6"/>
    <polygon class="st0" points="561.5 302.8 562.4 305.9 559.5 307.5 561.5 302.8"/>
    <polygon class="st0" points="561.5 302.8 559.5 307.5 550.5 309.5 561.5 302.8"/>
    <polygon class="st0" points="561.5 302.8 550.5 309.5 539.5 302.6 561.5 302.8"/>
    <polygon class="st0" points="539.5 302.6 550.5 309.5 545.7 309.4 539.5 302.6"/>
    <polygon class="st0" points="539.5 302.6 545.7 309.4 522.3 312 539.5 302.6"/>
    <polygon class="st0" points="596.6 311.5 581.4 311.2 573.5 309.2 596.6 311.5"/>
    <polygon class="st0" points="562.4 305.9 573.5 309.2 563.1 308.5 562.4 305.9"/>
    <polygon class="st0" points="562.4 305.9 563.1 308.5 559.5 307.5 562.4 305.9"/>
    <polygon class="st0" points="563.1 308.5 573.5 309.2 573.5 311 563.1 308.5"/>
    <polygon class="st0" points="573.5 311 573.5 309.2 581.4 311.2 573.5 311"/>
    <polygon class="st0" points="550.5 309.5 550.5 311.7 545.7 309.4 550.5 309.5"/>
    <polygon class="st0" points="545.7 309.4 550.5 311.7 533.1 318.3 545.7 309.4"/>
    <polygon class="st0" points="545.7 309.4 533.1 318.3 522.3 312 545.7 309.4"/>
    <polygon class="st0" points="522.3 312 533.1 318.3 513.1 319.3 522.3 312"/>
    <polygon class="st0" points="561.5 302.8 539.5 302.6 551.2 292.8 561.5 302.8"/>
    <polygon class="st0" points="551.2 292.8 539.5 302.6 540.1 285 551.2 292.8"/>
    <polygon class="st0" points="540.1 285 539.5 302.6 537.2 284.6 540.1 285"/>
    <polygon class="st0" points="537.2 284.6 539.5 302.6 525.7 294.8 537.2 284.6"/>
    <polygon class="st0" points="525.7 294.8 539.5 302.6 522.3 312 525.7 294.8"/>
    <polygon class="st0" points="566.2 288.7 561.5 302.8 551.2 292.8 566.2 288.7"/>
    <polygon class="st0" points="566.2 288.7 551.2 292.8 540.1 285 566.2 288.7"/>
    <polygon class="st0" points="522.3 312 525.7 294.8 516.8 302.4 522.3 312"/>
    <polygon class="st0" points="525.7 294.8 537.2 284.6 518.5 279.6 525.7 294.8"/>
    <polygon class="st0" points="516.8 302.4 522.3 312 515.3 303.4 516.8 302.4"/>
    <polygon class="st0" points="515.3 303.4 522.3 312 513.1 319.3 515.3 303.4"/>
    <polygon class="st0" points="495.5 290.6 518.5 279.6 499 281.8 495.5 290.6"/>
    <polygon class="st0" points="507.3 323.4 483.3 335.9 490.7 319.9 507.3 323.4"/>
    <polygon class="st0" points="490.7 319.9 483.3 335.9 487.4 319.9 490.7 319.9"/>
    <polygon class="st0" points="466.8 331.2 483.3 335.9 487.4 319.9 466.8 331.2"/>
    <polygon class="st0" points="566.7 251.9 561.6 237.3 549 253.7 566.7 251.9"/>
    <polygon class="st0" points="561.6 237.3 549 253.7 540 237.5 561.6 237.3"/>
    <polygon class="st0" points="540 237.5 549 253.7 537.1 255.6 540 237.5"/>
    <polygon class="st0" points="540 237.5 537.1 255.6 525.9 246 540 237.5"/>
    <polygon class="st0" points="540 237.5 525.9 246 523 228 540 237.5"/>
    <polygon class="st0" points="525.9 246 523 228 516.7 238.5 525.9 246"/>
    <polygon class="st0" points="523 228 513.9 224.5 516.7 238.5 523 228"/>
    <polygon class="st0" points="513.9 224.5 516.7 238.5 508.4 235.9 513.9 224.5"/>
    <polygon class="st0" points="513.9 224.5 508.4 235.9 503.3 224.8 513.9 224.5"/>
    <polygon class="st0" points="503.5 221.5 503.3 224.8 493.3 228.1 503.5 221.5"/>
    <polygon class="st0" points="503.5 221.5 493.3 228.1 488.1 220.8 503.5 221.5"/>
    <polygon class="st0" points="488.1 220.8 493.3 228.1 488.1 224.1 488.1 220.8"/>
    <polygon class="st0" points="493.3 228.1 503.3 224.8 508.4 235.9 493.3 228.1"/>
    <polygon class="st0" points="517.2 261.1 502.8 253.6 498.7 258 517.2 261.1"/>
    <polygon class="st0" points="502.8 253.6 517.2 261.1 516.7 238.5 502.8 253.6"/>
    <polygon class="st0" points="502.8 253.6 495.6 249.8 498.7 258 502.8 253.6"/>
    <polygon class="st0" points="495.6 249.8 502.8 253.6 516.7 238.5 495.6 249.8"/>
    <polygon class="st0" points="495.6 249.8 516.7 238.5 508.4 235.9 495.6 249.8"/>
    <polygon class="st0" points="508.4 235.9 493.3 228.1 495.6 249.8 508.4 235.9"/>
    <polygon class="st0" points="493.3 228.1 495.6 249.8 489.8 244.4 493.3 228.1"/>
    <polygon class="st0" points="493.3 228.1 489.8 244.4 488.1 224.1 493.3 228.1"/>
    <polygon class="st0" points="488.1 220.8 488.1 224.1 475.8 232.4 488.1 220.8"/>
    <polygon class="st0" points="488.1 220.8 475.8 232.4 473.1 213.1 488.1 220.8"/>
    <polygon class="st0" points="473.1 213.1 475.8 232.4 462.3 220.9 473.1 213.1"/>
    <polygon class="st0" points="475.8 232.4 488.1 224.1 489.8 244.4 475.8 232.4"/>
    <polygon class="st0" points="473.1 213.1 463.8 208.3 462.3 220.9 473.1 213.1"/>
    <polygon class="st0" points="482.9 204.4 473.1 213.1 463.8 208.3 482.9 204.4"/>
    <polygon class="st0" points="482.9 204.4 463.8 208.3 453.9 190.5 482.9 204.4"/>
    <polygon class="st0" points="463.8 208.3 453.9 190.5 442.8 204.3 463.8 208.3"/>
    <polygon class="st0" points="442.8 204.3 453.9 190.5 414.5 191.1 442.8 204.3"/>
    <polygon class="st0" points="463.8 208.3 442.8 204.3 462.3 220.9 463.8 208.3"/>
    <polygon class="st0" points="495.6 249.8 489.8 244.4 489.5 256.4 495.6 249.8"/>
    <polygon class="st0" points="489.9 295.7 495.5 290.6 488.8 283.7 489.9 295.7"/>
    <polygon class="st0" points="499 281.8 488.8 283.7 495.5 290.6 499 281.8"/>
    <polygon class="st0" points="488.8 283.7 475.9 307.9 471.3 288.3 488.8 283.7"/>
    <polygon class="st0" points="471.3 288.3 475.9 307.9 469 304.1 471.3 288.3"/>
    <polygon class="st0" points="461.6 320.4 469 304.1 475.9 307.9 461.6 320.4"/>
    <polygon class="st0" points="469 304.1 461.6 320.4 445.1 299 469 304.1"/>
    <polygon class="st0" points="445.1 299 461.6 320.4 442.5 301.6 445.1 299"/>
    <polygon class="st0" points="461.6 320.4 442.5 301.6 433.6 318.2 461.6 320.4"/>
    <polygon class="st0" points="461.3 274.6 460.9 283.1 453.1 279 461.3 274.6"/>
    <polygon class="st0" points="453.1 279 460.9 283.1 445.1 299 453.1 279"/>
    <polygon class="st0" points="453.1 279 445.1 299 442.5 301.6 453.1 279"/>
    <polygon class="st0" points="460.9 283.1 461.6 285 445.1 299 460.9 283.1"/>
    <polygon class="st0" points="445.1 299 461.6 285 469 304.1 445.1 299"/>
    <polygon class="st0" points="467.2 270.5 461.3 274.6 461 265.8 467.2 270.5"/>
    <polygon class="st0" points="461 265.8 461.3 274.6 452 270.1 461 265.8"/>
    <polygon class="st0" points="461 265.8 452 270.1 452 265.8 461 265.8"/>
    <polygon class="st0" points="461 265.8 452 265.8 453.9 261.5 461 265.8"/>
    <polygon class="st0" points="452.7 261.4 453.9 261.5 452 265.8 452.7 261.4"/>
    <polygon class="st0" points="453.1 279 452.2 275.4 461.3 274.6 453.1 279"/>
    <polygon class="st0" points="461.3 274.6 452.2 275.4 452.1 273.8 461.3 274.6"/>
    <polygon class="st0" points="461.3 274.6 452.1 273.8 452 270.1 461.3 274.6"/>
    <polygon class="st0" points="461.7 256.1 461 265.8 459.9 256.9 461.7 256.1"/>
    <polygon class="st0" points="443.8 240.7 459.9 256.9 453.2 260.1 443.8 240.7"/>
    <polygon class="st0" points="453.9 261.5 453.2 260.1 459.9 256.9 453.9 261.5"/>
    <polygon class="st0" points="453.9 261.5 459.9 256.9 461 265.8 453.9 261.5"/>
    <polygon class="st0" points="475.8 232.4 489.5 256.4 484.5 255.5 475.8 232.4"/>
    <polygon class="st0" points="475.8 232.4 484.5 255.5 471.2 251.6 475.8 232.4"/>
    <polygon class="st0" points="475.8 232.4 471.2 251.6 469 236.6 475.8 232.4"/>
    <polygon class="st0" points="475.8 232.4 469 236.6 462.3 220.9 475.8 232.4"/>
    <polygon class="st0" points="461.7 256.1 469 236.6 471.2 251.6 461.7 256.1"/>
    <polygon class="st0" points="489.5 256.4 498.7 258 495.6 249.8 489.5 256.4"/>
    <polygon class="st0" points="475.8 232.4 489.5 256.4 489.8 244.4 475.8 232.4"/>
    <polygon class="st0" points="462.3 220.9 469 236.6 443.8 240.7 462.3 220.9"/>
    <polygon class="st0" points="462.3 220.9 443.8 240.7 442.8 239.7 462.3 220.9"/>
    <polygon class="st0" points="469 236.6 461.7 256.1 443.8 240.7 469 236.6"/>
    <polygon class="st0" points="443.8 240.7 461.7 256.1 459.9 256.9 443.8 240.7"/>
    <polygon class="st0" points="433.1 222.5 442.8 204.3 425.8 204.5 433.1 222.5"/>
    <polygon class="st0" points="461.6 320.4 442.9 336.9 442.2 335.2 461.6 320.4"/>
    <polygon class="st0" points="461.6 320.4 442.2 335.2 433.6 318.2 461.6 320.4"/>
    <polygon class="st0" points="442.9 336.9 453.8 349.3 464 331.9 442.9 336.9"/>
    <polygon class="st0" points="442.9 336.9 453.8 349.3 416 347.5 442.9 336.9"/>
    <polygon class="st0" points="416 347.5 453.8 349.3 414 349.8 416 347.5"/>
    <polygon class="st0" points="442.2 335.2 433.6 318.2 426.1 335.2 442.2 335.2"/>
    <polygon class="st0" points="452.2 275.4 452.2 277.1 398.8 297.6 452.2 275.4"/>
    <polygon class="st0" points="398.8 297.6 452.2 277.1 453.1 279 398.8 297.6"/>
    <polygon class="st0" points="398.8 297.6 453.1 279 401 314.1 398.8 297.6"/>
    <polygon class="st0" points="452.7 261.4 452 265.8 398.8 242.4 452.7 261.4"/>
    <polygon class="st0" points="452.7 261.4 398.8 242.4 400.5 226.9 452.7 261.4"/>
    <polygon class="st0" points="397.9 270.5 398.8 297.6 374.3 306 397.9 270.5"/>
    <polygon class="st0" points="374.3 306 398.8 297.6 401 314.1 374.3 306"/>
    <polygon class="st0" points="397.9 270.5 398.8 242.4 373.8 235.2 397.9 270.5"/>
    <polygon class="st0" points="398.8 242.4 400.5 226.9 373.8 235.2 398.8 242.4"/>
    <polygon class="st0" points="414.5 191.1 385.4 182.3 406.9 196.3 414.5 191.1"/>
    <polygon class="st0" points="406.9 196.3 395.5 201.5 386.1 195.9 406.9 196.3"/>
    <polygon class="st0" points="406.9 196.3 386.1 195.9 385.4 182.3 406.9 196.3"/>
    <polygon class="st0" points="386.1 195.9 385.4 182.3 350.6 172.9 386.1 195.9"/>
    <polygon class="st0" points="395.5 201.5 400.5 226.9 380.4 216.1 395.5 201.5"/>
    <polygon class="st0" points="395.5 201.5 380.4 216.1 386.1 195.9 395.5 201.5"/>
    <polygon class="st0" points="406.9 196.3 395.5 201.5 410.2 211.3 406.9 196.3"/>
    <polygon class="st0" points="425.8 204.5 406.9 196.3 410.2 211.3 425.8 204.5"/>
    <polygon class="st0" points="426.1 335.2 406.7 344.7 407.2 337 426.1 335.2"/>
    <polygon class="st0" points="407.2 337 406.7 344.7 394 344 407.2 337"/>
    <polygon class="st0" points="406.7 344.7 385.4 358.6 394 344 406.7 344.7"/>
    <polygon class="st0" points="394 344 385.4 358.6 386.1 344.7 394 344"/>
    <polygon class="st0" points="401 314.1 394 344 407.2 337 401 314.1"/>
    <polygon class="st0" points="379.8 325.3 401 314.1 374.3 306 379.8 325.3"/>
    <polygon class="st0" points="379.8 325.3 382.2 329.9 357 335.8 379.8 325.3"/>
    <polygon class="st0" points="357 335.8 382.2 329.9 386.1 344.7 357 335.8"/>
    <polygon class="st0" points="385.4 358.6 386.1 344.7 350.7 367.8 385.4 358.6"/>
    <polygon class="st0" points="350.7 367.8 386.1 344.7 357 335.8 350.7 367.8"/>
    <polygon class="st0" points="357 335.8 379.8 325.3 374.3 306 357 335.8"/>
    <polygon class="st0" points="374.3 306 397.9 270.5 375.8 270.7 374.3 306"/>
    <polygon class="st0" points="397.9 270.5 373.8 235.2 375.8 270.7 397.9 270.5"/>
    <polygon class="st0" points="373.8 235.2 400.5 226.9 380.4 216.1 373.8 235.2"/>
    <polygon class="st0" points="380.4 216.1 386.1 195.9 358.5 204.7 380.4 216.1"/>
    <polygon class="st0" points="386.1 195.9 350.6 172.9 358.5 204.7 386.1 195.9"/>
    <polygon class="st0" points="358.5 204.7 350.6 172.9 340.8 194.8 358.5 204.7"/>
    <polygon class="st0" points="380.4 216.1 358.5 204.7 373.8 235.2 380.4 216.1"/>
    <polygon class="st0" points="375.8 270.7 346.5 292.7 337.6 269.9 375.8 270.7"/>
    <polygon class="st0" points="337.6 269.9 346.5 292.7 333.4 286.5 337.6 269.9"/>
    <polygon class="st0" points="375.8 270.7 337.6 269.9 347.4 247.4 375.8 270.7"/>
    <polygon class="st0" points="347.4 247.4 337.6 269.9 334 253.3 347.4 247.4"/>
    <polygon class="st0" points="374.3 306 357 335.8 327.1 323.2 374.3 306"/>
    <polygon class="st0" points="374.3 306 327.1 323.2 318.8 312.5 374.3 306"/>
    <polygon class="st0" points="357 335.8 350.7 367.8 340.5 345.9 357 335.8"/>
    <polygon class="st0" points="318.4 352.7 340.5 345.9 350.7 367.8 318.4 352.7"/>
    <polygon class="st0" points="350.7 367.8 318.4 352.7 306.3 359.1 350.7 367.8"/>
    <polygon class="st0" points="318.4 352.7 296.7 346.4 306.3 359.1 318.4 352.7"/>
    <polygon class="st0" points="296.7 346.4 318.4 352.7 324.3 338.3 296.7 346.4"/>
    <polygon class="st0" points="324.5 323.1 324.3 338.3 297 331.8 324.5 323.1"/>
    <polygon class="st0" points="297 331.8 324.3 338.3 296.7 346.4 297 331.8"/>
    <polygon class="st0" points="297 331.8 296.7 346.4 294.9 333.9 297 331.8"/>
    <polygon class="st0" points="324.3 338.3 340.5 345.9 357 335.8 324.3 338.3"/>
    <polygon class="st0" points="340.5 345.9 324.3 338.3 318.4 352.7 340.5 345.9"/>
    <polygon class="st0" points="357 335.8 324.3 338.3 327.1 323.2 357 335.8"/>
    <polygon class="st0" points="327.1 323.2 324.3 338.3 324.5 323.1 327.1 323.2"/>
    <polygon class="st0" points="318.8 312.5 327.1 323.2 324.5 323.1 318.8 312.5"/>
    <polygon class="st0" points="318.8 312.5 324.5 323.1 290.3 317.7 318.8 312.5"/>
    <polygon class="st0" points="318.8 312.5 374.3 306 346.5 292.7 318.8 312.5"/>
    <polygon class="st0" points="346.5 292.7 374.3 306 375.8 270.7 346.5 292.7"/>
    <polygon class="st0" points="318.8 312.5 346.5 292.7 333.4 286.5 318.8 312.5"/>
    <polygon class="st0" points="337.6 269.9 333.4 286.5 325.3 281.3 337.6 269.9"/>
    <polygon class="st0" points="337.6 269.9 325.3 281.3 327 269.7 337.6 269.9"/>
    <polygon class="st0" points="373.8 235.2 347.4 247.4 375.8 270.7 373.8 235.2"/>
    <polygon class="st0" points="347.4 247.4 334 253.3 320.6 226.5 347.4 247.4"/>
    <polygon class="st0" points="320.6 226.5 334 253.3 315.4 246.8 320.6 226.5"/>
    <polygon class="st0" points="320.6 226.5 315.4 246.8 309.1 245.5 320.6 226.5"/>
    <polygon class="st0" points="334 253.3 337.6 269.9 325.1 258.2 334 253.3"/>
    <polygon class="st0" points="325.1 258.2 337.6 269.9 327 269.7 325.1 258.2"/>
    <polygon class="st0" points="334 253.3 325.1 258.2 315.4 246.8 334 253.3"/>
    <polygon class="st0" points="315.4 246.8 325.1 258.2 314.8 250 315.4 246.8"/>
    <polygon class="st0" points="315.4 246.8 314.8 250 309.1 245.5 315.4 246.8"/>
    <polygon class="st0" points="320.6 226.5 309.1 245.5 303 236.5 320.6 226.5"/>
    <polygon class="st0" points="320.6 226.5 303 236.5 286.7 223.3 320.6 226.5"/>
    <polygon class="st0" points="307.8 245.5 303 236.5 309.1 245.5 307.8 245.5"/>
    <polygon class="st0" points="303 236.5 307.8 245.5 293.6 247.5 303 236.5"/>
    <polygon class="st0" points="303 236.5 293.6 247.5 280 236 303 236.5"/>
    <polygon class="st0" points="303 236.5 280 236 286.7 223.3 303 236.5"/>
    <polygon class="st0" points="328.9 216.3 320.6 226.5 313.7 213.3 328.9 216.3"/>
    <polygon class="st0" points="313.7 213.3 320.6 226.5 293.6 214.6 313.7 213.3"/>
    <polygon class="st0" points="272.8 215.1 293.6 214.6 286.7 223.3 272.8 215.1"/>
    <polygon class="st0" points="272.8 215.1 286.7 223.3 270 217.1 272.8 215.1"/>
    <polygon class="st0" points="286.7 223.3 293.6 214.6 320.6 226.5 286.7 223.3"/>
    <polygon class="st0" points="286.7 223.3 270 217.1 246.4 228.7 286.7 223.3"/>
    <polygon class="st0" points="340.8 194.8 324.4 202.6 321.4 186.7 340.8 194.8"/>
    <polygon class="st0" points="321.4 186.7 324.4 202.6 297.5 193.8 321.4 186.7"/>
    <polygon class="st0" points="324.4 202.6 297.5 193.8 294.8 204.7 324.4 202.6"/>
    <polygon class="st0" points="325.1 258.2 327 269.7 318.5 259.8 325.1 258.2"/>
    <polygon class="st0" points="318.5 259.8 327 269.7 317.9 280.9 318.5 259.8"/>
    <polygon class="st0" points="317.9 280.9 327 269.7 325.3 281.3 317.9 280.9"/>
    <polygon class="st0" points="333.4 286.5 318.8 312.5 314.8 290 333.4 286.5"/>
    <polygon class="st0" points="333.4 286.5 314.8 290 325.3 281.3 333.4 286.5"/>
    <polygon class="st0" points="314.8 290 318.8 312.5 309.1 294.7 314.8 290"/>
    <polygon class="st0" points="314.8 290 325.3 281.3 317.9 280.9 314.8 290"/>
    <polygon class="st0" points="314.8 290 309.1 294.7 302.4 286.5 314.8 290"/>
    <polygon class="st0" points="290.5 282.3 302.4 286.5 293.8 292.8 290.5 282.3"/>
    <polygon class="st0" points="290.5 282.3 293.8 292.8 272.5 282.5 290.5 282.3"/>
    <polygon class="st0" points="293.8 292.8 302.4 286.5 309.1 294.7 293.8 292.8"/>
    <polygon class="st0" points="309.1 294.7 318.8 312.5 290.3 317.7 309.1 294.7"/>
    <polygon class="st0" points="309.1 294.7 290.3 317.7 287.3 316.8 309.1 294.7"/>
    <polygon class="st0" points="325.1 258.2 314.8 250 318.5 259.8 325.1 258.2"/>
    <polygon class="st0" points="271.8 258.3 293.6 247.5 251 251.5 271.8 258.3"/>
    <polygon class="st0" points="271.8 258.3 253.3 270.2 277.1 264.7 271.8 258.3"/>
    <polygon class="st0" points="253.3 270.2 271.8 258.3 251 251.5 253.3 270.2"/>
    <polygon class="st0" points="253.3 270.2 272.5 282.5 277.5 277.1 253.3 270.2"/>
    <polygon class="st0" points="272.5 282.5 253.3 270.2 250.8 289.3 272.5 282.5"/>
    <polygon class="st0" points="293.8 292.8 272.5 282.5 250.8 289.3 293.8 292.8"/>
    <polygon class="st0" points="309.1 294.7 287.3 316.8 293.8 292.8 309.1 294.7"/>
    <polygon class="st0" points="293.8 292.8 287.3 316.8 279.4 304.1 293.8 292.8"/>
    <polygon class="st0" points="279.4 304.1 287.3 316.8 274.7 307 279.4 304.1"/>
    <polygon class="st0" points="254.7 310 274.7 307 287.3 316.8 254.7 310"/>
    <polygon class="st0" points="279.4 304.1 293.8 292.8 250.8 289.3 279.4 304.1"/>
    <polygon class="st0" points="273.5 325.6 296.7 346.4 294.9 333.9 273.5 325.6"/>
    <polygon class="st0" points="273.5 325.6 294.9 333.9 285.1 318.1 273.5 325.6"/>
    <polygon class="st0" points="302.4 286.5 314.8 290 306.8 284.3 302.4 286.5"/>
    <polygon class="st0" points="290.5 282.3 302.4 286.5 295.4 281.7 290.5 282.3"/>
    <polygon class="st0" points="272.5 282.5 290.5 282.3 277.5 277.1 272.5 282.5"/>
    <polygon class="st0" points="277.1 264.7 291.4 258.7 271.8 258.3 277.1 264.7"/>
    <polygon class="st0" points="301.3 270.2 300.6 274.5 293.9 270.3 301.3 270.2"/>
    <polygon class="st0" points="293.9 270.3 300.6 274.5 298.4 278.4 293.9 270.3"/>
    <polygon class="st0" points="293.9 270.3 298.4 278.4 295.4 281.7 293.9 270.3"/>
    <polygon class="st0" points="293.9 270.3 295.4 281.7 290.5 282.3 293.9 270.3"/>
    <polygon class="st0" points="303.3 254.3 312.4 265.2 300.7 265.4 303.3 254.3"/>
    <polygon class="st0" points="303.3 254.3 300.7 265.4 298.7 262.3 303.3 254.3"/>
    <polygon class="st0" points="303.3 254.3 298.7 262.3 296.1 259 303.3 254.3"/>
    <polygon class="st0" points="295.4 281.7 298.4 278.4 302.4 286.5 295.4 281.7"/>
    <polygon class="st0" points="302.4 286.5 298.4 278.4 306.8 284.3 302.4 286.5"/>
    <polygon class="st0" points="306.8 284.3 298.4 278.4 300.6 274.5 306.8 284.3"/>
    <polygon class="st0" points="306.8 284.3 300.6 274.5 312.2 275.2 306.8 284.3"/>
    <polygon class="st0" points="312.2 275.2 300.6 274.5 301.3 270.2 312.2 275.2"/>
    <polygon class="st0" points="312.2 275.2 301.3 270.2 312.4 265.2 312.2 275.2"/>
    <polygon class="st0" points="312.4 265.2 301.3 270.2 300.7 265.4 312.4 265.2"/>
    <polygon class="st0" points="317.9 280.9 314.8 290 306.8 284.3 317.9 280.9"/>
    <polygon class="st0" points="317.9 280.9 306.8 284.3 312.2 275.2 317.9 280.9"/>
    <polygon class="st0" points="318.5 259.8 317.9 280.9 312.2 275.2 318.5 259.8"/>
    <polygon class="st0" points="318.5 259.8 312.2 275.2 312.4 265.2 318.5 259.8"/>
    <polygon class="st0" points="314.8 250 318.5 259.8 303.3 254.3 314.8 250"/>
    <polygon class="st0" points="303.3 254.3 318.5 259.8 312.4 265.2 303.3 254.3"/>
    <polygon class="st0" points="279.4 304.1 274.7 307 250.8 289.3 279.4 304.1"/>
    <polygon class="st0" points="250.8 289.3 274.7 307 254.7 310 250.8 289.3"/>
    <polygon class="st0" points="250.8 289.3 254.7 310 247.8 302.2 250.8 289.3"/>
    <polygon class="st0" points="250.8 289.3 247.8 302.2 245.8 297.1 250.8 289.3"/>
    <polygon class="st0" points="249.2 306.2 247.8 302.2 254.7 310 249.2 306.2"/>
    <polygon class="st0" points="287.3 316.8 257.8 317.1 254.7 310 287.3 316.8"/>
    <polygon class="st0" points="254.7 310 257.8 317.1 246.4 311.9 254.7 310"/>
    <polygon class="st0" points="246.4 311.9 254.7 310 249.2 306.2 246.4 311.9"/>
    <polygon class="st0" points="250.8 289.3 253.3 270.2 235.5 270.2 250.8 289.3"/>
    <polygon class="st0" points="280 236 251 251.5 293.6 247.5 280 236"/>
    <polygon class="st0" points="286.7 223.3 280 236 254.7 231.2 286.7 223.3"/>
    <polygon class="st0" points="286.7 223.3 254.7 231.2 246.4 228.7 286.7 223.3"/>
    <polygon class="st0" points="254.7 231.2 246.4 228.7 248.6 232.7 254.7 231.2"/>
    <polygon class="st0" points="246.3 243.6 251 251.5 235.7 248.6 246.3 243.6"/>
    <polygon class="st0" points="246.3 243.6 235.7 248.6 240.8 238.1 246.3 243.6"/>
    <polygon class="st0" points="240.8 238.1 235.7 248.6 236.1 233.7 240.8 238.1"/>
    <polygon class="st0" points="246.4 228.7 248.6 232.7 240.8 238.1 246.4 228.7"/>
    <polygon class="st0" points="246.4 228.7 240.8 238.1 236.1 233.7 246.4 228.7"/>
    <polygon class="st0" points="246.4 228.7 236.1 233.7 240 225.7 246.4 228.7"/>
    <polygon class="st0" points="238.1 224.3 240 225.7 233.8 227.4 238.1 224.3"/>
    <polygon class="st0" points="233.8 227.4 240 225.7 236.1 233.7 233.8 227.4"/>
    <polygon class="st0" points="246.3 243.6 240.8 238.1 247.7 238.2 246.3 243.6"/>
    <polygon class="st0" points="247.7 238.2 240.8 238.1 248.6 232.7 247.7 238.2"/>
    <polygon class="st0" points="247.7 238.2 254.7 231.2 248.6 232.7 247.7 238.2"/>
    <polygon class="st0" points="250.8 289.3 235.5 270.2 235.4 292.3 250.8 289.3"/>
    <polygon class="st0" points="245.8 297.1 247.8 302.2 240.5 302.3 245.8 297.1"/>
    <polygon class="st0" points="240.5 302.3 247.8 302.2 249.2 306.2 240.5 302.3"/>
    <polygon class="st0" points="240.5 302.3 249.2 306.2 238.7 305 240.5 302.3"/>
    <polygon class="st0" points="238.7 305 249.2 306.2 246.4 311.9 238.7 305"/>
    <polygon class="st0" points="238.7 305 246.4 311.9 241.9 313.5 238.7 305"/>
    <polygon class="st0" points="224.1 270.2 223.5 236.7 207.8 232.6 224.1 270.2"/>
    <polygon class="st0" points="221 224.5 232.9 221.7 223.2 212.9 221 224.5"/>
    <polygon class="st0" points="214 164.9 198.5 181.2 187.3 166.6 214 164.9"/>
    <polygon class="st0" points="214 164.9 187.3 166.6 191.7 156.7 214 164.9"/>
    <polygon class="st0" points="187.3 166.6 198.5 181.2 193.7 207.4 187.3 166.6"/>
    <polygon class="st0" points="193.7 207.4 208.5 206.8 198.5 181.2 193.7 207.4"/>
    <polygon class="st0" points="223.2 212.9 221 224.5 214 214.8 223.2 212.9"/>
    <polygon class="st0" points="223.2 212.9 214 214.8 208.5 206.8 223.2 212.9"/>
    <polygon class="st0" points="198.5 181.2 208.5 206.8 221.8 201.2 198.5 181.2"/>
    <polygon class="st0" points="208.5 206.8 223.2 212.9 221.8 201.2 208.5 206.8"/>
    <polygon class="st0" points="232.9 318.7 223.4 327.8 221.1 316.1 232.9 318.7"/>
    <polygon class="st0" points="221.1 316.1 223.4 327.8 214.8 324.9 221.1 316.1"/>
    <polygon class="st0" points="193.7 333 187.3 373.8 191.2 367.2 193.7 333"/>
    <polygon class="st0" points="209.4 366.1 215.8 375.9 191.7 383.7 209.4 366.1"/>
    <polygon class="st0" points="209.4 366.1 191.7 383.7 191.2 367.2 209.4 366.1"/>
    <polygon class="st0" points="191.2 367.2 191.7 383.7 187.3 373.8 191.2 367.2"/>
    <polygon class="st0" points="207.5 336.1 193.7 333 191.2 367.2 207.5 336.1"/>
    <polygon class="st0" points="214.8 324.9 207.5 336.1 223.4 327.8 214.8 324.9"/>
    <polygon class="st0" points="221.8 339.2 209.4 366.1 207.5 336.1 221.8 339.2"/>
    <polygon class="st0" points="207.5 336.1 209.4 366.1 191.2 367.2 207.5 336.1"/>
    <polygon class="st0" points="209.4 366.1 215.8 375.9 224 345.2 209.4 366.1"/>
    <polygon class="st0" points="224 345.2 228.8 340.9 221.8 339.2 224 345.2"/>
    <polygon class="st0" points="221.8 339.2 209.4 366.1 224 345.2 221.8 339.2"/>
    <polygon class="st0" points="224.1 270.2 211.3 278.2 211.4 262.2 224.1 270.2"/>
    <polygon class="st0" points="211.4 262.2 211.3 278.2 204.1 276.5 211.4 262.2"/>
    <polygon class="st0" points="211.4 262.2 204.1 276.5 203.7 263.5 211.4 262.2"/>
    <polygon class="st0" points="211.4 262.2 203.7 263.5 193.3 250.9 211.4 262.2"/>
    <polygon class="st0" points="193.3 250.9 203.7 263.5 193.7 260.6 193.3 250.9"/>
    <polygon class="st0" points="193.7 260.6 203.7 263.5 199.3 264.5 193.7 260.6"/>
    <polygon class="st0" points="207.8 232.6 224.1 270.2 211.4 262.2 207.8 232.6"/>
    <polygon class="st0" points="207.8 232.6 211.4 262.2 193.3 250.9 207.8 232.6"/>
    <polygon class="st0" points="211.3 278.2 194.4 290.2 204.1 276.5 211.3 278.2"/>
    <polygon class="st0" points="204.1 276.5 194.4 290.2 200 276.5 204.1 276.5"/>
    <polygon class="st0" points="200 276.5 194.4 290.2 193.8 279.5 200 276.5"/>
    <polygon class="st0" points="224.1 270.2 207.8 307.2 211.3 278.2 224.1 270.2"/>
    <polygon class="st0" points="211.3 278.2 207.8 307.2 194.4 290.2 211.3 278.2"/>
    <polygon class="st0" points="194.4 290.2 207.8 307.2 179.1 297.2 194.4 290.2"/>
    <polygon class="st0" points="179.1 297.2 207.8 307.2 173.5 332.7 179.1 297.2"/>
    <polygon class="st0" points="207.8 232.6 193.3 250.9 179.1 243.2 207.8 232.6"/>
    <polygon class="st0" points="207.8 232.6 179.1 243.2 173.5 207.7 207.8 232.6"/>
    <polygon class="st0" points="142.7 225.9 162.5 243.7 149.1 218.7 142.7 225.9"/>
    <polygon class="st0" points="134.2 203.7 142.7 225.9 149.1 218.7 134.2 203.7"/>
    <polygon class="st0" points="163.1 114.7 171.6 125.6 159.6 134.7 163.1 114.7"/>
    <polygon class="st0" points="150 159.3 159.6 134.7 162.9 138.6 150 159.3"/>
    <polygon class="st0" points="171.6 125.6 162.9 138.6 159.6 134.7 171.6 125.6"/>
    <polygon class="st0" points="115.3 81.4 95 69.9 102.4 68.6 115.3 81.4"/>
    <polygon class="st0" points="102.4 68.6 95 69.9 97.2 68.3 102.4 68.6"/>
    <polygon class="st0" points="79.3 59.2 85.5 61.7 92.7 69.4 79.3 59.2"/>
    <polygon class="st0" points="92.7 69.4 85.5 61.7 97.2 68.3 92.7 69.4"/>
    <polygon class="st0" points="92.7 69.4 97.2 68.3 95 69.9 92.7 69.4"/>
    <polygon class="st0" points="96 54.5 85.5 61.7 81 49.1 96 54.5"/>
    <polygon class="st0" points="81 49.1 85.5 61.7 79.3 59.2 81 49.1"/>
    <polygon class="st0" points="110.1 60.8 102.4 68.6 96 54.5 110.1 60.8"/>
    <polygon class="st0" points="96 54.5 102.4 68.6 97.2 68.3 96 54.5"/>
    <polygon class="st0" points="96 54.5 97.2 68.3 85.5 61.7 96 54.5"/>
    <polygon class="st0" points="129.8 68.3 116.9 73.1 110.1 60.8 129.8 68.3"/>
    <polygon class="st0" points="110.1 60.8 116.9 73.1 102.4 68.6 110.1 60.8"/>
    <polygon class="st0" points="133.7 69.8 143 84.1 126.6 79.6 133.7 69.8"/>
    <polygon class="st0" points="133.7 69.8 126.6 79.6 129.8 68.3 133.7 69.8"/>
    <polygon class="st0" points="126.6 79.6 143 84.1 132.5 88.8 126.6 79.6"/>
    <polygon class="st0" points="182 97 143 84.1 161.8 79.2 182 97"/>
    <polygon class="st0" points="161.8 79.2 143 84.1 133.7 69.8 161.8 79.2"/>
    <polygon class="st0" points="169.6 205.7 171.7 188.2 144.7 193.4 169.6 205.7"/>
    <polygon class="st0" points="173.5 207.7 179.1 243.2 149.1 218.7 173.5 207.7"/>
    <polygon class="st0" points="173.5 207.7 149.1 218.7 169.6 205.7 173.5 207.7"/>
    <polygon class="st0" points="144.7 193.4 134.2 203.7 149.1 218.7 144.7 193.4"/>
    <polygon class="st0" points="171.7 188.2 162.9 138.6 150 159.3 171.7 188.2"/>
    <polygon class="st0" points="171 108.4 171.6 125.6 163.1 114.7 171 108.4"/>
    <polygon class="st0" points="171 108.4 163.1 114.7 166.3 105.5 171 108.4"/>
    <polygon class="st0" points="156 99.1 166.3 105.5 163.1 114.7 156 99.1"/>
    <polygon class="st0" points="162.5 296.7 142.7 314.5 149.1 321.7 162.5 296.7"/>
    <polygon class="st0" points="142.7 314.5 134.2 336.7 149.1 321.7 142.7 314.5"/>
    <polygon class="st0" points="150 381.1 162.9 401.8 159.6 405.7 150 381.1"/>
    <polygon class="st0" points="163.1 425.7 159.6 405.7 171.6 414.8 163.1 425.7"/>
    <polygon class="st0" points="171.6 414.8 159.6 405.7 162.9 401.8 171.6 414.8"/>
    <polygon class="st0" points="115.3 459 102.4 471.8 95 470.6 115.3 459"/>
    <polygon class="st0" points="92.7 471 95 470.6 97.2 472.1 92.7 471"/>
    <polygon class="st0" points="92.7 471 97.2 472.1 85.5 478.7 92.7 471"/>
    <polygon class="st0" points="92.7 471 85.5 478.7 79.3 481.2 92.7 471"/>
    <polygon class="st0" points="102.4 471.8 97.2 472.1 95 470.6 102.4 471.8"/>
    <polygon class="st0" points="96 486 81 491.3 85.5 478.7 96 486"/>
    <polygon class="st0" points="85.5 478.7 81 491.3 79.3 481.2 85.5 478.7"/>
    <polygon class="st0" points="110.1 479.6 96 486 102.4 471.8 110.1 479.6"/>
    <polygon class="st0" points="102.4 471.8 96 486 97.2 472.1 102.4 471.8"/>
    <polygon class="st0" points="97.2 472.1 96 486 85.5 478.7 97.2 472.1"/>
    <polygon class="st0" points="129.7 472.1 110.1 479.6 116.9 467.3 129.7 472.1"/>
    <polygon class="st0" points="116.9 467.3 110.1 479.6 102.4 471.8 116.9 467.3"/>
    <polygon class="st0" points="143 456.3 133.7 470.6 126.6 460.8 143 456.3"/>
    <polygon class="st0" points="143 456.3 126.6 460.8 132.5 451.6 143 456.3"/>
    <polygon class="st0" points="126.6 460.8 133.7 470.6 129.7 472.1 126.6 460.8"/>
    <polygon class="st0" points="182 443.4 164.5 461.1 161.6 461.1 182 443.4"/>
    <polygon class="st0" points="182 443.4 161.6 461.1 143 456.3 182 443.4"/>
    <polygon class="st0" points="143 456.3 161.6 461.1 133.7 470.6 143 456.3"/>
    <polygon class="st0" points="171.7 352.2 169.6 334.7 144.7 347 171.7 352.2"/>
    <polygon class="st0" points="179.1 297.2 173.5 332.7 149.1 321.7 179.1 297.2"/>
    <polygon class="st0" points="149.1 321.7 173.5 332.7 169.6 334.7 149.1 321.7"/>
    <polygon class="st0" points="134.2 336.7 144.7 347 149.1 321.7 134.2 336.7"/>
    <polygon class="st0" points="162.9 401.8 171.7 352.2 150 381.1 162.9 401.8"/>
    <polygon class="st0" points="171.6 414.8 171 432 163.1 425.7 171.6 414.8"/>
    <polygon class="st0" points="163.1 425.7 171 432 156 441.3 163.1 425.7"/>
    <polygon class="st0" points="640.2 251.1 640.1 255.8 632.7 257.6 640.2 251.1"/>
    <polygon class="st0" points="640.2 251.1 632.7 257.6 627 251 640.2 251.1"/>
    <polygon class="st0" points="627 251 632.7 257.6 626 257.4 627 251"/>
    <polygon class="st0" points="640.2 251.1 639.9 230.5 628 236.8 640.2 251.1"/>
    <polygon class="st0" points="581.1 290.7 561.5 302.8 580 290.2 581.1 290.7"/>
    <polygon class="st0" points="580 290.2 561.5 302.8 566.2 288.7 580 290.2"/>
    <polygon class="st0" points="525.9 246 516.7 238.5 517.2 261.1 525.9 246"/>
    <polygon class="st0" points="488.1 220.8 482.9 204.4 473.1 213.1 488.1 220.8"/>
    <polygon class="st0" points="461.6 320.4 487.9 316.6 475.9 307.9 461.6 320.4"/>
    <polygon class="st0" points="426.1 335.2 401 314.1 407.2 337 426.1 335.2"/>
    <polygon class="st0" points="324.4 202.6 358.5 204.7 340.8 194.8 324.4 202.6"/>
    <polygon class="st0" points="350.6 172.9 321.4 186.7 340.8 194.8 350.6 172.9"/>
    <polygon class="st0" points="321.4 186.7 350.6 172.9 306.3 181 321.4 186.7"/>
    <polygon class="st0" points="297.5 193.8 321.4 186.7 306.3 181 297.5 193.8"/>
    <polygon class="st0" points="116.9 73.1 102.4 68.6 115.3 81.4 116.9 73.1"/>
    <polygon class="st0" points="149.1 218.7 169.6 205.7 144.7 193.4 149.1 218.7"/>
    <polygon class="st0" points="144.7 193.4 171.7 188.2 150 159.3 144.7 193.4"/>
    <polygon class="st0" points="194.1 123.3 171.6 125.6 178.7 111.2 194.1 123.3"/>
    <polygon class="st0" points="178.7 111.2 171.6 125.6 171 108.4 178.7 111.2"/>
    <polygon class="st0" points="182 97 156 99.1 149 91.1 182 97"/>
    <polygon class="st0" points="182 97 149 91.1 145 86.4 182 97"/>
    <polygon class="st0" points="182 97 145 86.4 143 84.1 182 97"/>
    <polygon class="st0" points="102.4 471.8 116.9 467.3 115.3 459 102.4 471.8"/>
    <polygon class="st0" points="169.6 334.7 149.1 321.7 144.7 347 169.6 334.7"/>
    <polygon class="st0" points="171.7 352.2 144.7 347 150 381.1 171.7 352.2"/>
    <polygon class="st0" points="194.1 417.1 178.7 429.2 171.6 414.8 194.1 417.1"/>
    <polygon class="st0" points="171.6 414.8 178.7 429.2 171 432 171.6 414.8"/>
    <polygon class="st0" points="182 443.4 143 456.3 145 454 182 443.4"/>
    <polygon class="st0" points="182 443.4 145 454 149 449.3 182 443.4"/>
    <polygon class="st0" points="182 443.4 149 449.3 156 441.3 182 443.4"/>
  </g>
</svg>