<?xml version="1.0" encoding="UTF-8"?>
<svg xmlns="http://www.w3.org/2000/svg" version="1.1" xmlns:xlink="http://www.w3.org/1999/xlink" viewBox="0 0 738 539">
  <!-- Generator: Adobe Illustrator 30.0.0, SVG Export Plug-In . SVG Version: 2.1.1 Build 123)  -->
  <defs>
    <style>
      .st0 {
        fill: none;
        stroke: #231f20;
        stroke-miterlimit: 10;
      }
    </style>
  </defs>
  <g id="Layer_2">
    <image width="2949" height="2155" transform="translate(.4 -.4) scale(.2)" xlink:href="Tên Lửa.png"/>
  </g>
  <g id="Layer_1">
    <polygon class="st0" points="104.2 260.2 156.3 260.2 132.2 250.6 104.2 260.2"/>
    <polygon class="st0" points="156.3 260.2 104.2 260.2 132.2 269.9 156.3 260.2"/>
    <polygon class="st0" points="156.3 229.5 177.4 260.2 156.3 239.7 156.3 229.5"/>
    <polygon class="st0" points="156.3 260.2 156.3 239.7 177.4 260.2 156.3 260.2"/>
    <polygon class="st0" points="177.4 260.2 156.3 291 156.3 280.7 177.4 260.2"/>
    <polygon class="st0" points="177.4 260.2 156.3 280.7 156.3 260.2 177.4 260.2"/>
    <polygon class="st0" points="177.4 260.2 209.8 260.2 189.8 248.7 177.4 260.2"/>
    <polygon class="st0" points="209.8 260.2 177.4 260.2 189.8 271.7 209.8 260.2"/>
    <polygon class="st0" points="328.4 260.2 209.8 260.2 262 234.7 328.4 260.2"/>
    <polygon class="st0" points="328.4 260.2 262 234.7 296.4 233.2 328.4 260.2"/>
    <polygon class="st0" points="328.4 260.2 296.4 287.3 262 285.7 328.4 260.2"/>
    <polygon class="st0" points="328.4 260.2 262 285.7 209.8 260.2 328.4 260.2"/>
    <polygon class="st0" points="328.4 260.2 386.7 260.2 340.9 243.3 328.4 260.2"/>
    <polygon class="st0" points="386.7 260.2 328.4 260.2 356.7 298.6 386.7 260.2"/>
    <polygon class="st0" points="386.7 260.2 438.1 260.2 415.5 244.3 386.7 260.2"/>
    <polygon class="st0" points="438.1 260.2 386.7 260.2 415.5 276.2 438.1 260.2"/>
    <polygon class="st0" points="438.1 260.2 496.6 260.2 479 248.4 438.1 260.2"/>
    <polygon class="st0" points="496.6 260.2 438.1 260.2 479 272.1 496.6 260.2"/>
    <polygon class="st0" points="496.6 260.2 540.6 260.2 504 248 496.6 260.2"/>
    <polygon class="st0" points="540.6 260.2 496.6 260.2 504 272.4 540.6 260.2"/>
    <polygon class="st0" points="568.8 251.9 574.5 260.2 540.6 260.2 568.8 251.9"/>
    <polygon class="st0" points="568.8 251.9 540.6 260.2 546.6 250.1 568.8 251.9"/>
    <polygon class="st0" points="574.5 260.2 568.8 268.6 540.6 260.2 574.5 260.2"/>
    <polygon class="st0" points="540.6 260.2 568.8 268.6 546.6 270.3 540.6 260.2"/>
    <polygon class="st0" points="605.5 260.2 574.5 260.2 597.7 255.2 605.5 260.2"/>
    <polygon class="st0" points="597.7 255.2 574.5 260.2 568.8 251.9 597.7 255.2"/>
    <polygon class="st0" points="605.5 260.2 597.7 265.2 574.5 260.2 605.5 260.2"/>
    <polygon class="st0" points="574.5 260.2 597.7 265.2 568.8 268.6 574.5 260.2"/>
    <polygon class="st0" points="588.9 222.7 616.7 260.2 597.7 255.2 588.9 222.7"/>
    <polygon class="st0" points="597.7 255.2 616.7 260.2 605.5 260.2 597.7 255.2"/>
    <polygon class="st0" points="616.7 260.2 588.9 297.7 597.7 265.2 616.7 260.2"/>
    <polygon class="st0" points="616.7 260.2 597.7 265.2 605.5 260.2 616.7 260.2"/>
    <polygon class="st0" points="616.7 260.2 692.7 260.2 616.7 230.9 616.7 260.2"/>
    <polygon class="st0" points="692.7 260.2 616.7 260.2 616.7 289.5 692.7 260.2"/>
    <polygon class="st0" points="546.6 250.1 568.8 251.9 568.5 237.6 546.6 250.1"/>
    <polygon class="st0" points="548.2 214.6 558 225.8 568.2 204.1 548.2 214.6"/>
    <polygon class="st0" points="558 225.8 548.2 214.6 546.6 250.1 558 225.8"/>
    <polygon class="st0" points="568.2 204.1 568.4 227.5 558 225.8 568.2 204.1"/>
    <polygon class="st0" points="558 225.8 568.4 227.5 568.5 237.6 558 225.8"/>
    <polygon class="st0" points="568.5 237.6 558 225.8 546.6 250.1 568.5 237.6"/>
    <polygon class="st0" points="538.8 189.9 527.2 217 507.7 203.5 538.8 189.9"/>
    <polygon class="st0" points="479.2 215.9 507.7 203.5 527.2 217 479.2 215.9"/>
    <polygon class="st0" points="538.8 189.9 527.2 217 548.2 214.6 538.8 189.9"/>
    <polygon class="st0" points="525.6 115.4 520.3 129 557.1 134.1 525.6 115.4"/>
    <polygon class="st0" points="520.3 129 525.6 115.4 469.6 121 520.3 129"/>
    <polygon class="st0" points="557.1 134.1 557.4 140.9 520.3 129 557.1 134.1"/>
    <polygon class="st0" points="520.3 129 557.4 140.9 518 134.7 520.3 129"/>
    <polygon class="st0" points="520.3 129 518 134.7 493.5 130.8 520.3 129"/>
    <polygon class="st0" points="520.3 129 493.5 130.8 469.6 121 520.3 129"/>
    <polygon class="st0" points="469.6 121 523.4 103.4 522.3 97.2 469.6 121"/>
    <polygon class="st0" points="523.4 103.4 469.6 121 525.6 115.4 523.4 103.4"/>
    <polygon class="st0" points="427.9 188.1 462.3 195.1 493.5 130.8 427.9 188.1"/>
    <polygon class="st0" points="462.3 195.1 427.9 188.1 450.2 220 462.3 195.1"/>
    <polygon class="st0" points="518 134.7 487.3 173.4 493.5 130.8 518 134.7"/>
    <polygon class="st0" points="493.5 130.8 487.3 173.4 462.3 195.1 493.5 130.8"/>
    <polygon class="st0" points="462.3 195.1 487.3 173.4 468.9 196.4 462.3 195.1"/>
    <polygon class="st0" points="468.9 196.4 462.3 195.1 450.2 220 468.9 196.4"/>
    <polygon class="st0" points="427.9 188.1 419.6 192 374.1 183.3 427.9 188.1"/>
    <polygon class="st0" points="374.1 183.3 419.6 192 356.7 221.9 374.1 183.3"/>
    <polygon class="st0" points="419.6 192 356.7 221.9 386.5 221.4 419.6 192"/>
    <polygon class="st0" points="309.2 214.7 328.4 260.2 340.9 243.3 309.2 214.7"/>
    <polygon class="st0" points="328.4 260.2 309.2 214.7 296.4 233.2 328.4 260.2"/>
    <polygon class="st0" points="309.2 214.7 340.9 243.3 356.7 221.9 309.2 214.7"/>
    <polygon class="st0" points="246.5 217.1 209.8 260.2 262 234.7 246.5 217.1"/>
    <polygon class="st0" points="209.8 260.2 246.5 217.1 224.2 201.2 209.8 260.2"/>
    <polygon class="st0" points="309.2 214.7 296.4 233.2 262 234.7 309.2 214.7"/>
    <polygon class="st0" points="309.2 214.7 262 234.7 246.5 217.1 309.2 214.7"/>
    <polygon class="st0" points="224.2 201.2 246.5 217.1 286.1 185.6 224.2 201.2"/>
    <polygon class="st0" points="156.3 239.7 156.3 229.5 132.2 250.6 156.3 239.7"/>
    <polygon class="st0" points="156.3 260.2 156.3 239.7 132.2 250.6 156.3 260.2"/>
    <polygon class="st0" points="568.8 268.6 546.6 270.3 568.5 282.9 568.8 268.6"/>
    <polygon class="st0" points="548.2 305.8 558 294.7 546.6 270.3 548.2 305.8"/>
    <polygon class="st0" points="558 294.7 548.2 305.8 568.2 316.4 558 294.7"/>
    <polygon class="st0" points="558 294.7 568.5 282.9 546.6 270.3 558 294.7"/>
    <polygon class="st0" points="568.5 282.9 568.4 293 558 294.7 568.5 282.9"/>
    <polygon class="st0" points="558 294.7 568.4 293 568.2 316.4 558 294.7"/>
    <polygon class="st0" points="527.2 303.5 538.8 330.5 548.2 305.8 527.2 303.5"/>
    <polygon class="st0" points="538.8 330.5 527.2 303.5 513.7 317.6 538.8 330.5"/>
    <polygon class="st0" points="427.9 332.3 462.3 325.4 450.2 300.4 427.9 332.3"/>
    <polygon class="st0" points="462.3 325.4 477 355.8 427.9 332.3 462.3 325.4"/>
    <polygon class="st0" points="472.9 371.7 477 355.8 493.5 389.7 472.9 371.7"/>
    <polygon class="st0" points="462.3 325.4 468.9 324 450.2 300.4 462.3 325.4"/>
    <polygon class="st0" points="468.9 324 487.3 347.1 462.3 325.4 468.9 324"/>
    <polygon class="st0" points="462.3 325.4 487.3 347.1 493.5 389.7 462.3 325.4"/>
    <polygon class="st0" points="493.5 389.7 487.3 347.1 518 385.8 493.5 389.7"/>
    <polygon class="st0" points="356.7 298.6 419.6 328.5 386.5 299.1 356.7 298.6"/>
    <polygon class="st0" points="427.9 332.3 374.1 337.2 419.6 328.5 427.9 332.3"/>
    <polygon class="st0" points="356.7 298.6 419.6 328.5 374.1 337.2 356.7 298.6"/>
    <polygon class="st0" points="309.2 305.7 328.4 260.2 296.4 287.3 309.2 305.7"/>
    <polygon class="st0" points="328.4 260.2 309.2 305.7 356.7 298.6 328.4 260.2"/>
    <polygon class="st0" points="246.5 303.4 209.8 260.2 224.2 319.3 246.5 303.4"/>
    <polygon class="st0" points="209.8 260.2 246.5 303.4 262 285.7 209.8 260.2"/>
    <polygon class="st0" points="296.4 287.3 309.2 305.7 262 285.7 296.4 287.3"/>
    <polygon class="st0" points="262 285.7 309.2 305.7 246.5 303.4 262 285.7"/>
    <polygon class="st0" points="246.5 303.4 224.2 319.3 286.1 334.8 246.5 303.4"/>
    <polygon class="st0" points="156.3 291 156.3 280.7 132.2 269.9 156.3 291"/>
    <polygon class="st0" points="156.3 280.7 156.3 260.2 132.2 269.9 156.3 280.7"/>
    <polygon class="st0" points="616.7 260.2 616.7 230.9 588.9 222.7 616.7 260.2"/>
    <polygon class="st0" points="588.9 222.7 568.8 251.9 568.5 237.6 588.9 222.7"/>
    <polygon class="st0" points="588.9 222.7 568.5 237.6 568.4 227.5 588.9 222.7"/>
    <polygon class="st0" points="568.8 251.9 597.7 255.2 588.9 222.7 568.8 251.9"/>
    <polygon class="st0" points="546.6 250.1 527.2 217 513.7 235.1 546.6 250.1"/>
    <polygon class="st0" points="527.2 217 546.6 250.1 548.2 214.6 527.2 217"/>
    <polygon class="st0" points="479.2 215.9 513.7 235.1 527.2 217 479.2 215.9"/>
    <polygon class="st0" points="513.7 235.1 479.2 215.9 504 248 513.7 235.1"/>
    <polygon class="st0" points="546.6 250.1 513.7 235.1 504 248 546.6 250.1"/>
    <polygon class="st0" points="507.7 203.5 479.2 215.9 491.8 200.1 507.7 203.5"/>
    <polygon class="st0" points="491.8 200.1 479.2 215.9 468.9 196.4 491.8 200.1"/>
    <polygon class="st0" points="518 134.7 538.8 189.9 507.7 203.5 518 134.7"/>
    <polygon class="st0" points="518 134.7 507.7 203.5 491.8 200.1 518 134.7"/>
    <polygon class="st0" points="557.4 140.9 567.3 165.7 538.8 189.9 557.4 140.9"/>
    <polygon class="st0" points="557.4 140.9 538.8 189.9 518 134.7 557.4 140.9"/>
    <polygon class="st0" points="491.8 200.1 518 134.7 487.3 173.4 491.8 200.1"/>
    <polygon class="st0" points="491.8 200.1 487.3 173.4 468.9 196.4 491.8 200.1"/>
    <polygon class="st0" points="567.7 114.5 525.6 115.4 523.4 103.4 567.7 114.5"/>
    <polygon class="st0" points="567.7 114.5 523.4 103.4 522.3 97.2 567.7 114.5"/>
    <polygon class="st0" points="525.6 115.4 557.1 134.1 567.7 114.5 525.6 115.4"/>
    <polygon class="st0" points="557.4 140.9 567.3 165.7 589.7 144.9 557.4 140.9"/>
    <polygon class="st0" points="581.7 133.9 589.7 144.9 557.4 140.9 581.7 133.9"/>
    <polygon class="st0" points="581.7 133.9 557.4 140.9 557.1 134.1 581.7 133.9"/>
    <polygon class="st0" points="567.7 114.5 557.1 134.1 581.7 133.9 567.7 114.5"/>
    <polygon class="st0" points="567.7 114.5 640.7 115.2 522.3 97.2 567.7 114.5"/>
    <polygon class="st0" points="640.7 115.2 609 133.7 567.7 114.5 640.7 115.2"/>
    <polygon class="st0" points="567.7 114.5 609 133.7 581.7 133.9 567.7 114.5"/>
    <polygon class="st0" points="640.7 115.2 609 133.7 640.4 138.4 640.7 115.2"/>
    <polygon class="st0" points="609 133.7 589.7 144.9 640.4 138.4 609 133.7"/>
    <polygon class="st0" points="589.7 144.9 609 133.7 581.7 133.9 589.7 144.9"/>
    <polygon class="st0" points="479.2 215.9 468.9 196.4 450.2 220 479.2 215.9"/>
    <polygon class="st0" points="450.2 220 440 222.3 479 248.4 450.2 220"/>
    <polygon class="st0" points="427.9 188.1 450.2 220 440 222.3 427.9 188.1"/>
    <polygon class="st0" points="427.9 188.1 440 222.3 419.6 192 427.9 188.1"/>
    <polygon class="st0" points="479 248.4 440 222.3 428 233.6 479 248.4"/>
    <polygon class="st0" points="479 248.4 496.6 260.2 504 248 479 248.4"/>
    <polygon class="st0" points="479 248.4 504 248 479.2 215.9 479 248.4"/>
    <polygon class="st0" points="479 248.4 479.2 215.9 450.2 220 479 248.4"/>
    <polygon class="st0" points="479 248.4 438.1 260.2 428 233.6 479 248.4"/>
    <polygon class="st0" points="428 233.6 438.1 260.2 415.5 244.3 428 233.6"/>
    <polygon class="st0" points="415.5 244.3 428 233.6 386.5 221.4 415.5 244.3"/>
    <polygon class="st0" points="419.6 192 386.5 221.4 440 222.3 419.6 192"/>
    <polygon class="st0" points="415.5 244.3 386.5 221.4 386.7 260.2 415.5 244.3"/>
    <polygon class="st0" points="356.7 221.9 340.9 243.3 386.7 260.2 356.7 221.9"/>
    <polygon class="st0" points="386.5 221.4 356.7 221.9 386.7 260.2 386.5 221.4"/>
    <polygon class="st0" points="356.7 221.9 374.1 183.3 321.6 182.3 356.7 221.9"/>
    <polygon class="st0" points="356.7 221.9 321.6 182.3 309.2 214.7 356.7 221.9"/>
    <polygon class="st0" points="309.2 214.7 321.6 182.3 286.1 185.6 309.2 214.7"/>
    <polygon class="st0" points="224.2 201.2 219.3 221.3 156.3 229.5 224.2 201.2"/>
    <polygon class="st0" points="189.8 248.7 219.3 221.3 209.8 260.2 189.8 248.7"/>
    <polygon class="st0" points="189.8 248.7 156.3 229.5 177.4 260.2 189.8 248.7"/>
    <polygon class="st0" points="156.3 229.5 189.8 248.7 219.3 221.3 156.3 229.5"/>
    <polygon class="st0" points="156.3 229.5 104.2 260.2 132.2 250.6 156.3 229.5"/>
    <polygon class="st0" points="616.7 289.5 616.7 260.2 588.9 297.7 616.7 289.5"/>
    <polygon class="st0" points="568.8 268.6 588.9 297.7 568.5 282.9 568.8 268.6"/>
    <polygon class="st0" points="568.4 293 568.5 282.9 588.9 297.7 568.4 293"/>
    <polygon class="st0" points="597.7 265.2 568.8 268.6 588.9 297.7 597.7 265.2"/>
    <polygon class="st0" points="546.6 270.3 527.2 303.5 548.2 305.8 546.6 270.3"/>
    <polygon class="st0" points="527.2 303.5 546.6 270.3 513.7 285.4 527.2 303.5"/>
    <polygon class="st0" points="479.2 304.6 513.7 285.4 504 272.4 479.2 304.6"/>
    <polygon class="st0" points="513.7 285.4 479.2 304.6 527.2 303.5 513.7 285.4"/>
    <polygon class="st0" points="513.7 285.4 546.6 270.3 504 272.4 513.7 285.4"/>
    <polygon class="st0" points="479.2 304.6 513.7 317.6 527.2 303.5 479.2 304.6"/>
    <polygon class="st0" points="513.7 317.6 491.8 320.4 479.2 304.6 513.7 317.6"/>
    <polygon class="st0" points="479.2 304.6 491.8 320.4 468.9 324 479.2 304.6"/>
    <polygon class="st0" points="538.8 330.5 518 385.8 513.7 317.6 538.8 330.5"/>
    <polygon class="st0" points="513.7 317.6 518 385.8 491.8 320.4 513.7 317.6"/>
    <polygon class="st0" points="567.3 354.7 557.4 379.5 538.8 330.5 567.3 354.7"/>
    <polygon class="st0" points="538.8 330.5 557.4 379.5 518 385.8 538.8 330.5"/>
    <polygon class="st0" points="518 385.8 491.8 320.4 487.3 347.1 518 385.8"/>
    <polygon class="st0" points="487.3 347.1 491.8 320.4 468.9 324 487.3 347.1"/>
    <polygon class="st0" points="518 385.8 493.5 389.7 520.3 391.5 518 385.8"/>
    <polygon class="st0" points="520.3 391.5 525.6 405.1 493.5 389.7 520.3 391.5"/>
    <polygon class="st0" points="493.5 389.7 525.6 405.1 469.6 399.5 493.5 389.7"/>
    <polygon class="st0" points="469.6 399.5 522.3 423.3 525.6 405.1 469.6 399.5"/>
    <polygon class="st0" points="525.6 405.1 522.3 423.3 567.7 406 525.6 405.1"/>
    <polygon class="st0" points="525.6 405.1 557.1 386.3 520.3 391.5 525.6 405.1"/>
    <polygon class="st0" points="557.1 386.3 525.6 405.1 567.7 406 557.1 386.3"/>
    <polygon class="st0" points="557.4 379.5 557.1 386.3 520.3 391.5 557.4 379.5"/>
    <polygon class="st0" points="557.4 379.5 520.3 391.5 518 385.8 557.4 379.5"/>
    <polygon class="st0" points="567.3 354.7 557.4 379.5 589.7 375.6 567.3 354.7"/>
    <polygon class="st0" points="589.7 375.6 581.7 386.5 557.4 379.5 589.7 375.6"/>
    <polygon class="st0" points="557.4 379.5 581.7 386.5 557.1 386.3 557.4 379.5"/>
    <polygon class="st0" points="557.1 386.3 567.7 406 581.7 386.5 557.1 386.3"/>
    <polygon class="st0" points="640.7 405.2 567.7 406 609 386.8 640.7 405.2"/>
    <polygon class="st0" points="609 386.8 567.7 406 581.7 386.5 609 386.8"/>
    <polygon class="st0" points="640.7 405.2 567.7 406 522.3 423.3 640.7 405.2"/>
    <polygon class="st0" points="609 386.8 640.7 405.2 640.4 382 609 386.8"/>
    <polygon class="st0" points="609 386.8 589.7 375.6 581.7 386.5 609 386.8"/>
    <polygon class="st0" points="589.7 375.6 609 386.8 640.4 382 589.7 375.6"/>
    <polygon class="st0" points="468.9 324 479.2 304.6 450.2 300.4 468.9 324"/>
    <polygon class="st0" points="450.2 300.4 427.9 332.3 440 298.2 450.2 300.4"/>
    <polygon class="st0" points="440 298.2 427.9 332.3 419.6 328.5 440 298.2"/>
    <polygon class="st0" points="440 298.2 450.2 300.4 479 272.1 440 298.2"/>
    <polygon class="st0" points="440 298.2 479 272.1 428 286.9 440 298.2"/>
    <polygon class="st0" points="496.6 260.2 479 272.1 504 272.4 496.6 260.2"/>
    <polygon class="st0" points="504 272.4 479 272.1 479.2 304.6 504 272.4"/>
    <polygon class="st0" points="479.2 304.6 479 272.1 450.2 300.4 479.2 304.6"/>
    <polygon class="st0" points="479 272.1 428 286.9 438.1 260.2 479 272.1"/>
    <polygon class="st0" points="438.1 260.2 428 286.9 415.5 276.2 438.1 260.2"/>
    <polygon class="st0" points="428 286.9 415.5 276.2 386.5 299.1 428 286.9"/>
    <polygon class="st0" points="386.5 299.1 419.6 328.5 440 298.2 386.5 299.1"/>
    <polygon class="st0" points="427.9 332.3 472.9 371.7 477 355.8 427.9 332.3"/>
    <polygon class="st0" points="386.5 299.1 415.5 276.2 386.7 260.2 386.5 299.1"/>
    <polygon class="st0" points="356.7 298.6 386.5 299.1 386.7 260.2 356.7 298.6"/>
    <polygon class="st0" points="374.1 337.2 356.7 298.6 321.6 338.1 374.1 337.2"/>
    <polygon class="st0" points="321.6 338.1 356.7 298.6 309.2 305.7 321.6 338.1"/>
    <polygon class="st0" points="321.6 338.1 309.2 305.7 286.1 334.8 321.6 338.1"/>
    <polygon class="st0" points="209.8 260.2 219.3 299.1 189.8 271.7 209.8 260.2"/>
    <polygon class="st0" points="156.3 291 219.3 299.1 224.2 319.3 156.3 291"/>
    <polygon class="st0" points="189.8 271.7 156.3 291 219.3 299.1 189.8 271.7"/>
    <polygon class="st0" points="156.3 291 189.8 271.7 177.4 260.2 156.3 291"/>
    <polygon class="st0" points="104.2 260.2 156.3 291 132.2 269.9 104.2 260.2"/>
    <polygon class="st0" points="540.6 260.2 546.6 250.1 504 248 540.6 260.2"/>
    <polygon class="st0" points="428 233.6 440 222.3 386.5 221.4 428 233.6"/>
    <polygon class="st0" points="309.2 214.7 286.1 185.6 246.5 217.1 309.2 214.7"/>
    <polygon class="st0" points="546.6 270.3 540.6 260.2 504 272.4 546.6 270.3"/>
    <polygon class="st0" points="440 298.2 428 286.9 386.5 299.1 440 298.2"/>
    <polygon class="st0" points="286.1 334.8 309.2 305.7 246.5 303.4 286.1 334.8"/>
  </g>
</svg>