<?xml version="1.0" encoding="UTF-8"?>
<svg xmlns="http://www.w3.org/2000/svg" version="1.1" xmlns:xlink="http://www.w3.org/1999/xlink" viewBox="0 0 738 539">
  <!-- Generator: Adobe Illustrator 30.0.0, SVG Export Plug-In . SVG Version: 2.1.1 Build 123)  -->
  <defs>
    <style>
      .st0 {
        fill: none;
        stroke: #000;
        stroke-miterlimit: 10;
      }
    </style>
  </defs>
  <g id="Layer_2">
    <image width="2949" height="2155" transform="translate(-.6 -.4) scale(.2)" xlink:href="Tê Tê JAVA.png"/>
  </g>
  <g id="Layer_1">
    <rect class="st0" width="738" height="539"/>
    <polygon class="st0" points="123.7 400.5 116.2 390.2 131.9 386.8 123.7 400.5"/>
    <polygon class="st0" points="131.9 386.8 116.2 390.2 127.6 374.3 131.9 386.8"/>
    <polygon class="st0" points="116.2 390.2 107.8 379.3 127.6 374.3 116.2 390.2"/>
    <polygon class="st0" points="127.6 374.3 107.8 379.3 105.8 376.7 127.6 374.3"/>
    <polygon class="st0" points="114.9 416.5 117 412.4 123.3 412.9 114.9 416.5"/>
    <polygon class="st0" points="142 405.3 123.3 412.9 123.7 400.5 142 405.3"/>
    <polygon class="st0" points="142 405.3 123.7 400.5 144.3 400.8 142 405.3"/>
    <polygon class="st0" points="144.3 400.8 123.7 400.5 131.9 386.8 144.3 400.8"/>
    <polygon class="st0" points="123.7 400.5 123.3 412.9 119.2 408.2 123.7 400.5"/>
    <polygon class="st0" points="119.2 408.2 123.3 412.9 117 412.4 119.2 408.2"/>
    <polygon class="st0" points="117 412.4 119.2 408.2 101.7 412.1 117 412.4"/>
    <polygon class="st0" points="136.7 416.6 138.4 413.1 144.9 413.5 136.7 416.6"/>
    <polygon class="st0" points="144.9 413.5 138.4 413.1 142 405.3 144.9 413.5"/>
    <polygon class="st0" points="144.9 413.5 142 405.3 144.3 400.8 144.9 413.5"/>
    <polygon class="st0" points="144.9 413.5 144.3 400.8 164.6 404 144.9 413.5"/>
    <polygon class="st0" points="164.6 404 144.3 400.8 168.1 395.4 164.6 404"/>
    <polygon class="st0" points="138.4 413.1 142 405.3 123.3 412.9 138.4 413.1"/>
    <polygon class="st0" points="172.1 413.6 164.6 404 168.1 395.4 172.1 413.6"/>
    <polygon class="st0" points="172.1 413.6 168.1 395.4 187.5 396.1 172.1 413.6"/>
    <polygon class="st0" points="187.5 396.1 168.1 395.4 189.8 387.5 187.5 396.1"/>
    <polygon class="st0" points="172.1 413.6 164.6 404 144.9 413.5 172.1 413.6"/>
    <polygon class="st0" points="168.1 395.4 156.5 382.6 188.3 375.7 168.1 395.4"/>
    <polygon class="st0" points="188.3 375.7 156.5 382.6 152.7 378.6 188.3 375.7"/>
    <polygon class="st0" points="168.1 395.4 156.5 382.6 144.3 400.8 168.1 395.4"/>
    <polygon class="st0" points="171.9 372.3 201.5 364.6 188.3 375.7 171.9 372.3"/>
    <polygon class="st0" points="189.8 387.5 188.3 375.7 201.5 364.6 189.8 387.5"/>
    <polygon class="st0" points="188.3 375.7 171.9 372.3 152.7 378.6 188.3 375.7"/>
    <polygon class="st0" points="216.3 330.6 205.1 345.8 210 350.8 216.3 330.6"/>
    <polygon class="st0" points="205.1 345.8 216.3 330.6 202.8 336.4 205.1 345.8"/>
    <polygon class="st0" points="205.1 345.8 193.6 359 210 350.8 205.1 345.8"/>
    <polygon class="st0" points="193.6 359 205.1 345.8 196.1 346.8 193.6 359"/>
    <polygon class="st0" points="230 343.9 230.4 337.5 237.4 342.2 230 343.9"/>
    <polygon class="st0" points="230 343.9 237.4 342.2 236 344.2 230 343.9"/>
    <polygon class="st0" points="236 344.2 237.4 342.2 255.9 345.7 236 344.2"/>
    <polygon class="st0" points="255.9 345.7 237.4 342.2 255.9 341.6 255.9 345.7"/>
    <polygon class="st0" points="209.6 375.1 210.1 385.6 226.1 366.2 209.6 375.1"/>
    <polygon class="st0" points="187.5 396.1 209.6 375.1 198.4 396.3 187.5 396.1"/>
    <polygon class="st0" points="198.4 396.3 209.6 375.1 210.1 385.6 198.4 396.3"/>
    <polygon class="st0" points="254.3 386.4 256 372 277.1 370.4 254.3 386.4"/>
    <polygon class="st0" points="277.1 370.4 256 372 271.4 351.4 277.1 370.4"/>
    <polygon class="st0" points="254.3 386.4 244.1 373.9 256 372 254.3 386.4"/>
    <polygon class="st0" points="256 372 244.1 373.9 255.9 345.7 256 372"/>
    <polygon class="st0" points="231.1 389.5 233 369.2 244.1 373.9 231.1 389.5"/>
    <polygon class="st0" points="231.1 389.5 244.1 373.9 254.3 386.4 231.1 389.5"/>
    <polygon class="st0" points="256 372 255.9 345.7 271.4 351.4 256 372"/>
    <polygon class="st0" points="271.4 351.4 255.9 345.7 255.9 341.6 271.4 351.4"/>
    <polygon class="st0" points="255.9 341.6 268.9 321.1 271.4 324.9 255.9 341.6"/>
    <polygon class="st0" points="255.9 341.6 271.4 324.9 271.4 351.4 255.9 341.6"/>
    <polygon class="st0" points="210 350.8 230 343.9 214.3 354.7 210 350.8"/>
    <polygon class="st0" points="226.1 366.2 214.3 354.7 230 343.9 226.1 366.2"/>
    <polygon class="st0" points="226.1 366.2 230 343.9 236 344.2 226.1 366.2"/>
    <polygon class="st0" points="210 350.8 216.3 330.6 230 343.9 210 350.8"/>
    <polygon class="st0" points="230 343.9 216.3 330.6 230.4 337.5 230 343.9"/>
    <polygon class="st0" points="231.3 322.5 230.4 337.5 216.3 330.6 231.3 322.5"/>
    <polygon class="st0" points="205.1 345.8 202.8 336.4 196.1 346.8 205.1 345.8"/>
    <polygon class="st0" points="202.8 336.4 216.3 330.6 223.8 319.8 202.8 336.4"/>
    <polygon class="st0" points="193.6 359 171.9 372.3 201.5 364.6 193.6 359"/>
    <polygon class="st0" points="171.9 372.3 189.5 349.2 193.6 359 171.9 372.3"/>
    <polygon class="st0" points="193.6 359 189.5 349.2 196.1 346.8 193.6 359"/>
    <polygon class="st0" points="187.5 396.1 189.8 387.5 209.6 375.1 187.5 396.1"/>
    <polygon class="st0" points="209.6 375.1 189.8 387.5 201.5 364.6 209.6 375.1"/>
    <polygon class="st0" points="168.1 395.4 189.8 387.5 188.3 375.7 168.1 395.4"/>
    <polygon class="st0" points="172.6 416.5 172.1 413.6 187 406.7 172.6 416.5"/>
    <polygon class="st0" points="172.6 416.5 187 406.7 200 407.8 172.6 416.5"/>
    <polygon class="st0" points="172.1 413.6 187 406.7 187.5 396.1 172.1 413.6"/>
    <polygon class="st0" points="193 401.3 198.4 396.3 200 407.8 193 401.3"/>
    <polygon class="st0" points="200 407.8 198.4 396.3 211.3 396.5 200 407.8"/>
    <polygon class="st0" points="202.8 414.1 200 407.8 211.3 396.5 202.8 414.1"/>
    <polygon class="st0" points="202.8 414.1 211.3 396.5 229.1 397.9 202.8 414.1"/>
    <polygon class="st0" points="233 406.5 229.1 397.9 231.1 389.5 233 406.5"/>
    <polygon class="st0" points="233 406.5 231.1 389.5 254.3 386.4 233 406.5"/>
    <polygon class="st0" points="211.3 396.5 233 369.2 231.1 389.5 211.3 396.5"/>
    <polygon class="st0" points="211.3 396.5 231.1 389.5 229.1 397.9 211.3 396.5"/>
    <polygon class="st0" points="209.6 375.1 226.1 366.2 214.3 354.7 209.6 375.1"/>
    <polygon class="st0" points="211.3 396.5 210.1 385.6 233 369.2 211.3 396.5"/>
    <polygon class="st0" points="233 369.2 210.1 385.6 226.1 366.2 233 369.2"/>
    <polygon class="st0" points="231.3 322.5 243.6 303.8 245.4 320.9 231.3 322.5"/>
    <polygon class="st0" points="231.3 322.5 245.4 320.9 255.9 341.6 231.3 322.5"/>
    <polygon class="st0" points="230.4 337.5 231.3 322.5 237.4 342.2 230.4 337.5"/>
    <polygon class="st0" points="237.4 342.2 231.3 322.5 255.9 341.6 237.4 342.2"/>
    <polygon class="st0" points="152.7 378.6 171.9 372.3 172.1 360.3 152.7 378.6"/>
    <polygon class="st0" points="172.1 360.3 171.9 372.3 189.5 349.2 172.1 360.3"/>
    <polygon class="st0" points="149.7 368.8 172.1 360.3 149.4 366.3 149.7 368.8"/>
    <polygon class="st0" points="172.1 360.3 149.7 368.8 152.7 378.6 172.1 360.3"/>
    <polygon class="st0" points="243.6 303.8 263.6 276.4 244.6 287.7 243.6 303.8"/>
    <polygon class="st0" points="263.6 276.4 243.6 303.8 262 306 263.6 276.4"/>
    <polygon class="st0" points="262 306 243.6 303.8 266.7 311.6 262 306"/>
    <polygon class="st0" points="263.6 276.4 262 306 267.6 285.9 263.6 276.4"/>
    <polygon class="st0" points="277.1 370.4 287.4 371.6 271.4 351.4 277.1 370.4"/>
    <polygon class="st0" points="287.4 371.6 277.1 370.4 277.5 374.9 287.4 371.6"/>
    <polygon class="st0" points="285.7 330.3 306.6 326.6 301.4 312.7 285.7 330.3"/>
    <polygon class="st0" points="306.6 326.6 285.7 330.3 292.2 345.1 306.6 326.6"/>
    <polygon class="st0" points="292.6 307.3 301.4 312.7 312.3 291 292.6 307.3"/>
    <polygon class="st0" points="301.4 312.7 292.6 307.3 285.7 330.3 301.4 312.7"/>
    <polygon class="st0" points="307.6 263.7 288 273.1 308.3 283.2 307.6 263.7"/>
    <polygon class="st0" points="288 273.1 307.6 263.7 285.1 259.2 288 273.1"/>
    <polygon class="st0" points="307.5 260.1 285.1 259.2 307.6 263.7 307.5 260.1"/>
    <polygon class="st0" points="285.1 259.2 307.5 260.1 295.1 243.9 285.1 259.2"/>
    <polygon class="st0" points="308.3 283.2 307.6 263.7 324.9 290.9 308.3 283.2"/>
    <polygon class="st0" points="324.9 290.9 307.6 263.7 307.5 260.1 324.9 290.9"/>
    <polygon class="st0" points="295.1 243.9 260.9 269.7 285.1 259.2 295.1 243.9"/>
    <polygon class="st0" points="260.9 269.7 295.1 243.9 267.6 250.4 260.9 269.7"/>
    <polygon class="st0" points="285.1 259.2 260.9 269.7 288 273.1 285.1 259.2"/>
    <polygon class="st0" points="244.6 287.7 252.7 263.9 234.7 287.8 244.6 287.7"/>
    <polygon class="st0" points="244.6 287.7 252.7 263.9 260.9 269.7 244.6 287.7"/>
    <polygon class="st0" points="260.9 269.7 252.7 263.9 255.7 260.1 260.9 269.7"/>
    <polygon class="st0" points="260.9 269.7 255.7 260.1 267.6 250.4 260.9 269.7"/>
    <polygon class="st0" points="269.9 232.6 291.3 221.6 275.6 234.1 269.9 232.6"/>
    <polygon class="st0" points="275.6 234.1 291.3 221.6 291.9 225.2 275.6 234.1"/>
    <polygon class="st0" points="274.8 236.1 275.6 234.1 295.1 243.9 274.8 236.1"/>
    <polygon class="st0" points="295.1 243.9 275.6 234.1 291.9 225.2 295.1 243.9"/>
    <polygon class="st0" points="269.9 232.6 291.3 221.6 299.7 210.9 269.9 232.6"/>
    <polygon class="st0" points="267.6 250.4 295.1 243.9 274.8 236.1 267.6 250.4"/>
    <polygon class="st0" points="267.6 250.4 248.9 260.6 255.7 260.1 267.6 250.4"/>
    <polygon class="st0" points="248.9 260.6 267.6 250.4 274.8 236.1 248.9 260.6"/>
    <polygon class="st0" points="302.2 404.5 312.7 406.4 313.9 382.8 302.2 404.5"/>
    <polygon class="st0" points="296.9 434.8 302.2 404.5 301.5 432.4 296.9 434.8"/>
    <polygon class="st0" points="301.5 432.4 302.2 404.5 312.7 406.4 301.5 432.4"/>
    <polygon class="st0" points="307.1 428.4 312.7 406.4 301.5 432.4 307.1 428.4"/>
    <polygon class="st0" points="312.7 406.4 307.1 428.4 310.8 432.6 312.7 406.4"/>
    <polygon class="st0" points="326.5 449.4 312.4 462 330 465.9 326.5 449.4"/>
    <polygon class="st0" points="312.4 462 305.5 450.5 326.5 449.4 312.4 462"/>
    <polygon class="st0" points="326.5 449.4 305.5 450.5 322.1 441 326.5 449.4"/>
    <polygon class="st0" points="329.5 453.5 330 465.9 335.2 457.8 329.5 453.5"/>
    <polygon class="st0" points="330 465.9 329.5 453.5 326.5 449.4 330 465.9"/>
    <polygon class="st0" points="329.5 453.5 326.5 449.4 339 446.6 329.5 453.5"/>
    <polygon class="st0" points="329.5 453.5 339 446.6 335.2 457.8 329.5 453.5"/>
    <polygon class="st0" points="363 455.8 365.6 451 359 451.8 363 455.8"/>
    <polygon class="st0" points="366.6 463.8 363 455.8 365.6 451 366.6 463.8"/>
    <polygon class="st0" points="366.6 463.8 365.6 451 374.5 465.9 366.6 463.8"/>
    <polygon class="st0" points="359 451.8 365.6 451 353.1 443.3 359 451.8"/>
    <polygon class="st0" points="343.9 453.3 339 446.6 352 451.1 343.9 453.3"/>
    <polygon class="st0" points="359.8 464.8 351.9 458.9 356.4 452.7 359.8 464.8"/>
    <polygon class="st0" points="356.4 452.7 351.9 458.9 352 451.1 356.4 452.7"/>
    <polygon class="st0" points="359.8 464.8 351.9 458.9 352.5 465.5 359.8 464.8"/>
    <polygon class="st0" points="312.7 406.4 325.8 402 313.9 382.8 312.7 406.4"/>
    <polygon class="st0" points="325.8 402 312.7 406.4 327.9 415 325.8 402"/>
    <polygon class="st0" points="301.2 353.2 329.7 335.2 306.6 326.6 301.2 353.2"/>
    <polygon class="st0" points="301.2 353.2 329.7 335.2 310.8 359.5 301.2 353.2"/>
    <polygon class="st0" points="310.8 359.5 329.7 335.2 331.5 347.9 310.8 359.5"/>
    <polygon class="st0" points="351.7 352.9 337.5 356.1 342.6 377.9 351.7 352.9"/>
    <polygon class="st0" points="337.5 356.1 336.3 350.6 351.7 352.9 337.5 356.1"/>
    <polygon class="st0" points="351.7 352.9 336.3 350.6 352 348.9 351.7 352.9"/>
    <polygon class="st0" points="337.5 356.1 327.9 358.3 342.6 377.9 337.5 356.1"/>
    <polygon class="st0" points="327.9 358.3 337.5 356.1 336.3 350.6 327.9 358.3"/>
    <polygon class="st0" points="351.7 352.9 342.6 377.9 356.8 353.4 351.7 352.9"/>
    <polygon class="st0" points="307.5 260.1 332.1 272.6 307.1 252.3 307.5 260.1"/>
    <polygon class="st0" points="332.1 272.6 307.5 260.1 324.9 290.9 332.1 272.6"/>
    <polygon class="st0" points="318.7 232.3 307.1 252.3 322.9 244.8 318.7 232.3"/>
    <polygon class="st0" points="307.1 252.3 318.7 232.3 295.1 243.9 307.1 252.3"/>
    <polygon class="st0" points="366.8 313.7 345 315.8 376.1 332.5 366.8 313.7"/>
    <polygon class="st0" points="345 315.8 353.6 298.7 366.8 313.7 345 315.8"/>
    <polygon class="st0" points="366.8 313.7 353.6 298.7 368.6 310.7 366.8 313.7"/>
    <polygon class="st0" points="390 349.3 414.4 356.2 414.2 346.4 390 349.3"/>
    <polygon class="st0" points="414.4 356.2 390 349.3 385.1 359.4 414.4 356.2"/>
    <polygon class="st0" points="390 349.3 371.7 353.1 385.1 359.4 390 349.3"/>
    <polygon class="st0" points="371.7 353.1 367.4 345.5 390 349.3 371.7 353.1"/>
    <polygon class="st0" points="390 349.3 367.4 345.5 393.6 343.6 390 349.3"/>
    <polygon class="st0" points="406.3 430.5 403.7 432.5 416 439.9 406.3 430.5"/>
    <polygon class="st0" points="391.4 425.1 400.3 417.9 403.7 432.5 391.4 425.1"/>
    <polygon class="st0" points="403.7 432.5 400.3 417.9 406.3 430.5 403.7 432.5"/>
    <polygon class="st0" points="369.3 451.9 382.5 432.4 391.7 443.4 369.3 451.9"/>
    <polygon class="st0" points="369.3 451.9 391.7 443.4 395.1 456.4 369.3 451.9"/>
    <polygon class="st0" points="401.6 460.3 395.1 456.4 398.4 450.3 401.6 460.3"/>
    <polygon class="st0" points="391.7 443.4 398.4 450.3 395.1 456.4 391.7 443.4"/>
    <polygon class="st0" points="369.3 451.9 382.5 432.4 362.5 432.3 369.3 451.9"/>
    <polygon class="st0" points="406.3 430.5 404.7 418.4 400.3 417.9 406.3 430.5"/>
    <polygon class="st0" points="361.9 390.6 391.2 373.1 375.9 400.8 361.9 390.6"/>
    <polygon class="st0" points="375.9 400.8 391.2 373.1 400.8 388 375.9 400.8"/>
    <polygon class="st0" points="361.9 390.6 357.4 383 363.1 372.5 361.9 390.6"/>
    <polygon class="st0" points="361.9 390.6 363.1 372.5 391.2 373.1 361.9 390.6"/>
    <polygon class="st0" points="391.2 373.1 400.8 388 414.7 370.3 391.2 373.1"/>
    <polygon class="st0" points="433.2 367.3 424.8 357.6 437.8 349.6 433.2 367.3"/>
    <polygon class="st0" points="433.2 367.3 437.8 349.6 448.5 363.9 433.2 367.3"/>
    <polygon class="st0" points="437.8 349.6 424.8 357.6 414.2 346.4 437.8 349.6"/>
    <polygon class="st0" points="437.8 349.6 414.2 346.4 410.9 342.9 437.8 349.6"/>
    <polygon class="st0" points="424.8 357.6 414.2 346.4 414.4 356.2 424.8 357.6"/>
    <polygon class="st0" points="425.8 330.4 437 319.6 435.8 338.7 425.8 330.4"/>
    <polygon class="st0" points="435.8 338.7 437 319.6 444.7 336.4 435.8 338.7"/>
    <polygon class="st0" points="425.8 330.4 437 319.6 416.5 312.2 425.8 330.4"/>
    <polygon class="st0" points="416.5 312.2 437 319.6 450.5 312.4 416.5 312.2"/>
    <polygon class="st0" points="510.8 434.2 518 447.8 518.4 433.5 510.8 434.2"/>
    <polygon class="st0" points="518 447.8 510.8 434.2 500.1 444.4 518 447.8"/>
    <polygon class="st0" points="510.8 434.2 518.4 433.5 508.3 428.3 510.8 434.2"/>
    <polygon class="st0" points="500.1 444.4 491.2 432.6 508.3 428.3 500.1 444.4"/>
    <polygon class="st0" points="500.1 444.4 508.3 428.3 510.8 434.2 500.1 444.4"/>
    <polygon class="st0" points="500.1 444.4 491.2 432.6 485.6 437.6 500.1 444.4"/>
    <polygon class="st0" points="561.6 480.7 553.4 471 558.6 468 561.6 480.7"/>
    <polygon class="st0" points="561.6 480.7 558.6 468 560 467.3 561.6 480.7"/>
    <polygon class="st0" points="553.4 471 551.3 468.6 558.6 468 553.4 471"/>
    <polygon class="st0" points="558.6 468 551.3 468.6 553.8 460.2 558.6 468"/>
    <polygon class="st0" points="547.6 450.4 553.8 460.2 547 460.8 547.6 450.4"/>
    <polygon class="st0" points="558.6 468 553.8 451.8 556.5 458.6 558.6 468"/>
    <polygon class="st0" points="558.6 468 556.5 458.6 560 467.3 558.6 468"/>
    <polygon class="st0" points="558.6 468 553.8 451.8 547.6 450.4 558.6 468"/>
    <polygon class="st0" points="483.4 407 471.5 405 481.4 414.1 483.4 407"/>
    <polygon class="st0" points="471.5 405 483.4 407 488.9 400.6 471.5 405"/>
    <polygon class="st0" points="475.6 385.2 488.4 376.4 484.8 365.7 475.6 385.2"/>
    <polygon class="st0" points="488.4 376.4 475.6 385.2 490.5 386.4 488.4 376.4"/>
    <polygon class="st0" points="490.5 386.4 488.4 376.4 503.2 390.1 490.5 386.4"/>
    <polygon class="st0" points="490.5 386.4 503.2 390.1 499.7 394.1 490.5 386.4"/>
    <polygon class="st0" points="531.7 376 506.6 377.9 519 387.8 531.7 376"/>
    <polygon class="st0" points="506.6 377.9 531.7 376 531.2 371.8 506.6 377.9"/>
    <polygon class="st0" points="484.8 365.7 494.1 353.6 501 366.5 484.8 365.7"/>
    <polygon class="st0" points="502.8 366.5 512.6 358.8 516.4 366.8 502.8 366.5"/>
    <polygon class="st0" points="516.4 366.8 512.6 358.8 517.7 358.1 516.4 366.8"/>
    <polygon class="st0" points="516.4 366.8 502.8 366.5 510 374.1 516.4 366.8"/>
    <polygon class="st0" points="447.5 374.4 471.1 363.5 448.5 363.9 447.5 374.4"/>
    <polygon class="st0" points="471.1 363.5 447.5 374.4 460.2 381.5 471.1 363.5"/>
    <polygon class="st0" points="490.4 346.5 488.8 338.7 478.3 355.1 490.4 346.5"/>
    <polygon class="st0" points="488.8 338.7 490.4 346.5 494.6 342.8 488.8 338.7"/>
    <polygon class="st0" points="488.8 338.7 500.6 333.4 494.6 342.8 488.8 338.7"/>
    <polygon class="st0" points="494.6 342.8 500.6 333.4 501.7 336.2 494.6 342.8"/>
    <polygon class="st0" points="488.8 338.7 500.6 333.4 493 325 488.8 338.7"/>
    <polygon class="st0" points="433.9 265.3 429.5 268.6 441.3 274.8 433.9 265.3"/>
    <polygon class="st0" points="399 271.9 419.4 247.7 429.5 268.6 399 271.9"/>
    <polygon class="st0" points="399 271.9 429.5 268.6 434.6 287.6 399 271.9"/>
    <polygon class="st0" points="419.4 247.7 433.9 265.3 429.5 268.6 419.4 247.7"/>
    <polygon class="st0" points="451.7 253.3 450.9 245.5 487.6 252.4 451.7 253.3"/>
    <polygon class="st0" points="487.6 252.4 450.9 245.5 449.4 235.3 487.6 252.4"/>
    <polygon class="st0" points="450.9 245.5 449.4 235.3 427.6 229.8 450.9 245.5"/>
    <polygon class="st0" points="373.5 172.7 360.6 180.2 389.8 178.3 373.5 172.7"/>
    <polygon class="st0" points="360.6 180.2 373.5 172.7 335.4 180.5 360.6 180.2"/>
    <polygon class="st0" points="373.5 172.7 389.8 178.3 370.1 166.8 373.5 172.7"/>
    <polygon class="st0" points="427.6 229.8 449.4 235.3 450.4 225.4 427.6 229.8"/>
    <polygon class="st0" points="439.7 212.2 476.1 217.6 441.7 203.1 439.7 212.2"/>
    <polygon class="st0" points="476.1 217.6 439.7 212.2 450.4 225.4 476.1 217.6"/>
    <polygon class="st0" points="483.5 197.9 504 197 466.6 185.4 483.5 197.9"/>
    <polygon class="st0" points="504 197 483.5 197.9 509.5 225.6 504 197"/>
    <polygon class="st0" points="479.2 177.3 444.4 161.7 466.1 180.1 479.2 177.3"/>
    <polygon class="st0" points="466.1 180.1 444.4 161.7 457.5 188 466.1 180.1"/>
    <polygon class="st0" points="466.1 180.1 457.5 188 466.6 185.4 466.1 180.1"/>
    <polygon class="st0" points="560.2 449.4 567.8 460.5 567.5 446.5 560.2 449.4"/>
    <polygon class="st0" points="567.8 460.5 560.2 449.4 556.5 458.6 567.8 460.5"/>
    <polygon class="st0" points="567.8 460.5 577.5 441.8 579.4 454.2 567.8 460.5"/>
    <polygon class="st0" points="567.8 460.5 579.4 454.2 573 462.1 567.8 460.5"/>
    <polygon class="st0" points="573 462.1 567.8 460.5 565 469.1 573 462.1"/>
    <polygon class="st0" points="556.5 458.6 553.8 451.8 560.2 449.4 556.5 458.6"/>
    <polygon class="st0" points="560.2 449.4 553.8 451.8 549 448.5 560.2 449.4"/>
    <polygon class="st0" points="560.2 449.4 549 448.5 563.9 428.6 560.2 449.4"/>
    <polygon class="st0" points="560.2 449.4 563.9 428.6 567.5 446.5 560.2 449.4"/>
    <polygon class="st0" points="588.3 464.9 585.5 459.1 591.5 462.8 588.3 464.9"/>
    <polygon class="st0" points="591.5 462.8 585.5 459.1 598.5 452.1 591.5 462.8"/>
    <polygon class="st0" points="598.5 452.1 585.5 459.1 589.5 446.8 598.5 452.1"/>
    <polygon class="st0" points="598.5 452.1 589.5 446.8 595.8 441.5 598.5 452.1"/>
    <polygon class="st0" points="595.8 441.5 589.5 446.8 588.1 438.4 595.8 441.5"/>
    <polygon class="st0" points="563.9 428.6 588.1 438.4 577.5 441.8 563.9 428.6"/>
    <polygon class="st0" points="563.9 428.6 577.5 441.8 567.5 446.5 563.9 428.6"/>
    <polygon class="st0" points="537.3 331.3 550.4 342.7 557.6 329.7 537.3 331.3"/>
    <polygon class="st0" points="522.7 340.9 521.1 334.4 537.3 331.3 522.7 340.9"/>
    <polygon class="st0" points="522.7 340.9 537.3 331.3 550.4 342.7 522.7 340.9"/>
    <polygon class="st0" points="522.7 340.9 521.1 334.4 508.9 324.9 522.7 340.9"/>
    <polygon class="st0" points="493 325 488 316.3 508.9 324.9 493 325"/>
    <polygon class="st0" points="521.1 334.4 508.9 324.9 527.2 325.4 521.1 334.4"/>
    <polygon class="st0" points="527.2 325.4 508.9 324.9 488 316.3 527.2 325.4"/>
    <polygon class="st0" points="508.9 324.9 493 325 506.4 327.5 508.9 324.9"/>
    <polygon class="st0" points="533 254.7 541 270.7 559.6 268.8 533 254.7"/>
    <polygon class="st0" points="541 270.7 533 254.7 541.1 288 541 270.7"/>
    <polygon class="st0" points="588.4 252.3 577.1 260.8 597.1 261.3 588.4 252.3"/>
    <polygon class="st0" points="577.1 260.8 576.3 242.8 588.4 252.3 577.1 260.8"/>
    <polygon class="st0" points="588.4 252.3 576.3 242.8 578.6 238.5 588.4 252.3"/>
    <polygon class="st0" points="584.4 317.7 595.5 339.5 598 324.3 584.4 317.7"/>
    <polygon class="st0" points="595.5 339.5 584.4 317.7 582.6 335.5 595.5 339.5"/>
    <polygon class="st0" points="620 352.5 624.3 350.3 621.2 337 620 352.5"/>
    <polygon class="st0" points="620.3 355.4 620 352.5 624.3 350.3 620.3 355.4"/>
    <polygon class="st0" points="620.3 355.4 624.3 350.3 627 361.9 620.3 355.4"/>
    <polygon class="st0" points="624.3 350.3 628.6 348.2 621.2 337 624.3 350.3"/>
    <polygon class="st0" points="628.6 348.2 624.3 350.3 627 361.9 628.6 348.2"/>
    <polygon class="st0" points="610.7 359.4 613.9 353.9 618.6 356.1 610.7 359.4"/>
    <polygon class="st0" points="618.6 356.1 613.9 353.9 618.4 354.4 618.6 356.1"/>
    <polygon class="st0" points="610.7 359.4 613.9 353.9 610.6 354.8 610.7 359.4"/>
    <polygon class="st0" points="618.4 354.4 611.5 343.1 620 352.5 618.4 354.4"/>
    <polygon class="st0" points="620 352.5 611.5 343.1 614.7 340.8 620 352.5"/>
    <polygon class="st0" points="618.6 356.1 618.4 354.4 620.3 355.4 618.6 356.1"/>
    <polygon class="st0" points="620.3 355.4 618.4 354.4 620 352.5 620.3 355.4"/>
    <polygon class="st0" points="601.7 359.5 604.1 355.4 610.7 359.4 601.7 359.5"/>
    <polygon class="st0" points="610.7 359.4 604.1 355.4 610.6 354.8 610.7 359.4"/>
    <polygon class="st0" points="601.7 359.5 595.8 351.3 604.1 355.4 601.7 359.5"/>
    <polygon class="st0" points="604.1 355.4 595.8 351.3 599.7 349.3 604.1 355.4"/>
    <polygon class="st0" points="595.8 351.3 595.5 339.5 599.7 349.3 595.8 351.3"/>
    <polygon class="st0" points="599.7 349.3 595.5 339.5 600.9 342.9 599.7 349.3"/>
    <polygon class="st0" points="620.3 377.2 621.3 389.5 631.7 392.9 620.3 377.2"/>
    <polygon class="st0" points="621.3 389.5 620.3 377.2 595.8 378.1 621.3 389.5"/>
    <polygon class="st0" points="665.5 414 672.8 402.3 674.9 412.2 665.5 414"/>
    <polygon class="st0" points="674.9 412.2 672.8 402.3 683 402.4 674.9 412.2"/>
    <polygon class="st0" points="665.5 414 672.8 402.3 661.4 395 665.5 414"/>
    <polygon class="st0" points="55.3 409 77.6 408.9 81.1 397.4 55.3 409"/>
    <polygon class="st0" points="77.6 410.8 77.6 408.9 99 395.3 77.6 410.8"/>
    <polygon class="st0" points="99 395.3 77.6 408.9 81.1 397.4 99 395.3"/>
    <polygon class="st0" points="99 395.3 81.1 397.4 87.1 385.7 99 395.3"/>
    <polygon class="st0" points="73.8 391.2 72.1 389.4 87.1 385.7 73.8 391.2"/>
    <polygon class="st0" points="73.8 391.2 87.1 385.7 81.1 397.4 73.8 391.2"/>
    <polygon class="st0" points="77.6 410.8 99 395.3 98.2 410.2 77.6 410.8"/>
    <polygon class="st0" points="98.2 410.2 99 395.3 104.1 403.7 98.2 410.2"/>
    <polygon class="st0" points="95.8 413.3 98.2 410.2 101.7 412.1 95.8 413.3"/>
    <polygon class="st0" points="101.7 412.1 98.2 410.2 104.1 403.7 101.7 412.1"/>
    <polygon class="st0" points="101.7 412.1 104.1 403.7 119.2 408.2 101.7 412.1"/>
    <polygon class="st0" points="119.2 408.2 104.1 403.7 116.2 390.2 119.2 408.2"/>
    <polygon class="st0" points="119.2 408.2 116.2 390.2 123.7 400.5 119.2 408.2"/>
    <polygon class="st0" points="87.1 385.7 86.4 383.9 107.8 379.3 87.1 385.7"/>
    <polygon class="st0" points="87.1 385.7 107.8 379.3 99 395.3 87.1 385.7"/>
    <polygon class="st0" points="104.1 403.7 99 395.3 116.2 390.2 104.1 403.7"/>
    <polygon class="st0" points="116.2 390.2 99 395.3 107.8 379.3 116.2 390.2"/>
    <polygon class="st0" points="131.9 386.8 127.6 374.3 149.7 368.8 131.9 386.8"/>
    <polygon class="st0" points="149.7 368.8 127.6 374.3 126.7 370.9 149.7 368.8"/>
    <polygon class="st0" points="131.9 386.8 149.7 368.8 152.7 378.6 131.9 386.8"/>
    <polygon class="st0" points="131.9 386.8 152.7 378.6 156.5 382.6 131.9 386.8"/>
    <polygon class="st0" points="131.9 386.8 144.3 400.8 156.5 382.6 131.9 386.8"/>
    <polygon class="st0" points="193.6 359 214.3 354.7 201.5 364.6 193.6 359"/>
    <polygon class="st0" points="209.6 375.1 201.5 364.6 214.3 354.7 209.6 375.1"/>
    <polygon class="st0" points="193.6 359 214.3 354.7 210 350.8 193.6 359"/>
    <polygon class="st0" points="223.8 319.8 216.3 330.6 231.3 322.5 223.8 319.8"/>
    <polygon class="st0" points="212.9 322.4 223.6 307.4 223.8 319.8 212.9 322.4"/>
    <polygon class="st0" points="223.8 319.8 223.6 307.4 230 310.4 223.8 319.8"/>
    <polygon class="st0" points="223.6 307.4 234.7 287.8 230 310.4 223.6 307.4"/>
    <polygon class="st0" points="230 310.4 234.7 287.8 244.6 287.7 230 310.4"/>
    <polygon class="st0" points="236 344.2 226.1 366.2 255.9 345.7 236 344.2"/>
    <polygon class="st0" points="231.3 322.5 243.6 303.8 230 310.4 231.3 322.5"/>
    <polygon class="st0" points="230 310.4 243.6 303.8 244.6 287.7 230 310.4"/>
    <polygon class="st0" points="245.4 320.9 243.6 303.8 261.3 316.3 245.4 320.9"/>
    <polygon class="st0" points="261.3 316.3 243.6 303.8 266.7 311.6 261.3 316.3"/>
    <polygon class="st0" points="261.3 316.3 266.7 311.6 268.9 321.1 261.3 316.3"/>
    <polygon class="st0" points="271.4 324.9 268.9 321.1 292.6 307.3 271.4 324.9"/>
    <polygon class="st0" points="292.6 307.3 268.9 321.1 266.7 311.6 292.6 307.3"/>
    <polygon class="st0" points="292.6 307.3 266.7 311.6 262 306 292.6 307.3"/>
    <polygon class="st0" points="255.9 341.6 245.4 320.9 261.3 316.3 255.9 341.6"/>
    <polygon class="st0" points="255.9 341.6 261.3 316.3 268.9 321.1 255.9 341.6"/>
    <polygon class="st0" points="187.5 396.1 187 406.7 193 401.3 187.5 396.1"/>
    <polygon class="st0" points="193 401.3 187 406.7 200 407.8 193 401.3"/>
    <polygon class="st0" points="193 401.3 198.4 396.3 187.5 396.1 193 401.3"/>
    <polygon class="st0" points="210.1 385.6 198.4 396.3 211.3 396.5 210.1 385.6"/>
    <polygon class="st0" points="259.3 397.5 254.3 386.4 277.5 374.9 259.3 397.5"/>
    <polygon class="st0" points="277.5 374.9 254.3 386.4 277.1 370.4 277.5 374.9"/>
    <polygon class="st0" points="267.6 285.9 262 306 285.2 288.6 267.6 285.9"/>
    <polygon class="st0" points="267.6 285.9 263.6 276.4 288 273.1 267.6 285.9"/>
    <polygon class="st0" points="267.6 285.9 288 273.1 285.2 288.6 267.6 285.9"/>
    <polygon class="st0" points="288 273.1 263.6 276.4 260.9 269.7 288 273.1"/>
    <polygon class="st0" points="244.6 287.7 263.6 276.4 260.9 269.7 244.6 287.7"/>
    <polygon class="st0" points="271.4 351.4 271.4 324.9 285.7 330.3 271.4 351.4"/>
    <polygon class="st0" points="271.4 351.4 285.7 330.3 292.2 345.1 271.4 351.4"/>
    <polygon class="st0" points="292.2 345.1 271.4 351.4 287.4 371.6 292.2 345.1"/>
    <polygon class="st0" points="271.4 324.9 285.7 330.3 292.6 307.3 271.4 324.9"/>
    <polygon class="st0" points="287.4 371.6 292.2 345.1 301.2 353.2 287.4 371.6"/>
    <polygon class="st0" points="287.4 371.6 301.2 353.2 305.2 359.4 287.4 371.6"/>
    <polygon class="st0" points="279.2 379.5 287.4 371.6 277.5 374.9 279.2 379.5"/>
    <polygon class="st0" points="262 306 292.6 307.3 285.2 288.6 262 306"/>
    <polygon class="st0" points="292.6 307.3 285.2 288.6 312.3 291 292.6 307.3"/>
    <polygon class="st0" points="312.3 291 285.2 288.6 308.3 283.2 312.3 291"/>
    <polygon class="st0" points="308.3 283.2 285.2 288.6 288 273.1 308.3 283.2"/>
    <polygon class="st0" points="312.3 291 301.4 312.7 326.1 309.9 312.3 291"/>
    <polygon class="st0" points="301.4 312.7 306.6 326.6 326.1 309.9 301.4 312.7"/>
    <polygon class="st0" points="306.6 326.6 292.2 345.1 301.2 353.2 306.6 326.6"/>
    <polygon class="st0" points="308.3 283.2 312.3 291 324.9 290.9 308.3 283.2"/>
    <polygon class="st0" points="295.1 243.9 307.5 260.1 307.1 252.3 295.1 243.9"/>
    <polygon class="st0" points="291.3 221.6 299.7 210.9 318 219.1 291.3 221.6"/>
    <polygon class="st0" points="318 219.1 299.7 210.9 303.4 206.2 318 219.1"/>
    <polygon class="st0" points="295.1 243.9 291.9 225.2 318 219.1 295.1 243.9"/>
    <polygon class="st0" points="318 219.1 291.9 225.2 291.3 221.6 318 219.1"/>
    <polygon class="st0" points="318 219.1 295.1 243.9 318.7 232.3 318 219.1"/>
    <polygon class="st0" points="287.4 371.6 292.5 392.5 305.2 359.4 287.4 371.6"/>
    <polygon class="st0" points="292.5 392.5 299.8 389 305.2 359.4 292.5 392.5"/>
    <polygon class="st0" points="299.8 389 297.2 410.3 302.2 404.5 299.8 389"/>
    <polygon class="st0" points="302.3 450.6 301.5 432.4 305.5 450.5 302.3 450.6"/>
    <polygon class="st0" points="305.5 450.5 301.5 432.4 310.8 432.6 305.5 450.5"/>
    <polygon class="st0" points="310.8 432.6 301.5 432.4 307.1 428.4 310.8 432.6"/>
    <polygon class="st0" points="330 465.9 339.8 470.1 338.2 465.8 330 465.9"/>
    <polygon class="st0" points="338.2 465.8 335.2 457.8 344 465.4 338.2 465.8"/>
    <polygon class="st0" points="344 465.4 335.2 457.8 343.9 453.3 344 465.4"/>
    <polygon class="st0" points="344 465.4 353.9 469.3 352.5 465.5 344 465.4"/>
    <polygon class="st0" points="359.8 464.8 363 455.8 366.6 463.8 359.8 464.8"/>
    <polygon class="st0" points="359.8 464.8 366.6 463.8 369.5 470.2 359.8 464.8"/>
    <polygon class="st0" points="326.5 449.4 346.7 434 339 446.6 326.5 449.4"/>
    <polygon class="st0" points="353.1 443.3 339 446.6 346.7 434 353.1 443.3"/>
    <polygon class="st0" points="346.7 434 346.2 415.3 327.9 415 346.7 434"/>
    <polygon class="st0" points="346.2 415.3 351.1 395.4 337.7 398.2 346.2 415.3"/>
    <polygon class="st0" points="351.1 395.4 357.4 383 342.6 377.9 351.1 395.4"/>
    <polygon class="st0" points="305.2 359.4 313.9 382.8 322.2 368.3 305.2 359.4"/>
    <polygon class="st0" points="313.9 382.8 305.2 359.4 299.8 389 313.9 382.8"/>
    <polygon class="st0" points="313.9 382.8 299.8 389 302.2 404.5 313.9 382.8"/>
    <polygon class="st0" points="327.9 415 312.7 406.4 310.8 432.6 327.9 415"/>
    <polygon class="st0" points="305.5 450.5 310.8 432.6 322.1 441 305.5 450.5"/>
    <polygon class="st0" points="322.1 441 310.8 432.6 327.9 415 322.1 441"/>
    <polygon class="st0" points="326.5 449.4 322.1 441 346.7 434 326.5 449.4"/>
    <polygon class="st0" points="346.7 434 322.1 441 327.9 415 346.7 434"/>
    <polygon class="st0" points="338.2 465.8 335.2 457.8 330 465.9 338.2 465.8"/>
    <polygon class="st0" points="339 446.6 353.1 443.3 356.4 452.7 339 446.6"/>
    <polygon class="st0" points="356.4 452.7 353.1 443.3 359 451.8 356.4 452.7"/>
    <polygon class="st0" points="359.8 464.8 356.4 452.7 363 455.8 359.8 464.8"/>
    <polygon class="st0" points="363 455.8 356.4 452.7 359 451.8 363 455.8"/>
    <polygon class="st0" points="343.9 453.3 339 446.6 335.2 457.8 343.9 453.3"/>
    <polygon class="st0" points="343.9 453.3 351.9 458.9 352 451.1 343.9 453.3"/>
    <polygon class="st0" points="344 465.4 343.9 453.3 351.9 458.9 344 465.4"/>
    <polygon class="st0" points="344 465.4 351.9 458.9 352.5 465.5 344 465.4"/>
    <polygon class="st0" points="327.9 415 346.2 415.3 337.7 398.2 327.9 415"/>
    <polygon class="st0" points="327.9 415 337.7 398.2 325.8 402 327.9 415"/>
    <polygon class="st0" points="325.8 402 342.1 378.8 337.7 398.2 325.8 402"/>
    <polygon class="st0" points="351.1 395.4 337.7 398.2 342.1 378.8 351.1 395.4"/>
    <polygon class="st0" points="351.1 395.4 342.1 378.8 342.6 377.9 351.1 395.4"/>
    <polygon class="st0" points="342.1 378.8 342.6 377.9 340.8 378.2 342.1 378.8"/>
    <polygon class="st0" points="325.8 402 313.9 382.8 340.8 378.2 325.8 402"/>
    <polygon class="st0" points="325.8 402 340.8 378.2 342.1 378.8 325.8 402"/>
    <polygon class="st0" points="313.9 382.8 340.8 378.2 322.2 368.3 313.9 382.8"/>
    <polygon class="st0" points="322.2 368.3 327.9 358.3 340.8 378.2 322.2 368.3"/>
    <polygon class="st0" points="340.8 378.2 327.9 358.3 342.6 377.9 340.8 378.2"/>
    <polygon class="st0" points="342.6 377.9 363.1 372.5 356.8 353.4 342.6 377.9"/>
    <polygon class="st0" points="363.1 372.5 342.6 377.9 357.4 383 363.1 372.5"/>
    <polygon class="st0" points="305.2 359.4 310.8 359.5 322.2 368.3 305.2 359.4"/>
    <polygon class="st0" points="322.2 368.3 310.8 359.5 327.9 358.3 322.2 368.3"/>
    <polygon class="st0" points="327.9 358.3 336.3 350.6 331.5 347.9 327.9 358.3"/>
    <polygon class="st0" points="310.8 359.5 327.9 358.3 331.5 347.9 310.8 359.5"/>
    <polygon class="st0" points="310.8 359.5 301.2 353.2 305.2 359.4 310.8 359.5"/>
    <polygon class="st0" points="306.6 326.6 329.7 335.2 331.9 324.3 306.6 326.6"/>
    <polygon class="st0" points="329.7 335.2 331.5 347.9 347.1 330.9 329.7 335.2"/>
    <polygon class="st0" points="331.5 347.9 349.9 342.6 336.3 350.6 331.5 347.9"/>
    <polygon class="st0" points="336.3 350.6 349.9 342.6 352 348.9 336.3 350.6"/>
    <polygon class="st0" points="352 348.9 351.7 352.9 356.8 353.4 352 348.9"/>
    <polygon class="st0" points="352 348.9 349.9 342.6 367.4 345.5 352 348.9"/>
    <polygon class="st0" points="367.4 345.5 349.9 342.6 347.1 330.9 367.4 345.5"/>
    <polygon class="st0" points="349.9 342.6 347.1 330.9 331.5 347.9 349.9 342.6"/>
    <polygon class="st0" points="347.1 330.9 331.9 324.3 329.7 335.2 347.1 330.9"/>
    <polygon class="st0" points="331.9 324.3 326.1 309.9 345 315.8 331.9 324.3"/>
    <polygon class="st0" points="331.9 324.3 345 315.8 347.1 330.9 331.9 324.3"/>
    <polygon class="st0" points="347.1 330.9 345 315.8 376.1 332.5 347.1 330.9"/>
    <polygon class="st0" points="334.2 304.5 345 315.8 326.1 309.9 334.2 304.5"/>
    <polygon class="st0" points="331.9 324.3 326.1 309.9 306.6 326.6 331.9 324.3"/>
    <polygon class="st0" points="326.1 309.9 334.2 304.5 327 300 326.1 309.9"/>
    <polygon class="st0" points="327 300 345.2 281.3 334.2 304.5 327 300"/>
    <polygon class="st0" points="334.2 304.5 345.2 281.3 353.6 298.7 334.2 304.5"/>
    <polygon class="st0" points="327 300 324.9 290.9 312.3 291 327 300"/>
    <polygon class="st0" points="327 300 324.9 290.9 332.1 272.6 327 300"/>
    <polygon class="st0" points="327 300 332.1 272.6 334.8 265.7 327 300"/>
    <polygon class="st0" points="312.3 291 326.1 309.9 327 300 312.3 291"/>
    <polygon class="st0" points="307.1 252.3 332.1 272.6 328.9 262.8 307.1 252.3"/>
    <polygon class="st0" points="318.7 232.3 318 219.1 345.1 210.6 318.7 232.3"/>
    <polygon class="st0" points="345.1 210.6 318 219.1 317 212.3 345.1 210.6"/>
    <polygon class="st0" points="345.1 210.6 317 212.3 316.5 206.4 345.1 210.6"/>
    <polygon class="st0" points="298.4 203.5 303.4 206.2 332.1 189.2 298.4 203.5"/>
    <polygon class="st0" points="331 194.1 332.1 189.2 360.6 180.2 331 194.1"/>
    <polygon class="st0" points="360.6 180.2 332.1 189.2 335.4 180.5 360.6 180.2"/>
    <polygon class="st0" points="331 194.1 332.1 189.2 316.5 206.4 331 194.1"/>
    <polygon class="st0" points="331 194.1 316.5 206.4 345.1 210.6 331 194.1"/>
    <polygon class="st0" points="317 212.3 316.5 206.4 303.4 206.2 317 212.3"/>
    <polygon class="st0" points="317 212.3 303.4 206.2 318 219.1 317 212.3"/>
    <polygon class="st0" points="303.4 206.2 316.5 206.4 332.1 189.2 303.4 206.2"/>
    <polygon class="st0" points="318.7 232.3 345.1 210.6 346.3 217.7 318.7 232.3"/>
    <polygon class="st0" points="318.7 232.3 346.3 217.7 330.5 241.1 318.7 232.3"/>
    <polygon class="st0" points="330.5 241.1 318.7 232.3 322.9 244.8 330.5 241.1"/>
    <polygon class="st0" points="330.5 241.1 334.8 265.7 346.6 248.2 330.5 241.1"/>
    <polygon class="st0" points="328.9 262.8 322.9 244.8 330.5 241.1 328.9 262.8"/>
    <polygon class="st0" points="328.9 262.8 330.5 241.1 334.8 265.7 328.9 262.8"/>
    <polygon class="st0" points="332.1 272.6 328.9 262.8 334.1 267.1 332.1 272.6"/>
    <polygon class="st0" points="334.8 265.7 334.1 267.1 328.9 262.8 334.8 265.7"/>
    <polygon class="st0" points="328.9 262.8 322.9 244.8 307.1 252.3 328.9 262.8"/>
    <polygon class="st0" points="346.3 217.7 330.5 241.1 355.7 234.5 346.3 217.7"/>
    <polygon class="st0" points="346.3 217.7 345.1 210.6 360.1 200.4 346.3 217.7"/>
    <polygon class="st0" points="360.1 200.4 345.1 210.6 344.2 196.8 360.1 200.4"/>
    <polygon class="st0" points="331 194.1 345.1 210.6 344.2 196.8 331 194.1"/>
    <polygon class="st0" points="360.6 180.2 331 194.1 344.2 196.8 360.6 180.2"/>
    <polygon class="st0" points="344.2 196.8 360.6 180.2 360.1 200.4 344.2 196.8"/>
    <polygon class="st0" points="375.9 204 360.1 200.4 360.6 180.2 375.9 204"/>
    <polygon class="st0" points="375.9 204 360.1 200.4 346.3 217.7 375.9 204"/>
    <polygon class="st0" points="375.9 204 346.3 217.7 355.7 234.5 375.9 204"/>
    <polygon class="st0" points="355.7 234.5 330.5 241.1 346.6 248.2 355.7 234.5"/>
    <polygon class="st0" points="346.6 248.2 361.7 254.8 355.7 234.5 346.6 248.2"/>
    <polygon class="st0" points="361.7 254.8 346.6 248.2 334.8 265.7 361.7 254.8"/>
    <polygon class="st0" points="355.7 234.5 361.7 254.8 370.3 242.5 355.7 234.5"/>
    <polygon class="st0" points="361.7 254.8 334.8 265.7 345.2 281.3 361.7 254.8"/>
    <polygon class="st0" points="361.7 254.8 345.2 281.3 371.6 271 361.7 254.8"/>
    <polygon class="st0" points="345.2 281.3 334.8 265.7 327 300 345.2 281.3"/>
    <polygon class="st0" points="353.6 298.7 345.2 281.3 378.7 292.2 353.6 298.7"/>
    <polygon class="st0" points="353.6 298.7 378.7 292.2 368.6 310.7 353.6 298.7"/>
    <polygon class="st0" points="345 315.8 353.6 298.7 334.2 304.5 345 315.8"/>
    <polygon class="st0" points="378.7 292.2 368.6 310.7 386.3 302.4 378.7 292.2"/>
    <polygon class="st0" points="345.2 281.3 378.7 292.2 371.6 271 345.2 281.3"/>
    <polygon class="st0" points="361.7 254.8 371.6 271 387.9 250.3 361.7 254.8"/>
    <polygon class="st0" points="371.6 271 378.7 292.2 402 280 371.6 271"/>
    <polygon class="st0" points="402 280 378.7 292.2 406.6 294.7 402 280"/>
    <polygon class="st0" points="371.6 271 402 280 399 271.9 371.6 271"/>
    <polygon class="st0" points="387.9 250.3 371.6 271 399 271.9 387.9 250.3"/>
    <polygon class="st0" points="361.7 254.8 387.9 250.3 370.3 242.5 361.7 254.8"/>
    <polygon class="st0" points="370.3 242.5 376.3 210.4 382.7 232.4 370.3 242.5"/>
    <polygon class="st0" points="370.3 242.5 382.7 232.4 387.9 250.3 370.3 242.5"/>
    <polygon class="st0" points="355.7 234.5 370.3 242.5 376.3 210.4 355.7 234.5"/>
    <polygon class="st0" points="376.3 210.4 375.9 204 355.7 234.5 376.3 210.4"/>
    <polygon class="st0" points="376.3 210.4 375.9 204 406.7 203.5 376.3 210.4"/>
    <polygon class="st0" points="406.7 203.5 375.9 204 376 190.4 406.7 203.5"/>
    <polygon class="st0" points="389.9 226.4 376.3 210.4 405.5 213.2 389.9 226.4"/>
    <polygon class="st0" points="405.5 213.2 376.3 210.4 406.7 203.5 405.5 213.2"/>
    <polygon class="st0" points="405.5 213.2 406.7 203.5 419.1 189.6 405.5 213.2"/>
    <polygon class="st0" points="419.1 189.6 406.7 203.5 407.7 196 419.1 189.6"/>
    <polygon class="st0" points="382.7 232.4 389.9 226.4 412.7 231 382.7 232.4"/>
    <polygon class="st0" points="412.7 231 389.9 226.4 405.5 213.2 412.7 231"/>
    <polygon class="st0" points="389.9 226.4 376.3 210.4 382.7 232.4 389.9 226.4"/>
    <polygon class="st0" points="382.7 232.4 387.9 250.3 419.4 247.7 382.7 232.4"/>
    <polygon class="st0" points="419.4 247.7 387.9 250.3 399 271.9 419.4 247.7"/>
    <polygon class="st0" points="382.7 232.4 419.4 247.7 412.7 231 382.7 232.4"/>
    <polygon class="st0" points="412.7 231 427.6 229.8 405.5 213.2 412.7 231"/>
    <polygon class="st0" points="427.6 229.8 412.7 231 419.4 247.7 427.6 229.8"/>
    <polygon class="st0" points="405.5 213.2 427.6 229.8 439.7 212.2 405.5 213.2"/>
    <polygon class="st0" points="427.6 229.8 419.4 247.7 450.9 245.5 427.6 229.8"/>
    <polygon class="st0" points="433.9 265.3 419.4 247.7 450.9 245.5 433.9 265.3"/>
    <polygon class="st0" points="433.9 265.3 450.9 245.5 451.7 253.3 433.9 265.3"/>
    <polygon class="st0" points="441.3 274.8 433.9 265.3 451.7 253.3 441.3 274.8"/>
    <polygon class="st0" points="441.3 274.8 451.7 253.3 469.8 289.7 441.3 274.8"/>
    <polygon class="st0" points="399 271.9 402 280 434.6 287.6 399 271.9"/>
    <polygon class="st0" points="416.5 312.2 418.5 309.3 450.5 312.4 416.5 312.2"/>
    <polygon class="st0" points="450.5 312.4 418.5 309.3 434.6 287.6 450.5 312.4"/>
    <polygon class="st0" points="418.5 309.3 434.6 287.6 406.6 294.7 418.5 309.3"/>
    <polygon class="st0" points="408.5 323.4 406.6 294.7 416.5 312.2 408.5 323.4"/>
    <polygon class="st0" points="416.5 312.2 406.6 294.7 418.5 309.3 416.5 312.2"/>
    <polygon class="st0" points="402 280 406.6 294.7 434.6 287.6 402 280"/>
    <polygon class="st0" points="391.2 316.4 395.9 309.2 408.5 323.4 391.2 316.4"/>
    <polygon class="st0" points="408.5 323.4 395.9 309.2 406.6 294.7 408.5 323.4"/>
    <polygon class="st0" points="386.3 302.4 378.7 292.2 406.6 294.7 386.3 302.4"/>
    <polygon class="st0" points="386.3 302.4 406.6 294.7 395.9 309.2 386.3 302.4"/>
    <polygon class="st0" points="366.8 313.7 368.6 310.7 395.9 309.2 366.8 313.7"/>
    <polygon class="st0" points="395.9 309.2 368.6 310.7 386.3 302.4 395.9 309.2"/>
    <polygon class="st0" points="366.8 313.7 376.1 332.5 399.8 334.7 366.8 313.7"/>
    <polygon class="st0" points="366.8 313.7 395.9 309.2 391.2 316.4 366.8 313.7"/>
    <polygon class="st0" points="366.8 313.7 391.2 316.4 399.8 334.7 366.8 313.7"/>
    <polygon class="st0" points="399.8 334.7 391.2 316.4 408.5 323.4 399.8 334.7"/>
    <polygon class="st0" points="399.8 334.7 408.5 323.4 425.8 330.4 399.8 334.7"/>
    <polygon class="st0" points="347.1 330.9 367.4 345.5 376.1 332.5 347.1 330.9"/>
    <polygon class="st0" points="352 348.9 367.4 345.5 356.8 353.4 352 348.9"/>
    <polygon class="st0" points="356.8 353.4 367.4 345.5 371.7 353.1 356.8 353.4"/>
    <polygon class="st0" points="371.7 353.1 356.8 353.4 363.1 372.5 371.7 353.1"/>
    <polygon class="st0" points="363.1 372.5 385.1 359.4 371.7 353.1 363.1 372.5"/>
    <polygon class="st0" points="363.1 372.5 385.1 359.4 391.2 373.1 363.1 372.5"/>
    <polygon class="st0" points="391.2 373.1 385.1 359.4 414.4 356.2 391.2 373.1"/>
    <polygon class="st0" points="414.4 356.2 391.2 373.1 414.7 370.3 414.4 356.2"/>
    <polygon class="st0" points="390 349.3 393.6 343.6 410.9 342.9 390 349.3"/>
    <polygon class="st0" points="390 349.3 410.9 342.9 414.2 346.4 390 349.3"/>
    <polygon class="st0" points="425.8 330.4 410.9 342.9 399.8 334.7 425.8 330.4"/>
    <polygon class="st0" points="399.8 334.7 410.9 342.9 393.6 343.6 399.8 334.7"/>
    <polygon class="st0" points="361.9 390.6 357.8 413.1 366.8 406.9 361.9 390.6"/>
    <polygon class="st0" points="361.2 434.7 357.8 413.1 362.5 432.3 361.2 434.7"/>
    <polygon class="st0" points="362.5 432.3 357.8 413.1 366.8 406.9 362.5 432.3"/>
    <polygon class="st0" points="398.4 450.3 391.7 443.4 405 449.8 398.4 450.3"/>
    <polygon class="st0" points="405 449.8 391.7 443.4 382.5 432.4 405 449.8"/>
    <polygon class="st0" points="362.5 432.3 382.5 432.4 375.9 400.8 362.5 432.3"/>
    <polygon class="st0" points="362.5 432.3 375.9 400.8 366.8 406.9 362.5 432.3"/>
    <polygon class="st0" points="366.8 406.9 375.9 400.8 361.9 390.6 366.8 406.9"/>
    <polygon class="st0" points="400.8 388 375.9 400.8 382.5 432.4 400.8 388"/>
    <polygon class="st0" points="382.5 432.4 400.8 388 391.4 425.1 382.5 432.4"/>
    <polygon class="st0" points="400.3 417.9 391.4 425.1 400.8 388 400.3 417.9"/>
    <polygon class="st0" points="382.5 432.4 391.4 425.1 403.7 432.5 382.5 432.4"/>
    <polygon class="st0" points="382.5 432.4 403.7 432.5 415.6 442.7 382.5 432.4"/>
    <polygon class="st0" points="415.6 442.7 403.7 432.5 416 439.9 415.6 442.7"/>
    <polygon class="st0" points="415.6 442.7 382.5 432.4 403.9 442.5 415.6 442.7"/>
    <polygon class="st0" points="415.6 442.7 416 439.9 423.7 444.6 415.6 442.7"/>
    <polygon class="st0" points="415.6 442.7 423.7 444.6 420 446.8 415.6 442.7"/>
    <polygon class="st0" points="420 446.8 415.6 442.7 416.5 451.8 420 446.8"/>
    <polygon class="st0" points="425.8 459.1 420 446.8 416.5 451.8 425.8 459.1"/>
    <polygon class="st0" points="403.9 442.5 415.6 442.7 415.8 452.8 403.9 442.5"/>
    <polygon class="st0" points="415.8 452.8 415.6 442.7 416.5 451.8 415.8 452.8"/>
    <polygon class="st0" points="416.3 460 415.8 452.8 405.8 454.6 416.3 460"/>
    <polygon class="st0" points="400.8 388 414.7 370.3 409 396 400.8 388"/>
    <polygon class="st0" points="410.9 398 409 396 419.3 369.3 410.9 398"/>
    <polygon class="st0" points="419.3 369.3 409 396 414.7 370.3 419.3 369.3"/>
    <polygon class="st0" points="414.7 370.3 414.4 356.2 419.3 369.3 414.7 370.3"/>
    <polygon class="st0" points="419.3 369.3 414.4 356.2 424.8 357.6 419.3 369.3"/>
    <polygon class="st0" points="433.2 367.3 424.8 357.6 419.3 369.3 433.2 367.3"/>
    <polygon class="st0" points="410.9 342.9 425.8 330.4 433.8 343.1 410.9 342.9"/>
    <polygon class="st0" points="433.8 343.1 425.8 330.4 435.8 338.7 433.8 343.1"/>
    <polygon class="st0" points="408.5 323.4 425.8 330.4 416.5 312.2 408.5 323.4"/>
    <polygon class="st0" points="434.6 287.6 450.5 312.4 449.3 302.1 434.6 287.6"/>
    <polygon class="st0" points="444.7 336.4 435.8 338.7 433.8 343.1 444.7 336.4"/>
    <polygon class="st0" points="448.5 363.9 437.8 349.6 444.7 336.4 448.5 363.9"/>
    <polygon class="st0" points="444.7 336.4 437.8 349.6 433.8 343.1 444.7 336.4"/>
    <polygon class="st0" points="437.8 349.6 433.8 343.1 410.9 342.9 437.8 349.6"/>
    <polygon class="st0" points="442.3 394.2 452 392.9 461.6 410.4 442.3 394.2"/>
    <polygon class="st0" points="461.6 410.4 452 392.9 468.4 397.1 461.6 410.4"/>
    <polygon class="st0" points="461.6 410.4 468.4 397.1 471.5 405 461.6 410.4"/>
    <polygon class="st0" points="481.1 364.4 460.2 381.5 471.1 363.5 481.1 364.4"/>
    <polygon class="st0" points="448.5 363.9 447.5 374.4 437.4 370.6 448.5 363.9"/>
    <polygon class="st0" points="437.4 370.6 447.5 374.4 432.3 373.7 437.4 370.6"/>
    <polygon class="st0" points="447.5 374.4 460.2 381.5 455.7 385.2 447.5 374.4"/>
    <polygon class="st0" points="455.7 385.2 468.4 397.1 452 392.9 455.7 385.2"/>
    <polygon class="st0" points="437.4 370.6 448.5 363.9 433.2 367.3 437.4 370.6"/>
    <polygon class="st0" points="461.6 410.4 455.5 413.8 468.9 413.9 461.6 410.4"/>
    <polygon class="st0" points="455.5 413.8 468.9 413.9 474.5 425.9 455.5 413.8"/>
    <polygon class="st0" points="474.5 425.9 468.9 413.9 479.8 419.2 474.5 425.9"/>
    <polygon class="st0" points="474.5 425.9 468.6 429.4 485.6 437.6 474.5 425.9"/>
    <polygon class="st0" points="485.6 437.6 494.1 456.6 500.1 444.4 485.6 437.6"/>
    <polygon class="st0" points="494.1 456.6 502.4 462.8 504.6 459.8 494.1 456.6"/>
    <polygon class="st0" points="502.4 462.8 507.1 470.1 518.2 464 502.4 462.8"/>
    <polygon class="st0" points="507.1 470.1 526.1 472.2 518.2 464 507.1 470.1"/>
    <polygon class="st0" points="526.1 472.2 530.3 479.7 527.3 462.2 526.1 472.2"/>
    <polygon class="st0" points="530.3 479.7 531.9 472.3 527.3 462.2 530.3 479.7"/>
    <polygon class="st0" points="531.9 472.3 527.3 462.2 541.4 469.8 531.9 472.3"/>
    <polygon class="st0" points="541.4 469.8 527.3 462.2 518 447.8 541.4 469.8"/>
    <polygon class="st0" points="541.4 469.8 550.7 480.7 551.3 468.6 541.4 469.8"/>
    <polygon class="st0" points="531.8 437 549 448.5 547.6 450.4 531.8 437"/>
    <polygon class="st0" points="547.6 450.4 549 448.5 553.8 451.8 547.6 450.4"/>
    <polygon class="st0" points="531.8 437 523.3 410.8 547.6 431 531.8 437"/>
    <polygon class="st0" points="531.8 437 547.6 431 549 448.5 531.8 437"/>
    <polygon class="st0" points="531.7 376 538.2 401.6 519 387.8 531.7 376"/>
    <polygon class="st0" points="519 387.8 538.2 401.6 523.3 410.8 519 387.8"/>
    <polygon class="st0" points="523.3 410.8 538.2 401.6 547.6 431 523.3 410.8"/>
    <polygon class="st0" points="531.8 437 518.8 419.5 523.3 410.8 531.8 437"/>
    <polygon class="st0" points="519 387.8 523.3 410.8 515.4 404.1 519 387.8"/>
    <polygon class="st0" points="513.7 412 515.4 404.1 523.3 410.8 513.7 412"/>
    <polygon class="st0" points="513.7 412 523.3 410.8 518.8 419.5 513.7 412"/>
    <polygon class="st0" points="519 387.8 499.7 394.1 507 403.2 519 387.8"/>
    <polygon class="st0" points="499.7 394.1 519 387.8 503.2 390.1 499.7 394.1"/>
    <polygon class="st0" points="483.4 407 488.9 400.6 500.8 409 483.4 407"/>
    <polygon class="st0" points="500.8 409 488.9 400.6 499.7 394.1 500.8 409"/>
    <polygon class="st0" points="488.9 400.6 499.7 394.1 478.5 394.9 488.9 400.6"/>
    <polygon class="st0" points="479.8 419.2 481.4 414.1 486.5 416.5 479.8 419.2"/>
    <polygon class="st0" points="486.5 416.5 481.4 414.1 483.4 407 486.5 416.5"/>
    <polygon class="st0" points="461.6 410.4 471.5 405 468.9 413.9 461.6 410.4"/>
    <polygon class="st0" points="468.9 413.9 471.5 405 481.4 414.1 468.9 413.9"/>
    <polygon class="st0" points="468.9 413.9 479.8 419.2 481.4 414.1 468.9 413.9"/>
    <polygon class="st0" points="479.8 419.2 474.5 425.9 485.6 437.6 479.8 419.2"/>
    <polygon class="st0" points="500.8 409 483.4 407 486.5 416.5 500.8 409"/>
    <polygon class="st0" points="499.7 394.1 500.8 409 507 403.2 499.7 394.1"/>
    <polygon class="st0" points="507 403.2 513.7 412 515.4 404.1 507 403.2"/>
    <polygon class="st0" points="513.7 412 507 403.2 500.8 409 513.7 412"/>
    <polygon class="st0" points="515.4 404.1 519 387.8 507 403.2 515.4 404.1"/>
    <polygon class="st0" points="500.8 409 500.2 423.1 513.7 412 500.8 409"/>
    <polygon class="st0" points="485.6 437.6 500.8 409 491.2 432.6 485.6 437.6"/>
    <polygon class="st0" points="491.2 432.6 500.8 409 500.2 423.1 491.2 432.6"/>
    <polygon class="st0" points="500.2 423.1 504.8 419.4 508.3 428.3 500.2 423.1"/>
    <polygon class="st0" points="513.7 412 511.2 419.6 504.8 419.4 513.7 412"/>
    <polygon class="st0" points="518.8 419.5 513.7 412 511.2 419.6 518.8 419.5"/>
    <polygon class="st0" points="518 447.8 518.4 433.5 531.8 437 518 447.8"/>
    <polygon class="st0" points="531.8 437 518.4 433.5 518.8 419.5 531.8 437"/>
    <polygon class="st0" points="518 447.8 531.8 437 534.8 445.4 518 447.8"/>
    <polygon class="st0" points="518 447.8 534.8 445.4 524.8 454.2 518 447.8"/>
    <polygon class="st0" points="541.4 469.8 524.8 454.2 542.7 453.1 541.4 469.8"/>
    <polygon class="st0" points="518.4 433.5 518.8 419.5 508.3 428.3 518.4 433.5"/>
    <polygon class="st0" points="508.3 428.3 518.8 419.5 511.2 419.6 508.3 428.3"/>
    <polygon class="st0" points="504.8 419.4 508.3 428.3 511.2 419.6 504.8 419.4"/>
    <polygon class="st0" points="491.2 432.6 508.3 428.3 500.2 423.1 491.2 432.6"/>
    <polygon class="st0" points="500.8 409 486.5 416.5 485.6 437.6 500.8 409"/>
    <polygon class="st0" points="500.1 444.4 504.6 459.8 518 447.8 500.1 444.4"/>
    <polygon class="st0" points="504.6 459.8 500.1 444.4 494.1 456.6 504.6 459.8"/>
    <polygon class="st0" points="518 447.8 504.6 459.8 518.2 464 518 447.8"/>
    <polygon class="st0" points="504.6 459.8 502.4 462.8 518.2 464 504.6 459.8"/>
    <polygon class="st0" points="518.2 464 518 447.8 527.3 462.2 518.2 464"/>
    <polygon class="st0" points="518.2 464 527.3 462.2 526.1 472.2 518.2 464"/>
    <polygon class="st0" points="541.4 469.8 551.3 468.6 547 460.8 541.4 469.8"/>
    <polygon class="st0" points="547 460.8 551.3 468.6 553.8 460.2 547 460.8"/>
    <polygon class="st0" points="547 460.8 542.7 453.1 541.4 469.8 547 460.8"/>
    <polygon class="st0" points="542.7 453.1 547 460.8 547.6 450.4 542.7 453.1"/>
    <polygon class="st0" points="542.7 453.1 534.8 445.4 524.8 454.2 542.7 453.1"/>
    <polygon class="st0" points="534.8 445.4 542.7 453.1 547.6 450.4 534.8 445.4"/>
    <polygon class="st0" points="531.8 437 534.8 445.4 547.6 450.4 531.8 437"/>
    <polygon class="st0" points="475.6 385.2 481.2 388.4 490.5 386.4 475.6 385.2"/>
    <polygon class="st0" points="468.4 397.1 475.6 385.2 478.5 394.9 468.4 397.1"/>
    <polygon class="st0" points="478.5 394.9 475.6 385.2 481.2 388.4 478.5 394.9"/>
    <polygon class="st0" points="478.5 394.9 481.2 388.4 490.5 386.4 478.5 394.9"/>
    <polygon class="st0" points="478.5 394.9 490.5 386.4 499.7 394.1 478.5 394.9"/>
    <polygon class="st0" points="488.4 376.4 503.2 390.1 506.6 377.9 488.4 376.4"/>
    <polygon class="st0" points="506.6 377.9 503.2 390.1 519 387.8 506.6 377.9"/>
    <polygon class="st0" points="475.6 385.2 484.8 365.7 455.7 385.2 475.6 385.2"/>
    <polygon class="st0" points="484.8 365.7 488.4 376.4 502.8 366.5 484.8 365.7"/>
    <polygon class="st0" points="488.4 376.4 502.8 366.5 506.6 377.9 488.4 376.4"/>
    <polygon class="st0" points="506.6 377.9 502.8 366.5 510 374.1 506.6 377.9"/>
    <polygon class="st0" points="506.6 377.9 510 374.1 531.2 371.8 506.6 377.9"/>
    <polygon class="st0" points="531.2 371.8 510 374.1 516.4 366.8 531.2 371.8"/>
    <polygon class="st0" points="516.4 366.8 531.2 371.8 551.3 354 516.4 366.8"/>
    <polygon class="st0" points="531.2 371.8 531.7 376 548.1 366.5 531.2 371.8"/>
    <polygon class="st0" points="484.8 365.7 481.1 364.4 455.7 385.2 484.8 365.7"/>
    <polygon class="st0" points="481.1 364.4 491.1 356.2 484.8 365.7 481.1 364.4"/>
    <polygon class="st0" points="484.8 365.7 491.1 356.2 494.1 353.6 484.8 365.7"/>
    <polygon class="st0" points="471.3 332.5 473.8 337.9 488.8 338.7 471.3 332.5"/>
    <polygon class="st0" points="473.8 337.9 471.3 332.5 444.7 336.4 473.8 337.9"/>
    <polygon class="st0" points="473.8 337.9 477.5 345.8 488.8 338.7 473.8 337.9"/>
    <polygon class="st0" points="477.5 345.8 473.8 337.9 444.7 336.4 477.5 345.8"/>
    <polygon class="st0" points="477.5 345.8 444.7 336.4 478.3 355.1 477.5 345.8"/>
    <polygon class="st0" points="494.6 342.8 490.4 346.5 509.5 343.4 494.6 342.8"/>
    <polygon class="st0" points="490.4 346.5 494.1 353.6 518.6 351.9 490.4 346.5"/>
    <polygon class="st0" points="494.1 353.6 490.4 346.5 478.3 355.1 494.1 353.6"/>
    <polygon class="st0" points="491.1 356.2 494.1 353.6 478.3 355.1 491.1 356.2"/>
    <polygon class="st0" points="501 366.5 512.6 358.8 494.1 353.6 501 366.5"/>
    <polygon class="st0" points="512.6 358.8 517.7 358.1 518.6 351.9 512.6 358.8"/>
    <polygon class="st0" points="517.7 358.1 551.3 354 518.6 351.9 517.7 358.1"/>
    <polygon class="st0" points="551.3 354 517.7 358.1 516.4 366.8 551.3 354"/>
    <polygon class="st0" points="518.6 351.9 519.2 343.2 522.7 340.9 518.6 351.9"/>
    <polygon class="st0" points="518.6 351.9 522.7 340.9 551.3 354 518.6 351.9"/>
    <polygon class="st0" points="548.1 366.5 551.3 354 570.3 362.7 548.1 366.5"/>
    <polygon class="st0" points="548.1 366.5 570.3 362.7 580.5 369.9 548.1 366.5"/>
    <polygon class="st0" points="548.1 366.5 551.3 354 531.2 371.8 548.1 366.5"/>
    <polygon class="st0" points="501.7 336.2 500.6 333.4 519.2 343.2 501.7 336.2"/>
    <polygon class="st0" points="501.7 336.2 519.2 343.2 509.5 343.4 501.7 336.2"/>
    <polygon class="st0" points="518.6 351.9 509.5 343.4 519.2 343.2 518.6 351.9"/>
    <polygon class="st0" points="500.6 333.4 506.4 327.5 519.2 343.2 500.6 333.4"/>
    <polygon class="st0" points="519.2 343.2 506.4 327.5 508.9 324.9 519.2 343.2"/>
    <polygon class="st0" points="519.2 343.2 508.9 324.9 522.7 340.9 519.2 343.2"/>
    <polygon class="st0" points="522.7 340.9 551.3 354 550.4 342.7 522.7 340.9"/>
    <polygon class="st0" points="550.4 342.7 551.3 354 563.4 342.4 550.4 342.7"/>
    <polygon class="st0" points="500.6 333.4 506.4 327.5 493 325 500.6 333.4"/>
    <polygon class="st0" points="485.9 333.8 471.3 332.5 488.8 338.7 485.9 333.8"/>
    <polygon class="st0" points="471.3 332.5 485.9 333.8 493 325 471.3 332.5"/>
    <polygon class="st0" points="471.3 332.5 493 325 488 316.3 471.3 332.5"/>
    <polygon class="st0" points="460 310.1 469.8 289.7 488 316.3 460 310.1"/>
    <polygon class="st0" points="488 316.3 469.8 289.7 495.7 305.8 488 316.3"/>
    <polygon class="st0" points="495.7 305.8 488 316.3 502.9 310.3 495.7 305.8"/>
    <polygon class="st0" points="469.8 289.7 495.7 305.8 494.1 297.4 469.8 289.7"/>
    <polygon class="st0" points="460 310.1 469.8 289.7 449.3 302.1 460 310.1"/>
    <polygon class="st0" points="488 316.3 460 310.1 471.3 332.5 488 316.3"/>
    <polygon class="st0" points="450.5 312.4 449.3 302.1 460 310.1 450.5 312.4"/>
    <polygon class="st0" points="450.5 312.4 460 310.1 471.3 332.5 450.5 312.4"/>
    <polygon class="st0" points="471.3 332.5 450.5 312.4 444.7 336.4 471.3 332.5"/>
    <polygon class="st0" points="449.3 302.1 469.8 289.7 434.6 287.6 449.3 302.1"/>
    <polygon class="st0" points="469.8 289.7 441.3 274.8 434.6 287.6 469.8 289.7"/>
    <polygon class="st0" points="441.3 274.8 429.5 268.6 434.6 287.6 441.3 274.8"/>
    <polygon class="st0" points="487.6 252.4 451.7 253.3 467.5 267.9 487.6 252.4"/>
    <polygon class="st0" points="449.4 235.3 487.6 252.4 476.1 217.6 449.4 235.3"/>
    <polygon class="st0" points="449.4 235.3 476.1 217.6 450.4 225.4 449.4 235.3"/>
    <polygon class="st0" points="476.1 217.6 487.6 252.4 490.9 237.4 476.1 217.6"/>
    <polygon class="st0" points="487.6 252.4 490.9 237.4 503.1 240 487.6 252.4"/>
    <polygon class="st0" points="487.6 252.4 503.1 240 514.9 272.1 487.6 252.4"/>
    <polygon class="st0" points="503.1 240 490.9 237.4 492 231.8 503.1 240"/>
    <polygon class="st0" points="476.1 217.6 490.9 237.4 489.5 229.5 476.1 217.6"/>
    <polygon class="st0" points="476.1 217.6 483.5 197.9 466.6 185.4 476.1 217.6"/>
    <polygon class="st0" points="483.5 197.9 476.1 217.6 487.7 220.4 483.5 197.9"/>
    <polygon class="st0" points="509.5 225.6 483.5 197.9 487.7 220.4 509.5 225.6"/>
    <polygon class="st0" points="509.5 225.6 492 231.8 503.1 240 509.5 225.6"/>
    <polygon class="st0" points="489.5 229.5 487.7 220.4 492 231.8 489.5 229.5"/>
    <polygon class="st0" points="492 231.8 487.7 220.4 509.5 225.6 492 231.8"/>
    <polygon class="st0" points="490.9 237.4 492 231.8 489.5 229.5 490.9 237.4"/>
    <polygon class="st0" points="489.5 229.5 487.7 220.4 476.1 217.6 489.5 229.5"/>
    <polygon class="st0" points="514.9 272.1 487.6 252.4 498.8 278.5 514.9 272.1"/>
    <polygon class="st0" points="498.8 278.5 514.9 272.1 516.2 288.8 498.8 278.5"/>
    <polygon class="st0" points="523.1 295.7 516.2 288.8 524.8 289.9 523.1 295.7"/>
    <polygon class="st0" points="524.8 289.9 516.2 288.8 514.9 272.1 524.8 289.9"/>
    <polygon class="st0" points="516.2 288.8 498.8 278.5 503.9 290.4 516.2 288.8"/>
    <polygon class="st0" points="523.1 295.7 516.2 288.8 516.2 297.2 523.1 295.7"/>
    <polygon class="st0" points="513.8 305.9 516.2 297.2 523.1 295.7 513.8 305.9"/>
    <polygon class="st0" points="513.8 305.9 523.1 295.7 530.1 310.3 513.8 305.9"/>
    <polygon class="st0" points="513.8 305.9 516.2 297.2 503.9 290.4 513.8 305.9"/>
    <polygon class="st0" points="513.8 305.9 503.9 290.4 494.1 297.4 513.8 305.9"/>
    <polygon class="st0" points="503.9 290.4 516.2 297.2 516.2 288.8 503.9 290.4"/>
    <polygon class="st0" points="513.8 305.9 494.1 297.4 507.3 308.5 513.8 305.9"/>
    <polygon class="st0" points="527.2 325.4 513.8 305.9 530.1 310.3 527.2 325.4"/>
    <polygon class="st0" points="527.2 325.4 530.1 310.3 532.6 319.7 527.2 325.4"/>
    <polygon class="st0" points="527.2 325.4 513.8 305.9 507.3 308.5 527.2 325.4"/>
    <polygon class="st0" points="488 316.3 527.2 325.4 502.9 310.3 488 316.3"/>
    <polygon class="st0" points="495.7 305.8 494.1 297.4 507.3 308.5 495.7 305.8"/>
    <polygon class="st0" points="495.7 305.8 507.3 308.5 502.9 310.3 495.7 305.8"/>
    <polygon class="st0" points="507.3 308.5 502.9 310.3 527.2 325.4 507.3 308.5"/>
    <polygon class="st0" points="389.8 178.3 360.6 180.2 376 190.4 389.8 178.3"/>
    <polygon class="st0" points="370.1 166.8 389.8 178.3 396.9 171.5 370.1 166.8"/>
    <polygon class="st0" points="376 190.4 389.8 178.3 407.7 196 376 190.4"/>
    <polygon class="st0" points="376 190.4 407.7 196 406.7 203.5 376 190.4"/>
    <polygon class="st0" points="419.1 189.6 407.7 196 396.9 171.5 419.1 189.6"/>
    <polygon class="st0" points="419.1 189.6 396.9 171.5 422.1 177.8 419.1 189.6"/>
    <polygon class="st0" points="396.9 171.5 407.7 196 389.8 178.3 396.9 171.5"/>
    <polygon class="st0" points="375.9 204 376 190.4 360.6 180.2 375.9 204"/>
    <polygon class="st0" points="422.1 177.8 419.1 189.6 441.7 203.1 422.1 177.8"/>
    <polygon class="st0" points="396.9 171.5 422.1 177.8 407.8 167.4 396.9 171.5"/>
    <polygon class="st0" points="396.9 171.5 407.8 167.4 370.1 166.8 396.9 171.5"/>
    <polygon class="st0" points="425 164 407.2 160.6 422.1 177.8 425 164"/>
    <polygon class="st0" points="422.1 177.8 425 164 441.8 172.5 422.1 177.8"/>
    <polygon class="st0" points="441.8 172.5 425 164 442.8 167.4 441.8 172.5"/>
    <polygon class="st0" points="441.7 203.1 422.1 177.8 444.1 192.1 441.7 203.1"/>
    <polygon class="st0" points="457.5 188 444.1 192.1 441.8 172.5 457.5 188"/>
    <polygon class="st0" points="441.8 172.5 444.1 192.1 422.1 177.8 441.8 172.5"/>
    <polygon class="st0" points="439.7 212.2 441.7 203.1 405.5 213.2 439.7 212.2"/>
    <polygon class="st0" points="444.1 192.1 457.5 188 476.1 217.6 444.1 192.1"/>
    <polygon class="st0" points="476.1 217.6 457.5 188 466.6 185.4 476.1 217.6"/>
    <polygon class="st0" points="466.6 185.4 504 197 479.2 177.3 466.6 185.4"/>
    <polygon class="st0" points="509.5 225.6 504 197 514.7 215.2 509.5 225.6"/>
    <polygon class="st0" points="532.4 219.8 514.7 215.2 537.3 212.5 532.4 219.8"/>
    <polygon class="st0" points="537.3 212.5 514.7 215.2 504 197 537.3 212.5"/>
    <polygon class="st0" points="466.1 180.1 466.6 185.4 479.2 177.3 466.1 180.1"/>
    <polygon class="st0" points="482.3 171.4 479.2 177.3 504 197 482.3 171.4"/>
    <polygon class="st0" points="482.3 171.4 504 197 508 188.2 482.3 171.4"/>
    <polygon class="st0" points="538.2 401.6 531.7 376 558.2 387.1 538.2 401.6"/>
    <polygon class="st0" points="558.2 387.1 531.7 376 562.7 372.1 558.2 387.1"/>
    <polygon class="st0" points="558.2 387.1 538.2 401.6 568.6 408.2 558.2 387.1"/>
    <polygon class="st0" points="562.7 372.1 558.2 387.1 580.5 369.9 562.7 372.1"/>
    <polygon class="st0" points="549 448.5 547.6 431 563.9 428.6 549 448.5"/>
    <polygon class="st0" points="563.9 428.6 547.6 431 568.6 408.2 563.9 428.6"/>
    <polygon class="st0" points="568.6 408.2 563.9 428.6 585.1 432.4 568.6 408.2"/>
    <polygon class="st0" points="568.6 408.2 585.1 432.4 589.1 413 568.6 408.2"/>
    <polygon class="st0" points="585.1 432.4 563.9 428.6 595.8 441.5 585.1 432.4"/>
    <polygon class="st0" points="589.1 413 580.5 369.9 588.1 397.5 589.1 413"/>
    <polygon class="st0" points="591.9 392.2 588.1 397.5 580.5 369.9 591.9 392.2"/>
    <polygon class="st0" points="591.9 392.2 580.5 369.9 590 375.5 591.9 392.2"/>
    <polygon class="st0" points="580.5 369.9 588.3 363.3 590 375.5 580.5 369.9"/>
    <polygon class="st0" points="590 375.5 588.3 363.3 595.8 378.1 590 375.5"/>
    <polygon class="st0" points="568.6 408.2 589.1 413 580.5 369.9 568.6 408.2"/>
    <polygon class="st0" points="572.3 471.8 581.5 463 585.1 466.9 572.3 471.8"/>
    <polygon class="st0" points="585.1 466.9 581.5 463 588.3 464.9 585.1 466.9"/>
    <polygon class="st0" points="577.7 461.9 572.3 471.8 581.5 463 577.7 461.9"/>
    <polygon class="st0" points="577.7 461.9 579.4 454.2 573 462.1 577.7 461.9"/>
    <polygon class="st0" points="577.7 461.9 579.4 454.2 581.5 463 577.7 461.9"/>
    <polygon class="st0" points="581.5 463 579.4 454.2 585.5 459.1 581.5 463"/>
    <polygon class="st0" points="577.5 441.8 579.4 454.2 585.5 459.1 577.5 441.8"/>
    <polygon class="st0" points="585.5 459.1 577.5 441.8 589.5 446.8 585.5 459.1"/>
    <polygon class="st0" points="589.5 446.8 577.5 441.8 588.1 438.4 589.5 446.8"/>
    <polygon class="st0" points="585.5 459.1 581.5 463 588.3 464.9 585.5 459.1"/>
    <polygon class="st0" points="577.5 441.8 567.5 446.5 567.8 460.5 577.5 441.8"/>
    <polygon class="st0" points="509.5 225.6 503.1 240 533 254.7 509.5 225.6"/>
    <polygon class="st0" points="533 254.7 503.1 240 516.9 257.3 533 254.7"/>
    <polygon class="st0" points="533 254.7 514.7 215.2 509.5 225.6 533 254.7"/>
    <polygon class="st0" points="533 254.7 514.7 215.2 537 238.4 533 254.7"/>
    <polygon class="st0" points="537 238.4 514.7 215.2 532.4 219.8 537 238.4"/>
    <polygon class="st0" points="532.4 219.8 537.3 212.5 554.9 220.7 532.4 219.8"/>
    <polygon class="st0" points="532.4 219.8 554.9 220.7 556.8 239.4 532.4 219.8"/>
    <polygon class="st0" points="504 197 508 188.2 535.9 205.6 504 197"/>
    <polygon class="st0" points="504 197 535.9 205.6 537.3 212.5 504 197"/>
    <polygon class="st0" points="535.9 205.6 508 188.2 510 184 535.9 205.6"/>
    <polygon class="st0" points="537.3 212.5 535.9 205.6 554.9 220.7 537.3 212.5"/>
    <polygon class="st0" points="554.9 220.7 535.9 205.6 536.8 198.2 554.9 220.7"/>
    <polygon class="st0" points="556.8 239.4 554.9 220.7 561.1 231.2 556.8 239.4"/>
    <polygon class="st0" points="561.1 231.2 554.9 220.7 554.8 214.2 561.1 231.2"/>
    <polygon class="st0" points="576.3 242.8 554.8 214.2 561.1 231.2 576.3 242.8"/>
    <polygon class="st0" points="592.6 265.3 597.1 261.3 605.1 269.6 592.6 265.3"/>
    <polygon class="st0" points="592.6 265.3 605.1 269.6 616.1 278.8 592.6 265.3"/>
    <polygon class="st0" points="614 295.3 615.1 283.3 633.9 295.9 614 295.3"/>
    <polygon class="st0" points="633.9 295.9 615.1 283.3 616.1 278.8 633.9 295.9"/>
    <polygon class="st0" points="655.2 351.7 648.7 333.8 651.5 326.6 655.2 351.7"/>
    <polygon class="st0" points="655.2 351.7 651.5 326.6 659 355.3 655.2 351.7"/>
    <polygon class="st0" points="633.9 295.9 643.3 312.2 631.9 302.9 633.9 295.9"/>
    <polygon class="st0" points="631.9 302.9 643.3 312.2 642.1 312.8 631.9 302.9"/>
    <polygon class="st0" points="662.9 384 650.3 362.1 659 355.3 662.9 384"/>
    <polygon class="st0" points="662.9 384 659 355.3 672.6 381.5 662.9 384"/>
    <polygon class="st0" points="662.9 384 672.6 381.5 673 393.2 662.9 384"/>
    <polygon class="st0" points="683 402.4 673 393.2 681.1 397.7 683 402.4"/>
    <polygon class="st0" points="672.6 381.5 681.1 397.7 673 393.2 672.6 381.5"/>
    <polygon class="st0" points="621.3 389.5 631.7 392.9 624.4 392.1 621.3 389.5"/>
    <polygon class="st0" points="624.4 392.1 631.7 392.9 654.3 412.3 624.4 392.1"/>
    <polygon class="st0" points="654.3 412.3 631.7 392.9 643.2 396.6 654.3 412.3"/>
    <polygon class="st0" points="654.3 412.3 643.2 396.6 665.5 414 654.3 412.3"/>
    <polygon class="st0" points="523.1 295.7 524.8 289.9 541.1 288 523.1 295.7"/>
    <polygon class="st0" points="523.1 295.7 541.1 288 543.6 304.2 523.1 295.7"/>
    <polygon class="st0" points="543.6 304.2 541.1 288 556.8 304.6 543.6 304.2"/>
    <polygon class="st0" points="516.9 257.3 541.1 288 514.9 272.1 516.9 257.3"/>
    <polygon class="st0" points="514.9 272.1 541.1 288 524.8 289.9 514.9 272.1"/>
    <polygon class="st0" points="543.6 304.2 523.1 295.7 530.1 310.3 543.6 304.2"/>
    <polygon class="st0" points="556.8 304.6 543.6 304.2 543.6 317.9 556.8 304.6"/>
    <polygon class="st0" points="556.8 304.6 543.6 317.9 560.7 320.5 556.8 304.6"/>
    <polygon class="st0" points="532.6 319.7 530.1 310.3 543.6 317.9 532.6 319.7"/>
    <polygon class="st0" points="543.6 317.9 530.1 310.3 543.6 304.2 543.6 317.9"/>
    <polygon class="st0" points="532.6 319.7 527.2 325.4 533.7 322.4 532.6 319.7"/>
    <polygon class="st0" points="521.1 334.4 527.2 325.4 537.3 331.3 521.1 334.4"/>
    <polygon class="st0" points="537.3 331.3 527.2 325.4 533.7 322.4 537.3 331.3"/>
    <polygon class="st0" points="533.7 322.4 543.6 317.9 532.6 319.7 533.7 322.4"/>
    <polygon class="st0" points="543.6 317.9 533.7 322.4 537.3 331.3 543.6 317.9"/>
    <polygon class="st0" points="543.6 317.9 537.3 331.3 557.6 329.7 543.6 317.9"/>
    <polygon class="st0" points="537 238.4 533 254.7 543.9 247.7 537 238.4"/>
    <polygon class="st0" points="532.4 219.8 537 238.4 556.8 239.4 532.4 219.8"/>
    <polygon class="st0" points="556.8 239.4 537 238.4 543.9 247.7 556.8 239.4"/>
    <polygon class="st0" points="559.6 268.8 556.8 239.4 577.1 260.8 559.6 268.8"/>
    <polygon class="st0" points="559.6 268.8 577.1 260.8 575.8 265.1 559.6 268.8"/>
    <polygon class="st0" points="559.6 268.8 556.8 239.4 543.9 247.7 559.6 268.8"/>
    <polygon class="st0" points="533 254.7 559.6 268.8 543.9 247.7 533 254.7"/>
    <polygon class="st0" points="559.6 268.8 575.8 265.1 583.7 273.3 559.6 268.8"/>
    <polygon class="st0" points="559.6 268.8 583.7 273.3 584.6 283.4 559.6 268.8"/>
    <polygon class="st0" points="583.7 273.3 575.8 265.1 577.1 260.8 583.7 273.3"/>
    <polygon class="st0" points="583.7 273.3 577.1 260.8 592.6 265.3 583.7 273.3"/>
    <polygon class="st0" points="556.8 239.4 577.1 260.8 561.1 231.2 556.8 239.4"/>
    <polygon class="st0" points="561.1 231.2 577.1 260.8 576.3 242.8 561.1 231.2"/>
    <polygon class="st0" points="559.6 268.8 541 270.7 558.7 289.5 559.6 268.8"/>
    <polygon class="st0" points="541 270.7 541.1 288 558.7 289.5 541 270.7"/>
    <polygon class="st0" points="558.7 289.5 556.8 304.6 571.8 294.3 558.7 289.5"/>
    <polygon class="st0" points="556.8 304.6 558.7 289.5 541.1 288 556.8 304.6"/>
    <polygon class="st0" points="559.6 268.8 558.7 289.5 584.6 283.4 559.6 268.8"/>
    <polygon class="st0" points="583.7 273.3 584.6 283.4 595.4 278.2 583.7 273.3"/>
    <polygon class="st0" points="584.6 283.4 558.7 289.5 571.8 294.3 584.6 283.4"/>
    <polygon class="st0" points="589.5 298.6 584.6 283.4 599.6 279.5 589.5 298.6"/>
    <polygon class="st0" points="589.5 298.6 599.6 279.5 599.8 301.2 589.5 298.6"/>
    <polygon class="st0" points="589.5 298.6 584.6 283.4 571.8 294.3 589.5 298.6"/>
    <polygon class="st0" points="589.5 298.6 571.8 294.3 584.4 317.7 589.5 298.6"/>
    <polygon class="st0" points="560.7 320.5 556.8 304.6 572.3 309.6 560.7 320.5"/>
    <polygon class="st0" points="572.3 309.6 556.8 304.6 571.8 294.3 572.3 309.6"/>
    <polygon class="st0" points="560.7 320.5 557.6 329.7 568 332.4 560.7 320.5"/>
    <polygon class="st0" points="557.6 329.7 560.7 320.5 543.6 317.9 557.6 329.7"/>
    <polygon class="st0" points="557.6 329.7 550.4 342.7 563.4 342.4 557.6 329.7"/>
    <polygon class="st0" points="572.3 309.6 560.7 320.5 568 332.4 572.3 309.6"/>
    <polygon class="st0" points="571.8 294.3 572.3 309.6 584.4 317.7 571.8 294.3"/>
    <polygon class="st0" points="589.5 298.6 584.4 317.7 599.8 301.2 589.5 298.6"/>
    <polygon class="st0" points="599.6 279.5 599.8 301.2 614 295.3 599.6 279.5"/>
    <polygon class="st0" points="599.6 279.5 595.4 278.2 584.6 283.4 599.6 279.5"/>
    <polygon class="st0" points="595.4 278.2 592.6 265.3 605.1 278.1 595.4 278.2"/>
    <polygon class="st0" points="595.4 278.2 605.1 278.1 599.6 279.5 595.4 278.2"/>
    <polygon class="st0" points="614 295.3 599.6 279.5 605.1 278.1 614 295.3"/>
    <polygon class="st0" points="614 295.3 605.1 278.1 615.1 283.3 614 295.3"/>
    <polygon class="st0" points="605.1 278.1 592.6 265.3 616.1 278.8 605.1 278.1"/>
    <polygon class="st0" points="605.1 278.1 616.1 278.8 615.1 283.3 605.1 278.1"/>
    <polygon class="st0" points="614 295.3 599.8 301.2 604.7 317.4 614 295.3"/>
    <polygon class="st0" points="599.8 301.2 584.4 317.7 598 324.3 599.8 301.2"/>
    <polygon class="st0" points="576.3 349.7 568 332.4 582.6 335.5 576.3 349.7"/>
    <polygon class="st0" points="582.6 335.5 568 332.4 584.4 317.7 582.6 335.5"/>
    <polygon class="st0" points="584.4 317.7 568 332.4 572.3 309.6 584.4 317.7"/>
    <polygon class="st0" points="563.4 342.4 557.6 329.7 568 332.4 563.4 342.4"/>
    <polygon class="st0" points="563.4 342.4 568 332.4 576.3 349.7 563.4 342.4"/>
    <polygon class="st0" points="582.6 335.5 576.3 349.7 586.9 350 582.6 335.5"/>
    <polygon class="st0" points="598 324.3 599.8 301.2 604.7 317.4 598 324.3"/>
    <polygon class="st0" points="598 324.3 604.7 317.4 607.8 327.8 598 324.3"/>
    <polygon class="st0" points="604.7 317.4 607.8 327.8 615.8 321.8 604.7 317.4"/>
    <polygon class="st0" points="607.8 327.8 598 324.3 595.5 339.5 607.8 327.8"/>
    <polygon class="st0" points="595.5 339.5 582.6 335.5 586.9 350 595.5 339.5"/>
    <polygon class="st0" points="595.5 339.5 586.9 350 595.8 351.3 595.5 339.5"/>
    <polygon class="st0" points="602.1 365.4 586.9 350 601.7 359.5 602.1 365.4"/>
    <polygon class="st0" points="595.8 351.3 601.7 359.5 586.9 350 595.8 351.3"/>
    <polygon class="st0" points="586.9 350 576.3 349.7 580.7 354.7 586.9 350"/>
    <polygon class="st0" points="576.3 349.7 563.4 342.4 570.3 362.7 576.3 349.7"/>
    <polygon class="st0" points="563.4 342.4 551.3 354 570.3 362.7 563.4 342.4"/>
    <polygon class="st0" points="576.3 349.7 570.3 362.7 580.7 354.7 576.3 349.7"/>
    <polygon class="st0" points="580.7 354.7 588.3 363.3 586.9 350 580.7 354.7"/>
    <polygon class="st0" points="570.3 362.7 580.7 354.7 580.5 369.9 570.3 362.7"/>
    <polygon class="st0" points="580.5 369.9 580.7 354.7 588.3 363.3 580.5 369.9"/>
    <polygon class="st0" points="595.8 378.1 588.3 363.3 602.1 365.4 595.8 378.1"/>
    <polygon class="st0" points="602.1 365.4 588.3 363.3 586.9 350 602.1 365.4"/>
    <polygon class="st0" points="595.8 378.1 602.1 365.4 620.3 377.2 595.8 378.1"/>
    <polygon class="st0" points="620.3 377.2 602.1 365.4 610.2 361.9 620.3 377.2"/>
    <polygon class="st0" points="601.7 359.5 610.2 361.9 610.7 359.4 601.7 359.5"/>
    <polygon class="st0" points="610.2 361.9 601.7 359.5 602.1 365.4 610.2 361.9"/>
    <polygon class="st0" points="610.2 361.9 610.7 359.4 618.6 356.1 610.2 361.9"/>
    <polygon class="st0" points="610.2 361.9 618.6 356.1 627 361.9 610.2 361.9"/>
    <polygon class="st0" points="627 361.9 610.2 361.9 620.3 377.2 627 361.9"/>
    <polygon class="st0" points="641.6 378.7 627 361.9 637.9 363.5 641.6 378.7"/>
    <polygon class="st0" points="628.6 348.2 637.9 363.5 627 361.9 628.6 348.2"/>
    <polygon class="st0" points="628.6 348.2 621.2 337 633.6 338.7 628.6 348.2"/>
    <polygon class="st0" points="637 332.1 633.6 338.7 621.2 337 637 332.1"/>
    <polygon class="st0" points="595.5 339.5 607.8 327.8 610.2 336.3 595.5 339.5"/>
    <polygon class="st0" points="620 352.5 614.7 340.8 621.2 337 620 352.5"/>
    <polygon class="st0" points="621.2 337 614.7 340.8 610.2 336.3 621.2 337"/>
    <polygon class="st0" points="621.2 337 610.2 336.3 607.8 327.8 621.2 337"/>
    <polygon class="st0" points="607.8 327.8 615.8 321.8 621.2 337 607.8 327.8"/>
    <polygon class="st0" points="621.2 337 615.8 321.8 627.6 327.3 621.2 337"/>
    <polygon class="st0" points="595.5 339.5 610.2 336.3 600.9 342.9 595.5 339.5"/>
    <polygon class="st0" points="600.9 342.9 610.2 336.3 605.3 343.6 600.9 342.9"/>
    <polygon class="st0" points="614.7 340.8 610.2 336.3 611.5 343.1 614.7 340.8"/>
    <polygon class="st0" points="627 361.9 620.3 355.4 618.6 356.1 627 361.9"/>
    <polygon class="st0" points="599.7 349.3 600.9 342.9 605.6 346.5 599.7 349.3"/>
    <polygon class="st0" points="605.6 346.5 600.9 342.9 605.3 343.6 605.6 346.5"/>
    <polygon class="st0" points="604.1 355.4 599.7 349.3 606.7 347.8 604.1 355.4"/>
    <polygon class="st0" points="606.7 347.8 599.7 349.3 605.6 346.5 606.7 347.8"/>
    <polygon class="st0" points="604.1 355.4 606.7 347.8 610.6 354.8 604.1 355.4"/>
    <polygon class="st0" points="610.6 354.8 606.7 347.8 609.5 347.9 610.6 354.8"/>
    <polygon class="st0" points="610.6 354.8 609.5 347.9 613.9 353.9 610.6 354.8"/>
    <polygon class="st0" points="613.9 353.9 609.5 347.9 610.8 347.2 613.9 353.9"/>
    <polygon class="st0" points="613.9 353.9 610.8 347.2 618.4 354.4 613.9 353.9"/>
    <polygon class="st0" points="618.4 354.4 610.8 347.2 611.5 343.1 618.4 354.4"/>
    <polygon class="st0" points="604.7 317.4 614 295.3 620.5 307.8 604.7 317.4"/>
    <polygon class="st0" points="604.7 317.4 620.5 307.8 615.8 321.8 604.7 317.4"/>
    <polygon class="st0" points="614 295.3 620.5 307.8 631.9 302.9 614 295.3"/>
    <polygon class="st0" points="615.8 321.8 620.5 307.8 631.1 314.1 615.8 321.8"/>
    <polygon class="st0" points="615.8 321.8 631.1 314.1 627.6 327.3 615.8 321.8"/>
    <polygon class="st0" points="627.6 327.3 631.1 314.1 641 322.6 627.6 327.3"/>
    <polygon class="st0" points="627.6 327.3 641 322.6 637 332.1 627.6 327.3"/>
    <polygon class="st0" points="620.5 307.8 631.1 314.1 631.9 302.9 620.5 307.8"/>
    <polygon class="st0" points="614 295.3 631.9 302.9 633.9 295.9 614 295.3"/>
    <polygon class="st0" points="631.1 314.1 631.9 302.9 642.1 312.8 631.1 314.1"/>
    <polygon class="st0" points="631.1 314.1 642.1 312.8 641 322.6 631.1 314.1"/>
    <polygon class="st0" points="648.7 333.8 641 322.6 643.3 312.2 648.7 333.8"/>
    <polygon class="st0" points="643.3 312.2 641 322.6 642.1 312.8 643.3 312.2"/>
    <polygon class="st0" points="633.6 338.7 637 332.1 648.7 333.8 633.6 338.7"/>
    <polygon class="st0" points="648.7 333.8 637 332.1 641 322.6 648.7 333.8"/>
    <polygon class="st0" points="637 332.1 627.6 327.3 621.2 337 637 332.1"/>
    <polygon class="st0" points="628.6 348.2 633.6 338.7 642.9 344.2 628.6 348.2"/>
    <polygon class="st0" points="628.6 348.2 642.9 344.2 639.5 354.5 628.6 348.2"/>
    <polygon class="st0" points="639.5 354.5 628.6 348.2 637.9 363.5 639.5 354.5"/>
    <polygon class="st0" points="642.9 344.2 639.5 354.5 646.6 353.2 642.9 344.2"/>
    <polygon class="st0" points="633.6 338.7 642.9 344.2 648.7 333.8 633.6 338.7"/>
    <polygon class="st0" points="648.7 333.8 642.9 344.2 655.2 351.7 648.7 333.8"/>
    <polygon class="st0" points="655.2 351.7 642.9 344.2 646.6 353.2 655.2 351.7"/>
    <polygon class="st0" points="655.2 351.7 646.6 353.2 650.3 362.1 655.2 351.7"/>
    <polygon class="st0" points="646.6 353.2 639.5 354.5 650.3 362.1 646.6 353.2"/>
    <polygon class="st0" points="650.3 362.1 639.5 354.5 637.9 363.5 650.3 362.1"/>
    <polygon class="st0" points="650.3 362.1 641.6 378.7 662.9 384 650.3 362.1"/>
    <polygon class="st0" points="641.6 378.7 650.3 362.1 637.9 363.5 641.6 378.7"/>
    <polygon class="st0" points="641.6 378.7 627 361.9 620.3 377.2 641.6 378.7"/>
    <polygon class="st0" points="641.6 378.7 620.3 377.2 631.7 392.9 641.6 378.7"/>
    <polygon class="st0" points="641.6 378.7 643.2 396.6 661.4 395 641.6 378.7"/>
    <polygon class="st0" points="643.2 396.6 641.6 378.7 631.7 392.9 643.2 396.6"/>
    <polygon class="st0" points="661.4 395 643.2 396.6 665.5 414 661.4 395"/>
    <polygon class="st0" points="641.6 378.7 661.4 395 662.9 384 641.6 378.7"/>
    <polygon class="st0" points="661.4 395 673 393.2 672.8 402.3 661.4 395"/>
    <polygon class="st0" points="672.8 402.3 673 393.2 683 402.4 672.8 402.3"/>
    <polygon class="st0" points="673 393.2 662.9 384 661.4 395 673 393.2"/>
    <polygon class="st0" points="73.8 391.2 55.3 409 81.1 397.4 73.8 391.2"/>
    <polygon class="st0" points="226.1 366.2 255.9 345.7 233 369.2 226.1 366.2"/>
    <polygon class="st0" points="244.1 373.9 233 369.2 255.9 345.7 244.1 373.9"/>
    <polygon class="st0" points="367.4 345.5 376.1 332.5 393.6 343.6 367.4 345.5"/>
    <polygon class="st0" points="393.6 343.6 376.1 332.5 399.8 334.7 393.6 343.6"/>
    <polygon class="st0" points="405.8 454.6 415.8 452.8 403.9 442.5 405.8 454.6"/>
    <polygon class="st0" points="400.3 417.9 400.8 388 409 396 400.3 417.9"/>
    <polygon class="st0" points="400.3 417.9 409 396 404.7 418.4 400.3 417.9"/>
    <polygon class="st0" points="450.5 312.4 437 319.6 444.7 336.4 450.5 312.4"/>
    <polygon class="st0" points="486.5 416.5 479.8 419.2 485.6 437.6 486.5 416.5"/>
    <polygon class="st0" points="471.5 405 468.4 397.1 478.5 394.9 471.5 405"/>
    <polygon class="st0" points="471.5 405 478.5 394.9 488.9 400.6 471.5 405"/>
    <polygon class="st0" points="455.7 385.2 468.4 397.1 475.6 385.2 455.7 385.2"/>
    <polygon class="st0" points="471.1 363.5 478.3 355.1 481.1 364.4 471.1 363.5"/>
    <polygon class="st0" points="481.1 364.4 478.3 355.1 491.1 356.2 481.1 364.4"/>
    <polygon class="st0" points="471.1 363.5 478.3 355.1 448.5 363.9 471.1 363.5"/>
    <polygon class="st0" points="448.5 363.9 478.3 355.1 444.7 336.4 448.5 363.9"/>
    <polygon class="st0" points="478.3 355.1 488.8 338.7 477.5 345.8 478.3 355.1"/>
    <polygon class="st0" points="501.7 336.2 494.6 342.8 509.5 343.4 501.7 336.2"/>
    <polygon class="st0" points="518.6 351.9 509.5 343.4 490.4 346.5 518.6 351.9"/>
    <polygon class="st0" points="518.6 351.9 494.1 353.6 512.6 358.8 518.6 351.9"/>
    <polygon class="st0" points="493 325 485.9 333.8 488.8 338.7 493 325"/>
    <polygon class="st0" points="451.7 253.3 469.8 289.7 467.5 267.9 451.7 253.3"/>
    <polygon class="st0" points="467.5 267.9 469.8 289.7 503.9 290.4 467.5 267.9"/>
    <polygon class="st0" points="467.5 267.9 487.6 252.4 498.8 278.5 467.5 267.9"/>
    <polygon class="st0" points="467.5 267.9 498.8 278.5 503.9 290.4 467.5 267.9"/>
    <polygon class="st0" points="503.9 290.4 469.8 289.7 494.1 297.4 503.9 290.4"/>
    <polygon class="st0" points="407.2 160.6 407.8 167.4 422.1 177.8 407.2 160.6"/>
    <polygon class="st0" points="441.7 203.1 419.1 189.6 405.5 213.2 441.7 203.1"/>
    <polygon class="st0" points="439.7 212.2 427.6 229.8 450.4 225.4 439.7 212.2"/>
    <polygon class="st0" points="444.1 192.1 441.7 203.1 476.1 217.6 444.1 192.1"/>
    <polygon class="st0" points="441.8 172.5 457.5 188 444.4 161.7 441.8 172.5"/>
    <polygon class="st0" points="531.7 376 548.1 366.5 562.7 372.1 531.7 376"/>
    <polygon class="st0" points="580.5 369.9 562.7 372.1 548.1 366.5 580.5 369.9"/>
    <polygon class="st0" points="580.5 369.9 558.2 387.1 568.6 408.2 580.5 369.9"/>
    <polygon class="st0" points="538.2 401.6 547.6 431 568.6 408.2 538.2 401.6"/>
    <polygon class="st0" points="503.1 240 514.9 272.1 516.9 257.3 503.1 240"/>
    <polygon class="st0" points="516.9 257.3 541.1 288 533 254.7 516.9 257.3"/>
    <polygon class="st0" points="577.1 260.8 592.6 265.3 597.1 261.3 577.1 260.8"/>
    <polygon class="st0" points="592.6 265.3 583.7 273.3 595.4 278.2 592.6 265.3"/>
    <polygon class="st0" points="606.7 347.8 605.6 346.5 609.5 347.9 606.7 347.8"/>
    <polygon class="st0" points="609.5 347.9 605.6 346.5 605.3 343.6 609.5 347.9"/>
    <polygon class="st0" points="609.5 347.9 605.3 343.6 611.5 343.1 609.5 347.9"/>
    <polygon class="st0" points="609.5 347.9 611.5 343.1 610.8 347.2 609.5 347.9"/>
    <polygon class="st0" points="605.3 343.6 611.5 343.1 610.2 336.3 605.3 343.6"/>
    <polygon class="st0" points="659 355.3 655.2 351.7 650.3 362.1 659 355.3"/>
    <polygon class="st0" points="231.3 322.5 230 310.4 223.8 319.8 231.3 322.5"/>
  </g>
</svg>