<?xml version="1.0" encoding="UTF-8"?>
<svg xmlns="http://www.w3.org/2000/svg" version="1.1" xmlns:xlink="http://www.w3.org/1999/xlink" viewBox="0 0 737 539">
  <!-- Generator: Adobe Illustrator 30.0.0, SVG Export Plug-In . SVG Version: 2.1.1 Build 123)  -->
  <defs>
    <style>
      .st0 {
        fill: none;
        stroke: #000;
        stroke-miterlimit: 10;
      }

      .st1 {
        isolation: isolate;
      }
    </style>
  </defs>
  <g id="Layer_2">
    <g id="Layer_21" data-name="Layer_2">
      <image class="st1" width="2949" height="2155" transform="translate(1.8 -.2) scale(.2)" xlink:href="Trái Đất.png"/>
    </g>
  </g>
  <g id="Layer_1">
    <g id="Layer_11" data-name="Layer_1">
      <polygon class="st0" points="250 313.5 238.8 303.2 258 341.3 250 313.5"/>
      <polygon class="st0" points="238.8 303.2 236.1 283.5 253.3 303.1 238.8 303.2"/>
      <polygon class="st0" points="238.8 303.2 253.3 303.1 250 313.5 238.8 303.2"/>
      <polygon class="st0" points="275.7 386.7 285.6 375.2 266.1 346.8 275.7 386.7"/>
      <polygon class="st0" points="285.6 375.2 275.7 386.7 287.8 393.4 285.6 375.2"/>
      <polygon class="st0" points="258 341.3 266.1 346.8 250 313.5 258 341.3"/>
      <polygon class="st0" points="275.7 386.7 260.8 363.9 266.1 346.8 275.7 386.7"/>
      <polygon class="st0" points="266.1 346.8 260.8 363.9 258 341.3 266.1 346.8"/>
      <polygon class="st0" points="302 385.6 297.4 380.2 299.4 376.7 302 385.6"/>
      <polygon class="st0" points="299.4 376.7 297.4 380.2 297 377 299.4 376.7"/>
      <polygon class="st0" points="299.4 376.7 302 385.6 307.6 382.3 299.4 376.7"/>
      <polygon class="st0" points="285.6 375.2 271.6 327.4 289.2 350 285.6 375.2"/>
      <polygon class="st0" points="285.6 375.2 289.2 350 294.6 360.6 285.6 375.2"/>
      <polygon class="st0" points="285.6 375.2 294.6 360.6 297 377 285.6 375.2"/>
      <polygon class="st0" points="285.6 375.2 271.6 327.4 266.1 346.8 285.6 375.2"/>
      <polygon class="st0" points="292.2 405.7 275.7 386.7 287.8 393.4 292.2 405.7"/>
      <polygon class="st0" points="292.2 405.7 287.8 393.4 299.7 406 292.2 405.7"/>
      <polygon class="st0" points="292.2 405.7 299.7 406 307.3 419.7 292.2 405.7"/>
      <polygon class="st0" points="307.3 419.7 299.7 406 309.7 416.7 307.3 419.7"/>
      <polygon class="st0" points="307.3 419.7 309.7 416.7 323.6 424.7 307.3 419.7"/>
      <polygon class="st0" points="307.3 419.7 323.6 424.7 339.9 441.7 307.3 419.7"/>
      <polygon class="st0" points="339.9 441.7 323.6 424.7 333.2 427.8 339.9 441.7"/>
      <polygon class="st0" points="235.4 266.5 248.3 195.7 245.3 267 235.4 266.5"/>
      <polygon class="st0" points="245.3 267 248.3 195.7 253.2 194.4 245.3 267"/>
      <polygon class="st0" points="248.3 195.7 262.2 166.7 253.2 194.4 248.3 195.7"/>
      <polygon class="st0" points="256.4 195.2 253.2 194.4 262.9 186.9 256.4 195.2"/>
      <polygon class="st0" points="268.8 191.6 262.9 186.9 271 174.1 268.8 191.6"/>
      <polygon class="st0" points="271 174.1 262.9 186.9 262.2 166.7 271 174.1"/>
      <polygon class="st0" points="262.2 166.7 262.9 186.9 253.2 194.4 262.2 166.7"/>
      <polygon class="st0" points="299.4 376.7 316.9 368.8 307.6 382.3 299.4 376.7"/>
      <polygon class="st0" points="307.6 382.3 316.9 368.8 314.2 381.8 307.6 382.3"/>
      <polygon class="st0" points="314.2 381.8 316.9 368.8 316.6 381.5 314.2 381.8"/>
      <polygon class="st0" points="316.6 381.5 314.2 381.8 316.5 388.3 316.6 381.5"/>
      <polygon class="st0" points="316.6 381.5 334 379.5 316.9 368.8 316.6 381.5"/>
      <polygon class="st0" points="327.6 404.1 316.5 388.3 328.6 400.1 327.6 404.1"/>
      <polygon class="st0" points="334 379.5 328.6 400.1 316.5 388.3 334 379.5"/>
      <polygon class="st0" points="334 379.5 316.5 388.3 316.6 381.5 334 379.5"/>
      <polygon class="st0" points="318 407.3 309.5 396.9 319.2 401 318 407.3"/>
      <polygon class="st0" points="318 407.3 319.2 401 320.4 407.6 318 407.3"/>
      <polygon class="st0" points="309.9 390.8 319.2 401 309.5 396.9 309.9 390.8"/>
      <polygon class="st0" points="319.2 401 309.9 390.8 316.5 388.3 319.2 401"/>
      <polygon class="st0" points="319.2 401 316.5 388.3 327.6 404.1 319.2 401"/>
      <polygon class="st0" points="334 236.4 328.8 231.1 338.6 234.1 334 236.4"/>
      <polygon class="st0" points="338.6 234.1 328.8 231.1 339.1 228.7 338.6 234.1"/>
      <polygon class="st0" points="334 236.4 328.8 231.1 316.9 245.5 334 236.4"/>
      <polygon class="st0" points="384.5 292.8 396.5 283 354.8 281.8 384.5 292.8"/>
      <polygon class="st0" points="396.5 283 384.5 292.8 392.9 289.4 396.5 283"/>
      <polygon class="st0" points="396.5 283 392.9 289.4 400.7 289.1 396.5 283"/>
      <polygon class="st0" points="354.8 281.8 395 272.6 389.6 260.7 354.8 281.8"/>
      <polygon class="st0" points="354.8 281.8 395 272.6 396.5 283 354.8 281.8"/>
      <polygon class="st0" points="396.5 283 395 272.6 398.9 280.9 396.5 283"/>
      <polygon class="st0" points="419.1 226.1 423 220.9 418.9 220.4 419.1 226.1"/>
      <polygon class="st0" points="423 220.9 419.1 226.1 425.6 226.6 423 220.9"/>
      <polygon class="st0" points="413.2 220.4 410.1 217 417.6 214.2 413.2 220.4"/>
      <polygon class="st0" points="413.2 220.4 417.6 214.2 418.9 220.4 413.2 220.4"/>
      <polygon class="st0" points="413.2 220.4 418.9 220.4 419.1 226.1 413.2 220.4"/>
      <polygon class="st0" points="434.8 223.4 425.6 226.6 437.2 236.3 434.8 223.4"/>
      <polygon class="st0" points="425.6 226.6 430.3 219.8 434.8 223.4 425.6 226.6"/>
      <polygon class="st0" points="434.8 223.4 430.3 219.8 433.5 218.8 434.8 223.4"/>
      <polygon class="st0" points="455.3 211.2 456.6 222.6 458.1 216.8 455.3 211.2"/>
      <polygon class="st0" points="456.6 222.6 455.3 211.2 453.2 206.5 456.6 222.6"/>
      <polygon class="st0" points="455.3 211.2 458.1 216.8 460.4 211.3 455.3 211.2"/>
      <polygon class="st0" points="456.6 222.6 458.1 216.8 468.8 220.7 456.6 222.6"/>
      <polygon class="st0" points="468.8 220.7 458.1 216.8 468.9 217.2 468.8 220.7"/>
      <polygon class="st0" points="458.1 216.8 460.4 211.3 468 210.6 458.1 216.8"/>
      <polygon class="st0" points="468 210.6 460.4 211.3 466.2 207.7 468 210.6"/>
      <polygon class="st0" points="464.4 259.4 462.8 255.4 467.7 251.8 464.4 259.4"/>
      <polygon class="st0" points="464.4 259.4 467.7 251.8 472.4 256.5 464.4 259.4"/>
      <polygon class="st0" points="472.4 256.5 464.4 259.4 469.2 261.7 472.4 256.5"/>
      <polygon class="st0" points="302.4 195.5 312 199.7 308.5 192.9 302.4 195.5"/>
      <polygon class="st0" points="312 199.7 302.4 195.5 296.9 196.4 312 199.7"/>
      <polygon class="st0" points="307.4 186.9 312 185.8 309.7 181.7 307.4 186.9"/>
      <polygon class="st0" points="307.3 189.9 307.4 186.9 311.3 189.8 307.3 189.9"/>
      <polygon class="st0" points="311.3 189.8 307.4 186.9 312 185.8 311.3 189.8"/>
      <polygon class="st0" points="311.3 189.8 308.5 192.9 314.6 190.2 311.3 189.8"/>
      <polygon class="st0" points="302.4 195.5 307.3 189.9 308.5 192.9 302.4 195.5"/>
      <polygon class="st0" points="308.5 192.9 307.3 189.9 311.3 189.8 308.5 192.9"/>
      <polygon class="st0" points="312 199.7 308.5 192.9 314.6 190.2 312 199.7"/>
      <polygon class="st0" points="312 199.7 314.6 190.2 332 198.3 312 199.7"/>
      <polygon class="st0" points="332 198.3 347.9 196.5 332.3 192 332 198.3"/>
      <polygon class="st0" points="332 198.3 347.9 196.5 338.3 203.1 332 198.3"/>
      <polygon class="st0" points="338.3 203.1 347.9 196.5 343.4 202.8 338.3 203.1"/>
      <polygon class="st0" points="332.3 192 328.6 187.3 335.1 177.6 332.3 192"/>
      <polygon class="st0" points="332.3 192 335.1 177.6 347.9 196.5 332.3 192"/>
      <polygon class="st0" points="268.8 191.6 271 174.1 282.7 179.1 268.8 191.6"/>
      <polygon class="st0" points="282.7 179.1 271 174.1 295.2 156.1 282.7 179.1"/>
      <polygon class="st0" points="295.2 156.1 271 174.1 287.5 145.1 295.2 156.1"/>
      <polygon class="st0" points="295.2 156.1 282.7 179.1 294.5 175.9 295.2 156.1"/>
      <polygon class="st0" points="296 191.1 294.5 175.9 301.4 189.9 296 191.1"/>
      <polygon class="st0" points="301.4 189.9 294.5 175.9 307.6 180.7 301.4 189.9"/>
      <polygon class="st0" points="307.6 180.7 294.5 175.9 307.7 175.3 307.6 180.7"/>
      <polygon class="st0" points="294.5 175.9 315.7 152.8 307.7 175.3 294.5 175.9"/>
      <polygon class="st0" points="307.7 175.3 315.7 152.8 327.9 155.9 307.7 175.3"/>
      <polygon class="st0" points="307.7 175.3 327.9 155.9 323.2 178 307.7 175.3"/>
      <polygon class="st0" points="307.7 175.3 323.2 178 318.4 185.6 307.7 175.3"/>
      <polygon class="st0" points="318.6 203.7 332 198.3 312 199.7 318.6 203.7"/>
      <polygon class="st0" points="332 198.3 318.6 203.7 320.8 212.8 332 198.3"/>
      <polygon class="st0" points="399.2 196.5 408.8 204.9 414.6 199.9 399.2 196.5"/>
      <polygon class="st0" points="399 211 399.2 196.5 408.8 204.9 399 211"/>
      <polygon class="st0" points="399 211 408.8 204.9 402.7 213 399 211"/>
      <polygon class="st0" points="399.2 196.5 414.6 199.9 420.1 199.6 399.2 196.5"/>
      <polygon class="st0" points="371.2 155.5 362.4 130.9 396.1 148.4 371.2 155.5"/>
      <polygon class="st0" points="396.1 148.4 362.4 130.9 384.9 116.4 396.1 148.4"/>
      <polygon class="st0" points="396.1 148.4 384.9 116.4 408.2 118.1 396.1 148.4"/>
      <polygon class="st0" points="396.1 148.4 408.2 118.1 420.5 133.5 396.1 148.4"/>
      <polygon class="st0" points="399.2 107.2 408.2 118.1 384.9 116.4 399.2 107.2"/>
      <polygon class="st0" points="448.7 146.7 464.5 124.1 462.5 131 448.7 146.7"/>
      <polygon class="st0" points="448.7 146.7 462.5 131 453.2 146.5 448.7 146.7"/>
      <polygon class="st0" points="473.9 148.4 468.6 139.6 474.8 138.9 473.9 148.4"/>
      <polygon class="st0" points="473.9 148.4 474.8 138.9 481.9 141.7 473.9 148.4"/>
      <polygon class="st0" points="481.9 141.7 474.8 138.9 484.1 136.4 481.9 141.7"/>
      <polygon class="st0" points="484.1 136.4 474.8 138.9 480.5 130.6 484.1 136.4"/>
      <polygon class="st0" points="464.5 124.1 465.7 125.6 462.5 131 464.5 124.1"/>
      <polygon class="st0" points="462.5 131 465.7 125.6 468.6 139.6 462.5 131"/>
      <polygon class="st0" points="468.6 139.6 465.7 125.6 474.8 138.9 468.6 139.6"/>
      <polygon class="st0" points="448.7 146.7 464.5 124.1 446.2 118 448.7 146.7"/>
      <polygon class="st0" points="465.7 125.6 464.5 124.1 466.2 120.3 465.7 125.6"/>
      <polygon class="st0" points="466.2 120.3 464.5 124.1 465 120.2 466.2 120.3"/>
      <polygon class="st0" points="465 120.2 469.4 70.2 483.2 103.9 465 120.2"/>
      <polygon class="st0" points="465 120.2 483.2 103.9 466.2 120.3 465 120.2"/>
      <polygon class="st0" points="449.3 187.4 454.3 186.1 449.4 185.4 449.3 187.4"/>
      <polygon class="st0" points="450.1 192.4 449.3 187.4 454.3 186.1 450.1 192.4"/>
      <polygon class="st0" points="450.1 192.4 454.3 186.1 453.9 193.7 450.1 192.4"/>
      <polygon class="st0" points="437.4 263.8 419.1 226.1 439.3 260.6 437.4 263.8"/>
      <polygon class="st0" points="464.4 259.4 456.5 257.1 462.8 255.4 464.4 259.4"/>
      <polygon class="st0" points="467.7 251.8 462.8 255.4 457.4 250.1 467.7 251.8"/>
      <polygon class="st0" points="467.7 251.8 457.4 250.1 468 244.9 467.7 251.8"/>
      <polygon class="st0" points="473.7 232.4 466.3 240.9 456.6 222.6 473.7 232.4"/>
      <polygon class="st0" points="473.7 232.4 456.6 222.6 468.8 220.7 473.7 232.4"/>
      <polygon class="st0" points="473.7 232.4 468.8 220.7 472.8 224.1 473.7 232.4"/>
      <polygon class="st0" points="462.5 131 468.6 139.6 453.2 146.5 462.5 131"/>
      <polygon class="st0" points="448.7 146.7 453.2 146.5 452.4 166.7 448.7 146.7"/>
      <polygon class="st0" points="448.7 146.7 452.4 166.7 444.3 175.2 448.7 146.7"/>
      <polygon class="st0" points="417.6 214.2 422.5 209.1 424.3 210.8 417.6 214.2"/>
      <polygon class="st0" points="417.6 214.2 424.3 210.8 423 220.9 417.6 214.2"/>
      <polygon class="st0" points="417.6 214.2 423 220.9 418.9 220.4 417.6 214.2"/>
      <polygon class="st0" points="419.1 226.1 425.6 226.6 439.3 260.6 419.1 226.1"/>
      <polygon class="st0" points="439.3 260.6 425.6 226.6 453.5 250.9 439.3 260.6"/>
      <polygon class="st0" points="439.3 260.6 453.5 250.9 446.7 260.5 439.3 260.6"/>
      <polygon class="st0" points="446.7 260.5 453.5 250.9 453 256.2 446.7 260.5"/>
      <polygon class="st0" points="456.5 257.1 457.4 250.1 462.8 255.4 456.5 257.1"/>
      <polygon class="st0" points="457.4 250.1 453.5 250.9 466.3 240.9 457.4 250.1"/>
      <polygon class="st0" points="457.4 250.1 466.3 240.9 468 244.9 457.4 250.1"/>
      <polygon class="st0" points="466.3 240.9 453.5 250.9 456.6 222.6 466.3 240.9"/>
      <polygon class="st0" points="456.6 222.6 453.5 250.9 450.1 220.6 456.6 222.6"/>
      <polygon class="st0" points="468.8 220.7 468.9 217.2 473.9 217.1 468.8 220.7"/>
      <polygon class="st0" points="468.8 220.7 473.9 217.1 472.8 224.1 468.8 220.7"/>
      <polygon class="st0" points="473.9 217.1 468.9 217.2 468 210.6 473.9 217.1"/>
      <polygon class="st0" points="473.9 217.1 468 210.6 473.6 200.5 473.9 217.1"/>
      <polygon class="st0" points="473.6 200.5 468 210.6 466.2 207.7 473.6 200.5"/>
      <polygon class="st0" points="473.6 200.5 466.2 207.7 471.9 192.6 473.6 200.5"/>
      <polygon class="st0" points="468.6 139.6 452.4 166.7 453.2 146.5 468.6 139.6"/>
      <polygon class="st0" points="452.4 166.7 456.7 174.6 450.6 177.1 452.4 166.7"/>
      <polygon class="st0" points="452.4 166.7 450.6 177.1 444.3 175.2 452.4 166.7"/>
      <polygon class="st0" points="444.3 175.2 450.6 177.1 449.4 185.4 444.3 175.2"/>
      <polygon class="st0" points="444.3 175.2 449.4 185.4 442.2 189.5 444.3 175.2"/>
      <polygon class="st0" points="424.3 210.8 429.2 215.3 423 220.9 424.3 210.8"/>
      <polygon class="st0" points="423 220.9 429.2 215.3 425.6 226.6 423 220.9"/>
      <polygon class="st0" points="425.6 226.6 429.2 215.3 445 218.8 425.6 226.6"/>
      <polygon class="st0" points="425.6 226.6 445 218.8 453.5 250.9 425.6 226.6"/>
      <polygon class="st0" points="453.5 250.9 445 218.8 450.1 220.6 453.5 250.9"/>
      <polygon class="st0" points="458.1 216.8 468 210.6 468.9 217.2 458.1 216.8"/>
      <polygon class="st0" points="449.4 185.4 449.3 187.4 443.2 189.6 449.4 185.4"/>
      <polygon class="st0" points="449.4 185.4 443.2 189.6 442.2 189.5 449.4 185.4"/>
      <polygon class="st0" points="442.2 189.5 443.2 189.6 441.7 195.3 442.2 189.5"/>
      <polygon class="st0" points="442.2 189.5 441.7 195.3 435.9 200.4 442.2 189.5"/>
      <polygon class="st0" points="435.9 200.4 441.7 195.3 443.3 201.5 435.9 200.4"/>
      <polygon class="st0" points="435.9 200.4 443.3 201.5 435.6 204.3 435.9 200.4"/>
      <polygon class="st0" points="430 208.1 435.4 209.8 429.2 215.3 430 208.1"/>
      <polygon class="st0" points="429.2 215.3 435.4 209.8 445 218.8 429.2 215.3"/>
      <polygon class="st0" points="445 218.8 435.4 209.8 443.3 201.5 445 218.8"/>
      <polygon class="st0" points="443.3 201.5 435.4 209.8 435.6 204.3 443.3 201.5"/>
      <polygon class="st0" points="450.1 192.4 441.7 195.3 446 197.6 450.1 192.4"/>
      <polygon class="st0" points="441.7 195.3 443.2 189.6 450.1 192.4 441.7 195.3"/>
      <polygon class="st0" points="450.1 192.4 443.2 189.6 449.3 187.4 450.1 192.4"/>
      <polygon class="st0" points="446 197.6 450.1 192.4 450.1 197.3 446 197.6"/>
      <polygon class="st0" points="450.1 197.3 450.1 192.4 453.9 193.7 450.1 197.3"/>
      <polygon class="st0" points="443.3 201.5 441.7 195.3 446 197.6 443.3 201.5"/>
      <polygon class="st0" points="443.3 201.5 446 197.6 453.2 206.5 443.3 201.5"/>
      <polygon class="st0" points="462 200.3 460.4 211.3 466.2 207.7 462 200.3"/>
      <polygon class="st0" points="455.3 211.2 453.2 206.5 460.4 211.3 455.3 211.2"/>
      <polygon class="st0" points="460.4 211.3 453.2 206.5 462 200.3 460.4 211.3"/>
      <polygon class="st0" points="462 200.3 453.2 206.5 453.5 199.1 462 200.3"/>
      <polygon class="st0" points="466.2 207.7 463.3 183.9 471.9 192.6 466.2 207.7"/>
      <polygon class="st0" points="471.9 192.6 463.3 183.9 462.8 180.6 471.9 192.6"/>
      <polygon class="st0" points="466.2 207.7 463.3 183.9 462 200.3 466.2 207.7"/>
      <polygon class="st0" points="513.8 240.9 508.7 217.3 517.4 219.1 513.8 240.9"/>
      <polygon class="st0" points="513.8 240.9 517.4 219.1 515.4 240.6 513.8 240.9"/>
      <polygon class="st0" points="517.9 215.7 517.4 219.1 508.7 217.3 517.9 215.7"/>
      <polygon class="st0" points="517.9 215.7 508.7 217.3 518.9 205.5 517.9 215.7"/>
      <polygon class="st0" points="518.2 246 516.8 240.4 530.7 243.3 518.2 246"/>
      <polygon class="st0" points="530.7 243.3 516.8 240.4 528.6 230 530.7 243.3"/>
      <polygon class="st0" points="526.9 218.3 528.6 230 517.4 219.1 526.9 218.3"/>
      <polygon class="st0" points="517.4 219.1 528.6 230 516.8 240.4 517.4 219.1"/>
      <polygon class="st0" points="517.4 219.1 516.8 240.4 515.4 240.6 517.4 219.1"/>
      <polygon class="st0" points="517.4 219.1 517.9 215.7 526.9 218.3 517.4 219.1"/>
      <polygon class="st0" points="526.9 218.3 517.9 215.7 526.6 214.8 526.9 218.3"/>
      <polygon class="st0" points="518.9 205.5 517.9 215.7 526.6 214.8 518.9 205.5"/>
      <polygon class="st0" points="545.5 229.2 537.9 194.1 549.6 213.7 545.5 229.2"/>
      <polygon class="st0" points="545.5 229.2 549.6 213.7 558.1 242.2 545.5 229.2"/>
      <polygon class="st0" points="531.6 247.7 530.7 243.3 558.1 242.2 531.6 247.7"/>
      <polygon class="st0" points="558.1 242.2 530.7 243.3 545.5 229.2 558.1 242.2"/>
      <polygon class="st0" points="537.9 194.1 549.6 213.7 553.5 196.4 537.9 194.1"/>
      <polygon class="st0" points="553.5 196.4 572.2 170.3 571.6 181.4 553.5 196.4"/>
      <polygon class="st0" points="553.5 196.4 571.6 181.4 559 200.5 553.5 196.4"/>
      <polygon class="st0" points="571.6 181.4 572.2 170.3 583.4 177.7 571.6 181.4"/>
      <polygon class="st0" points="571.6 181.4 583.4 177.7 582.4 183.5 571.6 181.4"/>
      <polygon class="st0" points="486.1 107.9 483.2 103.9 511.6 82.5 486.1 107.9"/>
      <polygon class="st0" points="511.6 82.5 483.2 103.9 469.4 70.2 511.6 82.5"/>
      <polygon class="st0" points="590.1 181.3 606.3 165 583.4 177.7 590.1 181.3"/>
      <polygon class="st0" points="606.3 165 590.1 181.3 601.4 192.8 606.3 165"/>
      <polygon class="st0" points="621.5 216.9 628 218.1 620.2 193.5 621.5 216.9"/>
      <polygon class="st0" points="627.9 258.1 621.5 216.9 628 218.1 627.9 258.1"/>
      <polygon class="st0" points="627.9 258.1 628 218.1 633.9 260.4 627.9 258.1"/>
      <polygon class="st0" points="571.4 214.4 591.3 192.6 599.8 211.1 571.4 214.4"/>
      <polygon class="st0" points="571.4 214.4 599.8 211.1 607.6 245 571.4 214.4"/>
      <polygon class="st0" points="599.8 211.1 591.3 192.6 601.4 192.8 599.8 211.1"/>
      <polygon class="st0" points="599.8 211.1 601.4 192.8 610.4 214.4 599.8 211.1"/>
      <polygon class="st0" points="601.4 192.8 591.3 192.6 590.6 191.1 601.4 192.8"/>
      <polygon class="st0" points="571.4 214.4 582.4 183.5 590.6 191.1 571.4 214.4"/>
      <polygon class="st0" points="571.4 214.4 590.6 191.1 591.3 192.6 571.4 214.4"/>
      <polygon class="st0" points="590.6 191.1 601.4 192.8 590.1 181.3 590.6 191.1"/>
      <polygon class="st0" points="633.9 260.4 627.9 258.1 632 294.4 633.9 260.4"/>
      <polygon class="st0" points="548 290.9 558.1 242.2 570.3 275.5 548 290.9"/>
      <polygon class="st0" points="548 290.9 570.3 275.5 592.4 260.4 548 290.9"/>
      <polygon class="st0" points="592.4 260.4 570.3 275.5 573.8 253.5 592.4 260.4"/>
      <polygon class="st0" points="570.3 275.5 573.8 253.5 558.1 242.2 570.3 275.5"/>
      <polygon class="st0" points="492 287.6 473.9 249.8 514.1 258.9 492 287.6"/>
      <polygon class="st0" points="514.1 258.9 473.9 249.8 476.5 224.3 514.1 258.9"/>
      <polygon class="st0" points="476.5 224.3 514.1 258.9 513.8 240.9 476.5 224.3"/>
      <polygon class="st0" points="479.1 279.5 472.4 256.5 492 287.6 479.1 279.5"/>
      <polygon class="st0" points="492 287.6 472.4 256.5 473.9 249.8 492 287.6"/>
      <polygon class="st0" points="478.1 221.1 476.5 224.3 480.6 222.6 478.1 221.1"/>
      <polygon class="st0" points="476.5 224.3 478.1 221.1 476.4 213.8 476.5 224.3"/>
      <polygon class="st0" points="478.1 217.2 476.4 213.8 478.1 221.1 478.1 217.2"/>
      <polygon class="st0" points="476.4 213.8 478.1 217.2 480.6 217 476.4 213.8"/>
      <polygon class="st0" points="393.5 252.2 389.6 260.7 398.7 251.8 393.5 252.2"/>
      <polygon class="st0" points="384.5 259.2 382.1 246 393.5 252.2 384.5 259.2"/>
      <polygon class="st0" points="384.5 259.2 393.5 252.2 389.6 260.7 384.5 259.2"/>
      <polygon class="st0" points="393.5 252.2 382.1 246 392.7 246.1 393.5 252.2"/>
      <polygon class="st0" points="393.5 252.2 398.7 251.8 392.7 246.1 393.5 252.2"/>
      <polygon class="st0" points="506.9 305.9 548 290.9 554 330.8 506.9 305.9"/>
      <polygon class="st0" points="554 330.8 548 290.9 565 305.2 554 330.8"/>
      <polygon class="st0" points="554 330.8 565 305.2 573 338.9 554 330.8"/>
      <polygon class="st0" points="573 338.9 565 305.2 585 314.9 573 338.9"/>
      <polygon class="st0" points="377.9 299 401.4 326.5 386.5 297 377.9 299"/>
      <polygon class="st0" points="370.2 334.3 363.5 317 401.4 326.5 370.2 334.3"/>
      <polygon class="st0" points="401.4 326.5 363.5 317 377.9 299 401.4 326.5"/>
      <polygon class="st0" points="436.9 274.5 442.7 266.6 440 275.1 436.9 274.5"/>
      <polygon class="st0" points="440 275.1 442.7 266.6 445.3 265.9 440 275.1"/>
      <polygon class="st0" points="445.3 265.9 442.7 266.6 445.1 263.3 445.3 265.9"/>
      <polygon class="st0" points="432.7 278.7 430.4 275 436.9 274.5 432.7 278.7"/>
      <polygon class="st0" points="432.7 278.7 436.9 274.5 440 275.1 432.7 278.7"/>
      <polygon class="st0" points="445.3 265.9 445.1 263.3 454.6 261.4 445.3 265.9"/>
      <polygon class="st0" points="454.6 261.4 445.1 263.3 455 259.9 454.6 261.4"/>
      <polygon class="st0" points="413.4 324.8 433.1 292.1 425.3 323.1 413.4 324.8"/>
      <polygon class="st0" points="447.1 322.6 425.3 323.1 433.1 292.1 447.1 322.6"/>
      <polygon class="st0" points="413.4 324.8 416.1 281.3 429.3 288.6 413.4 324.8"/>
      <polygon class="st0" points="413.4 324.8 429.3 288.6 433.1 292.1 413.4 324.8"/>
      <polygon class="st0" points="433.1 292.1 447.1 322.6 438.3 284 433.1 292.1"/>
      <polygon class="st0" points="370.2 334.3 401.4 326.5 398.9 346.6 370.2 334.3"/>
      <polygon class="st0" points="398.9 346.6 401.4 326.5 422.2 339.3 398.9 346.6"/>
      <polygon class="st0" points="401.4 326.5 413.4 324.8 422.2 339.3 401.4 326.5"/>
      <polygon class="st0" points="422.2 339.3 413.4 324.8 425.3 323.1 422.2 339.3"/>
      <polygon class="st0" points="422.2 339.3 425.3 323.1 447.1 322.6 422.2 339.3"/>
      <polygon class="st0" points="370.2 334.3 363.5 317 343.5 347.9 370.2 334.3"/>
      <polygon class="st0" points="398.9 346.6 370.2 334.3 381.8 346.5 398.9 346.6"/>
      <polygon class="st0" points="409.9 413.4 409.3 420.8 435.6 419.2 409.9 413.4"/>
      <polygon class="st0" points="409.3 420.8 409.9 413.4 401.3 416 409.3 420.8"/>
      <polygon class="st0" points="435.6 419.2 469.5 402.6 439.7 397.8 435.6 419.2"/>
      <polygon class="st0" points="435.6 419.2 469.5 402.6 457 430.1 435.6 419.2"/>
      <polygon class="st0" points="457 430.1 469.5 402.6 490.7 422.2 457 430.1"/>
      <polygon class="st0" points="493.8 423.1 490.7 422.2 469.5 402.6 493.8 423.1"/>
      <polygon class="st0" points="535.4 425.1 558 416 548.9 429.7 535.4 425.1"/>
      <polygon class="st0" points="548.9 429.7 558 416 569 413.7 548.9 429.7"/>
      <polygon class="st0" points="508.5 451.6 517.5 424.7 535.4 425.1 508.5 451.6"/>
      <polygon class="st0" points="508.5 451.6 535.4 425.1 548.9 429.7 508.5 451.6"/>
      <polygon class="st0" points="358.1 388.9 367.5 416.9 364.2 389.9 358.1 388.9"/>
      <polygon class="st0" points="367.5 416.9 358.1 388.9 357.3 394.5 367.5 416.9"/>
      <polygon class="st0" points="367.5 416.9 357.3 394.5 344.7 396.2 367.5 416.9"/>
      <polygon class="st0" points="364.2 389.9 367.5 416.9 368.4 390 364.2 389.9"/>
      <polygon class="st0" points="364.2 389.9 366.9 383.8 368.4 390 364.2 389.9"/>
      <polygon class="st0" points="368.4 390 366.9 383.8 368.6 383.8 368.4 390"/>
      <polygon class="st0" points="367.5 416.9 368.4 390 381.6 385.4 367.5 416.9"/>
      <polygon class="st0" points="381.6 385.4 368.4 390 368.6 383.8 381.6 385.4"/>
      <polygon class="st0" points="381.6 385.4 368.6 383.8 368.7 374.6 381.6 385.4"/>
      <polygon class="st0" points="367.5 416.9 381.6 385.4 395.6 417.7 367.5 416.9"/>
      <polygon class="st0" points="395.6 417.7 381.6 385.4 401.3 416 395.6 417.7"/>
      <polygon class="st0" points="401.3 416 381.6 385.4 407 404.5 401.3 416"/>
      <polygon class="st0" points="401.3 416 407 404.5 409.9 413.4 401.3 416"/>
      <polygon class="st0" points="435.6 419.2 409.9 413.4 407 404.5 435.6 419.2"/>
      <polygon class="st0" points="400.4 376.9 408.5 385.7 381.6 385.4 400.4 376.9"/>
      <polygon class="st0" points="381.6 385.4 408.5 385.7 407 404.5 381.6 385.4"/>
      <polygon class="st0" points="508.5 451.6 517.5 424.7 506.8 427.3 508.5 451.6"/>
      <polygon class="st0" points="508.5 451.6 506.8 427.3 493.8 423.1 508.5 451.6"/>
      <polygon class="st0" points="245.3 267 235.4 266.5 248 282.5 245.3 267"/>
      <polygon class="st0" points="248 282.5 245.3 267 256.5 269 248 282.5"/>
      <polygon class="st0" points="248 282.5 256.5 269 254.6 288.6 248 282.5"/>
      <polygon class="st0" points="248 282.5 235.4 266.5 236.1 283.5 248 282.5"/>
      <polygon class="st0" points="254.6 288.6 248 282.5 250.7 292.7 254.6 288.6"/>
      <polygon class="st0" points="253.3 303.1 250.7 292.7 254.1 295.3 253.3 303.1"/>
      <polygon class="st0" points="254.1 295.3 250.7 292.7 254.6 288.6 254.1 295.3"/>
      <polygon class="st0" points="254.6 288.6 254.1 295.3 260.5 296 254.6 288.6"/>
      <polygon class="st0" points="253.3 303.1 254.1 295.3 260.5 296 253.3 303.1"/>
      <polygon class="st0" points="253.3 303.1 260.5 296 259.7 304.6 253.3 303.1"/>
      <polygon class="st0" points="259.7 304.6 253.3 303.1 266.1 346.8 259.7 304.6"/>
      <polygon class="st0" points="259.7 304.6 260.5 296 266.4 291 259.7 304.6"/>
      <polygon class="st0" points="259.7 304.6 266.4 291 277.9 312.5 259.7 304.6"/>
      <polygon class="st0" points="258 341.3 238.8 303.2 260.8 363.9 258 341.3"/>
      <polygon class="st0" points="323.6 424.7 322.2 417.1 309.7 416.7 323.6 424.7"/>
      <polygon class="st0" points="322.2 417.1 323.6 424.7 333.2 427.8 322.2 417.1"/>
      <polygon class="st0" points="309.7 416.7 322.2 417.1 318 407.3 309.7 416.7"/>
      <polygon class="st0" points="309.7 416.7 299.7 406 318 407.3 309.7 416.7"/>
      <polygon class="st0" points="318 407.3 299.7 406 309.5 396.9 318 407.3"/>
      <polygon class="st0" points="318 407.3 322.2 417.1 320.4 407.6 318 407.3"/>
      <polygon class="st0" points="309.5 396.9 302 385.6 309.9 390.8 309.5 396.9"/>
      <polygon class="st0" points="309.9 390.8 302 385.6 307.6 382.3 309.9 390.8"/>
      <polygon class="st0" points="309.9 390.8 307.6 382.3 314.2 381.8 309.9 390.8"/>
      <polygon class="st0" points="309.9 390.8 314.2 381.8 316.5 388.3 309.9 390.8"/>
      <polygon class="st0" points="297 377 285.6 375.2 297.4 380.2 297 377"/>
      <polygon class="st0" points="297.4 380.2 285.6 375.2 289.9 388.5 297.4 380.2"/>
      <polygon class="st0" points="297.4 380.2 289.9 388.5 302 385.6 297.4 380.2"/>
      <polygon class="st0" points="289.9 388.5 285.6 375.2 287.8 393.4 289.9 388.5"/>
      <polygon class="st0" points="297 377 294.6 360.6 302.4 363.5 297 377"/>
      <polygon class="st0" points="297 377 302.4 363.5 299.4 376.7 297 377"/>
      <polygon class="st0" points="294.6 360.6 289.2 350 305.7 349.3 294.6 360.6"/>
      <polygon class="st0" points="305.7 349.3 289.2 350 293 336.3 305.7 349.3"/>
      <polygon class="st0" points="271.6 327.4 289.2 350 293 336.3 271.6 327.4"/>
      <polygon class="st0" points="271.6 327.4 293 336.3 277.9 312.5 271.6 327.4"/>
      <polygon class="st0" points="293 336.3 277.9 312.5 294 300.1 293 336.3"/>
      <polygon class="st0" points="293 336.3 294 300.1 305.7 349.3 293 336.3"/>
      <polygon class="st0" points="305.7 349.3 294.6 360.6 302.4 363.5 305.7 349.3"/>
      <polygon class="st0" points="302.4 363.5 316.9 368.8 305.7 349.3 302.4 363.5"/>
      <polygon class="st0" points="316.9 368.8 302.4 363.5 299.4 376.7 316.9 368.8"/>
      <polygon class="st0" points="316.9 368.8 305.7 349.3 343.5 347.9 316.9 368.8"/>
      <polygon class="st0" points="343.5 347.9 305.7 349.3 327.9 323.3 343.5 347.9"/>
      <polygon class="st0" points="266.4 291 277.9 312.5 294 300.1 266.4 291"/>
      <polygon class="st0" points="266.4 291 294 300.1 269.5 268.8 266.4 291"/>
      <polygon class="st0" points="256.5 269 254.6 288.6 269.5 268.8 256.5 269"/>
      <polygon class="st0" points="245.3 267 263.2 221.1 267 250.1 245.3 267"/>
      <polygon class="st0" points="245.3 267 267 250.1 256.5 269 245.3 267"/>
      <polygon class="st0" points="256.5 269 267 250.1 269.5 268.8 256.5 269"/>
      <polygon class="st0" points="267 250.1 269.5 268.8 290.8 234.3 267 250.1"/>
      <polygon class="st0" points="263.2 221.1 267 250.1 290.9 213.5 263.2 221.1"/>
      <polygon class="st0" points="245.3 267 253.2 194.4 254.8 198.6 245.3 267"/>
      <polygon class="st0" points="245.3 267 254.8 198.6 263.2 221.1 245.3 267"/>
      <polygon class="st0" points="253.2 194.4 254.8 198.6 256.4 195.2 253.2 194.4"/>
      <polygon class="st0" points="254.8 198.6 263.2 221.1 267 203 254.8 198.6"/>
      <polygon class="st0" points="269.5 268.8 294 300.1 300.1 278.6 269.5 268.8"/>
      <polygon class="st0" points="269.5 268.8 300.1 278.6 296.4 257.8 269.5 268.8"/>
      <polygon class="st0" points="296.4 257.8 300.1 278.6 354.8 281.8 296.4 257.8"/>
      <polygon class="st0" points="269.5 268.8 296.4 257.8 290.8 234.3 269.5 268.8"/>
      <polygon class="st0" points="267 250.1 290.8 234.3 290.9 213.5 267 250.1"/>
      <polygon class="st0" points="354.8 281.8 300.1 278.6 319.1 307.5 354.8 281.8"/>
      <polygon class="st0" points="327.9 323.3 319.1 307.5 363.5 317 327.9 323.3"/>
      <polygon class="st0" points="363.5 317 319.1 307.5 354.8 281.8 363.5 317"/>
      <polygon class="st0" points="354.8 281.8 363.5 317 377.9 299 354.8 281.8"/>
      <polygon class="st0" points="343.5 347.9 363.5 317 327.9 323.3 343.5 347.9"/>
      <polygon class="st0" points="316.9 368.8 343.5 347.9 334 379.5 316.9 368.8"/>
      <polygon class="st0" points="334 379.5 343.5 347.9 358.1 388.9 334 379.5"/>
      <polygon class="st0" points="334 379.5 328.6 400.1 334.5 403.6 334 379.5"/>
      <polygon class="st0" points="327.6 404.1 328.6 400.1 334.5 403.6 327.6 404.1"/>
      <polygon class="st0" points="327.6 404.1 334.5 403.6 339.3 416 327.6 404.1"/>
      <polygon class="st0" points="354.8 281.8 356.6 266.1 384.5 259.2 354.8 281.8"/>
      <polygon class="st0" points="354.8 281.8 384.5 259.2 389.6 260.7 354.8 281.8"/>
      <polygon class="st0" points="384.5 259.2 373.4 240.5 382.1 246 384.5 259.2"/>
      <polygon class="st0" points="379.9 234.4 382.1 246 373.4 240.5 379.9 234.4"/>
      <polygon class="st0" points="382.1 246 379.9 234.4 392.7 246.1 382.1 246"/>
      <polygon class="st0" points="392.7 246.1 379.9 234.4 390.9 219.3 392.7 246.1"/>
      <polygon class="st0" points="386.5 211.9 390.9 219.3 379.9 234.4 386.5 211.9"/>
      <polygon class="st0" points="379.9 234.4 362.3 221.5 373.4 240.5 379.9 234.4"/>
      <polygon class="st0" points="362.3 221.5 379.9 234.4 371.7 220.9 362.3 221.5"/>
      <polygon class="st0" points="338.6 234.1 339.1 228.7 349 222.8 338.6 234.1"/>
      <polygon class="st0" points="338.6 234.1 349 222.8 362.3 221.5 338.6 234.1"/>
      <polygon class="st0" points="349 222.8 343.4 202.8 362.3 221.5 349 222.8"/>
      <polygon class="st0" points="362.3 221.5 343.4 202.8 347.9 196.5 362.3 221.5"/>
      <polygon class="st0" points="339.1 228.7 338.3 203.1 349 222.8 339.1 228.7"/>
      <polygon class="st0" points="349 222.8 338.3 203.1 343.4 202.8 349 222.8"/>
      <polygon class="st0" points="339.1 228.7 333 224.9 328.8 231.1 339.1 228.7"/>
      <polygon class="st0" points="333 224.9 332 198.3 338.3 203.1 333 224.9"/>
      <polygon class="st0" points="333 224.9 338.3 203.1 339.1 228.7 333 224.9"/>
      <polygon class="st0" points="322.6 227.5 320.8 212.8 333 224.9 322.6 227.5"/>
      <polygon class="st0" points="322.6 227.5 333 224.9 328.8 231.1 322.6 227.5"/>
      <polygon class="st0" points="316.9 245.5 328.8 231.1 322.6 227.5 316.9 245.5"/>
      <polygon class="st0" points="354.8 281.8 356.6 266.1 316.9 245.5 354.8 281.8"/>
      <polygon class="st0" points="356.6 266.1 362.3 221.5 339.5 249.4 356.6 266.1"/>
      <polygon class="st0" points="362.3 221.5 356.6 266.1 373.4 240.5 362.3 221.5"/>
      <polygon class="st0" points="384.5 259.2 373.4 240.5 356.6 266.1 384.5 259.2"/>
      <polygon class="st0" points="316.9 245.5 356.6 266.1 339.5 249.4 316.9 245.5"/>
      <polygon class="st0" points="334 236.4 316.9 245.5 339.5 249.4 334 236.4"/>
      <polygon class="st0" points="338.6 234.1 334 236.4 339.5 249.4 338.6 234.1"/>
      <polygon class="st0" points="362.3 221.5 338.6 234.1 339.5 249.4 362.3 221.5"/>
      <polygon class="st0" points="354.8 281.8 377.9 299 384.5 292.8 354.8 281.8"/>
      <polygon class="st0" points="384.5 292.8 377.9 299 386.5 297 384.5 292.8"/>
      <polygon class="st0" points="386.5 297 384.5 292.8 392.9 289.4 386.5 297"/>
      <polygon class="st0" points="386.5 297 392.9 289.4 400.7 289.1 386.5 297"/>
      <polygon class="st0" points="400.7 289.1 396.5 283 398.9 280.9 400.7 289.1"/>
      <polygon class="st0" points="400.7 289.1 398.9 280.9 414.8 279.4 400.7 289.1"/>
      <polygon class="st0" points="400.7 289.1 414.8 279.4 416.1 281.3 400.7 289.1"/>
      <polygon class="st0" points="398.9 280.9 408.5 270.5 409.6 272.6 398.9 280.9"/>
      <polygon class="st0" points="398.9 280.9 409.6 272.6 414.8 279.4 398.9 280.9"/>
      <polygon class="st0" points="421.4 281.3 416.1 281.3 416.2 276.1 421.4 281.3"/>
      <polygon class="st0" points="421.4 281.3 416.2 276.1 424.3 270.9 421.4 281.3"/>
      <polygon class="st0" points="421.4 281.3 424.3 270.9 430.4 275 421.4 281.3"/>
      <polygon class="st0" points="436.9 274.5 430.4 275 437.4 263.8 436.9 274.5"/>
      <polygon class="st0" points="436.9 274.5 437.4 263.8 442.7 266.6 436.9 274.5"/>
      <polygon class="st0" points="455 259.9 445.1 263.3 446.7 260.5 455 259.9"/>
      <polygon class="st0" points="455 259.9 446.7 260.5 453 256.2 455 259.9"/>
      <polygon class="st0" points="409.6 272.6 416.2 276.1 414.8 279.4 409.6 272.6"/>
      <polygon class="st0" points="414.8 279.4 416.2 276.1 416.1 281.3 414.8 279.4"/>
      <polygon class="st0" points="424.3 270.9 427.9 264.6 430.4 275 424.3 270.9"/>
      <polygon class="st0" points="430.4 275 427.9 264.6 437.4 263.8 430.4 275"/>
      <polygon class="st0" points="437.4 263.8 439.3 260.6 442.7 266.6 437.4 263.8"/>
      <polygon class="st0" points="442.7 266.6 439.3 260.6 445.1 263.3 442.7 266.6"/>
      <polygon class="st0" points="445.1 263.3 439.3 260.6 446.7 260.5 445.1 263.3"/>
      <polygon class="st0" points="421.4 281.3 416.1 281.3 429.3 288.6 421.4 281.3"/>
      <polygon class="st0" points="430.4 275 421.4 281.3 432.7 278.7 430.4 275"/>
      <polygon class="st0" points="455 259.9 454.6 261.4 465.2 263.8 455 259.9"/>
      <polygon class="st0" points="454.6 261.4 445.3 265.9 453.9 275.9 454.6 261.4"/>
      <polygon class="st0" points="445.3 265.9 440 275.1 449.8 276.2 445.3 265.9"/>
      <polygon class="st0" points="432.6 284.2 432.7 278.7 438.3 284 432.6 284.2"/>
      <polygon class="st0" points="438.3 284 432.7 278.7 440 275.1 438.3 284"/>
      <polygon class="st0" points="421.4 281.3 432.7 278.7 432.6 284.2 421.4 281.3"/>
      <polygon class="st0" points="421.4 281.3 432.6 284.2 429.3 288.6 421.4 281.3"/>
      <polygon class="st0" points="429.3 288.6 432.6 284.2 433.1 292.1 429.3 288.6"/>
      <polygon class="st0" points="433.1 292.1 432.6 284.2 438.3 284 433.1 292.1"/>
      <polygon class="st0" points="438.3 284 449.8 276.2 440 275.1 438.3 284"/>
      <polygon class="st0" points="438.3 284 449.8 276.2 468.6 298.2 438.3 284"/>
      <polygon class="st0" points="468.6 298.2 449.8 276.2 453.9 275.9 468.6 298.2"/>
      <polygon class="st0" points="449.8 276.2 453.9 275.9 445.3 265.9 449.8 276.2"/>
      <polygon class="st0" points="453.9 275.9 465.2 263.8 454.6 261.4 453.9 275.9"/>
      <polygon class="st0" points="465.2 263.8 453.9 275.9 469.2 261.7 465.2 263.8"/>
      <polygon class="st0" points="455 259.9 453 256.2 456.5 257.1 455 259.9"/>
      <polygon class="st0" points="455 259.9 456.5 257.1 464.4 259.4 455 259.9"/>
      <polygon class="st0" points="455 259.9 464.4 259.4 465.2 263.8 455 259.9"/>
      <polygon class="st0" points="464.4 259.4 465.2 263.8 469.2 261.7 464.4 259.4"/>
      <polygon class="st0" points="453 256.2 453.5 250.9 456.5 257.1 453 256.2"/>
      <polygon class="st0" points="456.5 257.1 453.5 250.9 457.4 250.1 456.5 257.1"/>
      <polygon class="st0" points="425 262.9 411.3 247.5 419.1 226.1 425 262.9"/>
      <polygon class="st0" points="425 262.9 419.1 226.1 437.4 263.8 425 262.9"/>
      <polygon class="st0" points="425 262.9 437.4 263.8 427.9 264.6 425 262.9"/>
      <polygon class="st0" points="409.6 272.6 427.9 264.6 424.3 270.9 409.6 272.6"/>
      <polygon class="st0" points="409.6 272.6 424.3 270.9 416.2 276.1 409.6 272.6"/>
      <polygon class="st0" points="409.6 272.6 408.5 270.5 417.9 261.7 409.6 272.6"/>
      <polygon class="st0" points="409.6 272.6 417.9 261.7 425 262.9 409.6 272.6"/>
      <polygon class="st0" points="409.6 272.6 425 262.9 427.9 264.6 409.6 272.6"/>
      <polygon class="st0" points="408.5 270.5 417.9 261.7 411.3 247.5 408.5 270.5"/>
      <polygon class="st0" points="417.9 261.7 425 262.9 411.3 247.5 417.9 261.7"/>
      <polygon class="st0" points="411.3 247.5 398.7 251.8 408.5 270.5 411.3 247.5"/>
      <polygon class="st0" points="398.7 251.8 400 221.6 411.3 247.5 398.7 251.8"/>
      <polygon class="st0" points="411.3 247.5 400 221.6 419.1 226.1 411.3 247.5"/>
      <polygon class="st0" points="398.9 280.9 395 272.6 398.7 251.8 398.9 280.9"/>
      <polygon class="st0" points="398.7 251.8 395 272.6 389.6 260.7 398.7 251.8"/>
      <polygon class="st0" points="398.9 280.9 408.5 270.5 398.7 251.8 398.9 280.9"/>
      <polygon class="st0" points="443.4 250.8 441.5 248.3 443.6 244.2 443.4 250.8"/>
      <polygon class="st0" points="443.4 250.8 443.6 244.2 450.4 247.5 443.4 250.8"/>
      <polygon class="st0" points="443.4 250.8 450.4 247.5 449.5 250.4 443.4 250.8"/>
      <polygon class="st0" points="437.9 241.1 437.2 236.3 448.6 238.8 437.9 241.1"/>
      <polygon class="st0" points="437.9 241.1 448.6 238.8 443.6 244.2 437.9 241.1"/>
      <polygon class="st0" points="400 221.6 410.1 217 413.2 220.4 400 221.6"/>
      <polygon class="st0" points="400 221.6 413.2 220.4 419.1 226.1 400 221.6"/>
      <polygon class="st0" points="400 221.6 410.1 217 402.7 213 400 221.6"/>
      <polygon class="st0" points="392.7 246.1 390.9 219.3 400 221.6 392.7 246.1"/>
      <polygon class="st0" points="392.7 246.1 400 221.6 398.7 251.8 392.7 246.1"/>
      <polygon class="st0" points="390.9 219.3 386.5 211.9 399 211 390.9 219.3"/>
      <polygon class="st0" points="390.9 219.3 399 211 400 221.6 390.9 219.3"/>
      <polygon class="st0" points="379.2 208.6 399.2 196.5 386.5 211.9 379.2 208.6"/>
      <polygon class="st0" points="386.5 211.9 399.2 196.5 399 211 386.5 211.9"/>
      <polygon class="st0" points="402.7 213 399 211 400 221.6 402.7 213"/>
      <polygon class="st0" points="408.8 204.9 402.7 213 410.1 217 408.8 204.9"/>
      <polygon class="st0" points="414.6 199.9 408.8 204.9 417.6 214.2 414.6 199.9"/>
      <polygon class="st0" points="420.1 199.6 414.6 199.9 422.5 209.1 420.1 199.6"/>
      <polygon class="st0" points="420.1 199.6 422.8 189.9 427 194.8 420.1 199.6"/>
      <polygon class="st0" points="427 194.8 422.8 189.9 444.3 175.2 427 194.8"/>
      <polygon class="st0" points="427 194.8 420.1 199.6 430.8 200.2 427 194.8"/>
      <polygon class="st0" points="427 194.8 430.8 200.2 435.9 200.4 427 194.8"/>
      <polygon class="st0" points="430 208.1 430.8 200.2 435.6 204.3 430 208.1"/>
      <polygon class="st0" points="430 208.1 435.6 204.3 435.4 209.8 430 208.1"/>
      <polygon class="st0" points="435.9 200.4 435.6 204.3 430.8 200.2 435.9 200.4"/>
      <polygon class="st0" points="422.5 209.1 430 208.1 424.3 210.8 422.5 209.1"/>
      <polygon class="st0" points="429.2 215.3 424.3 210.8 430 208.1 429.2 215.3"/>
      <polygon class="st0" points="417.6 214.2 422.5 209.1 414.6 199.9 417.6 214.2"/>
      <polygon class="st0" points="371.7 220.9 376.4 223.5 380.9 222.2 371.7 220.9"/>
      <polygon class="st0" points="376.4 223.5 371.7 220.9 379.9 234.4 376.4 223.5"/>
      <polygon class="st0" points="380.9 222.2 376.4 223.5 379.9 234.4 380.9 222.2"/>
      <polygon class="st0" points="371.7 220.9 373.5 216.2 381 218.6 371.7 220.9"/>
      <polygon class="st0" points="371.7 220.9 381 218.6 380.9 222.2 371.7 220.9"/>
      <polygon class="st0" points="373.5 216.2 386.5 211.9 381 218.6 373.5 216.2"/>
      <polygon class="st0" points="380.9 222.2 381 218.6 386.5 211.9 380.9 222.2"/>
      <polygon class="st0" points="362.3 221.5 379.2 208.6 373.5 216.2 362.3 221.5"/>
      <polygon class="st0" points="362.3 221.5 373.5 216.2 371.7 220.9 362.3 221.5"/>
      <polygon class="st0" points="386.5 211.9 373.5 216.2 379.2 208.6 386.5 211.9"/>
      <polygon class="st0" points="334 379.5 334.5 403.6 338.3 396.9 334 379.5"/>
      <polygon class="st0" points="339.3 416 334.5 403.6 344.7 396.2 339.3 416"/>
      <polygon class="st0" points="344.7 396.2 334.5 403.6 338.3 396.9 344.7 396.2"/>
      <polygon class="st0" points="339.3 416 341.8 422.1 352.5 425.5 339.3 416"/>
      <polygon class="st0" points="341.8 422.1 339.3 416 334.6 421.5 341.8 422.1"/>
      <polygon class="st0" points="352.5 425.5 341.8 422.1 333.2 427.8 352.5 425.5"/>
      <polygon class="st0" points="339.9 441.7 333.2 427.8 352.5 425.5 339.9 441.7"/>
      <polygon class="st0" points="339.9 441.7 352.5 425.5 373 447 339.9 441.7"/>
      <polygon class="st0" points="333.2 427.8 341.8 422.1 334.6 421.5 333.2 427.8"/>
      <polygon class="st0" points="333.2 427.8 334.6 421.5 322.2 417.1 333.2 427.8"/>
      <polygon class="st0" points="410.1 217 417.6 214.2 408.8 204.9 410.1 217"/>
      <polygon class="st0" points="420.1 199.6 422.5 209.1 430.8 200.2 420.1 199.6"/>
      <polygon class="st0" points="430.8 200.2 422.5 209.1 430 208.1 430.8 200.2"/>
      <polygon class="st0" points="450.4 247.5 456.2 240.5 455.8 247.2 450.4 247.5"/>
      <polygon class="st0" points="455.8 247.2 456.2 240.5 460 241.6 455.8 247.2"/>
      <polygon class="st0" points="460 241.6 460.7 229.8 454.6 234.4 460 241.6"/>
      <polygon class="st0" points="437.2 236.3 448 225.9 448.6 238.8 437.2 236.3"/>
      <polygon class="st0" points="448.6 238.8 448 225.9 454.6 234.4 448.6 238.8"/>
      <polygon class="st0" points="454.6 234.4 448 225.9 460.7 229.8 454.6 234.4"/>
      <polygon class="st0" points="440.2 224 441.5 221.8 448 225.9 440.2 224"/>
      <polygon class="st0" points="448 225.9 441.5 221.8 446.8 221.4 448 225.9"/>
      <polygon class="st0" points="440.2 224 434.8 223.4 437.2 236.3 440.2 224"/>
      <polygon class="st0" points="440.2 224 437.2 236.3 448 225.9 440.2 224"/>
      <polygon class="st0" points="443.6 244.2 448.6 238.8 450.4 247.5 443.6 244.2"/>
      <polygon class="st0" points="450.4 247.5 448.6 238.8 456.2 240.5 450.4 247.5"/>
      <polygon class="st0" points="448.6 238.8 456.2 240.5 454.6 234.4 448.6 238.8"/>
      <polygon class="st0" points="456.2 240.5 460 241.6 454.6 234.4 456.2 240.5"/>
      <polygon class="st0" points="445 218.8 443.3 201.5 449.2 212.7 445 218.8"/>
      <polygon class="st0" points="449.2 212.7 443.3 201.5 453.2 206.5 449.2 212.7"/>
      <polygon class="st0" points="445 218.8 449.2 212.7 450.1 220.6 445 218.8"/>
      <polygon class="st0" points="450.1 220.6 449.2 212.7 456.6 222.6 450.1 220.6"/>
      <polygon class="st0" points="453.2 206.5 449.2 212.7 456.6 222.6 453.2 206.5"/>
      <polygon class="st0" points="467.7 251.8 468 244.9 473.9 249.8 467.7 251.8"/>
      <polygon class="st0" points="467.7 251.8 473.9 249.8 472.4 256.5 467.7 251.8"/>
      <polygon class="st0" points="472.4 256.5 469.2 261.7 479.1 279.5 472.4 256.5"/>
      <polygon class="st0" points="468 244.9 466.3 240.9 473.7 232.4 468 244.9"/>
      <polygon class="st0" points="468 244.9 473.7 232.4 473.9 249.8 468 244.9"/>
      <polygon class="st0" points="473.9 249.8 473.7 232.4 476.5 224.3 473.9 249.8"/>
      <polygon class="st0" points="476.5 224.3 473.7 232.4 472.8 224.1 476.5 224.3"/>
      <polygon class="st0" points="472.8 224.1 476.5 224.3 473.9 217.1 472.8 224.1"/>
      <polygon class="st0" points="476.5 224.3 473.9 217.1 476.4 213.8 476.5 224.3"/>
      <polygon class="st0" points="473.6 200.5 476.2 203.3 476.4 213.8 473.6 200.5"/>
      <polygon class="st0" points="473.6 200.5 476.4 213.8 473.9 217.1 473.6 200.5"/>
      <polygon class="st0" points="473.6 200.5 476.2 203.3 471.9 192.6 473.6 200.5"/>
      <polygon class="st0" points="476.2 203.3 476.4 213.8 480.2 211 476.2 203.3"/>
      <polygon class="st0" points="480.2 211 476.2 203.3 480.1 204.2 480.2 211"/>
      <polygon class="st0" points="471.9 192.6 480.1 204.2 476.2 203.3 471.9 192.6"/>
      <polygon class="st0" points="480.1 204.2 471.9 192.6 490.4 191.3 480.1 204.2"/>
      <polygon class="st0" points="480.1 204.2 490.4 191.3 492.3 197.2 480.1 204.2"/>
      <polygon class="st0" points="480.6 217 480.2 211 492.3 197.2 480.6 217"/>
      <polygon class="st0" points="492.3 197.2 480.2 211 480.1 204.2 492.3 197.2"/>
      <polygon class="st0" points="290.8 234.3 320.8 212.8 322.6 227.5 290.8 234.3"/>
      <polygon class="st0" points="290.8 234.3 322.6 227.5 316.9 245.5 290.8 234.3"/>
      <polygon class="st0" points="290.8 234.3 312 199.7 320.8 212.8 290.8 234.3"/>
      <polygon class="st0" points="320.8 212.8 312 199.7 318.6 203.7 320.8 212.8"/>
      <polygon class="st0" points="290.8 234.3 312 199.7 290.9 213.5 290.8 234.3"/>
      <polygon class="st0" points="290.9 213.5 312 199.7 296.9 196.4 290.9 213.5"/>
      <polygon class="st0" points="290.9 213.5 287.9 202.8 296.9 196.4 290.9 213.5"/>
      <polygon class="st0" points="296.9 196.4 287.9 202.8 296 191.1 296.9 196.4"/>
      <polygon class="st0" points="263.2 221.1 267 203 274.2 213.5 263.2 221.1"/>
      <polygon class="st0" points="263.2 221.1 274.2 213.5 283.8 213.3 263.2 221.1"/>
      <polygon class="st0" points="263.2 221.1 283.8 213.3 290.9 213.5 263.2 221.1"/>
      <polygon class="st0" points="290.9 213.5 283.8 213.3 287.9 202.8 290.9 213.5"/>
      <polygon class="st0" points="273.9 202.8 274.2 213.5 267 203 273.9 202.8"/>
      <polygon class="st0" points="283.8 213.3 294.5 175.9 287.9 202.8 283.8 213.3"/>
      <polygon class="st0" points="296 191.1 287.9 202.8 294.5 175.9 296 191.1"/>
      <polygon class="st0" points="274.2 213.5 273.9 202.8 283.8 213.3 274.2 213.5"/>
      <polygon class="st0" points="283.8 213.3 273.9 202.8 275.7 193.7 283.8 213.3"/>
      <polygon class="st0" points="267 203 268.6 194.4 273.9 202.8 267 203"/>
      <polygon class="st0" points="273.9 202.8 268.6 194.4 275.7 193.7 273.9 202.8"/>
      <polygon class="st0" points="254.8 198.6 268.8 191.6 268.6 194.4 254.8 198.6"/>
      <polygon class="st0" points="254.8 198.6 268.6 194.4 267 203 254.8 198.6"/>
      <polygon class="st0" points="268.6 194.4 268.8 191.6 275.7 193.7 268.6 194.4"/>
      <polygon class="st0" points="275.7 193.7 268.8 191.6 282.7 179.1 275.7 193.7"/>
      <polygon class="st0" points="275.7 193.7 282.7 179.1 294.5 175.9 275.7 193.7"/>
      <polygon class="st0" points="294.5 175.9 275.7 193.7 283.8 213.3 294.5 175.9"/>
      <polygon class="st0" points="254.8 198.6 256.4 195.2 268.8 191.6 254.8 198.6"/>
      <polygon class="st0" points="268.8 191.6 256.4 195.2 262.9 186.9 268.8 191.6"/>
      <polygon class="st0" points="301.4 189.9 307.6 180.7 307.4 186.9 301.4 189.9"/>
      <polygon class="st0" points="307.4 186.9 307.6 180.7 309.7 181.7 307.4 186.9"/>
      <polygon class="st0" points="307.6 180.7 309.7 181.7 307.7 175.3 307.6 180.7"/>
      <polygon class="st0" points="318.4 185.6 307.7 175.3 309.7 181.7 318.4 185.6"/>
      <polygon class="st0" points="314.6 190.2 318.4 185.6 328.6 187.3 314.6 190.2"/>
      <polygon class="st0" points="328.6 187.3 318.4 185.6 325.6 184.7 328.6 187.3"/>
      <polygon class="st0" points="311.3 189.8 312 185.8 314.6 190.2 311.3 189.8"/>
      <polygon class="st0" points="314.6 190.2 312 185.8 318.4 185.6 314.6 190.2"/>
      <polygon class="st0" points="312 185.8 318.4 185.6 309.7 181.7 312 185.8"/>
      <polygon class="st0" points="302.4 195.5 301.4 189.9 307.3 189.9 302.4 195.5"/>
      <polygon class="st0" points="307.3 189.9 301.4 189.9 307.4 186.9 307.3 189.9"/>
      <polygon class="st0" points="328.6 187.3 335.1 177.6 325.6 184.7 328.6 187.3"/>
      <polygon class="st0" points="325.6 184.7 335.1 177.6 323.2 178 325.6 184.7"/>
      <polygon class="st0" points="325.6 184.7 323.2 178 318.4 185.6 325.6 184.7"/>
      <polygon class="st0" points="362.3 221.5 379.2 208.6 347.9 196.5 362.3 221.5"/>
      <polygon class="st0" points="379.9 234.4 386.5 211.9 380.9 222.2 379.9 234.4"/>
      <polygon class="st0" points="323.2 178 327.9 155.9 335.1 177.6 323.2 178"/>
      <polygon class="st0" points="335.1 177.6 327.9 155.9 346.8 160.6 335.1 177.6"/>
      <polygon class="st0" points="347.9 196.5 335.1 177.6 346.8 160.6 347.9 196.5"/>
      <polygon class="st0" points="347.9 196.5 346.8 160.6 379.5 179.1 347.9 196.5"/>
      <polygon class="st0" points="327.9 155.9 346.8 160.6 362.4 130.9 327.9 155.9"/>
      <polygon class="st0" points="295.2 156.1 287.5 145.1 305.9 114.3 295.2 156.1"/>
      <polygon class="st0" points="295.2 156.1 305.9 114.3 334 118.2 295.2 156.1"/>
      <polygon class="st0" points="295.2 156.1 334 118.2 315.7 152.8 295.2 156.1"/>
      <polygon class="st0" points="315.7 152.8 334 118.2 335.7 125.1 315.7 152.8"/>
      <polygon class="st0" points="335.7 125.1 334 118.2 343.1 89.3 335.7 125.1"/>
      <polygon class="st0" points="335.7 125.1 343.1 89.3 374.7 76 335.7 125.1"/>
      <polygon class="st0" points="271 174.1 287.5 145.1 262.2 166.7 271 174.1"/>
      <polygon class="st0" points="332 198.3 320.8 212.8 333 224.9 332 198.3"/>
      <polygon class="st0" points="314.6 190.2 328.6 187.3 332 198.3 314.6 190.2"/>
      <polygon class="st0" points="332 198.3 328.6 187.3 332.3 192 332 198.3"/>
      <polygon class="st0" points="374.7 76 335.7 125.1 362.4 130.9 374.7 76"/>
      <polygon class="st0" points="334 118.2 343.1 89.3 305.9 114.3 334 118.2"/>
      <polygon class="st0" points="287.5 145.1 305.9 114.3 262.2 166.7 287.5 145.1"/>
      <polygon class="st0" points="379.2 208.6 379.5 179.1 399.2 196.5 379.2 208.6"/>
      <polygon class="st0" points="399.2 196.5 379.5 179.1 397.4 173.5 399.2 196.5"/>
      <polygon class="st0" points="379.5 179.1 371.2 155.5 397.4 173.5 379.5 179.1"/>
      <polygon class="st0" points="397.4 173.5 371.2 155.5 396.1 148.4 397.4 173.5"/>
      <polygon class="st0" points="397.4 173.5 396.1 148.4 420.5 133.5 397.4 173.5"/>
      <polygon class="st0" points="397.4 173.5 420.5 133.5 422.8 189.9 397.4 173.5"/>
      <polygon class="st0" points="420.5 133.5 408.2 118.1 446.2 118 420.5 133.5"/>
      <polygon class="st0" points="446.2 118 408.2 118.1 421.8 96.7 446.2 118"/>
      <polygon class="st0" points="408.2 118.1 399.2 107.2 421.8 96.7 408.2 118.1"/>
      <polygon class="st0" points="421.8 96.7 399.2 107.2 413.4 68.3 421.8 96.7"/>
      <polygon class="st0" points="399.2 107.2 413.4 68.3 374.7 76 399.2 107.2"/>
      <polygon class="st0" points="422.8 189.9 420.5 133.5 444.3 175.2 422.8 189.9"/>
      <polygon class="st0" points="444.3 175.2 420.5 133.5 448.7 146.7 444.3 175.2"/>
      <polygon class="st0" points="448.7 146.7 420.5 133.5 446.2 118 448.7 146.7"/>
      <polygon class="st0" points="421.8 96.7 446.2 118 469.4 70.2 421.8 96.7"/>
      <polygon class="st0" points="446.2 118 469.4 70.2 465 120.2 446.2 118"/>
      <polygon class="st0" points="446.2 118 465 120.2 464.5 124.1 446.2 118"/>
      <polygon class="st0" points="421.8 96.7 469.4 70.2 413.4 68.3 421.8 96.7"/>
      <polygon class="st0" points="427 194.8 444.3 175.2 442.2 189.5 427 194.8"/>
      <polygon class="st0" points="427 194.8 442.2 189.5 435.9 200.4 427 194.8"/>
      <polygon class="st0" points="456.7 174.6 452.4 166.7 467.6 167.5 456.7 174.6"/>
      <polygon class="st0" points="467.6 167.5 452.4 166.7 468.6 139.6 467.6 167.5"/>
      <polygon class="st0" points="456.7 174.6 450.6 177.1 462.8 180.6 456.7 174.6"/>
      <polygon class="st0" points="449.4 185.4 450.6 177.1 454.3 186.1 449.4 185.4"/>
      <polygon class="st0" points="454.3 186.1 450.6 177.1 462.8 180.6 454.3 186.1"/>
      <polygon class="st0" points="453.5 199.1 453.9 193.7 462 200.3 453.5 199.1"/>
      <polygon class="st0" points="462 200.3 453.9 193.7 458.2 190.8 462 200.3"/>
      <polygon class="st0" points="462 200.3 458.2 190.8 463.3 183.9 462 200.3"/>
      <polygon class="st0" points="463.3 183.9 458.2 190.8 454.3 186.1 463.3 183.9"/>
      <polygon class="st0" points="463.3 183.9 454.3 186.1 462.8 180.6 463.3 183.9"/>
      <polygon class="st0" points="462.8 180.6 467.6 167.5 456.7 174.6 462.8 180.6"/>
      <polygon class="st0" points="471.9 192.6 462.8 180.6 476.2 169.2 471.9 192.6"/>
      <polygon class="st0" points="476.2 169.2 462.8 180.6 467.6 167.5 476.2 169.2"/>
      <polygon class="st0" points="467.6 167.5 477.1 160.2 476.2 169.2 467.6 167.5"/>
      <polygon class="st0" points="476.2 169.2 477.1 160.2 479.6 166.8 476.2 169.2"/>
      <polygon class="st0" points="476.2 169.2 479.6 166.8 486.9 172.6 476.2 169.2"/>
      <polygon class="st0" points="486.9 172.6 479.6 166.8 482.7 155.2 486.9 172.6"/>
      <polygon class="st0" points="507.7 146.4 503.5 148.4 484.1 136.4 507.7 146.4"/>
      <polygon class="st0" points="507.7 146.4 484.1 136.4 480.5 130.6 507.7 146.4"/>
      <polygon class="st0" points="473.9 148.4 481.9 141.7 479.2 150.9 473.9 148.4"/>
      <polygon class="st0" points="477.1 160.2 479.4 155.9 482.7 155.2 477.1 160.2"/>
      <polygon class="st0" points="477.1 160.2 482.7 155.2 479.6 166.8 477.1 160.2"/>
      <polygon class="st0" points="482.7 155.2 479.4 155.9 479.2 150.9 482.7 155.2"/>
      <polygon class="st0" points="482.7 155.2 479.2 150.9 481.9 141.7 482.7 155.2"/>
      <polygon class="st0" points="482.7 155.2 481.9 141.7 503.5 148.4 482.7 155.2"/>
      <polygon class="st0" points="503.5 148.4 481.9 141.7 484.1 136.4 503.5 148.4"/>
      <polygon class="st0" points="477.1 160.2 473.9 148.4 479.4 155.9 477.1 160.2"/>
      <polygon class="st0" points="479.4 155.9 473.9 148.4 479.2 150.9 479.4 155.9"/>
      <polygon class="st0" points="474.8 138.9 480.5 130.6 465.7 125.6 474.8 138.9"/>
      <polygon class="st0" points="467.6 167.5 468.6 139.6 473.9 148.4 467.6 167.5"/>
      <polygon class="st0" points="467.6 167.5 473.9 148.4 477.1 160.2 467.6 167.5"/>
      <polygon class="st0" points="453.2 206.5 450.1 197.3 453.5 199.1 453.2 206.5"/>
      <polygon class="st0" points="453.9 193.7 453.5 199.1 450.1 197.3 453.9 193.7"/>
      <polygon class="st0" points="453.9 193.7 458.2 190.8 454.3 186.1 453.9 193.7"/>
      <polygon class="st0" points="446 197.6 453.2 206.5 450.1 197.3 446 197.6"/>
      <polygon class="st0" points="486.9 172.6 483.7 184.9 490.4 191.3 486.9 172.6"/>
      <polygon class="st0" points="483.7 184.9 486.9 172.6 471.9 192.6 483.7 184.9"/>
      <polygon class="st0" points="483.7 184.9 471.9 192.6 490.4 191.3 483.7 184.9"/>
      <polygon class="st0" points="486.9 172.6 482.7 155.2 504.3 164.2 486.9 172.6"/>
      <polygon class="st0" points="486.9 172.6 504.3 164.2 497.9 176.2 486.9 172.6"/>
      <polygon class="st0" points="490.4 191.3 486.9 172.6 497.9 176.2 490.4 191.3"/>
      <polygon class="st0" points="490.4 191.3 497.9 176.2 507.7 187.5 490.4 191.3"/>
      <polygon class="st0" points="507.7 187.5 497.9 176.2 504.3 164.2 507.7 187.5"/>
      <polygon class="st0" points="507.7 187.5 504.3 164.2 545.2 138.5 507.7 187.5"/>
      <polygon class="st0" points="482.7 155.2 503.5 148.4 504.3 164.2 482.7 155.2"/>
      <polygon class="st0" points="504.3 164.2 503.5 148.4 507.7 146.4 504.3 164.2"/>
      <polygon class="st0" points="504.3 164.2 507.7 146.4 526 137.1 504.3 164.2"/>
      <polygon class="st0" points="492.2 205.2 492.3 197.2 497.3 206.5 492.2 205.2"/>
      <polygon class="st0" points="497.3 206.5 492.3 197.2 507.7 187.5 497.3 206.5"/>
      <polygon class="st0" points="507.7 187.5 492.3 197.2 490.4 191.3 507.7 187.5"/>
      <polygon class="st0" points="511.2 201.4 518.9 205.5 507.7 187.5 511.2 201.4"/>
      <polygon class="st0" points="498.3 211.9 497.3 206.5 511.2 201.4 498.3 211.9"/>
      <polygon class="st0" points="498.3 211.9 511.2 201.4 508.7 217.3 498.3 211.9"/>
      <polygon class="st0" points="508.7 217.3 511.2 201.4 518.9 205.5 508.7 217.3"/>
      <polygon class="st0" points="528.6 230 526.9 218.3 545.5 229.2 528.6 230"/>
      <polygon class="st0" points="545.5 229.2 526.9 218.3 526.6 214.8 545.5 229.2"/>
      <polygon class="st0" points="528.6 230 530.7 243.3 545.5 229.2 528.6 230"/>
      <polygon class="st0" points="526.6 214.8 518.9 205.5 537.9 194.1 526.6 214.8"/>
      <polygon class="st0" points="537.9 194.1 518.9 205.5 507.7 187.5 537.9 194.1"/>
      <polygon class="st0" points="507.7 187.5 537.9 194.1 530.2 168.6 507.7 187.5"/>
      <polygon class="st0" points="545.2 138.5 507.7 187.5 530.2 168.6 545.2 138.5"/>
      <polygon class="st0" points="504.3 164.2 545.2 138.5 526 137.1 504.3 164.2"/>
      <polygon class="st0" points="530.2 168.6 537.9 194.1 572.2 170.3 530.2 168.6"/>
      <polygon class="st0" points="530.2 168.6 572.2 170.3 564.5 161.2 530.2 168.6"/>
      <polygon class="st0" points="465.7 125.6 486.1 107.9 480.5 130.6 465.7 125.6"/>
      <polygon class="st0" points="480.5 130.6 486.1 107.9 511.6 82.5 480.5 130.6"/>
      <polygon class="st0" points="511.6 82.5 480.5 130.6 507.7 146.4 511.6 82.5"/>
      <polygon class="st0" points="511.6 82.5 507.7 146.4 526 137.1 511.6 82.5"/>
      <polygon class="st0" points="511.6 82.5 526 137.1 553.2 106.2 511.6 82.5"/>
      <polygon class="st0" points="553.2 106.2 526 137.1 545.2 138.5 553.2 106.2"/>
      <polygon class="st0" points="553.2 106.2 545.2 138.5 590.1 141.5 553.2 106.2"/>
      <polygon class="st0" points="590.1 141.5 545.2 138.5 564.5 161.2 590.1 141.5"/>
      <polygon class="st0" points="590.1 141.5 572.2 170.3 606.3 165 590.1 141.5"/>
      <polygon class="st0" points="572.2 170.3 590.1 141.5 564.5 161.2 572.2 170.3"/>
      <polygon class="st0" points="606.3 165 572.2 170.3 583.4 177.7 606.3 165"/>
      <polygon class="st0" points="606.3 165 613.6 193.7 620.2 193.5 606.3 165"/>
      <polygon class="st0" points="613.6 193.7 606.3 165 601.4 192.8 613.6 193.7"/>
      <polygon class="st0" points="610.4 214.4 601.4 192.8 613.6 193.7 610.4 214.4"/>
      <polygon class="st0" points="610.4 214.4 613.6 193.7 621.5 216.9 610.4 214.4"/>
      <polygon class="st0" points="590.1 181.3 583.4 177.7 582.4 183.5 590.1 181.3"/>
      <polygon class="st0" points="607.6 245 599.8 211.1 610.4 214.4 607.6 245"/>
      <polygon class="st0" points="607.6 245 610.4 214.4 621.5 216.9 607.6 245"/>
      <polygon class="st0" points="613.6 193.7 621.5 216.9 620.2 193.5 613.6 193.7"/>
      <polygon class="st0" points="621.5 216.9 607.6 245 627.9 258.1 621.5 216.9"/>
      <polygon class="st0" points="632 294.4 602.8 255.7 627.9 258.1 632 294.4"/>
      <polygon class="st0" points="627.9 258.1 602.8 255.7 607.6 245 627.9 258.1"/>
      <polygon class="st0" points="571.4 214.4 559 200.5 582.4 183.5 571.4 214.4"/>
      <polygon class="st0" points="582.4 183.5 559 200.5 571.6 181.4 582.4 183.5"/>
      <polygon class="st0" points="571.4 214.4 559 200.5 549.6 213.7 571.4 214.4"/>
      <polygon class="st0" points="549.6 213.7 559 200.5 553.5 196.4 549.6 213.7"/>
      <polygon class="st0" points="571.4 214.4 549.6 213.7 558.1 242.2 571.4 214.4"/>
      <polygon class="st0" points="571.4 214.4 558.1 242.2 569.2 233.5 571.4 214.4"/>
      <polygon class="st0" points="558.1 242.2 573.8 253.5 569.2 233.5 558.1 242.2"/>
      <polygon class="st0" points="573.8 253.5 569.2 233.5 602.8 255.7 573.8 253.5"/>
      <polygon class="st0" points="573.8 253.5 602.8 255.7 592.4 260.4 573.8 253.5"/>
      <polygon class="st0" points="602.8 255.7 592.4 260.4 565 305.2 602.8 255.7"/>
      <polygon class="st0" points="569.2 233.5 571.4 214.4 607.6 245 569.2 233.5"/>
      <polygon class="st0" points="569.2 233.5 607.6 245 602.8 255.7 569.2 233.5"/>
      <polygon class="st0" points="632 294.4 602.8 255.7 585 314.9 632 294.4"/>
      <polygon class="st0" points="632 294.4 585 314.9 618.9 342.6 632 294.4"/>
      <polygon class="st0" points="585 314.9 602.8 255.7 565 305.2 585 314.9"/>
      <polygon class="st0" points="565 305.2 592.4 260.4 548 290.9 565 305.2"/>
      <polygon class="st0" points="548 290.9 529.2 262.4 558.1 242.2 548 290.9"/>
      <polygon class="st0" points="558.1 242.2 529.2 262.4 531.6 247.7 558.1 242.2"/>
      <polygon class="st0" points="506.9 305.9 548 290.9 514.1 258.9 506.9 305.9"/>
      <polygon class="st0" points="470.3 329.1 468.6 298.2 506.9 305.9 470.3 329.1"/>
      <polygon class="st0" points="470.3 329.1 506.9 305.9 497.6 351.4 470.3 329.1"/>
      <polygon class="st0" points="468.6 298.2 506.9 305.9 492 287.6 468.6 298.2"/>
      <polygon class="st0" points="468.6 298.2 492 287.6 479.1 279.5 468.6 298.2"/>
      <polygon class="st0" points="514.1 258.9 513.8 240.9 518.2 246 514.1 258.9"/>
      <polygon class="st0" points="518.2 246 513.8 240.9 515.4 240.6 518.2 246"/>
      <polygon class="st0" points="518.2 246 515.4 240.6 516.8 240.4 518.2 246"/>
      <polygon class="st0" points="476.5 224.3 480.6 222.6 513.8 240.9 476.5 224.3"/>
      <polygon class="st0" points="513.8 240.9 480.6 222.6 498.3 211.9 513.8 240.9"/>
      <polygon class="st0" points="480.2 211 476.4 213.8 480.6 217 480.2 211"/>
      <polygon class="st0" points="492.3 197.2 480.6 217 492.2 205.2 492.3 197.2"/>
      <polygon class="st0" points="492.2 205.2 480.6 217 480.6 222.6 492.2 205.2"/>
      <polygon class="st0" points="480.6 222.6 492.2 205.2 498.3 211.9 480.6 222.6"/>
      <polygon class="st0" points="498.3 211.9 492.2 205.2 497.3 206.5 498.3 211.9"/>
      <polygon class="st0" points="498.3 211.9 513.8 240.9 508.7 217.3 498.3 211.9"/>
      <polygon class="st0" points="479.1 279.5 469.2 261.7 468.6 298.2 479.1 279.5"/>
      <polygon class="st0" points="497.6 351.4 470.3 329.1 452.1 344.2 497.6 351.4"/>
      <polygon class="st0" points="497.6 351.4 506.9 305.9 524.1 357.1 497.6 351.4"/>
      <polygon class="st0" points="524.1 357.1 506.9 305.9 554 330.8 524.1 357.1"/>
      <polygon class="st0" points="524.1 357.1 554 330.8 538.5 360.1 524.1 357.1"/>
      <polygon class="st0" points="538.5 360.1 554 330.8 573 338.9 538.5 360.1"/>
      <polygon class="st0" points="538.5 360.1 573 338.9 570.7 372.9 538.5 360.1"/>
      <polygon class="st0" points="570.7 372.9 573 338.9 596.4 383 570.7 372.9"/>
      <polygon class="st0" points="539.9 386.1 524.1 357.1 538.5 360.1 539.9 386.1"/>
      <polygon class="st0" points="539.9 386.1 538.5 360.1 570.7 372.9 539.9 386.1"/>
      <polygon class="st0" points="499 388.8 489.4 371.8 524.1 357.1 499 388.8"/>
      <polygon class="st0" points="524.1 357.1 489.4 371.8 497.6 351.4 524.1 357.1"/>
      <polygon class="st0" points="585 314.9 573 338.9 618.9 342.6 585 314.9"/>
      <polygon class="st0" points="618.9 342.6 573 338.9 596.4 383 618.9 342.6"/>
      <polygon class="st0" points="596.4 383 570.7 372.9 579.3 403.5 596.4 383"/>
      <polygon class="st0" points="472.1 379.3 457.3 353.2 489.4 371.8 472.1 379.3"/>
      <polygon class="st0" points="489.4 371.8 457.3 353.2 497.6 351.4 489.4 371.8"/>
      <polygon class="st0" points="497.6 351.4 457.3 353.2 452.1 344.2 497.6 351.4"/>
      <polygon class="st0" points="472.1 379.3 457.3 353.2 448.5 375.8 472.1 379.3"/>
      <polygon class="st0" points="472.1 379.3 439.7 397.8 469.5 402.6 472.1 379.3"/>
      <polygon class="st0" points="439.7 397.8 472.1 379.3 448.5 375.8 439.7 397.8"/>
      <polygon class="st0" points="439.7 397.8 448.5 375.8 433 365 439.7 397.8"/>
      <polygon class="st0" points="407 404.5 408.5 385.7 439.7 397.8 407 404.5"/>
      <polygon class="st0" points="407 404.5 439.7 397.8 435.6 419.2 407 404.5"/>
      <polygon class="st0" points="408.5 385.7 400.4 376.9 433 365 408.5 385.7"/>
      <polygon class="st0" points="433 365 400.4 376.9 432.8 355.2 433 365"/>
      <polygon class="st0" points="400.4 376.9 398.9 346.6 432.8 355.2 400.4 376.9"/>
      <polygon class="st0" points="432.8 355.2 398.9 346.6 422.2 339.3 432.8 355.2"/>
      <polygon class="st0" points="432.8 355.2 422.2 339.3 452.1 344.2 432.8 355.2"/>
      <polygon class="st0" points="452.1 344.2 422.2 339.3 447.1 322.6 452.1 344.2"/>
      <polygon class="st0" points="401.4 326.5 386.5 297 400.7 289.1 401.4 326.5"/>
      <polygon class="st0" points="401.4 326.5 400.7 289.1 413.4 324.8 401.4 326.5"/>
      <polygon class="st0" points="398.9 346.6 381.8 346.5 381.8 353.4 398.9 346.6"/>
      <polygon class="st0" points="343.5 347.9 370.2 334.3 381.8 353.4 343.5 347.9"/>
      <polygon class="st0" points="381.8 353.4 370.2 334.3 381.8 346.5 381.8 353.4"/>
      <polygon class="st0" points="364.3 376.1 363.9 357.4 368.7 374.6 364.3 376.1"/>
      <polygon class="st0" points="368.7 374.6 363.9 357.4 371.5 357.2 368.7 374.6"/>
      <polygon class="st0" points="368.7 374.6 371.5 357.2 388.5 361.8 368.7 374.6"/>
      <polygon class="st0" points="388.5 361.8 371.5 357.2 381.8 353.4 388.5 361.8"/>
      <polygon class="st0" points="343.5 347.9 381.8 353.4 363.9 357.4 343.5 347.9"/>
      <polygon class="st0" points="363.9 357.4 381.8 353.4 371.5 357.2 363.9 357.4"/>
      <polygon class="st0" points="364.3 376.1 363.9 357.4 359 382.4 364.3 376.1"/>
      <polygon class="st0" points="364.3 376.1 359 382.4 366.9 383.8 364.3 376.1"/>
      <polygon class="st0" points="359 382.4 358.1 388.9 364.2 389.9 359 382.4"/>
      <polygon class="st0" points="358.1 388.9 359 382.4 343.5 347.9 358.1 388.9"/>
      <polygon class="st0" points="358.1 388.9 344.7 396.2 357.3 394.5 358.1 388.9"/>
      <polygon class="st0" points="338.3 396.9 334 379.5 344.7 396.2 338.3 396.9"/>
      <polygon class="st0" points="344.7 396.2 334 379.5 358.1 388.9 344.7 396.2"/>
      <polygon class="st0" points="343.5 347.9 359 382.4 363.9 357.4 343.5 347.9"/>
      <polygon class="st0" points="381.6 385.4 400.4 376.9 388.5 361.8 381.6 385.4"/>
      <polygon class="st0" points="368.7 374.6 381.6 385.4 388.5 361.8 368.7 374.6"/>
      <polygon class="st0" points="366.9 383.8 364.3 376.1 368.7 374.6 366.9 383.8"/>
      <polygon class="st0" points="366.9 383.8 368.7 374.6 368.6 383.8 366.9 383.8"/>
      <polygon class="st0" points="366.9 383.8 359 382.4 364.2 389.9 366.9 383.8"/>
      <polygon class="st0" points="400 425 395.6 417.7 401.3 416 400 425"/>
      <polygon class="st0" points="400 425 401.3 416 409.3 420.8 400 425"/>
      <polygon class="st0" points="339.3 416 367.5 416.9 352.5 425.5 339.3 416"/>
      <polygon class="st0" points="352.5 425.5 367.5 416.9 400 425 352.5 425.5"/>
      <polygon class="st0" points="400 425 367.5 416.9 395.6 417.7 400 425"/>
      <polygon class="st0" points="339.3 416 367.5 416.9 344.7 396.2 339.3 416"/>
      <polygon class="st0" points="400 425 352.5 425.5 373 447 400 425"/>
      <polygon class="st0" points="409.3 420.8 400 425 410.3 450.9 409.3 420.8"/>
      <polygon class="st0" points="453 459.2 435.6 419.2 457 430.1 453 459.2"/>
      <polygon class="st0" points="453 459.2 457 430.1 468.9 462.8 453 459.2"/>
      <polygon class="st0" points="457 430.1 490.7 422.2 508.5 451.6 457 430.1"/>
      <polygon class="st0" points="508.5 451.6 490.7 422.2 493.8 423.1 508.5 451.6"/>
      <polygon class="st0" points="493.8 423.1 506.8 427.3 517.5 424.7 493.8 423.1"/>
      <polygon class="st0" points="517.5 424.7 524.1 416.7 535.4 425.1 517.5 424.7"/>
      <polygon class="st0" points="535.4 425.1 524.1 416.7 558 416 535.4 425.1"/>
      <polygon class="st0" points="524.1 416.7 558 416 557.5 405.3 524.1 416.7"/>
      <polygon class="st0" points="524.1 416.7 520.5 409.2 520.7 404.1 524.1 416.7"/>
      <polygon class="st0" points="524.1 416.7 520.7 404.1 557.5 405.3 524.1 416.7"/>
      <polygon class="st0" points="557.5 405.3 539.9 386.1 570.7 372.9 557.5 405.3"/>
      <polygon class="st0" points="557.5 405.3 570.7 372.9 579.3 403.5 557.5 405.3"/>
      <polygon class="st0" points="579.3 403.5 557.5 405.3 569 413.7 579.3 403.5"/>
      <polygon class="st0" points="539.9 386.1 524.1 357.1 499 388.8 539.9 386.1"/>
      <polygon class="st0" points="469.5 402.6 472.1 379.3 499 388.8 469.5 402.6"/>
      <polygon class="st0" points="499 388.8 472.1 379.3 489.4 371.8 499 388.8"/>
      <polygon class="st0" points="469.5 402.6 520.7 404.1 493.8 423.1 469.5 402.6"/>
      <polygon class="st0" points="493.8 423.1 520.7 404.1 520.5 409.2 493.8 423.1"/>
      <polygon class="st0" points="493.8 423.1 520.5 409.2 517.5 424.7 493.8 423.1"/>
      <polygon class="st0" points="517.5 424.7 520.5 409.2 524.1 416.7 517.5 424.7"/>
      <polygon class="st0" points="339.9 441.7 373 447 402.8 463.2 339.9 441.7"/>
      <polygon class="st0" points="402.8 463.2 373 447 410.3 450.9 402.8 463.2"/>
      <polygon class="st0" points="410.3 450.9 402.8 463.2 453 459.2 410.3 450.9"/>
      <polygon class="st0" points="453 459.2 402.8 463.2 447.8 465.3 453 459.2"/>
      <polygon class="st0" points="453 459.2 447.8 465.3 468.9 462.8 453 459.2"/>
      <polygon class="st0" points="457 430.1 468.9 462.8 508.5 451.6 457 430.1"/>
      <polygon class="st0" points="529.2 262.4 518.2 246 531.6 247.7 529.2 262.4"/>
      <polygon class="st0" points="531.6 247.7 518.2 246 530.7 243.3 531.6 247.7"/>
      <polygon class="st0" points="253.3 303.1 236.1 283.5 250.7 292.7 253.3 303.1"/>
      <polygon class="st0" points="248 282.5 250.7 292.7 236.1 283.5 248 282.5"/>
      <polygon class="st0" points="266.1 346.8 253.3 303.1 250 313.5 266.1 346.8"/>
      <polygon class="st0" points="259.7 304.6 266.1 346.8 271.6 327.4 259.7 304.6"/>
      <polygon class="st0" points="299.7 406 287.8 393.4 302 385.6 299.7 406"/>
      <polygon class="st0" points="302 385.6 287.8 393.4 289.9 388.5 302 385.6"/>
      <polygon class="st0" points="322.2 417.1 327.6 404.1 339.3 416 322.2 417.1"/>
      <polygon class="st0" points="322.2 417.1 339.3 416 334.6 421.5 322.2 417.1"/>
      <polygon class="st0" points="327.6 404.1 319.2 401 320.4 407.6 327.6 404.1"/>
      <polygon class="st0" points="327.6 404.1 320.4 407.6 322.2 417.1 327.6 404.1"/>
      <polygon class="st0" points="299.7 406 309.5 396.9 302 385.6 299.7 406"/>
      <polygon class="st0" points="271.6 327.4 277.9 312.5 259.7 304.6 271.6 327.4"/>
      <polygon class="st0" points="260.5 296 254.6 288.6 266.4 291 260.5 296"/>
      <polygon class="st0" points="266.4 291 254.6 288.6 269.5 268.8 266.4 291"/>
      <polygon class="st0" points="305.7 349.3 294 300.1 319.1 307.5 305.7 349.3"/>
      <polygon class="st0" points="305.7 349.3 319.1 307.5 327.9 323.3 305.7 349.3"/>
      <polygon class="st0" points="300.1 278.6 319.1 307.5 294 300.1 300.1 278.6"/>
      <polygon class="st0" points="296.4 257.8 290.8 234.3 316.9 245.5 296.4 257.8"/>
      <polygon class="st0" points="296.4 257.8 316.9 245.5 354.8 281.8 296.4 257.8"/>
      <polygon class="st0" points="478.1 221.1 478.1 217.2 480.6 217 478.1 221.1"/>
      <polygon class="st0" points="478.1 221.1 480.6 217 480.6 222.6 478.1 221.1"/>
      <polygon class="st0" points="296.9 196.4 296 191.1 302.4 195.5 296.9 196.4"/>
      <polygon class="st0" points="302.4 195.5 296 191.1 301.4 189.9 302.4 195.5"/>
      <polygon class="st0" points="379.2 208.6 379.5 179.1 347.9 196.5 379.2 208.6"/>
      <polygon class="st0" points="346.8 160.6 362.4 130.9 371.2 155.5 346.8 160.6"/>
      <polygon class="st0" points="346.8 160.6 371.2 155.5 379.5 179.1 346.8 160.6"/>
      <polygon class="st0" points="315.7 152.8 335.7 125.1 327.9 155.9 315.7 152.8"/>
      <polygon class="st0" points="327.9 155.9 335.7 125.1 362.4 130.9 327.9 155.9"/>
      <polygon class="st0" points="294.5 175.9 315.7 152.8 295.2 156.1 294.5 175.9"/>
      <polygon class="st0" points="362.4 130.9 374.7 76 384.9 116.4 362.4 130.9"/>
      <polygon class="st0" points="399.2 107.2 384.9 116.4 374.7 76 399.2 107.2"/>
      <polygon class="st0" points="399.2 196.5 397.4 173.5 422.8 189.9 399.2 196.5"/>
      <polygon class="st0" points="399.2 196.5 422.8 189.9 420.1 199.6 399.2 196.5"/>
      <polygon class="st0" points="465.7 125.6 466.2 120.3 486.1 107.9 465.7 125.6"/>
      <polygon class="st0" points="486.1 107.9 466.2 120.3 483.2 103.9 486.1 107.9"/>
      <polygon class="st0" points="476.2 169.2 471.9 192.6 486.9 172.6 476.2 169.2"/>
      <polygon class="st0" points="564.5 161.2 545.2 138.5 530.2 168.6 564.5 161.2"/>
      <polygon class="st0" points="497.3 206.5 511.2 201.4 507.7 187.5 497.3 206.5"/>
      <polygon class="st0" points="526.6 214.8 545.5 229.2 537.9 194.1 526.6 214.8"/>
      <polygon class="st0" points="572.2 170.3 537.9 194.1 553.5 196.4 572.2 170.3"/>
      <polygon class="st0" points="582.4 183.5 590.6 191.1 590.1 181.3 582.4 183.5"/>
      <polygon class="st0" points="492 287.6 506.9 305.9 514.1 258.9 492 287.6"/>
      <polygon class="st0" points="453.9 275.9 468.6 298.2 469.2 261.7 453.9 275.9"/>
      <polygon class="st0" points="452.1 344.2 447.1 322.6 470.3 329.1 452.1 344.2"/>
      <polygon class="st0" points="470.3 329.1 447.1 322.6 468.6 298.2 470.3 329.1"/>
      <polygon class="st0" points="468.6 298.2 447.1 322.6 438.3 284 468.6 298.2"/>
      <polygon class="st0" points="433 365 432.8 355.2 457.3 353.2 433 365"/>
      <polygon class="st0" points="433 365 457.3 353.2 448.5 375.8 433 365"/>
      <polygon class="st0" points="457.3 353.2 432.8 355.2 452.1 344.2 457.3 353.2"/>
      <polygon class="st0" points="439.7 397.8 433 365 408.5 385.7 439.7 397.8"/>
      <polygon class="st0" points="416.1 281.3 400.7 289.1 413.4 324.8 416.1 281.3"/>
      <polygon class="st0" points="400.4 376.9 388.5 361.8 398.9 346.6 400.4 376.9"/>
      <polygon class="st0" points="398.9 346.6 388.5 361.8 381.8 353.4 398.9 346.6"/>
      <polygon class="st0" points="469.5 402.6 499 388.8 520.7 404.1 469.5 402.6"/>
      <polygon class="st0" points="557.5 405.3 520.7 404.1 539.9 386.1 557.5 405.3"/>
      <polygon class="st0" points="539.9 386.1 520.7 404.1 499 388.8 539.9 386.1"/>
      <polygon class="st0" points="557.5 405.3 558 416 569 413.7 557.5 405.3"/>
      <polygon class="st0" points="373 447 410.3 450.9 400 425 373 447"/>
      <polygon class="st0" points="410.3 450.9 409.3 420.8 435.6 419.2 410.3 450.9"/>
      <polygon class="st0" points="410.3 450.9 435.6 419.2 453 459.2 410.3 450.9"/>
      <polygon class="st0" points="514.1 258.9 518.2 246 529.2 262.4 514.1 258.9"/>
      <polygon class="st0" points="514.1 258.9 529.2 262.4 548 290.9 514.1 258.9"/>
    </g>
  </g>
</svg>